<svg width="110" height="111" viewBox="0 0 110 111" fill="none" xmlns="http://www.w3.org/2000/svg">
<g filter="url(#filter0_f_205_416)">
<ellipse cx="56.5" cy="67.5" rx="31.5" ry="9.5" fill="#004E67" fill-opacity="0.7"/>
</g>
<path d="M33.6206 64.6562L23.679 71.9304C22.5897 72.7179 21.699 73.7453 21.0758 74.9334C20.4525 76.1215 20.1134 77.4384 20.0846 78.7825C20.1265 80.701 20.8275 82.6969 23.2182 83.9837C25.609 85.2704 27.661 84.7563 29.2854 83.7345C30.3914 82.9702 31.3038 81.9618 31.9521 80.7873C32.6005 79.6127 32.9675 78.3034 33.0247 76.9605L33.6206 64.6562Z" fill="url(#paint0_linear_205_416)"/>
<path d="M86.6206 64.6562L76.679 71.9304C75.5897 72.7179 74.699 73.7453 74.0758 74.9334C73.4525 76.1215 73.1134 77.4384 73.0846 78.7825C73.1265 80.701 73.8275 82.6969 76.2182 83.9837C78.609 85.2704 80.661 84.7563 82.2854 83.7345C83.3914 82.9702 84.3038 81.9618 84.9521 80.7873C85.6005 79.6127 85.9675 78.3034 86.0247 76.9605L86.6206 64.6562Z" fill="url(#paint1_linear_205_416)"/>
<path d="M51.7578 87.8996L41.8532 95.224C40.7678 96.017 39.8823 97.0489 39.2651 98.2401C38.6479 99.4313 38.3154 100.75 38.2934 102.094C38.345 104.012 39.0561 106.005 41.4534 107.279C43.8506 108.554 45.9 108.03 47.5192 107C48.6213 106.23 49.5286 105.217 50.171 104.039C50.8134 102.861 51.1737 101.55 51.2242 100.207L51.7578 87.8996Z" fill="url(#paint2_linear_205_416)"/>
<path fill-rule="evenodd" clip-rule="evenodd" d="M22.8063 90.875C22.8063 89.8395 21.9668 89 20.9313 89C19.8957 89 19.0563 89.8395 19.0563 90.875V93.4046L17.2676 91.6159C16.5354 90.8837 15.3482 90.8837 14.6159 91.6159C13.8837 92.3482 13.8837 93.5353 14.6159 94.2676L16.4048 96.0564H13.875C12.8395 96.0564 12 96.8959 12 97.9314C12 98.9669 12.8395 99.8064 13.875 99.8064H16.4046L14.6158 101.595C13.8836 102.327 13.8836 103.515 14.6158 104.247C15.348 104.979 16.5352 104.979 17.2674 104.247L19.0563 102.458V104.988C19.0563 106.023 19.8957 106.863 20.9313 106.863C21.9668 106.863 22.8063 106.023 22.8063 104.988V102.458L24.5952 104.247C25.3275 104.979 26.5147 104.979 27.2469 104.247C27.9791 103.515 27.9791 102.327 27.2469 101.595L25.4581 99.8064H27.9879C29.0234 99.8064 29.8629 98.9669 29.8629 97.9314C29.8629 96.8959 29.0234 96.0564 27.9879 96.0564H25.4579L27.2467 94.2676C27.979 93.5353 27.979 92.3482 27.2467 91.6159C26.5145 90.8837 25.3273 90.8837 24.5951 91.6159L22.8063 93.4047V90.875Z" fill="url(#paint3_linear_205_416)"/>
<path fill-rule="evenodd" clip-rule="evenodd" d="M73.8063 90.875C73.8063 89.8395 72.9668 89 71.9313 89C70.8957 89 70.0563 89.8395 70.0563 90.875V93.4046L68.2676 91.6159C67.5354 90.8837 66.3482 90.8837 65.6159 91.6159C64.8837 92.3482 64.8837 93.5353 65.6159 94.2676L67.4048 96.0564H64.875C63.8395 96.0564 63 96.8959 63 97.9314C63 98.9669 63.8395 99.8064 64.875 99.8064H67.4046L65.6158 101.595C64.8836 102.327 64.8836 103.515 65.6158 104.247C66.348 104.979 67.5352 104.979 68.2674 104.247L70.0563 102.458V104.988C70.0563 106.023 70.8957 106.863 71.9313 106.863C72.9668 106.863 73.8063 106.023 73.8063 104.988V102.458L75.5952 104.247C76.3275 104.979 77.5147 104.979 78.2469 104.247C78.9791 103.515 78.9791 102.327 78.2469 101.595L76.4581 99.8064H78.9879C80.0234 99.8064 80.8629 98.9669 80.8629 97.9314C80.8629 96.8959 80.0234 96.0564 78.9879 96.0564H76.4579L78.2467 94.2676C78.979 93.5353 78.979 92.3482 78.2467 91.6159C77.5145 90.8837 76.3273 90.8837 75.5951 91.6159L73.8063 93.4047V90.875Z" fill="url(#paint4_linear_205_416)"/>
<path fill-rule="evenodd" clip-rule="evenodd" d="M53.8063 68.875C53.8063 67.8395 52.9668 67 51.9313 67C50.8957 67 50.0563 67.8395 50.0563 68.875V71.4046L48.2676 69.6159C47.5354 68.8837 46.3482 68.8837 45.6159 69.6159C44.8837 70.3482 44.8837 71.5353 45.6159 72.2676L47.4048 74.0564H44.875C43.8395 74.0564 43 74.8959 43 75.9314C43 76.9669 43.8395 77.8064 44.875 77.8064H47.4046L45.6158 79.5952C44.8836 80.3275 44.8836 81.5146 45.6158 82.2469C46.348 82.9791 47.5352 82.9791 48.2674 82.2469L50.0563 80.458V82.9879C50.0563 84.0234 50.8957 84.8629 51.9313 84.8629C52.9668 84.8629 53.8063 84.0234 53.8063 82.9879V80.4579L55.5952 82.2469C56.3275 82.9791 57.5147 82.9791 58.2469 82.2469C58.9791 81.5146 58.9791 80.3275 58.2469 79.5952L56.4581 77.8064H58.9879C60.0234 77.8064 60.8629 76.9669 60.8629 75.9314C60.8629 74.8959 60.0234 74.0564 58.9879 74.0564H56.4579L58.2467 72.2676C58.979 71.5353 58.979 70.3482 58.2467 69.6159C57.5145 68.8837 56.3273 68.8837 55.5951 69.6159L53.8063 71.4047V68.875Z" fill="url(#paint5_linear_205_416)"/>
<g filter="url(#filter1_bi_205_416)">
<path fill-rule="evenodd" clip-rule="evenodd" d="M77 30C77 30.7882 76.9696 31.5693 76.9099 32.3422C80.1949 29.6296 84.4071 28 89 28C99.4934 28 108 36.5066 108 47C108 57.158 100.029 65.4541 90 65.9741V66H89H19H17V65.896C7.44667 64.8966 0 56.8179 0 47C0 37.1618 7.47752 29.07 17.0593 28.0979C18.0405 12.4156 31.0704 0 47 0C63.5685 0 77 13.4315 77 30Z" fill="url(#paint6_linear_205_416)"/>
</g>
<defs>
<filter id="filter0_f_205_416" x="3" y="36" width="107" height="63" filterUnits="userSpaceOnUse" color-interpolation-filters="sRGB">
<feFlood flood-opacity="0" result="BackgroundImageFix"/>
<feBlend mode="normal" in="SourceGraphic" in2="BackgroundImageFix" result="shape"/>
<feGaussianBlur stdDeviation="11" result="effect1_foregroundBlur_205_416"/>
</filter>
<filter id="filter1_bi_205_416" x="-7" y="-7" width="122" height="80" filterUnits="userSpaceOnUse" color-interpolation-filters="sRGB">
<feFlood flood-opacity="0" result="BackgroundImageFix"/>
<feGaussianBlur in="BackgroundImageFix" stdDeviation="3.5"/>
<feComposite in2="SourceAlpha" operator="in" result="effect1_backgroundBlur_205_416"/>
<feBlend mode="normal" in="SourceGraphic" in2="effect1_backgroundBlur_205_416" result="shape"/>
<feColorMatrix in="SourceAlpha" type="matrix" values="0 0 0 0 0 0 0 0 0 0 0 0 0 0 0 0 0 0 127 0" result="hardAlpha"/>
<feOffset dy="2"/>
<feGaussianBlur stdDeviation="4"/>
<feComposite in2="hardAlpha" operator="arithmetic" k2="-1" k3="1"/>
<feColorMatrix type="matrix" values="0 0 0 0 0 0 0 0 0 0.82 0 0 0 0 1 0 0 0 0.25 0"/>
<feBlend mode="normal" in2="shape" result="effect2_innerShadow_205_416"/>
</filter>
<linearGradient id="paint0_linear_205_416" x1="52.4024" y1="60.9205" x2="36.0173" y2="86.3432" gradientUnits="userSpaceOnUse">
<stop stop-color="#D7F0FF"/>
<stop offset="1" stop-color="#0072DC"/>
</linearGradient>
<linearGradient id="paint1_linear_205_416" x1="105.402" y1="60.9205" x2="89.0173" y2="86.3432" gradientUnits="userSpaceOnUse">
<stop stop-color="#D7F0FF"/>
<stop offset="1" stop-color="#0072DC"/>
</linearGradient>
<linearGradient id="paint2_linear_205_416" x1="56.6623" y1="77.9617" x2="54.2829" y2="108.113" gradientUnits="userSpaceOnUse">
<stop stop-color="#D7F0FF"/>
<stop offset="1" stop-color="#0072DC"/>
</linearGradient>
<linearGradient id="paint3_linear_205_416" x1="14.55" y1="103.248" x2="31.5153" y2="88.9284" gradientUnits="userSpaceOnUse">
<stop stop-color="#0056D6"/>
<stop offset="1" stop-color="#ADD8FF"/>
</linearGradient>
<linearGradient id="paint4_linear_205_416" x1="65.55" y1="103.248" x2="82.5153" y2="88.9284" gradientUnits="userSpaceOnUse">
<stop stop-color="#0056D6"/>
<stop offset="1" stop-color="#ADD8FF"/>
</linearGradient>
<linearGradient id="paint5_linear_205_416" x1="45.55" y1="81.2478" x2="62.5153" y2="66.9284" gradientUnits="userSpaceOnUse">
<stop stop-color="#0056D6"/>
<stop offset="1" stop-color="#ADD8FF"/>
</linearGradient>
<linearGradient id="paint6_linear_205_416" x1="56" y1="89.5" x2="96.5" y2="1.95655e-07" gradientUnits="userSpaceOnUse">
<stop stop-color="#0082DF"/>
<stop offset="0.299998" stop-color="#48B2FF" stop-opacity="0.75"/>
<stop offset="1" stop-color="#3BADFF" stop-opacity="0"/>
</linearGradient>
</defs>
</svg>
