<svg width="112" height="108" viewBox="0 0 112 108" fill="none" xmlns="http://www.w3.org/2000/svg">
<g filter="url(#filter0_f_205_540)">
<ellipse cx="58.5" cy="68.5" rx="31.5" ry="9.5" fill="#004E67" fill-opacity="0.7"/>
</g>
<path d="M31.3501 62.8078L21.4085 70.082C20.3191 70.8694 19.4284 71.8968 18.8052 73.0849C18.1819 74.273 17.8428 75.5899 17.814 76.934C17.8559 78.8525 18.5569 80.8484 20.9477 82.1352C23.3384 83.4219 25.3904 82.9078 27.0148 81.886C28.1208 81.1217 29.0332 80.1133 29.6816 78.9388C30.3299 77.7642 30.6969 76.4549 30.7542 75.112L31.3501 62.8078Z" fill="url(#paint0_linear_205_540)"/>
<path d="M92.841 63.9272L82.8994 71.2014C81.81 71.9888 80.9193 73.0162 80.2961 74.2043C79.6729 75.3924 79.3337 76.7093 79.3049 78.0534C79.3468 79.972 80.0478 81.9678 82.4386 83.2546C84.8293 84.5413 86.8813 84.0272 88.5057 83.0054C89.6117 82.2411 90.5241 81.2327 91.1725 80.0582C91.8208 78.8837 92.1878 77.5744 92.2451 76.2314L92.841 63.9272Z" fill="url(#paint1_linear_205_540)"/>
<path d="M34.7578 84.8996L24.8532 92.224C23.7678 93.017 22.8823 94.0489 22.2651 95.2401C21.6479 96.4313 21.3154 97.7499 21.2934 99.0941C21.345 101.012 22.0561 103.005 24.4534 104.279C26.8506 105.554 28.9 105.03 30.5192 104C31.6213 103.23 32.5286 102.217 33.171 101.039C33.8134 99.8611 34.1737 98.5499 34.2242 97.2067L34.7578 84.8996Z" fill="url(#paint2_linear_205_540)"/>
<path fill-rule="evenodd" clip-rule="evenodd" d="M10.8063 87.875C10.8063 86.8395 9.9668 86 8.93127 86C7.89573 86 7.05627 86.8395 7.05627 87.875V90.4046L5.2676 88.6159C4.53536 87.8837 3.34818 87.8837 2.61595 88.6159C1.88371 89.3482 1.88371 90.5353 2.61595 91.2676L4.40478 93.0564H1.875C0.839466 93.0564 0 93.8959 0 94.9314C0 95.9669 0.839466 96.8064 1.875 96.8064H4.4046L2.61579 98.5952C1.88355 99.3275 1.88355 100.515 2.61579 101.247C3.34802 101.979 4.5352 101.979 5.26744 101.247L7.05627 99.458V101.988C7.05627 103.023 7.89573 103.863 8.93127 103.863C9.9668 103.863 10.8063 103.023 10.8063 101.988V99.4579L12.5952 101.247C13.3275 101.979 14.5147 101.979 15.2469 101.247C15.9791 100.515 15.9791 99.3275 15.2469 98.5952L13.4581 96.8064H15.9879C17.0234 96.8064 17.8629 95.9669 17.8629 94.9314C17.8629 93.8959 17.0234 93.0564 15.9879 93.0564H13.4579L15.2467 91.2676C15.979 90.5353 15.979 89.3482 15.2467 88.6159C14.5145 87.8837 13.3273 87.8837 12.5951 88.6159L10.8063 90.4047V87.875Z" fill="url(#paint3_linear_205_540)"/>
<path fill-rule="evenodd" clip-rule="evenodd" d="M75.8063 87.875C75.8063 86.8395 74.9668 86 73.9313 86C72.8957 86 72.0563 86.8395 72.0563 87.875V90.4046L70.2676 88.6159C69.5354 87.8837 68.3482 87.8837 67.6159 88.6159C66.8837 89.3482 66.8837 90.5353 67.6159 91.2676L69.4048 93.0564H66.875C65.8395 93.0564 65 93.8959 65 94.9314C65 95.9669 65.8395 96.8064 66.875 96.8064H69.4046L67.6158 98.5952C66.8836 99.3275 66.8836 100.515 67.6158 101.247C68.348 101.979 69.5352 101.979 70.2674 101.247L72.0563 99.458V101.988C72.0563 103.023 72.8957 103.863 73.9313 103.863C74.9668 103.863 75.8063 103.023 75.8063 101.988V99.4579L77.5952 101.247C78.3275 101.979 79.5147 101.979 80.2469 101.247C80.9791 100.515 80.9791 99.3275 80.2469 98.5952L78.4581 96.8064H80.9879C82.0234 96.8064 82.8629 95.9669 82.8629 94.9314C82.8629 93.8959 82.0234 93.0564 80.9879 93.0564H78.4579L80.2467 91.2676C80.979 90.5353 80.979 89.3482 80.2467 88.6159C79.5145 87.8837 78.3273 87.8837 77.5951 88.6159L75.8063 90.4047V87.875Z" fill="url(#paint4_linear_205_540)"/>
<path fill-rule="evenodd" clip-rule="evenodd" d="M96.8063 87.875C96.8063 86.8395 95.9668 86 94.9313 86C93.8957 86 93.0563 86.8395 93.0563 87.875V90.4046L91.2676 88.6159C90.5354 87.8837 89.3482 87.8837 88.6159 88.6159C87.8837 89.3482 87.8837 90.5353 88.6159 91.2676L90.4048 93.0564H87.875C86.8395 93.0564 86 93.8959 86 94.9314C86 95.9669 86.8395 96.8064 87.875 96.8064H90.4046L88.6158 98.5952C87.8836 99.3275 87.8836 100.515 88.6158 101.247C89.348 101.979 90.5352 101.979 91.2674 101.247L93.0563 99.458V101.988C93.0563 103.023 93.8957 103.863 94.9313 103.863C95.9668 103.863 96.8063 103.023 96.8063 101.988V99.4579L98.5952 101.247C99.3275 101.979 100.515 101.979 101.247 101.247C101.979 100.515 101.979 99.3275 101.247 98.5952L99.4581 96.8064H101.988C103.023 96.8064 103.863 95.9669 103.863 94.9314C103.863 93.8959 103.023 93.0564 101.988 93.0564H99.4579L101.247 91.2676C101.979 90.5353 101.979 89.3482 101.247 88.6159C100.515 87.8837 99.3273 87.8837 98.5951 88.6159L96.8063 90.4047V87.875Z" fill="url(#paint5_linear_205_540)"/>
<path d="M43.8069 82.2814L56.9076 58.2315C56.9853 58.0888 57.1348 58 57.2973 58H74.2814C74.6114 58 74.826 58.3474 74.6782 58.6426L67.8724 72.2324C67.7246 72.5276 67.9391 72.875 68.2692 72.875H75L37.8784 105.356C37.5053 105.683 36.959 105.245 37.1967 104.81L48.7873 83.5941C48.9489 83.2983 48.7349 82.9375 48.3979 82.9375H44.1966C43.8598 82.9375 43.6458 82.5771 43.8069 82.2814Z" fill="url(#paint6_linear_205_540)"/>
<g filter="url(#filter1_bi_205_540)">
<path fill-rule="evenodd" clip-rule="evenodd" d="M81 30C81 30.7882 80.9696 31.5693 80.9099 32.3422C84.1949 29.6296 88.4071 28 93 28C103.493 28 112 36.5066 112 47C112 57.158 104.029 65.4541 94 65.9741V66H93H23H21V65.896C11.4467 64.8966 4 56.8179 4 47C4 37.1618 11.4775 29.07 21.0593 28.0979C22.0405 12.4156 35.0704 0 51 0C67.5685 0 81 13.4315 81 30Z" fill="url(#paint7_linear_205_540)"/>
</g>
<defs>
<filter id="filter0_f_205_540" x="5" y="37" width="107" height="63" filterUnits="userSpaceOnUse" color-interpolation-filters="sRGB">
<feFlood flood-opacity="0" result="BackgroundImageFix"/>
<feBlend mode="normal" in="SourceGraphic" in2="BackgroundImageFix" result="shape"/>
<feGaussianBlur stdDeviation="11" result="effect1_foregroundBlur_205_540"/>
</filter>
<filter id="filter1_bi_205_540" x="-3" y="-7" width="122" height="80" filterUnits="userSpaceOnUse" color-interpolation-filters="sRGB">
<feFlood flood-opacity="0" result="BackgroundImageFix"/>
<feGaussianBlur in="BackgroundImageFix" stdDeviation="3.5"/>
<feComposite in2="SourceAlpha" operator="in" result="effect1_backgroundBlur_205_540"/>
<feBlend mode="normal" in="SourceGraphic" in2="effect1_backgroundBlur_205_540" result="shape"/>
<feColorMatrix in="SourceAlpha" type="matrix" values="0 0 0 0 0 0 0 0 0 0 0 0 0 0 0 0 0 0 127 0" result="hardAlpha"/>
<feOffset dy="2"/>
<feGaussianBlur stdDeviation="4"/>
<feComposite in2="hardAlpha" operator="arithmetic" k2="-1" k3="1"/>
<feColorMatrix type="matrix" values="0 0 0 0 0 0 0 0 0 0.82 0 0 0 0 1 0 0 0 0.25 0"/>
<feBlend mode="normal" in2="shape" result="effect2_innerShadow_205_540"/>
</filter>
<linearGradient id="paint0_linear_205_540" x1="59.5431" y1="58.2255" x2="41.3007" y2="87.0795" gradientUnits="userSpaceOnUse">
<stop stop-color="#D7F0FF"/>
<stop offset="1" stop-color="#0072DC"/>
</linearGradient>
<linearGradient id="paint1_linear_205_540" x1="114.305" y1="60.1934" x2="96.0622" y2="89.0474" gradientUnits="userSpaceOnUse">
<stop stop-color="#D7F0FF"/>
<stop offset="1" stop-color="#0072DC"/>
</linearGradient>
<linearGradient id="paint2_linear_205_540" x1="39.6623" y1="74.9617" x2="37.2829" y2="105.113" gradientUnits="userSpaceOnUse">
<stop stop-color="#D7F0FF"/>
<stop offset="1" stop-color="#0072DC"/>
</linearGradient>
<linearGradient id="paint3_linear_205_540" x1="2.54998" y1="100.248" x2="19.5153" y2="85.9284" gradientUnits="userSpaceOnUse">
<stop stop-color="#0056D6"/>
<stop offset="1" stop-color="#ADD8FF"/>
</linearGradient>
<linearGradient id="paint4_linear_205_540" x1="67.55" y1="100.248" x2="84.5153" y2="85.9284" gradientUnits="userSpaceOnUse">
<stop stop-color="#0056D6"/>
<stop offset="1" stop-color="#ADD8FF"/>
</linearGradient>
<linearGradient id="paint5_linear_205_540" x1="88.55" y1="100.248" x2="105.515" y2="85.9284" gradientUnits="userSpaceOnUse">
<stop stop-color="#0056D6"/>
<stop offset="1" stop-color="#ADD8FF"/>
</linearGradient>
<linearGradient id="paint6_linear_205_540" x1="55.5" y1="58" x2="55.5" y2="107" gradientUnits="userSpaceOnUse">
<stop stop-color="#F8FD00"/>
<stop offset="1" stop-color="#FD9800"/>
</linearGradient>
<linearGradient id="paint7_linear_205_540" x1="60" y1="89.5" x2="100.5" y2="1.95655e-07" gradientUnits="userSpaceOnUse">
<stop stop-color="#0082DF"/>
<stop offset="0.299998" stop-color="#48B2FF" stop-opacity="0.75"/>
<stop offset="1" stop-color="#3BADFF" stop-opacity="0"/>
</linearGradient>
</defs>
</svg>
