<svg width="108" height="109" viewBox="0 0 108 109" fill="none" xmlns="http://www.w3.org/2000/svg">
<g filter="url(#filter0_f_205_365)">
<ellipse cx="53.5" cy="67.5" rx="31.5" ry="9.5" fill="#004E67" fill-opacity="0.7"/>
</g>
<path d="M38.9067 64.8158L28.7525 71.7901C27.6401 72.5447 26.7191 73.545 26.0607 74.714C25.4023 75.8829 25.0241 77.1891 24.9552 78.5317C24.9398 80.4507 25.5809 82.4666 27.9322 83.8242C30.2835 85.1817 32.3499 84.729 34.0041 83.7561C35.1324 83.0252 36.0745 82.0445 36.7576 80.8898C37.4407 79.7351 37.8466 78.4374 37.9439 77.0967L38.9067 64.8158Z" fill="url(#paint0_linear_205_365)"/>
<path d="M64.3234 86.0882L54.1691 93.0625C53.0567 93.817 52.1358 94.8174 51.4774 95.9864C50.819 97.1553 50.4407 98.4615 50.3718 99.8041C50.3564 101.723 50.9976 103.739 53.3488 105.097C55.7001 106.454 57.7666 106.001 59.4207 105.029C60.549 104.298 61.4911 103.317 62.1742 102.162C62.8574 101.008 63.2632 99.7098 63.3606 98.3691L64.3234 86.0882Z" fill="url(#paint1_linear_205_365)"/>
<path fill-rule="evenodd" clip-rule="evenodd" d="M23.8063 88.875C23.8063 87.8395 22.9668 87 21.9313 87C20.8957 87 20.0563 87.8395 20.0563 88.875V91.4046L18.2676 89.6159C17.5354 88.8837 16.3482 88.8837 15.6159 89.6159C14.8837 90.3482 14.8837 91.5353 15.6159 92.2676L17.4048 94.0564H14.875C13.8395 94.0564 13 94.8959 13 95.9314C13 96.9669 13.8395 97.8064 14.875 97.8064H17.4046L15.6158 99.5952C14.8836 100.327 14.8836 101.515 15.6158 102.247C16.348 102.979 17.5352 102.979 18.2674 102.247L20.0563 100.458V102.988C20.0563 104.023 20.8957 104.863 21.9313 104.863C22.9668 104.863 23.8063 104.023 23.8063 102.988V100.458L25.5952 102.247C26.3275 102.979 27.5147 102.979 28.2469 102.247C28.9791 101.515 28.9791 100.327 28.2469 99.5952L26.4581 97.8064H28.9879C30.0234 97.8064 30.8629 96.9669 30.8629 95.9314C30.8629 94.8959 30.0234 94.0564 28.9879 94.0564H26.4579L28.2467 92.2676C28.979 91.5353 28.979 90.3482 28.2467 89.6159C27.5145 88.8837 26.3273 88.8837 25.5951 89.6159L23.8063 91.4047V88.875Z" fill="url(#paint2_linear_205_365)"/>
<path fill-rule="evenodd" clip-rule="evenodd" d="M71.8063 67.875C71.8063 66.8395 70.9668 66 69.9313 66C68.8957 66 68.0563 66.8395 68.0563 67.875V70.4046L66.2676 68.6159C65.5354 67.8837 64.3482 67.8837 63.6159 68.6159C62.8837 69.3482 62.8837 70.5353 63.6159 71.2676L65.4048 73.0564H62.875C61.8395 73.0564 61 73.8959 61 74.9314C61 75.9669 61.8395 76.8064 62.875 76.8064H65.4046L63.6158 78.5952C62.8836 79.3275 62.8836 80.5146 63.6158 81.2469C64.348 81.9791 65.5352 81.9791 66.2674 81.2469L68.0563 79.458V81.9879C68.0563 83.0234 68.8957 83.8629 69.9313 83.8629C70.9668 83.8629 71.8063 83.0234 71.8063 81.9879V79.4579L73.5952 81.2469C74.3275 81.9791 75.5147 81.9791 76.2469 81.2469C76.9791 80.5146 76.9791 79.3275 76.2469 78.5952L74.4581 76.8064H76.9879C78.0234 76.8064 78.8629 75.9669 78.8629 74.9314C78.8629 73.8959 78.0234 73.0564 76.9879 73.0564H74.4579L76.2467 71.2676C76.979 70.5353 76.979 69.3482 76.2467 68.6159C75.5145 67.8837 74.3273 67.8837 73.5951 68.6159L71.8063 70.4047V67.875Z" fill="url(#paint3_linear_205_365)"/>
<g filter="url(#filter1_bi_205_365)">
<path fill-rule="evenodd" clip-rule="evenodd" d="M77 30C77 30.7882 76.9696 31.5693 76.9099 32.3422C80.1949 29.6296 84.4071 28 89 28C99.4934 28 108 36.5066 108 47C108 57.158 100.029 65.4541 90 65.9741V66H89H19H17V65.896C7.44667 64.8966 0 56.8179 0 47C0 37.1618 7.47752 29.07 17.0593 28.0979C18.0405 12.4156 31.0704 0 47 0C63.5685 0 77 13.4315 77 30Z" fill="url(#paint4_linear_205_365)"/>
</g>
<defs>
<filter id="filter0_f_205_365" x="0" y="36" width="107" height="63" filterUnits="userSpaceOnUse" color-interpolation-filters="sRGB">
<feFlood flood-opacity="0" result="BackgroundImageFix"/>
<feBlend mode="normal" in="SourceGraphic" in2="BackgroundImageFix" result="shape"/>
<feGaussianBlur stdDeviation="11" result="effect1_foregroundBlur_205_365"/>
</filter>
<filter id="filter1_bi_205_365" x="-7" y="-7" width="122" height="80" filterUnits="userSpaceOnUse" color-interpolation-filters="sRGB">
<feFlood flood-opacity="0" result="BackgroundImageFix"/>
<feGaussianBlur in="BackgroundImageFix" stdDeviation="3.5"/>
<feComposite in2="SourceAlpha" operator="in" result="effect1_backgroundBlur_205_365"/>
<feBlend mode="normal" in="SourceGraphic" in2="effect1_backgroundBlur_205_365" result="shape"/>
<feColorMatrix in="SourceAlpha" type="matrix" values="0 0 0 0 0 0 0 0 0 0 0 0 0 0 0 0 0 0 127 0" result="hardAlpha"/>
<feOffset dy="2"/>
<feGaussianBlur stdDeviation="4"/>
<feComposite in2="hardAlpha" operator="arithmetic" k2="-1" k3="1"/>
<feColorMatrix type="matrix" values="0 0 0 0 0 0 0 0 0 0.82 0 0 0 0 1 0 0 0 0.25 0"/>
<feBlend mode="normal" in2="shape" result="effect2_innerShadow_205_365"/>
</filter>
<linearGradient id="paint0_linear_205_365" x1="48.1874" y1="51.1546" x2="45.808" y2="81.3063" gradientUnits="userSpaceOnUse">
<stop stop-color="#D7F0FF"/>
<stop offset="1" stop-color="#0072DC"/>
</linearGradient>
<linearGradient id="paint1_linear_205_365" x1="72.9048" y1="72.5943" x2="70.5254" y2="102.746" gradientUnits="userSpaceOnUse">
<stop stop-color="#D7F0FF"/>
<stop offset="1" stop-color="#0072DC"/>
</linearGradient>
<linearGradient id="paint2_linear_205_365" x1="15.55" y1="101.248" x2="32.5153" y2="86.9284" gradientUnits="userSpaceOnUse">
<stop stop-color="#0056D6"/>
<stop offset="1" stop-color="#ADD8FF"/>
</linearGradient>
<linearGradient id="paint3_linear_205_365" x1="63.55" y1="80.2478" x2="80.5153" y2="65.9284" gradientUnits="userSpaceOnUse">
<stop stop-color="#0056D6"/>
<stop offset="1" stop-color="#ADD8FF"/>
</linearGradient>
<linearGradient id="paint4_linear_205_365" x1="56" y1="89.5" x2="96.5" y2="1.95655e-07" gradientUnits="userSpaceOnUse">
<stop stop-color="#0082DF"/>
<stop offset="0.299998" stop-color="#48B2FF" stop-opacity="0.75"/>
<stop offset="1" stop-color="#3BADFF" stop-opacity="0"/>
</linearGradient>
</defs>
</svg>
