<svg width="108" height="102" viewBox="0 0 108 102" fill="none" xmlns="http://www.w3.org/2000/svg">
<g filter="url(#filter0_f_205_229)">
<ellipse cx="53.5" cy="67.5" rx="31.5" ry="9.5" fill="#004E67" fill-opacity="0.7"/>
</g>
<path d="M78.0424 73.1564L67.8208 84.5859C66.6983 85.8266 65.8798 87.3081 65.4284 88.9159C64.9771 90.5237 64.9051 92.2148 65.2179 93.8588C65.7654 96.1839 67.1354 98.4325 70.3793 99.3804C73.6232 100.328 75.9884 99.1712 77.7018 97.5068C78.8506 96.29 79.7004 94.8261 80.1859 93.2283C80.6713 91.6304 80.7792 89.9413 80.5014 88.2914L78.0424 73.1564Z" fill="url(#paint0_linear_205_229)"/>
<path fill-rule="evenodd" clip-rule="evenodd" d="M35.3741 77.3753C35.3741 76.0634 34.3106 75 32.9988 75C31.687 75 30.6235 76.0634 30.6235 77.3753V80.2644L28.5806 78.2215C27.653 77.2939 26.1491 77.2939 25.2215 78.2215C24.2939 79.1491 24.2939 80.653 25.2215 81.5806L27.2646 83.6237H24.3753C23.0634 83.6237 22 84.6872 22 85.999C22 87.3108 23.0634 88.3742 24.3753 88.3742H27.2644L25.2213 90.4173C24.2937 91.3449 24.2937 92.8488 25.2213 93.7764C26.1489 94.704 27.6529 94.704 28.5804 93.7764L30.6235 91.7333V94.6227C30.6235 95.9346 31.687 96.998 32.9988 96.998C34.3106 96.998 35.3741 95.9346 35.3741 94.6227V91.7331L37.4173 93.7764C38.3449 94.704 39.8489 94.704 40.7765 93.7764C41.7041 92.8488 41.7041 91.3449 40.7765 90.4173L38.7334 88.3742H41.6227C42.9346 88.3742 43.998 87.3108 43.998 85.999C43.998 84.6872 42.9346 83.6237 41.6227 83.6237H38.7332L40.7763 81.5806C41.7039 80.653 41.7039 79.1491 40.7763 78.2215C39.8487 77.2939 38.3447 77.2939 37.4171 78.2215L35.3741 80.2646V77.3753Z" fill="url(#paint1_linear_205_229)"/>
<g filter="url(#filter1_bi_205_229)">
<path fill-rule="evenodd" clip-rule="evenodd" d="M77 30C77 30.7882 76.9696 31.5693 76.9099 32.3422C80.1949 29.6296 84.4071 28 89 28C99.4934 28 108 36.5066 108 47C108 57.158 100.029 65.4541 90 65.9741V66H89H19H17V65.896C7.44667 64.8966 0 56.8179 0 47C0 37.1618 7.47752 29.07 17.0593 28.0979C18.0405 12.4156 31.0704 0 47 0C63.5685 0 77 13.4315 77 30Z" fill="url(#paint2_linear_205_229)"/>
</g>
<defs>
<filter id="filter0_f_205_229" x="0" y="36" width="107" height="63" filterUnits="userSpaceOnUse" color-interpolation-filters="sRGB">
<feFlood flood-opacity="0" result="BackgroundImageFix"/>
<feBlend mode="normal" in="SourceGraphic" in2="BackgroundImageFix" result="shape"/>
<feGaussianBlur stdDeviation="11" result="effect1_foregroundBlur_205_229"/>
</filter>
<filter id="filter1_bi_205_229" x="-7" y="-7" width="122" height="80" filterUnits="userSpaceOnUse" color-interpolation-filters="sRGB">
<feFlood flood-opacity="0" result="BackgroundImageFix"/>
<feGaussianBlur in="BackgroundImageFix" stdDeviation="3.5"/>
<feComposite in2="SourceAlpha" operator="in" result="effect1_backgroundBlur_205_229"/>
<feBlend mode="normal" in="SourceGraphic" in2="effect1_backgroundBlur_205_229" result="shape"/>
<feColorMatrix in="SourceAlpha" type="matrix" values="0 0 0 0 0 0 0 0 0 0 0 0 0 0 0 0 0 0 127 0" result="hardAlpha"/>
<feOffset dy="2"/>
<feGaussianBlur stdDeviation="4"/>
<feComposite in2="hardAlpha" operator="arithmetic" k2="-1" k3="1"/>
<feColorMatrix type="matrix" values="0 0 0 0 0 0 0 0 0 0.82 0 0 0 0 1 0 0 0 0.25 0"/>
<feBlend mode="normal" in2="shape" result="effect2_innerShadow_205_229"/>
</filter>
<linearGradient id="paint0_linear_205_229" x1="82.1734" y1="63.5881" x2="68.8036" y2="98.7818" gradientUnits="userSpaceOnUse">
<stop stop-color="#D7F0FF"/>
<stop offset="1" stop-color="#0072DC"/>
</linearGradient>
<linearGradient id="paint1_linear_205_229" x1="25.1403" y1="92.546" x2="46.0329" y2="74.9119" gradientUnits="userSpaceOnUse">
<stop stop-color="#0056D6"/>
<stop offset="1" stop-color="#ADD8FF"/>
</linearGradient>
<linearGradient id="paint2_linear_205_229" x1="56" y1="89.5" x2="96.5" y2="1.95655e-07" gradientUnits="userSpaceOnUse">
<stop stop-color="#0082DF"/>
<stop offset="0.299998" stop-color="#48B2FF" stop-opacity="0.75"/>
<stop offset="1" stop-color="#3BADFF" stop-opacity="0"/>
</linearGradient>
</defs>
</svg>
