<svg width="108" height="107" viewBox="0 0 108 107" fill="none" xmlns="http://www.w3.org/2000/svg">
<g filter="url(#filter0_f_205_178)">
<ellipse cx="53.5" cy="67.5" rx="31.5" ry="9.5" fill="#004E67" fill-opacity="0.7"/>
</g>
<path d="M36.8069 82.2814L49.9076 58.2315C49.9853 58.0888 50.1348 58 50.2973 58H67.2814C67.6114 58 67.826 58.3474 67.6782 58.6426L60.8724 72.2324C60.7246 72.5276 60.9391 72.875 61.2692 72.875H68L30.8784 105.356C30.5053 105.683 29.959 105.245 30.1967 104.81L41.7873 83.5941C41.9489 83.2983 41.7349 82.9375 41.3979 82.9375H37.1966C36.8598 82.9375 36.6458 82.5771 36.8069 82.2814Z" fill="url(#paint0_linear_205_178)"/>
<g filter="url(#filter1_bi_205_178)">
<path fill-rule="evenodd" clip-rule="evenodd" d="M77 30C77 30.7882 76.9696 31.5693 76.9099 32.3422C80.1949 29.6296 84.4071 28 89 28C99.4934 28 108 36.5066 108 47C108 57.158 100.029 65.4541 90 65.9741V66H89H19H17V65.896C7.44667 64.8966 0 56.8179 0 47C0 37.1618 7.47752 29.07 17.0593 28.0979C18.0405 12.4156 31.0704 0 47 0C63.5685 0 77 13.4315 77 30Z" fill="url(#paint1_linear_205_178)"/>
</g>
<path fill-rule="evenodd" clip-rule="evenodd" d="M29.5423 50.6214C30.7621 51.2683 31.2265 52.7816 30.5795 54.0014L26.8312 61.0689C26.1842 62.2886 24.671 62.753 23.4512 62.1061C22.2314 61.4592 21.767 59.9459 22.414 58.7261L26.1623 51.6586C26.8093 50.4389 28.3225 49.9745 29.5423 50.6214ZM40.0688 54.9C41.2894 55.5455 41.7557 57.0582 41.1103 58.2787L34.0989 71.5392C33.4535 72.7598 31.9409 73.2261 30.7203 72.5807C29.4997 71.9353 29.0334 70.4226 29.6788 69.202L36.6902 55.9415C37.3356 54.7209 38.8482 54.2546 40.0688 54.9ZM82.3669 55.2335C83.5966 55.8614 84.0844 57.3672 83.4565 58.5969L70.723 83.534C70.0951 84.7637 68.5893 85.2515 67.3596 84.6236C66.1299 83.9957 65.6421 82.4898 66.27 81.2602L79.0035 56.3231C79.6314 55.0934 81.1372 54.6056 82.3669 55.2335ZM65.0857 89.0766C66.3154 89.7045 66.8033 91.2104 66.1754 92.4401L62.992 98.6744C62.3641 99.904 60.8582 100.392 59.6285 99.764C58.3989 99.1361 57.911 97.6302 58.5389 96.4005L61.7223 90.1663C62.3502 88.9366 63.8561 88.4487 65.0857 89.0766ZM80.7375 88.835C80.1107 90.0652 78.6052 90.5543 77.375 89.9275C76.1448 89.3007 75.6557 87.7952 76.2825 86.565L79.4604 80.328C80.0873 79.0978 81.5927 78.6086 82.8229 79.2355C84.0532 79.8623 84.5423 81.3677 83.9155 82.5979L80.7375 88.835ZM85.5468 73.8894C86.7771 74.5162 88.2825 74.0271 88.9093 72.7969L95.7193 59.4318C96.3461 58.2016 95.8569 56.6961 94.6267 56.0693C93.3965 55.4425 91.8911 55.9316 91.2642 57.1618L84.4543 70.5269C83.8275 71.7571 84.3166 73.2626 85.5468 73.8894ZM29.4238 80.3791C30.0692 79.1585 29.6029 77.6458 28.3824 77.0004C27.1618 76.355 25.6491 76.8213 25.0037 78.0418L21.7315 84.23C21.0861 85.4506 21.5524 86.9632 22.773 87.6087C23.9935 88.2541 25.5062 87.7878 26.1516 86.5672L29.4238 80.3791ZM21.0096 96.2914C21.6551 95.0709 21.1888 93.5582 19.9682 92.9128C18.7477 92.2673 17.235 92.7336 16.5896 93.9542L13.3174 100.142C12.672 101.363 13.1382 102.876 14.3588 103.521C15.5794 104.166 17.092 103.7 17.7375 102.48L21.0096 96.2914ZM21.2086 71.6701C21.8555 70.4504 21.3912 68.9371 20.1714 68.2902C18.9516 67.6432 17.4383 68.1076 16.7914 69.3274L7.42047 86.9962C6.77354 88.216 7.23793 89.7292 8.4577 90.3761C9.67748 91.0231 11.1907 90.5587 11.8377 89.3389L21.2086 71.6701Z" fill="url(#paint2_linear_205_178)"/>
<path fill-rule="evenodd" clip-rule="evenodd" d="M37.0876 66H31.4568L36.9723 55.3503C37.6073 54.1242 39.1159 53.6451 40.342 54.2801C41.568 54.915 42.0472 56.4237 41.4122 57.6497L37.0876 66ZM79.7319 66H74.1208L79.2823 55.8654C79.9089 54.6351 81.4142 54.1457 82.6446 54.7723C83.8749 55.3989 84.3643 56.9042 83.7377 58.1346L79.7319 66ZM92.5507 65.6688C91.7183 65.8261 90.8669 65.9292 90 65.9741V66H89H86.7697C86.8036 65.9108 86.8428 65.8226 86.8877 65.7359L91.4791 56.8522C92.113 55.6257 93.6213 55.1452 94.8479 55.7791C96.0745 56.413 96.5549 57.9212 95.921 59.1478L92.5507 65.6688ZM22.3832 58.6529C21.7408 59.8751 22.2108 61.3866 23.433 62.0289C24.6552 62.6712 26.1667 62.2012 26.8091 60.979L30.6544 53.6631C31.2968 52.4409 30.8267 50.9294 29.6045 50.2871C28.3823 49.6447 26.8708 50.1148 26.2284 51.3369L22.3832 58.6529Z" fill="#A9DDFA"/>
<defs>
<filter id="filter0_f_205_178" x="0" y="36" width="107" height="63" filterUnits="userSpaceOnUse" color-interpolation-filters="sRGB">
<feFlood flood-opacity="0" result="BackgroundImageFix"/>
<feBlend mode="normal" in="SourceGraphic" in2="BackgroundImageFix" result="shape"/>
<feGaussianBlur stdDeviation="11" result="effect1_foregroundBlur_205_178"/>
</filter>
<filter id="filter1_bi_205_178" x="-7" y="-7" width="122" height="80" filterUnits="userSpaceOnUse" color-interpolation-filters="sRGB">
<feFlood flood-opacity="0" result="BackgroundImageFix"/>
<feGaussianBlur in="BackgroundImageFix" stdDeviation="3.5"/>
<feComposite in2="SourceAlpha" operator="in" result="effect1_backgroundBlur_205_178"/>
<feBlend mode="normal" in="SourceGraphic" in2="effect1_backgroundBlur_205_178" result="shape"/>
<feColorMatrix in="SourceAlpha" type="matrix" values="0 0 0 0 0 0 0 0 0 0 0 0 0 0 0 0 0 0 127 0" result="hardAlpha"/>
<feOffset dy="2"/>
<feGaussianBlur stdDeviation="4"/>
<feComposite in2="hardAlpha" operator="arithmetic" k2="-1" k3="1"/>
<feColorMatrix type="matrix" values="0 0 0 0 0 0 0 0 0 0.82 0 0 0 0 1 0 0 0 0.25 0"/>
<feBlend mode="normal" in2="shape" result="effect2_innerShadow_205_178"/>
</filter>
<linearGradient id="paint0_linear_205_178" x1="48.5" y1="58" x2="48.5" y2="107" gradientUnits="userSpaceOnUse">
<stop stop-color="#F8FD00"/>
<stop offset="1" stop-color="#FD9800"/>
</linearGradient>
<linearGradient id="paint1_linear_205_178" x1="56" y1="89.5" x2="96.5" y2="1.95655e-07" gradientUnits="userSpaceOnUse">
<stop stop-color="#0082DF"/>
<stop offset="0.299998" stop-color="#48B2FF" stop-opacity="0.75"/>
<stop offset="1" stop-color="#3BADFF" stop-opacity="0"/>
</linearGradient>
<linearGradient id="paint2_linear_205_178" x1="53.5" y1="41" x2="53.5" y2="96" gradientUnits="userSpaceOnUse">
<stop offset="0.168182" stop-color="#D7F0FF"/>
<stop offset="1" stop-color="#0072DC"/>
</linearGradient>
</defs>
</svg>
