<svg width="108" height="109" viewBox="0 0 108 109" fill="none" xmlns="http://www.w3.org/2000/svg">
<g filter="url(#filter0_f_205_593)">
<ellipse cx="53.5" cy="67.5" rx="31.5" ry="9.5" fill="#004E67" fill-opacity="0.7"/>
</g>
<path fill-rule="evenodd" clip-rule="evenodd" d="M28.8166 55.8158C28.8166 54.2607 27.556 53 26.0008 53C24.4457 53 23.185 54.2607 23.185 55.8158V59.2029L20.79 56.8079C19.6903 55.7082 17.9074 55.7082 16.8078 56.8079C15.7082 57.9075 15.7082 59.6904 16.8078 60.79L19.203 63.1852H15.8158C14.2607 63.1852 13 64.4459 13 66.001C13 67.5561 14.2607 68.8168 15.8158 68.8168H19.2028L16.8077 71.2119C15.7081 72.3116 15.7081 74.0944 16.8077 75.1941C17.9074 76.2937 19.6902 76.2937 20.7899 75.1941L23.185 72.7989V76.1862C23.185 77.7413 24.4457 79.002 26.0008 79.002C27.556 79.002 28.8166 77.7413 28.8166 76.1862V72.7989L31.2118 75.1941C32.3115 76.2937 34.0944 76.2937 35.194 75.1941C36.2936 74.0944 36.2936 72.3116 35.194 71.2119L32.7989 68.8168H36.1862C37.7413 68.8168 39.002 67.5561 39.002 66.001C39.002 64.4459 37.7413 63.1852 36.1862 63.1852H32.7988L35.1939 60.79C36.2936 59.6904 36.2936 57.9075 35.1939 56.8079C34.0943 55.7082 32.3114 55.7082 31.2118 56.8079L28.8166 59.203V55.8158Z" fill="url(#paint0_linear_205_593)"/>
<path fill-rule="evenodd" clip-rule="evenodd" d="M83.2378 52.2391C83.2378 50.4502 81.7876 49 79.9987 49C78.2098 49 76.7597 50.4502 76.7597 52.2391V56.1789L73.9738 53.3931C72.7089 52.1281 70.658 52.1281 69.3931 53.3931C68.1282 54.658 68.1282 56.7089 69.3931 57.9738L72.1792 60.7599H68.2391C66.4502 60.7599 65 62.2101 65 63.999C65 65.7879 66.4502 67.238 68.2391 67.238H72.1789L69.3928 70.0241C68.1279 71.2891 68.1279 73.3399 69.3928 74.6049C70.6578 75.8698 72.7086 75.8698 73.9735 74.6049L76.7597 71.8187V75.7589C76.7597 77.5478 78.2098 78.998 79.9987 78.998C81.7876 78.998 83.2378 77.5478 83.2378 75.7589V71.8185L86.0242 74.6049C87.2891 75.8698 89.34 75.8698 90.6049 74.6049C91.8698 73.3399 91.8698 71.2891 90.6049 70.0241L87.8188 67.238H91.7589C93.5478 67.238 94.998 65.7879 94.998 63.999C94.998 62.2101 93.5478 60.7599 91.7589 60.7599H87.8185L90.6046 57.9738C91.8695 56.7089 91.8695 54.658 90.6046 53.3931C89.3397 52.1281 87.2888 52.1281 86.0239 53.3931L83.2378 56.1791V52.2391Z" fill="url(#paint1_linear_205_593)"/>
<path fill-rule="evenodd" clip-rule="evenodd" d="M70.3741 81.3753C70.3741 80.0634 69.3106 79 67.9988 79C66.687 79 65.6235 80.0634 65.6235 81.3753V84.2644L63.5806 82.2215C62.653 81.2939 61.1491 81.2939 60.2215 82.2215C59.2939 83.1491 59.2939 84.653 60.2215 85.5806L62.2646 87.6237H59.3753C58.0634 87.6237 57 88.6872 57 89.999C57 91.3108 58.0634 92.3742 59.3753 92.3742H62.2644L60.2213 94.4173C59.2937 95.3449 59.2937 96.8488 60.2213 97.7764C61.1489 98.704 62.6529 98.704 63.5804 97.7764L65.6235 95.7333V98.6227C65.6235 99.9346 66.687 100.998 67.9988 100.998C69.3106 100.998 70.3741 99.9346 70.3741 98.6227V95.7331L72.4173 97.7764C73.3449 98.704 74.8489 98.704 75.7765 97.7764C76.7041 96.8488 76.7041 95.3449 75.7765 94.4173L73.7334 92.3742H76.6227C77.9346 92.3742 78.998 91.3108 78.998 89.999C78.998 88.6872 77.9346 87.6237 76.6227 87.6237H73.7332L75.7763 85.5806C76.7039 84.653 76.7039 83.1491 75.7763 82.2215C74.8487 81.2939 73.3447 81.2939 72.4171 82.2215L70.3741 84.2646V81.3753Z" fill="url(#paint2_linear_205_593)"/>
<path d="M33.8069 84.2814L46.9076 60.2315C46.9853 60.0888 47.1348 60 47.2973 60H64.2814C64.6114 60 64.826 60.3474 64.6782 60.6426L57.8724 74.2324C57.7246 74.5276 57.9391 74.875 58.2692 74.875H65L27.8784 107.356C27.5053 107.683 26.959 107.245 27.1967 106.81L38.7873 85.5941C38.9489 85.2983 38.7349 84.9375 38.3979 84.9375H34.1966C33.8598 84.9375 33.6458 84.5771 33.8069 84.2814Z" fill="url(#paint3_linear_205_593)"/>
<g filter="url(#filter1_bi_205_593)">
<path fill-rule="evenodd" clip-rule="evenodd" d="M77 30C77 30.7882 76.9696 31.5693 76.9099 32.3422C80.1949 29.6296 84.4071 28 89 28C99.4934 28 108 36.5066 108 47C108 57.158 100.029 65.4541 90 65.9741V66H89H19H17V65.896C7.44667 64.8966 0 56.8179 0 47C0 37.1618 7.47752 29.07 17.0593 28.0979C18.0405 12.4156 31.0704 0 47 0C63.5685 0 77 13.4315 77 30Z" fill="url(#paint4_linear_205_593)"/>
</g>
<path fill-rule="evenodd" clip-rule="evenodd" d="M39.002 66H13C13.0005 64.4453 14.261 63.1852 15.8158 63.1852H19.203L16.8078 60.79C15.7082 59.6904 15.7082 57.9075 16.8078 56.8079C17.9074 55.7082 19.6903 55.7082 20.79 56.8079L23.185 59.2029V55.8158C23.185 54.2607 24.4457 53 26.0008 53C27.556 53 28.8166 54.2607 28.8166 55.8158V59.203L31.2118 56.8079C32.3114 55.7082 34.0943 55.7082 35.1939 56.8079C36.2936 57.9075 36.2936 59.6904 35.1939 60.79L32.7988 63.1852H36.1862C37.741 63.1852 39.0015 64.4453 39.002 66Z" fill="#A9DDFA"/>
<defs>
<filter id="filter0_f_205_593" x="0" y="36" width="107" height="63" filterUnits="userSpaceOnUse" color-interpolation-filters="sRGB">
<feFlood flood-opacity="0" result="BackgroundImageFix"/>
<feBlend mode="normal" in="SourceGraphic" in2="BackgroundImageFix" result="shape"/>
<feGaussianBlur stdDeviation="11" result="effect1_foregroundBlur_205_593"/>
</filter>
<filter id="filter1_bi_205_593" x="-7" y="-7" width="122" height="80" filterUnits="userSpaceOnUse" color-interpolation-filters="sRGB">
<feFlood flood-opacity="0" result="BackgroundImageFix"/>
<feGaussianBlur in="BackgroundImageFix" stdDeviation="3.5"/>
<feComposite in2="SourceAlpha" operator="in" result="effect1_backgroundBlur_205_593"/>
<feBlend mode="normal" in="SourceGraphic" in2="effect1_backgroundBlur_205_593" result="shape"/>
<feColorMatrix in="SourceAlpha" type="matrix" values="0 0 0 0 0 0 0 0 0 0 0 0 0 0 0 0 0 0 127 0" result="hardAlpha"/>
<feOffset dy="2"/>
<feGaussianBlur stdDeviation="4"/>
<feComposite in2="hardAlpha" operator="arithmetic" k2="-1" k3="1"/>
<feColorMatrix type="matrix" values="0 0 0 0 0 0 0 0 0 0.82 0 0 0 0 1 0 0 0 0.25 0"/>
<feBlend mode="normal" in2="shape" result="effect2_innerShadow_205_593"/>
</filter>
<linearGradient id="paint0_linear_205_593" x1="16.7119" y1="73.7397" x2="41.4073" y2="52.8958" gradientUnits="userSpaceOnUse">
<stop stop-color="#0056D6"/>
<stop offset="1" stop-color="#ADD8FF"/>
</linearGradient>
<linearGradient id="paint1_linear_205_593" x1="69.2823" y1="72.927" x2="97.7729" y2="48.8798" gradientUnits="userSpaceOnUse">
<stop stop-color="#0056D6"/>
<stop offset="1" stop-color="#ADD8FF"/>
</linearGradient>
<linearGradient id="paint2_linear_205_593" x1="60.1403" y1="96.546" x2="81.0329" y2="78.9119" gradientUnits="userSpaceOnUse">
<stop stop-color="#0056D6"/>
<stop offset="1" stop-color="#ADD8FF"/>
</linearGradient>
<linearGradient id="paint3_linear_205_593" x1="45.5" y1="60" x2="45.5" y2="109" gradientUnits="userSpaceOnUse">
<stop stop-color="#F8FD00"/>
<stop offset="1" stop-color="#FD9800"/>
</linearGradient>
<linearGradient id="paint4_linear_205_593" x1="56" y1="89.5" x2="96.5" y2="1.95655e-07" gradientUnits="userSpaceOnUse">
<stop stop-color="#0082DF"/>
<stop offset="0.299998" stop-color="#48B2FF" stop-opacity="0.75"/>
<stop offset="1" stop-color="#3BADFF" stop-opacity="0"/>
</linearGradient>
</defs>
</svg>
