<svg width="108" height="106" viewBox="0 0 108 106" fill="none" xmlns="http://www.w3.org/2000/svg">
<g filter="url(#filter0_f_205_676)">
<ellipse cx="53.5" cy="67.5" rx="31.5" ry="9.5" fill="#004E67" fill-opacity="0.7"/>
</g>
<path fill-rule="evenodd" clip-rule="evenodd" d="M23.8063 89.875C23.8063 88.8395 22.9668 88 21.9313 88C20.8957 88 20.0563 88.8395 20.0563 89.875V92.4046L18.2676 90.6159C17.5354 89.8837 16.3482 89.8837 15.6159 90.6159C14.8837 91.3482 14.8837 92.5353 15.6159 93.2676L17.4048 95.0564H14.875C13.8395 95.0564 13 95.8959 13 96.9314C13 97.9669 13.8395 98.8064 14.875 98.8064H17.4046L15.6158 100.595C14.8836 101.327 14.8836 102.515 15.6158 103.247C16.348 103.979 17.5352 103.979 18.2674 103.247L20.0563 101.458V103.988C20.0563 105.023 20.8957 105.863 21.9313 105.863C22.9668 105.863 23.8063 105.023 23.8063 103.988V101.458L25.5952 103.247C26.3275 103.979 27.5147 103.979 28.2469 103.247C28.9791 102.515 28.9791 101.327 28.2469 100.595L26.4581 98.8064H28.9879C30.0234 98.8064 30.8629 97.9669 30.8629 96.9314C30.8629 95.8959 30.0234 95.0564 28.9879 95.0564H26.4579L28.2467 93.2676C28.979 92.5353 28.979 91.3482 28.2467 90.6159C27.5145 89.8837 26.3273 89.8837 25.5951 90.6159L23.8063 92.4047V89.875Z" fill="url(#paint0_linear_205_676)"/>
<path fill-rule="evenodd" clip-rule="evenodd" d="M73.8063 89.875C73.8063 88.8395 72.9668 88 71.9313 88C70.8957 88 70.0563 88.8395 70.0563 89.875V92.4046L68.2676 90.6159C67.5354 89.8837 66.3482 89.8837 65.6159 90.6159C64.8837 91.3482 64.8837 92.5353 65.6159 93.2676L67.4048 95.0564H64.875C63.8395 95.0564 63 95.8959 63 96.9314C63 97.9669 63.8395 98.8064 64.875 98.8064H67.4046L65.6158 100.595C64.8836 101.327 64.8836 102.515 65.6158 103.247C66.348 103.979 67.5352 103.979 68.2674 103.247L70.0563 101.458V103.988C70.0563 105.023 70.8957 105.863 71.9313 105.863C72.9668 105.863 73.8063 105.023 73.8063 103.988V101.458L75.5952 103.247C76.3275 103.979 77.5147 103.979 78.2469 103.247C78.9791 102.515 78.9791 101.327 78.2469 100.595L76.4581 98.8064H78.9879C80.0234 98.8064 80.8629 97.9669 80.8629 96.9314C80.8629 95.8959 80.0234 95.0564 78.9879 95.0564H76.4579L78.2467 93.2676C78.979 92.5353 78.979 91.3482 78.2467 90.6159C77.5145 89.8837 76.3273 89.8837 75.5951 90.6159L73.8063 92.4047V89.875Z" fill="url(#paint1_linear_205_676)"/>
<path fill-rule="evenodd" clip-rule="evenodd" d="M53.8063 68.875C53.8063 67.8395 52.9668 67 51.9313 67C50.8957 67 50.0563 67.8395 50.0563 68.875V71.4046L48.2676 69.6159C47.5354 68.8837 46.3482 68.8837 45.6159 69.6159C44.8837 70.3482 44.8837 71.5353 45.6159 72.2676L47.4048 74.0564H44.875C43.8395 74.0564 43 74.8959 43 75.9314C43 76.9669 43.8395 77.8064 44.875 77.8064H47.4046L45.6158 79.5952C44.8836 80.3275 44.8836 81.5146 45.6158 82.2469C46.348 82.9791 47.5352 82.9791 48.2674 82.2469L50.0563 80.458V82.9879C50.0563 84.0234 50.8957 84.8629 51.9313 84.8629C52.9668 84.8629 53.8063 84.0234 53.8063 82.9879V80.4579L55.5952 82.2469C56.3275 82.9791 57.5147 82.9791 58.2469 82.2469C58.9791 81.5146 58.9791 80.3275 58.2469 79.5952L56.4581 77.8064H58.9879C60.0234 77.8064 60.8629 76.9669 60.8629 75.9314C60.8629 74.8959 60.0234 74.0564 58.9879 74.0564H56.4579L58.2467 72.2676C58.979 71.5353 58.979 70.3482 58.2467 69.6159C57.5145 68.8837 56.3273 68.8837 55.5951 69.6159L53.8063 71.4047V68.875Z" fill="url(#paint2_linear_205_676)"/>
<path fill-rule="evenodd" clip-rule="evenodd" d="M48.8063 89.875C48.8063 88.8395 47.9668 88 46.9313 88C45.8957 88 45.0563 88.8395 45.0563 89.875V92.4046L43.2676 90.6159C42.5354 89.8837 41.3482 89.8837 40.6159 90.6159C39.8837 91.3482 39.8837 92.5353 40.6159 93.2676L42.4048 95.0564H39.875C38.8395 95.0564 38 95.8959 38 96.9314C38 97.9669 38.8395 98.8064 39.875 98.8064H42.4046L40.6158 100.595C39.8836 101.327 39.8836 102.515 40.6158 103.247C41.348 103.979 42.5352 103.979 43.2674 103.247L45.0563 101.458V103.988C45.0563 105.023 45.8957 105.863 46.9313 105.863C47.9668 105.863 48.8063 105.023 48.8063 103.988V101.458L50.5952 103.247C51.3275 103.979 52.5147 103.979 53.2469 103.247C53.9791 102.515 53.9791 101.327 53.2469 100.595L51.4581 98.8064H53.9879C55.0234 98.8064 55.8629 97.9669 55.8629 96.9314C55.8629 95.8959 55.0234 95.0564 53.9879 95.0564H51.4579L53.2467 93.2676C53.979 92.5353 53.979 91.3482 53.2467 90.6159C52.5145 89.8837 51.3273 89.8837 50.5951 90.6159L48.8063 92.4047V89.875Z" fill="url(#paint3_linear_205_676)"/>
<path fill-rule="evenodd" clip-rule="evenodd" d="M78.8063 68.875C78.8063 67.8395 77.9668 67 76.9313 67C75.8957 67 75.0563 67.8395 75.0563 68.875V71.4046L73.2676 69.6159C72.5354 68.8837 71.3482 68.8837 70.6159 69.6159C69.8837 70.3482 69.8837 71.5353 70.6159 72.2676L72.4048 74.0564H69.875C68.8395 74.0564 68 74.8959 68 75.9314C68 76.9669 68.8395 77.8064 69.875 77.8064H72.4046L70.6158 79.5952C69.8836 80.3275 69.8836 81.5146 70.6158 82.2469C71.348 82.9791 72.5352 82.9791 73.2674 82.2469L75.0563 80.458V82.9879C75.0563 84.0234 75.8957 84.8629 76.9313 84.8629C77.9668 84.8629 78.8063 84.0234 78.8063 82.9879V80.4579L80.5952 82.2469C81.3275 82.9791 82.5147 82.9791 83.2469 82.2469C83.9791 81.5146 83.9791 80.3275 83.2469 79.5952L81.4581 77.8064H83.9879C85.0234 77.8064 85.8629 76.9669 85.8629 75.9314C85.8629 74.8959 85.0234 74.0564 83.9879 74.0564H81.4579L83.2467 72.2676C83.979 71.5353 83.979 70.3482 83.2467 69.6159C82.5145 68.8837 81.3273 68.8837 80.5951 69.6159L78.8063 71.4047V68.875Z" fill="url(#paint4_linear_205_676)"/>
<path fill-rule="evenodd" clip-rule="evenodd" d="M28.8063 68.875C28.8063 67.8395 27.9668 67 26.9313 67C25.8957 67 25.0563 67.8395 25.0563 68.875V71.4046L23.2676 69.6159C22.5354 68.8837 21.3482 68.8837 20.6159 69.6159C19.8837 70.3482 19.8837 71.5353 20.6159 72.2676L22.4048 74.0564H19.875C18.8395 74.0564 18 74.8959 18 75.9314C18 76.9669 18.8395 77.8064 19.875 77.8064H22.4046L20.6158 79.5952C19.8836 80.3275 19.8836 81.5146 20.6158 82.2469C21.348 82.9791 22.5352 82.9791 23.2674 82.2469L25.0563 80.458V82.9879C25.0563 84.0234 25.8957 84.8629 26.9313 84.8629C27.9668 84.8629 28.8063 84.0234 28.8063 82.9879V80.4579L30.5952 82.2469C31.3275 82.9791 32.5147 82.9791 33.2469 82.2469C33.9791 81.5146 33.9791 80.3275 33.2469 79.5952L31.4581 77.8064H33.9879C35.0234 77.8064 35.8629 76.9669 35.8629 75.9314C35.8629 74.8959 35.0234 74.0564 33.9879 74.0564H31.4579L33.2467 72.2676C33.979 71.5353 33.979 70.3482 33.2467 69.6159C32.5145 68.8837 31.3273 68.8837 30.5951 69.6159L28.8063 71.4047V68.875Z" fill="url(#paint5_linear_205_676)"/>
<g filter="url(#filter1_bi_205_676)">
<path fill-rule="evenodd" clip-rule="evenodd" d="M77 30C77 30.7882 76.9696 31.5693 76.9099 32.3422C80.1949 29.6296 84.4071 28 89 28C99.4934 28 108 36.5066 108 47C108 57.158 100.029 65.4541 90 65.9741V66H89H19H17V65.896C7.44667 64.8966 0 56.8179 0 47C0 37.1618 7.47752 29.07 17.0593 28.0979C18.0405 12.4156 31.0704 0 47 0C63.5685 0 77 13.4315 77 30Z" fill="url(#paint6_linear_205_676)"/>
</g>
<defs>
<filter id="filter0_f_205_676" x="0" y="36" width="107" height="63" filterUnits="userSpaceOnUse" color-interpolation-filters="sRGB">
<feFlood flood-opacity="0" result="BackgroundImageFix"/>
<feBlend mode="normal" in="SourceGraphic" in2="BackgroundImageFix" result="shape"/>
<feGaussianBlur stdDeviation="11" result="effect1_foregroundBlur_205_676"/>
</filter>
<filter id="filter1_bi_205_676" x="-7" y="-7" width="122" height="80" filterUnits="userSpaceOnUse" color-interpolation-filters="sRGB">
<feFlood flood-opacity="0" result="BackgroundImageFix"/>
<feGaussianBlur in="BackgroundImageFix" stdDeviation="3.5"/>
<feComposite in2="SourceAlpha" operator="in" result="effect1_backgroundBlur_205_676"/>
<feBlend mode="normal" in="SourceGraphic" in2="effect1_backgroundBlur_205_676" result="shape"/>
<feColorMatrix in="SourceAlpha" type="matrix" values="0 0 0 0 0 0 0 0 0 0 0 0 0 0 0 0 0 0 127 0" result="hardAlpha"/>
<feOffset dy="2"/>
<feGaussianBlur stdDeviation="4"/>
<feComposite in2="hardAlpha" operator="arithmetic" k2="-1" k3="1"/>
<feColorMatrix type="matrix" values="0 0 0 0 0 0 0 0 0 0.82 0 0 0 0 1 0 0 0 0.25 0"/>
<feBlend mode="normal" in2="shape" result="effect2_innerShadow_205_676"/>
</filter>
<linearGradient id="paint0_linear_205_676" x1="15.55" y1="102.248" x2="32.5153" y2="87.9284" gradientUnits="userSpaceOnUse">
<stop stop-color="#0056D6"/>
<stop offset="1" stop-color="#ADD8FF"/>
</linearGradient>
<linearGradient id="paint1_linear_205_676" x1="65.55" y1="102.248" x2="82.5153" y2="87.9284" gradientUnits="userSpaceOnUse">
<stop stop-color="#0056D6"/>
<stop offset="1" stop-color="#ADD8FF"/>
</linearGradient>
<linearGradient id="paint2_linear_205_676" x1="45.55" y1="81.2478" x2="62.5153" y2="66.9284" gradientUnits="userSpaceOnUse">
<stop stop-color="#0056D6"/>
<stop offset="1" stop-color="#ADD8FF"/>
</linearGradient>
<linearGradient id="paint3_linear_205_676" x1="40.55" y1="102.248" x2="57.5153" y2="87.9284" gradientUnits="userSpaceOnUse">
<stop stop-color="#0056D6"/>
<stop offset="1" stop-color="#ADD8FF"/>
</linearGradient>
<linearGradient id="paint4_linear_205_676" x1="70.55" y1="81.2478" x2="87.5153" y2="66.9284" gradientUnits="userSpaceOnUse">
<stop stop-color="#0056D6"/>
<stop offset="1" stop-color="#ADD8FF"/>
</linearGradient>
<linearGradient id="paint5_linear_205_676" x1="20.55" y1="81.2478" x2="37.5153" y2="66.9284" gradientUnits="userSpaceOnUse">
<stop stop-color="#0056D6"/>
<stop offset="1" stop-color="#ADD8FF"/>
</linearGradient>
<linearGradient id="paint6_linear_205_676" x1="56" y1="89.5" x2="96.5" y2="1.95655e-07" gradientUnits="userSpaceOnUse">
<stop stop-color="#0082DF"/>
<stop offset="0.299998" stop-color="#48B2FF" stop-opacity="0.75"/>
<stop offset="1" stop-color="#3BADFF" stop-opacity="0"/>
</linearGradient>
</defs>
</svg>
