<svg width="116" height="115" viewBox="0 0 116 115" fill="none" xmlns="http://www.w3.org/2000/svg">
<g filter="url(#filter0_f_205_580)">
<ellipse cx="53.5" cy="75.9077" rx="31.5" ry="9.5" fill="#004E67" fill-opacity="0.7"/>
</g>
<path fill-rule="evenodd" clip-rule="evenodd" d="M94.5006 5.5C94.5006 2.46243 92.0382 0 89.0006 0C85.9631 0 83.5006 2.46243 83.5006 5.5V13.7227L77.6863 7.90837C75.5384 5.76049 72.056 5.76049 69.9082 7.90837C67.7603 10.0563 67.7603 13.5387 69.9082 15.6865L75.7224 21.5008L67.5 21.5008C64.4624 21.5008 62 23.9632 62 27.0008C62 30.0384 64.4624 32.5008 67.5 32.5008H75.7226L69.9083 38.3151C67.7604 40.463 67.7604 43.9454 69.9083 46.0933C72.0561 48.2412 75.5385 48.2412 77.6864 46.0933L83.5006 40.2791V48.5016C83.5006 51.5392 85.9631 54.0016 89.0006 54.0016C92.0382 54.0016 94.5006 51.5392 94.5006 48.5016V40.279L100.315 46.0933C102.463 48.2412 105.945 48.2412 108.093 46.0933C110.241 43.9454 110.241 40.463 108.093 38.3151L102.279 32.5008H110.502C113.539 32.5008 116.002 30.0384 116.002 27.0008C116.002 23.9632 113.539 21.5008 110.502 21.5008L102.279 21.5008L108.093 15.6865C110.241 13.5387 110.241 10.0563 108.093 7.90837C105.945 5.76049 102.463 5.76049 100.315 7.90837L94.5006 13.7227V5.5Z" fill="url(#paint0_linear_205_580)"/>
<path d="M33.8069 90.2814L46.9076 66.2315C46.9853 66.0888 47.1348 66 47.2973 66H64.2814C64.6114 66 64.826 66.3474 64.6782 66.6426L57.8724 80.2324C57.7246 80.5276 57.9391 80.875 58.2692 80.875H65L27.8784 113.356C27.5053 113.683 26.959 113.245 27.1967 112.81L38.7873 91.5941C38.9489 91.2983 38.7349 90.9375 38.3979 90.9375H34.1966C33.8598 90.9375 33.6458 90.5771 33.8069 90.2814Z" fill="url(#paint1_linear_205_580)"/>
<g filter="url(#filter1_bi_205_580)">
<path fill-rule="evenodd" clip-rule="evenodd" d="M77 38.4077C77 39.1959 76.9696 39.9771 76.9099 40.75C80.1949 38.0374 84.4071 36.4077 89 36.4077C99.4934 36.4077 108 44.9143 108 55.4077C108 65.5657 100.029 73.8618 90 74.3819V74.4077H89H19H17V74.3037C7.44667 73.3043 0 65.2257 0 55.4077C0 45.5695 7.47752 37.4777 17.0593 36.5056C18.0405 20.8233 31.0704 8.40772 47 8.40772C63.5685 8.40772 77 21.8392 77 38.4077Z" fill="url(#paint2_linear_205_580)"/>
</g>
<defs>
<filter id="filter0_f_205_580" x="0" y="44.4077" width="107" height="63" filterUnits="userSpaceOnUse" color-interpolation-filters="sRGB">
<feFlood flood-opacity="0" result="BackgroundImageFix"/>
<feBlend mode="normal" in="SourceGraphic" in2="BackgroundImageFix" result="shape"/>
<feGaussianBlur stdDeviation="11" result="effect1_foregroundBlur_205_580"/>
</filter>
<filter id="filter1_bi_205_580" x="-7" y="1.40772" width="122" height="80" filterUnits="userSpaceOnUse" color-interpolation-filters="sRGB">
<feFlood flood-opacity="0" result="BackgroundImageFix"/>
<feGaussianBlur in="BackgroundImageFix" stdDeviation="3.5"/>
<feComposite in2="SourceAlpha" operator="in" result="effect1_backgroundBlur_205_580"/>
<feBlend mode="normal" in="SourceGraphic" in2="effect1_backgroundBlur_205_580" result="shape"/>
<feColorMatrix in="SourceAlpha" type="matrix" values="0 0 0 0 0 0 0 0 0 0 0 0 0 0 0 0 0 0 127 0" result="hardAlpha"/>
<feOffset dy="2"/>
<feGaussianBlur stdDeviation="4"/>
<feComposite in2="hardAlpha" operator="arithmetic" k2="-1" k3="1"/>
<feColorMatrix type="matrix" values="0 0 0 0 0 0 0 0 0 0.82 0 0 0 0 1 0 0 0 0.25 0"/>
<feBlend mode="normal" in2="shape" result="effect2_innerShadow_205_580"/>
</filter>
<linearGradient id="paint0_linear_205_580" x1="69.7089" y1="43.0727" x2="120.997" y2="-0.216315" gradientUnits="userSpaceOnUse">
<stop stop-color="#0056D6"/>
<stop offset="1" stop-color="#ADD8FF"/>
</linearGradient>
<linearGradient id="paint1_linear_205_580" x1="45.5" y1="66" x2="45.5" y2="115" gradientUnits="userSpaceOnUse">
<stop stop-color="#F8FD00"/>
<stop offset="1" stop-color="#FD9800"/>
</linearGradient>
<linearGradient id="paint2_linear_205_580" x1="56" y1="97.9077" x2="96.5" y2="8.40772" gradientUnits="userSpaceOnUse">
<stop stop-color="#0082DF"/>
<stop offset="0.299998" stop-color="#48B2FF" stop-opacity="0.75"/>
<stop offset="1" stop-color="#3BADFF" stop-opacity="0"/>
</linearGradient>
</defs>
</svg>
