<svg width="98" height="126" viewBox="0 0 98 126" fill="none" xmlns="http://www.w3.org/2000/svg">
<path fill-rule="evenodd" clip-rule="evenodd" d="M19.8166 72.8158C19.8166 71.2607 18.556 70 17.0008 70C15.4457 70 14.185 71.2607 14.185 72.8158V76.2029L11.79 73.8079C10.6903 72.7082 8.90744 72.7082 7.8078 73.8079C6.70816 74.9075 6.70816 76.6904 7.8078 77.79L10.203 80.1852H6.81581C5.26068 80.1852 4 81.4459 4 83.001C4 84.5561 5.26068 85.8168 6.81581 85.8168H10.2028L7.80772 88.2119C6.70808 89.3116 6.70808 91.0944 7.80772 92.1941C8.90737 93.2937 10.6902 93.2937 11.7899 92.1941L14.185 89.7989V93.1862C14.185 94.7413 15.4457 96.002 17.0008 96.002C18.556 96.002 19.8166 94.7413 19.8166 93.1862V89.7989L22.2118 92.1941C23.3115 93.2937 25.0944 93.2937 26.194 92.1941C27.2936 91.0944 27.2936 89.3116 26.194 88.2119L23.7989 85.8168H27.1862C28.7413 85.8168 30.002 84.5561 30.002 83.001C30.002 81.4459 28.7413 80.1852 27.1862 80.1852H23.7988L26.1939 77.79C27.2936 76.6904 27.2936 74.9075 26.1939 73.8079C25.0943 72.7082 23.3114 72.7082 22.2118 73.8079L19.8166 76.203V72.8158Z" fill="url(#paint0_linear_206_1533)"/>
<path fill-rule="evenodd" clip-rule="evenodd" d="M74.2378 69.2391C74.2378 67.4502 72.7876 66 70.9987 66C69.2098 66 67.7597 67.4502 67.7597 69.2391V73.1789L64.9738 70.3931C63.7089 69.1281 61.658 69.1281 60.3931 70.3931C59.1282 71.658 59.1282 73.7089 60.3931 74.9738L63.1792 77.7599H59.2391C57.4502 77.7599 56 79.2101 56 80.999C56 82.7879 57.4502 84.238 59.2391 84.238H63.1789L60.3928 87.0241C59.1279 88.2891 59.1279 90.3399 60.3928 91.6049C61.6578 92.8698 63.7086 92.8698 64.9735 91.6049L67.7597 88.8187V92.7589C67.7597 94.5478 69.2098 95.998 70.9987 95.998C72.7876 95.998 74.2378 94.5478 74.2378 92.7589V88.8185L77.0242 91.6049C78.2891 92.8698 80.34 92.8698 81.6049 91.6049C82.8698 90.3399 82.8698 88.2891 81.6049 87.0241L78.8188 84.238H82.7589C84.5478 84.238 85.998 82.7879 85.998 80.999C85.998 79.2101 84.5478 77.7599 82.7589 77.7599H78.8185L81.6046 74.9738C82.8695 73.7089 82.8695 71.658 81.6046 70.3931C80.3397 69.1281 78.2888 69.1281 77.0239 70.3931L74.2378 73.1791V69.2391Z" fill="url(#paint1_linear_206_1533)"/>
<path fill-rule="evenodd" clip-rule="evenodd" d="M61.3741 98.3753C61.3741 97.0634 60.3106 96 58.9988 96C57.687 96 56.6235 97.0634 56.6235 98.3753V101.264L54.5806 99.2215C53.653 98.2939 52.1491 98.2939 51.2215 99.2215C50.2939 100.149 50.2939 101.653 51.2215 102.581L53.2646 104.624H50.3753C49.0634 104.624 48 105.687 48 106.999C48 108.311 49.0634 109.374 50.3752 109.374H53.2644L51.2213 111.417C50.2937 112.345 50.2937 113.849 51.2213 114.776C52.1489 115.704 53.6528 115.704 54.5804 114.776L56.6235 112.733V115.623C56.6235 116.935 57.687 117.998 58.9988 117.998C60.3106 117.998 61.3741 116.935 61.3741 115.623V112.733L63.4173 114.776C64.3449 115.704 65.8489 115.704 66.7765 114.776C67.7041 113.849 67.7041 112.345 66.7765 111.417L64.7334 109.374H67.6227C68.9346 109.374 69.998 108.311 69.998 106.999C69.998 105.687 68.9346 104.624 67.6227 104.624H64.7332L66.7763 102.581C67.7039 101.653 67.7039 100.149 66.7763 99.2215C65.8487 98.2939 64.3447 98.2939 63.4171 99.2215L61.3741 101.265V98.3753Z" fill="url(#paint2_linear_206_1533)"/>
<path d="M24.8069 101.281L37.9076 77.2315C37.9853 77.0888 38.1348 77 38.2973 77H55.2814C55.6114 77 55.826 77.3474 55.6782 77.6426L48.8724 91.2324C48.7246 91.5276 48.9391 91.875 49.2692 91.875H56L18.8784 124.356C18.5053 124.683 17.959 124.245 18.1967 123.81L29.7873 102.594C29.9489 102.298 29.7349 101.938 29.3979 101.938H25.1966C24.8598 101.938 24.6458 101.577 24.8069 101.281Z" fill="url(#paint3_linear_206_1533)"/>
<g filter="url(#filter0_ddi_206_1533)">
<circle cx="48" cy="48" r="32" fill="url(#paint4_linear_206_1533)"/>
</g>
<g filter="url(#filter1_f_206_1533)">
<ellipse cx="77.1494" cy="41.4221" rx="11.8636" ry="3.57792" fill="#004E67" fill-opacity="0.7"/>
</g>
<g filter="url(#filter2_bi_206_1533)">
<path fill-rule="evenodd" clip-rule="evenodd" d="M86 27.2987C86 27.5956 85.9885 27.8898 85.9661 28.181C87.2033 27.1593 88.7898 26.5455 90.5196 26.5455C94.4717 26.5455 97.6755 29.7492 97.6755 33.7013C97.6755 37.5271 94.6732 40.6516 90.8961 40.8474V40.8571H90.5345C90.5296 40.8571 90.5246 40.8572 90.5196 40.8572C90.5146 40.8572 90.5096 40.8571 90.5047 40.8571H64.1708C64.1658 40.8571 64.1608 40.8572 64.1559 40.8572C64.1509 40.8572 64.1459 40.8571 64.1409 40.8571H63.4026V40.818C59.8046 40.4416 57 37.399 57 33.7013C57 29.996 59.8162 26.9484 63.4249 26.5823C63.7945 20.676 68.7018 16 74.7013 16C80.9414 16 86 21.0586 86 27.2987Z" fill="url(#paint5_linear_206_1533)"/>
</g>
<g filter="url(#filter3_f_206_1533)">
<ellipse cx="16.2083" cy="4.88823" rx="16.2083" ry="4.88823" transform="matrix(-1 0 0 1 45.2514 78.8439)" fill="#004E67" fill-opacity="0.7"/>
</g>
<g filter="url(#filter4_bi_206_1533)">
<path fill-rule="evenodd" clip-rule="evenodd" d="M16.951 64.4365C16.951 64.8421 16.9666 65.244 16.9973 65.6417C15.3071 64.2459 13.1397 63.4074 10.7764 63.4074C5.37704 63.4074 0.999969 67.7845 0.999969 73.1839C0.999969 78.4106 5.10165 82.6794 10.2618 82.947V82.9603H10.7641C10.7682 82.9603 10.7723 82.9603 10.7764 82.9603C10.7805 82.9603 10.7847 82.9603 10.7888 82.9603H46.7826C46.7867 82.9603 46.7909 82.9603 46.795 82.9603C46.7991 82.9603 46.8032 82.9603 46.8073 82.9603H47.824V82.9068C52.7397 82.3926 56.5714 78.2357 56.5714 73.1839C56.5714 68.1216 52.7238 63.9579 47.7935 63.4578C47.2886 55.3884 40.5841 49 32.3875 49C23.8621 49 16.951 55.9112 16.951 64.4365Z" fill="url(#paint6_linear_206_1533)"/>
</g>
<path fill-rule="evenodd" clip-rule="evenodd" d="M30.002 83H4C4.00053 81.4453 5.26101 80.1852 6.81581 80.1852H10.203L7.8078 77.79C6.70816 76.6904 6.70816 74.9075 7.8078 73.8079C8.90744 72.7082 10.6903 72.7082 11.79 73.8079L14.185 76.2029V72.8158C14.185 71.2607 15.4457 70 17.0008 70C18.556 70 19.8166 71.2607 19.8166 72.8158V76.203L22.2118 73.8079C23.3114 72.7082 25.0943 72.7082 26.1939 73.8079C27.2936 74.9075 27.2936 76.6904 26.1939 77.79L23.7988 80.1852H27.1862C28.741 80.1852 30.0015 81.4453 30.002 83Z" fill="#A9DDFA"/>
<defs>
<filter id="filter0_ddi_206_1533" x="1.52588e-05" y="0" width="96" height="96" filterUnits="userSpaceOnUse" color-interpolation-filters="sRGB">
<feFlood flood-opacity="0" result="BackgroundImageFix"/>
<feColorMatrix in="SourceAlpha" type="matrix" values="0 0 0 0 0 0 0 0 0 0 0 0 0 0 0 0 0 0 127 0" result="hardAlpha"/>
<feOffset/>
<feGaussianBlur stdDeviation="8"/>
<feComposite in2="hardAlpha" operator="out"/>
<feColorMatrix type="matrix" values="0 0 0 0 0.992157 0 0 0 0 0.773882 0 0 0 0 0 0 0 0 1 0"/>
<feBlend mode="normal" in2="BackgroundImageFix" result="effect1_dropShadow_206_1533"/>
<feColorMatrix in="SourceAlpha" type="matrix" values="0 0 0 0 0 0 0 0 0 0 0 0 0 0 0 0 0 0 127 0" result="hardAlpha"/>
<feOffset/>
<feGaussianBlur stdDeviation="5.5"/>
<feComposite in2="hardAlpha" operator="out"/>
<feColorMatrix type="matrix" values="0 0 0 0 0.992157 0 0 0 0 0.772549 0 0 0 0 0 0 0 0 0.45 0"/>
<feBlend mode="normal" in2="effect1_dropShadow_206_1533" result="effect2_dropShadow_206_1533"/>
<feBlend mode="normal" in="SourceGraphic" in2="effect2_dropShadow_206_1533" result="shape"/>
<feColorMatrix in="SourceAlpha" type="matrix" values="0 0 0 0 0 0 0 0 0 0 0 0 0 0 0 0 0 0 127 0" result="hardAlpha"/>
<feOffset dx="-1" dy="3"/>
<feGaussianBlur stdDeviation="2.5"/>
<feComposite in2="hardAlpha" operator="arithmetic" k2="-1" k3="1"/>
<feColorMatrix type="matrix" values="0 0 0 0 1 0 0 0 0 0.9 0 0 0 0 0 0 0 0 0.35 0"/>
<feBlend mode="normal" in2="shape" result="effect3_innerShadow_206_1533"/>
</filter>
<filter id="filter1_f_206_1533" x="57" y="29.5584" width="40.2987" height="23.7273" filterUnits="userSpaceOnUse" color-interpolation-filters="sRGB">
<feFlood flood-opacity="0" result="BackgroundImageFix"/>
<feBlend mode="normal" in="SourceGraphic" in2="BackgroundImageFix" result="shape"/>
<feGaussianBlur stdDeviation="4.14286" result="effect1_foregroundBlur_206_1533"/>
</filter>
<filter id="filter2_bi_206_1533" x="54.3637" y="13.3636" width="45.9482" height="30.1299" filterUnits="userSpaceOnUse" color-interpolation-filters="sRGB">
<feFlood flood-opacity="0" result="BackgroundImageFix"/>
<feGaussianBlur in="BackgroundImageFix" stdDeviation="1.31818"/>
<feComposite in2="SourceAlpha" operator="in" result="effect1_backgroundBlur_206_1533"/>
<feBlend mode="normal" in="SourceGraphic" in2="effect1_backgroundBlur_206_1533" result="shape"/>
<feColorMatrix in="SourceAlpha" type="matrix" values="0 0 0 0 0 0 0 0 0 0 0 0 0 0 0 0 0 0 127 0" result="hardAlpha"/>
<feOffset dy="0.753247"/>
<feGaussianBlur stdDeviation="1.50649"/>
<feComposite in2="hardAlpha" operator="arithmetic" k2="-1" k3="1"/>
<feColorMatrix type="matrix" values="0 0 0 0 0 0 0 0 0 0.82 0 0 0 0 1 0 0 0 0.25 0"/>
<feBlend mode="normal" in2="shape" result="effect2_innerShadow_206_1533"/>
</filter>
<filter id="filter3_f_206_1533" x="1.5146" y="67.5238" width="55.0569" height="32.4167" filterUnits="userSpaceOnUse" color-interpolation-filters="sRGB">
<feFlood flood-opacity="0" result="BackgroundImageFix"/>
<feBlend mode="normal" in="SourceGraphic" in2="BackgroundImageFix" result="shape"/>
<feGaussianBlur stdDeviation="5.66005" result="effect1_foregroundBlur_206_1533"/>
</filter>
<filter id="filter4_bi_206_1533" x="-2.60188" y="45.3981" width="62.7752" height="41.164" filterUnits="userSpaceOnUse" color-interpolation-filters="sRGB">
<feFlood flood-opacity="0" result="BackgroundImageFix"/>
<feGaussianBlur in="BackgroundImageFix" stdDeviation="1.80093"/>
<feComposite in2="SourceAlpha" operator="in" result="effect1_backgroundBlur_206_1533"/>
<feBlend mode="normal" in="SourceGraphic" in2="effect1_backgroundBlur_206_1533" result="shape"/>
<feColorMatrix in="SourceAlpha" type="matrix" values="0 0 0 0 0 0 0 0 0 0 0 0 0 0 0 0 0 0 127 0" result="hardAlpha"/>
<feOffset dy="1.0291"/>
<feGaussianBlur stdDeviation="2.0582"/>
<feComposite in2="hardAlpha" operator="arithmetic" k2="-1" k3="1"/>
<feColorMatrix type="matrix" values="0 0 0 0 0 0 0 0 0 0.82 0 0 0 0 1 0 0 0 0.25 0"/>
<feBlend mode="normal" in2="shape" result="effect2_innerShadow_206_1533"/>
</filter>
<linearGradient id="paint0_linear_206_1533" x1="7.71186" y1="90.7397" x2="32.4073" y2="69.8958" gradientUnits="userSpaceOnUse">
<stop stop-color="#0056D6"/>
<stop offset="1" stop-color="#ADD8FF"/>
</linearGradient>
<linearGradient id="paint1_linear_206_1533" x1="60.2823" y1="89.927" x2="88.7729" y2="65.8798" gradientUnits="userSpaceOnUse">
<stop stop-color="#0056D6"/>
<stop offset="1" stop-color="#ADD8FF"/>
</linearGradient>
<linearGradient id="paint2_linear_206_1533" x1="51.1403" y1="113.546" x2="72.0329" y2="95.9119" gradientUnits="userSpaceOnUse">
<stop stop-color="#0056D6"/>
<stop offset="1" stop-color="#ADD8FF"/>
</linearGradient>
<linearGradient id="paint3_linear_206_1533" x1="36.5" y1="77" x2="36.5" y2="126" gradientUnits="userSpaceOnUse">
<stop stop-color="#F8FD00"/>
<stop offset="1" stop-color="#FD9800"/>
</linearGradient>
<linearGradient id="paint4_linear_206_1533" x1="48" y1="16" x2="48" y2="80" gradientUnits="userSpaceOnUse">
<stop stop-color="#FDC500"/>
<stop offset="1" stop-color="#FD8900"/>
</linearGradient>
<linearGradient id="paint5_linear_206_1533" x1="78.0909" y1="49.7078" x2="93.3442" y2="16" gradientUnits="userSpaceOnUse">
<stop stop-color="#2BA6FF"/>
<stop offset="0.299998" stop-color="#48B2FF" stop-opacity="0.75"/>
<stop offset="1" stop-color="#3BADFF" stop-opacity="0"/>
</linearGradient>
<linearGradient id="paint6_linear_206_1533" x1="27.7566" y1="95.0522" x2="16.9999" y2="35.5" gradientUnits="userSpaceOnUse">
<stop offset="0.13121" stop-color="#2BA6FF"/>
<stop offset="1" stop-color="#3BADFF" stop-opacity="0"/>
</linearGradient>
</defs>
</svg>
