<svg width="98" height="111" viewBox="0 0 98 111" fill="none" xmlns="http://www.w3.org/2000/svg">
<path fill-rule="evenodd" clip-rule="evenodd" d="M20.3741 91.3753C20.3741 90.0634 19.3106 89 17.9988 89C16.687 89 15.6235 90.0634 15.6235 91.3753V94.2644L13.5806 92.2215C12.653 91.2939 11.1491 91.2939 10.2215 92.2215C9.29393 93.1491 9.29393 94.653 10.2215 95.5806L12.2646 97.6237H9.37526C8.06344 97.6237 7 98.6872 7 99.999C7 101.311 8.06344 102.374 9.37526 102.374H12.2644L10.2213 104.417C9.29373 105.345 9.29373 106.849 10.2213 107.776C11.1489 108.704 12.6529 108.704 13.5804 107.776L15.6235 105.733V108.623C15.6235 109.935 16.687 110.998 17.9988 110.998C19.3106 110.998 20.3741 109.935 20.3741 108.623V105.733L22.4173 107.776C23.3449 108.704 24.8489 108.704 25.7765 107.776C26.7041 106.849 26.7041 105.345 25.7765 104.417L23.7334 102.374H26.6227C27.9346 102.374 28.998 101.311 28.998 99.999C28.998 98.6872 27.9346 97.6237 26.6227 97.6237H23.7332L25.7763 95.5806C26.7039 94.653 26.7039 93.1491 25.7763 92.2215C24.8487 91.2939 23.3447 91.2939 22.4171 92.2215L20.3741 94.2646V91.3753Z" fill="url(#paint0_linear_206_1378)"/>
<path fill-rule="evenodd" clip-rule="evenodd" d="M58.3741 91.3753C58.3741 90.0634 57.3106 89 55.9988 89C54.687 89 53.6235 90.0634 53.6235 91.3753V94.2644L51.5806 92.2215C50.653 91.2939 49.1491 91.2939 48.2215 92.2215C47.2939 93.1491 47.2939 94.653 48.2215 95.5806L50.2646 97.6237H47.3753C46.0634 97.6237 45 98.6872 45 99.999C45 101.311 46.0634 102.374 47.3753 102.374H50.2644L48.2213 104.417C47.2937 105.345 47.2937 106.849 48.2213 107.776C49.1489 108.704 50.6529 108.704 51.5804 107.776L53.6235 105.733V108.623C53.6235 109.935 54.687 110.998 55.9988 110.998C57.3106 110.998 58.3741 109.935 58.3741 108.623V105.733L60.4173 107.776C61.3449 108.704 62.8489 108.704 63.7765 107.776C64.7041 106.849 64.7041 105.345 63.7765 104.417L61.7334 102.374H64.6227C65.9346 102.374 66.998 101.311 66.998 99.999C66.998 98.6872 65.9346 97.6237 64.6227 97.6237H61.7332L63.7763 95.5806C64.7039 94.653 64.7039 93.1491 63.7763 92.2215C62.8487 91.2939 61.3447 91.2939 60.4171 92.2215L58.3741 94.2646V91.3753Z" fill="url(#paint1_linear_206_1378)"/>
<g filter="url(#filter0_ddi_206_1378)">
<circle cx="48" cy="48" r="32" fill="url(#paint2_linear_206_1378)"/>
</g>
<g filter="url(#filter1_f_206_1378)">
<ellipse cx="77.1493" cy="41.4221" rx="11.8636" ry="3.57792" fill="#004E67" fill-opacity="0.7"/>
</g>
<g filter="url(#filter2_bi_206_1378)">
<path fill-rule="evenodd" clip-rule="evenodd" d="M86 27.2987C86 27.5956 85.9885 27.8898 85.966 28.181C87.2033 27.1593 88.7897 26.5455 90.5196 26.5455C94.4717 26.5455 97.6754 29.7492 97.6754 33.7013C97.6754 37.5271 94.6731 40.6516 90.8961 40.8474V40.8571H90.5345C90.5296 40.8571 90.5246 40.8572 90.5196 40.8572C90.5146 40.8572 90.5096 40.8571 90.5047 40.8571H64.1708C64.1658 40.8571 64.1608 40.8572 64.1558 40.8572C64.1509 40.8572 64.1459 40.8571 64.1409 40.8571H63.4026V40.818C59.8046 40.4416 57 37.399 57 33.7013C57 29.996 59.8162 26.9484 63.4249 26.5823C63.7945 20.676 68.7018 16 74.7013 16C80.9414 16 86 21.0586 86 27.2987Z" fill="url(#paint3_linear_206_1378)"/>
</g>
<g filter="url(#filter3_f_206_1378)">
<ellipse cx="16.2083" cy="4.88823" rx="16.2083" ry="4.88823" transform="matrix(-1 0 0 1 45.2513 78.8439)" fill="#004E67" fill-opacity="0.7"/>
</g>
<g filter="url(#filter4_bi_206_1378)">
<path fill-rule="evenodd" clip-rule="evenodd" d="M16.951 64.4365C16.951 64.8421 16.9666 65.244 16.9973 65.6417C15.3071 64.2459 13.1397 63.4074 10.7764 63.4074C5.37702 63.4074 0.999954 67.7845 0.999954 73.1839C0.999954 78.4106 5.10163 82.6794 10.2618 82.947V82.9603H10.7641C10.7682 82.9603 10.7723 82.9603 10.7764 82.9603C10.7805 82.9603 10.7846 82.9603 10.7888 82.9603H46.7826C46.7867 82.9603 46.7908 82.9603 46.795 82.9603C46.7991 82.9603 46.8032 82.9603 46.8073 82.9603H47.824V82.9068C52.7397 82.3926 56.5714 78.2357 56.5714 73.1839C56.5714 68.1216 52.7238 63.9579 47.7935 63.4578C47.2886 55.3884 40.5841 49 32.3875 49C23.8621 49 16.951 55.9112 16.951 64.4365Z" fill="url(#paint4_linear_206_1378)"/>
</g>
<defs>
<filter id="filter0_ddi_206_1378" x="0" y="0" width="96" height="96" filterUnits="userSpaceOnUse" color-interpolation-filters="sRGB">
<feFlood flood-opacity="0" result="BackgroundImageFix"/>
<feColorMatrix in="SourceAlpha" type="matrix" values="0 0 0 0 0 0 0 0 0 0 0 0 0 0 0 0 0 0 127 0" result="hardAlpha"/>
<feOffset/>
<feGaussianBlur stdDeviation="8"/>
<feComposite in2="hardAlpha" operator="out"/>
<feColorMatrix type="matrix" values="0 0 0 0 0.992157 0 0 0 0 0.773882 0 0 0 0 0 0 0 0 1 0"/>
<feBlend mode="normal" in2="BackgroundImageFix" result="effect1_dropShadow_206_1378"/>
<feColorMatrix in="SourceAlpha" type="matrix" values="0 0 0 0 0 0 0 0 0 0 0 0 0 0 0 0 0 0 127 0" result="hardAlpha"/>
<feOffset/>
<feGaussianBlur stdDeviation="5.5"/>
<feComposite in2="hardAlpha" operator="out"/>
<feColorMatrix type="matrix" values="0 0 0 0 0.992157 0 0 0 0 0.772549 0 0 0 0 0 0 0 0 0.45 0"/>
<feBlend mode="normal" in2="effect1_dropShadow_206_1378" result="effect2_dropShadow_206_1378"/>
<feBlend mode="normal" in="SourceGraphic" in2="effect2_dropShadow_206_1378" result="shape"/>
<feColorMatrix in="SourceAlpha" type="matrix" values="0 0 0 0 0 0 0 0 0 0 0 0 0 0 0 0 0 0 127 0" result="hardAlpha"/>
<feOffset dx="-1" dy="3"/>
<feGaussianBlur stdDeviation="2.5"/>
<feComposite in2="hardAlpha" operator="arithmetic" k2="-1" k3="1"/>
<feColorMatrix type="matrix" values="0 0 0 0 1 0 0 0 0 0.9 0 0 0 0 0 0 0 0 0.35 0"/>
<feBlend mode="normal" in2="shape" result="effect3_innerShadow_206_1378"/>
</filter>
<filter id="filter1_f_206_1378" x="57" y="29.5584" width="40.2987" height="23.7273" filterUnits="userSpaceOnUse" color-interpolation-filters="sRGB">
<feFlood flood-opacity="0" result="BackgroundImageFix"/>
<feBlend mode="normal" in="SourceGraphic" in2="BackgroundImageFix" result="shape"/>
<feGaussianBlur stdDeviation="4.14286" result="effect1_foregroundBlur_206_1378"/>
</filter>
<filter id="filter2_bi_206_1378" x="54.3636" y="13.3636" width="45.9481" height="30.1299" filterUnits="userSpaceOnUse" color-interpolation-filters="sRGB">
<feFlood flood-opacity="0" result="BackgroundImageFix"/>
<feGaussianBlur in="BackgroundImageFix" stdDeviation="1.31818"/>
<feComposite in2="SourceAlpha" operator="in" result="effect1_backgroundBlur_206_1378"/>
<feBlend mode="normal" in="SourceGraphic" in2="effect1_backgroundBlur_206_1378" result="shape"/>
<feColorMatrix in="SourceAlpha" type="matrix" values="0 0 0 0 0 0 0 0 0 0 0 0 0 0 0 0 0 0 127 0" result="hardAlpha"/>
<feOffset dy="0.753247"/>
<feGaussianBlur stdDeviation="1.50649"/>
<feComposite in2="hardAlpha" operator="arithmetic" k2="-1" k3="1"/>
<feColorMatrix type="matrix" values="0 0 0 0 0 0 0 0 0 0.82 0 0 0 0 1 0 0 0 0.25 0"/>
<feBlend mode="normal" in2="shape" result="effect2_innerShadow_206_1378"/>
</filter>
<filter id="filter3_f_206_1378" x="1.51455" y="67.5238" width="55.0569" height="32.4167" filterUnits="userSpaceOnUse" color-interpolation-filters="sRGB">
<feFlood flood-opacity="0" result="BackgroundImageFix"/>
<feBlend mode="normal" in="SourceGraphic" in2="BackgroundImageFix" result="shape"/>
<feGaussianBlur stdDeviation="5.66005" result="effect1_foregroundBlur_206_1378"/>
</filter>
<filter id="filter4_bi_206_1378" x="-2.60191" y="45.3981" width="62.7752" height="41.164" filterUnits="userSpaceOnUse" color-interpolation-filters="sRGB">
<feFlood flood-opacity="0" result="BackgroundImageFix"/>
<feGaussianBlur in="BackgroundImageFix" stdDeviation="1.80093"/>
<feComposite in2="SourceAlpha" operator="in" result="effect1_backgroundBlur_206_1378"/>
<feBlend mode="normal" in="SourceGraphic" in2="effect1_backgroundBlur_206_1378" result="shape"/>
<feColorMatrix in="SourceAlpha" type="matrix" values="0 0 0 0 0 0 0 0 0 0 0 0 0 0 0 0 0 0 127 0" result="hardAlpha"/>
<feOffset dy="1.0291"/>
<feGaussianBlur stdDeviation="2.0582"/>
<feComposite in2="hardAlpha" operator="arithmetic" k2="-1" k3="1"/>
<feColorMatrix type="matrix" values="0 0 0 0 0 0 0 0 0 0.82 0 0 0 0 1 0 0 0 0.25 0"/>
<feBlend mode="normal" in2="shape" result="effect2_innerShadow_206_1378"/>
</filter>
<linearGradient id="paint0_linear_206_1378" x1="10.1403" y1="106.546" x2="31.0329" y2="88.9119" gradientUnits="userSpaceOnUse">
<stop stop-color="#0056D6"/>
<stop offset="1" stop-color="#ADD8FF"/>
</linearGradient>
<linearGradient id="paint1_linear_206_1378" x1="48.1403" y1="106.546" x2="69.0329" y2="88.9119" gradientUnits="userSpaceOnUse">
<stop stop-color="#0056D6"/>
<stop offset="1" stop-color="#ADD8FF"/>
</linearGradient>
<linearGradient id="paint2_linear_206_1378" x1="48" y1="16" x2="48" y2="80" gradientUnits="userSpaceOnUse">
<stop stop-color="#FDC500"/>
<stop offset="1" stop-color="#FD8900"/>
</linearGradient>
<linearGradient id="paint3_linear_206_1378" x1="78.0909" y1="49.7078" x2="93.3442" y2="16" gradientUnits="userSpaceOnUse">
<stop stop-color="#2BA6FF"/>
<stop offset="0.299998" stop-color="#48B2FF" stop-opacity="0.75"/>
<stop offset="1" stop-color="#3BADFF" stop-opacity="0"/>
</linearGradient>
<linearGradient id="paint4_linear_206_1378" x1="27.7566" y1="95.0522" x2="16.9999" y2="35.5" gradientUnits="userSpaceOnUse">
<stop offset="0.13121" stop-color="#2BA6FF"/>
<stop offset="1" stop-color="#3BADFF" stop-opacity="0"/>
</linearGradient>
</defs>
</svg>
