<svg width="98" height="110" viewBox="0 0 98 110" fill="none" xmlns="http://www.w3.org/2000/svg">
<path fill-rule="evenodd" clip-rule="evenodd" d="M32.5 55C33.8807 55 35 56.1193 35 57.5L35 72.5C35 73.8807 33.8807 75 32.5 75C31.1193 75 30 73.8807 30 72.5L30 57.5C30 56.1193 31.1193 55 32.5 55ZM58.5 60C59.8807 60 61 61.1193 61 62.5V90.5C61 91.8807 59.8807 93 58.5 93C57.1193 93 56 91.8807 56 90.5V62.5C56 61.1193 57.1193 60 58.5 60ZM45.5 67C46.8807 67 48 68.1193 48 69.5V78.5C48 79.8807 46.8807 81 45.5 81C44.1193 81 43 79.8807 43 78.5V69.5C43 68.1193 44.1193 67 45.5 67ZM45.5 87C46.8807 87 48 88.1193 48 89.5V107.5C48 108.881 46.8807 110 45.5 110C44.1193 110 43 108.881 43 107.5V89.5C43 88.1193 44.1193 87 45.5 87ZM61 100.5C61 99.1193 59.8807 98 58.5 98C57.1193 98 56 99.1193 56 100.5V107.5C56 108.881 57.1193 110 58.5 110C59.8807 110 61 108.881 61 107.5V100.5ZM74 74.5C74 73.1193 72.8807 72 71.5 72C70.1193 72 69 73.1193 69 74.5V81.5C69 82.8807 70.1193 84 71.5 84C72.8807 84 74 82.8807 74 81.5V74.5ZM71.5 90C72.8807 90 74 91.1193 74 92.5V107.5C74 108.881 72.8807 110 71.5 110C70.1193 110 69 108.881 69 107.5V92.5C69 91.1193 70.1193 90 71.5 90ZM35 82.5C35 81.1193 33.8807 80 32.5 80C31.1193 80 30 81.1193 30 82.5V89.5C30 90.8807 31.1193 92 32.5 92C33.8807 92 35 90.8807 35 89.5V82.5ZM35 100.5C35 99.1193 33.8807 98 32.5 98C31.1193 98 30 99.1193 30 100.5V107.5C30 108.881 31.1193 110 32.5 110C33.8807 110 35 108.881 35 107.5V100.5ZM18.5 65C19.8807 65 21 66.1193 21 67.5L21 75.5C21 76.8807 19.8807 78 18.5 78C17.1193 78 16 76.8807 16 75.5V67.5C16 66.1193 17.1193 65 18.5 65ZM21 87.5C21 86.1193 19.8807 85 18.5 85C17.1193 85 16 86.1193 16 87.5V107.5C16 108.881 17.1193 110 18.5 110C19.8807 110 21 108.881 21 107.5L21 87.5Z" fill="url(#paint0_linear_206_945)"/>
<g filter="url(#filter0_ddi_206_945)">
<circle cx="48" cy="48" r="32" fill="url(#paint1_linear_206_945)"/>
</g>
<g filter="url(#filter1_f_206_945)">
<ellipse cx="77.1493" cy="41.4221" rx="11.8636" ry="3.57792" fill="#004E67" fill-opacity="0.7"/>
</g>
<g filter="url(#filter2_bi_206_945)">
<path fill-rule="evenodd" clip-rule="evenodd" d="M86 27.2987C86 27.5956 85.9885 27.8898 85.966 28.181C87.2033 27.1593 88.7897 26.5455 90.5196 26.5455C94.4717 26.5455 97.6754 29.7492 97.6754 33.7013C97.6754 37.5271 94.6731 40.6516 90.8961 40.8474V40.8571H90.5345C90.5296 40.8571 90.5246 40.8572 90.5196 40.8572C90.5146 40.8572 90.5096 40.8571 90.5047 40.8571H64.1708C64.1658 40.8571 64.1608 40.8572 64.1558 40.8572C64.1509 40.8572 64.1459 40.8571 64.1409 40.8571H63.4026V40.818C59.8046 40.4416 57 37.399 57 33.7013C57 29.996 59.8162 26.9484 63.4249 26.5823C63.7945 20.676 68.7018 16 74.7013 16C80.9414 16 86 21.0586 86 27.2987Z" fill="url(#paint2_linear_206_945)"/>
</g>
<g filter="url(#filter3_f_206_945)">
<ellipse cx="16.2083" cy="4.88823" rx="16.2083" ry="4.88823" transform="matrix(-1 0 0 1 45.2513 78.8439)" fill="#004E67" fill-opacity="0.7"/>
</g>
<g filter="url(#filter4_bi_206_945)">
<path fill-rule="evenodd" clip-rule="evenodd" d="M16.951 64.4365C16.951 64.8421 16.9666 65.244 16.9973 65.6417C15.3071 64.2459 13.1397 63.4074 10.7764 63.4074C5.37702 63.4074 0.999954 67.7845 0.999954 73.1839C0.999954 78.4106 5.10163 82.6794 10.2618 82.947V82.9603H10.7641C10.7682 82.9603 10.7723 82.9603 10.7764 82.9603C10.7805 82.9603 10.7846 82.9603 10.7888 82.9603H46.7826C46.7867 82.9603 46.7908 82.9603 46.795 82.9603C46.7991 82.9603 46.8032 82.9603 46.8073 82.9603H47.824V82.9068C52.7397 82.3926 56.5714 78.2357 56.5714 73.1839C56.5714 68.1216 52.7238 63.9579 47.7935 63.4578C47.2886 55.3884 40.5841 49 32.3875 49C23.8621 49 16.951 55.9112 16.951 64.4365Z" fill="url(#paint3_linear_206_945)"/>
</g>
<defs>
<filter id="filter0_ddi_206_945" x="0" y="0" width="96" height="96" filterUnits="userSpaceOnUse" color-interpolation-filters="sRGB">
<feFlood flood-opacity="0" result="BackgroundImageFix"/>
<feColorMatrix in="SourceAlpha" type="matrix" values="0 0 0 0 0 0 0 0 0 0 0 0 0 0 0 0 0 0 127 0" result="hardAlpha"/>
<feOffset/>
<feGaussianBlur stdDeviation="8"/>
<feComposite in2="hardAlpha" operator="out"/>
<feColorMatrix type="matrix" values="0 0 0 0 0.992157 0 0 0 0 0.773882 0 0 0 0 0 0 0 0 1 0"/>
<feBlend mode="normal" in2="BackgroundImageFix" result="effect1_dropShadow_206_945"/>
<feColorMatrix in="SourceAlpha" type="matrix" values="0 0 0 0 0 0 0 0 0 0 0 0 0 0 0 0 0 0 127 0" result="hardAlpha"/>
<feOffset/>
<feGaussianBlur stdDeviation="5.5"/>
<feComposite in2="hardAlpha" operator="out"/>
<feColorMatrix type="matrix" values="0 0 0 0 0.992157 0 0 0 0 0.772549 0 0 0 0 0 0 0 0 0.45 0"/>
<feBlend mode="normal" in2="effect1_dropShadow_206_945" result="effect2_dropShadow_206_945"/>
<feBlend mode="normal" in="SourceGraphic" in2="effect2_dropShadow_206_945" result="shape"/>
<feColorMatrix in="SourceAlpha" type="matrix" values="0 0 0 0 0 0 0 0 0 0 0 0 0 0 0 0 0 0 127 0" result="hardAlpha"/>
<feOffset dx="-1" dy="3"/>
<feGaussianBlur stdDeviation="2.5"/>
<feComposite in2="hardAlpha" operator="arithmetic" k2="-1" k3="1"/>
<feColorMatrix type="matrix" values="0 0 0 0 1 0 0 0 0 0.9 0 0 0 0 0 0 0 0 0.35 0"/>
<feBlend mode="normal" in2="shape" result="effect3_innerShadow_206_945"/>
</filter>
<filter id="filter1_f_206_945" x="57" y="29.5584" width="40.2987" height="23.7273" filterUnits="userSpaceOnUse" color-interpolation-filters="sRGB">
<feFlood flood-opacity="0" result="BackgroundImageFix"/>
<feBlend mode="normal" in="SourceGraphic" in2="BackgroundImageFix" result="shape"/>
<feGaussianBlur stdDeviation="4.14286" result="effect1_foregroundBlur_206_945"/>
</filter>
<filter id="filter2_bi_206_945" x="54.3636" y="13.3636" width="45.9481" height="30.1299" filterUnits="userSpaceOnUse" color-interpolation-filters="sRGB">
<feFlood flood-opacity="0" result="BackgroundImageFix"/>
<feGaussianBlur in="BackgroundImageFix" stdDeviation="1.31818"/>
<feComposite in2="SourceAlpha" operator="in" result="effect1_backgroundBlur_206_945"/>
<feBlend mode="normal" in="SourceGraphic" in2="effect1_backgroundBlur_206_945" result="shape"/>
<feColorMatrix in="SourceAlpha" type="matrix" values="0 0 0 0 0 0 0 0 0 0 0 0 0 0 0 0 0 0 127 0" result="hardAlpha"/>
<feOffset dy="0.753247"/>
<feGaussianBlur stdDeviation="1.50649"/>
<feComposite in2="hardAlpha" operator="arithmetic" k2="-1" k3="1"/>
<feColorMatrix type="matrix" values="0 0 0 0 0 0 0 0 0 0.82 0 0 0 0 1 0 0 0 0.25 0"/>
<feBlend mode="normal" in2="shape" result="effect2_innerShadow_206_945"/>
</filter>
<filter id="filter3_f_206_945" x="1.51455" y="67.5238" width="55.0569" height="32.4167" filterUnits="userSpaceOnUse" color-interpolation-filters="sRGB">
<feFlood flood-opacity="0" result="BackgroundImageFix"/>
<feBlend mode="normal" in="SourceGraphic" in2="BackgroundImageFix" result="shape"/>
<feGaussianBlur stdDeviation="5.66005" result="effect1_foregroundBlur_206_945"/>
</filter>
<filter id="filter4_bi_206_945" x="-2.60191" y="45.3981" width="62.7752" height="41.164" filterUnits="userSpaceOnUse" color-interpolation-filters="sRGB">
<feFlood flood-opacity="0" result="BackgroundImageFix"/>
<feGaussianBlur in="BackgroundImageFix" stdDeviation="1.80093"/>
<feComposite in2="SourceAlpha" operator="in" result="effect1_backgroundBlur_206_945"/>
<feBlend mode="normal" in="SourceGraphic" in2="effect1_backgroundBlur_206_945" result="shape"/>
<feColorMatrix in="SourceAlpha" type="matrix" values="0 0 0 0 0 0 0 0 0 0 0 0 0 0 0 0 0 0 127 0" result="hardAlpha"/>
<feOffset dy="1.0291"/>
<feGaussianBlur stdDeviation="2.0582"/>
<feComposite in2="hardAlpha" operator="arithmetic" k2="-1" k3="1"/>
<feColorMatrix type="matrix" values="0 0 0 0 0 0 0 0 0 0.82 0 0 0 0 1 0 0 0 0.25 0"/>
<feBlend mode="normal" in2="shape" result="effect2_innerShadow_206_945"/>
</filter>
<linearGradient id="paint0_linear_206_945" x1="45" y1="55" x2="45" y2="110" gradientUnits="userSpaceOnUse">
<stop offset="0.168182" stop-color="#D7F0FF"/>
<stop offset="1" stop-color="#0072DC"/>
</linearGradient>
<linearGradient id="paint1_linear_206_945" x1="48" y1="16" x2="48" y2="80" gradientUnits="userSpaceOnUse">
<stop stop-color="#FDC500"/>
<stop offset="1" stop-color="#FD8900"/>
</linearGradient>
<linearGradient id="paint2_linear_206_945" x1="78.0909" y1="49.7078" x2="93.3442" y2="16" gradientUnits="userSpaceOnUse">
<stop stop-color="#2BA6FF"/>
<stop offset="0.299998" stop-color="#48B2FF" stop-opacity="0.75"/>
<stop offset="1" stop-color="#3BADFF" stop-opacity="0"/>
</linearGradient>
<linearGradient id="paint3_linear_206_945" x1="27.7566" y1="95.0522" x2="16.9999" y2="35.5" gradientUnits="userSpaceOnUse">
<stop offset="0.13121" stop-color="#2BA6FF"/>
<stop offset="1" stop-color="#3BADFF" stop-opacity="0"/>
</linearGradient>
</defs>
</svg>
