<svg width="108" height="114" viewBox="0 0 108 114" fill="none" xmlns="http://www.w3.org/2000/svg">
<path fill-rule="evenodd" clip-rule="evenodd" d="M32.8063 94.875C32.8063 93.8395 31.9668 93 30.9313 93C29.8957 93 29.0563 93.8395 29.0563 94.875V97.4046L27.2676 95.6159C26.5354 94.8837 25.3482 94.8837 24.6159 95.6159C23.8837 96.3482 23.8837 97.5353 24.6159 98.2676L26.4048 100.056H23.875C22.8395 100.056 22 100.896 22 101.931C22 102.967 22.8395 103.806 23.875 103.806H26.4046L24.6158 105.595C23.8836 106.327 23.8836 107.515 24.6158 108.247C25.348 108.979 26.5352 108.979 27.2674 108.247L29.0563 106.458V108.988C29.0563 110.023 29.8957 110.863 30.9313 110.863C31.9668 110.863 32.8063 110.023 32.8063 108.988V106.458L34.5952 108.247C35.3275 108.979 36.5147 108.979 37.2469 108.247C37.9791 107.515 37.9791 106.327 37.2469 105.595L35.4581 103.806H37.9879C39.0234 103.806 39.8629 102.967 39.8629 101.931C39.8629 100.896 39.0234 100.056 37.9879 100.056H35.4579L37.2467 98.2676C37.979 97.5353 37.979 96.3482 37.2467 95.6159C36.5145 94.8837 35.3273 94.8837 34.5951 95.6159L32.8063 97.4047V94.875Z" fill="url(#paint0_linear_206_1675)"/>
<path fill-rule="evenodd" clip-rule="evenodd" d="M100.806 94.875C100.806 93.8395 99.9668 93 98.9313 93C97.8957 93 97.0563 93.8395 97.0563 94.875V97.4046L95.2676 95.6159C94.5354 94.8837 93.3482 94.8837 92.6159 95.6159C91.8837 96.3482 91.8837 97.5353 92.6159 98.2676L94.4048 100.056H91.875C90.8395 100.056 90 100.896 90 101.931C90 102.967 90.8395 103.806 91.875 103.806H94.4046L92.6158 105.595C91.8836 106.327 91.8836 107.515 92.6158 108.247C93.348 108.979 94.5352 108.979 95.2674 108.247L97.0563 106.458V108.988C97.0563 110.023 97.8957 110.863 98.9313 110.863C99.9668 110.863 100.806 110.023 100.806 108.988V106.458L102.595 108.247C103.327 108.979 104.515 108.979 105.247 108.247C105.979 107.515 105.979 106.327 105.247 105.595L103.458 103.806H105.988C107.023 103.806 107.863 102.967 107.863 101.931C107.863 100.896 107.023 100.056 105.988 100.056H103.458L105.247 98.2676C105.979 97.5353 105.979 96.3482 105.247 95.6159C104.515 94.8837 103.327 94.8837 102.595 95.6159L100.806 97.4047V94.875Z" fill="url(#paint1_linear_206_1675)"/>
<path fill-rule="evenodd" clip-rule="evenodd" d="M10.8063 94.875C10.8063 93.8395 9.9668 93 8.93127 93C7.89573 93 7.05627 93.8395 7.05627 94.875V97.4046L5.2676 95.6159C4.53536 94.8837 3.34818 94.8837 2.61595 95.6159C1.88371 96.3482 1.88371 97.5353 2.61595 98.2676L4.40478 100.056H1.875C0.839466 100.056 0 100.896 0 101.931C0 102.967 0.839466 103.806 1.875 103.806H4.4046L2.61579 105.595C1.88355 106.327 1.88355 107.515 2.61579 108.247C3.34802 108.979 4.5352 108.979 5.26744 108.247L7.05627 106.458V108.988C7.05627 110.023 7.89573 110.863 8.93127 110.863C9.9668 110.863 10.8063 110.023 10.8063 108.988V106.458L12.5952 108.247C13.3275 108.979 14.5147 108.979 15.2469 108.247C15.9791 107.515 15.9791 106.327 15.2469 105.595L13.4581 103.806H15.9879C17.0234 103.806 17.8629 102.967 17.8629 101.931C17.8629 100.896 17.0234 100.056 15.9879 100.056H13.4579L15.2467 98.2676C15.979 97.5353 15.979 96.3482 15.2467 95.6159C14.5145 94.8837 13.3273 94.8837 12.5951 95.6159L10.8063 97.4047V94.875Z" fill="url(#paint2_linear_206_1675)"/>
<path fill-rule="evenodd" clip-rule="evenodd" d="M78.8063 94.875C78.8063 93.8395 77.9668 93 76.9313 93C75.8957 93 75.0563 93.8395 75.0563 94.875V97.4046L73.2676 95.6159C72.5354 94.8837 71.3482 94.8837 70.6159 95.6159C69.8837 96.3482 69.8837 97.5353 70.6159 98.2676L72.4048 100.056H69.875C68.8395 100.056 68 100.896 68 101.931C68 102.967 68.8395 103.806 69.875 103.806H72.4046L70.6158 105.595C69.8836 106.327 69.8836 107.515 70.6158 108.247C71.348 108.979 72.5352 108.979 73.2674 108.247L75.0563 106.458V108.988C75.0563 110.023 75.8957 110.863 76.9313 110.863C77.9668 110.863 78.8063 110.023 78.8063 108.988V106.458L80.5952 108.247C81.3275 108.979 82.5147 108.979 83.2469 108.247C83.9791 107.515 83.9791 106.327 83.2469 105.595L81.4581 103.806H83.9879C85.0234 103.806 85.8629 102.967 85.8629 101.931C85.8629 100.896 85.0234 100.056 83.9879 100.056H81.4579L83.2467 98.2676C83.979 97.5353 83.979 96.3482 83.2467 95.6159C82.5145 94.8837 81.3273 94.8837 80.5951 95.6159L78.8063 97.4047V94.875Z" fill="url(#paint3_linear_206_1675)"/>
<path fill-rule="evenodd" clip-rule="evenodd" d="M92.8063 73.875C92.8063 72.8395 91.9668 72 90.9313 72C89.8957 72 89.0563 72.8395 89.0563 73.875V76.4046L87.2676 74.6159C86.5354 73.8837 85.3482 73.8837 84.6159 74.6159C83.8837 75.3482 83.8837 76.5353 84.6159 77.2676L86.4048 79.0564H83.875C82.8395 79.0564 82 79.8959 82 80.9314C82 81.9669 82.8395 82.8064 83.875 82.8064H86.4046L84.6158 84.5952C83.8836 85.3275 83.8836 86.5146 84.6158 87.2469C85.348 87.9791 86.5352 87.9791 87.2674 87.2469L89.0563 85.458V87.9879C89.0563 89.0234 89.8957 89.8629 90.9313 89.8629C91.9668 89.8629 92.8063 89.0234 92.8063 87.9879V85.4579L94.5952 87.2469C95.3275 87.9791 96.5147 87.9791 97.2469 87.2469C97.9791 86.5146 97.9791 85.3275 97.2469 84.5952L95.4581 82.8064H97.9879C99.0234 82.8064 99.8629 81.9669 99.8629 80.9314C99.8629 79.8959 99.0234 79.0564 97.9879 79.0564H95.4579L97.2467 77.2676C97.979 76.5353 97.979 75.3482 97.2467 74.6159C96.5145 73.8837 95.3273 73.8837 94.5951 74.6159L92.8063 76.4047V73.875Z" fill="url(#paint4_linear_206_1675)"/>
<path fill-rule="evenodd" clip-rule="evenodd" d="M34.8063 73.875C34.8063 72.8395 33.9668 72 32.9313 72C31.8957 72 31.0563 72.8395 31.0563 73.875V76.4046L29.2676 74.6159C28.5354 73.8837 27.3482 73.8837 26.6159 74.6159C25.8837 75.3482 25.8837 76.5353 26.6159 77.2676L28.4048 79.0564H25.875C24.8395 79.0564 24 79.8959 24 80.9314C24 81.9669 24.8395 82.8064 25.875 82.8064H28.4046L26.6158 84.5952C25.8836 85.3275 25.8836 86.5146 26.6158 87.2469C27.348 87.9791 28.5352 87.9791 29.2674 87.2469L31.0563 85.458V87.9879C31.0563 89.0234 31.8957 89.8629 32.9313 89.8629C33.9668 89.8629 34.8063 89.0234 34.8063 87.9879V85.4579L36.5952 87.2469C37.3275 87.9791 38.5147 87.9791 39.2469 87.2469C39.9791 86.5146 39.9791 85.3275 39.2469 84.5952L37.4581 82.8064H39.9879C41.0234 82.8064 41.8629 81.9669 41.8629 80.9314C41.8629 79.8959 41.0234 79.0564 39.9879 79.0564H37.4579L39.2467 77.2676C39.979 76.5353 39.979 75.3482 39.2467 74.6159C38.5145 73.8837 37.3273 73.8837 36.5951 74.6159L34.8063 76.4047V73.875Z" fill="url(#paint5_linear_206_1675)"/>
<path d="M47.8069 89.2814L60.9076 65.2315C60.9853 65.0888 61.1348 65 61.2973 65H78.2814C78.6114 65 78.826 65.3474 78.6782 65.6426L71.8724 79.2324C71.7246 79.5276 71.9391 79.875 72.2692 79.875H79L41.8784 112.356C41.5053 112.683 40.959 112.245 41.1967 111.81L52.7873 90.5941C52.9489 90.2983 52.7349 89.9375 52.3979 89.9375H48.1966C47.8598 89.9375 47.6458 89.5771 47.8069 89.2814Z" fill="url(#paint6_linear_206_1675)"/>
<g filter="url(#filter0_ddi_206_1675)">
<circle cx="56" cy="48" r="32" fill="url(#paint7_linear_206_1675)"/>
</g>
<g filter="url(#filter1_f_206_1675)">
<ellipse cx="85.1494" cy="41.4221" rx="11.8636" ry="3.57792" fill="#004E67" fill-opacity="0.7"/>
</g>
<g filter="url(#filter2_bi_206_1675)">
<path fill-rule="evenodd" clip-rule="evenodd" d="M94 27.2987C94 27.5956 93.9885 27.8898 93.9661 28.181C95.2033 27.1593 96.7898 26.5455 98.5196 26.5455C102.472 26.5455 105.675 29.7492 105.675 33.7013C105.675 37.5271 102.673 40.6516 98.8961 40.8474V40.8571H98.5345C98.5296 40.8571 98.5246 40.8572 98.5196 40.8572C98.5146 40.8572 98.5096 40.8571 98.5047 40.8571H72.1708C72.1658 40.8571 72.1608 40.8572 72.1559 40.8572C72.1509 40.8572 72.1459 40.8571 72.1409 40.8571H71.4026V40.818C67.8046 40.4416 65 37.399 65 33.7013C65 29.996 67.8162 26.9484 71.4249 26.5823C71.7945 20.676 76.7018 16 82.7013 16C88.9414 16 94 21.0586 94 27.2987Z" fill="url(#paint8_linear_206_1675)"/>
</g>
<g filter="url(#filter3_f_206_1675)">
<ellipse cx="16.2083" cy="4.88823" rx="16.2083" ry="4.88823" transform="matrix(-1 0 0 1 53.2514 78.8439)" fill="#004E67" fill-opacity="0.7"/>
</g>
<g filter="url(#filter4_bi_206_1675)">
<path fill-rule="evenodd" clip-rule="evenodd" d="M24.951 64.4365C24.951 64.8421 24.9666 65.244 24.9973 65.6417C23.3071 64.2459 21.1397 63.4074 18.7764 63.4074C13.377 63.4074 8.99997 67.7845 8.99997 73.1839C8.99997 78.4106 13.1016 82.6794 18.2618 82.947V82.9603H18.7641C18.7682 82.9603 18.7723 82.9603 18.7764 82.9603C18.7805 82.9603 18.7847 82.9603 18.7888 82.9603H54.7826C54.7867 82.9603 54.7909 82.9603 54.795 82.9603C54.7991 82.9603 54.8032 82.9603 54.8073 82.9603H55.824V82.9068C60.7397 82.3926 64.5714 78.2357 64.5714 73.1839C64.5714 68.1216 60.7238 63.9579 55.7935 63.4578C55.2886 55.3884 48.5841 49 40.3875 49C31.8621 49 24.951 55.9112 24.951 64.4365Z" fill="url(#paint9_linear_206_1675)"/>
</g>
<defs>
<filter id="filter0_ddi_206_1675" x="8.00002" y="0" width="96" height="96" filterUnits="userSpaceOnUse" color-interpolation-filters="sRGB">
<feFlood flood-opacity="0" result="BackgroundImageFix"/>
<feColorMatrix in="SourceAlpha" type="matrix" values="0 0 0 0 0 0 0 0 0 0 0 0 0 0 0 0 0 0 127 0" result="hardAlpha"/>
<feOffset/>
<feGaussianBlur stdDeviation="8"/>
<feComposite in2="hardAlpha" operator="out"/>
<feColorMatrix type="matrix" values="0 0 0 0 0.992157 0 0 0 0 0.773882 0 0 0 0 0 0 0 0 1 0"/>
<feBlend mode="normal" in2="BackgroundImageFix" result="effect1_dropShadow_206_1675"/>
<feColorMatrix in="SourceAlpha" type="matrix" values="0 0 0 0 0 0 0 0 0 0 0 0 0 0 0 0 0 0 127 0" result="hardAlpha"/>
<feOffset/>
<feGaussianBlur stdDeviation="5.5"/>
<feComposite in2="hardAlpha" operator="out"/>
<feColorMatrix type="matrix" values="0 0 0 0 0.992157 0 0 0 0 0.772549 0 0 0 0 0 0 0 0 0.45 0"/>
<feBlend mode="normal" in2="effect1_dropShadow_206_1675" result="effect2_dropShadow_206_1675"/>
<feBlend mode="normal" in="SourceGraphic" in2="effect2_dropShadow_206_1675" result="shape"/>
<feColorMatrix in="SourceAlpha" type="matrix" values="0 0 0 0 0 0 0 0 0 0 0 0 0 0 0 0 0 0 127 0" result="hardAlpha"/>
<feOffset dx="-1" dy="3"/>
<feGaussianBlur stdDeviation="2.5"/>
<feComposite in2="hardAlpha" operator="arithmetic" k2="-1" k3="1"/>
<feColorMatrix type="matrix" values="0 0 0 0 1 0 0 0 0 0.9 0 0 0 0 0 0 0 0 0.35 0"/>
<feBlend mode="normal" in2="shape" result="effect3_innerShadow_206_1675"/>
</filter>
<filter id="filter1_f_206_1675" x="65" y="29.5584" width="40.2987" height="23.7273" filterUnits="userSpaceOnUse" color-interpolation-filters="sRGB">
<feFlood flood-opacity="0" result="BackgroundImageFix"/>
<feBlend mode="normal" in="SourceGraphic" in2="BackgroundImageFix" result="shape"/>
<feGaussianBlur stdDeviation="4.14286" result="effect1_foregroundBlur_206_1675"/>
</filter>
<filter id="filter2_bi_206_1675" x="62.3637" y="13.3636" width="45.9482" height="30.1299" filterUnits="userSpaceOnUse" color-interpolation-filters="sRGB">
<feFlood flood-opacity="0" result="BackgroundImageFix"/>
<feGaussianBlur in="BackgroundImageFix" stdDeviation="1.31818"/>
<feComposite in2="SourceAlpha" operator="in" result="effect1_backgroundBlur_206_1675"/>
<feBlend mode="normal" in="SourceGraphic" in2="effect1_backgroundBlur_206_1675" result="shape"/>
<feColorMatrix in="SourceAlpha" type="matrix" values="0 0 0 0 0 0 0 0 0 0 0 0 0 0 0 0 0 0 127 0" result="hardAlpha"/>
<feOffset dy="0.753247"/>
<feGaussianBlur stdDeviation="1.50649"/>
<feComposite in2="hardAlpha" operator="arithmetic" k2="-1" k3="1"/>
<feColorMatrix type="matrix" values="0 0 0 0 0 0 0 0 0 0.82 0 0 0 0 1 0 0 0 0.25 0"/>
<feBlend mode="normal" in2="shape" result="effect2_innerShadow_206_1675"/>
</filter>
<filter id="filter3_f_206_1675" x="9.5146" y="67.5238" width="55.0569" height="32.4167" filterUnits="userSpaceOnUse" color-interpolation-filters="sRGB">
<feFlood flood-opacity="0" result="BackgroundImageFix"/>
<feBlend mode="normal" in="SourceGraphic" in2="BackgroundImageFix" result="shape"/>
<feGaussianBlur stdDeviation="5.66005" result="effect1_foregroundBlur_206_1675"/>
</filter>
<filter id="filter4_bi_206_1675" x="5.39812" y="45.3981" width="62.7752" height="41.164" filterUnits="userSpaceOnUse" color-interpolation-filters="sRGB">
<feFlood flood-opacity="0" result="BackgroundImageFix"/>
<feGaussianBlur in="BackgroundImageFix" stdDeviation="1.80093"/>
<feComposite in2="SourceAlpha" operator="in" result="effect1_backgroundBlur_206_1675"/>
<feBlend mode="normal" in="SourceGraphic" in2="effect1_backgroundBlur_206_1675" result="shape"/>
<feColorMatrix in="SourceAlpha" type="matrix" values="0 0 0 0 0 0 0 0 0 0 0 0 0 0 0 0 0 0 127 0" result="hardAlpha"/>
<feOffset dy="1.0291"/>
<feGaussianBlur stdDeviation="2.0582"/>
<feComposite in2="hardAlpha" operator="arithmetic" k2="-1" k3="1"/>
<feColorMatrix type="matrix" values="0 0 0 0 0 0 0 0 0 0.82 0 0 0 0 1 0 0 0 0.25 0"/>
<feBlend mode="normal" in2="shape" result="effect2_innerShadow_206_1675"/>
</filter>
<linearGradient id="paint0_linear_206_1675" x1="24.55" y1="107.248" x2="41.5153" y2="92.9284" gradientUnits="userSpaceOnUse">
<stop stop-color="#0056D6"/>
<stop offset="1" stop-color="#ADD8FF"/>
</linearGradient>
<linearGradient id="paint1_linear_206_1675" x1="92.55" y1="107.248" x2="109.515" y2="92.9284" gradientUnits="userSpaceOnUse">
<stop stop-color="#0056D6"/>
<stop offset="1" stop-color="#ADD8FF"/>
</linearGradient>
<linearGradient id="paint2_linear_206_1675" x1="2.54998" y1="107.248" x2="19.5153" y2="92.9284" gradientUnits="userSpaceOnUse">
<stop stop-color="#0056D6"/>
<stop offset="1" stop-color="#ADD8FF"/>
</linearGradient>
<linearGradient id="paint3_linear_206_1675" x1="70.55" y1="107.248" x2="87.5153" y2="92.9284" gradientUnits="userSpaceOnUse">
<stop stop-color="#0056D6"/>
<stop offset="1" stop-color="#ADD8FF"/>
</linearGradient>
<linearGradient id="paint4_linear_206_1675" x1="84.55" y1="86.2478" x2="101.515" y2="71.9284" gradientUnits="userSpaceOnUse">
<stop stop-color="#0056D6"/>
<stop offset="1" stop-color="#ADD8FF"/>
</linearGradient>
<linearGradient id="paint5_linear_206_1675" x1="26.55" y1="86.2478" x2="43.5153" y2="71.9284" gradientUnits="userSpaceOnUse">
<stop stop-color="#0056D6"/>
<stop offset="1" stop-color="#ADD8FF"/>
</linearGradient>
<linearGradient id="paint6_linear_206_1675" x1="59.5" y1="65" x2="59.5" y2="114" gradientUnits="userSpaceOnUse">
<stop stop-color="#F8FD00"/>
<stop offset="1" stop-color="#FD9800"/>
</linearGradient>
<linearGradient id="paint7_linear_206_1675" x1="56" y1="16" x2="56" y2="80" gradientUnits="userSpaceOnUse">
<stop stop-color="#FDC500"/>
<stop offset="1" stop-color="#FD8900"/>
</linearGradient>
<linearGradient id="paint8_linear_206_1675" x1="86.0909" y1="49.7078" x2="101.344" y2="16" gradientUnits="userSpaceOnUse">
<stop stop-color="#2BA6FF"/>
<stop offset="0.299998" stop-color="#48B2FF" stop-opacity="0.75"/>
<stop offset="1" stop-color="#3BADFF" stop-opacity="0"/>
</linearGradient>
<linearGradient id="paint9_linear_206_1675" x1="35.7566" y1="95.0522" x2="24.9999" y2="35.5" gradientUnits="userSpaceOnUse">
<stop offset="0.13121" stop-color="#2BA6FF"/>
<stop offset="1" stop-color="#3BADFF" stop-opacity="0"/>
</linearGradient>
</defs>
</svg>
