<svg width="98" height="119" viewBox="0 0 98 119" fill="none" xmlns="http://www.w3.org/2000/svg">
<path fill-rule="evenodd" clip-rule="evenodd" d="M28.8166 71.8158C28.8166 70.2607 27.556 69 26.0008 69C24.4457 69 23.185 70.2607 23.185 71.8158V75.2029L20.79 72.8079C19.6903 71.7082 17.9074 71.7082 16.8078 72.8079C15.7082 73.9075 15.7082 75.6904 16.8078 76.79L19.203 79.1852H15.8158C14.2607 79.1852 13 80.4459 13 82.001C13 83.5561 14.2607 84.8168 15.8158 84.8168H19.2028L16.8077 87.2119C15.7081 88.3116 15.7081 90.0944 16.8077 91.1941C17.9074 92.2937 19.6902 92.2937 20.7899 91.1941L23.185 88.7989V92.1862C23.185 93.7413 24.4457 95.002 26.0008 95.002C27.556 95.002 28.8166 93.7413 28.8166 92.1862V88.7989L31.2118 91.1941C32.3115 92.2937 34.0944 92.2937 35.194 91.1941C36.2936 90.0944 36.2936 88.3116 35.194 87.2119L32.7989 84.8168H36.1862C37.7413 84.8168 39.002 83.5561 39.002 82.001C39.002 80.4459 37.7413 79.1852 36.1862 79.1852H32.7988L35.1939 76.79C36.2936 75.6904 36.2936 73.9075 35.1939 72.8079C34.0943 71.7082 32.3114 71.7082 31.2118 72.8079L28.8166 75.203V71.8158Z" fill="url(#paint0_linear_206_1481)"/>
<path fill-rule="evenodd" clip-rule="evenodd" d="M63.2649 66.2391C63.2649 64.4502 61.8147 63 60.0258 63C58.2369 63 56.7868 64.4502 56.7868 66.2391V70.1789L54.0009 67.3931C52.736 66.1281 50.6851 66.1281 49.4202 67.3931C48.1553 68.658 48.1553 70.7089 49.4202 71.9738L52.2063 74.7599H48.2662C46.4773 74.7599 45.0271 76.2101 45.0271 77.999C45.0271 79.7879 46.4773 81.238 48.2662 81.238H52.206L49.4199 84.0241C48.155 85.2891 48.155 87.3399 49.4199 88.6049C50.6849 89.8698 52.7357 89.8698 54.0006 88.6049L56.7868 85.8187V89.7589C56.7868 91.5478 58.2369 92.998 60.0258 92.998C61.8147 92.998 63.2649 91.5478 63.2649 89.7589V85.8185L66.0513 88.6049C67.3162 89.8698 69.3671 89.8698 70.632 88.6049C71.8969 87.3399 71.8969 85.2891 70.632 84.0241L67.8459 81.238H71.786C73.5749 81.238 75.0251 79.7879 75.0251 77.999C75.0251 76.2101 73.5749 74.7599 71.786 74.7599H67.8456L70.6317 71.9738C71.8966 70.7089 71.8966 68.658 70.6317 67.3931C69.3668 66.1281 67.3159 66.1281 66.051 67.3931L63.2649 70.1791V66.2391Z" fill="url(#paint1_linear_206_1481)"/>
<path fill-rule="evenodd" clip-rule="evenodd" d="M50.3741 99.3753C50.3741 98.0634 49.3106 97 47.9988 97C46.687 97 45.6235 98.0634 45.6235 99.3753V102.264L43.5806 100.221C42.653 99.2939 41.1491 99.2939 40.2215 100.221C39.2939 101.149 39.2939 102.653 40.2215 103.581L42.2646 105.624H39.3753C38.0634 105.624 37 106.687 37 107.999C37 109.311 38.0634 110.374 39.3752 110.374H42.2644L40.2213 112.417C39.2937 113.345 39.2937 114.849 40.2213 115.776C41.1489 116.704 42.6528 116.704 43.5804 115.776L45.6235 113.733V116.623C45.6235 117.935 46.687 118.998 47.9988 118.998C49.3106 118.998 50.3741 117.935 50.3741 116.623V113.733L52.4173 115.776C53.3449 116.704 54.8489 116.704 55.7765 115.776C56.7041 114.849 56.7041 113.345 55.7765 112.417L53.7334 110.374H56.6227C57.9346 110.374 58.998 109.311 58.998 107.999C58.998 106.687 57.9346 105.624 56.6227 105.624H53.7332L55.7763 103.581C56.7039 102.653 56.7039 101.149 55.7763 100.221C54.8487 99.2939 53.3447 99.2939 52.4171 100.221L50.3741 102.265V99.3753Z" fill="url(#paint2_linear_206_1481)"/>
<g filter="url(#filter0_ddi_206_1481)">
<circle cx="48" cy="48" r="32" fill="url(#paint3_linear_206_1481)"/>
</g>
<g filter="url(#filter1_f_206_1481)">
<ellipse cx="77.1493" cy="41.4221" rx="11.8636" ry="3.57792" fill="#004E67" fill-opacity="0.7"/>
</g>
<g filter="url(#filter2_bi_206_1481)">
<path fill-rule="evenodd" clip-rule="evenodd" d="M86 27.2987C86 27.5956 85.9885 27.8898 85.966 28.181C87.2033 27.1593 88.7897 26.5455 90.5196 26.5455C94.4717 26.5455 97.6754 29.7492 97.6754 33.7013C97.6754 37.5271 94.6731 40.6516 90.8961 40.8474V40.8571H90.5345C90.5296 40.8571 90.5246 40.8572 90.5196 40.8572C90.5146 40.8572 90.5096 40.8571 90.5047 40.8571H64.1708C64.1658 40.8571 64.1608 40.8572 64.1558 40.8572C64.1509 40.8572 64.1459 40.8571 64.1409 40.8571H63.4026V40.818C59.8046 40.4416 57 37.399 57 33.7013C57 29.996 59.8162 26.9484 63.4249 26.5823C63.7945 20.676 68.7018 16 74.7013 16C80.9414 16 86 21.0586 86 27.2987Z" fill="url(#paint4_linear_206_1481)"/>
</g>
<g filter="url(#filter3_f_206_1481)">
<ellipse cx="16.2083" cy="4.88823" rx="16.2083" ry="4.88823" transform="matrix(-1 0 0 1 45.2514 78.8439)" fill="#004E67" fill-opacity="0.7"/>
</g>
<g filter="url(#filter4_bi_206_1481)">
<path fill-rule="evenodd" clip-rule="evenodd" d="M16.951 64.4365C16.951 64.8421 16.9666 65.244 16.9973 65.6417C15.3071 64.2459 13.1397 63.4074 10.7764 63.4074C5.37702 63.4074 0.999954 67.7845 0.999954 73.1839C0.999954 78.4106 5.10163 82.6794 10.2618 82.947V82.9603H10.7641C10.7682 82.9603 10.7723 82.9603 10.7764 82.9603C10.7805 82.9603 10.7846 82.9603 10.7888 82.9603H46.7826C46.7867 82.9603 46.7908 82.9603 46.795 82.9603C46.7991 82.9603 46.8032 82.9603 46.8073 82.9603H47.824V82.9068C52.7397 82.3926 56.5714 78.2357 56.5714 73.1839C56.5714 68.1216 52.7238 63.9579 47.7935 63.4578C47.2886 55.3884 40.5841 49 32.3875 49C23.8621 49 16.951 55.9112 16.951 64.4365Z" fill="url(#paint5_linear_206_1481)"/>
</g>
<path fill-rule="evenodd" clip-rule="evenodd" d="M39.0021 82H13.0001C13.0007 80.4453 14.2611 79.1852 15.8159 79.1852H19.2031L16.8079 76.79C15.7083 75.6904 15.7083 73.9075 16.8079 72.8079C17.9076 71.7082 19.6904 71.7082 20.7901 72.8079L23.1851 75.2029V71.8158C23.1851 70.2607 24.4458 69 26.0009 69C27.5561 69 28.8168 70.2607 28.8168 71.8158V75.203L31.2119 72.8079C32.3115 71.7082 34.0944 71.7082 35.194 72.8079C36.2937 73.9075 36.2937 75.6904 35.194 76.79L32.7989 79.1852H36.1863C37.7411 79.1852 39.0016 80.4453 39.0021 82Z" fill="#A9DDFA"/>
<defs>
<filter id="filter0_ddi_206_1481" x="0" y="0" width="96" height="96" filterUnits="userSpaceOnUse" color-interpolation-filters="sRGB">
<feFlood flood-opacity="0" result="BackgroundImageFix"/>
<feColorMatrix in="SourceAlpha" type="matrix" values="0 0 0 0 0 0 0 0 0 0 0 0 0 0 0 0 0 0 127 0" result="hardAlpha"/>
<feOffset/>
<feGaussianBlur stdDeviation="8"/>
<feComposite in2="hardAlpha" operator="out"/>
<feColorMatrix type="matrix" values="0 0 0 0 0.992157 0 0 0 0 0.773882 0 0 0 0 0 0 0 0 1 0"/>
<feBlend mode="normal" in2="BackgroundImageFix" result="effect1_dropShadow_206_1481"/>
<feColorMatrix in="SourceAlpha" type="matrix" values="0 0 0 0 0 0 0 0 0 0 0 0 0 0 0 0 0 0 127 0" result="hardAlpha"/>
<feOffset/>
<feGaussianBlur stdDeviation="5.5"/>
<feComposite in2="hardAlpha" operator="out"/>
<feColorMatrix type="matrix" values="0 0 0 0 0.992157 0 0 0 0 0.772549 0 0 0 0 0 0 0 0 0.45 0"/>
<feBlend mode="normal" in2="effect1_dropShadow_206_1481" result="effect2_dropShadow_206_1481"/>
<feBlend mode="normal" in="SourceGraphic" in2="effect2_dropShadow_206_1481" result="shape"/>
<feColorMatrix in="SourceAlpha" type="matrix" values="0 0 0 0 0 0 0 0 0 0 0 0 0 0 0 0 0 0 127 0" result="hardAlpha"/>
<feOffset dx="-1" dy="3"/>
<feGaussianBlur stdDeviation="2.5"/>
<feComposite in2="hardAlpha" operator="arithmetic" k2="-1" k3="1"/>
<feColorMatrix type="matrix" values="0 0 0 0 1 0 0 0 0 0.9 0 0 0 0 0 0 0 0 0.35 0"/>
<feBlend mode="normal" in2="shape" result="effect3_innerShadow_206_1481"/>
</filter>
<filter id="filter1_f_206_1481" x="57" y="29.5584" width="40.2987" height="23.7273" filterUnits="userSpaceOnUse" color-interpolation-filters="sRGB">
<feFlood flood-opacity="0" result="BackgroundImageFix"/>
<feBlend mode="normal" in="SourceGraphic" in2="BackgroundImageFix" result="shape"/>
<feGaussianBlur stdDeviation="4.14286" result="effect1_foregroundBlur_206_1481"/>
</filter>
<filter id="filter2_bi_206_1481" x="54.3636" y="13.3636" width="45.9482" height="30.1299" filterUnits="userSpaceOnUse" color-interpolation-filters="sRGB">
<feFlood flood-opacity="0" result="BackgroundImageFix"/>
<feGaussianBlur in="BackgroundImageFix" stdDeviation="1.31818"/>
<feComposite in2="SourceAlpha" operator="in" result="effect1_backgroundBlur_206_1481"/>
<feBlend mode="normal" in="SourceGraphic" in2="effect1_backgroundBlur_206_1481" result="shape"/>
<feColorMatrix in="SourceAlpha" type="matrix" values="0 0 0 0 0 0 0 0 0 0 0 0 0 0 0 0 0 0 127 0" result="hardAlpha"/>
<feOffset dy="0.753247"/>
<feGaussianBlur stdDeviation="1.50649"/>
<feComposite in2="hardAlpha" operator="arithmetic" k2="-1" k3="1"/>
<feColorMatrix type="matrix" values="0 0 0 0 0 0 0 0 0 0.82 0 0 0 0 1 0 0 0 0.25 0"/>
<feBlend mode="normal" in2="shape" result="effect2_innerShadow_206_1481"/>
</filter>
<filter id="filter3_f_206_1481" x="1.51461" y="67.5238" width="55.0569" height="32.4167" filterUnits="userSpaceOnUse" color-interpolation-filters="sRGB">
<feFlood flood-opacity="0" result="BackgroundImageFix"/>
<feBlend mode="normal" in="SourceGraphic" in2="BackgroundImageFix" result="shape"/>
<feGaussianBlur stdDeviation="5.66005" result="effect1_foregroundBlur_206_1481"/>
</filter>
<filter id="filter4_bi_206_1481" x="-2.60191" y="45.3981" width="62.7752" height="41.164" filterUnits="userSpaceOnUse" color-interpolation-filters="sRGB">
<feFlood flood-opacity="0" result="BackgroundImageFix"/>
<feGaussianBlur in="BackgroundImageFix" stdDeviation="1.80093"/>
<feComposite in2="SourceAlpha" operator="in" result="effect1_backgroundBlur_206_1481"/>
<feBlend mode="normal" in="SourceGraphic" in2="effect1_backgroundBlur_206_1481" result="shape"/>
<feColorMatrix in="SourceAlpha" type="matrix" values="0 0 0 0 0 0 0 0 0 0 0 0 0 0 0 0 0 0 127 0" result="hardAlpha"/>
<feOffset dy="1.0291"/>
<feGaussianBlur stdDeviation="2.0582"/>
<feComposite in2="hardAlpha" operator="arithmetic" k2="-1" k3="1"/>
<feColorMatrix type="matrix" values="0 0 0 0 0 0 0 0 0 0.82 0 0 0 0 1 0 0 0 0.25 0"/>
<feBlend mode="normal" in2="shape" result="effect2_innerShadow_206_1481"/>
</filter>
<linearGradient id="paint0_linear_206_1481" x1="16.7119" y1="89.7397" x2="41.4073" y2="68.8958" gradientUnits="userSpaceOnUse">
<stop stop-color="#0056D6"/>
<stop offset="1" stop-color="#ADD8FF"/>
</linearGradient>
<linearGradient id="paint1_linear_206_1481" x1="49.3094" y1="86.927" x2="77.8" y2="62.8798" gradientUnits="userSpaceOnUse">
<stop stop-color="#0056D6"/>
<stop offset="1" stop-color="#ADD8FF"/>
</linearGradient>
<linearGradient id="paint2_linear_206_1481" x1="40.1403" y1="114.546" x2="61.0329" y2="96.9119" gradientUnits="userSpaceOnUse">
<stop stop-color="#0056D6"/>
<stop offset="1" stop-color="#ADD8FF"/>
</linearGradient>
<linearGradient id="paint3_linear_206_1481" x1="48" y1="16" x2="48" y2="80" gradientUnits="userSpaceOnUse">
<stop stop-color="#FDC500"/>
<stop offset="1" stop-color="#FD8900"/>
</linearGradient>
<linearGradient id="paint4_linear_206_1481" x1="78.0909" y1="49.7078" x2="93.3442" y2="16" gradientUnits="userSpaceOnUse">
<stop stop-color="#2BA6FF"/>
<stop offset="0.299998" stop-color="#48B2FF" stop-opacity="0.75"/>
<stop offset="1" stop-color="#3BADFF" stop-opacity="0"/>
</linearGradient>
<linearGradient id="paint5_linear_206_1481" x1="27.7566" y1="95.0522" x2="16.9999" y2="35.5" gradientUnits="userSpaceOnUse">
<stop offset="0.13121" stop-color="#2BA6FF"/>
<stop offset="1" stop-color="#3BADFF" stop-opacity="0"/>
</linearGradient>
</defs>
</svg>
