<svg width="98" height="113" viewBox="0 0 98 113" fill="none" xmlns="http://www.w3.org/2000/svg">
<path d="M36.7772 103.955C36.2898 103.972 35.8084 103.84 35.3937 103.575C35.0949 103.405 34.8328 103.174 34.623 102.897C34.4132 102.619 34.2601 102.302 34.1728 101.962C34.0856 101.623 34.066 101.27 34.1152 100.923C34.1644 100.576 34.2815 100.243 34.4593 99.9434L53.5319 66.4138C53.6979 66.1075 53.9225 65.8389 54.1923 65.624C54.462 65.4092 54.7714 65.2526 55.1018 65.1636C55.4323 65.0745 55.7769 65.055 56.1151 65.106C56.4533 65.1571 56.778 65.2777 57.0698 65.4607C57.6592 65.8194 58.0877 66.4016 58.2625 67.0813C58.4374 67.761 58.3446 68.4836 58.0042 69.0927L38.9315 102.622C38.7168 103.018 38.4052 103.349 38.0273 103.583C37.6495 103.817 37.2186 103.945 36.7772 103.955Z" fill="url(#paint0_linear_206_924)"/>
<path d="M64.4836 102.183C63.9961 102.199 63.5147 102.067 63.1 101.803C62.8012 101.632 62.5391 101.401 62.3293 101.124C62.1195 100.847 61.9665 100.529 61.8792 100.19C61.7919 99.8506 61.7723 99.4969 61.8215 99.1499C61.8708 98.803 61.9878 98.4699 62.1657 98.1708L75.6372 74.3866C75.9858 73.7823 76.5525 73.3435 77.2146 73.1652C77.8767 72.9868 78.5809 73.0832 79.1751 73.4335C79.7645 73.7922 80.193 74.3743 80.3679 75.054C80.5427 75.7338 80.4499 76.4563 80.1095 77.0655L66.6379 100.85C66.4181 101.241 66.1052 101.568 65.7285 101.801C65.3518 102.034 64.9234 102.166 64.4836 102.183Z" fill="url(#paint1_linear_206_924)"/>
<path d="M45.4836 112.183C44.9961 112.199 44.5147 112.067 44.1 111.803C43.8012 111.632 43.5391 111.401 43.3293 111.124C43.1195 110.847 42.9665 110.529 42.8792 110.19C42.7919 109.851 42.7723 109.497 42.8215 109.15C42.8708 108.803 42.9878 108.47 43.1657 108.171L56.6372 84.3866C56.9858 83.7823 57.5525 83.3435 58.2146 83.1652C58.8767 82.9868 59.5809 83.0832 60.1751 83.4335C60.7645 83.7922 61.193 84.3743 61.3679 85.054C61.5427 85.7338 61.4499 86.4563 61.1095 87.0655L47.6379 110.85C47.4181 111.241 47.1052 111.568 46.7285 111.801C46.3518 112.034 45.9234 112.166 45.4836 112.183Z" fill="url(#paint2_linear_206_924)"/>
<g filter="url(#filter0_ddi_206_924)">
<circle cx="48" cy="48" r="32" fill="url(#paint3_linear_206_924)"/>
</g>
<path d="M10.9022 94.6633L20.5139 77.2295C20.592 77.0879 20.7409 77 20.9026 77H33.2775C33.6085 77 33.823 77.3492 33.6733 77.6445L28.7873 87.2841C28.6377 87.5793 28.8522 87.9286 29.1832 87.9286H34L6.8834 111.372C6.50848 111.696 5.96492 111.255 6.20474 110.821L14.4111 95.98C14.5747 95.6842 14.3607 95.3214 14.0227 95.3214H11.2908C10.953 95.3214 10.7391 94.9591 10.9022 94.6633Z" fill="url(#paint4_linear_206_924)"/>
<g filter="url(#filter1_f_206_924)">
<ellipse cx="77.1493" cy="41.4221" rx="11.8636" ry="3.57792" fill="#004E67" fill-opacity="0.7"/>
</g>
<g filter="url(#filter2_bi_206_924)">
<path fill-rule="evenodd" clip-rule="evenodd" d="M86 27.2987C86 27.5956 85.9885 27.8898 85.966 28.181C87.2033 27.1593 88.7897 26.5455 90.5196 26.5455C94.4717 26.5455 97.6754 29.7492 97.6754 33.7013C97.6754 37.5271 94.6731 40.6516 90.8961 40.8474V40.8571H90.5345C90.5296 40.8571 90.5246 40.8572 90.5196 40.8572C90.5146 40.8572 90.5096 40.8571 90.5047 40.8571H64.1708C64.1658 40.8571 64.1608 40.8572 64.1558 40.8572C64.1509 40.8572 64.1459 40.8571 64.1409 40.8571H63.4026V40.818C59.8046 40.4416 57 37.399 57 33.7013C57 29.996 59.8162 26.9484 63.4249 26.5823C63.7945 20.676 68.7018 16 74.7013 16C80.9414 16 86 21.0586 86 27.2987Z" fill="url(#paint5_linear_206_924)"/>
</g>
<g filter="url(#filter3_f_206_924)">
<ellipse cx="16.2083" cy="4.88823" rx="16.2083" ry="4.88823" transform="matrix(-1 0 0 1 45.2514 78.8439)" fill="#004E67" fill-opacity="0.7"/>
</g>
<g filter="url(#filter4_bi_206_924)">
<path fill-rule="evenodd" clip-rule="evenodd" d="M16.951 64.4365C16.951 64.8421 16.9666 65.244 16.9973 65.6417C15.3071 64.2459 13.1397 63.4074 10.7764 63.4074C5.37702 63.4074 0.999954 67.7845 0.999954 73.1839C0.999954 78.4106 5.10163 82.6794 10.2618 82.947V82.9603H10.7641C10.7682 82.9603 10.7723 82.9603 10.7764 82.9603C10.7805 82.9603 10.7846 82.9603 10.7888 82.9603H46.7826C46.7867 82.9603 46.7908 82.9603 46.795 82.9603C46.7991 82.9603 46.8032 82.9603 46.8073 82.9603H47.824V82.9068C52.7397 82.3926 56.5714 78.2357 56.5714 73.1839C56.5714 68.1216 52.7238 63.9579 47.7935 63.4578C47.2886 55.3884 40.5841 49 32.3875 49C23.8621 49 16.951 55.9112 16.951 64.4365Z" fill="url(#paint6_linear_206_924)"/>
</g>
<defs>
<filter id="filter0_ddi_206_924" x="0" y="0" width="96" height="96" filterUnits="userSpaceOnUse" color-interpolation-filters="sRGB">
<feFlood flood-opacity="0" result="BackgroundImageFix"/>
<feColorMatrix in="SourceAlpha" type="matrix" values="0 0 0 0 0 0 0 0 0 0 0 0 0 0 0 0 0 0 127 0" result="hardAlpha"/>
<feOffset/>
<feGaussianBlur stdDeviation="8"/>
<feComposite in2="hardAlpha" operator="out"/>
<feColorMatrix type="matrix" values="0 0 0 0 0.992157 0 0 0 0 0.773882 0 0 0 0 0 0 0 0 1 0"/>
<feBlend mode="normal" in2="BackgroundImageFix" result="effect1_dropShadow_206_924"/>
<feColorMatrix in="SourceAlpha" type="matrix" values="0 0 0 0 0 0 0 0 0 0 0 0 0 0 0 0 0 0 127 0" result="hardAlpha"/>
<feOffset/>
<feGaussianBlur stdDeviation="5.5"/>
<feComposite in2="hardAlpha" operator="out"/>
<feColorMatrix type="matrix" values="0 0 0 0 0.992157 0 0 0 0 0.772549 0 0 0 0 0 0 0 0 0.45 0"/>
<feBlend mode="normal" in2="effect1_dropShadow_206_924" result="effect2_dropShadow_206_924"/>
<feBlend mode="normal" in="SourceGraphic" in2="effect2_dropShadow_206_924" result="shape"/>
<feColorMatrix in="SourceAlpha" type="matrix" values="0 0 0 0 0 0 0 0 0 0 0 0 0 0 0 0 0 0 127 0" result="hardAlpha"/>
<feOffset dx="-1" dy="3"/>
<feGaussianBlur stdDeviation="2.5"/>
<feComposite in2="hardAlpha" operator="arithmetic" k2="-1" k3="1"/>
<feColorMatrix type="matrix" values="0 0 0 0 1 0 0 0 0 0.9 0 0 0 0 0 0 0 0 0.35 0"/>
<feBlend mode="normal" in2="shape" result="effect3_innerShadow_206_924"/>
</filter>
<filter id="filter1_f_206_924" x="57" y="29.5584" width="40.2987" height="23.7273" filterUnits="userSpaceOnUse" color-interpolation-filters="sRGB">
<feFlood flood-opacity="0" result="BackgroundImageFix"/>
<feBlend mode="normal" in="SourceGraphic" in2="BackgroundImageFix" result="shape"/>
<feGaussianBlur stdDeviation="4.14286" result="effect1_foregroundBlur_206_924"/>
</filter>
<filter id="filter2_bi_206_924" x="54.3636" y="13.3636" width="45.9481" height="30.1299" filterUnits="userSpaceOnUse" color-interpolation-filters="sRGB">
<feFlood flood-opacity="0" result="BackgroundImageFix"/>
<feGaussianBlur in="BackgroundImageFix" stdDeviation="1.31818"/>
<feComposite in2="SourceAlpha" operator="in" result="effect1_backgroundBlur_206_924"/>
<feBlend mode="normal" in="SourceGraphic" in2="effect1_backgroundBlur_206_924" result="shape"/>
<feColorMatrix in="SourceAlpha" type="matrix" values="0 0 0 0 0 0 0 0 0 0 0 0 0 0 0 0 0 0 127 0" result="hardAlpha"/>
<feOffset dy="0.753247"/>
<feGaussianBlur stdDeviation="1.50649"/>
<feComposite in2="hardAlpha" operator="arithmetic" k2="-1" k3="1"/>
<feColorMatrix type="matrix" values="0 0 0 0 0 0 0 0 0 0.82 0 0 0 0 1 0 0 0 0.25 0"/>
<feBlend mode="normal" in2="shape" result="effect2_innerShadow_206_924"/>
</filter>
<filter id="filter3_f_206_924" x="1.51461" y="67.5238" width="55.0569" height="32.4167" filterUnits="userSpaceOnUse" color-interpolation-filters="sRGB">
<feFlood flood-opacity="0" result="BackgroundImageFix"/>
<feBlend mode="normal" in="SourceGraphic" in2="BackgroundImageFix" result="shape"/>
<feGaussianBlur stdDeviation="5.66005" result="effect1_foregroundBlur_206_924"/>
</filter>
<filter id="filter4_bi_206_924" x="-2.60191" y="45.3981" width="62.7752" height="41.164" filterUnits="userSpaceOnUse" color-interpolation-filters="sRGB">
<feFlood flood-opacity="0" result="BackgroundImageFix"/>
<feGaussianBlur in="BackgroundImageFix" stdDeviation="1.80093"/>
<feComposite in2="SourceAlpha" operator="in" result="effect1_backgroundBlur_206_924"/>
<feBlend mode="normal" in="SourceGraphic" in2="effect1_backgroundBlur_206_924" result="shape"/>
<feColorMatrix in="SourceAlpha" type="matrix" values="0 0 0 0 0 0 0 0 0 0 0 0 0 0 0 0 0 0 127 0" result="hardAlpha"/>
<feOffset dy="1.0291"/>
<feGaussianBlur stdDeviation="2.0582"/>
<feComposite in2="hardAlpha" operator="arithmetic" k2="-1" k3="1"/>
<feColorMatrix type="matrix" values="0 0 0 0 0 0 0 0 0 0.82 0 0 0 0 1 0 0 0 0.25 0"/>
<feBlend mode="normal" in2="shape" result="effect2_innerShadow_206_924"/>
</filter>
<linearGradient id="paint0_linear_206_924" x1="53.5493" y1="52.1793" x2="25.6064" y2="94.1028" gradientUnits="userSpaceOnUse">
<stop stop-color="#D7F0FF"/>
<stop offset="1" stop-color="#0072DC"/>
</linearGradient>
<linearGradient id="paint1_linear_206_924" x1="76.7626" y1="63.3958" x2="56.0087" y2="95.2754" gradientUnits="userSpaceOnUse">
<stop stop-color="#D7F0FF"/>
<stop offset="1" stop-color="#0072DC"/>
</linearGradient>
<linearGradient id="paint2_linear_206_924" x1="57.7626" y1="73.3958" x2="37.0087" y2="105.275" gradientUnits="userSpaceOnUse">
<stop stop-color="#D7F0FF"/>
<stop offset="1" stop-color="#0072DC"/>
</linearGradient>
<linearGradient id="paint3_linear_206_924" x1="48" y1="16" x2="48" y2="80" gradientUnits="userSpaceOnUse">
<stop stop-color="#FDC500"/>
<stop offset="1" stop-color="#FD8900"/>
</linearGradient>
<linearGradient id="paint4_linear_206_924" x1="19.5" y1="77" x2="19.5" y2="113" gradientUnits="userSpaceOnUse">
<stop stop-color="#F8FD00"/>
<stop offset="1" stop-color="#FD9800"/>
</linearGradient>
<linearGradient id="paint5_linear_206_924" x1="78.0909" y1="49.7078" x2="93.3442" y2="16" gradientUnits="userSpaceOnUse">
<stop stop-color="#2BA6FF"/>
<stop offset="0.299998" stop-color="#48B2FF" stop-opacity="0.75"/>
<stop offset="1" stop-color="#3BADFF" stop-opacity="0"/>
</linearGradient>
<linearGradient id="paint6_linear_206_924" x1="27.7566" y1="95.0522" x2="16.9999" y2="35.5" gradientUnits="userSpaceOnUse">
<stop offset="0.13121" stop-color="#2BA6FF"/>
<stop offset="1" stop-color="#3BADFF" stop-opacity="0"/>
</linearGradient>
</defs>
</svg>
