<svg width="109" height="122" viewBox="0 0 109 122" fill="none" xmlns="http://www.w3.org/2000/svg">
<path d="M31.3501 76.8078L21.4085 84.082C20.3191 84.8694 19.4284 85.8968 18.8052 87.0849C18.1819 88.273 17.8428 89.5899 17.814 90.934C17.8559 92.8525 18.5569 94.8484 20.9477 96.1352C23.3384 97.4219 25.3904 96.9078 27.0148 95.886C28.1208 95.1217 29.0332 94.1133 29.6816 92.9388C30.3299 91.7642 30.6969 90.4549 30.7542 89.112L31.3501 76.8078Z" fill="url(#paint0_linear_206_1312)"/>
<path d="M92.841 77.9272L82.8994 85.2014C81.81 85.9888 80.9193 87.0163 80.2961 88.2043C79.6729 89.3924 79.3337 90.7093 79.3049 92.0534C79.3468 93.972 80.0478 95.9678 82.4386 97.2546C84.8293 98.5413 86.8813 98.0272 88.5057 97.0054C89.6117 96.2411 90.5241 95.2327 91.1725 94.0582C91.8208 92.8837 92.1878 91.5744 92.2451 90.2314L92.841 77.9272Z" fill="url(#paint1_linear_206_1312)"/>
<path d="M34.7578 98.8996L24.8532 106.224C23.7678 107.017 22.8823 108.049 22.2651 109.24C21.6479 110.431 21.3154 111.75 21.2934 113.094C21.345 115.012 22.0561 117.005 24.4534 118.279C26.8506 119.554 28.9 119.03 30.5192 118C31.6213 117.23 32.5286 116.217 33.171 115.039C33.8134 113.861 34.1737 112.55 34.2242 111.207L34.7578 98.8996Z" fill="url(#paint2_linear_206_1312)"/>
<path fill-rule="evenodd" clip-rule="evenodd" d="M10.8063 101.875C10.8063 100.839 9.9668 100 8.93127 100C7.89573 100 7.05627 100.839 7.05627 101.875V104.405L5.2676 102.616C4.53536 101.884 3.34818 101.884 2.61595 102.616C1.88371 103.348 1.88371 104.535 2.61595 105.268L4.40478 107.056H1.875C0.839466 107.056 0 107.896 0 108.931C0 109.967 0.839466 110.806 1.875 110.806H4.4046L2.61579 112.595C1.88355 113.327 1.88355 114.515 2.61579 115.247C3.34802 115.979 4.5352 115.979 5.26744 115.247L7.05627 113.458V115.988C7.05627 117.023 7.89573 117.863 8.93127 117.863C9.9668 117.863 10.8063 117.023 10.8063 115.988V113.458L12.5952 115.247C13.3275 115.979 14.5147 115.979 15.2469 115.247C15.9791 114.515 15.9791 113.327 15.2469 112.595L13.4581 110.806H15.9879C17.0234 110.806 17.8629 109.967 17.8629 108.931C17.8629 107.896 17.0234 107.056 15.9879 107.056H13.4579L15.2467 105.268C15.979 104.535 15.979 103.348 15.2467 102.616C14.5145 101.884 13.3273 101.884 12.5951 102.616L10.8063 104.405V101.875Z" fill="url(#paint3_linear_206_1312)"/>
<path fill-rule="evenodd" clip-rule="evenodd" d="M75.8063 101.875C75.8063 100.839 74.9668 100 73.9313 100C72.8957 100 72.0563 100.839 72.0563 101.875V104.405L70.2676 102.616C69.5354 101.884 68.3482 101.884 67.6159 102.616C66.8837 103.348 66.8837 104.535 67.6159 105.268L69.4048 107.056H66.875C65.8395 107.056 65 107.896 65 108.931C65 109.967 65.8395 110.806 66.875 110.806H69.4046L67.6158 112.595C66.8836 113.327 66.8836 114.515 67.6158 115.247C68.348 115.979 69.5352 115.979 70.2674 115.247L72.0563 113.458V115.988C72.0563 117.023 72.8957 117.863 73.9313 117.863C74.9668 117.863 75.8063 117.023 75.8063 115.988V113.458L77.5952 115.247C78.3275 115.979 79.5147 115.979 80.2469 115.247C80.9791 114.515 80.9791 113.327 80.2469 112.595L78.4581 110.806H80.9879C82.0234 110.806 82.8629 109.967 82.8629 108.931C82.8629 107.896 82.0234 107.056 80.9879 107.056H78.4579L80.2467 105.268C80.979 104.535 80.979 103.348 80.2467 102.616C79.5145 101.884 78.3273 101.884 77.5951 102.616L75.8063 104.405V101.875Z" fill="url(#paint4_linear_206_1312)"/>
<path fill-rule="evenodd" clip-rule="evenodd" d="M96.8063 101.875C96.8063 100.839 95.9668 100 94.9313 100C93.8957 100 93.0563 100.839 93.0563 101.875V104.405L91.2676 102.616C90.5354 101.884 89.3482 101.884 88.6159 102.616C87.8837 103.348 87.8837 104.535 88.6159 105.268L90.4048 107.056H87.875C86.8395 107.056 86 107.896 86 108.931C86 109.967 86.8395 110.806 87.875 110.806H90.4046L88.6158 112.595C87.8836 113.327 87.8836 114.515 88.6158 115.247C89.348 115.979 90.5352 115.979 91.2674 115.247L93.0563 113.458V115.988C93.0563 117.023 93.8957 117.863 94.9313 117.863C95.9668 117.863 96.8063 117.023 96.8063 115.988V113.458L98.5952 115.247C99.3275 115.979 100.515 115.979 101.247 115.247C101.979 114.515 101.979 113.327 101.247 112.595L99.4581 110.806H101.988C103.023 110.806 103.863 109.967 103.863 108.931C103.863 107.896 103.023 107.056 101.988 107.056H99.4579L101.247 105.268C101.979 104.535 101.979 103.348 101.247 102.616C100.515 101.884 99.3273 101.884 98.5951 102.616L96.8063 104.405V101.875Z" fill="url(#paint5_linear_206_1312)"/>
<path d="M43.8069 96.2814L56.9076 72.2315C56.9853 72.0888 57.1348 72 57.2973 72H74.2814C74.6114 72 74.826 72.3474 74.6782 72.6426L67.8724 86.2324C67.7246 86.5276 67.9391 86.875 68.2692 86.875H75L37.8784 119.356C37.5053 119.683 36.959 119.245 37.1967 118.81L48.7873 97.5941C48.9489 97.2983 48.7349 96.9375 48.3979 96.9375H44.1966C43.8598 96.9375 43.6458 96.5771 43.8069 96.2814Z" fill="url(#paint6_linear_206_1312)"/>
<g filter="url(#filter0_ddi_206_1312)">
<circle cx="59" cy="48" r="32" fill="url(#paint7_linear_206_1312)"/>
</g>
<g filter="url(#filter1_f_206_1312)">
<ellipse cx="88.1493" cy="41.4221" rx="11.8636" ry="3.57792" fill="#004E67" fill-opacity="0.7"/>
</g>
<g filter="url(#filter2_bi_206_1312)">
<path fill-rule="evenodd" clip-rule="evenodd" d="M97 27.2987C97 27.5956 96.9885 27.8898 96.966 28.181C98.2033 27.1593 99.7897 26.5455 101.52 26.5455C105.472 26.5455 108.675 29.7492 108.675 33.7013C108.675 37.5271 105.673 40.6516 101.896 40.8474V40.8571H101.535C101.53 40.8571 101.525 40.8572 101.52 40.8572C101.515 40.8572 101.51 40.8571 101.505 40.8571H75.1708C75.1658 40.8571 75.1608 40.8572 75.1558 40.8572C75.1509 40.8572 75.1459 40.8571 75.1409 40.8571H74.4026V40.818C70.8046 40.4416 68 37.399 68 33.7013C68 29.996 70.8162 26.9484 74.4249 26.5823C74.7945 20.676 79.7018 16 85.7013 16C91.9414 16 97 21.0586 97 27.2987Z" fill="url(#paint8_linear_206_1312)"/>
</g>
<g filter="url(#filter3_f_206_1312)">
<ellipse cx="16.2083" cy="4.88823" rx="16.2083" ry="4.88823" transform="matrix(-1 0 0 1 56.2513 78.8439)" fill="#004E67" fill-opacity="0.7"/>
</g>
<g filter="url(#filter4_bi_206_1312)">
<path fill-rule="evenodd" clip-rule="evenodd" d="M27.951 64.4365C27.951 64.8421 27.9666 65.244 27.9973 65.6417C26.3071 64.2459 24.1397 63.4074 21.7764 63.4074C16.377 63.4074 12 67.7845 12 73.1839C12 78.4106 16.1016 82.6794 21.2618 82.947V82.9603H21.7641C21.7682 82.9603 21.7723 82.9603 21.7764 82.9603C21.7805 82.9603 21.7846 82.9603 21.7888 82.9603H57.7826C57.7867 82.9603 57.7908 82.9603 57.795 82.9603C57.7991 82.9603 57.8032 82.9603 57.8073 82.9603H58.824V82.9068C63.7397 82.3926 67.5714 78.2357 67.5714 73.1839C67.5714 68.1216 63.7238 63.9579 58.7935 63.4578C58.2886 55.3884 51.5841 49 43.3875 49C34.8621 49 27.951 55.9112 27.951 64.4365Z" fill="url(#paint9_linear_206_1312)"/>
</g>
<defs>
<filter id="filter0_ddi_206_1312" x="11" y="0" width="96" height="96" filterUnits="userSpaceOnUse" color-interpolation-filters="sRGB">
<feFlood flood-opacity="0" result="BackgroundImageFix"/>
<feColorMatrix in="SourceAlpha" type="matrix" values="0 0 0 0 0 0 0 0 0 0 0 0 0 0 0 0 0 0 127 0" result="hardAlpha"/>
<feOffset/>
<feGaussianBlur stdDeviation="8"/>
<feComposite in2="hardAlpha" operator="out"/>
<feColorMatrix type="matrix" values="0 0 0 0 0.992157 0 0 0 0 0.773882 0 0 0 0 0 0 0 0 1 0"/>
<feBlend mode="normal" in2="BackgroundImageFix" result="effect1_dropShadow_206_1312"/>
<feColorMatrix in="SourceAlpha" type="matrix" values="0 0 0 0 0 0 0 0 0 0 0 0 0 0 0 0 0 0 127 0" result="hardAlpha"/>
<feOffset/>
<feGaussianBlur stdDeviation="5.5"/>
<feComposite in2="hardAlpha" operator="out"/>
<feColorMatrix type="matrix" values="0 0 0 0 0.992157 0 0 0 0 0.772549 0 0 0 0 0 0 0 0 0.45 0"/>
<feBlend mode="normal" in2="effect1_dropShadow_206_1312" result="effect2_dropShadow_206_1312"/>
<feBlend mode="normal" in="SourceGraphic" in2="effect2_dropShadow_206_1312" result="shape"/>
<feColorMatrix in="SourceAlpha" type="matrix" values="0 0 0 0 0 0 0 0 0 0 0 0 0 0 0 0 0 0 127 0" result="hardAlpha"/>
<feOffset dx="-1" dy="3"/>
<feGaussianBlur stdDeviation="2.5"/>
<feComposite in2="hardAlpha" operator="arithmetic" k2="-1" k3="1"/>
<feColorMatrix type="matrix" values="0 0 0 0 1 0 0 0 0 0.9 0 0 0 0 0 0 0 0 0.35 0"/>
<feBlend mode="normal" in2="shape" result="effect3_innerShadow_206_1312"/>
</filter>
<filter id="filter1_f_206_1312" x="68" y="29.5584" width="40.2987" height="23.7273" filterUnits="userSpaceOnUse" color-interpolation-filters="sRGB">
<feFlood flood-opacity="0" result="BackgroundImageFix"/>
<feBlend mode="normal" in="SourceGraphic" in2="BackgroundImageFix" result="shape"/>
<feGaussianBlur stdDeviation="4.14286" result="effect1_foregroundBlur_206_1312"/>
</filter>
<filter id="filter2_bi_206_1312" x="65.3636" y="13.3636" width="45.9481" height="30.1299" filterUnits="userSpaceOnUse" color-interpolation-filters="sRGB">
<feFlood flood-opacity="0" result="BackgroundImageFix"/>
<feGaussianBlur in="BackgroundImageFix" stdDeviation="1.31818"/>
<feComposite in2="SourceAlpha" operator="in" result="effect1_backgroundBlur_206_1312"/>
<feBlend mode="normal" in="SourceGraphic" in2="effect1_backgroundBlur_206_1312" result="shape"/>
<feColorMatrix in="SourceAlpha" type="matrix" values="0 0 0 0 0 0 0 0 0 0 0 0 0 0 0 0 0 0 127 0" result="hardAlpha"/>
<feOffset dy="0.753247"/>
<feGaussianBlur stdDeviation="1.50649"/>
<feComposite in2="hardAlpha" operator="arithmetic" k2="-1" k3="1"/>
<feColorMatrix type="matrix" values="0 0 0 0 0 0 0 0 0 0.82 0 0 0 0 1 0 0 0 0.25 0"/>
<feBlend mode="normal" in2="shape" result="effect2_innerShadow_206_1312"/>
</filter>
<filter id="filter3_f_206_1312" x="12.5145" y="67.5238" width="55.0569" height="32.4167" filterUnits="userSpaceOnUse" color-interpolation-filters="sRGB">
<feFlood flood-opacity="0" result="BackgroundImageFix"/>
<feBlend mode="normal" in="SourceGraphic" in2="BackgroundImageFix" result="shape"/>
<feGaussianBlur stdDeviation="5.66005" result="effect1_foregroundBlur_206_1312"/>
</filter>
<filter id="filter4_bi_206_1312" x="8.39809" y="45.3981" width="62.7752" height="41.164" filterUnits="userSpaceOnUse" color-interpolation-filters="sRGB">
<feFlood flood-opacity="0" result="BackgroundImageFix"/>
<feGaussianBlur in="BackgroundImageFix" stdDeviation="1.80093"/>
<feComposite in2="SourceAlpha" operator="in" result="effect1_backgroundBlur_206_1312"/>
<feBlend mode="normal" in="SourceGraphic" in2="effect1_backgroundBlur_206_1312" result="shape"/>
<feColorMatrix in="SourceAlpha" type="matrix" values="0 0 0 0 0 0 0 0 0 0 0 0 0 0 0 0 0 0 127 0" result="hardAlpha"/>
<feOffset dy="1.0291"/>
<feGaussianBlur stdDeviation="2.0582"/>
<feComposite in2="hardAlpha" operator="arithmetic" k2="-1" k3="1"/>
<feColorMatrix type="matrix" values="0 0 0 0 0 0 0 0 0 0.82 0 0 0 0 1 0 0 0 0.25 0"/>
<feBlend mode="normal" in2="shape" result="effect2_innerShadow_206_1312"/>
</filter>
<linearGradient id="paint0_linear_206_1312" x1="59.5431" y1="72.2255" x2="41.3007" y2="101.079" gradientUnits="userSpaceOnUse">
<stop stop-color="#D7F0FF"/>
<stop offset="1" stop-color="#0072DC"/>
</linearGradient>
<linearGradient id="paint1_linear_206_1312" x1="114.305" y1="74.1934" x2="96.0622" y2="103.047" gradientUnits="userSpaceOnUse">
<stop stop-color="#D7F0FF"/>
<stop offset="1" stop-color="#0072DC"/>
</linearGradient>
<linearGradient id="paint2_linear_206_1312" x1="39.6623" y1="88.9617" x2="37.2829" y2="119.113" gradientUnits="userSpaceOnUse">
<stop stop-color="#D7F0FF"/>
<stop offset="1" stop-color="#0072DC"/>
</linearGradient>
<linearGradient id="paint3_linear_206_1312" x1="2.54998" y1="114.248" x2="19.5153" y2="99.9284" gradientUnits="userSpaceOnUse">
<stop stop-color="#0056D6"/>
<stop offset="1" stop-color="#ADD8FF"/>
</linearGradient>
<linearGradient id="paint4_linear_206_1312" x1="67.55" y1="114.248" x2="84.5153" y2="99.9284" gradientUnits="userSpaceOnUse">
<stop stop-color="#0056D6"/>
<stop offset="1" stop-color="#ADD8FF"/>
</linearGradient>
<linearGradient id="paint5_linear_206_1312" x1="88.55" y1="114.248" x2="105.515" y2="99.9284" gradientUnits="userSpaceOnUse">
<stop stop-color="#0056D6"/>
<stop offset="1" stop-color="#ADD8FF"/>
</linearGradient>
<linearGradient id="paint6_linear_206_1312" x1="55.5" y1="72" x2="55.5" y2="121" gradientUnits="userSpaceOnUse">
<stop stop-color="#F8FD00"/>
<stop offset="1" stop-color="#FD9800"/>
</linearGradient>
<linearGradient id="paint7_linear_206_1312" x1="59" y1="16" x2="59" y2="80" gradientUnits="userSpaceOnUse">
<stop stop-color="#FDC500"/>
<stop offset="1" stop-color="#FD8900"/>
</linearGradient>
<linearGradient id="paint8_linear_206_1312" x1="89.0909" y1="49.7078" x2="104.344" y2="16" gradientUnits="userSpaceOnUse">
<stop stop-color="#2BA6FF"/>
<stop offset="0.299998" stop-color="#48B2FF" stop-opacity="0.75"/>
<stop offset="1" stop-color="#3BADFF" stop-opacity="0"/>
</linearGradient>
<linearGradient id="paint9_linear_206_1312" x1="38.7566" y1="95.0522" x2="27.9999" y2="35.5" gradientUnits="userSpaceOnUse">
<stop offset="0.13121" stop-color="#2BA6FF"/>
<stop offset="1" stop-color="#3BADFF" stop-opacity="0"/>
</linearGradient>
</defs>
</svg>
