<svg width="98" height="115" viewBox="0 0 98 115" fill="none" xmlns="http://www.w3.org/2000/svg">
<path fill-rule="evenodd" clip-rule="evenodd" d="M14.8063 98.875C14.8063 97.8395 13.9668 97 12.9313 97C11.8957 97 11.0563 97.8395 11.0563 98.875V101.405L9.2676 99.6159C8.53536 98.8837 7.34818 98.8837 6.61595 99.6159C5.88371 100.348 5.88371 101.535 6.61595 102.268L8.40478 104.056H5.875C4.83947 104.056 4 104.896 4 105.931C4 106.967 4.83947 107.806 5.875 107.806H8.4046L6.61579 109.595C5.88355 110.327 5.88355 111.515 6.61579 112.247C7.34802 112.979 8.5352 112.979 9.26744 112.247L11.0563 110.458V112.988C11.0563 114.023 11.8957 114.863 12.9313 114.863C13.9668 114.863 14.8063 114.023 14.8063 112.988V110.458L16.5952 112.247C17.3275 112.979 18.5147 112.979 19.2469 112.247C19.9791 111.515 19.9791 110.327 19.2469 109.595L17.4581 107.806H19.9879C21.0234 107.806 21.8629 106.967 21.8629 105.931C21.8629 104.896 21.0234 104.056 19.9879 104.056H17.4579L19.2467 102.268C19.979 101.535 19.979 100.348 19.2467 99.6159C18.5145 98.8837 17.3273 98.8837 16.5951 99.6159L14.8063 101.405V98.875Z" fill="url(#paint0_linear_206_1602)"/>
<path fill-rule="evenodd" clip-rule="evenodd" d="M64.8063 98.875C64.8063 97.8395 63.9668 97 62.9313 97C61.8957 97 61.0563 97.8395 61.0563 98.875V101.405L59.2676 99.6159C58.5354 98.8837 57.3482 98.8837 56.6159 99.6159C55.8837 100.348 55.8837 101.535 56.6159 102.268L58.4048 104.056H55.875C54.8395 104.056 54 104.896 54 105.931C54 106.967 54.8395 107.806 55.875 107.806H58.4046L56.6158 109.595C55.8836 110.327 55.8836 111.515 56.6158 112.247C57.348 112.979 58.5352 112.979 59.2674 112.247L61.0563 110.458V112.988C61.0563 114.023 61.8957 114.863 62.9313 114.863C63.9668 114.863 64.8063 114.023 64.8063 112.988V110.458L66.5952 112.247C67.3275 112.979 68.5147 112.979 69.2469 112.247C69.9791 111.515 69.9791 110.327 69.2469 109.595L67.4581 107.806H69.9879C71.0234 107.806 71.8629 106.967 71.8629 105.931C71.8629 104.896 71.0234 104.056 69.9879 104.056H67.4579L69.2467 102.268C69.979 101.535 69.979 100.348 69.2467 99.6159C68.5145 98.8837 67.3273 98.8837 66.5951 99.6159L64.8063 101.405V98.875Z" fill="url(#paint1_linear_206_1602)"/>
<path fill-rule="evenodd" clip-rule="evenodd" d="M44.8063 77.875C44.8063 76.8395 43.9668 76 42.9313 76C41.8957 76 41.0563 76.8395 41.0563 77.875V80.4046L39.2676 78.6159C38.5354 77.8837 37.3482 77.8837 36.6159 78.6159C35.8837 79.3482 35.8837 80.5353 36.6159 81.2676L38.4048 83.0564H35.875C34.8395 83.0564 34 83.8959 34 84.9314C34 85.9669 34.8395 86.8064 35.875 86.8064H38.4046L36.6158 88.5952C35.8836 89.3275 35.8836 90.5146 36.6158 91.2469C37.348 91.9791 38.5352 91.9791 39.2674 91.2469L41.0563 89.458V91.9879C41.0563 93.0234 41.8957 93.8629 42.9313 93.8629C43.9668 93.8629 44.8063 93.0234 44.8063 91.9879V89.4579L46.5952 91.2469C47.3275 91.9791 48.5147 91.9791 49.2469 91.2469C49.9791 90.5146 49.9791 89.3275 49.2469 88.5952L47.4581 86.8064H49.9879C51.0234 86.8064 51.8629 85.9669 51.8629 84.9314C51.8629 83.8959 51.0234 83.0564 49.9879 83.0564H47.4579L49.2467 81.2676C49.979 80.5353 49.979 79.3482 49.2467 78.6159C48.5145 77.8837 47.3273 77.8837 46.5951 78.6159L44.8063 80.4047V77.875Z" fill="url(#paint2_linear_206_1602)"/>
<path fill-rule="evenodd" clip-rule="evenodd" d="M39.8063 98.875C39.8063 97.8395 38.9668 97 37.9313 97C36.8957 97 36.0563 97.8395 36.0563 98.875V101.405L34.2676 99.6159C33.5354 98.8837 32.3482 98.8837 31.6159 99.6159C30.8837 100.348 30.8837 101.535 31.6159 102.268L33.4048 104.056H30.875C29.8395 104.056 29 104.896 29 105.931C29 106.967 29.8395 107.806 30.875 107.806H33.4046L31.6158 109.595C30.8836 110.327 30.8836 111.515 31.6158 112.247C32.348 112.979 33.5352 112.979 34.2674 112.247L36.0563 110.458V112.988C36.0563 114.023 36.8957 114.863 37.9313 114.863C38.9668 114.863 39.8063 114.023 39.8063 112.988V110.458L41.5952 112.247C42.3275 112.979 43.5147 112.979 44.2469 112.247C44.9791 111.515 44.9791 110.327 44.2469 109.595L42.4581 107.806H44.9879C46.0234 107.806 46.8629 106.967 46.8629 105.931C46.8629 104.896 46.0234 104.056 44.9879 104.056H42.4579L44.2467 102.268C44.979 101.535 44.979 100.348 44.2467 99.6159C43.5145 98.8837 42.3273 98.8837 41.5951 99.6159L39.8063 101.405V98.875Z" fill="url(#paint3_linear_206_1602)"/>
<path fill-rule="evenodd" clip-rule="evenodd" d="M69.8063 77.875C69.8063 76.8395 68.9668 76 67.9313 76C66.8957 76 66.0563 76.8395 66.0563 77.875V80.4046L64.2676 78.6159C63.5354 77.8837 62.3482 77.8837 61.6159 78.6159C60.8837 79.3482 60.8837 80.5353 61.6159 81.2676L63.4048 83.0564H60.875C59.8395 83.0564 59 83.8959 59 84.9314C59 85.9669 59.8395 86.8064 60.875 86.8064H63.4046L61.6158 88.5952C60.8836 89.3275 60.8836 90.5146 61.6158 91.2469C62.348 91.9791 63.5352 91.9791 64.2674 91.2469L66.0563 89.458V91.9879C66.0563 93.0234 66.8957 93.8629 67.9313 93.8629C68.9668 93.8629 69.8063 93.0234 69.8063 91.9879V89.4579L71.5952 91.2469C72.3275 91.9791 73.5147 91.9791 74.2469 91.2469C74.9791 90.5146 74.9791 89.3275 74.2469 88.5952L72.4581 86.8064H74.9879C76.0234 86.8064 76.8629 85.9669 76.8629 84.9314C76.8629 83.8959 76.0234 83.0564 74.9879 83.0564H72.4579L74.2467 81.2676C74.979 80.5353 74.979 79.3482 74.2467 78.6159C73.5145 77.8837 72.3273 77.8837 71.5951 78.6159L69.8063 80.4047V77.875Z" fill="url(#paint4_linear_206_1602)"/>
<path fill-rule="evenodd" clip-rule="evenodd" d="M19.8063 77.875C19.8063 76.8395 18.9668 76 17.9313 76C16.8957 76 16.0563 76.8395 16.0563 77.875V80.4046L14.2676 78.6159C13.5354 77.8837 12.3482 77.8837 11.6159 78.6159C10.8837 79.3482 10.8837 80.5353 11.6159 81.2676L13.4048 83.0564H10.875C9.83947 83.0564 9 83.8959 9 84.9314C9 85.9669 9.83947 86.8064 10.875 86.8064H13.4046L11.6158 88.5952C10.8836 89.3275 10.8836 90.5146 11.6158 91.2469C12.348 91.9791 13.5352 91.9791 14.2674 91.2469L16.0563 89.458V91.9879C16.0563 93.0234 16.8957 93.8629 17.9313 93.8629C18.9668 93.8629 19.8063 93.0234 19.8063 91.9879V89.4579L21.5952 91.2469C22.3275 91.9791 23.5147 91.9791 24.2469 91.2469C24.9791 90.5146 24.9791 89.3275 24.2469 88.5952L22.4581 86.8064H24.9879C26.0234 86.8064 26.8629 85.9669 26.8629 84.9314C26.8629 83.8959 26.0234 83.0564 24.9879 83.0564H22.4579L24.2467 81.2676C24.979 80.5353 24.979 79.3482 24.2467 78.6159C23.5145 77.8837 22.3273 77.8837 21.5951 78.6159L19.8063 80.4047V77.875Z" fill="url(#paint5_linear_206_1602)"/>
<g filter="url(#filter0_ddi_206_1602)">
<circle cx="48" cy="48" r="32" fill="url(#paint6_linear_206_1602)"/>
</g>
<g filter="url(#filter1_f_206_1602)">
<ellipse cx="77.1494" cy="41.4221" rx="11.8636" ry="3.57792" fill="#004E67" fill-opacity="0.7"/>
</g>
<g filter="url(#filter2_bi_206_1602)">
<path fill-rule="evenodd" clip-rule="evenodd" d="M86 27.2987C86 27.5956 85.9885 27.8898 85.9661 28.181C87.2033 27.1593 88.7898 26.5455 90.5196 26.5455C94.4717 26.5455 97.6755 29.7492 97.6755 33.7013C97.6755 37.5271 94.6732 40.6516 90.8961 40.8474V40.8571H90.5345C90.5296 40.8571 90.5246 40.8572 90.5196 40.8572C90.5146 40.8572 90.5096 40.8571 90.5047 40.8571H64.1708C64.1658 40.8571 64.1608 40.8572 64.1559 40.8572C64.1509 40.8572 64.1459 40.8571 64.1409 40.8571H63.4026V40.818C59.8046 40.4416 57 37.399 57 33.7013C57 29.996 59.8162 26.9484 63.4249 26.5823C63.7945 20.676 68.7018 16 74.7013 16C80.9414 16 86 21.0586 86 27.2987Z" fill="url(#paint7_linear_206_1602)"/>
</g>
<g filter="url(#filter3_f_206_1602)">
<ellipse cx="16.2083" cy="4.88823" rx="16.2083" ry="4.88823" transform="matrix(-1 0 0 1 45.2514 78.8439)" fill="#004E67" fill-opacity="0.7"/>
</g>
<g filter="url(#filter4_bi_206_1602)">
<path fill-rule="evenodd" clip-rule="evenodd" d="M16.951 64.4365C16.951 64.8421 16.9666 65.244 16.9973 65.6417C15.3071 64.2459 13.1397 63.4074 10.7764 63.4074C5.37704 63.4074 0.999969 67.7845 0.999969 73.1839C0.999969 78.4106 5.10165 82.6794 10.2618 82.947V82.9603H10.7641C10.7682 82.9603 10.7723 82.9603 10.7764 82.9603C10.7805 82.9603 10.7847 82.9603 10.7888 82.9603H46.7826C46.7867 82.9603 46.7909 82.9603 46.795 82.9603C46.7991 82.9603 46.8032 82.9603 46.8073 82.9603H47.824V82.9068C52.7397 82.3926 56.5714 78.2357 56.5714 73.1839C56.5714 68.1216 52.7238 63.9579 47.7935 63.4578C47.2886 55.3884 40.5841 49 32.3875 49C23.8621 49 16.951 55.9112 16.951 64.4365Z" fill="url(#paint8_linear_206_1602)"/>
</g>
<defs>
<filter id="filter0_ddi_206_1602" x="1.52588e-05" y="0" width="96" height="96" filterUnits="userSpaceOnUse" color-interpolation-filters="sRGB">
<feFlood flood-opacity="0" result="BackgroundImageFix"/>
<feColorMatrix in="SourceAlpha" type="matrix" values="0 0 0 0 0 0 0 0 0 0 0 0 0 0 0 0 0 0 127 0" result="hardAlpha"/>
<feOffset/>
<feGaussianBlur stdDeviation="8"/>
<feComposite in2="hardAlpha" operator="out"/>
<feColorMatrix type="matrix" values="0 0 0 0 0.992157 0 0 0 0 0.773882 0 0 0 0 0 0 0 0 1 0"/>
<feBlend mode="normal" in2="BackgroundImageFix" result="effect1_dropShadow_206_1602"/>
<feColorMatrix in="SourceAlpha" type="matrix" values="0 0 0 0 0 0 0 0 0 0 0 0 0 0 0 0 0 0 127 0" result="hardAlpha"/>
<feOffset/>
<feGaussianBlur stdDeviation="5.5"/>
<feComposite in2="hardAlpha" operator="out"/>
<feColorMatrix type="matrix" values="0 0 0 0 0.992157 0 0 0 0 0.772549 0 0 0 0 0 0 0 0 0.45 0"/>
<feBlend mode="normal" in2="effect1_dropShadow_206_1602" result="effect2_dropShadow_206_1602"/>
<feBlend mode="normal" in="SourceGraphic" in2="effect2_dropShadow_206_1602" result="shape"/>
<feColorMatrix in="SourceAlpha" type="matrix" values="0 0 0 0 0 0 0 0 0 0 0 0 0 0 0 0 0 0 127 0" result="hardAlpha"/>
<feOffset dx="-1" dy="3"/>
<feGaussianBlur stdDeviation="2.5"/>
<feComposite in2="hardAlpha" operator="arithmetic" k2="-1" k3="1"/>
<feColorMatrix type="matrix" values="0 0 0 0 1 0 0 0 0 0.9 0 0 0 0 0 0 0 0 0.35 0"/>
<feBlend mode="normal" in2="shape" result="effect3_innerShadow_206_1602"/>
</filter>
<filter id="filter1_f_206_1602" x="57" y="29.5584" width="40.2987" height="23.7273" filterUnits="userSpaceOnUse" color-interpolation-filters="sRGB">
<feFlood flood-opacity="0" result="BackgroundImageFix"/>
<feBlend mode="normal" in="SourceGraphic" in2="BackgroundImageFix" result="shape"/>
<feGaussianBlur stdDeviation="4.14286" result="effect1_foregroundBlur_206_1602"/>
</filter>
<filter id="filter2_bi_206_1602" x="54.3637" y="13.3636" width="45.9482" height="30.1299" filterUnits="userSpaceOnUse" color-interpolation-filters="sRGB">
<feFlood flood-opacity="0" result="BackgroundImageFix"/>
<feGaussianBlur in="BackgroundImageFix" stdDeviation="1.31818"/>
<feComposite in2="SourceAlpha" operator="in" result="effect1_backgroundBlur_206_1602"/>
<feBlend mode="normal" in="SourceGraphic" in2="effect1_backgroundBlur_206_1602" result="shape"/>
<feColorMatrix in="SourceAlpha" type="matrix" values="0 0 0 0 0 0 0 0 0 0 0 0 0 0 0 0 0 0 127 0" result="hardAlpha"/>
<feOffset dy="0.753247"/>
<feGaussianBlur stdDeviation="1.50649"/>
<feComposite in2="hardAlpha" operator="arithmetic" k2="-1" k3="1"/>
<feColorMatrix type="matrix" values="0 0 0 0 0 0 0 0 0 0.82 0 0 0 0 1 0 0 0 0.25 0"/>
<feBlend mode="normal" in2="shape" result="effect2_innerShadow_206_1602"/>
</filter>
<filter id="filter3_f_206_1602" x="1.5146" y="67.5238" width="55.0569" height="32.4167" filterUnits="userSpaceOnUse" color-interpolation-filters="sRGB">
<feFlood flood-opacity="0" result="BackgroundImageFix"/>
<feBlend mode="normal" in="SourceGraphic" in2="BackgroundImageFix" result="shape"/>
<feGaussianBlur stdDeviation="5.66005" result="effect1_foregroundBlur_206_1602"/>
</filter>
<filter id="filter4_bi_206_1602" x="-2.60188" y="45.3981" width="62.7752" height="41.164" filterUnits="userSpaceOnUse" color-interpolation-filters="sRGB">
<feFlood flood-opacity="0" result="BackgroundImageFix"/>
<feGaussianBlur in="BackgroundImageFix" stdDeviation="1.80093"/>
<feComposite in2="SourceAlpha" operator="in" result="effect1_backgroundBlur_206_1602"/>
<feBlend mode="normal" in="SourceGraphic" in2="effect1_backgroundBlur_206_1602" result="shape"/>
<feColorMatrix in="SourceAlpha" type="matrix" values="0 0 0 0 0 0 0 0 0 0 0 0 0 0 0 0 0 0 127 0" result="hardAlpha"/>
<feOffset dy="1.0291"/>
<feGaussianBlur stdDeviation="2.0582"/>
<feComposite in2="hardAlpha" operator="arithmetic" k2="-1" k3="1"/>
<feColorMatrix type="matrix" values="0 0 0 0 0 0 0 0 0 0.82 0 0 0 0 1 0 0 0 0.25 0"/>
<feBlend mode="normal" in2="shape" result="effect2_innerShadow_206_1602"/>
</filter>
<linearGradient id="paint0_linear_206_1602" x1="6.54998" y1="111.248" x2="23.5153" y2="96.9284" gradientUnits="userSpaceOnUse">
<stop stop-color="#0056D6"/>
<stop offset="1" stop-color="#ADD8FF"/>
</linearGradient>
<linearGradient id="paint1_linear_206_1602" x1="56.55" y1="111.248" x2="73.5153" y2="96.9284" gradientUnits="userSpaceOnUse">
<stop stop-color="#0056D6"/>
<stop offset="1" stop-color="#ADD8FF"/>
</linearGradient>
<linearGradient id="paint2_linear_206_1602" x1="36.55" y1="90.2478" x2="53.5153" y2="75.9284" gradientUnits="userSpaceOnUse">
<stop stop-color="#0056D6"/>
<stop offset="1" stop-color="#ADD8FF"/>
</linearGradient>
<linearGradient id="paint3_linear_206_1602" x1="31.55" y1="111.248" x2="48.5153" y2="96.9284" gradientUnits="userSpaceOnUse">
<stop stop-color="#0056D6"/>
<stop offset="1" stop-color="#ADD8FF"/>
</linearGradient>
<linearGradient id="paint4_linear_206_1602" x1="61.55" y1="90.2478" x2="78.5153" y2="75.9284" gradientUnits="userSpaceOnUse">
<stop stop-color="#0056D6"/>
<stop offset="1" stop-color="#ADD8FF"/>
</linearGradient>
<linearGradient id="paint5_linear_206_1602" x1="11.55" y1="90.2478" x2="28.5153" y2="75.9284" gradientUnits="userSpaceOnUse">
<stop stop-color="#0056D6"/>
<stop offset="1" stop-color="#ADD8FF"/>
</linearGradient>
<linearGradient id="paint6_linear_206_1602" x1="48" y1="16" x2="48" y2="80" gradientUnits="userSpaceOnUse">
<stop stop-color="#FDC500"/>
<stop offset="1" stop-color="#FD8900"/>
</linearGradient>
<linearGradient id="paint7_linear_206_1602" x1="78.0909" y1="49.7078" x2="93.3442" y2="16" gradientUnits="userSpaceOnUse">
<stop stop-color="#2BA6FF"/>
<stop offset="0.299998" stop-color="#48B2FF" stop-opacity="0.75"/>
<stop offset="1" stop-color="#3BADFF" stop-opacity="0"/>
</linearGradient>
<linearGradient id="paint8_linear_206_1602" x1="27.7566" y1="95.0522" x2="16.9999" y2="35.5" gradientUnits="userSpaceOnUse">
<stop offset="0.13121" stop-color="#2BA6FF"/>
<stop offset="1" stop-color="#3BADFF" stop-opacity="0"/>
</linearGradient>
</defs>
</svg>
