<svg width="103" height="124" viewBox="0 0 103 124" fill="none" xmlns="http://www.w3.org/2000/svg">
<g filter="url(#filter0_ddi_206_1108)">
<circle cx="53" cy="48" r="32" fill="url(#paint0_linear_206_1108)"/>
</g>
<path d="M31.9067 81.0882L21.7525 88.0625C20.6401 88.817 19.7192 89.8174 19.0608 90.9864C18.4023 92.1553 18.0241 93.4615 17.9552 94.8041C17.9398 96.7231 18.5809 98.739 20.9322 100.097C23.2835 101.454 25.3499 101.001 27.0041 100.029C28.1324 99.2976 29.0745 98.3169 29.7576 97.1622C30.4407 96.0075 30.8466 94.7098 30.9439 93.3691L31.9067 81.0882Z" fill="url(#paint1_linear_206_1108)"/>
<path d="M50.3234 101.088L40.1691 108.062C39.0567 108.817 38.1358 109.817 37.4774 110.986C36.819 112.155 36.4407 113.462 36.3718 114.804C36.3564 116.723 36.9976 118.739 39.3488 120.097C41.7001 121.454 43.7666 121.001 45.4207 120.029C46.549 119.298 47.4911 118.317 48.1742 117.162C48.8574 116.008 49.2632 114.71 49.3606 113.369L50.3234 101.088Z" fill="url(#paint2_linear_206_1108)"/>
<path fill-rule="evenodd" clip-rule="evenodd" d="M10.8063 103.875C10.8063 102.839 9.9668 102 8.93127 102C7.89573 102 7.05627 102.839 7.05627 103.875V106.405L5.2676 104.616C4.53536 103.884 3.34818 103.884 2.61595 104.616C1.88371 105.348 1.88371 106.535 2.61595 107.268L4.40478 109.056H1.875C0.839466 109.056 0 109.896 0 110.931C0 111.967 0.839466 112.806 1.875 112.806H4.4046L2.61579 114.595C1.88355 115.327 1.88355 116.515 2.61579 117.247C3.34802 117.979 4.5352 117.979 5.26744 117.247L7.05627 115.458V117.988C7.05627 119.023 7.89573 119.863 8.93127 119.863C9.9668 119.863 10.8063 119.023 10.8063 117.988V115.458L12.5952 117.247C13.3275 117.979 14.5147 117.979 15.2469 117.247C15.9791 116.515 15.9791 115.327 15.2469 114.595L13.4581 112.806H15.9879C17.0234 112.806 17.8629 111.967 17.8629 110.931C17.8629 109.896 17.0234 109.056 15.9879 109.056H13.4579L15.2467 107.268C15.979 106.535 15.979 105.348 15.2467 104.616C14.5145 103.884 13.3273 103.884 12.5951 104.616L10.8063 106.405V103.875Z" fill="url(#paint3_linear_206_1108)"/>
<path fill-rule="evenodd" clip-rule="evenodd" d="M64.8063 84.1474C64.8063 83.1119 63.9668 82.2724 62.9313 82.2724C61.8957 82.2724 61.0563 83.1119 61.0563 84.1474V86.677L59.2676 84.8883C58.5354 84.1561 57.3482 84.1561 56.6159 84.8883C55.8837 85.6206 55.8837 86.8077 56.6159 87.54L58.4048 89.3288H55.875C54.8395 89.3288 54 90.1683 54 91.2038C54 92.2393 54.8395 93.0788 55.875 93.0788H58.4046L56.6158 94.8676C55.8836 95.5999 55.8836 96.787 56.6158 97.5193C57.348 98.2515 58.5352 98.2515 59.2674 97.5193L61.0563 95.7304V98.2603C61.0563 99.2958 61.8957 100.135 62.9313 100.135C63.9668 100.135 64.8063 99.2958 64.8063 98.2603V95.7303L66.5952 97.5193C67.3275 98.2515 68.5147 98.2515 69.2469 97.5193C69.9791 96.787 69.9791 95.5999 69.2469 94.8676L67.4581 93.0788H69.9879C71.0234 93.0788 71.8629 92.2393 71.8629 91.2038C71.8629 90.1683 71.0234 89.3288 69.9879 89.3288H67.4579L69.2467 87.54C69.979 86.8077 69.979 85.6206 69.2467 84.8883C68.5145 84.1561 67.3273 84.1561 66.5951 84.8883L64.8063 86.6771V84.1474Z" fill="url(#paint4_linear_206_1108)"/>
<g filter="url(#filter1_f_206_1108)">
<ellipse cx="82.1494" cy="41.4221" rx="11.8636" ry="3.57792" fill="#004E67" fill-opacity="0.7"/>
</g>
<g filter="url(#filter2_bi_206_1108)">
<path fill-rule="evenodd" clip-rule="evenodd" d="M91 27.2987C91 27.5956 90.9885 27.8898 90.966 28.181C92.2033 27.1593 93.7897 26.5455 95.5196 26.5455C99.4717 26.5455 102.675 29.7492 102.675 33.7013C102.675 37.5271 99.6731 40.6516 95.8961 40.8474V40.8571H95.5345C95.5296 40.8571 95.5246 40.8572 95.5196 40.8572C95.5146 40.8572 95.5096 40.8571 95.5047 40.8571H69.1708C69.1658 40.8571 69.1608 40.8572 69.1558 40.8572C69.1509 40.8572 69.1459 40.8571 69.1409 40.8571H68.4026V40.818C64.8046 40.4416 62 37.399 62 33.7013C62 29.996 64.8162 26.9484 68.4249 26.5823C68.7945 20.676 73.7018 16 79.7013 16C85.9414 16 91 21.0586 91 27.2987Z" fill="url(#paint5_linear_206_1108)"/>
</g>
<g filter="url(#filter3_f_206_1108)">
<ellipse cx="16.2083" cy="4.88823" rx="16.2083" ry="4.88823" transform="matrix(-1 0 0 1 50.2513 78.8439)" fill="#004E67" fill-opacity="0.7"/>
</g>
<g filter="url(#filter4_bi_206_1108)">
<path fill-rule="evenodd" clip-rule="evenodd" d="M21.951 64.4365C21.951 64.8421 21.9666 65.244 21.9973 65.6417C20.3071 64.2459 18.1397 63.4074 15.7764 63.4074C10.377 63.4074 5.99995 67.7845 5.99995 73.1839C5.99995 78.4106 10.1016 82.6794 15.2618 82.947V82.9603H15.7641C15.7682 82.9603 15.7723 82.9603 15.7764 82.9603C15.7805 82.9603 15.7846 82.9603 15.7888 82.9603H51.7826C51.7867 82.9603 51.7908 82.9603 51.795 82.9603C51.7991 82.9603 51.8032 82.9603 51.8073 82.9603H52.824V82.9068C57.7397 82.3926 61.5714 78.2357 61.5714 73.1839C61.5714 68.1216 57.7238 63.9579 52.7935 63.4578C52.2886 55.3884 45.5841 49 37.3875 49C28.8621 49 21.951 55.9112 21.951 64.4365Z" fill="url(#paint6_linear_206_1108)"/>
</g>
<defs>
<filter id="filter0_ddi_206_1108" x="5" y="0" width="96" height="96" filterUnits="userSpaceOnUse" color-interpolation-filters="sRGB">
<feFlood flood-opacity="0" result="BackgroundImageFix"/>
<feColorMatrix in="SourceAlpha" type="matrix" values="0 0 0 0 0 0 0 0 0 0 0 0 0 0 0 0 0 0 127 0" result="hardAlpha"/>
<feOffset/>
<feGaussianBlur stdDeviation="8"/>
<feComposite in2="hardAlpha" operator="out"/>
<feColorMatrix type="matrix" values="0 0 0 0 0.992157 0 0 0 0 0.773882 0 0 0 0 0 0 0 0 1 0"/>
<feBlend mode="normal" in2="BackgroundImageFix" result="effect1_dropShadow_206_1108"/>
<feColorMatrix in="SourceAlpha" type="matrix" values="0 0 0 0 0 0 0 0 0 0 0 0 0 0 0 0 0 0 127 0" result="hardAlpha"/>
<feOffset/>
<feGaussianBlur stdDeviation="5.5"/>
<feComposite in2="hardAlpha" operator="out"/>
<feColorMatrix type="matrix" values="0 0 0 0 0.992157 0 0 0 0 0.772549 0 0 0 0 0 0 0 0 0.45 0"/>
<feBlend mode="normal" in2="effect1_dropShadow_206_1108" result="effect2_dropShadow_206_1108"/>
<feBlend mode="normal" in="SourceGraphic" in2="effect2_dropShadow_206_1108" result="shape"/>
<feColorMatrix in="SourceAlpha" type="matrix" values="0 0 0 0 0 0 0 0 0 0 0 0 0 0 0 0 0 0 127 0" result="hardAlpha"/>
<feOffset dx="-1" dy="3"/>
<feGaussianBlur stdDeviation="2.5"/>
<feComposite in2="hardAlpha" operator="arithmetic" k2="-1" k3="1"/>
<feColorMatrix type="matrix" values="0 0 0 0 1 0 0 0 0 0.9 0 0 0 0 0 0 0 0 0.35 0"/>
<feBlend mode="normal" in2="shape" result="effect3_innerShadow_206_1108"/>
</filter>
<filter id="filter1_f_206_1108" x="62.0001" y="29.5584" width="40.2987" height="23.7273" filterUnits="userSpaceOnUse" color-interpolation-filters="sRGB">
<feFlood flood-opacity="0" result="BackgroundImageFix"/>
<feBlend mode="normal" in="SourceGraphic" in2="BackgroundImageFix" result="shape"/>
<feGaussianBlur stdDeviation="4.14286" result="effect1_foregroundBlur_206_1108"/>
</filter>
<filter id="filter2_bi_206_1108" x="59.3636" y="13.3636" width="45.9481" height="30.1299" filterUnits="userSpaceOnUse" color-interpolation-filters="sRGB">
<feFlood flood-opacity="0" result="BackgroundImageFix"/>
<feGaussianBlur in="BackgroundImageFix" stdDeviation="1.31818"/>
<feComposite in2="SourceAlpha" operator="in" result="effect1_backgroundBlur_206_1108"/>
<feBlend mode="normal" in="SourceGraphic" in2="effect1_backgroundBlur_206_1108" result="shape"/>
<feColorMatrix in="SourceAlpha" type="matrix" values="0 0 0 0 0 0 0 0 0 0 0 0 0 0 0 0 0 0 127 0" result="hardAlpha"/>
<feOffset dy="0.753247"/>
<feGaussianBlur stdDeviation="1.50649"/>
<feComposite in2="hardAlpha" operator="arithmetic" k2="-1" k3="1"/>
<feColorMatrix type="matrix" values="0 0 0 0 0 0 0 0 0 0.82 0 0 0 0 1 0 0 0 0.25 0"/>
<feBlend mode="normal" in2="shape" result="effect2_innerShadow_206_1108"/>
</filter>
<filter id="filter3_f_206_1108" x="6.51461" y="67.5238" width="55.0568" height="32.4167" filterUnits="userSpaceOnUse" color-interpolation-filters="sRGB">
<feFlood flood-opacity="0" result="BackgroundImageFix"/>
<feBlend mode="normal" in="SourceGraphic" in2="BackgroundImageFix" result="shape"/>
<feGaussianBlur stdDeviation="5.66005" result="effect1_foregroundBlur_206_1108"/>
</filter>
<filter id="filter4_bi_206_1108" x="2.39815" y="45.3981" width="62.7751" height="41.164" filterUnits="userSpaceOnUse" color-interpolation-filters="sRGB">
<feFlood flood-opacity="0" result="BackgroundImageFix"/>
<feGaussianBlur in="BackgroundImageFix" stdDeviation="1.80093"/>
<feComposite in2="SourceAlpha" operator="in" result="effect1_backgroundBlur_206_1108"/>
<feBlend mode="normal" in="SourceGraphic" in2="effect1_backgroundBlur_206_1108" result="shape"/>
<feColorMatrix in="SourceAlpha" type="matrix" values="0 0 0 0 0 0 0 0 0 0 0 0 0 0 0 0 0 0 127 0" result="hardAlpha"/>
<feOffset dy="1.0291"/>
<feGaussianBlur stdDeviation="2.0582"/>
<feComposite in2="hardAlpha" operator="arithmetic" k2="-1" k3="1"/>
<feColorMatrix type="matrix" values="0 0 0 0 0 0 0 0 0 0.82 0 0 0 0 1 0 0 0 0.25 0"/>
<feBlend mode="normal" in2="shape" result="effect2_innerShadow_206_1108"/>
</filter>
<linearGradient id="paint0_linear_206_1108" x1="53" y1="16" x2="53" y2="80" gradientUnits="userSpaceOnUse">
<stop stop-color="#FDC500"/>
<stop offset="1" stop-color="#FD8900"/>
</linearGradient>
<linearGradient id="paint1_linear_206_1108" x1="41.1874" y1="67.427" x2="38.8081" y2="97.5787" gradientUnits="userSpaceOnUse">
<stop stop-color="#D7F0FF"/>
<stop offset="1" stop-color="#0072DC"/>
</linearGradient>
<linearGradient id="paint2_linear_206_1108" x1="65.9048" y1="88.8667" x2="63.5254" y2="119.018" gradientUnits="userSpaceOnUse">
<stop stop-color="#D7F0FF"/>
<stop offset="1" stop-color="#0072DC"/>
</linearGradient>
<linearGradient id="paint3_linear_206_1108" x1="2.54998" y1="116.248" x2="19.5153" y2="101.928" gradientUnits="userSpaceOnUse">
<stop stop-color="#0056D6"/>
<stop offset="1" stop-color="#ADD8FF"/>
</linearGradient>
<linearGradient id="paint4_linear_206_1108" x1="56.55" y1="96.5202" x2="73.5153" y2="82.2008" gradientUnits="userSpaceOnUse">
<stop stop-color="#0056D6"/>
<stop offset="1" stop-color="#ADD8FF"/>
</linearGradient>
<linearGradient id="paint5_linear_206_1108" x1="83.0909" y1="49.7078" x2="98.3442" y2="16" gradientUnits="userSpaceOnUse">
<stop stop-color="#2BA6FF"/>
<stop offset="0.299998" stop-color="#48B2FF" stop-opacity="0.75"/>
<stop offset="1" stop-color="#3BADFF" stop-opacity="0"/>
</linearGradient>
<linearGradient id="paint6_linear_206_1108" x1="32.7566" y1="95.0522" x2="21.9999" y2="35.5" gradientUnits="userSpaceOnUse">
<stop offset="0.13121" stop-color="#2BA6FF"/>
<stop offset="1" stop-color="#3BADFF" stop-opacity="0"/>
</linearGradient>
</defs>
</svg>
