<svg width="98" height="115" viewBox="0 0 98 115" fill="none" xmlns="http://www.w3.org/2000/svg">
<path d="M55.9697 87.5513L46.3789 98.6679C45.3 99.8412 44.5284 101.252 44.1282 102.783C43.7279 104.315 43.7104 105.923 44.0772 107.475C44.38 108.706 45.0204 109.839 45.93 110.753C46.8395 111.668 47.9838 112.329 49.2404 112.665C50.497 113.002 51.8185 113.002 53.0634 112.665C54.3083 112.328 55.4296 111.666 56.3073 110.752C57.3965 109.59 58.1867 108.193 58.6145 106.671C59.0424 105.15 59.0961 103.546 58.7714 101.988L55.9697 87.5513Z" fill="url(#paint0_linear_206_1058)"/>
<path d="M63.176 57.745L57.5477 64.2249C56.9252 64.9264 56.4816 65.7609 56.2517 66.6631C56.0218 67.5652 56.0119 68.5106 56.2226 69.4252C56.3964 70.1468 56.7701 70.8122 57.3032 71.3495C57.8363 71.8867 58.5084 72.2753 59.2467 72.4732C59.985 72.671 60.7613 72.6705 61.4916 72.4717C62.2219 72.273 62.8782 71.8835 63.3896 71.3456C64.0294 70.6589 64.4934 69.8352 64.7454 68.9389C64.9974 68.0427 65.0305 67.0982 64.8421 66.1794L63.176 57.745Z" fill="url(#paint1_linear_206_1058)"/>
<g filter="url(#filter0_ddi_206_1058)">
<circle cx="48" cy="48" r="32" fill="url(#paint2_linear_206_1058)"/>
</g>
<g filter="url(#filter1_f_206_1058)">
<ellipse cx="77.1493" cy="41.4221" rx="11.8636" ry="3.57792" fill="#004E67" fill-opacity="0.7"/>
</g>
<g filter="url(#filter2_bi_206_1058)">
<path fill-rule="evenodd" clip-rule="evenodd" d="M86 27.2987C86 27.5956 85.9885 27.8898 85.966 28.181C87.2033 27.1593 88.7897 26.5455 90.5196 26.5455C94.4717 26.5455 97.6754 29.7492 97.6754 33.7013C97.6754 37.5271 94.6731 40.6516 90.8961 40.8474V40.8571H90.5345C90.5296 40.8571 90.5246 40.8572 90.5196 40.8572C90.5146 40.8572 90.5096 40.8571 90.5047 40.8571H64.1708C64.1658 40.8571 64.1608 40.8572 64.1558 40.8572C64.1509 40.8572 64.1459 40.8571 64.1409 40.8571H63.4026V40.818C59.8046 40.4416 57 37.399 57 33.7013C57 29.996 59.8162 26.9484 63.4249 26.5823C63.7945 20.676 68.7018 16 74.7013 16C80.9414 16 86 21.0586 86 27.2987Z" fill="url(#paint3_linear_206_1058)"/>
</g>
<g filter="url(#filter3_f_206_1058)">
<ellipse cx="16.2083" cy="4.88823" rx="16.2083" ry="4.88823" transform="matrix(-1 0 0 1 45.2513 78.8439)" fill="#004E67" fill-opacity="0.7"/>
</g>
<g filter="url(#filter4_bi_206_1058)">
<path fill-rule="evenodd" clip-rule="evenodd" d="M16.951 64.4365C16.951 64.8421 16.9666 65.244 16.9973 65.6417C15.3071 64.2459 13.1397 63.4074 10.7764 63.4074C5.37702 63.4074 0.999954 67.7845 0.999954 73.1839C0.999954 78.4106 5.10163 82.6794 10.2618 82.947V82.9603H10.7641C10.7682 82.9603 10.7723 82.9603 10.7764 82.9603C10.7805 82.9603 10.7846 82.9603 10.7888 82.9603H46.7826C46.7867 82.9603 46.7908 82.9603 46.795 82.9603C46.7991 82.9603 46.8032 82.9603 46.8073 82.9603H47.824V82.9068C52.7397 82.3926 56.5714 78.2357 56.5714 73.1839C56.5714 68.1216 52.7238 63.9579 47.7935 63.4578C47.2886 55.3884 40.5841 49 32.3875 49C23.8621 49 16.951 55.9112 16.951 64.4365Z" fill="url(#paint4_linear_206_1058)"/>
</g>
<path fill-rule="evenodd" clip-rule="evenodd" d="M20.3741 93.3753C20.3741 92.0634 19.3106 91 17.9988 91C16.687 91 15.6235 92.0634 15.6235 93.3753V96.2644L13.5806 94.2215C12.653 93.2939 11.1491 93.2939 10.2215 94.2215C9.29392 95.1491 9.29392 96.653 10.2215 97.5806L12.2646 99.6237H9.37525C8.06343 99.6237 6.99999 100.687 6.99999 101.999C6.99999 103.311 8.06343 104.374 9.37525 104.374H12.2644L10.2213 106.417C9.29373 107.345 9.29373 108.849 10.2213 109.776C11.1489 110.704 12.6528 110.704 13.5804 109.776L15.6235 107.733V110.623C15.6235 111.935 16.687 112.998 17.9988 112.998C19.3106 112.998 20.3741 111.935 20.3741 110.623V107.733L22.4173 109.776C23.3449 110.704 24.8489 110.704 25.7765 109.776C26.7041 108.849 26.7041 107.345 25.7765 106.417L23.7334 104.374H26.6227C27.9346 104.374 28.998 103.311 28.998 101.999C28.998 100.687 27.9346 99.6237 26.6227 99.6237H23.7332L25.7763 97.5806C26.7039 96.653 26.7039 95.1491 25.7763 94.2215C24.8487 93.2939 23.3447 93.2939 22.4171 94.2215L20.3741 96.2646V93.3753Z" fill="url(#paint5_linear_206_1058)"/>
<defs>
<filter id="filter0_ddi_206_1058" x="0" y="0" width="96" height="96" filterUnits="userSpaceOnUse" color-interpolation-filters="sRGB">
<feFlood flood-opacity="0" result="BackgroundImageFix"/>
<feColorMatrix in="SourceAlpha" type="matrix" values="0 0 0 0 0 0 0 0 0 0 0 0 0 0 0 0 0 0 127 0" result="hardAlpha"/>
<feOffset/>
<feGaussianBlur stdDeviation="8"/>
<feComposite in2="hardAlpha" operator="out"/>
<feColorMatrix type="matrix" values="0 0 0 0 0.992157 0 0 0 0 0.773882 0 0 0 0 0 0 0 0 1 0"/>
<feBlend mode="normal" in2="BackgroundImageFix" result="effect1_dropShadow_206_1058"/>
<feColorMatrix in="SourceAlpha" type="matrix" values="0 0 0 0 0 0 0 0 0 0 0 0 0 0 0 0 0 0 127 0" result="hardAlpha"/>
<feOffset/>
<feGaussianBlur stdDeviation="5.5"/>
<feComposite in2="hardAlpha" operator="out"/>
<feColorMatrix type="matrix" values="0 0 0 0 0.992157 0 0 0 0 0.772549 0 0 0 0 0 0 0 0 0.45 0"/>
<feBlend mode="normal" in2="effect1_dropShadow_206_1058" result="effect2_dropShadow_206_1058"/>
<feBlend mode="normal" in="SourceGraphic" in2="effect2_dropShadow_206_1058" result="shape"/>
<feColorMatrix in="SourceAlpha" type="matrix" values="0 0 0 0 0 0 0 0 0 0 0 0 0 0 0 0 0 0 127 0" result="hardAlpha"/>
<feOffset dx="-1" dy="3"/>
<feGaussianBlur stdDeviation="2.5"/>
<feComposite in2="hardAlpha" operator="arithmetic" k2="-1" k3="1"/>
<feColorMatrix type="matrix" values="0 0 0 0 1 0 0 0 0 0.9 0 0 0 0 0 0 0 0 0.35 0"/>
<feBlend mode="normal" in2="shape" result="effect3_innerShadow_206_1058"/>
</filter>
<filter id="filter1_f_206_1058" x="57" y="29.5584" width="40.2987" height="23.7273" filterUnits="userSpaceOnUse" color-interpolation-filters="sRGB">
<feFlood flood-opacity="0" result="BackgroundImageFix"/>
<feBlend mode="normal" in="SourceGraphic" in2="BackgroundImageFix" result="shape"/>
<feGaussianBlur stdDeviation="4.14286" result="effect1_foregroundBlur_206_1058"/>
</filter>
<filter id="filter2_bi_206_1058" x="54.3636" y="13.3636" width="45.9481" height="30.1299" filterUnits="userSpaceOnUse" color-interpolation-filters="sRGB">
<feFlood flood-opacity="0" result="BackgroundImageFix"/>
<feGaussianBlur in="BackgroundImageFix" stdDeviation="1.31818"/>
<feComposite in2="SourceAlpha" operator="in" result="effect1_backgroundBlur_206_1058"/>
<feBlend mode="normal" in="SourceGraphic" in2="effect1_backgroundBlur_206_1058" result="shape"/>
<feColorMatrix in="SourceAlpha" type="matrix" values="0 0 0 0 0 0 0 0 0 0 0 0 0 0 0 0 0 0 127 0" result="hardAlpha"/>
<feOffset dy="0.753247"/>
<feGaussianBlur stdDeviation="1.50649"/>
<feComposite in2="hardAlpha" operator="arithmetic" k2="-1" k3="1"/>
<feColorMatrix type="matrix" values="0 0 0 0 0 0 0 0 0 0.82 0 0 0 0 1 0 0 0 0.25 0"/>
<feBlend mode="normal" in2="shape" result="effect2_innerShadow_206_1058"/>
</filter>
<filter id="filter3_f_206_1058" x="1.51455" y="67.5238" width="55.0569" height="32.4167" filterUnits="userSpaceOnUse" color-interpolation-filters="sRGB">
<feFlood flood-opacity="0" result="BackgroundImageFix"/>
<feBlend mode="normal" in="SourceGraphic" in2="BackgroundImageFix" result="shape"/>
<feGaussianBlur stdDeviation="5.66005" result="effect1_foregroundBlur_206_1058"/>
</filter>
<filter id="filter4_bi_206_1058" x="-2.60191" y="45.3981" width="62.7752" height="41.164" filterUnits="userSpaceOnUse" color-interpolation-filters="sRGB">
<feFlood flood-opacity="0" result="BackgroundImageFix"/>
<feGaussianBlur in="BackgroundImageFix" stdDeviation="1.80093"/>
<feComposite in2="SourceAlpha" operator="in" result="effect1_backgroundBlur_206_1058"/>
<feBlend mode="normal" in="SourceGraphic" in2="effect1_backgroundBlur_206_1058" result="shape"/>
<feColorMatrix in="SourceAlpha" type="matrix" values="0 0 0 0 0 0 0 0 0 0 0 0 0 0 0 0 0 0 127 0" result="hardAlpha"/>
<feOffset dy="1.0291"/>
<feGaussianBlur stdDeviation="2.0582"/>
<feComposite in2="hardAlpha" operator="arithmetic" k2="-1" k3="1"/>
<feColorMatrix type="matrix" values="0 0 0 0 0 0 0 0 0 0.82 0 0 0 0 1 0 0 0 0.25 0"/>
<feBlend mode="normal" in2="shape" result="effect2_innerShadow_206_1058"/>
</filter>
<linearGradient id="paint0_linear_206_1058" x1="55.9737" y1="87.5524" x2="44.8977" y2="111.502" gradientUnits="userSpaceOnUse">
<stop stop-color="#D7F0FF"/>
<stop offset="1" stop-color="#0072DC"/>
</linearGradient>
<linearGradient id="paint1_linear_206_1058" x1="63.4751" y1="57.8251" x2="56.7687" y2="76.0579" gradientUnits="userSpaceOnUse">
<stop stop-color="#D7F0FF"/>
<stop offset="1" stop-color="#0072DC"/>
</linearGradient>
<linearGradient id="paint2_linear_206_1058" x1="48" y1="16" x2="48" y2="80" gradientUnits="userSpaceOnUse">
<stop stop-color="#FDC500"/>
<stop offset="1" stop-color="#FD8900"/>
</linearGradient>
<linearGradient id="paint3_linear_206_1058" x1="78.0909" y1="49.7078" x2="93.3442" y2="16" gradientUnits="userSpaceOnUse">
<stop stop-color="#2BA6FF"/>
<stop offset="0.299998" stop-color="#48B2FF" stop-opacity="0.75"/>
<stop offset="1" stop-color="#3BADFF" stop-opacity="0"/>
</linearGradient>
<linearGradient id="paint4_linear_206_1058" x1="27.7566" y1="95.0522" x2="16.9999" y2="35.5" gradientUnits="userSpaceOnUse">
<stop offset="0.13121" stop-color="#2BA6FF"/>
<stop offset="1" stop-color="#3BADFF" stop-opacity="0"/>
</linearGradient>
<linearGradient id="paint5_linear_206_1058" x1="10.1403" y1="108.546" x2="31.0329" y2="90.9119" gradientUnits="userSpaceOnUse">
<stop stop-color="#0056D6"/>
<stop offset="1" stop-color="#ADD8FF"/>
</linearGradient>
</defs>
</svg>
