<svg width="98" height="117" viewBox="0 0 98 117" fill="none" xmlns="http://www.w3.org/2000/svg">
<path d="M56.9698 85.5513L47.379 96.6679C46.3 97.8412 45.5285 99.2519 45.1282 100.783C44.728 102.315 44.7105 103.923 45.0772 105.475C45.38 106.706 46.0205 107.839 46.93 108.753C47.8396 109.668 48.9839 110.329 50.2405 110.665C51.4971 111.002 52.8186 111.002 54.0635 110.665C55.3083 110.328 56.4297 109.666 57.3074 108.752C58.3966 107.59 59.1867 106.193 59.6146 104.671C60.0425 103.15 60.0962 101.546 59.7715 99.9885L56.9698 85.5513Z" fill="url(#paint0_linear_206_879)"/>
<path d="M78.8942 70.1219L71.3951 78.7558C70.5656 79.6904 69.9746 80.8023 69.6683 82.0044C69.362 83.2064 69.3487 84.4661 69.6295 85.6847C69.8611 86.6461 70.359 87.5327 71.0693 88.2485C71.7796 88.9644 72.675 89.4822 73.6588 89.7458C74.6425 90.0094 75.6769 90.0087 76.6499 89.7439C77.623 89.4791 78.4975 88.9602 79.1788 88.2434C80.0312 87.3285 80.6496 86.2309 80.9853 85.0368C81.3211 83.8426 81.3652 82.5841 81.1142 81.36L78.8942 70.1219Z" fill="url(#paint1_linear_206_879)"/>
<path d="M64.176 55.745L58.5478 62.2249C57.9252 62.9264 57.4817 63.7609 57.2518 64.6631C57.0219 65.5652 57.0119 66.5106 57.2226 67.4252C57.3965 68.1468 57.7702 68.8122 58.3033 69.3495C58.8363 69.8867 59.5084 70.2753 60.2467 70.4732C60.985 70.671 61.7614 70.6705 62.4916 70.4717C63.2219 70.273 63.8783 69.8835 64.3896 69.3456C65.0294 68.6589 65.4935 67.8352 65.7455 66.9389C65.9975 66.0427 66.0306 65.0982 65.8422 64.1794L64.176 55.745Z" fill="url(#paint2_linear_206_879)"/>
<g filter="url(#filter0_ddi_206_879)">
<circle cx="48" cy="48" r="32" fill="url(#paint3_linear_206_879)"/>
</g>
<path d="M12.9022 98.6633L22.5139 81.2295C22.592 81.0879 22.7409 81 22.9026 81H35.2775C35.6085 81 35.823 81.3492 35.6733 81.6445L30.7873 91.2841C30.6377 91.5793 30.8522 91.9286 31.1832 91.9286H36L8.8834 115.372C8.50848 115.696 7.96492 115.255 8.20474 114.821L16.4111 99.98C16.5747 99.6842 16.3607 99.3214 16.0227 99.3214H13.2908C12.953 99.3214 12.7391 98.9591 12.9022 98.6633Z" fill="url(#paint4_linear_206_879)"/>
<g filter="url(#filter1_f_206_879)">
<ellipse cx="77.1493" cy="41.4221" rx="11.8636" ry="3.57792" fill="#004E67" fill-opacity="0.7"/>
</g>
<g filter="url(#filter2_bi_206_879)">
<path fill-rule="evenodd" clip-rule="evenodd" d="M86 27.2987C86 27.5956 85.9885 27.8898 85.966 28.181C87.2033 27.1593 88.7897 26.5455 90.5196 26.5455C94.4717 26.5455 97.6754 29.7492 97.6754 33.7013C97.6754 37.5271 94.6731 40.6516 90.8961 40.8474V40.8571H90.5345C90.5296 40.8571 90.5246 40.8572 90.5196 40.8572C90.5146 40.8572 90.5096 40.8571 90.5047 40.8571H64.1708C64.1658 40.8571 64.1608 40.8572 64.1558 40.8572C64.1509 40.8572 64.1459 40.8571 64.1409 40.8571H63.4026V40.818C59.8046 40.4416 57 37.399 57 33.7013C57 29.996 59.8162 26.9484 63.4249 26.5823C63.7945 20.676 68.7018 16 74.7013 16C80.9414 16 86 21.0586 86 27.2987Z" fill="url(#paint5_linear_206_879)"/>
</g>
<g filter="url(#filter3_f_206_879)">
<ellipse cx="16.2083" cy="4.88823" rx="16.2083" ry="4.88823" transform="matrix(-1 0 0 1 45.2514 78.8439)" fill="#004E67" fill-opacity="0.7"/>
</g>
<g filter="url(#filter4_bi_206_879)">
<path fill-rule="evenodd" clip-rule="evenodd" d="M16.951 64.4365C16.951 64.8421 16.9666 65.244 16.9973 65.6417C15.3071 64.2459 13.1397 63.4074 10.7764 63.4074C5.37702 63.4074 0.999954 67.7845 0.999954 73.1839C0.999954 78.4106 5.10163 82.6794 10.2618 82.947V82.9603H10.7641C10.7682 82.9603 10.7723 82.9603 10.7764 82.9603C10.7805 82.9603 10.7846 82.9603 10.7888 82.9603H46.7826C46.7867 82.9603 46.7908 82.9603 46.795 82.9603C46.7991 82.9603 46.8032 82.9603 46.8073 82.9603H47.824V82.9068C52.7397 82.3926 56.5714 78.2357 56.5714 73.1839C56.5714 68.1216 52.7238 63.9579 47.7935 63.4578C47.2886 55.3884 40.5841 49 32.3875 49C23.8621 49 16.951 55.9112 16.951 64.4365Z" fill="url(#paint6_linear_206_879)"/>
</g>
<defs>
<filter id="filter0_ddi_206_879" x="0" y="0" width="96" height="96" filterUnits="userSpaceOnUse" color-interpolation-filters="sRGB">
<feFlood flood-opacity="0" result="BackgroundImageFix"/>
<feColorMatrix in="SourceAlpha" type="matrix" values="0 0 0 0 0 0 0 0 0 0 0 0 0 0 0 0 0 0 127 0" result="hardAlpha"/>
<feOffset/>
<feGaussianBlur stdDeviation="8"/>
<feComposite in2="hardAlpha" operator="out"/>
<feColorMatrix type="matrix" values="0 0 0 0 0.992157 0 0 0 0 0.773882 0 0 0 0 0 0 0 0 1 0"/>
<feBlend mode="normal" in2="BackgroundImageFix" result="effect1_dropShadow_206_879"/>
<feColorMatrix in="SourceAlpha" type="matrix" values="0 0 0 0 0 0 0 0 0 0 0 0 0 0 0 0 0 0 127 0" result="hardAlpha"/>
<feOffset/>
<feGaussianBlur stdDeviation="5.5"/>
<feComposite in2="hardAlpha" operator="out"/>
<feColorMatrix type="matrix" values="0 0 0 0 0.992157 0 0 0 0 0.772549 0 0 0 0 0 0 0 0 0.45 0"/>
<feBlend mode="normal" in2="effect1_dropShadow_206_879" result="effect2_dropShadow_206_879"/>
<feBlend mode="normal" in="SourceGraphic" in2="effect2_dropShadow_206_879" result="shape"/>
<feColorMatrix in="SourceAlpha" type="matrix" values="0 0 0 0 0 0 0 0 0 0 0 0 0 0 0 0 0 0 127 0" result="hardAlpha"/>
<feOffset dx="-1" dy="3"/>
<feGaussianBlur stdDeviation="2.5"/>
<feComposite in2="hardAlpha" operator="arithmetic" k2="-1" k3="1"/>
<feColorMatrix type="matrix" values="0 0 0 0 1 0 0 0 0 0.9 0 0 0 0 0 0 0 0 0.35 0"/>
<feBlend mode="normal" in2="shape" result="effect3_innerShadow_206_879"/>
</filter>
<filter id="filter1_f_206_879" x="57" y="29.5584" width="40.2987" height="23.7273" filterUnits="userSpaceOnUse" color-interpolation-filters="sRGB">
<feFlood flood-opacity="0" result="BackgroundImageFix"/>
<feBlend mode="normal" in="SourceGraphic" in2="BackgroundImageFix" result="shape"/>
<feGaussianBlur stdDeviation="4.14286" result="effect1_foregroundBlur_206_879"/>
</filter>
<filter id="filter2_bi_206_879" x="54.3636" y="13.3636" width="45.9482" height="30.1299" filterUnits="userSpaceOnUse" color-interpolation-filters="sRGB">
<feFlood flood-opacity="0" result="BackgroundImageFix"/>
<feGaussianBlur in="BackgroundImageFix" stdDeviation="1.31818"/>
<feComposite in2="SourceAlpha" operator="in" result="effect1_backgroundBlur_206_879"/>
<feBlend mode="normal" in="SourceGraphic" in2="effect1_backgroundBlur_206_879" result="shape"/>
<feColorMatrix in="SourceAlpha" type="matrix" values="0 0 0 0 0 0 0 0 0 0 0 0 0 0 0 0 0 0 127 0" result="hardAlpha"/>
<feOffset dy="0.753247"/>
<feGaussianBlur stdDeviation="1.50649"/>
<feComposite in2="hardAlpha" operator="arithmetic" k2="-1" k3="1"/>
<feColorMatrix type="matrix" values="0 0 0 0 0 0 0 0 0 0.82 0 0 0 0 1 0 0 0 0.25 0"/>
<feBlend mode="normal" in2="shape" result="effect2_innerShadow_206_879"/>
</filter>
<filter id="filter3_f_206_879" x="1.51458" y="67.5238" width="55.0569" height="32.4167" filterUnits="userSpaceOnUse" color-interpolation-filters="sRGB">
<feFlood flood-opacity="0" result="BackgroundImageFix"/>
<feBlend mode="normal" in="SourceGraphic" in2="BackgroundImageFix" result="shape"/>
<feGaussianBlur stdDeviation="5.66005" result="effect1_foregroundBlur_206_879"/>
</filter>
<filter id="filter4_bi_206_879" x="-2.6019" y="45.3981" width="62.7752" height="41.164" filterUnits="userSpaceOnUse" color-interpolation-filters="sRGB">
<feFlood flood-opacity="0" result="BackgroundImageFix"/>
<feGaussianBlur in="BackgroundImageFix" stdDeviation="1.80093"/>
<feComposite in2="SourceAlpha" operator="in" result="effect1_backgroundBlur_206_879"/>
<feBlend mode="normal" in="SourceGraphic" in2="effect1_backgroundBlur_206_879" result="shape"/>
<feColorMatrix in="SourceAlpha" type="matrix" values="0 0 0 0 0 0 0 0 0 0 0 0 0 0 0 0 0 0 127 0" result="hardAlpha"/>
<feOffset dy="1.0291"/>
<feGaussianBlur stdDeviation="2.0582"/>
<feComposite in2="hardAlpha" operator="arithmetic" k2="-1" k3="1"/>
<feColorMatrix type="matrix" values="0 0 0 0 0 0 0 0 0 0.82 0 0 0 0 1 0 0 0 0.25 0"/>
<feBlend mode="normal" in2="shape" result="effect2_innerShadow_206_879"/>
</filter>
<linearGradient id="paint0_linear_206_879" x1="56.9738" y1="85.5524" x2="45.8978" y2="109.502" gradientUnits="userSpaceOnUse">
<stop stop-color="#D7F0FF"/>
<stop offset="1" stop-color="#0072DC"/>
</linearGradient>
<linearGradient id="paint1_linear_206_879" x1="79.2927" y1="70.2287" x2="70.3571" y2="94.5221" gradientUnits="userSpaceOnUse">
<stop stop-color="#D7F0FF"/>
<stop offset="1" stop-color="#0072DC"/>
</linearGradient>
<linearGradient id="paint2_linear_206_879" x1="64.4751" y1="55.8251" x2="57.7688" y2="74.0579" gradientUnits="userSpaceOnUse">
<stop stop-color="#D7F0FF"/>
<stop offset="1" stop-color="#0072DC"/>
</linearGradient>
<linearGradient id="paint3_linear_206_879" x1="48" y1="16" x2="48" y2="80" gradientUnits="userSpaceOnUse">
<stop stop-color="#FDC500"/>
<stop offset="1" stop-color="#FD8900"/>
</linearGradient>
<linearGradient id="paint4_linear_206_879" x1="21.5" y1="81" x2="21.5" y2="117" gradientUnits="userSpaceOnUse">
<stop stop-color="#F8FD00"/>
<stop offset="1" stop-color="#FD9800"/>
</linearGradient>
<linearGradient id="paint5_linear_206_879" x1="78.0909" y1="49.7078" x2="93.3442" y2="16" gradientUnits="userSpaceOnUse">
<stop stop-color="#2BA6FF"/>
<stop offset="0.299998" stop-color="#48B2FF" stop-opacity="0.75"/>
<stop offset="1" stop-color="#3BADFF" stop-opacity="0"/>
</linearGradient>
<linearGradient id="paint6_linear_206_879" x1="27.7566" y1="95.0522" x2="16.9999" y2="35.5" gradientUnits="userSpaceOnUse">
<stop offset="0.13121" stop-color="#2BA6FF"/>
<stop offset="1" stop-color="#3BADFF" stop-opacity="0"/>
</linearGradient>
</defs>
</svg>
