<svg width="126" height="122" viewBox="0 0 126 122" fill="none" xmlns="http://www.w3.org/2000/svg">
<g filter="url(#filter0_f_207_419)">
<ellipse cx="53.5" cy="88.5" rx="31.5" ry="9.5" fill="#004E67" fill-opacity="0.7"/>
</g>
<g filter="url(#filter1_ddi_207_419)">
<circle cx="84" cy="42" r="26" fill="url(#paint0_linear_207_419)"/>
</g>
<path d="M38.9067 80.8158L28.7525 87.7901C27.6401 88.5447 26.7191 89.545 26.0607 90.714C25.4023 91.8829 25.0241 93.1891 24.9552 94.5318C24.9398 96.4507 25.5809 98.4666 27.9322 99.8242C30.2835 101.182 32.3499 100.729 34.0041 99.7562C35.1324 99.0252 36.0745 98.0445 36.7576 96.8898C37.4407 95.7352 37.8466 94.4374 37.9439 93.0967L38.9067 80.8158Z" fill="url(#paint1_linear_207_419)"/>
<path d="M64.3234 102.088L54.1691 109.062C53.0568 109.817 52.1358 110.817 51.4774 111.986C50.819 113.155 50.4407 114.462 50.3718 115.804C50.3564 117.723 50.9976 119.739 53.3489 121.097C55.7002 122.454 57.7666 122.001 59.4208 121.029C60.5491 120.298 61.4911 119.317 62.1743 118.162C62.8574 117.008 63.2633 115.71 63.3606 114.369L64.3234 102.088Z" fill="url(#paint2_linear_207_419)"/>
<path fill-rule="evenodd" clip-rule="evenodd" d="M23.8063 104.875C23.8063 103.839 22.9668 103 21.9313 103C20.8957 103 20.0563 103.839 20.0563 104.875V107.405L18.2676 105.616C17.5354 104.884 16.3482 104.884 15.6159 105.616C14.8837 106.348 14.8837 107.535 15.6159 108.268L17.4048 110.056H14.875C13.8395 110.056 13 110.896 13 111.931C13 112.967 13.8395 113.806 14.875 113.806H17.4046L15.6158 115.595C14.8836 116.327 14.8836 117.515 15.6158 118.247C16.348 118.979 17.5352 118.979 18.2674 118.247L20.0563 116.458V118.988C20.0563 120.023 20.8957 120.863 21.9313 120.863C22.9668 120.863 23.8063 120.023 23.8063 118.988V116.458L25.5952 118.247C26.3275 118.979 27.5147 118.979 28.2469 118.247C28.9791 117.515 28.9791 116.327 28.2469 115.595L26.4581 113.806H28.9879C30.0234 113.806 30.8629 112.967 30.8629 111.931C30.8629 110.896 30.0234 110.056 28.9879 110.056H26.4579L28.2467 108.268C28.979 107.535 28.979 106.348 28.2467 105.616C27.5145 104.884 26.3273 104.884 25.5951 105.616L23.8063 107.405V104.875Z" fill="url(#paint3_linear_207_419)"/>
<path fill-rule="evenodd" clip-rule="evenodd" d="M71.8063 83.875C71.8063 82.8395 70.9668 82 69.9313 82C68.8957 82 68.0563 82.8395 68.0563 83.875V86.4046L66.2676 84.6159C65.5354 83.8837 64.3482 83.8837 63.6159 84.6159C62.8837 85.3482 62.8837 86.5353 63.6159 87.2676L65.4048 89.0564H62.875C61.8395 89.0564 61 89.8959 61 90.9314C61 91.9669 61.8395 92.8064 62.875 92.8064H65.4046L63.6158 94.5952C62.8836 95.3275 62.8836 96.5146 63.6158 97.2469C64.348 97.9791 65.5352 97.9791 66.2674 97.2469L68.0563 95.458V97.9879C68.0563 99.0234 68.8957 99.8629 69.9313 99.8629C70.9668 99.8629 71.8063 99.0234 71.8063 97.9879V95.4579L73.5952 97.2469C74.3275 97.9791 75.5147 97.9791 76.2469 97.2469C76.9791 96.5146 76.9791 95.3275 76.2469 94.5952L74.4581 92.8064H76.9879C78.0234 92.8064 78.8629 91.9669 78.8629 90.9314C78.8629 89.8959 78.0234 89.0564 76.9879 89.0564H74.4579L76.2467 87.2676C76.979 86.5353 76.979 85.3482 76.2467 84.6159C75.5145 83.8837 74.3273 83.8837 73.5951 84.6159L71.8063 86.4047V83.875Z" fill="url(#paint4_linear_207_419)"/>
<g filter="url(#filter2_bi_207_419)">
<path fill-rule="evenodd" clip-rule="evenodd" d="M77 51C77 51.7882 76.9696 52.5693 76.9099 53.3422C80.1949 50.6296 84.4071 49 89 49C99.4934 49 108 57.5066 108 68C108 78.158 100.029 86.4541 90 86.9741V87H89H19H17V86.896C7.44667 85.8966 0 77.8179 0 68C0 58.1618 7.47752 50.07 17.0593 49.0979C18.0405 33.4156 31.0704 21 47 21C63.5685 21 77 34.4315 77 51Z" fill="url(#paint5_linear_207_419)"/>
</g>
<defs>
<filter id="filter0_f_207_419" x="0" y="57" width="107" height="63" filterUnits="userSpaceOnUse" color-interpolation-filters="sRGB">
<feFlood flood-opacity="0" result="BackgroundImageFix"/>
<feBlend mode="normal" in="SourceGraphic" in2="BackgroundImageFix" result="shape"/>
<feGaussianBlur stdDeviation="11" result="effect1_foregroundBlur_207_419"/>
</filter>
<filter id="filter1_ddi_207_419" x="42" y="0" width="84" height="84" filterUnits="userSpaceOnUse" color-interpolation-filters="sRGB">
<feFlood flood-opacity="0" result="BackgroundImageFix"/>
<feColorMatrix in="SourceAlpha" type="matrix" values="0 0 0 0 0 0 0 0 0 0 0 0 0 0 0 0 0 0 127 0" result="hardAlpha"/>
<feOffset/>
<feGaussianBlur stdDeviation="8"/>
<feComposite in2="hardAlpha" operator="out"/>
<feColorMatrix type="matrix" values="0 0 0 0 0.992157 0 0 0 0 0.773882 0 0 0 0 0 0 0 0 1 0"/>
<feBlend mode="normal" in2="BackgroundImageFix" result="effect1_dropShadow_207_419"/>
<feColorMatrix in="SourceAlpha" type="matrix" values="0 0 0 0 0 0 0 0 0 0 0 0 0 0 0 0 0 0 127 0" result="hardAlpha"/>
<feOffset/>
<feGaussianBlur stdDeviation="5.5"/>
<feComposite in2="hardAlpha" operator="out"/>
<feColorMatrix type="matrix" values="0 0 0 0 0.992157 0 0 0 0 0.772549 0 0 0 0 0 0 0 0 0.45 0"/>
<feBlend mode="normal" in2="effect1_dropShadow_207_419" result="effect2_dropShadow_207_419"/>
<feBlend mode="normal" in="SourceGraphic" in2="effect2_dropShadow_207_419" result="shape"/>
<feColorMatrix in="SourceAlpha" type="matrix" values="0 0 0 0 0 0 0 0 0 0 0 0 0 0 0 0 0 0 127 0" result="hardAlpha"/>
<feOffset dx="-1" dy="3"/>
<feGaussianBlur stdDeviation="2.5"/>
<feComposite in2="hardAlpha" operator="arithmetic" k2="-1" k3="1"/>
<feColorMatrix type="matrix" values="0 0 0 0 1 0 0 0 0 0.9 0 0 0 0 0 0 0 0 0.35 0"/>
<feBlend mode="normal" in2="shape" result="effect3_innerShadow_207_419"/>
</filter>
<filter id="filter2_bi_207_419" x="-7" y="14" width="122" height="80" filterUnits="userSpaceOnUse" color-interpolation-filters="sRGB">
<feFlood flood-opacity="0" result="BackgroundImageFix"/>
<feGaussianBlur in="BackgroundImageFix" stdDeviation="3.5"/>
<feComposite in2="SourceAlpha" operator="in" result="effect1_backgroundBlur_207_419"/>
<feBlend mode="normal" in="SourceGraphic" in2="effect1_backgroundBlur_207_419" result="shape"/>
<feColorMatrix in="SourceAlpha" type="matrix" values="0 0 0 0 0 0 0 0 0 0 0 0 0 0 0 0 0 0 127 0" result="hardAlpha"/>
<feOffset dy="2"/>
<feGaussianBlur stdDeviation="4"/>
<feComposite in2="hardAlpha" operator="arithmetic" k2="-1" k3="1"/>
<feColorMatrix type="matrix" values="0 0 0 0 0 0 0 0 0 0.82 0 0 0 0 1 0 0 0 0.25 0"/>
<feBlend mode="normal" in2="shape" result="effect2_innerShadow_207_419"/>
</filter>
<linearGradient id="paint0_linear_207_419" x1="84" y1="16" x2="84" y2="68" gradientUnits="userSpaceOnUse">
<stop stop-color="#FDC500"/>
<stop offset="1" stop-color="#FD8900"/>
</linearGradient>
<linearGradient id="paint1_linear_207_419" x1="41.4379" y1="72.4786" x2="39.1469" y2="96.1808" gradientUnits="userSpaceOnUse">
<stop stop-color="#D7F0FF"/>
<stop offset="1" stop-color="#0072DC"/>
</linearGradient>
<linearGradient id="paint2_linear_207_419" x1="66.4044" y1="93.8829" x2="64.1134" y2="117.585" gradientUnits="userSpaceOnUse">
<stop stop-color="#D7F0FF"/>
<stop offset="1" stop-color="#0072DC"/>
</linearGradient>
<linearGradient id="paint3_linear_207_419" x1="15.55" y1="117.248" x2="32.5153" y2="102.928" gradientUnits="userSpaceOnUse">
<stop stop-color="#0056D6"/>
<stop offset="1" stop-color="#ADD8FF"/>
</linearGradient>
<linearGradient id="paint4_linear_207_419" x1="63.55" y1="96.2478" x2="80.5153" y2="81.9284" gradientUnits="userSpaceOnUse">
<stop stop-color="#0056D6"/>
<stop offset="1" stop-color="#ADD8FF"/>
</linearGradient>
<linearGradient id="paint5_linear_207_419" x1="56" y1="110.5" x2="96.5" y2="21" gradientUnits="userSpaceOnUse">
<stop stop-color="#0082DF"/>
<stop offset="0.299998" stop-color="#48B2FF" stop-opacity="0.75"/>
<stop offset="1" stop-color="#3BADFF" stop-opacity="0"/>
</linearGradient>
</defs>
</svg>
