<svg width="126" height="125" viewBox="0 0 126 125" fill="none" xmlns="http://www.w3.org/2000/svg">
<g filter="url(#filter0_f_207_736)">
<ellipse cx="53.5" cy="88.5" rx="31.5" ry="9.5" fill="#004E67" fill-opacity="0.7"/>
</g>
<g filter="url(#filter1_ddi_207_736)">
<circle cx="84" cy="42" r="26" fill="url(#paint0_linear_207_736)"/>
</g>
<path fill-rule="evenodd" clip-rule="evenodd" d="M32.8063 105.875C32.8063 104.839 31.9668 104 30.9313 104C29.8957 104 29.0563 104.839 29.0563 105.875V108.405L27.2676 106.616C26.5354 105.884 25.3482 105.884 24.6159 106.616C23.8837 107.348 23.8837 108.535 24.6159 109.268L26.4048 111.056H23.875C22.8395 111.056 22 111.896 22 112.931C22 113.967 22.8395 114.806 23.875 114.806H26.4046L24.6158 116.595C23.8836 117.327 23.8836 118.515 24.6158 119.247C25.348 119.979 26.5352 119.979 27.2674 119.247L29.0563 117.458V119.988C29.0563 121.023 29.8957 121.863 30.9313 121.863C31.9668 121.863 32.8063 121.023 32.8063 119.988V117.458L34.5952 119.247C35.3275 119.979 36.5147 119.979 37.2469 119.247C37.9791 118.515 37.9791 117.327 37.2469 116.595L35.4581 114.806H37.9879C39.0234 114.806 39.8629 113.967 39.8629 112.931C39.8629 111.896 39.0234 111.056 37.9879 111.056H35.4579L37.2467 109.268C37.979 108.535 37.979 107.348 37.2467 106.616C36.5145 105.884 35.3273 105.884 34.5951 106.616L32.8063 108.405V105.875Z" fill="url(#paint1_linear_207_736)"/>
<path fill-rule="evenodd" clip-rule="evenodd" d="M100.806 105.875C100.806 104.839 99.9668 104 98.9313 104C97.8957 104 97.0563 104.839 97.0563 105.875V108.405L95.2676 106.616C94.5354 105.884 93.3482 105.884 92.6159 106.616C91.8837 107.348 91.8837 108.535 92.6159 109.268L94.4048 111.056H91.875C90.8395 111.056 90 111.896 90 112.931C90 113.967 90.8395 114.806 91.875 114.806H94.4046L92.6158 116.595C91.8836 117.327 91.8836 118.515 92.6158 119.247C93.348 119.979 94.5352 119.979 95.2674 119.247L97.0563 117.458V119.988C97.0563 121.023 97.8957 121.863 98.9313 121.863C99.9668 121.863 100.806 121.023 100.806 119.988V117.458L102.595 119.247C103.327 119.979 104.515 119.979 105.247 119.247C105.979 118.515 105.979 117.327 105.247 116.595L103.458 114.806H105.988C107.023 114.806 107.863 113.967 107.863 112.931C107.863 111.896 107.023 111.056 105.988 111.056H103.458L105.247 109.268C105.979 108.535 105.979 107.348 105.247 106.616C104.515 105.884 103.327 105.884 102.595 106.616L100.806 108.405V105.875Z" fill="url(#paint2_linear_207_736)"/>
<path fill-rule="evenodd" clip-rule="evenodd" d="M10.8063 105.875C10.8063 104.839 9.9668 104 8.93127 104C7.89573 104 7.05627 104.839 7.05627 105.875V108.405L5.2676 106.616C4.53536 105.884 3.34818 105.884 2.61595 106.616C1.88371 107.348 1.88371 108.535 2.61595 109.268L4.40478 111.056H1.875C0.839466 111.056 0 111.896 0 112.931C0 113.967 0.839466 114.806 1.875 114.806H4.4046L2.61579 116.595C1.88355 117.327 1.88355 118.515 2.61579 119.247C3.34802 119.979 4.5352 119.979 5.26744 119.247L7.05627 117.458V119.988C7.05627 121.023 7.89573 121.863 8.93127 121.863C9.9668 121.863 10.8063 121.023 10.8063 119.988V117.458L12.5952 119.247C13.3275 119.979 14.5147 119.979 15.2469 119.247C15.9791 118.515 15.9791 117.327 15.2469 116.595L13.4581 114.806H15.9879C17.0234 114.806 17.8629 113.967 17.8629 112.931C17.8629 111.896 17.0234 111.056 15.9879 111.056H13.4579L15.2467 109.268C15.979 108.535 15.979 107.348 15.2467 106.616C14.5145 105.884 13.3273 105.884 12.5951 106.616L10.8063 108.405V105.875Z" fill="url(#paint3_linear_207_736)"/>
<path fill-rule="evenodd" clip-rule="evenodd" d="M78.8063 105.875C78.8063 104.839 77.9668 104 76.9313 104C75.8957 104 75.0563 104.839 75.0563 105.875V108.405L73.2676 106.616C72.5354 105.884 71.3482 105.884 70.6159 106.616C69.8837 107.348 69.8837 108.535 70.6159 109.268L72.4048 111.056H69.875C68.8395 111.056 68 111.896 68 112.931C68 113.967 68.8395 114.806 69.875 114.806H72.4046L70.6158 116.595C69.8836 117.327 69.8836 118.515 70.6158 119.247C71.348 119.979 72.5352 119.979 73.2674 119.247L75.0563 117.458V119.988C75.0563 121.023 75.8957 121.863 76.9313 121.863C77.9668 121.863 78.8063 121.023 78.8063 119.988V117.458L80.5952 119.247C81.3275 119.979 82.5147 119.979 83.2469 119.247C83.9791 118.515 83.9791 117.327 83.2469 116.595L81.4581 114.806H83.9879C85.0234 114.806 85.8629 113.967 85.8629 112.931C85.8629 111.896 85.0234 111.056 83.9879 111.056H81.4579L83.2467 109.268C83.979 108.535 83.979 107.348 83.2467 106.616C82.5145 105.884 81.3273 105.884 80.5951 106.616L78.8063 108.405V105.875Z" fill="url(#paint4_linear_207_736)"/>
<path fill-rule="evenodd" clip-rule="evenodd" d="M92.8063 84.875C92.8063 83.8395 91.9668 83 90.9313 83C89.8957 83 89.0563 83.8395 89.0563 84.875V87.4046L87.2676 85.6159C86.5354 84.8837 85.3482 84.8837 84.6159 85.6159C83.8837 86.3482 83.8837 87.5353 84.6159 88.2676L86.4048 90.0564H83.875C82.8395 90.0564 82 90.8959 82 91.9314C82 92.9669 82.8395 93.8064 83.875 93.8064H86.4046L84.6158 95.5952C83.8836 96.3275 83.8836 97.5146 84.6158 98.2469C85.348 98.9791 86.5352 98.9791 87.2674 98.2469L89.0563 96.458V98.9879C89.0563 100.023 89.8957 100.863 90.9313 100.863C91.9668 100.863 92.8063 100.023 92.8063 98.9879V96.4579L94.5952 98.2469C95.3275 98.9791 96.5147 98.9791 97.2469 98.2469C97.9791 97.5146 97.9791 96.3275 97.2469 95.5952L95.4581 93.8064H97.9879C99.0234 93.8064 99.8629 92.9669 99.8629 91.9314C99.8629 90.8959 99.0234 90.0564 97.9879 90.0564H95.4579L97.2467 88.2676C97.979 87.5353 97.979 86.3482 97.2467 85.6159C96.5145 84.8837 95.3273 84.8837 94.5951 85.6159L92.8063 87.4047V84.875Z" fill="url(#paint5_linear_207_736)"/>
<path fill-rule="evenodd" clip-rule="evenodd" d="M34.8063 84.875C34.8063 83.8395 33.9668 83 32.9313 83C31.8957 83 31.0563 83.8395 31.0563 84.875V87.4046L29.2676 85.6159C28.5354 84.8837 27.3482 84.8837 26.6159 85.6159C25.8837 86.3482 25.8837 87.5353 26.6159 88.2676L28.4048 90.0564H25.875C24.8395 90.0564 24 90.8959 24 91.9314C24 92.9669 24.8395 93.8064 25.875 93.8064H28.4046L26.6158 95.5952C25.8836 96.3275 25.8836 97.5146 26.6158 98.2469C27.348 98.9791 28.5352 98.9791 29.2674 98.2469L31.0563 96.458V98.9879C31.0563 100.023 31.8957 100.863 32.9313 100.863C33.9668 100.863 34.8063 100.023 34.8063 98.9879V96.4579L36.5952 98.2469C37.3275 98.9791 38.5147 98.9791 39.2469 98.2469C39.9791 97.5146 39.9791 96.3275 39.2469 95.5952L37.4581 93.8064H39.9879C41.0234 93.8064 41.8629 92.9669 41.8629 91.9314C41.8629 90.8959 41.0234 90.0564 39.9879 90.0564H37.4579L39.2467 88.2676C39.979 87.5353 39.979 86.3482 39.2467 85.6159C38.5145 84.8837 37.3273 84.8837 36.5951 85.6159L34.8063 87.4047V84.875Z" fill="url(#paint6_linear_207_736)"/>
<path d="M47.8069 100.281L60.9076 76.2315C60.9853 76.0888 61.1348 76 61.2973 76H78.2814C78.6114 76 78.826 76.3474 78.6782 76.6426L71.8724 90.2324C71.7246 90.5276 71.9391 90.875 72.2692 90.875H79L41.8784 123.356C41.5053 123.683 40.959 123.245 41.1967 122.81L52.7873 101.594C52.9489 101.298 52.7349 100.938 52.3979 100.938H48.1966C47.8598 100.938 47.6458 100.577 47.8069 100.281Z" fill="url(#paint7_linear_207_736)"/>
<g filter="url(#filter2_bi_207_736)">
<path fill-rule="evenodd" clip-rule="evenodd" d="M77 51C77 51.7882 76.9696 52.5693 76.9099 53.3422C80.1949 50.6296 84.4071 49 89 49C99.4934 49 108 57.5066 108 68C108 78.158 100.029 86.4541 90 86.9741V87H89H19H17V86.896C7.44667 85.8966 0 77.8179 0 68C0 58.1618 7.47752 50.07 17.0593 49.0979C18.0405 33.4156 31.0704 21 47 21C63.5685 21 77 34.4315 77 51Z" fill="url(#paint8_linear_207_736)"/>
</g>
<defs>
<filter id="filter0_f_207_736" x="0" y="57" width="107" height="63" filterUnits="userSpaceOnUse" color-interpolation-filters="sRGB">
<feFlood flood-opacity="0" result="BackgroundImageFix"/>
<feBlend mode="normal" in="SourceGraphic" in2="BackgroundImageFix" result="shape"/>
<feGaussianBlur stdDeviation="11" result="effect1_foregroundBlur_207_736"/>
</filter>
<filter id="filter1_ddi_207_736" x="42" y="0" width="84" height="84" filterUnits="userSpaceOnUse" color-interpolation-filters="sRGB">
<feFlood flood-opacity="0" result="BackgroundImageFix"/>
<feColorMatrix in="SourceAlpha" type="matrix" values="0 0 0 0 0 0 0 0 0 0 0 0 0 0 0 0 0 0 127 0" result="hardAlpha"/>
<feOffset/>
<feGaussianBlur stdDeviation="8"/>
<feComposite in2="hardAlpha" operator="out"/>
<feColorMatrix type="matrix" values="0 0 0 0 0.992157 0 0 0 0 0.773882 0 0 0 0 0 0 0 0 1 0"/>
<feBlend mode="normal" in2="BackgroundImageFix" result="effect1_dropShadow_207_736"/>
<feColorMatrix in="SourceAlpha" type="matrix" values="0 0 0 0 0 0 0 0 0 0 0 0 0 0 0 0 0 0 127 0" result="hardAlpha"/>
<feOffset/>
<feGaussianBlur stdDeviation="5.5"/>
<feComposite in2="hardAlpha" operator="out"/>
<feColorMatrix type="matrix" values="0 0 0 0 0.992157 0 0 0 0 0.772549 0 0 0 0 0 0 0 0 0.45 0"/>
<feBlend mode="normal" in2="effect1_dropShadow_207_736" result="effect2_dropShadow_207_736"/>
<feBlend mode="normal" in="SourceGraphic" in2="effect2_dropShadow_207_736" result="shape"/>
<feColorMatrix in="SourceAlpha" type="matrix" values="0 0 0 0 0 0 0 0 0 0 0 0 0 0 0 0 0 0 127 0" result="hardAlpha"/>
<feOffset dx="-1" dy="3"/>
<feGaussianBlur stdDeviation="2.5"/>
<feComposite in2="hardAlpha" operator="arithmetic" k2="-1" k3="1"/>
<feColorMatrix type="matrix" values="0 0 0 0 1 0 0 0 0 0.9 0 0 0 0 0 0 0 0 0.35 0"/>
<feBlend mode="normal" in2="shape" result="effect3_innerShadow_207_736"/>
</filter>
<filter id="filter2_bi_207_736" x="-7" y="14" width="122" height="80" filterUnits="userSpaceOnUse" color-interpolation-filters="sRGB">
<feFlood flood-opacity="0" result="BackgroundImageFix"/>
<feGaussianBlur in="BackgroundImageFix" stdDeviation="3.5"/>
<feComposite in2="SourceAlpha" operator="in" result="effect1_backgroundBlur_207_736"/>
<feBlend mode="normal" in="SourceGraphic" in2="effect1_backgroundBlur_207_736" result="shape"/>
<feColorMatrix in="SourceAlpha" type="matrix" values="0 0 0 0 0 0 0 0 0 0 0 0 0 0 0 0 0 0 127 0" result="hardAlpha"/>
<feOffset dy="2"/>
<feGaussianBlur stdDeviation="4"/>
<feComposite in2="hardAlpha" operator="arithmetic" k2="-1" k3="1"/>
<feColorMatrix type="matrix" values="0 0 0 0 0 0 0 0 0 0.82 0 0 0 0 1 0 0 0 0.25 0"/>
<feBlend mode="normal" in2="shape" result="effect2_innerShadow_207_736"/>
</filter>
<linearGradient id="paint0_linear_207_736" x1="84" y1="16" x2="84" y2="68" gradientUnits="userSpaceOnUse">
<stop stop-color="#FDC500"/>
<stop offset="1" stop-color="#FD8900"/>
</linearGradient>
<linearGradient id="paint1_linear_207_736" x1="24.55" y1="118.248" x2="41.5153" y2="103.928" gradientUnits="userSpaceOnUse">
<stop stop-color="#0056D6"/>
<stop offset="1" stop-color="#ADD8FF"/>
</linearGradient>
<linearGradient id="paint2_linear_207_736" x1="92.55" y1="118.248" x2="109.515" y2="103.928" gradientUnits="userSpaceOnUse">
<stop stop-color="#0056D6"/>
<stop offset="1" stop-color="#ADD8FF"/>
</linearGradient>
<linearGradient id="paint3_linear_207_736" x1="2.54998" y1="118.248" x2="19.5153" y2="103.928" gradientUnits="userSpaceOnUse">
<stop stop-color="#0056D6"/>
<stop offset="1" stop-color="#ADD8FF"/>
</linearGradient>
<linearGradient id="paint4_linear_207_736" x1="70.55" y1="118.248" x2="87.5153" y2="103.928" gradientUnits="userSpaceOnUse">
<stop stop-color="#0056D6"/>
<stop offset="1" stop-color="#ADD8FF"/>
</linearGradient>
<linearGradient id="paint5_linear_207_736" x1="84.55" y1="97.2478" x2="101.515" y2="82.9284" gradientUnits="userSpaceOnUse">
<stop stop-color="#0056D6"/>
<stop offset="1" stop-color="#ADD8FF"/>
</linearGradient>
<linearGradient id="paint6_linear_207_736" x1="26.55" y1="97.2478" x2="43.5153" y2="82.9284" gradientUnits="userSpaceOnUse">
<stop stop-color="#0056D6"/>
<stop offset="1" stop-color="#ADD8FF"/>
</linearGradient>
<linearGradient id="paint7_linear_207_736" x1="59.5" y1="76" x2="59.5" y2="125" gradientUnits="userSpaceOnUse">
<stop stop-color="#F8FD00"/>
<stop offset="1" stop-color="#FD9800"/>
</linearGradient>
<linearGradient id="paint8_linear_207_736" x1="56" y1="110.5" x2="96.5" y2="21" gradientUnits="userSpaceOnUse">
<stop stop-color="#0082DF"/>
<stop offset="0.299998" stop-color="#48B2FF" stop-opacity="0.75"/>
<stop offset="1" stop-color="#3BADFF" stop-opacity="0"/>
</linearGradient>
</defs>
</svg>
