<svg width="126" height="127" viewBox="0 0 126 127" fill="none" xmlns="http://www.w3.org/2000/svg">
<g filter="url(#filter0_f_207_478)">
<ellipse cx="53.5" cy="88.5" rx="31.5" ry="9.5" fill="#004E67" fill-opacity="0.7"/>
</g>
<g filter="url(#filter1_ddi_207_478)">
<circle cx="84" cy="42" r="26" fill="url(#paint0_linear_207_478)"/>
</g>
<path d="M37.8069 102.281L50.9076 78.2315C50.9853 78.0888 51.1348 78 51.2973 78H68.2814C68.6114 78 68.826 78.3474 68.6782 78.6426L61.8724 92.2324C61.7246 92.5276 61.9391 92.875 62.2692 92.875H69L31.8784 125.356C31.5053 125.683 30.959 125.245 31.1967 124.81L42.7873 103.594C42.9489 103.298 42.7349 102.938 42.3979 102.938H38.1966C37.8598 102.938 37.6458 102.577 37.8069 102.281Z" fill="url(#paint1_linear_207_478)"/>
<path d="M32.6897 78.582L24.4779 87.7644C23.576 88.7611 22.9184 89.9513 22.5558 91.243C22.1933 92.5346 22.1354 93.8933 22.3867 95.214C22.8265 97.0819 23.9272 98.8884 26.5333 99.65C29.1393 100.412 31.0396 99.4819 32.416 98.1447C33.3389 97.1671 34.0217 95.9911 34.4117 94.7074C34.8017 93.4238 34.8884 92.0668 34.6652 90.7413L32.6897 78.582Z" fill="url(#paint2_linear_207_478)"/>
<path d="M71.6365 99.5666L63.4711 108.79C62.5743 109.792 61.9227 110.985 61.5667 112.279C61.2106 113.572 61.1596 114.931 61.4175 116.25C61.8668 118.116 62.9766 119.917 65.5865 120.665C68.1964 121.414 70.0919 120.475 71.4616 119.13C72.3795 118.148 73.0564 116.969 73.4399 115.683C73.8234 114.397 73.9032 113.04 73.6733 111.716L71.6365 99.5666Z" fill="url(#paint3_linear_207_478)"/>
<path fill-rule="evenodd" clip-rule="evenodd" d="M20.8063 104.875C20.8063 103.839 19.9668 103 18.9313 103C17.8957 103 17.0563 103.839 17.0563 104.875V107.405L15.2676 105.616C14.5354 104.884 13.3482 104.884 12.6159 105.616C11.8837 106.348 11.8837 107.535 12.6159 108.268L14.4048 110.056H11.875C10.8395 110.056 10 110.896 10 111.931C10 112.967 10.8395 113.806 11.875 113.806H14.4046L12.6158 115.595C11.8836 116.327 11.8836 117.515 12.6158 118.247C13.348 118.979 14.5352 118.979 15.2674 118.247L17.0563 116.458V118.988C17.0563 120.023 17.8957 120.863 18.9313 120.863C19.9668 120.863 20.8063 120.023 20.8063 118.988V116.458L22.5952 118.247C23.3275 118.979 24.5147 118.979 25.2469 118.247C25.9791 117.515 25.9791 116.327 25.2469 115.595L23.4581 113.806H25.9879C27.0234 113.806 27.8629 112.967 27.8629 111.931C27.8629 110.896 27.0234 110.056 25.9879 110.056H23.4579L25.2467 108.268C25.979 107.535 25.979 106.348 25.2467 105.616C24.5145 104.884 23.3273 104.884 22.5951 105.616L20.8063 107.405V104.875Z" fill="url(#paint4_linear_207_478)"/>
<path fill-rule="evenodd" clip-rule="evenodd" d="M83.8063 82.875C83.8063 81.8395 82.9668 81 81.9313 81C80.8957 81 80.0563 81.8395 80.0563 82.875V85.4046L78.2676 83.6159C77.5354 82.8837 76.3482 82.8837 75.6159 83.6159C74.8837 84.3482 74.8837 85.5353 75.6159 86.2676L77.4048 88.0564H74.875C73.8395 88.0564 73 88.8959 73 89.9314C73 90.9669 73.8395 91.8064 74.875 91.8064H77.4046L75.6158 93.5952C74.8836 94.3275 74.8836 95.5146 75.6158 96.2469C76.348 96.9791 77.5352 96.9791 78.2674 96.2469L80.0563 94.458V96.9879C80.0563 98.0234 80.8957 98.8629 81.9313 98.8629C82.9668 98.8629 83.8063 98.0234 83.8063 96.9879V94.4579L85.5952 96.2469C86.3275 96.9791 87.5147 96.9791 88.2469 96.2469C88.9791 95.5146 88.9791 94.3275 88.2469 93.5952L86.4581 91.8064H88.9879C90.0234 91.8064 90.8629 90.9669 90.8629 89.9314C90.8629 88.8959 90.0234 88.0564 88.9879 88.0564H86.4579L88.2467 86.2676C88.979 85.5353 88.979 84.3482 88.2467 83.6159C87.5145 82.8837 86.3273 82.8837 85.5951 83.6159L83.8063 85.4047V82.875Z" fill="url(#paint5_linear_207_478)"/>
<g filter="url(#filter2_bi_207_478)">
<path fill-rule="evenodd" clip-rule="evenodd" d="M77 51C77 51.7882 76.9696 52.5693 76.9099 53.3422C80.1949 50.6296 84.4071 49 89 49C99.4934 49 108 57.5066 108 68C108 78.158 100.029 86.4541 90 86.9741V87H89H19H17V86.896C7.44667 85.8966 0 77.8179 0 68C0 58.1618 7.47752 50.07 17.0593 49.0979C18.0405 33.4156 31.0704 21 47 21C63.5685 21 77 34.4315 77 51Z" fill="url(#paint6_linear_207_478)"/>
</g>
<defs>
<filter id="filter0_f_207_478" x="0" y="57" width="107" height="63" filterUnits="userSpaceOnUse" color-interpolation-filters="sRGB">
<feFlood flood-opacity="0" result="BackgroundImageFix"/>
<feBlend mode="normal" in="SourceGraphic" in2="BackgroundImageFix" result="shape"/>
<feGaussianBlur stdDeviation="11" result="effect1_foregroundBlur_207_478"/>
</filter>
<filter id="filter1_ddi_207_478" x="42" y="0" width="84" height="84" filterUnits="userSpaceOnUse" color-interpolation-filters="sRGB">
<feFlood flood-opacity="0" result="BackgroundImageFix"/>
<feColorMatrix in="SourceAlpha" type="matrix" values="0 0 0 0 0 0 0 0 0 0 0 0 0 0 0 0 0 0 127 0" result="hardAlpha"/>
<feOffset/>
<feGaussianBlur stdDeviation="8"/>
<feComposite in2="hardAlpha" operator="out"/>
<feColorMatrix type="matrix" values="0 0 0 0 0.992157 0 0 0 0 0.773882 0 0 0 0 0 0 0 0 1 0"/>
<feBlend mode="normal" in2="BackgroundImageFix" result="effect1_dropShadow_207_478"/>
<feColorMatrix in="SourceAlpha" type="matrix" values="0 0 0 0 0 0 0 0 0 0 0 0 0 0 0 0 0 0 127 0" result="hardAlpha"/>
<feOffset/>
<feGaussianBlur stdDeviation="5.5"/>
<feComposite in2="hardAlpha" operator="out"/>
<feColorMatrix type="matrix" values="0 0 0 0 0.992157 0 0 0 0 0.772549 0 0 0 0 0 0 0 0 0.45 0"/>
<feBlend mode="normal" in2="effect1_dropShadow_207_478" result="effect2_dropShadow_207_478"/>
<feBlend mode="normal" in="SourceGraphic" in2="effect2_dropShadow_207_478" result="shape"/>
<feColorMatrix in="SourceAlpha" type="matrix" values="0 0 0 0 0 0 0 0 0 0 0 0 0 0 0 0 0 0 127 0" result="hardAlpha"/>
<feOffset dx="-1" dy="3"/>
<feGaussianBlur stdDeviation="2.5"/>
<feComposite in2="hardAlpha" operator="arithmetic" k2="-1" k3="1"/>
<feColorMatrix type="matrix" values="0 0 0 0 1 0 0 0 0 0.9 0 0 0 0 0 0 0 0 0.35 0"/>
<feBlend mode="normal" in2="shape" result="effect3_innerShadow_207_478"/>
</filter>
<filter id="filter2_bi_207_478" x="-7" y="14" width="122" height="80" filterUnits="userSpaceOnUse" color-interpolation-filters="sRGB">
<feFlood flood-opacity="0" result="BackgroundImageFix"/>
<feGaussianBlur in="BackgroundImageFix" stdDeviation="3.5"/>
<feComposite in2="SourceAlpha" operator="in" result="effect1_backgroundBlur_207_478"/>
<feBlend mode="normal" in="SourceGraphic" in2="effect1_backgroundBlur_207_478" result="shape"/>
<feColorMatrix in="SourceAlpha" type="matrix" values="0 0 0 0 0 0 0 0 0 0 0 0 0 0 0 0 0 0 127 0" result="hardAlpha"/>
<feOffset dy="2"/>
<feGaussianBlur stdDeviation="4"/>
<feComposite in2="hardAlpha" operator="arithmetic" k2="-1" k3="1"/>
<feColorMatrix type="matrix" values="0 0 0 0 0 0 0 0 0 0.82 0 0 0 0 1 0 0 0 0.25 0"/>
<feBlend mode="normal" in2="shape" result="effect2_innerShadow_207_478"/>
</filter>
<linearGradient id="paint0_linear_207_478" x1="84" y1="16" x2="84" y2="68" gradientUnits="userSpaceOnUse">
<stop stop-color="#FDC500"/>
<stop offset="1" stop-color="#FD8900"/>
</linearGradient>
<linearGradient id="paint1_linear_207_478" x1="49.5" y1="78" x2="49.5" y2="127" gradientUnits="userSpaceOnUse">
<stop stop-color="#F8FD00"/>
<stop offset="1" stop-color="#FD9800"/>
</linearGradient>
<linearGradient id="paint2_linear_207_478" x1="50.2842" y1="71.0228" x2="39.5432" y2="99.2967" gradientUnits="userSpaceOnUse">
<stop stop-color="#D7F0FF"/>
<stop offset="1" stop-color="#0072DC"/>
</linearGradient>
<linearGradient id="paint3_linear_207_478" x1="82.1087" y1="91.5664" x2="79.7293" y2="121.718" gradientUnits="userSpaceOnUse">
<stop stop-color="#D7F0FF"/>
<stop offset="1" stop-color="#0072DC"/>
</linearGradient>
<linearGradient id="paint4_linear_207_478" x1="12.55" y1="117.248" x2="29.5153" y2="102.928" gradientUnits="userSpaceOnUse">
<stop stop-color="#0056D6"/>
<stop offset="1" stop-color="#ADD8FF"/>
</linearGradient>
<linearGradient id="paint5_linear_207_478" x1="75.55" y1="95.2478" x2="92.5153" y2="80.9284" gradientUnits="userSpaceOnUse">
<stop stop-color="#0056D6"/>
<stop offset="1" stop-color="#ADD8FF"/>
</linearGradient>
<linearGradient id="paint6_linear_207_478" x1="56" y1="110.5" x2="96.5" y2="21" gradientUnits="userSpaceOnUse">
<stop stop-color="#0082DF"/>
<stop offset="0.299998" stop-color="#48B2FF" stop-opacity="0.75"/>
<stop offset="1" stop-color="#3BADFF" stop-opacity="0"/>
</linearGradient>
</defs>
</svg>
