<svg width="126" height="128" viewBox="0 0 126 128" fill="none" xmlns="http://www.w3.org/2000/svg">
<g filter="url(#filter0_f_207_247)">
<ellipse cx="53.5" cy="88.5" rx="31.5" ry="9.5" fill="#004E67" fill-opacity="0.7"/>
</g>
<path d="M29.6783 103.282L42.7791 79.232C42.8568 79.0893 43.0063 79.0005 43.1688 79.0005H60.1528C60.4829 79.0005 60.6975 79.3479 60.5497 79.643L53.7438 93.2329C53.596 93.528 53.8106 93.8755 54.1407 93.8755H60.8715L23.7499 126.357C23.3768 126.683 22.8304 126.245 23.0682 125.81L34.6588 104.595C34.8204 104.299 34.6063 103.938 34.2693 103.938H30.0681C29.7313 103.938 29.5172 103.578 29.6783 103.282Z" fill="url(#paint0_linear_207_247)"/>
<g filter="url(#filter1_ddi_207_247)">
<circle cx="84" cy="42" r="26" fill="url(#paint1_linear_207_247)"/>
</g>
<g filter="url(#filter2_bi_207_247)">
<path fill-rule="evenodd" clip-rule="evenodd" d="M77 51C77 51.7882 76.9696 52.5693 76.9099 53.3422C80.1949 50.6296 84.4071 49 89 49C99.4934 49 108 57.5066 108 68C108 78.158 100.029 86.4541 90 86.9741V87H89H19H17V86.896C7.44667 85.8966 0 77.8179 0 68C0 58.1618 7.47752 50.07 17.0593 49.0979C18.0405 33.4156 31.0704 21 47 21C63.5685 21 77 34.4315 77 51Z" fill="url(#paint2_linear_207_247)"/>
</g>
<path fill-rule="evenodd" clip-rule="evenodd" d="M22.4137 71.6219C23.6335 72.2688 24.0979 73.7821 23.451 75.0019L19.7026 82.0694C19.0557 83.2891 17.5424 83.7535 16.3226 83.1066C15.1029 82.4597 14.6385 80.9464 15.2854 79.7266L19.0338 72.6591C19.6807 71.4393 21.194 70.975 22.4137 71.6219ZM32.9402 75.9005C34.1608 76.5459 34.6271 78.0586 33.9817 79.2792L26.9703 92.5397C26.3249 93.7603 24.8123 94.2266 23.5917 93.5812C22.3711 92.9357 21.9048 91.423 22.5502 90.2025L29.5616 76.942C30.207 75.7214 31.7197 75.2551 32.9402 75.9005ZM75.2383 76.234C76.468 76.8619 76.9559 78.3677 76.328 79.5974L63.5945 104.534C62.9666 105.764 61.4607 106.252 60.231 105.624C59.0013 104.996 58.5135 103.49 59.1414 102.261L71.8749 77.3236C72.5028 76.0939 74.0087 75.6061 75.2383 76.234ZM57.9572 110.077C59.1868 110.705 59.6747 112.211 59.0468 113.441L55.8634 119.675C55.2355 120.905 53.7296 121.392 52.5 120.764C51.2703 120.137 50.7825 118.631 51.4104 117.401L54.5937 111.167C55.2216 109.937 56.7275 109.449 57.9572 110.077ZM73.6089 109.835C72.9821 111.066 71.4767 111.555 70.2464 110.928C69.0162 110.301 68.5271 108.796 69.1539 107.566L72.3319 101.328C72.9587 100.098 74.4641 99.6091 75.6944 100.236C76.9246 100.863 77.4137 102.368 76.7869 103.598L73.6089 109.835ZM78.4183 94.8899C79.6485 95.5167 81.1539 95.0276 81.7808 93.7973L88.5907 80.4323C89.2175 79.202 88.7284 77.6966 87.4981 77.0698C86.2679 76.443 84.7625 76.9321 84.1357 78.1623L77.3257 91.5274C76.6989 92.7576 77.188 94.2631 78.4183 94.8899ZM22.2952 101.38C22.9406 100.159 22.4744 98.6463 21.2538 98.0009C20.0332 97.3555 18.5205 97.8218 17.8751 99.0423L14.603 105.23C13.9576 106.451 14.4238 107.964 15.6444 108.609C16.865 109.255 18.3777 108.788 19.0231 107.568L22.2952 101.38ZM13.8811 117.292C14.5265 116.071 14.0602 114.559 12.8397 113.913C11.6191 113.268 10.1064 113.734 9.46098 114.955L6.1888 121.143C5.54338 122.363 6.00964 123.876 7.23021 124.521C8.45079 125.167 9.96348 124.701 10.6089 123.48L13.8811 117.292ZM14.08 92.6706C14.727 91.4509 14.2626 89.9376 13.0428 89.2907C11.823 88.6437 10.3098 89.1081 9.66284 90.3279L0.291902 107.997C-0.355027 109.216 0.109357 110.73 1.32913 111.377C2.54891 112.024 4.06217 111.559 4.7091 110.339L14.08 92.6706Z" fill="url(#paint3_linear_207_247)"/>
<path fill-rule="evenodd" clip-rule="evenodd" d="M29.959 87.0005H24.3282L29.8437 76.3508C30.4787 75.1247 31.9873 74.6456 33.2134 75.2805C34.4394 75.9155 34.9186 77.4241 34.2836 78.6502L29.959 87.0005ZM72.6033 87.0005H66.9922L72.1537 76.8659C72.7803 75.6356 74.2857 75.1461 75.516 75.7728C76.7463 76.3994 77.2358 77.9047 76.6092 79.135L72.6033 87.0005ZM85.4221 86.6693C84.5898 86.8266 83.7383 86.9297 82.8714 86.9746V87.0005H81.8714H79.6412C79.675 86.9113 79.7143 86.8231 79.7591 86.7363L84.3505 77.8527C84.9844 76.6261 86.4927 76.1457 87.7193 76.7796C88.9459 77.4135 89.4263 78.9217 88.7924 80.1482L85.4221 86.6693ZM15.2546 79.6534C14.6122 80.8755 15.0823 82.387 16.3044 83.0294C17.5266 83.6717 19.0382 83.2017 19.6806 81.9795L23.5258 74.6636C24.1682 73.4414 23.6982 71.9299 22.476 71.2875C21.2538 70.6452 19.7422 71.1152 19.0999 72.3374L15.2546 79.6534Z" fill="#A9DDFA"/>
<defs>
<filter id="filter0_f_207_247" x="0" y="57" width="107" height="63" filterUnits="userSpaceOnUse" color-interpolation-filters="sRGB">
<feFlood flood-opacity="0" result="BackgroundImageFix"/>
<feBlend mode="normal" in="SourceGraphic" in2="BackgroundImageFix" result="shape"/>
<feGaussianBlur stdDeviation="11" result="effect1_foregroundBlur_207_247"/>
</filter>
<filter id="filter1_ddi_207_247" x="42" y="0" width="84" height="84" filterUnits="userSpaceOnUse" color-interpolation-filters="sRGB">
<feFlood flood-opacity="0" result="BackgroundImageFix"/>
<feColorMatrix in="SourceAlpha" type="matrix" values="0 0 0 0 0 0 0 0 0 0 0 0 0 0 0 0 0 0 127 0" result="hardAlpha"/>
<feOffset/>
<feGaussianBlur stdDeviation="8"/>
<feComposite in2="hardAlpha" operator="out"/>
<feColorMatrix type="matrix" values="0 0 0 0 0.992157 0 0 0 0 0.773882 0 0 0 0 0 0 0 0 1 0"/>
<feBlend mode="normal" in2="BackgroundImageFix" result="effect1_dropShadow_207_247"/>
<feColorMatrix in="SourceAlpha" type="matrix" values="0 0 0 0 0 0 0 0 0 0 0 0 0 0 0 0 0 0 127 0" result="hardAlpha"/>
<feOffset/>
<feGaussianBlur stdDeviation="5.5"/>
<feComposite in2="hardAlpha" operator="out"/>
<feColorMatrix type="matrix" values="0 0 0 0 0.992157 0 0 0 0 0.772549 0 0 0 0 0 0 0 0 0.45 0"/>
<feBlend mode="normal" in2="effect1_dropShadow_207_247" result="effect2_dropShadow_207_247"/>
<feBlend mode="normal" in="SourceGraphic" in2="effect2_dropShadow_207_247" result="shape"/>
<feColorMatrix in="SourceAlpha" type="matrix" values="0 0 0 0 0 0 0 0 0 0 0 0 0 0 0 0 0 0 127 0" result="hardAlpha"/>
<feOffset dx="-1" dy="3"/>
<feGaussianBlur stdDeviation="2.5"/>
<feComposite in2="hardAlpha" operator="arithmetic" k2="-1" k3="1"/>
<feColorMatrix type="matrix" values="0 0 0 0 1 0 0 0 0 0.9 0 0 0 0 0 0 0 0 0.35 0"/>
<feBlend mode="normal" in2="shape" result="effect3_innerShadow_207_247"/>
</filter>
<filter id="filter2_bi_207_247" x="-7" y="14" width="122" height="80" filterUnits="userSpaceOnUse" color-interpolation-filters="sRGB">
<feFlood flood-opacity="0" result="BackgroundImageFix"/>
<feGaussianBlur in="BackgroundImageFix" stdDeviation="3.5"/>
<feComposite in2="SourceAlpha" operator="in" result="effect1_backgroundBlur_207_247"/>
<feBlend mode="normal" in="SourceGraphic" in2="effect1_backgroundBlur_207_247" result="shape"/>
<feColorMatrix in="SourceAlpha" type="matrix" values="0 0 0 0 0 0 0 0 0 0 0 0 0 0 0 0 0 0 127 0" result="hardAlpha"/>
<feOffset dy="2"/>
<feGaussianBlur stdDeviation="4"/>
<feComposite in2="hardAlpha" operator="arithmetic" k2="-1" k3="1"/>
<feColorMatrix type="matrix" values="0 0 0 0 0 0 0 0 0 0.82 0 0 0 0 1 0 0 0 0.25 0"/>
<feBlend mode="normal" in2="shape" result="effect2_innerShadow_207_247"/>
</filter>
<linearGradient id="paint0_linear_207_247" x1="41.3715" y1="79.0005" x2="41.3715" y2="128" gradientUnits="userSpaceOnUse">
<stop stop-color="#F8FD00"/>
<stop offset="1" stop-color="#FD9800"/>
</linearGradient>
<linearGradient id="paint1_linear_207_247" x1="84" y1="16" x2="84" y2="68" gradientUnits="userSpaceOnUse">
<stop stop-color="#FDC500"/>
<stop offset="1" stop-color="#FD8900"/>
</linearGradient>
<linearGradient id="paint2_linear_207_247" x1="56" y1="110.5" x2="96.5" y2="21" gradientUnits="userSpaceOnUse">
<stop stop-color="#0082DF"/>
<stop offset="0.299998" stop-color="#48B2FF" stop-opacity="0.75"/>
<stop offset="1" stop-color="#3BADFF" stop-opacity="0"/>
</linearGradient>
<linearGradient id="paint3_linear_207_247" x1="46.3714" y1="62.0005" x2="46.3714" y2="117" gradientUnits="userSpaceOnUse">
<stop offset="0.168182" stop-color="#D7F0FF"/>
<stop offset="1" stop-color="#0072DC"/>
</linearGradient>
</defs>
</svg>
