<svg width="126" height="124" viewBox="0 0 126 124" fill="none" xmlns="http://www.w3.org/2000/svg">
<path d="M87.0424 86.1564L76.8208 97.5859C75.6983 98.8266 74.8797 100.308 74.4284 101.916C73.9771 103.524 73.905 105.215 74.2178 106.859C74.7654 109.184 76.1354 111.432 79.3793 112.38C82.6231 113.328 84.9884 112.171 86.7018 110.507C87.8505 109.29 88.7004 107.826 89.1858 106.228C89.6713 104.63 89.7792 102.941 89.5013 101.291L87.0424 86.1564Z" fill="url(#paint0_linear_207_388)"/>
<path fill-rule="evenodd" clip-rule="evenodd" d="M24.3741 92.3753C24.3741 91.0634 23.3106 90 21.9988 90C20.687 90 19.6235 91.0634 19.6235 92.3753V95.2644L17.5806 93.2215C16.653 92.2939 15.1491 92.2939 14.2215 93.2215C13.2939 94.1491 13.2939 95.653 14.2215 96.5806L16.2646 98.6237H13.3753C12.0634 98.6237 11 99.6872 11 100.999C11 102.311 12.0634 103.374 13.3752 103.374H16.2644L14.2213 105.417C13.2937 106.345 13.2937 107.849 14.2213 108.776C15.1489 109.704 16.6528 109.704 17.5804 108.776L19.6235 106.733V109.623C19.6235 110.935 20.687 111.998 21.9988 111.998C23.3106 111.998 24.3741 110.935 24.3741 109.623V106.733L26.4173 108.776C27.3449 109.704 28.8489 109.704 29.7765 108.776C30.7041 107.849 30.7041 106.345 29.7765 105.417L27.7334 103.374H30.6227C31.9346 103.374 32.998 102.311 32.998 100.999C32.998 99.6872 31.9346 98.6237 30.6227 98.6237H27.7332L29.7763 96.5806C30.7039 95.653 30.7039 94.1491 29.7763 93.2215C28.8487 92.2939 27.3447 92.2939 26.4171 93.2215L24.3741 95.2646V92.3753Z" fill="url(#paint1_linear_207_388)"/>
<g filter="url(#filter0_f_207_388)">
<ellipse cx="53.5" cy="88.5" rx="31.5" ry="9.5" fill="#004E67" fill-opacity="0.7"/>
</g>
<path d="M40.8069 99.2814L53.9076 75.2315C53.9853 75.0888 54.1348 75 54.2973 75H71.2814C71.6114 75 71.826 75.3474 71.6782 75.6426L64.8724 89.2324C64.7246 89.5276 64.9391 89.875 65.2692 89.875H72L34.8784 122.356C34.5053 122.683 33.959 122.245 34.1967 121.81L45.7873 100.594C45.9489 100.298 45.7349 99.9375 45.3979 99.9375H41.1966C40.8598 99.9375 40.6458 99.5771 40.8069 99.2814Z" fill="url(#paint2_linear_207_388)"/>
<g filter="url(#filter1_ddi_207_388)">
<circle cx="84" cy="42" r="26" fill="url(#paint3_linear_207_388)"/>
</g>
<g filter="url(#filter2_bi_207_388)">
<path fill-rule="evenodd" clip-rule="evenodd" d="M77 51C77 51.7882 76.9696 52.5693 76.9099 53.3422C80.1949 50.6296 84.4071 49 89 49C99.4934 49 108 57.5066 108 68C108 78.158 100.029 86.4541 90 86.9741V87H89H19H17V86.896C7.44667 85.8966 0 77.8179 0 68C0 58.1618 7.47752 50.07 17.0593 49.0979C18.0405 33.4156 31.0704 21 47 21C63.5685 21 77 34.4315 77 51Z" fill="url(#paint4_linear_207_388)"/>
</g>
<defs>
<filter id="filter0_f_207_388" x="0" y="57" width="107" height="63" filterUnits="userSpaceOnUse" color-interpolation-filters="sRGB">
<feFlood flood-opacity="0" result="BackgroundImageFix"/>
<feBlend mode="normal" in="SourceGraphic" in2="BackgroundImageFix" result="shape"/>
<feGaussianBlur stdDeviation="11" result="effect1_foregroundBlur_207_388"/>
</filter>
<filter id="filter1_ddi_207_388" x="42" y="0" width="84" height="84" filterUnits="userSpaceOnUse" color-interpolation-filters="sRGB">
<feFlood flood-opacity="0" result="BackgroundImageFix"/>
<feColorMatrix in="SourceAlpha" type="matrix" values="0 0 0 0 0 0 0 0 0 0 0 0 0 0 0 0 0 0 127 0" result="hardAlpha"/>
<feOffset/>
<feGaussianBlur stdDeviation="8"/>
<feComposite in2="hardAlpha" operator="out"/>
<feColorMatrix type="matrix" values="0 0 0 0 0.992157 0 0 0 0 0.773882 0 0 0 0 0 0 0 0 1 0"/>
<feBlend mode="normal" in2="BackgroundImageFix" result="effect1_dropShadow_207_388"/>
<feColorMatrix in="SourceAlpha" type="matrix" values="0 0 0 0 0 0 0 0 0 0 0 0 0 0 0 0 0 0 127 0" result="hardAlpha"/>
<feOffset/>
<feGaussianBlur stdDeviation="5.5"/>
<feComposite in2="hardAlpha" operator="out"/>
<feColorMatrix type="matrix" values="0 0 0 0 0.992157 0 0 0 0 0.772549 0 0 0 0 0 0 0 0 0.45 0"/>
<feBlend mode="normal" in2="effect1_dropShadow_207_388" result="effect2_dropShadow_207_388"/>
<feBlend mode="normal" in="SourceGraphic" in2="effect2_dropShadow_207_388" result="shape"/>
<feColorMatrix in="SourceAlpha" type="matrix" values="0 0 0 0 0 0 0 0 0 0 0 0 0 0 0 0 0 0 127 0" result="hardAlpha"/>
<feOffset dx="-1" dy="3"/>
<feGaussianBlur stdDeviation="2.5"/>
<feComposite in2="hardAlpha" operator="arithmetic" k2="-1" k3="1"/>
<feColorMatrix type="matrix" values="0 0 0 0 1 0 0 0 0 0.9 0 0 0 0 0 0 0 0 0.35 0"/>
<feBlend mode="normal" in2="shape" result="effect3_innerShadow_207_388"/>
</filter>
<filter id="filter2_bi_207_388" x="-7" y="14" width="122" height="80" filterUnits="userSpaceOnUse" color-interpolation-filters="sRGB">
<feFlood flood-opacity="0" result="BackgroundImageFix"/>
<feGaussianBlur in="BackgroundImageFix" stdDeviation="3.5"/>
<feComposite in2="SourceAlpha" operator="in" result="effect1_backgroundBlur_207_388"/>
<feBlend mode="normal" in="SourceGraphic" in2="effect1_backgroundBlur_207_388" result="shape"/>
<feColorMatrix in="SourceAlpha" type="matrix" values="0 0 0 0 0 0 0 0 0 0 0 0 0 0 0 0 0 0 127 0" result="hardAlpha"/>
<feOffset dy="2"/>
<feGaussianBlur stdDeviation="4"/>
<feComposite in2="hardAlpha" operator="arithmetic" k2="-1" k3="1"/>
<feColorMatrix type="matrix" values="0 0 0 0 0 0 0 0 0 0.82 0 0 0 0 1 0 0 0 0.25 0"/>
<feBlend mode="normal" in2="shape" result="effect2_innerShadow_207_388"/>
</filter>
<linearGradient id="paint0_linear_207_388" x1="96.6116" y1="72.9866" x2="80.3719" y2="119.367" gradientUnits="userSpaceOnUse">
<stop stop-color="#D7F0FF"/>
<stop offset="1" stop-color="#0072DC"/>
</linearGradient>
<linearGradient id="paint1_linear_207_388" x1="14.1403" y1="107.546" x2="35.0329" y2="89.9119" gradientUnits="userSpaceOnUse">
<stop stop-color="#0056D6"/>
<stop offset="1" stop-color="#ADD8FF"/>
</linearGradient>
<linearGradient id="paint2_linear_207_388" x1="52.5" y1="75" x2="52.5" y2="124" gradientUnits="userSpaceOnUse">
<stop stop-color="#F8FD00"/>
<stop offset="1" stop-color="#FD9800"/>
</linearGradient>
<linearGradient id="paint3_linear_207_388" x1="84" y1="16" x2="84" y2="68" gradientUnits="userSpaceOnUse">
<stop stop-color="#FDC500"/>
<stop offset="1" stop-color="#FD8900"/>
</linearGradient>
<linearGradient id="paint4_linear_207_388" x1="56" y1="110.5" x2="96.5" y2="21" gradientUnits="userSpaceOnUse">
<stop stop-color="#0082DF"/>
<stop offset="0.299998" stop-color="#48B2FF" stop-opacity="0.75"/>
<stop offset="1" stop-color="#3BADFF" stop-opacity="0"/>
</linearGradient>
</defs>
</svg>
