<svg width="126" height="120" viewBox="0 0 126 120" fill="none" xmlns="http://www.w3.org/2000/svg">
<g filter="url(#filter0_f_207_333)">
<ellipse cx="53.5" cy="88.5" rx="31.5" ry="9.5" fill="#004E67" fill-opacity="0.7"/>
</g>
<g filter="url(#filter1_ddi_207_333)">
<circle cx="84" cy="42" r="26" fill="url(#paint0_linear_207_333)"/>
</g>
<g filter="url(#filter2_bi_207_333)">
<path fill-rule="evenodd" clip-rule="evenodd" d="M77 51C77 51.7882 76.9696 52.5693 76.9099 53.3422C80.1949 50.6296 84.4071 49 89 49C99.4934 49 108 57.5066 108 68C108 78.158 100.029 86.4541 90 86.9741V87H89H19H17V86.896C7.44667 85.8966 0 77.8179 0 68C0 58.1618 7.47752 50.07 17.0593 49.0979C18.0405 33.4156 31.0704 21 47 21C63.5685 21 77 34.4315 77 51Z" fill="url(#paint1_linear_207_333)"/>
</g>
<path d="M78.0424 89.1564L67.8208 100.586C66.6983 101.827 65.8798 103.308 65.4284 104.916C64.9771 106.524 64.9051 108.215 65.2179 109.859C65.7654 112.184 67.1354 114.432 70.3793 115.38C73.6232 116.328 75.9884 115.171 77.7018 113.507C78.8506 112.29 79.7004 110.826 80.1859 109.228C80.6713 107.63 80.7792 105.941 80.5014 104.291L78.0424 89.1564Z" fill="url(#paint2_linear_207_333)"/>
<path fill-rule="evenodd" clip-rule="evenodd" d="M35.3741 93.3753C35.3741 92.0634 34.3106 91 32.9988 91C31.687 91 30.6235 92.0634 30.6235 93.3753V96.2644L28.5806 94.2215C27.653 93.2939 26.1491 93.2939 25.2215 94.2215C24.2939 95.1491 24.2939 96.653 25.2215 97.5806L27.2646 99.6237H24.3753C23.0634 99.6237 22 100.687 22 101.999C22 103.311 23.0634 104.374 24.3752 104.374H27.2644L25.2213 106.417C24.2937 107.345 24.2937 108.849 25.2213 109.776C26.1489 110.704 27.6528 110.704 28.5804 109.776L30.6235 107.733V110.623C30.6235 111.935 31.687 112.998 32.9988 112.998C34.3106 112.998 35.3741 111.935 35.3741 110.623V107.733L37.4173 109.776C38.3449 110.704 39.8489 110.704 40.7765 109.776C41.7041 108.849 41.7041 107.345 40.7765 106.417L38.7334 104.374H41.6227C42.9346 104.374 43.998 103.311 43.998 101.999C43.998 100.687 42.9346 99.6237 41.6227 99.6237H38.7332L40.7763 97.5806C41.7039 96.653 41.7039 95.1491 40.7763 94.2215C39.8487 93.2939 38.3447 93.2939 37.4171 94.2215L35.3741 96.2646V93.3753Z" fill="url(#paint3_linear_207_333)"/>
<defs>
<filter id="filter0_f_207_333" x="0" y="57" width="107" height="63" filterUnits="userSpaceOnUse" color-interpolation-filters="sRGB">
<feFlood flood-opacity="0" result="BackgroundImageFix"/>
<feBlend mode="normal" in="SourceGraphic" in2="BackgroundImageFix" result="shape"/>
<feGaussianBlur stdDeviation="11" result="effect1_foregroundBlur_207_333"/>
</filter>
<filter id="filter1_ddi_207_333" x="42" y="0" width="84" height="84" filterUnits="userSpaceOnUse" color-interpolation-filters="sRGB">
<feFlood flood-opacity="0" result="BackgroundImageFix"/>
<feColorMatrix in="SourceAlpha" type="matrix" values="0 0 0 0 0 0 0 0 0 0 0 0 0 0 0 0 0 0 127 0" result="hardAlpha"/>
<feOffset/>
<feGaussianBlur stdDeviation="8"/>
<feComposite in2="hardAlpha" operator="out"/>
<feColorMatrix type="matrix" values="0 0 0 0 0.992157 0 0 0 0 0.773882 0 0 0 0 0 0 0 0 1 0"/>
<feBlend mode="normal" in2="BackgroundImageFix" result="effect1_dropShadow_207_333"/>
<feColorMatrix in="SourceAlpha" type="matrix" values="0 0 0 0 0 0 0 0 0 0 0 0 0 0 0 0 0 0 127 0" result="hardAlpha"/>
<feOffset/>
<feGaussianBlur stdDeviation="5.5"/>
<feComposite in2="hardAlpha" operator="out"/>
<feColorMatrix type="matrix" values="0 0 0 0 0.992157 0 0 0 0 0.772549 0 0 0 0 0 0 0 0 0.45 0"/>
<feBlend mode="normal" in2="effect1_dropShadow_207_333" result="effect2_dropShadow_207_333"/>
<feBlend mode="normal" in="SourceGraphic" in2="effect2_dropShadow_207_333" result="shape"/>
<feColorMatrix in="SourceAlpha" type="matrix" values="0 0 0 0 0 0 0 0 0 0 0 0 0 0 0 0 0 0 127 0" result="hardAlpha"/>
<feOffset dx="-1" dy="3"/>
<feGaussianBlur stdDeviation="2.5"/>
<feComposite in2="hardAlpha" operator="arithmetic" k2="-1" k3="1"/>
<feColorMatrix type="matrix" values="0 0 0 0 1 0 0 0 0 0.9 0 0 0 0 0 0 0 0 0.35 0"/>
<feBlend mode="normal" in2="shape" result="effect3_innerShadow_207_333"/>
</filter>
<filter id="filter2_bi_207_333" x="-7" y="14" width="122" height="80" filterUnits="userSpaceOnUse" color-interpolation-filters="sRGB">
<feFlood flood-opacity="0" result="BackgroundImageFix"/>
<feGaussianBlur in="BackgroundImageFix" stdDeviation="3.5"/>
<feComposite in2="SourceAlpha" operator="in" result="effect1_backgroundBlur_207_333"/>
<feBlend mode="normal" in="SourceGraphic" in2="effect1_backgroundBlur_207_333" result="shape"/>
<feColorMatrix in="SourceAlpha" type="matrix" values="0 0 0 0 0 0 0 0 0 0 0 0 0 0 0 0 0 0 127 0" result="hardAlpha"/>
<feOffset dy="2"/>
<feGaussianBlur stdDeviation="4"/>
<feComposite in2="hardAlpha" operator="arithmetic" k2="-1" k3="1"/>
<feColorMatrix type="matrix" values="0 0 0 0 0 0 0 0 0 0.82 0 0 0 0 1 0 0 0 0.25 0"/>
<feBlend mode="normal" in2="shape" result="effect2_innerShadow_207_333"/>
</filter>
<linearGradient id="paint0_linear_207_333" x1="84" y1="16" x2="84" y2="68" gradientUnits="userSpaceOnUse">
<stop stop-color="#FDC500"/>
<stop offset="1" stop-color="#FD8900"/>
</linearGradient>
<linearGradient id="paint1_linear_207_333" x1="56" y1="110.5" x2="96.5" y2="21" gradientUnits="userSpaceOnUse">
<stop stop-color="#0082DF"/>
<stop offset="0.299998" stop-color="#48B2FF" stop-opacity="0.75"/>
<stop offset="1" stop-color="#3BADFF" stop-opacity="0"/>
</linearGradient>
<linearGradient id="paint2_linear_207_333" x1="82.1734" y1="79.5881" x2="68.8036" y2="114.782" gradientUnits="userSpaceOnUse">
<stop stop-color="#D7F0FF"/>
<stop offset="1" stop-color="#0072DC"/>
</linearGradient>
<linearGradient id="paint3_linear_207_333" x1="25.1403" y1="108.546" x2="46.0329" y2="90.9119" gradientUnits="userSpaceOnUse">
<stop stop-color="#0056D6"/>
<stop offset="1" stop-color="#ADD8FF"/>
</linearGradient>
</defs>
</svg>
