<svg width="126" height="122" viewBox="0 0 126 122" fill="none" xmlns="http://www.w3.org/2000/svg">
<g filter="url(#filter0_f_207_698)">
<ellipse cx="53.5" cy="88.5" rx="31.5" ry="9.5" fill="#004E67" fill-opacity="0.7"/>
</g>
<g filter="url(#filter1_ddi_207_698)">
<circle cx="84" cy="42" r="26" fill="url(#paint0_linear_207_698)"/>
</g>
<path fill-rule="evenodd" clip-rule="evenodd" d="M23.8063 105.875C23.8063 104.839 22.9668 104 21.9313 104C20.8957 104 20.0563 104.839 20.0563 105.875V108.405L18.2676 106.616C17.5354 105.884 16.3482 105.884 15.6159 106.616C14.8837 107.348 14.8837 108.535 15.6159 109.268L17.4048 111.056H14.875C13.8395 111.056 13 111.896 13 112.931C13 113.967 13.8395 114.806 14.875 114.806H17.4046L15.6158 116.595C14.8836 117.327 14.8836 118.515 15.6158 119.247C16.348 119.979 17.5352 119.979 18.2674 119.247L20.0563 117.458V119.988C20.0563 121.023 20.8957 121.863 21.9313 121.863C22.9668 121.863 23.8063 121.023 23.8063 119.988V117.458L25.5952 119.247C26.3275 119.979 27.5147 119.979 28.2469 119.247C28.9791 118.515 28.9791 117.327 28.2469 116.595L26.4581 114.806H28.9879C30.0234 114.806 30.8629 113.967 30.8629 112.931C30.8629 111.896 30.0234 111.056 28.9879 111.056H26.4579L28.2467 109.268C28.979 108.535 28.979 107.348 28.2467 106.616C27.5145 105.884 26.3273 105.884 25.5951 106.616L23.8063 108.405V105.875Z" fill="url(#paint1_linear_207_698)"/>
<path fill-rule="evenodd" clip-rule="evenodd" d="M73.8063 105.875C73.8063 104.839 72.9668 104 71.9313 104C70.8957 104 70.0563 104.839 70.0563 105.875V108.405L68.2676 106.616C67.5354 105.884 66.3482 105.884 65.6159 106.616C64.8837 107.348 64.8837 108.535 65.6159 109.268L67.4048 111.056H64.875C63.8395 111.056 63 111.896 63 112.931C63 113.967 63.8395 114.806 64.875 114.806H67.4046L65.6158 116.595C64.8836 117.327 64.8836 118.515 65.6158 119.247C66.348 119.979 67.5352 119.979 68.2674 119.247L70.0563 117.458V119.988C70.0563 121.023 70.8957 121.863 71.9313 121.863C72.9668 121.863 73.8063 121.023 73.8063 119.988V117.458L75.5952 119.247C76.3275 119.979 77.5147 119.979 78.2469 119.247C78.9791 118.515 78.9791 117.327 78.2469 116.595L76.4581 114.806H78.9879C80.0234 114.806 80.8629 113.967 80.8629 112.931C80.8629 111.896 80.0234 111.056 78.9879 111.056H76.4579L78.2467 109.268C78.979 108.535 78.979 107.348 78.2467 106.616C77.5145 105.884 76.3273 105.884 75.5951 106.616L73.8063 108.405V105.875Z" fill="url(#paint2_linear_207_698)"/>
<path fill-rule="evenodd" clip-rule="evenodd" d="M53.8063 84.875C53.8063 83.8395 52.9668 83 51.9313 83C50.8957 83 50.0563 83.8395 50.0563 84.875V87.4046L48.2676 85.6159C47.5354 84.8837 46.3482 84.8837 45.6159 85.6159C44.8837 86.3482 44.8837 87.5353 45.6159 88.2676L47.4048 90.0564H44.875C43.8395 90.0564 43 90.8959 43 91.9314C43 92.9669 43.8395 93.8064 44.875 93.8064H47.4046L45.6158 95.5952C44.8836 96.3275 44.8836 97.5146 45.6158 98.2469C46.348 98.9791 47.5352 98.9791 48.2674 98.2469L50.0563 96.458V98.9879C50.0563 100.023 50.8957 100.863 51.9313 100.863C52.9668 100.863 53.8063 100.023 53.8063 98.9879V96.4579L55.5952 98.2469C56.3275 98.9791 57.5147 98.9791 58.2469 98.2469C58.9791 97.5146 58.9791 96.3275 58.2469 95.5952L56.4581 93.8064H58.9879C60.0234 93.8064 60.8629 92.9669 60.8629 91.9314C60.8629 90.8959 60.0234 90.0564 58.9879 90.0564H56.4579L58.2467 88.2676C58.979 87.5353 58.979 86.3482 58.2467 85.6159C57.5145 84.8837 56.3273 84.8837 55.5951 85.6159L53.8063 87.4047V84.875Z" fill="url(#paint3_linear_207_698)"/>
<path fill-rule="evenodd" clip-rule="evenodd" d="M48.8063 105.875C48.8063 104.839 47.9668 104 46.9313 104C45.8957 104 45.0563 104.839 45.0563 105.875V108.405L43.2676 106.616C42.5354 105.884 41.3482 105.884 40.6159 106.616C39.8837 107.348 39.8837 108.535 40.6159 109.268L42.4048 111.056H39.875C38.8395 111.056 38 111.896 38 112.931C38 113.967 38.8395 114.806 39.875 114.806H42.4046L40.6158 116.595C39.8836 117.327 39.8836 118.515 40.6158 119.247C41.348 119.979 42.5352 119.979 43.2674 119.247L45.0563 117.458V119.988C45.0563 121.023 45.8957 121.863 46.9313 121.863C47.9668 121.863 48.8063 121.023 48.8063 119.988V117.458L50.5952 119.247C51.3275 119.979 52.5147 119.979 53.2469 119.247C53.9791 118.515 53.9791 117.327 53.2469 116.595L51.4581 114.806H53.9879C55.0234 114.806 55.8629 113.967 55.8629 112.931C55.8629 111.896 55.0234 111.056 53.9879 111.056H51.4579L53.2467 109.268C53.979 108.535 53.979 107.348 53.2467 106.616C52.5145 105.884 51.3273 105.884 50.5951 106.616L48.8063 108.405V105.875Z" fill="url(#paint4_linear_207_698)"/>
<path fill-rule="evenodd" clip-rule="evenodd" d="M78.8063 84.875C78.8063 83.8395 77.9668 83 76.9313 83C75.8957 83 75.0563 83.8395 75.0563 84.875V87.4046L73.2676 85.6159C72.5354 84.8837 71.3482 84.8837 70.6159 85.6159C69.8837 86.3482 69.8837 87.5353 70.6159 88.2676L72.4048 90.0564H69.875C68.8395 90.0564 68 90.8959 68 91.9314C68 92.9669 68.8395 93.8064 69.875 93.8064H72.4046L70.6158 95.5952C69.8836 96.3275 69.8836 97.5146 70.6158 98.2469C71.348 98.9791 72.5352 98.9791 73.2674 98.2469L75.0563 96.458V98.9879C75.0563 100.023 75.8957 100.863 76.9313 100.863C77.9668 100.863 78.8063 100.023 78.8063 98.9879V96.4579L80.5952 98.2469C81.3275 98.9791 82.5147 98.9791 83.2469 98.2469C83.9791 97.5146 83.9791 96.3275 83.2469 95.5952L81.4581 93.8064H83.9879C85.0234 93.8064 85.8629 92.9669 85.8629 91.9314C85.8629 90.8959 85.0234 90.0564 83.9879 90.0564H81.4579L83.2467 88.2676C83.979 87.5353 83.979 86.3482 83.2467 85.6159C82.5145 84.8837 81.3273 84.8837 80.5951 85.6159L78.8063 87.4047V84.875Z" fill="url(#paint5_linear_207_698)"/>
<path fill-rule="evenodd" clip-rule="evenodd" d="M28.8063 84.875C28.8063 83.8395 27.9668 83 26.9313 83C25.8957 83 25.0563 83.8395 25.0563 84.875V87.4046L23.2676 85.6159C22.5354 84.8837 21.3482 84.8837 20.6159 85.6159C19.8837 86.3482 19.8837 87.5353 20.6159 88.2676L22.4048 90.0564H19.875C18.8395 90.0564 18 90.8959 18 91.9314C18 92.9669 18.8395 93.8064 19.875 93.8064H22.4046L20.6158 95.5952C19.8836 96.3275 19.8836 97.5146 20.6158 98.2469C21.348 98.9791 22.5352 98.9791 23.2674 98.2469L25.0563 96.458V98.9879C25.0563 100.023 25.8957 100.863 26.9313 100.863C27.9668 100.863 28.8063 100.023 28.8063 98.9879V96.4579L30.5952 98.2469C31.3275 98.9791 32.5147 98.9791 33.2469 98.2469C33.9791 97.5146 33.9791 96.3275 33.2469 95.5952L31.4581 93.8064H33.9879C35.0234 93.8064 35.8629 92.9669 35.8629 91.9314C35.8629 90.8959 35.0234 90.0564 33.9879 90.0564H31.4579L33.2467 88.2676C33.979 87.5353 33.979 86.3482 33.2467 85.6159C32.5145 84.8837 31.3273 84.8837 30.5951 85.6159L28.8063 87.4047V84.875Z" fill="url(#paint6_linear_207_698)"/>
<g filter="url(#filter2_bi_207_698)">
<path fill-rule="evenodd" clip-rule="evenodd" d="M77 51C77 51.7882 76.9696 52.5693 76.9099 53.3422C80.1949 50.6296 84.4071 49 89 49C99.4934 49 108 57.5066 108 68C108 78.158 100.029 86.4541 90 86.9741V87H89H19H17V86.896C7.44667 85.8966 0 77.8179 0 68C0 58.1618 7.47752 50.07 17.0593 49.0979C18.0405 33.4156 31.0704 21 47 21C63.5685 21 77 34.4315 77 51Z" fill="url(#paint7_linear_207_698)"/>
</g>
<defs>
<filter id="filter0_f_207_698" x="0" y="57" width="107" height="63" filterUnits="userSpaceOnUse" color-interpolation-filters="sRGB">
<feFlood flood-opacity="0" result="BackgroundImageFix"/>
<feBlend mode="normal" in="SourceGraphic" in2="BackgroundImageFix" result="shape"/>
<feGaussianBlur stdDeviation="11" result="effect1_foregroundBlur_207_698"/>
</filter>
<filter id="filter1_ddi_207_698" x="42" y="0" width="84" height="84" filterUnits="userSpaceOnUse" color-interpolation-filters="sRGB">
<feFlood flood-opacity="0" result="BackgroundImageFix"/>
<feColorMatrix in="SourceAlpha" type="matrix" values="0 0 0 0 0 0 0 0 0 0 0 0 0 0 0 0 0 0 127 0" result="hardAlpha"/>
<feOffset/>
<feGaussianBlur stdDeviation="8"/>
<feComposite in2="hardAlpha" operator="out"/>
<feColorMatrix type="matrix" values="0 0 0 0 0.992157 0 0 0 0 0.773882 0 0 0 0 0 0 0 0 1 0"/>
<feBlend mode="normal" in2="BackgroundImageFix" result="effect1_dropShadow_207_698"/>
<feColorMatrix in="SourceAlpha" type="matrix" values="0 0 0 0 0 0 0 0 0 0 0 0 0 0 0 0 0 0 127 0" result="hardAlpha"/>
<feOffset/>
<feGaussianBlur stdDeviation="5.5"/>
<feComposite in2="hardAlpha" operator="out"/>
<feColorMatrix type="matrix" values="0 0 0 0 0.992157 0 0 0 0 0.772549 0 0 0 0 0 0 0 0 0.45 0"/>
<feBlend mode="normal" in2="effect1_dropShadow_207_698" result="effect2_dropShadow_207_698"/>
<feBlend mode="normal" in="SourceGraphic" in2="effect2_dropShadow_207_698" result="shape"/>
<feColorMatrix in="SourceAlpha" type="matrix" values="0 0 0 0 0 0 0 0 0 0 0 0 0 0 0 0 0 0 127 0" result="hardAlpha"/>
<feOffset dx="-1" dy="3"/>
<feGaussianBlur stdDeviation="2.5"/>
<feComposite in2="hardAlpha" operator="arithmetic" k2="-1" k3="1"/>
<feColorMatrix type="matrix" values="0 0 0 0 1 0 0 0 0 0.9 0 0 0 0 0 0 0 0 0.35 0"/>
<feBlend mode="normal" in2="shape" result="effect3_innerShadow_207_698"/>
</filter>
<filter id="filter2_bi_207_698" x="-7" y="14" width="122" height="80" filterUnits="userSpaceOnUse" color-interpolation-filters="sRGB">
<feFlood flood-opacity="0" result="BackgroundImageFix"/>
<feGaussianBlur in="BackgroundImageFix" stdDeviation="3.5"/>
<feComposite in2="SourceAlpha" operator="in" result="effect1_backgroundBlur_207_698"/>
<feBlend mode="normal" in="SourceGraphic" in2="effect1_backgroundBlur_207_698" result="shape"/>
<feColorMatrix in="SourceAlpha" type="matrix" values="0 0 0 0 0 0 0 0 0 0 0 0 0 0 0 0 0 0 127 0" result="hardAlpha"/>
<feOffset dy="2"/>
<feGaussianBlur stdDeviation="4"/>
<feComposite in2="hardAlpha" operator="arithmetic" k2="-1" k3="1"/>
<feColorMatrix type="matrix" values="0 0 0 0 0 0 0 0 0 0.82 0 0 0 0 1 0 0 0 0.25 0"/>
<feBlend mode="normal" in2="shape" result="effect2_innerShadow_207_698"/>
</filter>
<linearGradient id="paint0_linear_207_698" x1="84" y1="16" x2="84" y2="68" gradientUnits="userSpaceOnUse">
<stop stop-color="#FDC500"/>
<stop offset="1" stop-color="#FD8900"/>
</linearGradient>
<linearGradient id="paint1_linear_207_698" x1="15.55" y1="118.248" x2="32.5153" y2="103.928" gradientUnits="userSpaceOnUse">
<stop stop-color="#0056D6"/>
<stop offset="1" stop-color="#ADD8FF"/>
</linearGradient>
<linearGradient id="paint2_linear_207_698" x1="65.55" y1="118.248" x2="82.5153" y2="103.928" gradientUnits="userSpaceOnUse">
<stop stop-color="#0056D6"/>
<stop offset="1" stop-color="#ADD8FF"/>
</linearGradient>
<linearGradient id="paint3_linear_207_698" x1="45.55" y1="97.2478" x2="62.5153" y2="82.9284" gradientUnits="userSpaceOnUse">
<stop stop-color="#0056D6"/>
<stop offset="1" stop-color="#ADD8FF"/>
</linearGradient>
<linearGradient id="paint4_linear_207_698" x1="40.55" y1="118.248" x2="57.5153" y2="103.928" gradientUnits="userSpaceOnUse">
<stop stop-color="#0056D6"/>
<stop offset="1" stop-color="#ADD8FF"/>
</linearGradient>
<linearGradient id="paint5_linear_207_698" x1="70.55" y1="97.2478" x2="87.5153" y2="82.9284" gradientUnits="userSpaceOnUse">
<stop stop-color="#0056D6"/>
<stop offset="1" stop-color="#ADD8FF"/>
</linearGradient>
<linearGradient id="paint6_linear_207_698" x1="20.55" y1="97.2478" x2="37.5153" y2="82.9284" gradientUnits="userSpaceOnUse">
<stop stop-color="#0056D6"/>
<stop offset="1" stop-color="#ADD8FF"/>
</linearGradient>
<linearGradient id="paint7_linear_207_698" x1="56" y1="110.5" x2="96.5" y2="21" gradientUnits="userSpaceOnUse">
<stop stop-color="#0082DF"/>
<stop offset="0.299998" stop-color="#48B2FF" stop-opacity="0.75"/>
<stop offset="1" stop-color="#3BADFF" stop-opacity="0"/>
</linearGradient>
</defs>
</svg>
