<svg width="126" height="120" viewBox="0 0 126 120" fill="none" xmlns="http://www.w3.org/2000/svg">
<g filter="url(#filter0_f_207_175)">
<ellipse cx="53.5" cy="88.5" rx="31.5" ry="9.5" fill="#004E67" fill-opacity="0.7"/>
</g>
<g filter="url(#filter1_ddi_207_175)">
<circle cx="84" cy="42" r="26" fill="url(#paint0_linear_207_175)"/>
</g>
<g filter="url(#filter2_bi_207_175)">
<path fill-rule="evenodd" clip-rule="evenodd" d="M77 51C77 51.7882 76.9696 52.5693 76.9099 53.3422C80.1949 50.6296 84.4071 49 89 49C99.4934 49 108 57.5066 108 68C108 78.158 100.029 86.4541 90 86.9741V87H89H19H17V86.896C7.44667 85.8966 0 77.8179 0 68C0 58.1618 7.47752 50.07 17.0593 49.0979C18.0405 33.4156 31.0704 21 47 21C63.5685 21 77 34.4315 77 51Z" fill="url(#paint1_linear_207_175)"/>
</g>
<path fill-rule="evenodd" clip-rule="evenodd" d="M35.5 63.9C36.8807 63.9 38 65.0193 38 66.4V79.9998C38 81.3805 36.8807 82.4998 35.5 82.4998C34.1193 82.4998 33 81.3805 33 79.9998L33 66.4C33 65.0193 34.1193 63.9 35.5 63.9ZM61.5 68.4333C62.8807 68.4333 64 69.5526 64 70.9333V96.3196C64 97.7003 62.8807 98.8196 61.5 98.8196C60.1193 98.8196 59 97.7003 59 96.3196V70.9333C59 69.5526 60.1193 68.4333 61.5 68.4333ZM48.5 74.7798C49.8807 74.7798 51 75.8991 51 77.2798V85.4397C51 86.8204 49.8807 87.9397 48.5 87.9397C47.1193 87.9397 46 86.8204 46 85.4397V77.2798C46 75.8991 47.1193 74.7798 48.5 74.7798ZM48.5 92.913C49.8807 92.913 51 94.0323 51 95.413V111.733C51 113.113 49.8807 114.233 48.5 114.233C47.1193 114.233 46 113.113 46 111.733V95.413C46 94.0323 47.1193 92.913 48.5 92.913ZM64 105.386C64 104.005 62.8807 102.886 61.5 102.886C60.1193 102.886 59 104.005 59 105.386V111.733C59 113.113 60.1193 114.233 61.5 114.233C62.8807 114.233 64 113.113 64 111.733V105.386ZM77 81.8131C77 80.4324 75.8807 79.3131 74.5 79.3131C73.1193 79.3131 72 80.4324 72 81.8131V88.1597C72 89.5404 73.1193 90.6597 74.5 90.6597C75.8807 90.6597 77 89.5404 77 88.1597V81.8131ZM74.5 95.6329C75.8807 95.6329 77 96.7522 77 98.1329V111.733C77 113.113 75.8807 114.233 74.5 114.233C73.1193 114.233 72 113.113 72 111.733V98.1329C72 96.7522 73.1193 95.6329 74.5 95.6329ZM38 89.0664C38 87.6856 36.8807 86.5664 35.5 86.5664C34.1193 86.5664 33 87.6856 33 89.0664V95.4129C33 96.7937 34.1193 97.9129 35.5 97.9129C36.8807 97.9129 38 96.7937 38 95.4129V89.0664ZM38 105.386C38 104.005 36.8807 102.886 35.5 102.886C34.1193 102.886 33 104.005 33 105.386V111.733C33 113.113 34.1193 114.233 35.5 114.233C36.8807 114.233 38 113.113 38 111.733V105.386ZM21.5 72.9666C22.8807 72.9666 24 74.0859 24 75.4666L24 82.7198C24 84.1005 22.8807 85.2198 21.5 85.2198C20.1193 85.2198 19 84.1005 19 82.7198V75.4666C19 74.0859 20.1193 72.9666 21.5 72.9666ZM24 93.5997C24 92.219 22.8807 91.0997 21.5 91.0997C20.1193 91.0997 19 92.219 19 93.5997V111.733C19 113.113 20.1193 114.233 21.5 114.233C22.8807 114.233 24 113.113 24 111.733L24 93.5997Z" fill="url(#paint2_linear_207_175)"/>
<path fill-rule="evenodd" clip-rule="evenodd" d="M36.5562 86.7998H34.4438C34.7647 86.65 35.1226 86.5664 35.5 86.5664C35.8774 86.5664 36.2353 86.65 36.5562 86.7998ZM50.598 86.7998H46.402C46.1477 86.4083 46 85.9413 46 85.4397V77.2798C46 75.8991 47.1193 74.7798 48.5 74.7798C49.8807 74.7798 51 75.8991 51 77.2798V85.4397C51 85.9413 50.8523 86.4083 50.598 86.7998ZM64 86.7998H59V70.9333C59 69.5526 60.1193 68.4333 61.5 68.4333C62.8807 68.4333 64 69.5526 64 70.9333V86.7998ZM77 86.7998H72V81.8131C72 80.4324 73.1193 79.3131 74.5 79.3131C75.8807 79.3131 77 80.4324 77 81.8131V86.7998ZM38 66.4C38 65.0193 36.8807 63.9 35.5 63.9C34.1193 63.9 33 65.0193 33 66.4L33 79.9998C33 81.3805 34.1193 82.4998 35.5 82.4998C36.8807 82.4998 38 81.3805 38 79.9998V66.4ZM24 75.4666C24 74.0859 22.8807 72.9666 21.5 72.9666C20.1193 72.9666 19 74.0859 19 75.4666V82.7198C19 84.1005 20.1193 85.2198 21.5 85.2198C22.8807 85.2198 24 84.1005 24 82.7198L24 75.4666Z" fill="#A9DDFA"/>
<defs>
<filter id="filter0_f_207_175" x="0" y="57" width="107" height="63" filterUnits="userSpaceOnUse" color-interpolation-filters="sRGB">
<feFlood flood-opacity="0" result="BackgroundImageFix"/>
<feBlend mode="normal" in="SourceGraphic" in2="BackgroundImageFix" result="shape"/>
<feGaussianBlur stdDeviation="11" result="effect1_foregroundBlur_207_175"/>
</filter>
<filter id="filter1_ddi_207_175" x="42" y="0" width="84" height="84" filterUnits="userSpaceOnUse" color-interpolation-filters="sRGB">
<feFlood flood-opacity="0" result="BackgroundImageFix"/>
<feColorMatrix in="SourceAlpha" type="matrix" values="0 0 0 0 0 0 0 0 0 0 0 0 0 0 0 0 0 0 127 0" result="hardAlpha"/>
<feOffset/>
<feGaussianBlur stdDeviation="8"/>
<feComposite in2="hardAlpha" operator="out"/>
<feColorMatrix type="matrix" values="0 0 0 0 0.992157 0 0 0 0 0.773882 0 0 0 0 0 0 0 0 1 0"/>
<feBlend mode="normal" in2="BackgroundImageFix" result="effect1_dropShadow_207_175"/>
<feColorMatrix in="SourceAlpha" type="matrix" values="0 0 0 0 0 0 0 0 0 0 0 0 0 0 0 0 0 0 127 0" result="hardAlpha"/>
<feOffset/>
<feGaussianBlur stdDeviation="5.5"/>
<feComposite in2="hardAlpha" operator="out"/>
<feColorMatrix type="matrix" values="0 0 0 0 0.992157 0 0 0 0 0.772549 0 0 0 0 0 0 0 0 0.45 0"/>
<feBlend mode="normal" in2="effect1_dropShadow_207_175" result="effect2_dropShadow_207_175"/>
<feBlend mode="normal" in="SourceGraphic" in2="effect2_dropShadow_207_175" result="shape"/>
<feColorMatrix in="SourceAlpha" type="matrix" values="0 0 0 0 0 0 0 0 0 0 0 0 0 0 0 0 0 0 127 0" result="hardAlpha"/>
<feOffset dx="-1" dy="3"/>
<feGaussianBlur stdDeviation="2.5"/>
<feComposite in2="hardAlpha" operator="arithmetic" k2="-1" k3="1"/>
<feColorMatrix type="matrix" values="0 0 0 0 1 0 0 0 0 0.9 0 0 0 0 0 0 0 0 0.35 0"/>
<feBlend mode="normal" in2="shape" result="effect3_innerShadow_207_175"/>
</filter>
<filter id="filter2_bi_207_175" x="-7" y="14" width="122" height="80" filterUnits="userSpaceOnUse" color-interpolation-filters="sRGB">
<feFlood flood-opacity="0" result="BackgroundImageFix"/>
<feGaussianBlur in="BackgroundImageFix" stdDeviation="3.5"/>
<feComposite in2="SourceAlpha" operator="in" result="effect1_backgroundBlur_207_175"/>
<feBlend mode="normal" in="SourceGraphic" in2="effect1_backgroundBlur_207_175" result="shape"/>
<feColorMatrix in="SourceAlpha" type="matrix" values="0 0 0 0 0 0 0 0 0 0 0 0 0 0 0 0 0 0 127 0" result="hardAlpha"/>
<feOffset dy="2"/>
<feGaussianBlur stdDeviation="4"/>
<feComposite in2="hardAlpha" operator="arithmetic" k2="-1" k3="1"/>
<feColorMatrix type="matrix" values="0 0 0 0 0 0 0 0 0 0.82 0 0 0 0 1 0 0 0 0.25 0"/>
<feBlend mode="normal" in2="shape" result="effect2_innerShadow_207_175"/>
</filter>
<linearGradient id="paint0_linear_207_175" x1="84" y1="16" x2="84" y2="68" gradientUnits="userSpaceOnUse">
<stop stop-color="#FDC500"/>
<stop offset="1" stop-color="#FD8900"/>
</linearGradient>
<linearGradient id="paint1_linear_207_175" x1="56" y1="110.5" x2="96.5" y2="21" gradientUnits="userSpaceOnUse">
<stop stop-color="#0082DF"/>
<stop offset="0.299998" stop-color="#48B2FF" stop-opacity="0.75"/>
<stop offset="1" stop-color="#3BADFF" stop-opacity="0"/>
</linearGradient>
<linearGradient id="paint2_linear_207_175" x1="48" y1="63.9" x2="48" y2="114.233" gradientUnits="userSpaceOnUse">
<stop offset="0.168182" stop-color="#D7F0FF"/>
<stop offset="1" stop-color="#0072DC"/>
</linearGradient>
</defs>
</svg>
