<svg width="126" height="124" viewBox="0 0 126 124" fill="none" xmlns="http://www.w3.org/2000/svg">
<g filter="url(#filter0_f_207_629)">
<ellipse cx="53.5" cy="88.5" rx="31.5" ry="9.5" fill="#004E67" fill-opacity="0.7"/>
</g>
<g filter="url(#filter1_ddi_207_629)">
<circle cx="84" cy="42" r="26" fill="url(#paint0_linear_207_629)"/>
</g>
<path fill-rule="evenodd" clip-rule="evenodd" d="M37.8166 76.8158C37.8166 75.2607 36.556 74 35.0008 74C33.4457 74 32.185 75.2607 32.185 76.8158V80.2029L29.79 77.8079C28.6903 76.7082 26.9074 76.7082 25.8078 77.8079C24.7082 78.9075 24.7082 80.6904 25.8078 81.79L28.203 84.1852H24.8158C23.2607 84.1852 22 85.4459 22 87.001C22 88.5561 23.2607 89.8168 24.8158 89.8168H28.2028L25.8077 92.2119C24.7081 93.3116 24.7081 95.0944 25.8077 96.1941C26.9074 97.2937 28.6902 97.2937 29.7899 96.1941L32.185 93.7989V97.1862C32.185 98.7413 33.4457 100.002 35.0008 100.002C36.556 100.002 37.8166 98.7413 37.8166 97.1862V93.7989L40.2118 96.1941C41.3115 97.2937 43.0944 97.2937 44.194 96.1941C45.2936 95.0944 45.2936 93.3116 44.194 92.2119L41.7989 89.8168H45.1862C46.7413 89.8168 48.002 88.5561 48.002 87.001C48.002 85.4459 46.7413 84.1852 45.1862 84.1852H41.7988L44.1939 81.79C45.2936 80.6904 45.2936 78.9075 44.1939 77.8079C43.0943 76.7082 41.3114 76.7082 40.2118 77.8079L37.8166 80.203V76.8158Z" fill="url(#paint1_linear_207_629)"/>
<path fill-rule="evenodd" clip-rule="evenodd" d="M72.2649 71.2391C72.2649 69.4502 70.8147 68 69.0258 68C67.2369 68 65.7868 69.4502 65.7868 71.2391V75.1789L63.0009 72.3931C61.736 71.1281 59.6851 71.1281 58.4202 72.3931C57.1553 73.658 57.1553 75.7089 58.4202 76.9738L61.2063 79.7599H57.2662C55.4773 79.7599 54.0271 81.2101 54.0271 82.999C54.0271 84.7879 55.4773 86.238 57.2662 86.238H61.206L58.4199 89.0241C57.155 90.2891 57.155 92.3399 58.4199 93.6049C59.6849 94.8698 61.7357 94.8698 63.0006 93.6049L65.7868 90.8187V94.7589C65.7868 96.5478 67.2369 97.998 69.0258 97.998C70.8147 97.998 72.2649 96.5478 72.2649 94.7589V90.8185L75.0513 93.6049C76.3162 94.8698 78.3671 94.8698 79.632 93.6049C80.8969 92.3399 80.8969 90.2891 79.632 89.0241L76.8459 86.238H80.786C82.5749 86.238 84.0251 84.7879 84.0251 82.999C84.0251 81.2101 82.5749 79.7599 80.786 79.7599H76.8456L79.6317 76.9738C80.8966 75.7089 80.8966 73.658 79.6317 72.3931C78.3668 71.1281 76.3159 71.1281 75.051 72.3931L72.2649 75.1791V71.2391Z" fill="url(#paint2_linear_207_629)"/>
<path fill-rule="evenodd" clip-rule="evenodd" d="M59.3741 104.375C59.3741 103.063 58.3106 102 56.9988 102C55.687 102 54.6235 103.063 54.6235 104.375V107.264L52.5806 105.221C51.653 104.294 50.1491 104.294 49.2215 105.221C48.2939 106.149 48.2939 107.653 49.2215 108.581L51.2646 110.624H48.3753C47.0634 110.624 46 111.687 46 112.999C46 114.311 47.0634 115.374 48.3753 115.374H51.2644L49.2213 117.417C48.2937 118.345 48.2937 119.849 49.2213 120.776C50.1489 121.704 51.6529 121.704 52.5804 120.776L54.6235 118.733V121.623C54.6235 122.935 55.687 123.998 56.9988 123.998C58.3106 123.998 59.3741 122.935 59.3741 121.623V118.733L61.4173 120.776C62.3449 121.704 63.8489 121.704 64.7765 120.776C65.7041 119.849 65.7041 118.345 64.7765 117.417L62.7334 115.374H65.6227C66.9346 115.374 67.998 114.311 67.998 112.999C67.998 111.687 66.9346 110.624 65.6227 110.624H62.7332L64.7763 108.581C65.7039 107.653 65.7039 106.149 64.7763 105.221C63.8487 104.294 62.3447 104.294 61.4171 105.221L59.3741 107.265V104.375Z" fill="url(#paint3_linear_207_629)"/>
<g filter="url(#filter2_bi_207_629)">
<path fill-rule="evenodd" clip-rule="evenodd" d="M77 51C77 51.7882 76.9696 52.5693 76.9099 53.3422C80.1949 50.6296 84.4071 49 89 49C99.4934 49 108 57.5066 108 68C108 78.158 100.029 86.4541 90 86.9741V87H89H19H17V86.896C7.44667 85.8966 0 77.8179 0 68C0 58.1618 7.47752 50.07 17.0593 49.0979C18.0405 33.4156 31.0704 21 47 21C63.5685 21 77 34.4315 77 51Z" fill="url(#paint4_linear_207_629)"/>
</g>
<path fill-rule="evenodd" clip-rule="evenodd" d="M48.0021 87H22.0001C22.0007 85.4453 23.2611 84.1852 24.8159 84.1852H28.2031L25.8079 81.79C24.7083 80.6904 24.7083 78.9075 25.8079 77.8079C26.9076 76.7082 28.6904 76.7082 29.7901 77.8079L32.1851 80.2029V76.8158C32.1851 75.2607 33.4458 74 35.0009 74C36.5561 74 37.8168 75.2607 37.8168 76.8158V80.203L40.2119 77.8079C41.3115 76.7082 43.0944 76.7082 44.194 77.8079C45.2937 78.9075 45.2937 80.6904 44.194 81.79L41.7989 84.1852H45.1863C46.7411 84.1852 48.0016 85.4453 48.0021 87Z" fill="#A9DDFA"/>
<defs>
<filter id="filter0_f_207_629" x="0" y="57" width="107" height="63" filterUnits="userSpaceOnUse" color-interpolation-filters="sRGB">
<feFlood flood-opacity="0" result="BackgroundImageFix"/>
<feBlend mode="normal" in="SourceGraphic" in2="BackgroundImageFix" result="shape"/>
<feGaussianBlur stdDeviation="11" result="effect1_foregroundBlur_207_629"/>
</filter>
<filter id="filter1_ddi_207_629" x="42" y="0" width="84" height="84" filterUnits="userSpaceOnUse" color-interpolation-filters="sRGB">
<feFlood flood-opacity="0" result="BackgroundImageFix"/>
<feColorMatrix in="SourceAlpha" type="matrix" values="0 0 0 0 0 0 0 0 0 0 0 0 0 0 0 0 0 0 127 0" result="hardAlpha"/>
<feOffset/>
<feGaussianBlur stdDeviation="8"/>
<feComposite in2="hardAlpha" operator="out"/>
<feColorMatrix type="matrix" values="0 0 0 0 0.992157 0 0 0 0 0.773882 0 0 0 0 0 0 0 0 1 0"/>
<feBlend mode="normal" in2="BackgroundImageFix" result="effect1_dropShadow_207_629"/>
<feColorMatrix in="SourceAlpha" type="matrix" values="0 0 0 0 0 0 0 0 0 0 0 0 0 0 0 0 0 0 127 0" result="hardAlpha"/>
<feOffset/>
<feGaussianBlur stdDeviation="5.5"/>
<feComposite in2="hardAlpha" operator="out"/>
<feColorMatrix type="matrix" values="0 0 0 0 0.992157 0 0 0 0 0.772549 0 0 0 0 0 0 0 0 0.45 0"/>
<feBlend mode="normal" in2="effect1_dropShadow_207_629" result="effect2_dropShadow_207_629"/>
<feBlend mode="normal" in="SourceGraphic" in2="effect2_dropShadow_207_629" result="shape"/>
<feColorMatrix in="SourceAlpha" type="matrix" values="0 0 0 0 0 0 0 0 0 0 0 0 0 0 0 0 0 0 127 0" result="hardAlpha"/>
<feOffset dx="-1" dy="3"/>
<feGaussianBlur stdDeviation="2.5"/>
<feComposite in2="hardAlpha" operator="arithmetic" k2="-1" k3="1"/>
<feColorMatrix type="matrix" values="0 0 0 0 1 0 0 0 0 0.9 0 0 0 0 0 0 0 0 0.35 0"/>
<feBlend mode="normal" in2="shape" result="effect3_innerShadow_207_629"/>
</filter>
<filter id="filter2_bi_207_629" x="-7" y="14" width="122" height="80" filterUnits="userSpaceOnUse" color-interpolation-filters="sRGB">
<feFlood flood-opacity="0" result="BackgroundImageFix"/>
<feGaussianBlur in="BackgroundImageFix" stdDeviation="3.5"/>
<feComposite in2="SourceAlpha" operator="in" result="effect1_backgroundBlur_207_629"/>
<feBlend mode="normal" in="SourceGraphic" in2="effect1_backgroundBlur_207_629" result="shape"/>
<feColorMatrix in="SourceAlpha" type="matrix" values="0 0 0 0 0 0 0 0 0 0 0 0 0 0 0 0 0 0 127 0" result="hardAlpha"/>
<feOffset dy="2"/>
<feGaussianBlur stdDeviation="4"/>
<feComposite in2="hardAlpha" operator="arithmetic" k2="-1" k3="1"/>
<feColorMatrix type="matrix" values="0 0 0 0 0 0 0 0 0 0.82 0 0 0 0 1 0 0 0 0.25 0"/>
<feBlend mode="normal" in2="shape" result="effect2_innerShadow_207_629"/>
</filter>
<linearGradient id="paint0_linear_207_629" x1="84" y1="16" x2="84" y2="68" gradientUnits="userSpaceOnUse">
<stop stop-color="#FDC500"/>
<stop offset="1" stop-color="#FD8900"/>
</linearGradient>
<linearGradient id="paint1_linear_207_629" x1="25.7119" y1="94.7397" x2="50.4073" y2="73.8958" gradientUnits="userSpaceOnUse">
<stop stop-color="#0056D6"/>
<stop offset="1" stop-color="#ADD8FF"/>
</linearGradient>
<linearGradient id="paint2_linear_207_629" x1="58.3094" y1="91.927" x2="86.8" y2="67.8798" gradientUnits="userSpaceOnUse">
<stop stop-color="#0056D6"/>
<stop offset="1" stop-color="#ADD8FF"/>
</linearGradient>
<linearGradient id="paint3_linear_207_629" x1="49.1403" y1="119.546" x2="70.0329" y2="101.912" gradientUnits="userSpaceOnUse">
<stop stop-color="#0056D6"/>
<stop offset="1" stop-color="#ADD8FF"/>
</linearGradient>
<linearGradient id="paint4_linear_207_629" x1="56" y1="110.5" x2="96.5" y2="21" gradientUnits="userSpaceOnUse">
<stop stop-color="#0082DF"/>
<stop offset="0.299998" stop-color="#48B2FF" stop-opacity="0.75"/>
<stop offset="1" stop-color="#3BADFF" stop-opacity="0"/>
</linearGradient>
</defs>
</svg>
