<svg width="126" height="127" viewBox="0 0 126 127" fill="none" xmlns="http://www.w3.org/2000/svg">
<g filter="url(#filter0_f_207_509)">
<ellipse cx="53.5" cy="88.5" rx="31.5" ry="9.5" fill="#004E67" fill-opacity="0.7"/>
</g>
<g filter="url(#filter1_ddi_207_509)">
<circle cx="84" cy="42" r="26" fill="url(#paint0_linear_207_509)"/>
</g>
<path d="M33.6206 80.6562L23.679 87.9304C22.5897 88.7179 21.699 89.7453 21.0758 90.9334C20.4525 92.1214 20.1134 93.4383 20.0846 94.7824C20.1265 96.701 20.8275 98.6969 23.2182 99.9837C25.609 101.27 27.661 100.756 29.2854 99.7345C30.3914 98.9702 31.3038 97.9618 31.9521 96.7873C32.6005 95.6127 32.9675 94.3034 33.0247 92.9605L33.6206 80.6562Z" fill="url(#paint1_linear_207_509)"/>
<path d="M86.6206 80.6562L76.679 87.9304C75.5897 88.7179 74.699 89.7453 74.0758 90.9334C73.4525 92.1214 73.1134 93.4383 73.0846 94.7824C73.1265 96.701 73.8275 98.6969 76.2182 99.9837C78.609 101.27 80.661 100.756 82.2854 99.7345C83.3914 98.9702 84.3038 97.9618 84.9521 96.7873C85.6005 95.6127 85.9675 94.3034 86.0247 92.9605L86.6206 80.6562Z" fill="url(#paint2_linear_207_509)"/>
<path d="M51.7578 103.9L41.8532 111.224C40.7678 112.017 39.8823 113.049 39.2651 114.24C38.6479 115.431 38.3154 116.75 38.2934 118.094C38.345 120.012 39.0561 122.005 41.4534 123.279C43.8506 124.554 45.9 124.03 47.5192 123C48.6213 122.23 49.5286 121.217 50.171 120.039C50.8134 118.861 51.1737 117.55 51.2242 116.207L51.7578 103.9Z" fill="url(#paint3_linear_207_509)"/>
<path fill-rule="evenodd" clip-rule="evenodd" d="M22.8063 106.875C22.8063 105.839 21.9668 105 20.9313 105C19.8957 105 19.0563 105.839 19.0563 106.875V109.405L17.2676 107.616C16.5354 106.884 15.3482 106.884 14.6159 107.616C13.8837 108.348 13.8837 109.535 14.6159 110.268L16.4048 112.056H13.875C12.8395 112.056 12 112.896 12 113.931C12 114.967 12.8395 115.806 13.875 115.806H16.4046L14.6158 117.595C13.8836 118.327 13.8836 119.515 14.6158 120.247C15.348 120.979 16.5352 120.979 17.2674 120.247L19.0563 118.458V120.988C19.0563 122.023 19.8957 122.863 20.9313 122.863C21.9668 122.863 22.8063 122.023 22.8063 120.988V118.458L24.5952 120.247C25.3275 120.979 26.5147 120.979 27.2469 120.247C27.9791 119.515 27.9791 118.327 27.2469 117.595L25.4581 115.806H27.9879C29.0234 115.806 29.8629 114.967 29.8629 113.931C29.8629 112.896 29.0234 112.056 27.9879 112.056H25.4579L27.2467 110.268C27.979 109.535 27.979 108.348 27.2467 107.616C26.5145 106.884 25.3273 106.884 24.5951 107.616L22.8063 109.405V106.875Z" fill="url(#paint4_linear_207_509)"/>
<path fill-rule="evenodd" clip-rule="evenodd" d="M73.8063 106.875C73.8063 105.839 72.9668 105 71.9313 105C70.8957 105 70.0563 105.839 70.0563 106.875V109.405L68.2676 107.616C67.5354 106.884 66.3482 106.884 65.6159 107.616C64.8837 108.348 64.8837 109.535 65.6159 110.268L67.4048 112.056H64.875C63.8395 112.056 63 112.896 63 113.931C63 114.967 63.8395 115.806 64.875 115.806H67.4046L65.6158 117.595C64.8836 118.327 64.8836 119.515 65.6158 120.247C66.348 120.979 67.5352 120.979 68.2674 120.247L70.0563 118.458V120.988C70.0563 122.023 70.8957 122.863 71.9313 122.863C72.9668 122.863 73.8063 122.023 73.8063 120.988V118.458L75.5952 120.247C76.3275 120.979 77.5147 120.979 78.2469 120.247C78.9791 119.515 78.9791 118.327 78.2469 117.595L76.4581 115.806H78.9879C80.0234 115.806 80.8629 114.967 80.8629 113.931C80.8629 112.896 80.0234 112.056 78.9879 112.056H76.4579L78.2467 110.268C78.979 109.535 78.979 108.348 78.2467 107.616C77.5145 106.884 76.3273 106.884 75.5951 107.616L73.8063 109.405V106.875Z" fill="url(#paint5_linear_207_509)"/>
<path fill-rule="evenodd" clip-rule="evenodd" d="M53.8063 84.875C53.8063 83.8395 52.9668 83 51.9313 83C50.8957 83 50.0563 83.8395 50.0563 84.875V87.4046L48.2676 85.6159C47.5354 84.8837 46.3482 84.8837 45.6159 85.6159C44.8837 86.3482 44.8837 87.5353 45.6159 88.2676L47.4048 90.0564H44.875C43.8395 90.0564 43 90.8959 43 91.9314C43 92.9669 43.8395 93.8064 44.875 93.8064H47.4046L45.6158 95.5952C44.8836 96.3275 44.8836 97.5146 45.6158 98.2469C46.348 98.9791 47.5352 98.9791 48.2674 98.2469L50.0563 96.458V98.9879C50.0563 100.023 50.8957 100.863 51.9313 100.863C52.9668 100.863 53.8063 100.023 53.8063 98.9879V96.4579L55.5952 98.2469C56.3275 98.9791 57.5147 98.9791 58.2469 98.2469C58.9791 97.5146 58.9791 96.3275 58.2469 95.5952L56.4581 93.8064H58.9879C60.0234 93.8064 60.8629 92.9669 60.8629 91.9314C60.8629 90.8959 60.0234 90.0564 58.9879 90.0564H56.4579L58.2467 88.2676C58.979 87.5353 58.979 86.3482 58.2467 85.6159C57.5145 84.8837 56.3273 84.8837 55.5951 85.6159L53.8063 87.4047V84.875Z" fill="url(#paint6_linear_207_509)"/>
<g filter="url(#filter2_bi_207_509)">
<path fill-rule="evenodd" clip-rule="evenodd" d="M77 51C77 51.7882 76.9696 52.5693 76.9099 53.3422C80.1949 50.6296 84.4071 49 89 49C99.4934 49 108 57.5066 108 68C108 78.158 100.029 86.4541 90 86.9741V87H89H19H17V86.896C7.44667 85.8966 0 77.8179 0 68C0 58.1618 7.47752 50.07 17.0593 49.0979C18.0405 33.4156 31.0704 21 47 21C63.5685 21 77 34.4315 77 51Z" fill="url(#paint7_linear_207_509)"/>
</g>
<defs>
<filter id="filter0_f_207_509" x="0" y="57" width="107" height="63" filterUnits="userSpaceOnUse" color-interpolation-filters="sRGB">
<feFlood flood-opacity="0" result="BackgroundImageFix"/>
<feBlend mode="normal" in="SourceGraphic" in2="BackgroundImageFix" result="shape"/>
<feGaussianBlur stdDeviation="11" result="effect1_foregroundBlur_207_509"/>
</filter>
<filter id="filter1_ddi_207_509" x="42" y="0" width="84" height="84" filterUnits="userSpaceOnUse" color-interpolation-filters="sRGB">
<feFlood flood-opacity="0" result="BackgroundImageFix"/>
<feColorMatrix in="SourceAlpha" type="matrix" values="0 0 0 0 0 0 0 0 0 0 0 0 0 0 0 0 0 0 127 0" result="hardAlpha"/>
<feOffset/>
<feGaussianBlur stdDeviation="8"/>
<feComposite in2="hardAlpha" operator="out"/>
<feColorMatrix type="matrix" values="0 0 0 0 0.992157 0 0 0 0 0.773882 0 0 0 0 0 0 0 0 1 0"/>
<feBlend mode="normal" in2="BackgroundImageFix" result="effect1_dropShadow_207_509"/>
<feColorMatrix in="SourceAlpha" type="matrix" values="0 0 0 0 0 0 0 0 0 0 0 0 0 0 0 0 0 0 127 0" result="hardAlpha"/>
<feOffset/>
<feGaussianBlur stdDeviation="5.5"/>
<feComposite in2="hardAlpha" operator="out"/>
<feColorMatrix type="matrix" values="0 0 0 0 0.992157 0 0 0 0 0.772549 0 0 0 0 0 0 0 0 0.45 0"/>
<feBlend mode="normal" in2="effect1_dropShadow_207_509" result="effect2_dropShadow_207_509"/>
<feBlend mode="normal" in="SourceGraphic" in2="effect2_dropShadow_207_509" result="shape"/>
<feColorMatrix in="SourceAlpha" type="matrix" values="0 0 0 0 0 0 0 0 0 0 0 0 0 0 0 0 0 0 127 0" result="hardAlpha"/>
<feOffset dx="-1" dy="3"/>
<feGaussianBlur stdDeviation="2.5"/>
<feComposite in2="hardAlpha" operator="arithmetic" k2="-1" k3="1"/>
<feColorMatrix type="matrix" values="0 0 0 0 1 0 0 0 0 0.9 0 0 0 0 0 0 0 0 0.35 0"/>
<feBlend mode="normal" in2="shape" result="effect3_innerShadow_207_509"/>
</filter>
<filter id="filter2_bi_207_509" x="-7" y="14" width="122" height="80" filterUnits="userSpaceOnUse" color-interpolation-filters="sRGB">
<feFlood flood-opacity="0" result="BackgroundImageFix"/>
<feGaussianBlur in="BackgroundImageFix" stdDeviation="3.5"/>
<feComposite in2="SourceAlpha" operator="in" result="effect1_backgroundBlur_207_509"/>
<feBlend mode="normal" in="SourceGraphic" in2="effect1_backgroundBlur_207_509" result="shape"/>
<feColorMatrix in="SourceAlpha" type="matrix" values="0 0 0 0 0 0 0 0 0 0 0 0 0 0 0 0 0 0 127 0" result="hardAlpha"/>
<feOffset dy="2"/>
<feGaussianBlur stdDeviation="4"/>
<feComposite in2="hardAlpha" operator="arithmetic" k2="-1" k3="1"/>
<feColorMatrix type="matrix" values="0 0 0 0 0 0 0 0 0 0.82 0 0 0 0 1 0 0 0 0.25 0"/>
<feBlend mode="normal" in2="shape" result="effect2_innerShadow_207_509"/>
</filter>
<linearGradient id="paint0_linear_207_509" x1="84" y1="16" x2="84" y2="68" gradientUnits="userSpaceOnUse">
<stop stop-color="#FDC500"/>
<stop offset="1" stop-color="#FD8900"/>
</linearGradient>
<linearGradient id="paint1_linear_207_509" x1="57.3046" y1="76.1934" x2="39.0623" y2="105.047" gradientUnits="userSpaceOnUse">
<stop stop-color="#D7F0FF"/>
<stop offset="1" stop-color="#0072DC"/>
</linearGradient>
<linearGradient id="paint2_linear_207_509" x1="110.305" y1="76.1934" x2="92.0623" y2="105.047" gradientUnits="userSpaceOnUse">
<stop stop-color="#D7F0FF"/>
<stop offset="1" stop-color="#0072DC"/>
</linearGradient>
<linearGradient id="paint3_linear_207_509" x1="56.6623" y1="93.9617" x2="54.2829" y2="124.113" gradientUnits="userSpaceOnUse">
<stop stop-color="#D7F0FF"/>
<stop offset="1" stop-color="#0072DC"/>
</linearGradient>
<linearGradient id="paint4_linear_207_509" x1="14.55" y1="119.248" x2="31.5153" y2="104.928" gradientUnits="userSpaceOnUse">
<stop stop-color="#0056D6"/>
<stop offset="1" stop-color="#ADD8FF"/>
</linearGradient>
<linearGradient id="paint5_linear_207_509" x1="65.55" y1="119.248" x2="82.5153" y2="104.928" gradientUnits="userSpaceOnUse">
<stop stop-color="#0056D6"/>
<stop offset="1" stop-color="#ADD8FF"/>
</linearGradient>
<linearGradient id="paint6_linear_207_509" x1="45.55" y1="97.2478" x2="62.5153" y2="82.9284" gradientUnits="userSpaceOnUse">
<stop stop-color="#0056D6"/>
<stop offset="1" stop-color="#ADD8FF"/>
</linearGradient>
<linearGradient id="paint7_linear_207_509" x1="56" y1="110.5" x2="96.5" y2="21" gradientUnits="userSpaceOnUse">
<stop stop-color="#0082DF"/>
<stop offset="0.299998" stop-color="#48B2FF" stop-opacity="0.75"/>
<stop offset="1" stop-color="#3BADFF" stop-opacity="0"/>
</linearGradient>
</defs>
</svg>
