<svg width="126" height="123" viewBox="0 0 126 123" fill="none" xmlns="http://www.w3.org/2000/svg">
<g filter="url(#filter0_f_207_610)">
<ellipse cx="53.5" cy="88.5" rx="31.5" ry="9.5" fill="#004E67" fill-opacity="0.7"/>
</g>
<g filter="url(#filter1_ddi_207_610)">
<circle cx="84" cy="42" r="26" fill="url(#paint0_linear_207_610)"/>
</g>
<path d="M42.8069 98.2814L55.9076 74.2315C55.9853 74.0888 56.1348 74 56.2973 74H73.2814C73.6114 74 73.826 74.3474 73.6782 74.6426L66.8724 88.2324C66.7246 88.5276 66.9391 88.875 67.2692 88.875H74L36.8784 121.356C36.5053 121.683 35.959 121.245 36.1967 120.81L47.7873 99.5941C47.9489 99.2983 47.7349 98.9375 47.3979 98.9375H43.1966C42.8598 98.9375 42.6458 98.5771 42.8069 98.2814Z" fill="url(#paint1_linear_207_610)"/>
<path fill-rule="evenodd" clip-rule="evenodd" d="M24.3741 98.3753C24.3741 97.0634 23.3106 96 21.9988 96C20.687 96 19.6235 97.0634 19.6235 98.3753V101.264L17.5806 99.2215C16.653 98.2939 15.1491 98.2939 14.2215 99.2215C13.2939 100.149 13.2939 101.653 14.2215 102.581L16.2646 104.624H13.3753C12.0634 104.624 11 105.687 11 106.999C11 108.311 12.0634 109.374 13.3753 109.374H16.2644L14.2213 111.417C13.2937 112.345 13.2937 113.849 14.2213 114.776C15.1489 115.704 16.6529 115.704 17.5804 114.776L19.6235 112.733V115.623C19.6235 116.935 20.687 117.998 21.9988 117.998C23.3106 117.998 24.3741 116.935 24.3741 115.623V112.733L26.4173 114.776C27.3449 115.704 28.8489 115.704 29.7765 114.776C30.7041 113.849 30.7041 112.345 29.7765 111.417L27.7334 109.374H30.6227C31.9346 109.374 32.998 108.311 32.998 106.999C32.998 105.687 31.9346 104.624 30.6227 104.624H27.7332L29.7763 102.581C30.7039 101.653 30.7039 100.149 29.7763 99.2215C28.8487 98.2939 27.3447 98.2939 26.4171 99.2215L24.3741 101.265V98.3753Z" fill="url(#paint2_linear_207_610)"/>
<path fill-rule="evenodd" clip-rule="evenodd" d="M79.3741 98.3753C79.3741 97.0634 78.3106 96 76.9988 96C75.687 96 74.6235 97.0634 74.6235 98.3753V101.264L72.5806 99.2215C71.653 98.2939 70.1491 98.2939 69.2215 99.2215C68.2939 100.149 68.2939 101.653 69.2215 102.581L71.2646 104.624H68.3753C67.0634 104.624 66 105.687 66 106.999C66 108.311 67.0634 109.374 68.3753 109.374H71.2644L69.2213 111.417C68.2937 112.345 68.2937 113.849 69.2213 114.776C70.1489 115.704 71.6529 115.704 72.5804 114.776L74.6235 112.733V115.623C74.6235 116.935 75.687 117.998 76.9988 117.998C78.3106 117.998 79.3741 116.935 79.3741 115.623V112.733L81.4173 114.776C82.3449 115.704 83.8489 115.704 84.7765 114.776C85.7041 113.849 85.7041 112.345 84.7765 111.417L82.7334 109.374H85.6227C86.9346 109.374 87.998 108.311 87.998 106.999C87.998 105.687 86.9346 104.624 85.6227 104.624H82.7332L84.7763 102.581C85.7039 101.653 85.7039 100.149 84.7763 99.2215C83.8487 98.2939 82.3447 98.2939 81.4171 99.2215L79.3741 101.265V98.3753Z" fill="url(#paint3_linear_207_610)"/>
<g filter="url(#filter2_bi_207_610)">
<path fill-rule="evenodd" clip-rule="evenodd" d="M77 51C77 51.7882 76.9696 52.5693 76.9099 53.3422C80.1949 50.6296 84.4071 49 89 49C99.4934 49 108 57.5066 108 68C108 78.158 100.029 86.4541 90 86.9741V87H89H19H17V86.896C7.44667 85.8966 0 77.8179 0 68C0 58.1618 7.47752 50.07 17.0593 49.0979C18.0405 33.4156 31.0704 21 47 21C63.5685 21 77 34.4315 77 51Z" fill="url(#paint4_linear_207_610)"/>
</g>
<defs>
<filter id="filter0_f_207_610" x="0" y="57" width="107" height="63" filterUnits="userSpaceOnUse" color-interpolation-filters="sRGB">
<feFlood flood-opacity="0" result="BackgroundImageFix"/>
<feBlend mode="normal" in="SourceGraphic" in2="BackgroundImageFix" result="shape"/>
<feGaussianBlur stdDeviation="11" result="effect1_foregroundBlur_207_610"/>
</filter>
<filter id="filter1_ddi_207_610" x="42" y="0" width="84" height="84" filterUnits="userSpaceOnUse" color-interpolation-filters="sRGB">
<feFlood flood-opacity="0" result="BackgroundImageFix"/>
<feColorMatrix in="SourceAlpha" type="matrix" values="0 0 0 0 0 0 0 0 0 0 0 0 0 0 0 0 0 0 127 0" result="hardAlpha"/>
<feOffset/>
<feGaussianBlur stdDeviation="8"/>
<feComposite in2="hardAlpha" operator="out"/>
<feColorMatrix type="matrix" values="0 0 0 0 0.992157 0 0 0 0 0.773882 0 0 0 0 0 0 0 0 1 0"/>
<feBlend mode="normal" in2="BackgroundImageFix" result="effect1_dropShadow_207_610"/>
<feColorMatrix in="SourceAlpha" type="matrix" values="0 0 0 0 0 0 0 0 0 0 0 0 0 0 0 0 0 0 127 0" result="hardAlpha"/>
<feOffset/>
<feGaussianBlur stdDeviation="5.5"/>
<feComposite in2="hardAlpha" operator="out"/>
<feColorMatrix type="matrix" values="0 0 0 0 0.992157 0 0 0 0 0.772549 0 0 0 0 0 0 0 0 0.45 0"/>
<feBlend mode="normal" in2="effect1_dropShadow_207_610" result="effect2_dropShadow_207_610"/>
<feBlend mode="normal" in="SourceGraphic" in2="effect2_dropShadow_207_610" result="shape"/>
<feColorMatrix in="SourceAlpha" type="matrix" values="0 0 0 0 0 0 0 0 0 0 0 0 0 0 0 0 0 0 127 0" result="hardAlpha"/>
<feOffset dx="-1" dy="3"/>
<feGaussianBlur stdDeviation="2.5"/>
<feComposite in2="hardAlpha" operator="arithmetic" k2="-1" k3="1"/>
<feColorMatrix type="matrix" values="0 0 0 0 1 0 0 0 0 0.9 0 0 0 0 0 0 0 0 0.35 0"/>
<feBlend mode="normal" in2="shape" result="effect3_innerShadow_207_610"/>
</filter>
<filter id="filter2_bi_207_610" x="-7" y="14" width="122" height="80" filterUnits="userSpaceOnUse" color-interpolation-filters="sRGB">
<feFlood flood-opacity="0" result="BackgroundImageFix"/>
<feGaussianBlur in="BackgroundImageFix" stdDeviation="3.5"/>
<feComposite in2="SourceAlpha" operator="in" result="effect1_backgroundBlur_207_610"/>
<feBlend mode="normal" in="SourceGraphic" in2="effect1_backgroundBlur_207_610" result="shape"/>
<feColorMatrix in="SourceAlpha" type="matrix" values="0 0 0 0 0 0 0 0 0 0 0 0 0 0 0 0 0 0 127 0" result="hardAlpha"/>
<feOffset dy="2"/>
<feGaussianBlur stdDeviation="4"/>
<feComposite in2="hardAlpha" operator="arithmetic" k2="-1" k3="1"/>
<feColorMatrix type="matrix" values="0 0 0 0 0 0 0 0 0 0.82 0 0 0 0 1 0 0 0 0.25 0"/>
<feBlend mode="normal" in2="shape" result="effect2_innerShadow_207_610"/>
</filter>
<linearGradient id="paint0_linear_207_610" x1="84" y1="16" x2="84" y2="68" gradientUnits="userSpaceOnUse">
<stop stop-color="#FDC500"/>
<stop offset="1" stop-color="#FD8900"/>
</linearGradient>
<linearGradient id="paint1_linear_207_610" x1="54.5" y1="74" x2="54.5" y2="123" gradientUnits="userSpaceOnUse">
<stop stop-color="#F8FD00"/>
<stop offset="1" stop-color="#FD9800"/>
</linearGradient>
<linearGradient id="paint2_linear_207_610" x1="14.1403" y1="113.546" x2="35.0329" y2="95.9119" gradientUnits="userSpaceOnUse">
<stop stop-color="#0056D6"/>
<stop offset="1" stop-color="#ADD8FF"/>
</linearGradient>
<linearGradient id="paint3_linear_207_610" x1="69.1403" y1="113.546" x2="90.0329" y2="95.9119" gradientUnits="userSpaceOnUse">
<stop stop-color="#0056D6"/>
<stop offset="1" stop-color="#ADD8FF"/>
</linearGradient>
<linearGradient id="paint4_linear_207_610" x1="56" y1="110.5" x2="96.5" y2="21" gradientUnits="userSpaceOnUse">
<stop stop-color="#0082DF"/>
<stop offset="0.299998" stop-color="#48B2FF" stop-opacity="0.75"/>
<stop offset="1" stop-color="#3BADFF" stop-opacity="0"/>
</linearGradient>
</defs>
</svg>
