<svg width="126" height="129" viewBox="0 0 126 129" fill="none" xmlns="http://www.w3.org/2000/svg">
<g filter="url(#filter0_f_207_663)">
<ellipse cx="53.5" cy="88.5" rx="31.5" ry="9.5" fill="#004E67" fill-opacity="0.7"/>
</g>
<g filter="url(#filter1_ddi_207_663)">
<circle cx="84" cy="42" r="26" fill="url(#paint0_linear_207_663)"/>
</g>
<path fill-rule="evenodd" clip-rule="evenodd" d="M28.8166 76.7994C28.8166 75.2442 27.556 73.9836 26.0008 73.9836C24.4457 73.9836 23.185 75.2442 23.185 76.7994V80.0876L20.8085 77.755C19.6986 76.6656 17.8992 76.6656 16.7893 77.755C15.6794 78.8443 15.6794 80.6104 16.7893 81.6998L19.1129 83.9804H15.8158C14.2607 83.9804 13 85.241 13 86.7962C13 88.3513 14.2607 89.612 15.8158 89.612H19.1128L16.7892 91.8926C15.6794 92.9819 15.6794 94.7481 16.7892 95.8374C17.8991 96.9268 19.6985 96.9268 20.8084 95.8374L23.185 93.5047V96.793C23.185 98.3481 24.4457 99.6088 26.0008 99.6088C27.556 99.6088 28.8166 98.3481 28.8166 96.793V93.5047L31.1933 95.8374C32.3032 96.9268 34.1026 96.9268 35.2125 95.8374C36.3223 94.7481 36.3223 92.9819 35.2125 91.8926L32.8889 89.612H36.1862C37.7413 89.612 39.002 88.3513 39.002 86.7962C39.002 85.241 37.7413 83.9804 36.1862 83.9804H32.8889L35.2124 81.6998C36.3223 80.6104 36.3223 78.8443 35.2124 77.755C34.1026 76.6656 32.3031 76.6656 31.1933 77.755L28.8166 80.0876V76.7994Z" fill="url(#paint1_linear_207_663)"/>
<path fill-rule="evenodd" clip-rule="evenodd" d="M83.2379 73.2888C83.2379 71.4999 81.7877 70.0497 79.9988 70.0497C78.2099 70.0497 76.7597 71.4999 76.7597 73.2888V77.114L73.9952 74.4006C72.7185 73.1475 70.6486 73.1475 69.3719 74.4006C68.0952 75.6536 68.0952 77.6853 69.3719 78.9383L72.0757 81.5921H68.2391C66.4502 81.5921 65 83.0423 65 84.8312C65 86.6201 66.4502 88.0703 68.2391 88.0703H72.0754L69.3716 90.724C68.0949 91.9771 68.0949 94.0088 69.3716 95.2618C70.6483 96.5149 72.7182 96.5149 73.9949 95.2618L76.7597 92.5481V96.3737C76.7597 98.1626 78.2099 99.6128 79.9988 99.6128C81.7877 99.6128 83.2379 98.1626 83.2379 96.3737V92.5479L86.003 95.2618C87.2796 96.5149 89.3496 96.5149 90.6262 95.2618C91.9029 94.0088 91.9029 91.9771 90.6262 90.724L87.9225 88.0703H91.7589C93.5478 88.0703 94.998 86.6201 94.998 84.8312C94.998 83.0423 93.5478 81.5921 91.7589 81.5921H87.9221L90.626 78.9383C91.9026 77.6853 91.9026 75.6536 90.626 74.4006C89.3493 73.1475 87.2794 73.1475 86.0027 74.4006L83.2379 77.1142V73.2888Z" fill="url(#paint2_linear_207_663)"/>
<path fill-rule="evenodd" clip-rule="evenodd" d="M70.374 101.886C70.374 100.574 69.3106 99.5109 67.9988 99.5109C66.687 99.5109 65.6235 100.574 65.6235 101.886V104.691L63.5963 102.701C62.6601 101.782 61.1422 101.782 60.206 102.701C59.2697 103.62 59.2697 105.11 60.206 106.029L62.1887 107.975H59.3753C58.0634 107.975 57 109.039 57 110.35C57 111.662 58.0634 112.726 59.3753 112.726H62.1884L60.2057 114.672C59.2695 115.591 59.2695 117.08 60.2057 117.999C61.1419 118.918 62.6598 118.918 63.596 117.999L65.6235 116.009V118.815C65.6235 120.126 66.687 121.19 67.9988 121.19C69.3106 121.19 70.374 120.126 70.374 118.815V116.009L72.4018 117.999C73.338 118.918 74.8559 118.918 75.7921 117.999C76.7283 117.08 76.7283 115.591 75.7921 114.672L73.8094 112.726H76.6227C77.9346 112.726 78.998 111.662 78.998 110.35C78.998 109.039 77.9346 107.975 76.6227 107.975H73.8091L75.7919 106.029C76.7281 105.11 76.7281 103.62 75.7919 102.701C74.8557 101.782 73.3378 101.782 72.4015 102.701L70.374 104.691V101.886Z" fill="url(#paint3_linear_207_663)"/>
<path d="M33.8162 104.769L46.9069 81.2281C46.9852 81.0873 47.1336 81 47.2947 81H64.2746C64.6063 81 64.8208 81.3505 64.6698 81.6458L57.8807 94.9256C57.7298 95.2209 57.9443 95.5714 58.2759 95.5714H65L27.887 127.383C27.5108 127.705 26.9692 127.262 27.2106 126.829L38.778 106.089C38.943 105.793 38.7291 105.429 38.3904 105.429H34.2041C33.8656 105.429 33.6517 105.065 33.8162 104.769Z" fill="url(#paint4_linear_207_663)"/>
<g filter="url(#filter2_bi_207_663)">
<path fill-rule="evenodd" clip-rule="evenodd" d="M77 51C77 51.7882 76.9696 52.5693 76.9099 53.3422C80.1949 50.6296 84.4071 49 89 49C99.4934 49 108 57.5066 108 68C108 78.158 100.029 86.4541 90 86.9741V87H89H19H17V86.896C7.44667 85.8966 0 77.8179 0 68C0 58.1618 7.47752 50.07 17.0593 49.0979C18.0405 33.4156 31.0704 21 47 21C63.5685 21 77 34.4315 77 51Z" fill="url(#paint5_linear_207_663)"/>
</g>
<path fill-rule="evenodd" clip-rule="evenodd" d="M39.002 86.7952H13C13.0005 85.2405 14.261 83.9804 15.8158 83.9804H19.1129L16.7893 81.6998C15.6794 80.6104 15.6794 78.8443 16.7893 77.755C17.8992 76.6656 19.6986 76.6656 20.8085 77.755L23.185 80.0876V76.7994C23.185 75.2442 24.4457 73.9836 26.0008 73.9836C27.556 73.9836 28.8166 75.2442 28.8166 76.7994V80.0876L31.1933 77.755C32.3031 76.6656 34.1026 76.6656 35.2124 77.755C36.3223 78.8443 36.3223 80.6104 35.2124 81.6998L32.8889 83.9804H36.1862C37.741 83.9804 39.0015 85.2405 39.002 86.7952Z" fill="#A9DDFA"/>
<defs>
<filter id="filter0_f_207_663" x="0" y="57" width="107" height="63" filterUnits="userSpaceOnUse" color-interpolation-filters="sRGB">
<feFlood flood-opacity="0" result="BackgroundImageFix"/>
<feBlend mode="normal" in="SourceGraphic" in2="BackgroundImageFix" result="shape"/>
<feGaussianBlur stdDeviation="11" result="effect1_foregroundBlur_207_663"/>
</filter>
<filter id="filter1_ddi_207_663" x="42" y="0" width="84" height="84" filterUnits="userSpaceOnUse" color-interpolation-filters="sRGB">
<feFlood flood-opacity="0" result="BackgroundImageFix"/>
<feColorMatrix in="SourceAlpha" type="matrix" values="0 0 0 0 0 0 0 0 0 0 0 0 0 0 0 0 0 0 127 0" result="hardAlpha"/>
<feOffset/>
<feGaussianBlur stdDeviation="8"/>
<feComposite in2="hardAlpha" operator="out"/>
<feColorMatrix type="matrix" values="0 0 0 0 0.992157 0 0 0 0 0.773882 0 0 0 0 0 0 0 0 1 0"/>
<feBlend mode="normal" in2="BackgroundImageFix" result="effect1_dropShadow_207_663"/>
<feColorMatrix in="SourceAlpha" type="matrix" values="0 0 0 0 0 0 0 0 0 0 0 0 0 0 0 0 0 0 127 0" result="hardAlpha"/>
<feOffset/>
<feGaussianBlur stdDeviation="5.5"/>
<feComposite in2="hardAlpha" operator="out"/>
<feColorMatrix type="matrix" values="0 0 0 0 0.992157 0 0 0 0 0.772549 0 0 0 0 0 0 0 0 0.45 0"/>
<feBlend mode="normal" in2="effect1_dropShadow_207_663" result="effect2_dropShadow_207_663"/>
<feBlend mode="normal" in="SourceGraphic" in2="effect2_dropShadow_207_663" result="shape"/>
<feColorMatrix in="SourceAlpha" type="matrix" values="0 0 0 0 0 0 0 0 0 0 0 0 0 0 0 0 0 0 127 0" result="hardAlpha"/>
<feOffset dx="-1" dy="3"/>
<feGaussianBlur stdDeviation="2.5"/>
<feComposite in2="hardAlpha" operator="arithmetic" k2="-1" k3="1"/>
<feColorMatrix type="matrix" values="0 0 0 0 1 0 0 0 0 0.9 0 0 0 0 0 0 0 0 0.35 0"/>
<feBlend mode="normal" in2="shape" result="effect3_innerShadow_207_663"/>
</filter>
<filter id="filter2_bi_207_663" x="-7" y="14" width="122" height="80" filterUnits="userSpaceOnUse" color-interpolation-filters="sRGB">
<feFlood flood-opacity="0" result="BackgroundImageFix"/>
<feGaussianBlur in="BackgroundImageFix" stdDeviation="3.5"/>
<feComposite in2="SourceAlpha" operator="in" result="effect1_backgroundBlur_207_663"/>
<feBlend mode="normal" in="SourceGraphic" in2="effect1_backgroundBlur_207_663" result="shape"/>
<feColorMatrix in="SourceAlpha" type="matrix" values="0 0 0 0 0 0 0 0 0 0 0 0 0 0 0 0 0 0 127 0" result="hardAlpha"/>
<feOffset dy="2"/>
<feGaussianBlur stdDeviation="4"/>
<feComposite in2="hardAlpha" operator="arithmetic" k2="-1" k3="1"/>
<feColorMatrix type="matrix" values="0 0 0 0 0 0 0 0 0 0.82 0 0 0 0 1 0 0 0 0.25 0"/>
<feBlend mode="normal" in2="shape" result="effect2_innerShadow_207_663"/>
</filter>
<linearGradient id="paint0_linear_207_663" x1="84" y1="16" x2="84" y2="68" gradientUnits="userSpaceOnUse">
<stop stop-color="#FDC500"/>
<stop offset="1" stop-color="#FD8900"/>
</linearGradient>
<linearGradient id="paint1_linear_207_663" x1="16.7119" y1="94.4228" x2="41.1067" y2="73.5299" gradientUnits="userSpaceOnUse">
<stop stop-color="#0056D6"/>
<stop offset="1" stop-color="#ADD8FF"/>
</linearGradient>
<linearGradient id="paint2_linear_207_663" x1="69.2823" y1="93.6298" x2="97.4259" y2="69.5261" gradientUnits="userSpaceOnUse">
<stop stop-color="#0056D6"/>
<stop offset="1" stop-color="#ADD8FF"/>
</linearGradient>
<linearGradient id="paint3_linear_207_663" x1="60.1403" y1="116.802" x2="80.7784" y2="99.1269" gradientUnits="userSpaceOnUse">
<stop stop-color="#0056D6"/>
<stop offset="1" stop-color="#ADD8FF"/>
</linearGradient>
<linearGradient id="paint4_linear_207_663" x1="45.5" y1="81" x2="45.5" y2="129" gradientUnits="userSpaceOnUse">
<stop stop-color="#F8FD00"/>
<stop offset="1" stop-color="#FD9800"/>
</linearGradient>
<linearGradient id="paint5_linear_207_663" x1="56" y1="110.5" x2="96.5" y2="21" gradientUnits="userSpaceOnUse">
<stop stop-color="#0082DF"/>
<stop offset="0.299998" stop-color="#48B2FF" stop-opacity="0.75"/>
<stop offset="1" stop-color="#3BADFF" stop-opacity="0"/>
</linearGradient>
</defs>
</svg>
