<svg width="126" height="127" viewBox="0 0 126 127" fill="none" xmlns="http://www.w3.org/2000/svg">
<g filter="url(#filter0_f_207_550)">
<ellipse cx="53.5" cy="88.5" rx="31.5" ry="9.5" fill="#004E67" fill-opacity="0.7"/>
</g>
<g filter="url(#filter1_ddi_207_550)">
<circle cx="84" cy="42" r="26" fill="url(#paint0_linear_207_550)"/>
</g>
<path d="M31.3501 81.8078L21.4085 89.082C20.3191 89.8694 19.4284 90.8968 18.8052 92.0849C18.1819 93.273 17.8428 94.5899 17.814 95.934C17.8559 97.8526 18.5569 99.8484 20.9477 101.135C23.3384 102.422 25.3904 101.908 27.0148 100.886C28.1208 100.122 29.0332 99.1133 29.6816 97.9388C30.3299 96.7642 30.6969 95.4549 30.7542 94.112L31.3501 81.8078Z" fill="url(#paint1_linear_207_550)"/>
<path d="M92.841 82.9272L82.8994 90.2014C81.81 90.9888 80.9193 92.0163 80.2961 93.2043C79.6729 94.3924 79.3337 95.7093 79.3049 97.0534C79.3468 98.972 80.0478 100.968 82.4386 102.255C84.8293 103.541 86.8813 103.027 88.5057 102.005C89.6117 101.241 90.5241 100.233 91.1725 99.0582C91.8208 97.8837 92.1878 96.5744 92.2451 95.2314L92.841 82.9272Z" fill="url(#paint2_linear_207_550)"/>
<path d="M34.7578 103.9L24.8532 111.224C23.7678 112.017 22.8823 113.049 22.2651 114.24C21.6479 115.431 21.3154 116.75 21.2934 118.094C21.345 120.012 22.0561 122.005 24.4534 123.279C26.8506 124.554 28.9 124.03 30.5192 123C31.6213 122.23 32.5286 121.217 33.171 120.039C33.8134 118.861 34.1737 117.55 34.2242 116.207L34.7578 103.9Z" fill="url(#paint3_linear_207_550)"/>
<path fill-rule="evenodd" clip-rule="evenodd" d="M10.8063 106.875C10.8063 105.839 9.9668 105 8.93127 105C7.89573 105 7.05627 105.839 7.05627 106.875V109.405L5.2676 107.616C4.53536 106.884 3.34818 106.884 2.61595 107.616C1.88371 108.348 1.88371 109.535 2.61595 110.268L4.40478 112.056H1.875C0.839466 112.056 0 112.896 0 113.931C0 114.967 0.839466 115.806 1.875 115.806H4.4046L2.61579 117.595C1.88355 118.327 1.88355 119.515 2.61579 120.247C3.34802 120.979 4.5352 120.979 5.26744 120.247L7.05627 118.458V120.988C7.05627 122.023 7.89573 122.863 8.93127 122.863C9.9668 122.863 10.8063 122.023 10.8063 120.988V118.458L12.5952 120.247C13.3275 120.979 14.5147 120.979 15.2469 120.247C15.9791 119.515 15.9791 118.327 15.2469 117.595L13.4581 115.806H15.9879C17.0234 115.806 17.8629 114.967 17.8629 113.931C17.8629 112.896 17.0234 112.056 15.9879 112.056H13.4579L15.2467 110.268C15.979 109.535 15.979 108.348 15.2467 107.616C14.5145 106.884 13.3273 106.884 12.5951 107.616L10.8063 109.405V106.875Z" fill="url(#paint4_linear_207_550)"/>
<path fill-rule="evenodd" clip-rule="evenodd" d="M75.8063 106.875C75.8063 105.839 74.9668 105 73.9313 105C72.8957 105 72.0563 105.839 72.0563 106.875V109.405L70.2676 107.616C69.5354 106.884 68.3482 106.884 67.6159 107.616C66.8837 108.348 66.8837 109.535 67.6159 110.268L69.4048 112.056H66.875C65.8395 112.056 65 112.896 65 113.931C65 114.967 65.8395 115.806 66.875 115.806H69.4046L67.6158 117.595C66.8836 118.327 66.8836 119.515 67.6158 120.247C68.348 120.979 69.5352 120.979 70.2674 120.247L72.0563 118.458V120.988C72.0563 122.023 72.8957 122.863 73.9313 122.863C74.9668 122.863 75.8063 122.023 75.8063 120.988V118.458L77.5952 120.247C78.3275 120.979 79.5147 120.979 80.2469 120.247C80.9791 119.515 80.9791 118.327 80.2469 117.595L78.4581 115.806H80.9879C82.0234 115.806 82.8629 114.967 82.8629 113.931C82.8629 112.896 82.0234 112.056 80.9879 112.056H78.4579L80.2467 110.268C80.979 109.535 80.979 108.348 80.2467 107.616C79.5145 106.884 78.3273 106.884 77.5951 107.616L75.8063 109.405V106.875Z" fill="url(#paint5_linear_207_550)"/>
<path fill-rule="evenodd" clip-rule="evenodd" d="M96.8063 106.875C96.8063 105.839 95.9668 105 94.9313 105C93.8957 105 93.0563 105.839 93.0563 106.875V109.405L91.2676 107.616C90.5354 106.884 89.3482 106.884 88.6159 107.616C87.8837 108.348 87.8837 109.535 88.6159 110.268L90.4048 112.056H87.875C86.8395 112.056 86 112.896 86 113.931C86 114.967 86.8395 115.806 87.875 115.806H90.4046L88.6158 117.595C87.8836 118.327 87.8836 119.515 88.6158 120.247C89.348 120.979 90.5352 120.979 91.2674 120.247L93.0563 118.458V120.988C93.0563 122.023 93.8957 122.863 94.9313 122.863C95.9668 122.863 96.8063 122.023 96.8063 120.988V118.458L98.5952 120.247C99.3275 120.979 100.515 120.979 101.247 120.247C101.979 119.515 101.979 118.327 101.247 117.595L99.4581 115.806H101.988C103.023 115.806 103.863 114.967 103.863 113.931C103.863 112.896 103.023 112.056 101.988 112.056H99.4579L101.247 110.268C101.979 109.535 101.979 108.348 101.247 107.616C100.515 106.884 99.3273 106.884 98.5951 107.616L96.8063 109.405V106.875Z" fill="url(#paint6_linear_207_550)"/>
<path d="M43.8069 101.281L56.9076 77.2315C56.9853 77.0888 57.1348 77 57.2973 77H74.2814C74.6114 77 74.826 77.3474 74.6782 77.6426L67.8724 91.2324C67.7246 91.5276 67.9391 91.875 68.2692 91.875H75L37.8784 124.356C37.5053 124.683 36.959 124.245 37.1967 123.81L48.7873 102.594C48.9489 102.298 48.7349 101.938 48.3979 101.938H44.1966C43.8598 101.938 43.6458 101.577 43.8069 101.281Z" fill="url(#paint7_linear_207_550)"/>
<g filter="url(#filter2_bi_207_550)">
<path fill-rule="evenodd" clip-rule="evenodd" d="M77 51C77 51.7882 76.9696 52.5693 76.9099 53.3422C80.1949 50.6296 84.4071 49 89 49C99.4934 49 108 57.5066 108 68C108 78.158 100.029 86.4541 90 86.9741V87H89H19H17V86.896C7.44667 85.8966 0 77.8179 0 68C0 58.1618 7.47752 50.07 17.0593 49.0979C18.0405 33.4156 31.0704 21 47 21C63.5685 21 77 34.4315 77 51Z" fill="url(#paint8_linear_207_550)"/>
</g>
<defs>
<filter id="filter0_f_207_550" x="0" y="57" width="107" height="63" filterUnits="userSpaceOnUse" color-interpolation-filters="sRGB">
<feFlood flood-opacity="0" result="BackgroundImageFix"/>
<feBlend mode="normal" in="SourceGraphic" in2="BackgroundImageFix" result="shape"/>
<feGaussianBlur stdDeviation="11" result="effect1_foregroundBlur_207_550"/>
</filter>
<filter id="filter1_ddi_207_550" x="42" y="0" width="84" height="84" filterUnits="userSpaceOnUse" color-interpolation-filters="sRGB">
<feFlood flood-opacity="0" result="BackgroundImageFix"/>
<feColorMatrix in="SourceAlpha" type="matrix" values="0 0 0 0 0 0 0 0 0 0 0 0 0 0 0 0 0 0 127 0" result="hardAlpha"/>
<feOffset/>
<feGaussianBlur stdDeviation="8"/>
<feComposite in2="hardAlpha" operator="out"/>
<feColorMatrix type="matrix" values="0 0 0 0 0.992157 0 0 0 0 0.773882 0 0 0 0 0 0 0 0 1 0"/>
<feBlend mode="normal" in2="BackgroundImageFix" result="effect1_dropShadow_207_550"/>
<feColorMatrix in="SourceAlpha" type="matrix" values="0 0 0 0 0 0 0 0 0 0 0 0 0 0 0 0 0 0 127 0" result="hardAlpha"/>
<feOffset/>
<feGaussianBlur stdDeviation="5.5"/>
<feComposite in2="hardAlpha" operator="out"/>
<feColorMatrix type="matrix" values="0 0 0 0 0.992157 0 0 0 0 0.772549 0 0 0 0 0 0 0 0 0.45 0"/>
<feBlend mode="normal" in2="effect1_dropShadow_207_550" result="effect2_dropShadow_207_550"/>
<feBlend mode="normal" in="SourceGraphic" in2="effect2_dropShadow_207_550" result="shape"/>
<feColorMatrix in="SourceAlpha" type="matrix" values="0 0 0 0 0 0 0 0 0 0 0 0 0 0 0 0 0 0 127 0" result="hardAlpha"/>
<feOffset dx="-1" dy="3"/>
<feGaussianBlur stdDeviation="2.5"/>
<feComposite in2="hardAlpha" operator="arithmetic" k2="-1" k3="1"/>
<feColorMatrix type="matrix" values="0 0 0 0 1 0 0 0 0 0.9 0 0 0 0 0 0 0 0 0.35 0"/>
<feBlend mode="normal" in2="shape" result="effect3_innerShadow_207_550"/>
</filter>
<filter id="filter2_bi_207_550" x="-7" y="14" width="122" height="80" filterUnits="userSpaceOnUse" color-interpolation-filters="sRGB">
<feFlood flood-opacity="0" result="BackgroundImageFix"/>
<feGaussianBlur in="BackgroundImageFix" stdDeviation="3.5"/>
<feComposite in2="SourceAlpha" operator="in" result="effect1_backgroundBlur_207_550"/>
<feBlend mode="normal" in="SourceGraphic" in2="effect1_backgroundBlur_207_550" result="shape"/>
<feColorMatrix in="SourceAlpha" type="matrix" values="0 0 0 0 0 0 0 0 0 0 0 0 0 0 0 0 0 0 127 0" result="hardAlpha"/>
<feOffset dy="2"/>
<feGaussianBlur stdDeviation="4"/>
<feComposite in2="hardAlpha" operator="arithmetic" k2="-1" k3="1"/>
<feColorMatrix type="matrix" values="0 0 0 0 0 0 0 0 0 0.82 0 0 0 0 1 0 0 0 0.25 0"/>
<feBlend mode="normal" in2="shape" result="effect2_innerShadow_207_550"/>
</filter>
<linearGradient id="paint0_linear_207_550" x1="84" y1="16" x2="84" y2="68" gradientUnits="userSpaceOnUse">
<stop stop-color="#FDC500"/>
<stop offset="1" stop-color="#FD8900"/>
</linearGradient>
<linearGradient id="paint1_linear_207_550" x1="59.5431" y1="77.2255" x2="41.3007" y2="106.079" gradientUnits="userSpaceOnUse">
<stop stop-color="#D7F0FF"/>
<stop offset="1" stop-color="#0072DC"/>
</linearGradient>
<linearGradient id="paint2_linear_207_550" x1="114.305" y1="79.1934" x2="96.0622" y2="108.047" gradientUnits="userSpaceOnUse">
<stop stop-color="#D7F0FF"/>
<stop offset="1" stop-color="#0072DC"/>
</linearGradient>
<linearGradient id="paint3_linear_207_550" x1="39.6623" y1="93.9617" x2="37.2829" y2="124.113" gradientUnits="userSpaceOnUse">
<stop stop-color="#D7F0FF"/>
<stop offset="1" stop-color="#0072DC"/>
</linearGradient>
<linearGradient id="paint4_linear_207_550" x1="2.54998" y1="119.248" x2="19.5153" y2="104.928" gradientUnits="userSpaceOnUse">
<stop stop-color="#0056D6"/>
<stop offset="1" stop-color="#ADD8FF"/>
</linearGradient>
<linearGradient id="paint5_linear_207_550" x1="67.55" y1="119.248" x2="84.5153" y2="104.928" gradientUnits="userSpaceOnUse">
<stop stop-color="#0056D6"/>
<stop offset="1" stop-color="#ADD8FF"/>
</linearGradient>
<linearGradient id="paint6_linear_207_550" x1="88.55" y1="119.248" x2="105.515" y2="104.928" gradientUnits="userSpaceOnUse">
<stop stop-color="#0056D6"/>
<stop offset="1" stop-color="#ADD8FF"/>
</linearGradient>
<linearGradient id="paint7_linear_207_550" x1="55.5" y1="77" x2="55.5" y2="126" gradientUnits="userSpaceOnUse">
<stop stop-color="#F8FD00"/>
<stop offset="1" stop-color="#FD9800"/>
</linearGradient>
<linearGradient id="paint8_linear_207_550" x1="56" y1="110.5" x2="96.5" y2="21" gradientUnits="userSpaceOnUse">
<stop stop-color="#0082DF"/>
<stop offset="0.299998" stop-color="#48B2FF" stop-opacity="0.75"/>
<stop offset="1" stop-color="#3BADFF" stop-opacity="0"/>
</linearGradient>
</defs>
</svg>
