<svg width="118" height="104" viewBox="0 0 118 104" fill="none" xmlns="http://www.w3.org/2000/svg">
<g filter="url(#filter0_f_207_793)">
<ellipse cx="54.5" cy="72.5" rx="31.5" ry="9.5" fill="#004E67" fill-opacity="0.7"/>
</g>
<path fill-rule="evenodd" clip-rule="evenodd" d="M114.432 45.9113H102.072C101.494 45.8165 100.968 45.5191 100.588 45.0723C100.208 44.6254 100 44.0582 100 43.4719C100 42.8856 100.208 42.3184 100.588 41.8715C100.968 41.4247 101.494 41.1273 102.072 41.0325H114.432C114.786 40.9746 115.148 40.9942 115.493 41.0901C115.838 41.1861 116.159 41.3559 116.432 41.588C116.705 41.82 116.924 42.1087 117.075 42.434C117.225 42.7593 117.303 43.1135 117.303 43.4719C117.303 43.8303 117.225 44.1845 117.075 44.5098C116.924 44.8351 116.705 45.1238 116.432 45.3558C116.159 45.5879 115.838 45.7578 115.493 45.8537C115.148 45.9496 114.786 45.9693 114.432 45.9113ZM87.1033 45.9113H29.0134C28.6597 45.9693 28.2976 45.9496 27.9523 45.8537C27.6069 45.7578 27.2865 45.5879 27.0134 45.3559C26.7402 45.1238 26.5208 44.8351 26.3703 44.5098C26.2198 44.1845 26.1418 43.8303 26.1418 43.4719C26.1418 43.1135 26.2198 42.7593 26.3703 42.434C26.5208 42.1087 26.7402 41.82 27.0134 41.588C27.2865 41.3559 27.6069 41.1861 27.9523 41.0901C28.2976 40.9942 28.6597 40.9746 29.0134 41.0325H87.1033C87.457 40.9746 87.8191 40.9942 88.1645 41.0901C88.5099 41.1861 88.8302 41.3559 89.1034 41.588C89.3766 41.82 89.596 42.1087 89.7465 42.434C89.8969 42.7593 89.9749 43.1135 89.9749 43.4719C89.9749 43.8303 89.8969 44.1845 89.7465 44.5098C89.596 44.8351 89.3766 45.1238 89.1034 45.3559C88.8302 45.5879 88.5099 45.7578 88.1645 45.8537C87.8191 45.9496 87.457 45.9693 87.1033 45.9113ZM18.8655 72.6139H109.806C110.461 72.6138 111.09 72.3534 111.554 71.8898C112.017 71.4262 112.278 70.7975 112.278 70.1419C112.278 69.4863 112.017 68.8576 111.554 68.394C111.09 67.9304 110.461 67.67 109.806 67.67H18.8655C18.2099 67.67 17.5811 67.9304 17.1175 68.394C16.654 68.8576 16.3936 69.4863 16.3936 70.1419C16.3936 70.7975 16.654 71.4262 17.1175 71.8898C17.5811 72.3534 18.2099 72.6138 18.8655 72.6139ZM70.6456 57.23H2.4078C2.08929 57.239 1.77231 57.1829 1.47623 57.0651C1.18016 56.9473 0.911207 56.7704 0.685895 56.5451C0.460583 56.3198 0.283637 56.0508 0.165858 55.7547C0.0480797 55.4587 -0.008048 55.1416 0.0009296 54.8231C-0.00776292 54.5016 0.0480853 54.1816 0.165143 53.8821C0.282202 53.5825 0.458111 53.3095 0.682481 53.079C0.90685 52.8486 1.17513 52.6655 1.47147 52.5405C1.76781 52.4155 2.08618 52.3511 2.4078 52.3513H70.6456C71.2898 52.3682 71.902 52.6361 72.3515 53.0978C72.8011 53.5596 73.0526 54.1786 73.0524 54.8231C73.0524 55.4615 72.7988 56.0737 72.3475 56.5251C71.8961 56.9764 71.2839 57.23 70.6456 57.23ZM84.5661 57.23H104.537C104.855 57.239 105.172 57.1829 105.468 57.0651C105.764 56.9473 106.033 56.7704 106.258 56.5451C106.484 56.3198 106.661 56.0508 106.779 55.7547C106.896 55.4587 106.952 55.1416 106.943 54.8231C106.952 54.5016 106.896 54.1816 106.779 53.8821C106.662 53.5825 106.486 53.3095 106.262 53.079C106.038 52.8486 105.769 52.6655 105.473 52.5405C105.177 52.4155 104.858 52.3511 104.537 52.3513H84.5661C83.9106 52.3513 83.2818 52.6116 82.8182 53.0752C82.3547 53.5388 82.0942 54.1675 82.0942 54.8231C82.0941 55.1447 82.1585 55.4632 82.2835 55.7595C82.4085 56.0558 82.5916 56.3241 82.822 56.5485C83.0525 56.7728 83.3255 56.9488 83.6251 57.0658C83.9247 57.1829 84.2446 57.2387 84.5661 57.23Z" fill="url(#paint0_linear_207_793)"/>
<path fill-rule="evenodd" clip-rule="evenodd" d="M114.432 4.9113H102.072C101.494 4.8165 100.968 4.51913 100.588 4.07229C100.208 3.62544 100 3.05822 100 2.47192C100 1.88561 100.208 1.31839 100.588 0.871545C100.968 0.424701 101.494 0.127328 102.072 0.0325297H114.432C114.786 -0.0254235 115.148 -0.00577526 115.493 0.0901395C115.838 0.186054 116.159 0.355927 116.432 0.587982C116.705 0.820037 116.924 1.10872 117.075 1.43403C117.225 1.75933 117.303 2.11349 117.303 2.47192C117.303 2.83034 117.225 3.1845 117.075 3.50981C116.924 3.83511 116.705 4.12379 116.432 4.35585C116.159 4.5879 115.838 4.75778 115.493 4.85369C115.148 4.94961 114.786 4.96925 114.432 4.9113ZM87.1033 4.9113H29.0134C28.6597 4.96926 28.2976 4.94961 27.9523 4.85369C27.6069 4.75778 27.2865 4.58791 27.0134 4.35585C26.7402 4.1238 26.5208 3.83511 26.3703 3.50981C26.2198 3.1845 26.1418 2.83035 26.1418 2.47192C26.1418 2.11349 26.2198 1.75933 26.3703 1.43403C26.5208 1.10872 26.7402 0.820038 27.0134 0.587983C27.2865 0.355928 27.6069 0.186055 27.9523 0.0901405C28.2976 -0.00577425 28.6597 -0.0254225 29.0134 0.0325307H87.1033C87.457 -0.0254225 87.8191 -0.00577425 88.1645 0.0901405C88.5099 0.186055 88.8302 0.355928 89.1034 0.587983C89.3766 0.820038 89.596 1.10872 89.7465 1.43403C89.8969 1.75933 89.9749 2.11349 89.9749 2.47192C89.9749 2.83035 89.8969 3.1845 89.7465 3.50981C89.596 3.83511 89.3766 4.1238 89.1034 4.35585C88.8302 4.58791 88.5099 4.75778 88.1645 4.85369C87.8191 4.94961 87.457 4.96926 87.1033 4.9113ZM18.8655 31.6139H109.806C110.461 31.6138 111.09 31.3534 111.554 30.8898C112.017 30.4262 112.278 29.7975 112.278 29.1419C112.278 28.4863 112.017 27.8576 111.554 27.394C111.09 26.9304 110.461 26.67 109.806 26.67H18.8655C18.2099 26.67 17.5811 26.9304 17.1175 27.394C16.654 27.8576 16.3936 28.4863 16.3936 29.1419C16.3936 29.7975 16.654 30.4262 17.1175 30.8898C17.5811 31.3534 18.2099 31.6138 18.8655 31.6139ZM70.6456 16.23H2.4078C2.08929 16.239 1.77231 16.1829 1.47623 16.0651C1.18016 15.9473 0.911207 15.7704 0.685895 15.5451C0.460583 15.3198 0.283637 15.0508 0.165858 14.7547C0.0480797 14.4587 -0.008048 14.1416 0.0009296 13.8231C-0.00776292 13.5016 0.0480853 13.1816 0.165143 12.8821C0.282202 12.5825 0.458111 12.3095 0.682481 12.079C0.90685 11.8486 1.17513 11.6655 1.47147 11.5405C1.76781 11.4155 2.08618 11.3511 2.4078 11.3513H70.6456C71.2898 11.3682 71.902 11.6361 72.3515 12.0978C72.8011 12.5596 73.0526 13.1786 73.0524 13.8231C73.0524 14.4615 72.7988 15.0737 72.3475 15.5251C71.8961 15.9764 71.2839 16.23 70.6456 16.23ZM84.5661 16.23H104.537C104.855 16.239 105.172 16.1829 105.468 16.0651C105.764 15.9473 106.033 15.7704 106.258 15.5451C106.484 15.3198 106.661 15.0508 106.779 14.7547C106.896 14.4587 106.952 14.1416 106.943 13.8231C106.952 13.5016 106.896 13.1816 106.779 12.8821C106.662 12.5825 106.486 12.3095 106.262 12.079C106.038 11.8486 105.769 11.6655 105.473 11.5405C105.177 11.4155 104.858 11.3511 104.537 11.3513H84.5661C83.9106 11.3513 83.2818 11.6116 82.8182 12.0752C82.3547 12.5388 82.0942 13.1675 82.0942 13.8231C82.0941 14.1447 82.1585 14.4632 82.2835 14.7595C82.4085 15.0558 82.5916 15.3241 82.822 15.5485C83.0525 15.7728 83.3255 15.9488 83.6251 16.0658C83.9247 16.1829 84.2446 16.2387 84.5661 16.23Z" fill="url(#paint1_linear_207_793)"/>
<defs>
<filter id="filter0_f_207_793" x="1" y="41" width="107" height="63" filterUnits="userSpaceOnUse" color-interpolation-filters="sRGB">
<feFlood flood-opacity="0" result="BackgroundImageFix"/>
<feBlend mode="normal" in="SourceGraphic" in2="BackgroundImageFix" result="shape"/>
<feGaussianBlur stdDeviation="11" result="effect1_foregroundBlur_207_793"/>
</filter>
<linearGradient id="paint0_linear_207_793" x1="58.6517" y1="-40.5" x2="58.6517" y2="75.5" gradientUnits="userSpaceOnUse">
<stop stop-color="#D7F0FF"/>
<stop offset="1" stop-color="#0072DC"/>
</linearGradient>
<linearGradient id="paint1_linear_207_793" x1="58.6517" y1="-81.5" x2="58.6517" y2="34.5" gradientUnits="userSpaceOnUse">
<stop stop-color="#D7F0FF"/>
<stop offset="1" stop-color="#0072DC"/>
</linearGradient>
</defs>
</svg>
