<svg width="87" height="113" viewBox="0 0 87 113" fill="none" xmlns="http://www.w3.org/2000/svg">
<path fill-rule="evenodd" clip-rule="evenodd" d="M20.8166 59.8158C20.8166 58.2607 19.556 57 18.0008 57C16.4457 57 15.185 58.2607 15.185 59.8158V63.2029L12.79 60.8079C11.6903 59.7082 9.90744 59.7082 8.8078 60.8079C7.70816 61.9075 7.70816 63.6904 8.8078 64.79L11.203 67.1852H7.81581C6.26068 67.1852 5 68.4459 5 70.001C5 71.5561 6.26068 72.8168 7.81581 72.8168H11.2028L8.80772 75.2119C7.70808 76.3116 7.70808 78.0944 8.80772 79.1941C9.90737 80.2937 11.6902 80.2937 12.7899 79.1941L15.185 76.7989V80.1862C15.185 81.7413 16.4457 83.002 18.0008 83.002C19.556 83.002 20.8166 81.7413 20.8166 80.1862V76.7989L23.2118 79.1941C24.3115 80.2937 26.0944 80.2937 27.194 79.1941C28.2936 78.0944 28.2936 76.3116 27.194 75.2119L24.7989 72.8168H28.1862C29.7413 72.8168 31.002 71.5561 31.002 70.001C31.002 68.4459 29.7413 67.1852 28.1862 67.1852H24.7988L27.1939 64.79C28.2936 63.6904 28.2936 61.9075 27.1939 60.8079C26.0943 59.7082 24.3114 59.7082 23.2118 60.8079L20.8166 63.203V59.8158Z" fill="url(#paint0_linear_207_1396)"/>
<path fill-rule="evenodd" clip-rule="evenodd" d="M75.2378 56.2391C75.2378 54.4502 73.7876 53 71.9987 53C70.2098 53 68.7597 54.4502 68.7597 56.2391V60.1789L65.9738 57.3931C64.7089 56.1281 62.658 56.1281 61.3931 57.3931C60.1282 58.658 60.1282 60.7089 61.3931 61.9738L64.1792 64.7599H60.2391C58.4502 64.7599 57 66.2101 57 67.999C57 69.7879 58.4502 71.238 60.2391 71.238H64.1789L61.3928 74.0241C60.1279 75.2891 60.1279 77.3399 61.3928 78.6049C62.6578 79.8698 64.7086 79.8698 65.9735 78.6049L68.7597 75.8187V79.7589C68.7597 81.5478 70.2098 82.998 71.9987 82.998C73.7876 82.998 75.2378 81.5478 75.2378 79.7589V75.8185L78.0242 78.6049C79.2891 79.8698 81.34 79.8698 82.6049 78.6049C83.8698 77.3399 83.8698 75.2891 82.6049 74.0241L79.8188 71.238H83.7589C85.5478 71.238 86.998 69.7879 86.998 67.999C86.998 66.2101 85.5478 64.7599 83.7589 64.7599H79.8185L82.6046 61.9738C83.8695 60.7089 83.8695 58.658 82.6046 57.3931C81.3397 56.1281 79.2888 56.1281 78.0239 57.3931L75.2378 60.1791V56.2391Z" fill="url(#paint1_linear_207_1396)"/>
<path fill-rule="evenodd" clip-rule="evenodd" d="M62.3741 85.3753C62.3741 84.0634 61.3106 83 59.9988 83C58.687 83 57.6235 84.0634 57.6235 85.3753V88.2644L55.5806 86.2215C54.653 85.2939 53.1491 85.2939 52.2215 86.2215C51.2939 87.1491 51.2939 88.653 52.2215 89.5806L54.2646 91.6237H51.3753C50.0634 91.6237 49 92.6872 49 93.999C49 95.3108 50.0634 96.3742 51.3753 96.3742H54.2644L52.2213 98.4173C51.2937 99.3449 51.2937 100.849 52.2213 101.776C53.1489 102.704 54.6529 102.704 55.5804 101.776L57.6235 99.7333V102.623C57.6235 103.935 58.687 104.998 59.9988 104.998C61.3106 104.998 62.3741 103.935 62.3741 102.623V99.7331L64.4173 101.776C65.3449 102.704 66.8489 102.704 67.7765 101.776C68.7041 100.849 68.7041 99.3449 67.7765 98.4173L65.7334 96.3742H68.6227C69.9346 96.3742 70.998 95.3108 70.998 93.999C70.998 92.6872 69.9346 91.6237 68.6227 91.6237H65.7332L67.7763 89.5806C68.7039 88.653 68.7039 87.1491 67.7763 86.2215C66.8487 85.2939 65.3447 85.2939 64.4171 86.2215L62.3741 88.2646V85.3753Z" fill="url(#paint2_linear_207_1396)"/>
<path d="M25.8069 88.2814L38.9076 64.2315C38.9853 64.0888 39.1348 64 39.2973 64H56.2814C56.6114 64 56.826 64.3474 56.6782 64.6426L49.8724 78.2324C49.7246 78.5276 49.9391 78.875 50.2692 78.875H57L19.8784 111.356C19.5053 111.683 18.959 111.245 19.1967 110.81L30.7873 89.5941C30.9489 89.2983 30.7349 88.9375 30.3979 88.9375H26.1966C25.8598 88.9375 25.6458 88.5771 25.8069 88.2814Z" fill="url(#paint3_linear_207_1396)"/>
<g filter="url(#filter0_f_207_1396)">
<ellipse cx="64.1492" cy="25.4221" rx="11.8636" ry="3.57792" fill="#004E67" fill-opacity="0.7"/>
</g>
<g filter="url(#filter1_bi_207_1396)">
<path fill-rule="evenodd" clip-rule="evenodd" d="M72.9999 11.2987C72.9999 11.5956 72.9884 11.8898 72.9659 12.181C74.2031 11.1593 75.7896 10.5455 77.5195 10.5455C81.4715 10.5455 84.6753 13.7492 84.6753 17.7013C84.6753 21.5271 81.673 24.6516 77.896 24.8474V24.8571H77.5344C77.5294 24.8571 77.5245 24.8572 77.5195 24.8572C77.5145 24.8572 77.5095 24.8571 77.5045 24.8571H51.1707C51.1657 24.8571 51.1607 24.8572 51.1557 24.8572C51.1507 24.8572 51.1458 24.8571 51.1408 24.8571H50.4025V24.818C46.8045 24.4416 43.9999 21.399 43.9999 17.7013C43.9999 13.996 46.8161 10.9484 50.4248 10.5823C50.7943 4.676 55.7017 0 61.7012 0C67.9413 0 72.9999 5.0586 72.9999 11.2987Z" fill="url(#paint4_linear_207_1396)"/>
</g>
<path d="M57.9355 55.4888C54.8499 55.6668 51.7603 55.2152 48.8562 54.1618C45.9521 53.1084 43.2947 51.4754 41.047 49.363C38.7992 47.2505 37.0084 44.7031 35.7845 41.877C34.5605 39.0509 33.9292 36.0056 33.9292 32.9278C33.9292 29.8501 34.5605 26.8048 35.7845 23.9786C37.0084 21.1525 38.7992 18.6051 41.047 16.4926C43.2947 14.3802 45.9521 12.7472 48.8562 11.6938C51.7603 10.6404 54.8499 10.1889 57.9355 10.3668C59.8841 10.3523 61.8254 10.6066 63.704 11.1226C58.0769 7.08929 51.3062 4.94518 44.3732 5.00107C37.4402 5.05695 30.7052 7.3099 25.1444 11.4334C19.5836 15.5568 15.486 21.3366 13.4454 27.9348C11.4049 34.533 11.5275 41.6069 13.7954 48.1311C16.0633 54.6553 20.3588 60.2908 26.0591 64.2208C31.7594 68.1508 38.5685 70.171 45.4993 69.9887C52.4301 69.8063 59.1225 67.4309 64.6065 63.2067C70.0905 58.9825 74.0811 53.129 75.9999 46.4947C73.9027 49.2938 71.1767 51.5652 68.0398 53.127C64.903 54.6888 61.4426 55.4977 57.9355 55.4888Z" fill="url(#paint5_linear_207_1396)"/>
<g filter="url(#filter2_f_207_1396)">
<ellipse cx="16.2083" cy="4.88823" rx="16.2083" ry="4.88823" transform="matrix(-1 0 0 1 44.2514 65.8439)" fill="#004E67" fill-opacity="0.7"/>
</g>
<g filter="url(#filter3_bi_207_1396)">
<path fill-rule="evenodd" clip-rule="evenodd" d="M15.951 51.4365C15.951 51.8421 15.9666 52.244 15.9973 52.6417C14.3071 51.2459 12.1397 50.4074 9.77641 50.4074C4.37702 50.4074 -4.57764e-05 54.7845 -4.57764e-05 60.1839C-4.57764e-05 65.4106 4.10163 69.6794 9.26181 69.947V69.9603H9.76406C9.76818 69.9603 9.77229 69.9603 9.77641 69.9603C9.78053 69.9603 9.78464 69.9603 9.78876 69.9603H45.7826C45.7867 69.9603 45.7908 69.9603 45.795 69.9603C45.7991 69.9603 45.8032 69.9603 45.8073 69.9603H46.824V69.9068C51.7397 69.3926 55.5714 65.2357 55.5714 60.1839C55.5714 55.1216 51.7238 50.9579 46.7935 50.4578C46.2886 42.3884 39.5841 36 31.3875 36C22.8621 36 15.951 42.9112 15.951 51.4365Z" fill="url(#paint6_linear_207_1396)"/>
</g>
<path fill-rule="evenodd" clip-rule="evenodd" d="M31.002 70H5C5.00053 68.4453 6.26101 67.1852 7.81581 67.1852H11.203L8.8078 64.79C7.70816 63.6904 7.70816 61.9075 8.8078 60.8079C9.90744 59.7082 11.6903 59.7082 12.79 60.8079L15.185 63.2029V59.8158C15.185 58.2607 16.4457 57 18.0008 57C19.556 57 20.8166 58.2607 20.8166 59.8158V63.203L23.2118 60.8079C24.3114 59.7082 26.0943 59.7082 27.1939 60.8079C28.2936 61.9075 28.2936 63.6904 27.1939 64.79L24.7988 67.1852H28.1862C29.741 67.1852 31.0015 68.4453 31.002 70Z" fill="#A9DDFA"/>
<defs>
<filter id="filter0_f_207_1396" x="43.9999" y="13.5585" width="40.2987" height="23.7273" filterUnits="userSpaceOnUse" color-interpolation-filters="sRGB">
<feFlood flood-opacity="0" result="BackgroundImageFix"/>
<feBlend mode="normal" in="SourceGraphic" in2="BackgroundImageFix" result="shape"/>
<feGaussianBlur stdDeviation="4.14286" result="effect1_foregroundBlur_207_1396"/>
</filter>
<filter id="filter1_bi_207_1396" x="41.3635" y="-2.63636" width="45.9482" height="30.1299" filterUnits="userSpaceOnUse" color-interpolation-filters="sRGB">
<feFlood flood-opacity="0" result="BackgroundImageFix"/>
<feGaussianBlur in="BackgroundImageFix" stdDeviation="1.31818"/>
<feComposite in2="SourceAlpha" operator="in" result="effect1_backgroundBlur_207_1396"/>
<feBlend mode="normal" in="SourceGraphic" in2="effect1_backgroundBlur_207_1396" result="shape"/>
<feColorMatrix in="SourceAlpha" type="matrix" values="0 0 0 0 0 0 0 0 0 0 0 0 0 0 0 0 0 0 127 0" result="hardAlpha"/>
<feOffset dy="0.753247"/>
<feGaussianBlur stdDeviation="1.50649"/>
<feComposite in2="hardAlpha" operator="arithmetic" k2="-1" k3="1"/>
<feColorMatrix type="matrix" values="0 0 0 0 0 0 0 0 0 0.82 0 0 0 0 1 0 0 0 0.25 0"/>
<feBlend mode="normal" in2="shape" result="effect2_innerShadow_207_1396"/>
</filter>
<filter id="filter2_f_207_1396" x="0.51461" y="54.5238" width="55.0569" height="32.4166" filterUnits="userSpaceOnUse" color-interpolation-filters="sRGB">
<feFlood flood-opacity="0" result="BackgroundImageFix"/>
<feBlend mode="normal" in="SourceGraphic" in2="BackgroundImageFix" result="shape"/>
<feGaussianBlur stdDeviation="5.66005" result="effect1_foregroundBlur_207_1396"/>
</filter>
<filter id="filter3_bi_207_1396" x="-3.60191" y="32.3981" width="62.7752" height="41.164" filterUnits="userSpaceOnUse" color-interpolation-filters="sRGB">
<feFlood flood-opacity="0" result="BackgroundImageFix"/>
<feGaussianBlur in="BackgroundImageFix" stdDeviation="1.80093"/>
<feComposite in2="SourceAlpha" operator="in" result="effect1_backgroundBlur_207_1396"/>
<feBlend mode="normal" in="SourceGraphic" in2="effect1_backgroundBlur_207_1396" result="shape"/>
<feColorMatrix in="SourceAlpha" type="matrix" values="0 0 0 0 0 0 0 0 0 0 0 0 0 0 0 0 0 0 127 0" result="hardAlpha"/>
<feOffset dy="1.0291"/>
<feGaussianBlur stdDeviation="2.0582"/>
<feComposite in2="hardAlpha" operator="arithmetic" k2="-1" k3="1"/>
<feColorMatrix type="matrix" values="0 0 0 0 0 0 0 0 0 0.82 0 0 0 0 1 0 0 0 0.25 0"/>
<feBlend mode="normal" in2="shape" result="effect2_innerShadow_207_1396"/>
</filter>
<linearGradient id="paint0_linear_207_1396" x1="8.71186" y1="77.7397" x2="33.4073" y2="56.8958" gradientUnits="userSpaceOnUse">
<stop stop-color="#0056D6"/>
<stop offset="1" stop-color="#ADD8FF"/>
</linearGradient>
<linearGradient id="paint1_linear_207_1396" x1="61.2823" y1="76.927" x2="89.7729" y2="52.8798" gradientUnits="userSpaceOnUse">
<stop stop-color="#0056D6"/>
<stop offset="1" stop-color="#ADD8FF"/>
</linearGradient>
<linearGradient id="paint2_linear_207_1396" x1="52.1403" y1="100.546" x2="73.0329" y2="82.9119" gradientUnits="userSpaceOnUse">
<stop stop-color="#0056D6"/>
<stop offset="1" stop-color="#ADD8FF"/>
</linearGradient>
<linearGradient id="paint3_linear_207_1396" x1="37.5" y1="64" x2="37.5" y2="113" gradientUnits="userSpaceOnUse">
<stop stop-color="#F8FD00"/>
<stop offset="1" stop-color="#FD9800"/>
</linearGradient>
<linearGradient id="paint4_linear_207_1396" x1="65.0908" y1="33.7078" x2="80.344" y2="-4.14769e-07" gradientUnits="userSpaceOnUse">
<stop stop-color="#2BA6FF"/>
<stop offset="0.299998" stop-color="#48B2FF" stop-opacity="0.75"/>
<stop offset="1" stop-color="#3BADFF" stop-opacity="0"/>
</linearGradient>
<linearGradient id="paint5_linear_207_1396" x1="43.9999" y1="5" x2="43.9999" y2="70" gradientUnits="userSpaceOnUse">
<stop stop-color="#FDC500"/>
<stop offset="1" stop-color="#FD8900"/>
</linearGradient>
<linearGradient id="paint6_linear_207_1396" x1="26.7566" y1="82.0522" x2="15.9999" y2="22.5" gradientUnits="userSpaceOnUse">
<stop offset="0.13121" stop-color="#2BA6FF"/>
<stop offset="1" stop-color="#3BADFF" stop-opacity="0"/>
</linearGradient>
</defs>
</svg>
