<svg width="96" height="111" viewBox="0 0 96 111" fill="none" xmlns="http://www.w3.org/2000/svg">
<path d="M26.35 64.8078L16.4084 72.082C15.319 72.8694 14.4284 73.8968 13.8051 75.0849C13.1819 76.273 12.8428 77.5899 12.814 78.934C12.8558 80.8526 13.5569 82.8484 15.9476 84.1352C18.3384 85.4219 20.3904 84.9078 22.0148 83.886C23.1208 83.1217 24.0332 82.1133 24.6815 80.9388C25.3299 79.7642 25.6968 78.4549 25.7541 77.112L26.35 64.8078Z" fill="url(#paint0_linear_207_1200)"/>
<path d="M79.35 64.8078L69.4084 72.082C68.319 72.8694 67.4284 73.8968 66.8051 75.0849C66.1819 76.273 65.8428 77.5899 65.814 78.934C65.8558 80.8526 66.5569 82.8484 68.9476 84.1352C71.3384 85.4219 73.3904 84.9078 75.0148 83.886C76.1208 83.1217 77.0332 82.1133 77.6815 80.9388C78.3299 79.7642 78.6968 78.4549 78.7541 77.112L79.35 64.8078Z" fill="url(#paint1_linear_207_1200)"/>
<path d="M44.4872 88.0511L34.5825 95.3755C33.4972 96.1685 32.6117 97.2004 31.9945 98.3916C31.3773 99.5828 31.0448 100.901 31.0228 102.246C31.0744 104.164 31.7855 106.156 34.1827 107.431C36.58 108.706 38.6293 108.181 40.2486 107.151C41.3507 106.381 42.2579 105.368 42.9003 104.19C43.5428 103.013 43.9031 101.701 43.9536 100.358L44.4872 88.0511Z" fill="url(#paint2_linear_207_1200)"/>
<path fill-rule="evenodd" clip-rule="evenodd" d="M15.5356 91.0265C15.5356 89.991 14.6962 89.1515 13.6606 89.1515C12.6251 89.1515 11.7856 89.991 11.7856 91.0265V93.5561L9.99697 91.7674C9.26473 91.0352 8.07755 91.0352 7.34532 91.7674C6.61308 92.4996 6.61308 93.6868 7.34532 94.4191L9.13415 96.2079H6.60437C5.56884 96.2079 4.72937 97.0474 4.72937 98.0829C4.72937 99.1184 5.56884 99.9579 6.60437 99.9579H9.13397L7.34516 101.747C6.61292 102.479 6.61292 103.666 7.34516 104.398C8.07739 105.131 9.26457 105.131 9.99681 104.398L11.7856 102.61V105.139C11.7856 106.175 12.6251 107.014 13.6606 107.014C14.6962 107.014 15.5356 106.175 15.5356 105.139V102.609L17.3246 104.398C18.0569 105.131 19.244 105.131 19.9763 104.398C20.7085 103.666 20.7085 102.479 19.9763 101.747L18.1875 99.9579H20.7172C21.7528 99.9579 22.5922 99.1184 22.5922 98.0829C22.5922 97.0474 21.7528 96.2079 20.7172 96.2079H18.1873L19.9761 94.4191C20.7083 93.6868 20.7083 92.4996 19.9761 91.7674C19.2439 91.0352 18.0567 91.0352 17.3245 91.7674L15.5356 93.5562V91.0265Z" fill="url(#paint3_linear_207_1200)"/>
<path fill-rule="evenodd" clip-rule="evenodd" d="M66.5356 91.0265C66.5356 89.991 65.6962 89.1515 64.6606 89.1515C63.6251 89.1515 62.7856 89.991 62.7856 91.0265V93.5561L60.997 91.7674C60.2647 91.0352 59.0775 91.0352 58.3453 91.7674C57.6131 92.4996 57.6131 93.6868 58.3453 94.4191L60.1342 96.2079H57.6044C56.5688 96.2079 55.7294 97.0474 55.7294 98.0829C55.7294 99.1184 56.5688 99.9579 57.6044 99.9579H60.134L58.3452 101.747C57.6129 102.479 57.6129 103.666 58.3452 104.398C59.0774 105.131 60.2646 105.131 60.9968 104.398L62.7856 102.61V105.139C62.7856 106.175 63.6251 107.014 64.6606 107.014C65.6962 107.014 66.5356 106.175 66.5356 105.139V102.609L68.3246 104.398C69.0569 105.131 70.244 105.131 70.9763 104.398C71.7085 103.666 71.7085 102.479 70.9763 101.747L69.1875 99.9579H71.7172C72.7528 99.9579 73.5922 99.1184 73.5922 98.0829C73.5922 97.0474 72.7528 96.2079 71.7172 96.2079H69.1873L70.9761 94.4191C71.7083 93.6868 71.7083 92.4996 70.9761 91.7674C70.2439 91.0352 69.0567 91.0352 68.3245 91.7674L66.5356 93.5562V91.0265Z" fill="url(#paint4_linear_207_1200)"/>
<path fill-rule="evenodd" clip-rule="evenodd" d="M46.5356 69.0265C46.5356 67.991 45.6962 67.1515 44.6606 67.1515C43.6251 67.1515 42.7856 67.991 42.7856 69.0265V71.5561L40.997 69.7674C40.2647 69.0352 39.0775 69.0352 38.3453 69.7674C37.6131 70.4996 37.6131 71.6868 38.3453 72.4191L40.1342 74.2079H37.6044C36.5688 74.2079 35.7294 75.0474 35.7294 76.0829C35.7294 77.1184 36.5688 77.9579 37.6044 77.9579H40.134L38.3452 79.7467C37.6129 80.4789 37.6129 81.6661 38.3452 82.3984C39.0774 83.1306 40.2646 83.1306 40.9968 82.3984L42.7856 80.6095V83.1394C42.7856 84.1749 43.6251 85.0144 44.6606 85.0144C45.6962 85.0144 46.5356 84.1749 46.5356 83.1394V80.6094L48.3246 82.3984C49.0569 83.1306 50.244 83.1306 50.9763 82.3984C51.7085 81.6661 51.7085 80.4789 50.9763 79.7467L49.1875 77.9579H51.7172C52.7528 77.9579 53.5922 77.1184 53.5922 76.0829C53.5922 75.0474 52.7528 74.2079 51.7172 74.2079H49.1873L50.9761 72.4191C51.7083 71.6868 51.7083 70.4996 50.9761 69.7674C50.2439 69.0352 49.0567 69.0352 48.3245 69.7674L46.5356 71.5562V69.0265Z" fill="url(#paint5_linear_207_1200)"/>
<g filter="url(#filter0_f_207_1200)">
<ellipse cx="64.1493" cy="25.4221" rx="11.8636" ry="3.57792" fill="#004E67" fill-opacity="0.7"/>
</g>
<g filter="url(#filter1_bi_207_1200)">
<path fill-rule="evenodd" clip-rule="evenodd" d="M72.9999 11.2987C72.9999 11.5956 72.9884 11.8898 72.9659 12.181C74.2031 11.1593 75.7896 10.5455 77.5195 10.5455C81.4715 10.5455 84.6753 13.7492 84.6753 17.7013C84.6753 21.5271 81.673 24.6516 77.896 24.8474V24.8571H77.5344C77.5294 24.8571 77.5245 24.8572 77.5195 24.8572C77.5145 24.8572 77.5095 24.8571 77.5045 24.8571H51.1707C51.1657 24.8571 51.1607 24.8572 51.1557 24.8572C51.1507 24.8572 51.1458 24.8571 51.1408 24.8571H50.4025V24.818C46.8045 24.4416 43.9999 21.399 43.9999 17.7013C43.9999 13.996 46.8161 10.9484 50.4248 10.5823C50.7943 4.676 55.7017 0 61.7012 0C67.9413 0 72.9999 5.0586 72.9999 11.2987Z" fill="url(#paint6_linear_207_1200)"/>
</g>
<path d="M57.9355 55.4888C54.8499 55.6668 51.7603 55.2152 48.8562 54.1618C45.9521 53.1084 43.2947 51.4754 41.047 49.363C38.7992 47.2505 37.0084 44.7031 35.7845 41.877C34.5605 39.0509 33.9292 36.0056 33.9292 32.9278C33.9292 29.8501 34.5605 26.8048 35.7845 23.9786C37.0084 21.1525 38.7992 18.6051 41.047 16.4926C43.2947 14.3802 45.9521 12.7472 48.8562 11.6938C51.7603 10.6404 54.8499 10.1889 57.9355 10.3668C59.8841 10.3523 61.8254 10.6066 63.704 11.1226C58.0769 7.08929 51.3062 4.94518 44.3732 5.00107C37.4402 5.05695 30.7052 7.3099 25.1444 11.4334C19.5836 15.5568 15.486 21.3366 13.4454 27.9348C11.4049 34.533 11.5275 41.6069 13.7954 48.1311C16.0633 54.6553 20.3588 60.2908 26.0591 64.2208C31.7594 68.1508 38.5685 70.171 45.4993 69.9887C52.4301 69.8063 59.1225 67.4309 64.6065 63.2067C70.0905 58.9825 74.0811 53.129 75.9999 46.4947C73.9027 49.2938 71.1767 51.5652 68.0398 53.127C64.903 54.6888 61.4426 55.4977 57.9355 55.4888Z" fill="url(#paint7_linear_207_1200)"/>
<g filter="url(#filter2_f_207_1200)">
<ellipse cx="16.2083" cy="4.88823" rx="16.2083" ry="4.88823" transform="matrix(-1 0 0 1 44.2513 65.8439)" fill="#004E67" fill-opacity="0.7"/>
</g>
<g filter="url(#filter3_bi_207_1200)">
<path fill-rule="evenodd" clip-rule="evenodd" d="M15.951 51.4365C15.951 51.8421 15.9666 52.244 15.9973 52.6417C14.3071 51.2459 12.1397 50.4074 9.77641 50.4074C4.37702 50.4074 -4.57764e-05 54.7845 -4.57764e-05 60.1839C-4.57764e-05 65.4106 4.10163 69.6794 9.26181 69.947V69.9603H9.76406C9.76818 69.9603 9.77229 69.9603 9.77641 69.9603C9.78053 69.9603 9.78464 69.9603 9.78876 69.9603H45.7826C45.7867 69.9603 45.7908 69.9603 45.795 69.9603C45.7991 69.9603 45.8032 69.9603 45.8073 69.9603H46.824V69.9068C51.7397 69.3926 55.5714 65.2357 55.5714 60.1839C55.5714 55.1216 51.7238 50.9579 46.7935 50.4578C46.2886 42.3884 39.5841 36 31.3875 36C22.8621 36 15.951 42.9112 15.951 51.4365Z" fill="url(#paint8_linear_207_1200)"/>
</g>
<defs>
<filter id="filter0_f_207_1200" x="43.9999" y="13.5585" width="40.2987" height="23.7273" filterUnits="userSpaceOnUse" color-interpolation-filters="sRGB">
<feFlood flood-opacity="0" result="BackgroundImageFix"/>
<feBlend mode="normal" in="SourceGraphic" in2="BackgroundImageFix" result="shape"/>
<feGaussianBlur stdDeviation="4.14286" result="effect1_foregroundBlur_207_1200"/>
</filter>
<filter id="filter1_bi_207_1200" x="41.3635" y="-2.63636" width="45.9481" height="30.1299" filterUnits="userSpaceOnUse" color-interpolation-filters="sRGB">
<feFlood flood-opacity="0" result="BackgroundImageFix"/>
<feGaussianBlur in="BackgroundImageFix" stdDeviation="1.31818"/>
<feComposite in2="SourceAlpha" operator="in" result="effect1_backgroundBlur_207_1200"/>
<feBlend mode="normal" in="SourceGraphic" in2="effect1_backgroundBlur_207_1200" result="shape"/>
<feColorMatrix in="SourceAlpha" type="matrix" values="0 0 0 0 0 0 0 0 0 0 0 0 0 0 0 0 0 0 127 0" result="hardAlpha"/>
<feOffset dy="0.753247"/>
<feGaussianBlur stdDeviation="1.50649"/>
<feComposite in2="hardAlpha" operator="arithmetic" k2="-1" k3="1"/>
<feColorMatrix type="matrix" values="0 0 0 0 0 0 0 0 0 0.82 0 0 0 0 1 0 0 0 0.25 0"/>
<feBlend mode="normal" in2="shape" result="effect2_innerShadow_207_1200"/>
</filter>
<filter id="filter2_f_207_1200" x="0.51461" y="54.5238" width="55.0568" height="32.4166" filterUnits="userSpaceOnUse" color-interpolation-filters="sRGB">
<feFlood flood-opacity="0" result="BackgroundImageFix"/>
<feBlend mode="normal" in="SourceGraphic" in2="BackgroundImageFix" result="shape"/>
<feGaussianBlur stdDeviation="5.66005" result="effect1_foregroundBlur_207_1200"/>
</filter>
<filter id="filter3_bi_207_1200" x="-3.60185" y="32.3981" width="62.7751" height="41.164" filterUnits="userSpaceOnUse" color-interpolation-filters="sRGB">
<feFlood flood-opacity="0" result="BackgroundImageFix"/>
<feGaussianBlur in="BackgroundImageFix" stdDeviation="1.80093"/>
<feComposite in2="SourceAlpha" operator="in" result="effect1_backgroundBlur_207_1200"/>
<feBlend mode="normal" in="SourceGraphic" in2="effect1_backgroundBlur_207_1200" result="shape"/>
<feColorMatrix in="SourceAlpha" type="matrix" values="0 0 0 0 0 0 0 0 0 0 0 0 0 0 0 0 0 0 127 0" result="hardAlpha"/>
<feOffset dy="1.0291"/>
<feGaussianBlur stdDeviation="2.0582"/>
<feComposite in2="hardAlpha" operator="arithmetic" k2="-1" k3="1"/>
<feColorMatrix type="matrix" values="0 0 0 0 0 0 0 0 0 0.82 0 0 0 0 1 0 0 0 0.25 0"/>
<feBlend mode="normal" in2="shape" result="effect2_innerShadow_207_1200"/>
</filter>
<linearGradient id="paint0_linear_207_1200" x1="50.034" y1="60.3449" x2="31.7916" y2="89.1989" gradientUnits="userSpaceOnUse">
<stop stop-color="#D7F0FF"/>
<stop offset="1" stop-color="#0072DC"/>
</linearGradient>
<linearGradient id="paint1_linear_207_1200" x1="103.034" y1="60.3449" x2="84.7916" y2="89.1989" gradientUnits="userSpaceOnUse">
<stop stop-color="#D7F0FF"/>
<stop offset="1" stop-color="#0072DC"/>
</linearGradient>
<linearGradient id="paint2_linear_207_1200" x1="49.3917" y1="78.1131" x2="47.0123" y2="108.265" gradientUnits="userSpaceOnUse">
<stop stop-color="#D7F0FF"/>
<stop offset="1" stop-color="#0072DC"/>
</linearGradient>
<linearGradient id="paint3_linear_207_1200" x1="7.27935" y1="103.399" x2="24.2446" y2="89.0799" gradientUnits="userSpaceOnUse">
<stop stop-color="#0056D6"/>
<stop offset="1" stop-color="#ADD8FF"/>
</linearGradient>
<linearGradient id="paint4_linear_207_1200" x1="58.2793" y1="103.399" x2="75.2446" y2="89.0799" gradientUnits="userSpaceOnUse">
<stop stop-color="#0056D6"/>
<stop offset="1" stop-color="#ADD8FF"/>
</linearGradient>
<linearGradient id="paint5_linear_207_1200" x1="38.2793" y1="81.3993" x2="55.2446" y2="67.0799" gradientUnits="userSpaceOnUse">
<stop stop-color="#0056D6"/>
<stop offset="1" stop-color="#ADD8FF"/>
</linearGradient>
<linearGradient id="paint6_linear_207_1200" x1="65.0908" y1="33.7078" x2="80.344" y2="-4.14769e-07" gradientUnits="userSpaceOnUse">
<stop stop-color="#2BA6FF"/>
<stop offset="0.299998" stop-color="#48B2FF" stop-opacity="0.75"/>
<stop offset="1" stop-color="#3BADFF" stop-opacity="0"/>
</linearGradient>
<linearGradient id="paint7_linear_207_1200" x1="43.9999" y1="5" x2="43.9999" y2="70" gradientUnits="userSpaceOnUse">
<stop stop-color="#FDC500"/>
<stop offset="1" stop-color="#FD8900"/>
</linearGradient>
<linearGradient id="paint8_linear_207_1200" x1="26.7566" y1="82.0522" x2="15.9999" y2="22.5" gradientUnits="userSpaceOnUse">
<stop offset="0.13121" stop-color="#2BA6FF"/>
<stop offset="1" stop-color="#3BADFF" stop-opacity="0"/>
</linearGradient>
</defs>
</svg>
