<svg width="108" height="109" viewBox="0 0 108 109" fill="none" xmlns="http://www.w3.org/2000/svg">
<path fill-rule="evenodd" clip-rule="evenodd" d="M32.8063 89.875C32.8063 88.8395 31.9668 88 30.9313 88C29.8957 88 29.0563 88.8395 29.0563 89.875V92.4046L27.2676 90.6159C26.5354 89.8837 25.3482 89.8837 24.6159 90.6159C23.8837 91.3482 23.8837 92.5353 24.6159 93.2676L26.4048 95.0564H23.875C22.8395 95.0564 22 95.8959 22 96.9314C22 97.9669 22.8395 98.8064 23.875 98.8064H26.4046L24.6158 100.595C23.8836 101.327 23.8836 102.515 24.6158 103.247C25.348 103.979 26.5352 103.979 27.2674 103.247L29.0563 101.458V103.988C29.0563 105.023 29.8957 105.863 30.9313 105.863C31.9668 105.863 32.8063 105.023 32.8063 103.988V101.458L34.5952 103.247C35.3275 103.979 36.5147 103.979 37.2469 103.247C37.9791 102.515 37.9791 101.327 37.2469 100.595L35.4581 98.8064H37.9879C39.0234 98.8064 39.8629 97.9669 39.8629 96.9314C39.8629 95.8959 39.0234 95.0564 37.9879 95.0564H35.4579L37.2467 93.2676C37.979 92.5353 37.979 91.3482 37.2467 90.6159C36.5145 89.8837 35.3273 89.8837 34.5951 90.6159L32.8063 92.4047V89.875Z" fill="url(#paint0_linear_207_1485)"/>
<path fill-rule="evenodd" clip-rule="evenodd" d="M100.806 89.875C100.806 88.8395 99.9668 88 98.9313 88C97.8957 88 97.0563 88.8395 97.0563 89.875V92.4046L95.2676 90.6159C94.5354 89.8837 93.3482 89.8837 92.6159 90.6159C91.8837 91.3482 91.8837 92.5353 92.6159 93.2676L94.4048 95.0564H91.875C90.8395 95.0564 90 95.8959 90 96.9314C90 97.9669 90.8395 98.8064 91.875 98.8064H94.4046L92.6158 100.595C91.8836 101.327 91.8836 102.515 92.6158 103.247C93.348 103.979 94.5352 103.979 95.2674 103.247L97.0563 101.458V103.988C97.0563 105.023 97.8957 105.863 98.9313 105.863C99.9668 105.863 100.806 105.023 100.806 103.988V101.458L102.595 103.247C103.327 103.979 104.515 103.979 105.247 103.247C105.979 102.515 105.979 101.327 105.247 100.595L103.458 98.8064H105.988C107.023 98.8064 107.863 97.9669 107.863 96.9314C107.863 95.8959 107.023 95.0564 105.988 95.0564H103.458L105.247 93.2676C105.979 92.5353 105.979 91.3482 105.247 90.6159C104.515 89.8837 103.327 89.8837 102.595 90.6159L100.806 92.4047V89.875Z" fill="url(#paint1_linear_207_1485)"/>
<path fill-rule="evenodd" clip-rule="evenodd" d="M10.8063 89.875C10.8063 88.8395 9.9668 88 8.93127 88C7.89573 88 7.05627 88.8395 7.05627 89.875V92.4046L5.2676 90.6159C4.53536 89.8837 3.34818 89.8837 2.61595 90.6159C1.88371 91.3482 1.88371 92.5353 2.61595 93.2676L4.40478 95.0564H1.875C0.839466 95.0564 0 95.8959 0 96.9314C0 97.9669 0.839466 98.8064 1.875 98.8064H4.4046L2.61579 100.595C1.88355 101.327 1.88355 102.515 2.61579 103.247C3.34802 103.979 4.5352 103.979 5.26744 103.247L7.05627 101.458V103.988C7.05627 105.023 7.89573 105.863 8.93127 105.863C9.9668 105.863 10.8063 105.023 10.8063 103.988V101.458L12.5952 103.247C13.3275 103.979 14.5147 103.979 15.2469 103.247C15.9791 102.515 15.9791 101.327 15.2469 100.595L13.4581 98.8064H15.9879C17.0234 98.8064 17.8629 97.9669 17.8629 96.9314C17.8629 95.8959 17.0234 95.0564 15.9879 95.0564H13.4579L15.2467 93.2676C15.979 92.5353 15.979 91.3482 15.2467 90.6159C14.5145 89.8837 13.3273 89.8837 12.5951 90.6159L10.8063 92.4047V89.875Z" fill="url(#paint2_linear_207_1485)"/>
<path fill-rule="evenodd" clip-rule="evenodd" d="M78.8063 89.875C78.8063 88.8395 77.9668 88 76.9313 88C75.8957 88 75.0563 88.8395 75.0563 89.875V92.4046L73.2676 90.6159C72.5354 89.8837 71.3482 89.8837 70.6159 90.6159C69.8837 91.3482 69.8837 92.5353 70.6159 93.2676L72.4048 95.0564H69.875C68.8395 95.0564 68 95.8959 68 96.9314C68 97.9669 68.8395 98.8064 69.875 98.8064H72.4046L70.6158 100.595C69.8836 101.327 69.8836 102.515 70.6158 103.247C71.348 103.979 72.5352 103.979 73.2674 103.247L75.0563 101.458V103.988C75.0563 105.023 75.8957 105.863 76.9313 105.863C77.9668 105.863 78.8063 105.023 78.8063 103.988V101.458L80.5952 103.247C81.3275 103.979 82.5147 103.979 83.2469 103.247C83.9791 102.515 83.9791 101.327 83.2469 100.595L81.4581 98.8064H83.9879C85.0234 98.8064 85.8629 97.9669 85.8629 96.9314C85.8629 95.8959 85.0234 95.0564 83.9879 95.0564H81.4579L83.2467 93.2676C83.979 92.5353 83.979 91.3482 83.2467 90.6159C82.5145 89.8837 81.3273 89.8837 80.5951 90.6159L78.8063 92.4047V89.875Z" fill="url(#paint3_linear_207_1485)"/>
<path fill-rule="evenodd" clip-rule="evenodd" d="M92.8063 68.875C92.8063 67.8395 91.9668 67 90.9313 67C89.8957 67 89.0563 67.8395 89.0563 68.875V71.4046L87.2676 69.6159C86.5354 68.8837 85.3482 68.8837 84.6159 69.6159C83.8837 70.3482 83.8837 71.5353 84.6159 72.2676L86.4048 74.0564H83.875C82.8395 74.0564 82 74.8959 82 75.9314C82 76.9669 82.8395 77.8064 83.875 77.8064H86.4046L84.6158 79.5952C83.8836 80.3275 83.8836 81.5146 84.6158 82.2469C85.348 82.9791 86.5352 82.9791 87.2674 82.2469L89.0563 80.458V82.9879C89.0563 84.0234 89.8957 84.8629 90.9313 84.8629C91.9668 84.8629 92.8063 84.0234 92.8063 82.9879V80.4579L94.5952 82.2469C95.3275 82.9791 96.5147 82.9791 97.2469 82.2469C97.9791 81.5146 97.9791 80.3275 97.2469 79.5952L95.4581 77.8064H97.9879C99.0234 77.8064 99.8629 76.9669 99.8629 75.9314C99.8629 74.8959 99.0234 74.0564 97.9879 74.0564H95.4579L97.2467 72.2676C97.979 71.5353 97.979 70.3482 97.2467 69.6159C96.5145 68.8837 95.3273 68.8837 94.5951 69.6159L92.8063 71.4047V68.875Z" fill="url(#paint4_linear_207_1485)"/>
<path fill-rule="evenodd" clip-rule="evenodd" d="M34.8063 68.875C34.8063 67.8395 33.9668 67 32.9313 67C31.8957 67 31.0563 67.8395 31.0563 68.875V71.4046L29.2676 69.6159C28.5354 68.8837 27.3482 68.8837 26.6159 69.6159C25.8837 70.3482 25.8837 71.5353 26.6159 72.2676L28.4048 74.0564H25.875C24.8395 74.0564 24 74.8959 24 75.9314C24 76.9669 24.8395 77.8064 25.875 77.8064H28.4046L26.6158 79.5952C25.8836 80.3275 25.8836 81.5146 26.6158 82.2469C27.348 82.9791 28.5352 82.9791 29.2674 82.2469L31.0563 80.458V82.9879C31.0563 84.0234 31.8957 84.8629 32.9313 84.8629C33.9668 84.8629 34.8063 84.0234 34.8063 82.9879V80.4579L36.5952 82.2469C37.3275 82.9791 38.5147 82.9791 39.2469 82.2469C39.9791 81.5146 39.9791 80.3275 39.2469 79.5952L37.4581 77.8064H39.9879C41.0234 77.8064 41.8629 76.9669 41.8629 75.9314C41.8629 74.8959 41.0234 74.0564 39.9879 74.0564H37.4579L39.2467 72.2676C39.979 71.5353 39.979 70.3482 39.2467 69.6159C38.5145 68.8837 37.3273 68.8837 36.5951 69.6159L34.8063 71.4047V68.875Z" fill="url(#paint5_linear_207_1485)"/>
<path d="M47.8069 84.2814L60.9076 60.2315C60.9853 60.0888 61.1348 60 61.2973 60H78.2814C78.6114 60 78.826 60.3474 78.6782 60.6426L71.8724 74.2324C71.7246 74.5276 71.9391 74.875 72.2692 74.875H79L41.8784 107.356C41.5053 107.683 40.959 107.245 41.1967 106.81L52.7873 85.5941C52.9489 85.2983 52.7349 84.9375 52.3979 84.9375H48.1966C47.8598 84.9375 47.6458 84.5771 47.8069 84.2814Z" fill="url(#paint6_linear_207_1485)"/>
<g filter="url(#filter0_f_207_1485)">
<ellipse cx="80.1492" cy="25.4221" rx="11.8636" ry="3.57792" fill="#004E67" fill-opacity="0.7"/>
</g>
<g filter="url(#filter1_bi_207_1485)">
<path fill-rule="evenodd" clip-rule="evenodd" d="M88.9999 11.2987C88.9999 11.5956 88.9884 11.8898 88.9659 12.181C90.2031 11.1593 91.7896 10.5455 93.5195 10.5455C97.4715 10.5455 100.675 13.7492 100.675 17.7013C100.675 21.5271 97.673 24.6516 93.896 24.8474V24.8571H93.5344C93.5294 24.8571 93.5245 24.8572 93.5195 24.8572C93.5145 24.8572 93.5095 24.8571 93.5045 24.8571H67.1707C67.1657 24.8571 67.1607 24.8572 67.1557 24.8572C67.1508 24.8572 67.1458 24.8571 67.1408 24.8571H66.4025V24.818C62.8045 24.4416 59.9999 21.399 59.9999 17.7013C59.9999 13.996 62.8161 10.9484 66.4248 10.5823C66.7944 4.676 71.7017 0 77.7012 0C83.9413 0 88.9999 5.0586 88.9999 11.2987Z" fill="url(#paint7_linear_207_1485)"/>
</g>
<path d="M73.9355 55.4888C70.8499 55.6668 67.7603 55.2152 64.8562 54.1618C61.9521 53.1084 59.2948 51.4754 57.047 49.363C54.7992 47.2505 53.0084 44.7031 51.7845 41.877C50.5606 39.0509 49.9292 36.0056 49.9292 32.9278C49.9292 29.8501 50.5606 26.8048 51.7845 23.9786C53.0084 21.1525 54.7992 18.6051 57.047 16.4926C59.2948 14.3802 61.9521 12.7472 64.8562 11.6938C67.7603 10.6404 70.8499 10.1889 73.9355 10.3668C75.8842 10.3523 77.8254 10.6066 79.704 11.1226C74.0769 7.08929 67.3062 4.94518 60.3732 5.00107C53.4402 5.05695 46.7052 7.3099 41.1444 11.4334C35.5836 15.5568 31.486 21.3366 29.4455 27.9348C27.4049 34.533 27.5275 41.6069 29.7954 48.1311C32.0633 54.6553 36.3588 60.2908 42.0591 64.2208C47.7595 68.1508 54.5685 70.171 61.4993 69.9887C68.4301 69.8063 75.1225 67.4309 80.6065 63.2067C86.0905 58.9825 90.0811 53.129 91.9999 46.4947C89.9028 49.2938 87.1767 51.5652 84.0398 53.127C80.903 54.6888 77.4426 55.4977 73.9355 55.4888Z" fill="url(#paint8_linear_207_1485)"/>
<g filter="url(#filter2_f_207_1485)">
<ellipse cx="16.2083" cy="4.88823" rx="16.2083" ry="4.88823" transform="matrix(-1 0 0 1 60.2514 65.8439)" fill="#004E67" fill-opacity="0.7"/>
</g>
<g filter="url(#filter3_bi_207_1485)">
<path fill-rule="evenodd" clip-rule="evenodd" d="M31.951 51.4365C31.951 51.8421 31.9666 52.244 31.9973 52.6417C30.3071 51.2459 28.1397 50.4074 25.7764 50.4074C20.377 50.4074 16 54.7845 16 60.1839C16 65.4106 20.1016 69.6794 25.2618 69.947V69.9603H25.7641C25.7682 69.9603 25.7723 69.9603 25.7764 69.9603C25.7805 69.9603 25.7847 69.9603 25.7888 69.9603H61.7826C61.7867 69.9603 61.7909 69.9603 61.795 69.9603C61.7991 69.9603 61.8032 69.9603 61.8073 69.9603H62.824V69.9068C67.7397 69.3926 71.5714 65.2357 71.5714 60.1839C71.5714 55.1216 67.7238 50.9579 62.7935 50.4578C62.2886 42.3884 55.5841 36 47.3875 36C38.8621 36 31.951 42.9112 31.951 51.4365Z" fill="url(#paint9_linear_207_1485)"/>
</g>
<defs>
<filter id="filter0_f_207_1485" x="59.9999" y="13.5585" width="40.2987" height="23.7273" filterUnits="userSpaceOnUse" color-interpolation-filters="sRGB">
<feFlood flood-opacity="0" result="BackgroundImageFix"/>
<feBlend mode="normal" in="SourceGraphic" in2="BackgroundImageFix" result="shape"/>
<feGaussianBlur stdDeviation="4.14286" result="effect1_foregroundBlur_207_1485"/>
</filter>
<filter id="filter1_bi_207_1485" x="57.3635" y="-2.63636" width="45.9482" height="30.1299" filterUnits="userSpaceOnUse" color-interpolation-filters="sRGB">
<feFlood flood-opacity="0" result="BackgroundImageFix"/>
<feGaussianBlur in="BackgroundImageFix" stdDeviation="1.31818"/>
<feComposite in2="SourceAlpha" operator="in" result="effect1_backgroundBlur_207_1485"/>
<feBlend mode="normal" in="SourceGraphic" in2="effect1_backgroundBlur_207_1485" result="shape"/>
<feColorMatrix in="SourceAlpha" type="matrix" values="0 0 0 0 0 0 0 0 0 0 0 0 0 0 0 0 0 0 127 0" result="hardAlpha"/>
<feOffset dy="0.753247"/>
<feGaussianBlur stdDeviation="1.50649"/>
<feComposite in2="hardAlpha" operator="arithmetic" k2="-1" k3="1"/>
<feColorMatrix type="matrix" values="0 0 0 0 0 0 0 0 0 0.82 0 0 0 0 1 0 0 0 0.25 0"/>
<feBlend mode="normal" in2="shape" result="effect2_innerShadow_207_1485"/>
</filter>
<filter id="filter2_f_207_1485" x="16.5146" y="54.5238" width="55.0569" height="32.4166" filterUnits="userSpaceOnUse" color-interpolation-filters="sRGB">
<feFlood flood-opacity="0" result="BackgroundImageFix"/>
<feBlend mode="normal" in="SourceGraphic" in2="BackgroundImageFix" result="shape"/>
<feGaussianBlur stdDeviation="5.66005" result="effect1_foregroundBlur_207_1485"/>
</filter>
<filter id="filter3_bi_207_1485" x="12.3981" y="32.3981" width="62.7752" height="41.164" filterUnits="userSpaceOnUse" color-interpolation-filters="sRGB">
<feFlood flood-opacity="0" result="BackgroundImageFix"/>
<feGaussianBlur in="BackgroundImageFix" stdDeviation="1.80093"/>
<feComposite in2="SourceAlpha" operator="in" result="effect1_backgroundBlur_207_1485"/>
<feBlend mode="normal" in="SourceGraphic" in2="effect1_backgroundBlur_207_1485" result="shape"/>
<feColorMatrix in="SourceAlpha" type="matrix" values="0 0 0 0 0 0 0 0 0 0 0 0 0 0 0 0 0 0 127 0" result="hardAlpha"/>
<feOffset dy="1.0291"/>
<feGaussianBlur stdDeviation="2.0582"/>
<feComposite in2="hardAlpha" operator="arithmetic" k2="-1" k3="1"/>
<feColorMatrix type="matrix" values="0 0 0 0 0 0 0 0 0 0.82 0 0 0 0 1 0 0 0 0.25 0"/>
<feBlend mode="normal" in2="shape" result="effect2_innerShadow_207_1485"/>
</filter>
<linearGradient id="paint0_linear_207_1485" x1="24.55" y1="102.248" x2="41.5153" y2="87.9284" gradientUnits="userSpaceOnUse">
<stop stop-color="#0056D6"/>
<stop offset="1" stop-color="#ADD8FF"/>
</linearGradient>
<linearGradient id="paint1_linear_207_1485" x1="92.55" y1="102.248" x2="109.515" y2="87.9284" gradientUnits="userSpaceOnUse">
<stop stop-color="#0056D6"/>
<stop offset="1" stop-color="#ADD8FF"/>
</linearGradient>
<linearGradient id="paint2_linear_207_1485" x1="2.54998" y1="102.248" x2="19.5153" y2="87.9284" gradientUnits="userSpaceOnUse">
<stop stop-color="#0056D6"/>
<stop offset="1" stop-color="#ADD8FF"/>
</linearGradient>
<linearGradient id="paint3_linear_207_1485" x1="70.55" y1="102.248" x2="87.5153" y2="87.9284" gradientUnits="userSpaceOnUse">
<stop stop-color="#0056D6"/>
<stop offset="1" stop-color="#ADD8FF"/>
</linearGradient>
<linearGradient id="paint4_linear_207_1485" x1="84.55" y1="81.2478" x2="101.515" y2="66.9284" gradientUnits="userSpaceOnUse">
<stop stop-color="#0056D6"/>
<stop offset="1" stop-color="#ADD8FF"/>
</linearGradient>
<linearGradient id="paint5_linear_207_1485" x1="26.55" y1="81.2478" x2="43.5153" y2="66.9284" gradientUnits="userSpaceOnUse">
<stop stop-color="#0056D6"/>
<stop offset="1" stop-color="#ADD8FF"/>
</linearGradient>
<linearGradient id="paint6_linear_207_1485" x1="59.5" y1="60" x2="59.5" y2="109" gradientUnits="userSpaceOnUse">
<stop stop-color="#F8FD00"/>
<stop offset="1" stop-color="#FD9800"/>
</linearGradient>
<linearGradient id="paint7_linear_207_1485" x1="81.0908" y1="33.7078" x2="96.344" y2="-4.14769e-07" gradientUnits="userSpaceOnUse">
<stop stop-color="#2BA6FF"/>
<stop offset="0.299998" stop-color="#48B2FF" stop-opacity="0.75"/>
<stop offset="1" stop-color="#3BADFF" stop-opacity="0"/>
</linearGradient>
<linearGradient id="paint8_linear_207_1485" x1="59.9999" y1="5" x2="59.9999" y2="70" gradientUnits="userSpaceOnUse">
<stop stop-color="#FDC500"/>
<stop offset="1" stop-color="#FD8900"/>
</linearGradient>
<linearGradient id="paint9_linear_207_1485" x1="42.7566" y1="82.0522" x2="31.9999" y2="22.5" gradientUnits="userSpaceOnUse">
<stop offset="0.13121" stop-color="#2BA6FF"/>
<stop offset="1" stop-color="#3BADFF" stop-opacity="0"/>
</linearGradient>
</defs>
</svg>
