<svg width="109" height="112" viewBox="0 0 109 112" fill="none" xmlns="http://www.w3.org/2000/svg">
<path d="M31.3501 66.8078L21.4085 74.082C20.3191 74.8694 19.4284 75.8968 18.8052 77.0849C18.1819 78.273 17.8428 79.5899 17.814 80.934C17.8559 82.8526 18.5569 84.8484 20.9477 86.1352C23.3384 87.4219 25.3904 86.9078 27.0148 85.886C28.1208 85.1217 29.0332 84.1133 29.6816 82.9388C30.3299 81.7642 30.6969 80.4549 30.7542 79.112L31.3501 66.8078Z" fill="url(#paint0_linear_207_1250)"/>
<path d="M92.841 67.9271L82.8994 75.2013C81.81 75.9888 80.9193 77.0162 80.2961 78.2043C79.6729 79.3923 79.3337 80.7093 79.3049 82.0533C79.3468 83.9719 80.0478 85.9678 82.4386 87.2546C84.8293 88.5413 86.8813 88.0272 88.5057 87.0054C89.6117 86.2411 90.5241 85.2327 91.1725 84.0582C91.8208 82.8836 92.1878 81.5743 92.2451 80.2314L92.841 67.9271Z" fill="url(#paint1_linear_207_1250)"/>
<path d="M34.7578 88.8996L24.8532 96.224C23.7678 97.017 22.8823 98.0489 22.2651 99.2401C21.6479 100.431 21.3154 101.75 21.2934 103.094C21.345 105.012 22.0561 107.005 24.4534 108.279C26.8506 109.554 28.9 109.03 30.5192 108C31.6213 107.23 32.5286 106.217 33.171 105.039C33.8134 103.861 34.1737 102.55 34.2242 101.207L34.7578 88.8996Z" fill="url(#paint2_linear_207_1250)"/>
<path fill-rule="evenodd" clip-rule="evenodd" d="M10.8063 91.875C10.8063 90.8395 9.9668 90 8.93127 90C7.89573 90 7.05627 90.8395 7.05627 91.875V94.4046L5.2676 92.6159C4.53536 91.8837 3.34818 91.8837 2.61595 92.6159C1.88371 93.3482 1.88371 94.5353 2.61595 95.2676L4.40478 97.0564H1.875C0.839466 97.0564 0 97.8959 0 98.9314C0 99.9669 0.839466 100.806 1.875 100.806H4.4046L2.61579 102.595C1.88355 103.327 1.88355 104.515 2.61579 105.247C3.34802 105.979 4.5352 105.979 5.26744 105.247L7.05627 103.458V105.988C7.05627 107.023 7.89573 107.863 8.93127 107.863C9.9668 107.863 10.8063 107.023 10.8063 105.988V103.458L12.5952 105.247C13.3275 105.979 14.5147 105.979 15.2469 105.247C15.9791 104.515 15.9791 103.327 15.2469 102.595L13.4581 100.806H15.9879C17.0234 100.806 17.8629 99.9669 17.8629 98.9314C17.8629 97.8959 17.0234 97.0564 15.9879 97.0564H13.4579L15.2467 95.2676C15.979 94.5353 15.979 93.3482 15.2467 92.6159C14.5145 91.8837 13.3273 91.8837 12.5951 92.6159L10.8063 94.4047V91.875Z" fill="url(#paint3_linear_207_1250)"/>
<path fill-rule="evenodd" clip-rule="evenodd" d="M75.8063 91.875C75.8063 90.8395 74.9668 90 73.9313 90C72.8957 90 72.0563 90.8395 72.0563 91.875V94.4046L70.2676 92.6159C69.5354 91.8837 68.3482 91.8837 67.6159 92.6159C66.8837 93.3482 66.8837 94.5353 67.6159 95.2676L69.4048 97.0564H66.875C65.8395 97.0564 65 97.8959 65 98.9314C65 99.9669 65.8395 100.806 66.875 100.806H69.4046L67.6158 102.595C66.8836 103.327 66.8836 104.515 67.6158 105.247C68.348 105.979 69.5352 105.979 70.2674 105.247L72.0563 103.458V105.988C72.0563 107.023 72.8957 107.863 73.9313 107.863C74.9668 107.863 75.8063 107.023 75.8063 105.988V103.458L77.5952 105.247C78.3275 105.979 79.5147 105.979 80.2469 105.247C80.9791 104.515 80.9791 103.327 80.2469 102.595L78.4581 100.806H80.9879C82.0234 100.806 82.8629 99.9669 82.8629 98.9314C82.8629 97.8959 82.0234 97.0564 80.9879 97.0564H78.4579L80.2467 95.2676C80.979 94.5353 80.979 93.3482 80.2467 92.6159C79.5145 91.8837 78.3273 91.8837 77.5951 92.6159L75.8063 94.4047V91.875Z" fill="url(#paint4_linear_207_1250)"/>
<path fill-rule="evenodd" clip-rule="evenodd" d="M96.8063 91.875C96.8063 90.8395 95.9668 90 94.9313 90C93.8957 90 93.0563 90.8395 93.0563 91.875V94.4046L91.2676 92.6159C90.5354 91.8837 89.3482 91.8837 88.6159 92.6159C87.8837 93.3482 87.8837 94.5353 88.6159 95.2676L90.4048 97.0564H87.875C86.8395 97.0564 86 97.8959 86 98.9314C86 99.9669 86.8395 100.806 87.875 100.806H90.4046L88.6158 102.595C87.8836 103.327 87.8836 104.515 88.6158 105.247C89.348 105.979 90.5352 105.979 91.2674 105.247L93.0563 103.458V105.988C93.0563 107.023 93.8957 107.863 94.9313 107.863C95.9668 107.863 96.8063 107.023 96.8063 105.988V103.458L98.5952 105.247C99.3275 105.979 100.515 105.979 101.247 105.247C101.979 104.515 101.979 103.327 101.247 102.595L99.4581 100.806H101.988C103.023 100.806 103.863 99.9669 103.863 98.9314C103.863 97.8959 103.023 97.0564 101.988 97.0564H99.4579L101.247 95.2676C101.979 94.5353 101.979 93.3482 101.247 92.6159C100.515 91.8837 99.3273 91.8837 98.5951 92.6159L96.8063 94.4047V91.875Z" fill="url(#paint5_linear_207_1250)"/>
<path d="M43.8069 86.2814L56.9076 62.2315C56.9853 62.0888 57.1348 62 57.2973 62H74.2814C74.6114 62 74.826 62.3474 74.6782 62.6426L67.8724 76.2324C67.7246 76.5276 67.9391 76.875 68.2692 76.875H75L37.8784 109.356C37.5053 109.683 36.959 109.245 37.1967 108.81L48.7873 87.5941C48.9489 87.2983 48.7349 86.9375 48.3979 86.9375H44.1966C43.8598 86.9375 43.6458 86.5771 43.8069 86.2814Z" fill="url(#paint6_linear_207_1250)"/>
<g filter="url(#filter0_f_207_1250)">
<ellipse cx="75.1492" cy="25.4221" rx="11.8636" ry="3.57792" fill="#004E67" fill-opacity="0.7"/>
</g>
<g filter="url(#filter1_bi_207_1250)">
<path fill-rule="evenodd" clip-rule="evenodd" d="M83.9999 11.2987C83.9999 11.5956 83.9884 11.8898 83.9659 12.181C85.2031 11.1593 86.7896 10.5455 88.5195 10.5455C92.4715 10.5455 95.6753 13.7492 95.6753 17.7013C95.6753 21.5271 92.673 24.6516 88.896 24.8474V24.8571H88.5344C88.5294 24.8571 88.5245 24.8572 88.5195 24.8572C88.5145 24.8572 88.5095 24.8571 88.5045 24.8571H62.1707C62.1657 24.8571 62.1607 24.8572 62.1557 24.8572C62.1507 24.8572 62.1458 24.8571 62.1408 24.8571H61.4025V24.818C57.8045 24.4416 54.9999 21.399 54.9999 17.7013C54.9999 13.996 57.8161 10.9484 61.4248 10.5823C61.7943 4.676 66.7017 0 72.7012 0C78.9413 0 83.9999 5.0586 83.9999 11.2987Z" fill="url(#paint7_linear_207_1250)"/>
</g>
<path d="M68.9355 55.4888C65.8499 55.6668 62.7603 55.2152 59.8562 54.1618C56.9521 53.1084 54.2947 51.4754 52.047 49.363C49.7992 47.2505 48.0084 44.7031 46.7845 41.877C45.5605 39.0509 44.9292 36.0056 44.9292 32.9278C44.9292 29.8501 45.5605 26.8048 46.7845 23.9786C48.0084 21.1525 49.7992 18.6051 52.047 16.4926C54.2947 14.3802 56.9521 12.7472 59.8562 11.6938C62.7603 10.6404 65.8499 10.1889 68.9355 10.3668C70.8841 10.3523 72.8254 10.6066 74.704 11.1226C69.0769 7.08929 62.3062 4.94518 55.3732 5.00107C48.4402 5.05695 41.7052 7.3099 36.1444 11.4334C30.5836 15.5568 26.486 21.3366 24.4454 27.9348C22.4049 34.533 22.5275 41.6069 24.7954 48.1311C27.0633 54.6553 31.3588 60.2908 37.0591 64.2208C42.7594 68.1508 49.5685 70.171 56.4993 69.9887C63.4301 69.8063 70.1225 67.4309 75.6065 63.2067C81.0905 58.9825 85.0811 53.129 86.9999 46.4947C84.9027 49.2938 82.1767 51.5652 79.0398 53.127C75.903 54.6888 72.4426 55.4977 68.9355 55.4888Z" fill="url(#paint8_linear_207_1250)"/>
<g filter="url(#filter2_f_207_1250)">
<ellipse cx="16.2083" cy="4.88823" rx="16.2083" ry="4.88823" transform="matrix(-1 0 0 1 55.2513 65.8439)" fill="#004E67" fill-opacity="0.7"/>
</g>
<g filter="url(#filter3_bi_207_1250)">
<path fill-rule="evenodd" clip-rule="evenodd" d="M26.951 51.4365C26.951 51.8421 26.9666 52.244 26.9973 52.6417C25.3071 51.2459 23.1397 50.4074 20.7764 50.4074C15.377 50.4074 11 54.7845 11 60.1839C11 65.4106 15.1016 69.6794 20.2618 69.947V69.9603H20.7641C20.7682 69.9603 20.7723 69.9603 20.7764 69.9603C20.7805 69.9603 20.7846 69.9603 20.7888 69.9603H56.7826C56.7867 69.9603 56.7908 69.9603 56.795 69.9603C56.7991 69.9603 56.8032 69.9603 56.8073 69.9603H57.824V69.9068C62.7397 69.3926 66.5714 65.2357 66.5714 60.1839C66.5714 55.1216 62.7238 50.9579 57.7935 50.4578C57.2886 42.3884 50.5841 36 42.3875 36C33.8621 36 26.951 42.9112 26.951 51.4365Z" fill="url(#paint9_linear_207_1250)"/>
</g>
<defs>
<filter id="filter0_f_207_1250" x="54.9999" y="13.5585" width="40.2987" height="23.7273" filterUnits="userSpaceOnUse" color-interpolation-filters="sRGB">
<feFlood flood-opacity="0" result="BackgroundImageFix"/>
<feBlend mode="normal" in="SourceGraphic" in2="BackgroundImageFix" result="shape"/>
<feGaussianBlur stdDeviation="4.14286" result="effect1_foregroundBlur_207_1250"/>
</filter>
<filter id="filter1_bi_207_1250" x="52.3635" y="-2.63636" width="45.9481" height="30.1299" filterUnits="userSpaceOnUse" color-interpolation-filters="sRGB">
<feFlood flood-opacity="0" result="BackgroundImageFix"/>
<feGaussianBlur in="BackgroundImageFix" stdDeviation="1.31818"/>
<feComposite in2="SourceAlpha" operator="in" result="effect1_backgroundBlur_207_1250"/>
<feBlend mode="normal" in="SourceGraphic" in2="effect1_backgroundBlur_207_1250" result="shape"/>
<feColorMatrix in="SourceAlpha" type="matrix" values="0 0 0 0 0 0 0 0 0 0 0 0 0 0 0 0 0 0 127 0" result="hardAlpha"/>
<feOffset dy="0.753247"/>
<feGaussianBlur stdDeviation="1.50649"/>
<feComposite in2="hardAlpha" operator="arithmetic" k2="-1" k3="1"/>
<feColorMatrix type="matrix" values="0 0 0 0 0 0 0 0 0 0.82 0 0 0 0 1 0 0 0 0.25 0"/>
<feBlend mode="normal" in2="shape" result="effect2_innerShadow_207_1250"/>
</filter>
<filter id="filter2_f_207_1250" x="11.5145" y="54.5238" width="55.0569" height="32.4166" filterUnits="userSpaceOnUse" color-interpolation-filters="sRGB">
<feFlood flood-opacity="0" result="BackgroundImageFix"/>
<feBlend mode="normal" in="SourceGraphic" in2="BackgroundImageFix" result="shape"/>
<feGaussianBlur stdDeviation="5.66005" result="effect1_foregroundBlur_207_1250"/>
</filter>
<filter id="filter3_bi_207_1250" x="7.39809" y="32.3981" width="62.7752" height="41.164" filterUnits="userSpaceOnUse" color-interpolation-filters="sRGB">
<feFlood flood-opacity="0" result="BackgroundImageFix"/>
<feGaussianBlur in="BackgroundImageFix" stdDeviation="1.80093"/>
<feComposite in2="SourceAlpha" operator="in" result="effect1_backgroundBlur_207_1250"/>
<feBlend mode="normal" in="SourceGraphic" in2="effect1_backgroundBlur_207_1250" result="shape"/>
<feColorMatrix in="SourceAlpha" type="matrix" values="0 0 0 0 0 0 0 0 0 0 0 0 0 0 0 0 0 0 127 0" result="hardAlpha"/>
<feOffset dy="1.0291"/>
<feGaussianBlur stdDeviation="2.0582"/>
<feComposite in2="hardAlpha" operator="arithmetic" k2="-1" k3="1"/>
<feColorMatrix type="matrix" values="0 0 0 0 0 0 0 0 0 0.82 0 0 0 0 1 0 0 0 0.25 0"/>
<feBlend mode="normal" in2="shape" result="effect2_innerShadow_207_1250"/>
</filter>
<linearGradient id="paint0_linear_207_1250" x1="59.5431" y1="62.2255" x2="41.3007" y2="91.0795" gradientUnits="userSpaceOnUse">
<stop stop-color="#D7F0FF"/>
<stop offset="1" stop-color="#0072DC"/>
</linearGradient>
<linearGradient id="paint1_linear_207_1250" x1="114.305" y1="64.1934" x2="96.0622" y2="93.0473" gradientUnits="userSpaceOnUse">
<stop stop-color="#D7F0FF"/>
<stop offset="1" stop-color="#0072DC"/>
</linearGradient>
<linearGradient id="paint2_linear_207_1250" x1="39.6623" y1="78.9617" x2="37.2829" y2="109.113" gradientUnits="userSpaceOnUse">
<stop stop-color="#D7F0FF"/>
<stop offset="1" stop-color="#0072DC"/>
</linearGradient>
<linearGradient id="paint3_linear_207_1250" x1="2.54998" y1="104.248" x2="19.5153" y2="89.9284" gradientUnits="userSpaceOnUse">
<stop stop-color="#0056D6"/>
<stop offset="1" stop-color="#ADD8FF"/>
</linearGradient>
<linearGradient id="paint4_linear_207_1250" x1="67.55" y1="104.248" x2="84.5153" y2="89.9284" gradientUnits="userSpaceOnUse">
<stop stop-color="#0056D6"/>
<stop offset="1" stop-color="#ADD8FF"/>
</linearGradient>
<linearGradient id="paint5_linear_207_1250" x1="88.55" y1="104.248" x2="105.515" y2="89.9284" gradientUnits="userSpaceOnUse">
<stop stop-color="#0056D6"/>
<stop offset="1" stop-color="#ADD8FF"/>
</linearGradient>
<linearGradient id="paint6_linear_207_1250" x1="55.5" y1="62" x2="55.5" y2="111" gradientUnits="userSpaceOnUse">
<stop stop-color="#F8FD00"/>
<stop offset="1" stop-color="#FD9800"/>
</linearGradient>
<linearGradient id="paint7_linear_207_1250" x1="76.0908" y1="33.7078" x2="91.344" y2="-4.14769e-07" gradientUnits="userSpaceOnUse">
<stop stop-color="#2BA6FF"/>
<stop offset="0.299998" stop-color="#48B2FF" stop-opacity="0.75"/>
<stop offset="1" stop-color="#3BADFF" stop-opacity="0"/>
</linearGradient>
<linearGradient id="paint8_linear_207_1250" x1="54.9999" y1="5" x2="54.9999" y2="70" gradientUnits="userSpaceOnUse">
<stop stop-color="#FDC500"/>
<stop offset="1" stop-color="#FD8900"/>
</linearGradient>
<linearGradient id="paint9_linear_207_1250" x1="37.7566" y1="82.0522" x2="26.9999" y2="22.5" gradientUnits="userSpaceOnUse">
<stop offset="0.13121" stop-color="#2BA6FF"/>
<stop offset="1" stop-color="#3BADFF" stop-opacity="0"/>
</linearGradient>
</defs>
</svg>
