<svg width="85" height="105" viewBox="0 0 85 105" fill="none" xmlns="http://www.w3.org/2000/svg">
<path d="M26.8069 80.2814L39.9076 56.2315C39.9853 56.0888 40.1348 56 40.2973 56H57.2814C57.6114 56 57.826 56.3474 57.6782 56.6426L50.8724 70.2324C50.7246 70.5276 50.9391 70.875 51.2692 70.875H58L20.8784 103.356C20.5053 103.683 19.959 103.245 20.1967 102.81L31.7873 81.5941C31.9489 81.2983 31.7349 80.9375 31.3979 80.9375H27.1966C26.8598 80.9375 26.6458 80.5771 26.8069 80.2814Z" fill="url(#paint0_linear_207_1096)"/>
<path d="M68.9698 67.9401L59.379 79.0567C58.3 80.23 57.5285 81.6407 57.1282 83.1721C56.728 84.7035 56.7105 86.3116 57.0772 87.8634C57.38 89.0944 58.0205 90.2278 58.93 91.1421C59.8396 92.0565 60.9839 92.7175 62.2405 93.0542C63.4971 93.3909 64.8186 93.3906 66.0635 93.0535C67.3083 92.7164 68.4297 92.0551 69.3074 91.1405C70.3966 89.9792 71.1867 88.5819 71.6146 87.0602C72.0425 85.5386 72.0962 83.9349 71.7715 82.3773L68.9698 67.9401Z" fill="url(#paint1_linear_207_1096)"/>
<g filter="url(#filter0_f_207_1096)">
<ellipse cx="64.1492" cy="25.4221" rx="11.8636" ry="3.57792" fill="#004E67" fill-opacity="0.7"/>
</g>
<g filter="url(#filter1_bi_207_1096)">
<path fill-rule="evenodd" clip-rule="evenodd" d="M72.9999 11.2987C72.9999 11.5956 72.9884 11.8898 72.9659 12.181C74.2031 11.1593 75.7896 10.5455 77.5195 10.5455C81.4715 10.5455 84.6753 13.7492 84.6753 17.7013C84.6753 21.5271 81.673 24.6516 77.896 24.8474V24.8571H77.5344C77.5294 24.8571 77.5245 24.8572 77.5195 24.8572C77.5145 24.8572 77.5095 24.8571 77.5045 24.8571H51.1707C51.1657 24.8571 51.1607 24.8572 51.1557 24.8572C51.1507 24.8572 51.1458 24.8571 51.1408 24.8571H50.4025V24.818C46.8045 24.4416 43.9999 21.399 43.9999 17.7013C43.9999 13.996 46.8161 10.9484 50.4248 10.5823C50.7943 4.676 55.7017 0 61.7012 0C67.9413 0 72.9999 5.0586 72.9999 11.2987Z" fill="url(#paint2_linear_207_1096)"/>
</g>
<path d="M57.9355 55.4888C54.8499 55.6668 51.7603 55.2152 48.8562 54.1618C45.9521 53.1084 43.2947 51.4754 41.047 49.363C38.7992 47.2505 37.0084 44.7031 35.7845 41.877C34.5605 39.0509 33.9292 36.0056 33.9292 32.9278C33.9292 29.8501 34.5605 26.8048 35.7845 23.9786C37.0084 21.1525 38.7992 18.6051 41.047 16.4926C43.2947 14.3802 45.9521 12.7472 48.8562 11.6938C51.7603 10.6404 54.8499 10.1889 57.9355 10.3668C59.8841 10.3523 61.8254 10.6066 63.704 11.1226C58.0769 7.08929 51.3062 4.94518 44.3732 5.00107C37.4402 5.05695 30.7052 7.3099 25.1444 11.4334C19.5836 15.5568 15.486 21.3366 13.4454 27.9348C11.4049 34.533 11.5275 41.6069 13.7954 48.1311C16.0633 54.6553 20.3588 60.2908 26.0591 64.2208C31.7594 68.1508 38.5685 70.171 45.4993 69.9887C52.4301 69.8063 59.1225 67.4309 64.6065 63.2067C70.0905 58.9825 74.0811 53.129 75.9999 46.4947C73.9027 49.2938 71.1767 51.5652 68.0398 53.127C64.903 54.6888 61.4426 55.4977 57.9355 55.4888Z" fill="url(#paint3_linear_207_1096)"/>
<g filter="url(#filter2_f_207_1096)">
<ellipse cx="16.2083" cy="4.88823" rx="16.2083" ry="4.88823" transform="matrix(-1 0 0 1 44.2513 65.8439)" fill="#004E67" fill-opacity="0.7"/>
</g>
<g filter="url(#filter3_bi_207_1096)">
<path fill-rule="evenodd" clip-rule="evenodd" d="M15.951 51.4365C15.951 51.8421 15.9666 52.244 15.9973 52.6417C14.3071 51.2459 12.1397 50.4074 9.77641 50.4074C4.37702 50.4074 -4.57764e-05 54.7845 -4.57764e-05 60.1839C-4.57764e-05 65.4106 4.10163 69.6794 9.26181 69.947V69.9603H9.76406C9.76818 69.9603 9.77229 69.9603 9.77641 69.9603C9.78053 69.9603 9.78464 69.9603 9.78876 69.9603H45.7826C45.7867 69.9603 45.7908 69.9603 45.795 69.9603C45.7991 69.9603 45.8032 69.9603 45.8073 69.9603H46.824V69.9068C51.7397 69.3926 55.5714 65.2357 55.5714 60.1839C55.5714 55.1216 51.7238 50.9579 46.7935 50.4578C46.2886 42.3884 39.5841 36 31.3875 36C22.8621 36 15.951 42.9112 15.951 51.4365Z" fill="url(#paint4_linear_207_1096)"/>
</g>
<path fill-rule="evenodd" clip-rule="evenodd" d="M13.3741 72.3753C13.3741 71.0634 12.3106 70 10.9988 70C9.68698 70 8.62354 71.0634 8.62354 72.3753V75.2644L6.58063 73.2215C5.65304 72.2939 4.14911 72.2939 3.22152 73.2215C2.29392 74.1491 2.29392 75.653 3.22152 76.5806L5.26463 78.6237H2.37525C1.06343 78.6237 -5.60736e-06 79.6872 -5.72205e-06 80.999C-5.83673e-06 82.3108 1.06343 83.3742 2.37525 83.3742H5.26441L3.22132 85.4173C2.29373 86.3449 2.29373 87.8488 3.22132 88.7764C4.14892 89.704 5.65285 89.704 6.58044 88.7764L8.62354 86.7333V89.6228C8.62354 90.9346 9.68698 91.998 10.9988 91.998C12.3106 91.998 13.3741 90.9346 13.3741 89.6228V86.7331L15.4173 88.7764C16.3449 89.704 17.8489 89.704 18.7765 88.7764C19.7041 87.8488 19.7041 86.3449 18.7765 85.4173L16.7334 83.3742H19.6227C20.9346 83.3742 21.998 82.3108 21.998 80.999C21.998 79.6872 20.9346 78.6237 19.6227 78.6237H16.7332L18.7763 76.5806C19.7039 75.653 19.7039 74.1491 18.7763 73.2215C17.8487 72.2939 16.3447 72.2939 15.4171 73.2215L13.3741 75.2646V72.3753Z" fill="url(#paint5_linear_207_1096)"/>
<defs>
<filter id="filter0_f_207_1096" x="43.9999" y="13.5584" width="40.2987" height="23.7273" filterUnits="userSpaceOnUse" color-interpolation-filters="sRGB">
<feFlood flood-opacity="0" result="BackgroundImageFix"/>
<feBlend mode="normal" in="SourceGraphic" in2="BackgroundImageFix" result="shape"/>
<feGaussianBlur stdDeviation="4.14286" result="effect1_foregroundBlur_207_1096"/>
</filter>
<filter id="filter1_bi_207_1096" x="41.3635" y="-2.63636" width="45.9481" height="30.1299" filterUnits="userSpaceOnUse" color-interpolation-filters="sRGB">
<feFlood flood-opacity="0" result="BackgroundImageFix"/>
<feGaussianBlur in="BackgroundImageFix" stdDeviation="1.31818"/>
<feComposite in2="SourceAlpha" operator="in" result="effect1_backgroundBlur_207_1096"/>
<feBlend mode="normal" in="SourceGraphic" in2="effect1_backgroundBlur_207_1096" result="shape"/>
<feColorMatrix in="SourceAlpha" type="matrix" values="0 0 0 0 0 0 0 0 0 0 0 0 0 0 0 0 0 0 127 0" result="hardAlpha"/>
<feOffset dy="0.753247"/>
<feGaussianBlur stdDeviation="1.50649"/>
<feComposite in2="hardAlpha" operator="arithmetic" k2="-1" k3="1"/>
<feColorMatrix type="matrix" values="0 0 0 0 0 0 0 0 0 0.82 0 0 0 0 1 0 0 0 0.25 0"/>
<feBlend mode="normal" in2="shape" result="effect2_innerShadow_207_1096"/>
</filter>
<filter id="filter2_f_207_1096" x="0.514549" y="54.5238" width="55.0569" height="32.4166" filterUnits="userSpaceOnUse" color-interpolation-filters="sRGB">
<feFlood flood-opacity="0" result="BackgroundImageFix"/>
<feBlend mode="normal" in="SourceGraphic" in2="BackgroundImageFix" result="shape"/>
<feGaussianBlur stdDeviation="5.66005" result="effect1_foregroundBlur_207_1096"/>
</filter>
<filter id="filter3_bi_207_1096" x="-3.60191" y="32.3981" width="62.7752" height="41.164" filterUnits="userSpaceOnUse" color-interpolation-filters="sRGB">
<feFlood flood-opacity="0" result="BackgroundImageFix"/>
<feGaussianBlur in="BackgroundImageFix" stdDeviation="1.80093"/>
<feComposite in2="SourceAlpha" operator="in" result="effect1_backgroundBlur_207_1096"/>
<feBlend mode="normal" in="SourceGraphic" in2="effect1_backgroundBlur_207_1096" result="shape"/>
<feColorMatrix in="SourceAlpha" type="matrix" values="0 0 0 0 0 0 0 0 0 0 0 0 0 0 0 0 0 0 127 0" result="hardAlpha"/>
<feOffset dy="1.0291"/>
<feGaussianBlur stdDeviation="2.0582"/>
<feComposite in2="hardAlpha" operator="arithmetic" k2="-1" k3="1"/>
<feColorMatrix type="matrix" values="0 0 0 0 0 0 0 0 0 0.82 0 0 0 0 1 0 0 0 0.25 0"/>
<feBlend mode="normal" in2="shape" result="effect2_innerShadow_207_1096"/>
</filter>
<linearGradient id="paint0_linear_207_1096" x1="38.5" y1="56" x2="38.5" y2="105" gradientUnits="userSpaceOnUse">
<stop stop-color="#F8FD00"/>
<stop offset="1" stop-color="#FD9800"/>
</linearGradient>
<linearGradient id="paint1_linear_207_1096" x1="68.9738" y1="67.9411" x2="57.8978" y2="91.8905" gradientUnits="userSpaceOnUse">
<stop stop-color="#D7F0FF"/>
<stop offset="1" stop-color="#0072DC"/>
</linearGradient>
<linearGradient id="paint2_linear_207_1096" x1="65.0908" y1="33.7078" x2="80.344" y2="-4.14769e-07" gradientUnits="userSpaceOnUse">
<stop stop-color="#2BA6FF"/>
<stop offset="0.299998" stop-color="#48B2FF" stop-opacity="0.75"/>
<stop offset="1" stop-color="#3BADFF" stop-opacity="0"/>
</linearGradient>
<linearGradient id="paint3_linear_207_1096" x1="43.9999" y1="5" x2="43.9999" y2="70" gradientUnits="userSpaceOnUse">
<stop stop-color="#FDC500"/>
<stop offset="1" stop-color="#FD8900"/>
</linearGradient>
<linearGradient id="paint4_linear_207_1096" x1="26.7566" y1="82.0522" x2="15.9999" y2="22.5" gradientUnits="userSpaceOnUse">
<stop offset="0.13121" stop-color="#2BA6FF"/>
<stop offset="1" stop-color="#3BADFF" stop-opacity="0"/>
</linearGradient>
<linearGradient id="paint5_linear_207_1096" x1="3.14028" y1="87.546" x2="24.0329" y2="69.9119" gradientUnits="userSpaceOnUse">
<stop stop-color="#0056D6"/>
<stop offset="1" stop-color="#ADD8FF"/>
</linearGradient>
</defs>
</svg>
