<svg width="89" height="109" viewBox="0 0 89 109" fill="none" xmlns="http://www.w3.org/2000/svg">
<path d="M29.6783 84.2818L42.779 60.2319C42.8568 60.0892 43.0063 60.0004 43.1688 60.0004H60.1528C60.4828 60.0004 60.6974 60.3479 60.5496 60.643L53.7438 74.2329C53.596 74.528 53.8106 74.8754 54.1406 74.8754H60.8714L23.7499 107.357C23.3767 107.683 22.8304 107.245 23.0681 106.81L34.6588 85.5945C34.8204 85.2988 34.6063 84.9379 34.2693 84.9379H30.068C29.7313 84.9379 29.5172 84.5775 29.6783 84.2818Z" fill="url(#paint0_linear_207_1019)"/>
<path fill-rule="evenodd" clip-rule="evenodd" d="M22.4137 52.6219C23.6335 53.2688 24.0979 54.782 23.451 56.0018L19.7026 63.0693C19.0557 64.2891 17.5424 64.7535 16.3226 64.1066C15.1029 63.4596 14.6385 61.9464 15.2854 60.7266L19.0338 53.6591C19.6807 52.4393 21.194 51.9749 22.4137 52.6219ZM32.9402 56.9005C34.1608 57.5459 34.6271 59.0586 33.9817 60.2792L26.9703 73.5397C26.3249 74.7603 24.8123 75.2265 23.5917 74.5811C22.3711 73.9357 21.9048 72.423 22.5502 71.2024L29.5616 57.9419C30.207 56.7214 31.7197 56.2551 32.9402 56.9005ZM75.2383 57.2339C76.468 57.8618 76.9559 59.3677 76.328 60.5974L63.5945 85.5345C62.9666 86.7641 61.4607 87.252 60.231 86.6241C59.0013 85.9962 58.5135 84.4903 59.1414 83.2606L71.8749 58.3235C72.5028 57.0939 74.0087 56.606 75.2383 57.2339ZM57.9572 91.0771C59.1868 91.705 59.6747 93.2109 59.0468 94.4405L55.8634 100.675C55.2355 101.904 53.7296 102.392 52.5 101.764C51.2703 101.137 50.7825 99.6307 51.4104 98.401L54.5937 92.1667C55.2216 90.937 56.7275 90.4492 57.9572 91.0771ZM73.6089 90.8354C72.9821 92.0657 71.4767 92.5548 70.2464 91.928C69.0162 91.3011 68.5271 89.7957 69.1539 88.5655L72.3319 82.3284C72.9587 81.0982 74.4641 80.6091 75.6944 81.2359C76.9246 81.8627 77.4137 83.3682 76.7869 84.5984L73.6089 90.8354ZM78.4183 75.8898C79.6485 76.5167 81.1539 76.0275 81.7808 74.7973L88.5907 61.4322C89.2175 60.202 88.7284 58.6966 87.4981 58.0698C86.2679 57.4429 84.7625 57.9321 84.1357 59.1623L77.3257 72.5274C76.6989 73.7576 77.188 75.263 78.4183 75.8898ZM22.2952 82.3796C22.9406 81.159 22.4744 79.6463 21.2538 79.0009C20.0332 78.3555 18.5205 78.8217 17.8751 80.0423L14.603 86.2304C13.9576 87.451 14.4238 88.9637 15.6444 89.6091C16.865 90.2545 18.3777 89.7883 19.0231 88.5677L22.2952 82.3796ZM13.8811 98.2919C14.5265 97.0713 14.0602 95.5586 12.8397 94.9132C11.6191 94.2678 10.1064 94.7341 9.46098 95.9546L6.1888 102.143C5.54338 103.363 6.00964 104.876 7.23021 105.521C8.45079 106.167 9.96348 105.701 10.6089 104.48L13.8811 98.2919ZM14.08 73.6706C14.727 72.4508 14.2626 70.9376 13.0428 70.2906C11.823 69.6437 10.3098 70.1081 9.66284 71.3279L0.291902 88.9966C-0.355027 90.2164 0.109357 91.7297 1.32913 92.3766C2.54891 93.0235 4.06217 92.5591 4.7091 91.3394L14.08 73.6706Z" fill="url(#paint1_linear_207_1019)"/>
<g filter="url(#filter0_f_207_1019)">
<ellipse cx="68.1492" cy="25.4221" rx="11.8636" ry="3.57792" fill="#004E67" fill-opacity="0.7"/>
</g>
<g filter="url(#filter1_bi_207_1019)">
<path fill-rule="evenodd" clip-rule="evenodd" d="M76.9999 11.2987C76.9999 11.5956 76.9884 11.8898 76.9659 12.181C78.2031 11.1593 79.7896 10.5455 81.5195 10.5455C85.4715 10.5455 88.6753 13.7492 88.6753 17.7013C88.6753 21.5271 85.673 24.6516 81.896 24.8474V24.8571H81.5344C81.5294 24.8571 81.5245 24.8572 81.5195 24.8572C81.5145 24.8572 81.5095 24.8571 81.5045 24.8571H55.1707C55.1657 24.8571 55.1607 24.8572 55.1557 24.8572C55.1507 24.8572 55.1458 24.8571 55.1408 24.8571H54.4025V24.818C50.8045 24.4416 47.9999 21.399 47.9999 17.7013C47.9999 13.996 50.8161 10.9484 54.4248 10.5823C54.7943 4.676 59.7017 0 65.7012 0C71.9413 0 76.9999 5.0586 76.9999 11.2987Z" fill="url(#paint2_linear_207_1019)"/>
</g>
<path d="M61.9355 55.4888C58.8499 55.6668 55.7603 55.2152 52.8562 54.1618C49.9521 53.1084 47.2947 51.4754 45.047 49.363C42.7992 47.2505 41.0084 44.7031 39.7845 41.877C38.5605 39.0509 37.9292 36.0056 37.9292 32.9278C37.9292 29.8501 38.5605 26.8048 39.7845 23.9786C41.0084 21.1525 42.7992 18.6051 45.047 16.4926C47.2947 14.3802 49.9521 12.7472 52.8562 11.6938C55.7603 10.6404 58.8499 10.1889 61.9355 10.3668C63.8841 10.3523 65.8254 10.6066 67.704 11.1226C62.0769 7.08929 55.3062 4.94518 48.3732 5.00107C41.4402 5.05695 34.7052 7.3099 29.1444 11.4334C23.5836 15.5568 19.486 21.3366 17.4454 27.9348C15.4049 34.533 15.5275 41.6069 17.7954 48.1311C20.0633 54.6553 24.3588 60.2908 30.0591 64.2208C35.7594 68.1508 42.5685 70.171 49.4993 69.9887C56.4301 69.8063 63.1225 67.4309 68.6065 63.2067C74.0905 58.9825 78.0811 53.129 79.9999 46.4947C77.9027 49.2938 75.1767 51.5652 72.0398 53.127C68.903 54.6888 65.4426 55.4977 61.9355 55.4888Z" fill="url(#paint3_linear_207_1019)"/>
<g filter="url(#filter2_f_207_1019)">
<ellipse cx="16.2083" cy="4.88823" rx="16.2083" ry="4.88823" transform="matrix(-1 0 0 1 48.2514 65.8439)" fill="#004E67" fill-opacity="0.7"/>
</g>
<g filter="url(#filter3_bi_207_1019)">
<path fill-rule="evenodd" clip-rule="evenodd" d="M19.951 51.4365C19.951 51.8421 19.9666 52.244 19.9973 52.6417C18.3071 51.2459 16.1397 50.4074 13.7764 50.4074C8.37702 50.4074 3.99995 54.7845 3.99995 60.1839C3.99995 65.4106 8.10163 69.6794 13.2618 69.947V69.9603H13.7641C13.7682 69.9603 13.7723 69.9603 13.7764 69.9603C13.7805 69.9603 13.7846 69.9603 13.7888 69.9603H49.7826C49.7867 69.9603 49.7908 69.9603 49.795 69.9603C49.7991 69.9603 49.8032 69.9603 49.8073 69.9603H50.824V69.9068C55.7397 69.3926 59.5714 65.2357 59.5714 60.1839C59.5714 55.1216 55.7238 50.9579 50.7935 50.4578C50.2886 42.3884 43.5841 36 35.3875 36C26.8621 36 19.951 42.9112 19.951 51.4365Z" fill="url(#paint4_linear_207_1019)"/>
</g>
<defs>
<filter id="filter0_f_207_1019" x="47.9999" y="13.5584" width="40.2987" height="23.7273" filterUnits="userSpaceOnUse" color-interpolation-filters="sRGB">
<feFlood flood-opacity="0" result="BackgroundImageFix"/>
<feBlend mode="normal" in="SourceGraphic" in2="BackgroundImageFix" result="shape"/>
<feGaussianBlur stdDeviation="4.14286" result="effect1_foregroundBlur_207_1019"/>
</filter>
<filter id="filter1_bi_207_1019" x="45.3635" y="-2.63636" width="45.9482" height="30.1299" filterUnits="userSpaceOnUse" color-interpolation-filters="sRGB">
<feFlood flood-opacity="0" result="BackgroundImageFix"/>
<feGaussianBlur in="BackgroundImageFix" stdDeviation="1.31818"/>
<feComposite in2="SourceAlpha" operator="in" result="effect1_backgroundBlur_207_1019"/>
<feBlend mode="normal" in="SourceGraphic" in2="effect1_backgroundBlur_207_1019" result="shape"/>
<feColorMatrix in="SourceAlpha" type="matrix" values="0 0 0 0 0 0 0 0 0 0 0 0 0 0 0 0 0 0 127 0" result="hardAlpha"/>
<feOffset dy="0.753247"/>
<feGaussianBlur stdDeviation="1.50649"/>
<feComposite in2="hardAlpha" operator="arithmetic" k2="-1" k3="1"/>
<feColorMatrix type="matrix" values="0 0 0 0 0 0 0 0 0 0.82 0 0 0 0 1 0 0 0 0.25 0"/>
<feBlend mode="normal" in2="shape" result="effect2_innerShadow_207_1019"/>
</filter>
<filter id="filter2_f_207_1019" x="4.51461" y="54.5238" width="55.0569" height="32.4166" filterUnits="userSpaceOnUse" color-interpolation-filters="sRGB">
<feFlood flood-opacity="0" result="BackgroundImageFix"/>
<feBlend mode="normal" in="SourceGraphic" in2="BackgroundImageFix" result="shape"/>
<feGaussianBlur stdDeviation="5.66005" result="effect1_foregroundBlur_207_1019"/>
</filter>
<filter id="filter3_bi_207_1019" x="0.398087" y="32.3981" width="62.7752" height="41.164" filterUnits="userSpaceOnUse" color-interpolation-filters="sRGB">
<feFlood flood-opacity="0" result="BackgroundImageFix"/>
<feGaussianBlur in="BackgroundImageFix" stdDeviation="1.80093"/>
<feComposite in2="SourceAlpha" operator="in" result="effect1_backgroundBlur_207_1019"/>
<feBlend mode="normal" in="SourceGraphic" in2="effect1_backgroundBlur_207_1019" result="shape"/>
<feColorMatrix in="SourceAlpha" type="matrix" values="0 0 0 0 0 0 0 0 0 0 0 0 0 0 0 0 0 0 127 0" result="hardAlpha"/>
<feOffset dy="1.0291"/>
<feGaussianBlur stdDeviation="2.0582"/>
<feComposite in2="hardAlpha" operator="arithmetic" k2="-1" k3="1"/>
<feColorMatrix type="matrix" values="0 0 0 0 0 0 0 0 0 0.82 0 0 0 0 1 0 0 0 0.25 0"/>
<feBlend mode="normal" in2="shape" result="effect2_innerShadow_207_1019"/>
</filter>
<linearGradient id="paint0_linear_207_1019" x1="41.3714" y1="60.0004" x2="41.3714" y2="109" gradientUnits="userSpaceOnUse">
<stop stop-color="#F8FD00"/>
<stop offset="1" stop-color="#FD9800"/>
</linearGradient>
<linearGradient id="paint1_linear_207_1019" x1="46.3714" y1="43.0005" x2="46.3714" y2="98.0005" gradientUnits="userSpaceOnUse">
<stop offset="0.168182" stop-color="#D7F0FF"/>
<stop offset="1" stop-color="#0072DC"/>
</linearGradient>
<linearGradient id="paint2_linear_207_1019" x1="69.0908" y1="33.7078" x2="84.344" y2="-4.14769e-07" gradientUnits="userSpaceOnUse">
<stop stop-color="#2BA6FF"/>
<stop offset="0.299998" stop-color="#48B2FF" stop-opacity="0.75"/>
<stop offset="1" stop-color="#3BADFF" stop-opacity="0"/>
</linearGradient>
<linearGradient id="paint3_linear_207_1019" x1="47.9999" y1="5" x2="47.9999" y2="70" gradientUnits="userSpaceOnUse">
<stop stop-color="#FDC500"/>
<stop offset="1" stop-color="#FD8900"/>
</linearGradient>
<linearGradient id="paint4_linear_207_1019" x1="30.7566" y1="82.0522" x2="19.9999" y2="22.5" gradientUnits="userSpaceOnUse">
<stop offset="0.13121" stop-color="#2BA6FF"/>
<stop offset="1" stop-color="#3BADFF" stop-opacity="0"/>
</linearGradient>
</defs>
</svg>
