<svg width="85" height="106" viewBox="0 0 85 106" fill="none" xmlns="http://www.w3.org/2000/svg">
<path d="M32.9066 66L22.7524 72.9743C21.64 73.7289 20.7191 74.7293 20.0607 75.8982C19.4023 77.0671 19.024 78.3734 18.9551 79.716C18.9397 81.635 19.5808 83.6509 21.9321 85.0084C24.2834 86.3659 26.3498 85.9132 28.004 84.9404C29.1323 84.2094 30.0744 83.2287 30.7575 82.0741C31.4407 80.9194 31.8465 79.6216 31.9438 78.281L32.9066 66Z" fill="url(#paint0_linear_207_1121)"/>
<path d="M51.3234 86L41.1692 92.9743C40.0568 93.7289 39.1358 94.7293 38.4774 95.8982C37.819 97.0671 37.4408 98.3734 37.3719 99.716C37.3564 101.635 37.9976 103.651 40.3489 105.008C42.7002 106.366 44.7666 105.913 46.4208 104.94C47.5491 104.209 48.4912 103.229 49.1743 102.074C49.8574 100.919 50.2633 99.6216 50.3606 98.281L51.3234 86Z" fill="url(#paint1_linear_207_1121)"/>
<path fill-rule="evenodd" clip-rule="evenodd" d="M11.8063 88.7869C11.8063 87.7513 10.9668 86.9119 9.93127 86.9119C8.89573 86.9119 8.05627 87.7513 8.05627 88.7869V91.3165L6.2676 89.5278C5.53536 88.7956 4.34818 88.7956 3.61595 89.5278C2.88371 90.26 2.88371 91.4472 3.61595 92.1794L5.40478 93.9683H2.875C1.83947 93.9683 1 94.8077 1 95.8433C1 96.8788 1.83947 97.7183 2.875 97.7183H5.4046L3.61579 99.5071C2.88355 100.239 2.88355 101.427 3.61579 102.159C4.34802 102.891 5.5352 102.891 6.26744 102.159L8.05627 100.37V102.9C8.05627 103.935 8.89573 104.775 9.93127 104.775C10.9668 104.775 11.8063 103.935 11.8063 102.9V100.37L13.5952 102.159C14.3275 102.891 15.5147 102.891 16.2469 102.159C16.9791 101.427 16.9791 100.239 16.2469 99.5071L14.4581 97.7183H16.9879C18.0234 97.7183 18.8629 96.8788 18.8629 95.8433C18.8629 94.8077 18.0234 93.9683 16.9879 93.9683H14.4579L16.2467 92.1794C16.979 91.4472 16.979 90.26 16.2467 89.5278C15.5145 88.7956 14.3273 88.7956 13.5951 89.5278L11.8063 91.3166V88.7869Z" fill="url(#paint2_linear_207_1121)"/>
<path fill-rule="evenodd" clip-rule="evenodd" d="M65.8063 69.0593C65.8063 68.0237 64.9668 67.1843 63.9313 67.1843C62.8957 67.1843 62.0563 68.0237 62.0563 69.0593V71.5889L60.2676 69.8002C59.5354 69.068 58.3482 69.068 57.6159 69.8002C56.8837 70.5324 56.8837 71.7196 57.6159 72.4518L59.4048 74.2407H56.875C55.8395 74.2407 55 75.0801 55 76.1157C55 77.1512 55.8395 77.9907 56.875 77.9907H59.4046L57.6158 79.7795C56.8836 80.5117 56.8836 81.6989 57.6158 82.4311C58.348 83.1634 59.5352 83.1634 60.2674 82.4311L62.0563 80.6423V83.1721C62.0563 84.2077 62.8957 85.0471 63.9313 85.0471C64.9668 85.0471 65.8063 84.2077 65.8063 83.1721V80.6422L67.5952 82.4311C68.3275 83.1634 69.5147 83.1634 70.2469 82.4311C70.9791 81.6989 70.9791 80.5117 70.2469 79.7795L68.4581 77.9907H70.9879C72.0234 77.9907 72.8629 77.1512 72.8629 76.1157C72.8629 75.0801 72.0234 74.2407 70.9879 74.2407H68.4579L70.2467 72.4518C70.979 71.7196 70.979 70.5324 70.2467 69.8002C69.5145 69.068 68.3273 69.068 67.5951 69.8002L65.8063 71.589V69.0593Z" fill="url(#paint3_linear_207_1121)"/>
<g filter="url(#filter0_f_207_1121)">
<ellipse cx="64.1493" cy="25.4221" rx="11.8636" ry="3.57792" fill="#004E67" fill-opacity="0.7"/>
</g>
<g filter="url(#filter1_bi_207_1121)">
<path fill-rule="evenodd" clip-rule="evenodd" d="M72.9999 11.2987C72.9999 11.5956 72.9884 11.8898 72.9659 12.181C74.2031 11.1593 75.7896 10.5455 77.5195 10.5455C81.4715 10.5455 84.6753 13.7492 84.6753 17.7013C84.6753 21.5271 81.673 24.6516 77.896 24.8474V24.8571H77.5344C77.5294 24.8571 77.5245 24.8572 77.5195 24.8572C77.5145 24.8572 77.5095 24.8571 77.5045 24.8571H51.1707C51.1657 24.8571 51.1607 24.8572 51.1557 24.8572C51.1507 24.8572 51.1458 24.8571 51.1408 24.8571H50.4025V24.818C46.8045 24.4416 43.9999 21.399 43.9999 17.7013C43.9999 13.996 46.8161 10.9484 50.4248 10.5823C50.7943 4.676 55.7017 0 61.7012 0C67.9413 0 72.9999 5.0586 72.9999 11.2987Z" fill="url(#paint4_linear_207_1121)"/>
</g>
<path d="M57.9355 55.4888C54.8499 55.6668 51.7603 55.2152 48.8562 54.1618C45.9521 53.1084 43.2947 51.4754 41.047 49.363C38.7992 47.2505 37.0084 44.7031 35.7845 41.877C34.5605 39.0509 33.9292 36.0056 33.9292 32.9278C33.9292 29.8501 34.5605 26.8048 35.7845 23.9786C37.0084 21.1525 38.7992 18.6051 41.047 16.4926C43.2947 14.3802 45.9521 12.7472 48.8562 11.6938C51.7603 10.6404 54.8499 10.1889 57.9355 10.3668C59.8841 10.3523 61.8254 10.6066 63.704 11.1226C58.0769 7.08929 51.3062 4.94518 44.3732 5.00107C37.4402 5.05695 30.7052 7.3099 25.1444 11.4334C19.5836 15.5568 15.486 21.3366 13.4454 27.9348C11.4049 34.533 11.5275 41.6069 13.7954 48.1311C16.0633 54.6553 20.3588 60.2908 26.0591 64.2208C31.7594 68.1508 38.5685 70.171 45.4993 69.9887C52.4301 69.8063 59.1225 67.4309 64.6065 63.2067C70.0905 58.9825 74.0811 53.129 75.9999 46.4947C73.9027 49.2938 71.1767 51.5652 68.0398 53.127C64.903 54.6888 61.4426 55.4977 57.9355 55.4888Z" fill="url(#paint5_linear_207_1121)"/>
<g filter="url(#filter2_f_207_1121)">
<ellipse cx="16.2083" cy="4.88823" rx="16.2083" ry="4.88823" transform="matrix(-1 0 0 1 44.2513 65.8439)" fill="#004E67" fill-opacity="0.7"/>
</g>
<g filter="url(#filter3_bi_207_1121)">
<path fill-rule="evenodd" clip-rule="evenodd" d="M15.951 51.4365C15.951 51.8421 15.9666 52.244 15.9973 52.6417C14.3071 51.2459 12.1397 50.4074 9.77641 50.4074C4.37702 50.4074 -4.57764e-05 54.7845 -4.57764e-05 60.1839C-4.57764e-05 65.4106 4.10163 69.6794 9.26181 69.947V69.9603H9.76406C9.76818 69.9603 9.77229 69.9603 9.77641 69.9603C9.78053 69.9603 9.78464 69.9603 9.78876 69.9603H45.7826C45.7867 69.9603 45.7908 69.9603 45.795 69.9603C45.7991 69.9603 45.8032 69.9603 45.8073 69.9603H46.824V69.9068C51.7397 69.3926 55.5714 65.2357 55.5714 60.1839C55.5714 55.1216 51.7238 50.9579 46.7935 50.4578C46.2886 42.3884 39.5841 36 31.3875 36C22.8621 36 15.951 42.9112 15.951 51.4365Z" fill="url(#paint6_linear_207_1121)"/>
</g>
<defs>
<filter id="filter0_f_207_1121" x="43.9999" y="13.5585" width="40.2987" height="23.7273" filterUnits="userSpaceOnUse" color-interpolation-filters="sRGB">
<feFlood flood-opacity="0" result="BackgroundImageFix"/>
<feBlend mode="normal" in="SourceGraphic" in2="BackgroundImageFix" result="shape"/>
<feGaussianBlur stdDeviation="4.14286" result="effect1_foregroundBlur_207_1121"/>
</filter>
<filter id="filter1_bi_207_1121" x="41.3635" y="-2.63636" width="45.9481" height="30.1299" filterUnits="userSpaceOnUse" color-interpolation-filters="sRGB">
<feFlood flood-opacity="0" result="BackgroundImageFix"/>
<feGaussianBlur in="BackgroundImageFix" stdDeviation="1.31818"/>
<feComposite in2="SourceAlpha" operator="in" result="effect1_backgroundBlur_207_1121"/>
<feBlend mode="normal" in="SourceGraphic" in2="effect1_backgroundBlur_207_1121" result="shape"/>
<feColorMatrix in="SourceAlpha" type="matrix" values="0 0 0 0 0 0 0 0 0 0 0 0 0 0 0 0 0 0 127 0" result="hardAlpha"/>
<feOffset dy="0.753247"/>
<feGaussianBlur stdDeviation="1.50649"/>
<feComposite in2="hardAlpha" operator="arithmetic" k2="-1" k3="1"/>
<feColorMatrix type="matrix" values="0 0 0 0 0 0 0 0 0 0.82 0 0 0 0 1 0 0 0 0.25 0"/>
<feBlend mode="normal" in2="shape" result="effect2_innerShadow_207_1121"/>
</filter>
<filter id="filter2_f_207_1121" x="0.51461" y="54.5238" width="55.0568" height="32.4166" filterUnits="userSpaceOnUse" color-interpolation-filters="sRGB">
<feFlood flood-opacity="0" result="BackgroundImageFix"/>
<feBlend mode="normal" in="SourceGraphic" in2="BackgroundImageFix" result="shape"/>
<feGaussianBlur stdDeviation="5.66005" result="effect1_foregroundBlur_207_1121"/>
</filter>
<filter id="filter3_bi_207_1121" x="-3.60185" y="32.3981" width="62.7751" height="41.164" filterUnits="userSpaceOnUse" color-interpolation-filters="sRGB">
<feFlood flood-opacity="0" result="BackgroundImageFix"/>
<feGaussianBlur in="BackgroundImageFix" stdDeviation="1.80093"/>
<feComposite in2="SourceAlpha" operator="in" result="effect1_backgroundBlur_207_1121"/>
<feBlend mode="normal" in="SourceGraphic" in2="effect1_backgroundBlur_207_1121" result="shape"/>
<feColorMatrix in="SourceAlpha" type="matrix" values="0 0 0 0 0 0 0 0 0 0 0 0 0 0 0 0 0 0 127 0" result="hardAlpha"/>
<feOffset dy="1.0291"/>
<feGaussianBlur stdDeviation="2.0582"/>
<feComposite in2="hardAlpha" operator="arithmetic" k2="-1" k3="1"/>
<feColorMatrix type="matrix" values="0 0 0 0 0 0 0 0 0 0.82 0 0 0 0 1 0 0 0 0.25 0"/>
<feBlend mode="normal" in2="shape" result="effect2_innerShadow_207_1121"/>
</filter>
<linearGradient id="paint0_linear_207_1121" x1="35.4378" y1="57.6628" x2="33.1468" y2="81.3651" gradientUnits="userSpaceOnUse">
<stop stop-color="#D7F0FF"/>
<stop offset="1" stop-color="#0072DC"/>
</linearGradient>
<linearGradient id="paint1_linear_207_1121" x1="57.9108" y1="78.7981" x2="55.6197" y2="102.5" gradientUnits="userSpaceOnUse">
<stop stop-color="#D7F0FF"/>
<stop offset="1" stop-color="#0072DC"/>
</linearGradient>
<linearGradient id="paint2_linear_207_1121" x1="3.54998" y1="101.16" x2="20.5153" y2="86.8403" gradientUnits="userSpaceOnUse">
<stop stop-color="#0056D6"/>
<stop offset="1" stop-color="#ADD8FF"/>
</linearGradient>
<linearGradient id="paint3_linear_207_1121" x1="57.55" y1="81.432" x2="74.5153" y2="67.1127" gradientUnits="userSpaceOnUse">
<stop stop-color="#0056D6"/>
<stop offset="1" stop-color="#ADD8FF"/>
</linearGradient>
<linearGradient id="paint4_linear_207_1121" x1="65.0908" y1="33.7078" x2="80.344" y2="-4.14769e-07" gradientUnits="userSpaceOnUse">
<stop stop-color="#2BA6FF"/>
<stop offset="0.299998" stop-color="#48B2FF" stop-opacity="0.75"/>
<stop offset="1" stop-color="#3BADFF" stop-opacity="0"/>
</linearGradient>
<linearGradient id="paint5_linear_207_1121" x1="43.9999" y1="5" x2="43.9999" y2="70" gradientUnits="userSpaceOnUse">
<stop stop-color="#FDC500"/>
<stop offset="1" stop-color="#FD8900"/>
</linearGradient>
<linearGradient id="paint6_linear_207_1121" x1="26.7566" y1="82.0522" x2="15.9999" y2="22.5" gradientUnits="userSpaceOnUse">
<stop offset="0.13121" stop-color="#2BA6FF"/>
<stop offset="1" stop-color="#3BADFF" stop-opacity="0"/>
</linearGradient>
</defs>
</svg>
