<svg width="85" height="101" viewBox="0 0 85 101" fill="none" xmlns="http://www.w3.org/2000/svg">
<path d="M5.90216 81.6633L15.5139 64.2295C15.592 64.0879 15.7409 64 15.9026 64H28.2775C28.6085 64 28.823 64.3492 28.6733 64.6445L23.7873 74.2841C23.6377 74.5793 23.8522 74.9286 24.1832 74.9286H29L1.8834 98.3717C1.50848 98.6959 0.964921 98.2549 1.20474 97.8212L9.41112 82.98C9.57469 82.6842 9.36074 82.3214 9.02272 82.3214H6.29082C5.95305 82.3214 5.73908 81.9591 5.90216 81.6633Z" fill="url(#paint0_linear_207_965)"/>
<path d="M28.7772 91.9555C28.2898 91.9718 27.8084 91.8395 27.3937 91.5754C27.0949 91.4046 26.8328 91.1737 26.623 90.8966C26.4132 90.6194 26.2601 90.3017 26.1728 89.9624C26.0856 89.6232 26.066 89.2695 26.1152 88.9226C26.1644 88.5756 26.2815 88.2426 26.4593 87.9434L45.5319 54.4138C45.6979 54.1075 45.9225 53.8389 46.1923 53.624C46.462 53.4092 46.7714 53.2526 47.1018 53.1636C47.4323 53.0745 47.7769 53.055 48.1151 53.106C48.4533 53.1571 48.778 53.2777 49.0698 53.4607C49.6592 53.8194 50.0877 54.4016 50.2625 55.0813C50.4374 55.761 50.3446 56.4836 50.0042 57.0927L30.9315 90.6224C30.7168 91.0179 30.4052 91.349 30.0273 91.5828C29.6495 91.8166 29.2186 91.945 28.7772 91.9555Z" fill="url(#paint1_linear_207_965)"/>
<path d="M56.4836 90.1828C55.9961 90.1991 55.5147 90.0669 55.1 89.8028C54.8012 89.632 54.5391 89.4011 54.3293 89.1239C54.1195 88.8467 53.9665 88.529 53.8792 88.1898C53.7919 87.8506 53.7723 87.4969 53.8215 87.1499C53.8708 86.803 53.9878 86.4699 54.1657 86.1708L67.6372 62.3866C67.9858 61.7823 68.5525 61.3435 69.2146 61.1652C69.8767 60.9868 70.5809 61.0832 71.1751 61.4335C71.7645 61.7922 72.193 62.3743 72.3679 63.054C72.5427 63.7338 72.4499 64.4563 72.1095 65.0655L58.6379 88.8497C58.4181 89.2408 58.1052 89.5681 57.7285 89.8012C57.3518 90.0344 56.9234 90.1656 56.4836 90.1828Z" fill="url(#paint2_linear_207_965)"/>
<path d="M37.4836 100.183C36.9961 100.199 36.5147 100.067 36.1 99.8028C35.8012 99.632 35.5391 99.4011 35.3293 99.1239C35.1195 98.8467 34.9665 98.529 34.8792 98.1898C34.7919 97.8506 34.7723 97.4969 34.8215 97.1499C34.8708 96.803 34.9878 96.4699 35.1657 96.1708L48.6372 72.3866C48.9858 71.7823 49.5525 71.3435 50.2146 71.1652C50.8767 70.9868 51.5809 71.0832 52.1751 71.4335C52.7645 71.7922 53.193 72.3743 53.3679 73.054C53.5427 73.7338 53.4499 74.4563 53.1095 75.0655L39.6379 98.8497C39.4181 99.2408 39.1052 99.5681 38.7285 99.8012C38.3518 100.034 37.9234 100.166 37.4836 100.183Z" fill="url(#paint3_linear_207_965)"/>
<g filter="url(#filter0_f_207_965)">
<ellipse cx="64.1492" cy="25.4221" rx="11.8636" ry="3.57792" fill="#004E67" fill-opacity="0.7"/>
</g>
<g filter="url(#filter1_bi_207_965)">
<path fill-rule="evenodd" clip-rule="evenodd" d="M72.9999 11.2987C72.9999 11.5956 72.9884 11.8898 72.9659 12.181C74.2031 11.1593 75.7896 10.5455 77.5195 10.5455C81.4715 10.5455 84.6753 13.7492 84.6753 17.7013C84.6753 21.5271 81.673 24.6516 77.896 24.8474V24.8571H77.5344C77.5294 24.8571 77.5245 24.8572 77.5195 24.8572C77.5145 24.8572 77.5095 24.8571 77.5045 24.8571H51.1707C51.1657 24.8571 51.1607 24.8572 51.1557 24.8572C51.1508 24.8572 51.1458 24.8571 51.1408 24.8571H50.4025V24.818C46.8045 24.4416 43.9999 21.399 43.9999 17.7013C43.9999 13.996 46.8161 10.9484 50.4248 10.5823C50.7944 4.676 55.7017 0 61.7012 0C67.9413 0 72.9999 5.0586 72.9999 11.2987Z" fill="url(#paint4_linear_207_965)"/>
</g>
<path d="M57.9355 55.4888C54.8499 55.6668 51.7603 55.2152 48.8562 54.1618C45.9521 53.1084 43.2948 51.4754 41.047 49.363C38.7992 47.2505 37.0084 44.7031 35.7845 41.877C34.5606 39.0509 33.9292 36.0056 33.9292 32.9278C33.9292 29.8501 34.5606 26.8048 35.7845 23.9786C37.0084 21.1525 38.7992 18.6051 41.047 16.4926C43.2948 14.3802 45.9521 12.7472 48.8562 11.6938C51.7603 10.6404 54.8499 10.1889 57.9355 10.3668C59.8842 10.3523 61.8254 10.6066 63.704 11.1226C58.0769 7.08929 51.3062 4.94518 44.3732 5.00107C37.4402 5.05695 30.7052 7.3099 25.1444 11.4334C19.5836 15.5568 15.486 21.3366 13.4455 27.9348C11.4049 34.533 11.5275 41.6069 13.7954 48.1311C16.0633 54.6553 20.3588 60.2908 26.0591 64.2208C31.7595 68.1508 38.5685 70.171 45.4993 69.9887C52.4301 69.8063 59.1225 67.4309 64.6065 63.2067C70.0905 58.9825 74.0811 53.129 75.9999 46.4947C73.9028 49.2938 71.1767 51.5652 68.0398 53.127C64.903 54.6888 61.4426 55.4977 57.9355 55.4888Z" fill="url(#paint5_linear_207_965)"/>
<g filter="url(#filter2_f_207_965)">
<ellipse cx="16.2083" cy="4.88823" rx="16.2083" ry="4.88823" transform="matrix(-1 0 0 1 44.2514 65.8439)" fill="#004E67" fill-opacity="0.7"/>
</g>
<g filter="url(#filter3_bi_207_965)">
<path fill-rule="evenodd" clip-rule="evenodd" d="M15.951 51.4365C15.951 51.8421 15.9666 52.244 15.9973 52.6417C14.3071 51.2459 12.1397 50.4074 9.77642 50.4074C4.37704 50.4074 -3.05176e-05 54.7845 -3.05176e-05 60.1839C-3.05176e-05 65.4106 4.10165 69.6794 9.26183 69.947V69.9603H9.76408C9.76819 69.9603 9.77231 69.9603 9.77642 69.9603C9.78054 69.9603 9.78466 69.9603 9.78877 69.9603H45.7826C45.7867 69.9603 45.7909 69.9603 45.795 69.9603C45.7991 69.9603 45.8032 69.9603 45.8073 69.9603H46.824V69.9068C51.7397 69.3926 55.5714 65.2357 55.5714 60.1839C55.5714 55.1216 51.7238 50.9579 46.7935 50.4578C46.2886 42.3884 39.5841 36 31.3875 36C22.8621 36 15.951 42.9112 15.951 51.4365Z" fill="url(#paint6_linear_207_965)"/>
</g>
<defs>
<filter id="filter0_f_207_965" x="43.9999" y="13.5584" width="40.2987" height="23.7273" filterUnits="userSpaceOnUse" color-interpolation-filters="sRGB">
<feFlood flood-opacity="0" result="BackgroundImageFix"/>
<feBlend mode="normal" in="SourceGraphic" in2="BackgroundImageFix" result="shape"/>
<feGaussianBlur stdDeviation="4.14286" result="effect1_foregroundBlur_207_965"/>
</filter>
<filter id="filter1_bi_207_965" x="41.3635" y="-2.63636" width="45.9482" height="30.1299" filterUnits="userSpaceOnUse" color-interpolation-filters="sRGB">
<feFlood flood-opacity="0" result="BackgroundImageFix"/>
<feGaussianBlur in="BackgroundImageFix" stdDeviation="1.31818"/>
<feComposite in2="SourceAlpha" operator="in" result="effect1_backgroundBlur_207_965"/>
<feBlend mode="normal" in="SourceGraphic" in2="effect1_backgroundBlur_207_965" result="shape"/>
<feColorMatrix in="SourceAlpha" type="matrix" values="0 0 0 0 0 0 0 0 0 0 0 0 0 0 0 0 0 0 127 0" result="hardAlpha"/>
<feOffset dy="0.753247"/>
<feGaussianBlur stdDeviation="1.50649"/>
<feComposite in2="hardAlpha" operator="arithmetic" k2="-1" k3="1"/>
<feColorMatrix type="matrix" values="0 0 0 0 0 0 0 0 0 0.82 0 0 0 0 1 0 0 0 0.25 0"/>
<feBlend mode="normal" in2="shape" result="effect2_innerShadow_207_965"/>
</filter>
<filter id="filter2_f_207_965" x="0.514595" y="54.5238" width="55.0569" height="32.4166" filterUnits="userSpaceOnUse" color-interpolation-filters="sRGB">
<feFlood flood-opacity="0" result="BackgroundImageFix"/>
<feBlend mode="normal" in="SourceGraphic" in2="BackgroundImageFix" result="shape"/>
<feGaussianBlur stdDeviation="5.66005" result="effect1_foregroundBlur_207_965"/>
</filter>
<filter id="filter3_bi_207_965" x="-3.60188" y="32.3981" width="62.7752" height="41.164" filterUnits="userSpaceOnUse" color-interpolation-filters="sRGB">
<feFlood flood-opacity="0" result="BackgroundImageFix"/>
<feGaussianBlur in="BackgroundImageFix" stdDeviation="1.80093"/>
<feComposite in2="SourceAlpha" operator="in" result="effect1_backgroundBlur_207_965"/>
<feBlend mode="normal" in="SourceGraphic" in2="effect1_backgroundBlur_207_965" result="shape"/>
<feColorMatrix in="SourceAlpha" type="matrix" values="0 0 0 0 0 0 0 0 0 0 0 0 0 0 0 0 0 0 127 0" result="hardAlpha"/>
<feOffset dy="1.0291"/>
<feGaussianBlur stdDeviation="2.0582"/>
<feComposite in2="hardAlpha" operator="arithmetic" k2="-1" k3="1"/>
<feColorMatrix type="matrix" values="0 0 0 0 0 0 0 0 0 0.82 0 0 0 0 1 0 0 0 0.25 0"/>
<feBlend mode="normal" in2="shape" result="effect2_innerShadow_207_965"/>
</filter>
<linearGradient id="paint0_linear_207_965" x1="14.5" y1="64" x2="14.5" y2="100" gradientUnits="userSpaceOnUse">
<stop stop-color="#F8FD00"/>
<stop offset="1" stop-color="#FD9800"/>
</linearGradient>
<linearGradient id="paint1_linear_207_965" x1="45.5493" y1="40.1793" x2="17.6064" y2="82.1028" gradientUnits="userSpaceOnUse">
<stop stop-color="#D7F0FF"/>
<stop offset="1" stop-color="#0072DC"/>
</linearGradient>
<linearGradient id="paint2_linear_207_965" x1="68.7626" y1="51.3958" x2="48.0087" y2="83.2754" gradientUnits="userSpaceOnUse">
<stop stop-color="#D7F0FF"/>
<stop offset="1" stop-color="#0072DC"/>
</linearGradient>
<linearGradient id="paint3_linear_207_965" x1="49.7626" y1="61.3958" x2="29.0087" y2="93.2754" gradientUnits="userSpaceOnUse">
<stop stop-color="#D7F0FF"/>
<stop offset="1" stop-color="#0072DC"/>
</linearGradient>
<linearGradient id="paint4_linear_207_965" x1="65.0908" y1="33.7078" x2="80.344" y2="-4.14769e-07" gradientUnits="userSpaceOnUse">
<stop stop-color="#2BA6FF"/>
<stop offset="0.299998" stop-color="#48B2FF" stop-opacity="0.75"/>
<stop offset="1" stop-color="#3BADFF" stop-opacity="0"/>
</linearGradient>
<linearGradient id="paint5_linear_207_965" x1="43.9999" y1="5" x2="43.9999" y2="70" gradientUnits="userSpaceOnUse">
<stop stop-color="#FDC500"/>
<stop offset="1" stop-color="#FD8900"/>
</linearGradient>
<linearGradient id="paint6_linear_207_965" x1="26.7566" y1="82.0522" x2="15.9999" y2="22.5" gradientUnits="userSpaceOnUse">
<stop offset="0.13121" stop-color="#2BA6FF"/>
<stop offset="1" stop-color="#3BADFF" stop-opacity="0"/>
</linearGradient>
</defs>
</svg>
