<svg width="85" height="116" viewBox="0 0 85 116" fill="none" xmlns="http://www.w3.org/2000/svg">
<path d="M23.6897 67.582L15.4779 76.7644C14.5761 77.7611 13.9185 78.9513 13.5559 80.243C13.1933 81.5346 13.1354 82.8933 13.3867 84.214C13.8266 86.0819 14.9273 87.8884 17.5333 88.65C20.1394 89.4115 22.0396 88.4819 23.4161 87.1447C24.339 86.1671 25.0218 84.9911 25.4117 83.7074C25.8017 82.4238 25.8884 81.0668 25.6652 79.7413L23.6897 67.582Z" fill="url(#paint0_linear_207_1160)"/>
<path d="M62.6364 88.5666L54.4711 97.7903C53.5743 98.7916 52.9227 99.985 52.5666 101.279C52.2106 102.572 52.1596 103.931 52.4175 105.25C52.8668 107.116 53.9766 108.917 56.5865 109.665C59.1963 110.414 61.0919 109.475 62.4616 108.13C63.3795 107.148 64.0563 105.969 64.4398 104.683C64.8233 103.397 64.9032 102.04 64.6733 100.716L62.6364 88.5666Z" fill="url(#paint1_linear_207_1160)"/>
<path fill-rule="evenodd" clip-rule="evenodd" d="M11.8063 93.875C11.8063 92.8395 10.9668 92 9.93127 92C8.89573 92 8.05627 92.8395 8.05627 93.875V96.4046L6.2676 94.6159C5.53536 93.8837 4.34818 93.8837 3.61595 94.6159C2.88371 95.3482 2.88371 96.5353 3.61595 97.2676L5.40478 99.0564H2.875C1.83947 99.0564 1 99.8959 1 100.931C1 101.967 1.83947 102.806 2.875 102.806H5.4046L3.61579 104.595C2.88355 105.327 2.88355 106.515 3.61579 107.247C4.34802 107.979 5.5352 107.979 6.26744 107.247L8.05627 105.458V107.988C8.05627 109.023 8.89573 109.863 9.93127 109.863C10.9668 109.863 11.8063 109.023 11.8063 107.988V105.458L13.5952 107.247C14.3275 107.979 15.5147 107.979 16.2469 107.247C16.9791 106.515 16.9791 105.327 16.2469 104.595L14.4581 102.806H16.9879C18.0234 102.806 18.8629 101.967 18.8629 100.931C18.8629 99.8959 18.0234 99.0564 16.9879 99.0564H14.4579L16.2467 97.2676C16.979 96.5353 16.979 95.3482 16.2467 94.6159C15.5145 93.8837 14.3273 93.8837 13.5951 94.6159L11.8063 96.4047V93.875Z" fill="url(#paint2_linear_207_1160)"/>
<path fill-rule="evenodd" clip-rule="evenodd" d="M74.8063 71.875C74.8063 70.8395 73.9668 70 72.9313 70C71.8957 70 71.0563 70.8395 71.0563 71.875V74.4046L69.2676 72.6159C68.5354 71.8837 67.3482 71.8837 66.6159 72.6159C65.8837 73.3482 65.8837 74.5353 66.6159 75.2676L68.4048 77.0564H65.875C64.8395 77.0564 64 77.8959 64 78.9314C64 79.9669 64.8395 80.8064 65.875 80.8064H68.4046L66.6158 82.5952C65.8836 83.3275 65.8836 84.5146 66.6158 85.2469C67.348 85.9791 68.5352 85.9791 69.2674 85.2469L71.0563 83.458V85.9879C71.0563 87.0234 71.8957 87.8629 72.9313 87.8629C73.9668 87.8629 74.8063 87.0234 74.8063 85.9879V83.4579L76.5952 85.2469C77.3275 85.9791 78.5147 85.9791 79.2469 85.2469C79.9791 84.5146 79.9791 83.3275 79.2469 82.5952L77.4581 80.8064H79.9879C81.0234 80.8064 81.8629 79.9669 81.8629 78.9314C81.8629 77.8959 81.0234 77.0564 79.9879 77.0564H77.4579L79.2467 75.2676C79.979 74.5353 79.979 73.3482 79.2467 72.6159C78.5145 71.8837 77.3273 71.8837 76.5951 72.6159L74.8063 74.4047V71.875Z" fill="url(#paint3_linear_207_1160)"/>
<path d="M28.8069 91.2814L41.9076 67.2315C41.9853 67.0888 42.1348 67 42.2973 67H59.2814C59.6114 67 59.826 67.3474 59.6782 67.6426L52.8724 81.2324C52.7246 81.5276 52.9391 81.875 53.2692 81.875H60L22.8784 114.356C22.5053 114.683 21.959 114.245 22.1967 113.81L33.7873 92.5941C33.9489 92.2983 33.7349 91.9375 33.3979 91.9375H29.1966C28.8598 91.9375 28.6458 91.5771 28.8069 91.2814Z" fill="url(#paint4_linear_207_1160)"/>
<g filter="url(#filter0_f_207_1160)">
<ellipse cx="64.1493" cy="25.4221" rx="11.8636" ry="3.57792" fill="#004E67" fill-opacity="0.7"/>
</g>
<g filter="url(#filter1_bi_207_1160)">
<path fill-rule="evenodd" clip-rule="evenodd" d="M72.9999 11.2987C72.9999 11.5956 72.9884 11.8898 72.9659 12.181C74.2031 11.1593 75.7896 10.5455 77.5195 10.5455C81.4715 10.5455 84.6753 13.7492 84.6753 17.7013C84.6753 21.5271 81.673 24.6516 77.896 24.8474V24.8571H77.5344C77.5294 24.8571 77.5245 24.8572 77.5195 24.8572C77.5145 24.8572 77.5095 24.8571 77.5045 24.8571H51.1707C51.1657 24.8571 51.1607 24.8572 51.1557 24.8572C51.1507 24.8572 51.1458 24.8571 51.1408 24.8571H50.4025V24.818C46.8045 24.4416 43.9999 21.399 43.9999 17.7013C43.9999 13.996 46.8161 10.9484 50.4248 10.5823C50.7943 4.676 55.7017 0 61.7012 0C67.9413 0 72.9999 5.0586 72.9999 11.2987Z" fill="url(#paint5_linear_207_1160)"/>
</g>
<path d="M57.9355 55.4888C54.8499 55.6668 51.7603 55.2152 48.8562 54.1618C45.9521 53.1084 43.2947 51.4754 41.047 49.363C38.7992 47.2505 37.0084 44.7031 35.7845 41.877C34.5605 39.0509 33.9292 36.0056 33.9292 32.9278C33.9292 29.8501 34.5605 26.8048 35.7845 23.9786C37.0084 21.1525 38.7992 18.6051 41.047 16.4926C43.2947 14.3802 45.9521 12.7472 48.8562 11.6938C51.7603 10.6404 54.8499 10.1889 57.9355 10.3668C59.8841 10.3523 61.8254 10.6066 63.704 11.1226C58.0769 7.08929 51.3062 4.94518 44.3732 5.00107C37.4402 5.05695 30.7052 7.3099 25.1444 11.4334C19.5836 15.5568 15.486 21.3366 13.4454 27.9348C11.4049 34.533 11.5275 41.6069 13.7954 48.1311C16.0633 54.6553 20.3588 60.2908 26.0591 64.2208C31.7594 68.1508 38.5685 70.171 45.4993 69.9887C52.4301 69.8063 59.1225 67.4309 64.6065 63.2067C70.0905 58.9825 74.0811 53.129 75.9999 46.4947C73.9027 49.2938 71.1767 51.5652 68.0398 53.127C64.903 54.6888 61.4426 55.4977 57.9355 55.4888Z" fill="url(#paint6_linear_207_1160)"/>
<g filter="url(#filter2_f_207_1160)">
<ellipse cx="16.2083" cy="4.88823" rx="16.2083" ry="4.88823" transform="matrix(-1 0 0 1 44.2513 65.8439)" fill="#004E67" fill-opacity="0.7"/>
</g>
<g filter="url(#filter3_bi_207_1160)">
<path fill-rule="evenodd" clip-rule="evenodd" d="M15.951 51.4365C15.951 51.8421 15.9666 52.244 15.9973 52.6417C14.3071 51.2459 12.1397 50.4074 9.77641 50.4074C4.37702 50.4074 -4.57764e-05 54.7845 -4.57764e-05 60.1839C-4.57764e-05 65.4106 4.10163 69.6794 9.26181 69.947V69.9603H9.76406C9.76818 69.9603 9.77229 69.9603 9.77641 69.9603C9.78053 69.9603 9.78464 69.9603 9.78876 69.9603H45.7826C45.7867 69.9603 45.7908 69.9603 45.795 69.9603C45.7991 69.9603 45.8032 69.9603 45.8073 69.9603H46.824V69.9068C51.7397 69.3926 55.5714 65.2357 55.5714 60.1839C55.5714 55.1216 51.7238 50.9579 46.7935 50.4578C46.2886 42.3884 39.5841 36 31.3875 36C22.8621 36 15.951 42.9112 15.951 51.4365Z" fill="url(#paint7_linear_207_1160)"/>
</g>
<defs>
<filter id="filter0_f_207_1160" x="43.9999" y="13.5585" width="40.2987" height="23.7273" filterUnits="userSpaceOnUse" color-interpolation-filters="sRGB">
<feFlood flood-opacity="0" result="BackgroundImageFix"/>
<feBlend mode="normal" in="SourceGraphic" in2="BackgroundImageFix" result="shape"/>
<feGaussianBlur stdDeviation="4.14286" result="effect1_foregroundBlur_207_1160"/>
</filter>
<filter id="filter1_bi_207_1160" x="41.3635" y="-2.63636" width="45.9481" height="30.1299" filterUnits="userSpaceOnUse" color-interpolation-filters="sRGB">
<feFlood flood-opacity="0" result="BackgroundImageFix"/>
<feGaussianBlur in="BackgroundImageFix" stdDeviation="1.31818"/>
<feComposite in2="SourceAlpha" operator="in" result="effect1_backgroundBlur_207_1160"/>
<feBlend mode="normal" in="SourceGraphic" in2="effect1_backgroundBlur_207_1160" result="shape"/>
<feColorMatrix in="SourceAlpha" type="matrix" values="0 0 0 0 0 0 0 0 0 0 0 0 0 0 0 0 0 0 127 0" result="hardAlpha"/>
<feOffset dy="0.753247"/>
<feGaussianBlur stdDeviation="1.50649"/>
<feComposite in2="hardAlpha" operator="arithmetic" k2="-1" k3="1"/>
<feColorMatrix type="matrix" values="0 0 0 0 0 0 0 0 0 0.82 0 0 0 0 1 0 0 0 0.25 0"/>
<feBlend mode="normal" in2="shape" result="effect2_innerShadow_207_1160"/>
</filter>
<filter id="filter2_f_207_1160" x="0.51461" y="54.5238" width="55.0568" height="32.4166" filterUnits="userSpaceOnUse" color-interpolation-filters="sRGB">
<feFlood flood-opacity="0" result="BackgroundImageFix"/>
<feBlend mode="normal" in="SourceGraphic" in2="BackgroundImageFix" result="shape"/>
<feGaussianBlur stdDeviation="5.66005" result="effect1_foregroundBlur_207_1160"/>
</filter>
<filter id="filter3_bi_207_1160" x="-3.60185" y="32.3981" width="62.7751" height="41.164" filterUnits="userSpaceOnUse" color-interpolation-filters="sRGB">
<feFlood flood-opacity="0" result="BackgroundImageFix"/>
<feGaussianBlur in="BackgroundImageFix" stdDeviation="1.80093"/>
<feComposite in2="SourceAlpha" operator="in" result="effect1_backgroundBlur_207_1160"/>
<feBlend mode="normal" in="SourceGraphic" in2="effect1_backgroundBlur_207_1160" result="shape"/>
<feColorMatrix in="SourceAlpha" type="matrix" values="0 0 0 0 0 0 0 0 0 0 0 0 0 0 0 0 0 0 127 0" result="hardAlpha"/>
<feOffset dy="1.0291"/>
<feGaussianBlur stdDeviation="2.0582"/>
<feComposite in2="hardAlpha" operator="arithmetic" k2="-1" k3="1"/>
<feColorMatrix type="matrix" values="0 0 0 0 0 0 0 0 0 0.82 0 0 0 0 1 0 0 0 0.25 0"/>
<feBlend mode="normal" in2="shape" result="effect2_innerShadow_207_1160"/>
</filter>
<linearGradient id="paint0_linear_207_1160" x1="41.2843" y1="60.0228" x2="30.5432" y2="88.2967" gradientUnits="userSpaceOnUse">
<stop stop-color="#D7F0FF"/>
<stop offset="1" stop-color="#0072DC"/>
</linearGradient>
<linearGradient id="paint1_linear_207_1160" x1="73.1087" y1="80.5664" x2="70.7293" y2="110.718" gradientUnits="userSpaceOnUse">
<stop stop-color="#D7F0FF"/>
<stop offset="1" stop-color="#0072DC"/>
</linearGradient>
<linearGradient id="paint2_linear_207_1160" x1="3.54998" y1="106.248" x2="20.5153" y2="91.9284" gradientUnits="userSpaceOnUse">
<stop stop-color="#0056D6"/>
<stop offset="1" stop-color="#ADD8FF"/>
</linearGradient>
<linearGradient id="paint3_linear_207_1160" x1="66.55" y1="84.2478" x2="83.5153" y2="69.9284" gradientUnits="userSpaceOnUse">
<stop stop-color="#0056D6"/>
<stop offset="1" stop-color="#ADD8FF"/>
</linearGradient>
<linearGradient id="paint4_linear_207_1160" x1="40.5" y1="67" x2="40.5" y2="116" gradientUnits="userSpaceOnUse">
<stop stop-color="#F8FD00"/>
<stop offset="1" stop-color="#FD9800"/>
</linearGradient>
<linearGradient id="paint5_linear_207_1160" x1="65.0908" y1="33.7078" x2="80.344" y2="-4.14769e-07" gradientUnits="userSpaceOnUse">
<stop stop-color="#2BA6FF"/>
<stop offset="0.299998" stop-color="#48B2FF" stop-opacity="0.75"/>
<stop offset="1" stop-color="#3BADFF" stop-opacity="0"/>
</linearGradient>
<linearGradient id="paint6_linear_207_1160" x1="43.9999" y1="5" x2="43.9999" y2="70" gradientUnits="userSpaceOnUse">
<stop stop-color="#FDC500"/>
<stop offset="1" stop-color="#FD8900"/>
</linearGradient>
<linearGradient id="paint7_linear_207_1160" x1="26.7566" y1="82.0522" x2="15.9999" y2="22.5" gradientUnits="userSpaceOnUse">
<stop offset="0.13121" stop-color="#2BA6FF"/>
<stop offset="1" stop-color="#3BADFF" stop-opacity="0"/>
</linearGradient>
</defs>
</svg>
