<svg width="85" height="99" viewBox="0 0 85 99" fill="none" xmlns="http://www.w3.org/2000/svg">
<path fill-rule="evenodd" clip-rule="evenodd" d="M13.8063 82.875C13.8063 81.8395 12.9668 81 11.9313 81C10.8957 81 10.0563 81.8395 10.0563 82.875V85.4046L8.2676 83.6159C7.53536 82.8837 6.34818 82.8837 5.61595 83.6159C4.88371 84.3482 4.88371 85.5353 5.61595 86.2676L7.40478 88.0564H4.875C3.83947 88.0564 3 88.8959 3 89.9314C3 90.9669 3.83947 91.8064 4.875 91.8064H7.4046L5.61579 93.5952C4.88355 94.3275 4.88355 95.5146 5.61579 96.2469C6.34802 96.9791 7.5352 96.9791 8.26744 96.2469L10.0563 94.458V96.9879C10.0563 98.0234 10.8957 98.8629 11.9313 98.8629C12.9668 98.8629 13.8063 98.0234 13.8063 96.9879V94.4579L15.5952 96.2469C16.3275 96.9791 17.5147 96.9791 18.2469 96.2469C18.9791 95.5146 18.9791 94.3275 18.2469 93.5952L16.4581 91.8064H18.9879C20.0234 91.8064 20.8629 90.9669 20.8629 89.9314C20.8629 88.8959 20.0234 88.0564 18.9879 88.0564H16.4579L18.2467 86.2676C18.979 85.5353 18.979 84.3482 18.2467 83.6159C17.5145 82.8837 16.3273 82.8837 15.5951 83.6159L13.8063 85.4047V82.875Z" fill="url(#paint0_linear_207_1439)"/>
<path fill-rule="evenodd" clip-rule="evenodd" d="M63.8063 82.875C63.8063 81.8395 62.9668 81 61.9313 81C60.8957 81 60.0563 81.8395 60.0563 82.875V85.4046L58.2676 83.6159C57.5354 82.8837 56.3482 82.8837 55.6159 83.6159C54.8837 84.3482 54.8837 85.5353 55.6159 86.2676L57.4048 88.0564H54.875C53.8395 88.0564 53 88.8959 53 89.9314C53 90.9669 53.8395 91.8064 54.875 91.8064H57.4046L55.6158 93.5952C54.8836 94.3275 54.8836 95.5146 55.6158 96.2469C56.348 96.9791 57.5352 96.9791 58.2674 96.2469L60.0563 94.458V96.9879C60.0563 98.0234 60.8957 98.8629 61.9313 98.8629C62.9668 98.8629 63.8063 98.0234 63.8063 96.9879V94.4579L65.5952 96.2469C66.3275 96.9791 67.5147 96.9791 68.2469 96.2469C68.9791 95.5146 68.9791 94.3275 68.2469 93.5952L66.4581 91.8064H68.9879C70.0234 91.8064 70.8629 90.9669 70.8629 89.9314C70.8629 88.8959 70.0234 88.0564 68.9879 88.0564H66.4579L68.2467 86.2676C68.979 85.5353 68.979 84.3482 68.2467 83.6159C67.5145 82.8837 66.3273 82.8837 65.5951 83.6159L63.8063 85.4047V82.875Z" fill="url(#paint1_linear_207_1439)"/>
<path fill-rule="evenodd" clip-rule="evenodd" d="M43.8063 61.875C43.8063 60.8395 42.9668 60 41.9313 60C40.8957 60 40.0563 60.8395 40.0563 61.875V64.4046L38.2676 62.6159C37.5354 61.8837 36.3482 61.8837 35.6159 62.6159C34.8837 63.3482 34.8837 64.5353 35.6159 65.2676L37.4048 67.0564H34.875C33.8395 67.0564 33 67.8959 33 68.9314C33 69.9669 33.8395 70.8064 34.875 70.8064H37.4046L35.6158 72.5952C34.8836 73.3275 34.8836 74.5146 35.6158 75.2469C36.348 75.9791 37.5352 75.9791 38.2674 75.2469L40.0563 73.458V75.9879C40.0563 77.0234 40.8957 77.8629 41.9313 77.8629C42.9668 77.8629 43.8063 77.0234 43.8063 75.9879V73.4579L45.5952 75.2469C46.3275 75.9791 47.5147 75.9791 48.2469 75.2469C48.9791 74.5146 48.9791 73.3275 48.2469 72.5952L46.4581 70.8064H48.9879C50.0234 70.8064 50.8629 69.9669 50.8629 68.9314C50.8629 67.8959 50.0234 67.0564 48.9879 67.0564H46.4579L48.2467 65.2676C48.979 64.5353 48.979 63.3482 48.2467 62.6159C47.5145 61.8837 46.3273 61.8837 45.5951 62.6159L43.8063 64.4047V61.875Z" fill="url(#paint2_linear_207_1439)"/>
<path fill-rule="evenodd" clip-rule="evenodd" d="M38.8063 82.875C38.8063 81.8395 37.9668 81 36.9313 81C35.8957 81 35.0563 81.8395 35.0563 82.875V85.4046L33.2676 83.6159C32.5354 82.8837 31.3482 82.8837 30.6159 83.6159C29.8837 84.3482 29.8837 85.5353 30.6159 86.2676L32.4048 88.0564H29.875C28.8395 88.0564 28 88.8959 28 89.9314C28 90.9669 28.8395 91.8064 29.875 91.8064H32.4046L30.6158 93.5952C29.8836 94.3275 29.8836 95.5146 30.6158 96.2469C31.348 96.9791 32.5352 96.9791 33.2674 96.2469L35.0563 94.458V96.9879C35.0563 98.0234 35.8957 98.8629 36.9313 98.8629C37.9668 98.8629 38.8063 98.0234 38.8063 96.9879V94.4579L40.5952 96.2469C41.3275 96.9791 42.5147 96.9791 43.2469 96.2469C43.9791 95.5146 43.9791 94.3275 43.2469 93.5952L41.4581 91.8064H43.9879C45.0234 91.8064 45.8629 90.9669 45.8629 89.9314C45.8629 88.8959 45.0234 88.0564 43.9879 88.0564H41.4579L43.2467 86.2676C43.979 85.5353 43.979 84.3482 43.2467 83.6159C42.5145 82.8837 41.3273 82.8837 40.5951 83.6159L38.8063 85.4047V82.875Z" fill="url(#paint3_linear_207_1439)"/>
<path fill-rule="evenodd" clip-rule="evenodd" d="M68.8063 61.875C68.8063 60.8395 67.9668 60 66.9313 60C65.8957 60 65.0563 60.8395 65.0563 61.875V64.4046L63.2676 62.6159C62.5354 61.8837 61.3482 61.8837 60.6159 62.6159C59.8837 63.3482 59.8837 64.5353 60.6159 65.2676L62.4048 67.0564H59.875C58.8395 67.0564 58 67.8959 58 68.9314C58 69.9669 58.8395 70.8064 59.875 70.8064H62.4046L60.6158 72.5952C59.8836 73.3275 59.8836 74.5146 60.6158 75.2469C61.348 75.9791 62.5352 75.9791 63.2674 75.2469L65.0563 73.458V75.9879C65.0563 77.0234 65.8957 77.8629 66.9313 77.8629C67.9668 77.8629 68.8063 77.0234 68.8063 75.9879V73.4579L70.5952 75.2469C71.3275 75.9791 72.5147 75.9791 73.2469 75.2469C73.9791 74.5146 73.9791 73.3275 73.2469 72.5952L71.4581 70.8064H73.9879C75.0234 70.8064 75.8629 69.9669 75.8629 68.9314C75.8629 67.8959 75.0234 67.0564 73.9879 67.0564H71.4579L73.2467 65.2676C73.979 64.5353 73.979 63.3482 73.2467 62.6159C72.5145 61.8837 71.3273 61.8837 70.5951 62.6159L68.8063 64.4047V61.875Z" fill="url(#paint4_linear_207_1439)"/>
<path fill-rule="evenodd" clip-rule="evenodd" d="M18.8063 61.875C18.8063 60.8395 17.9668 60 16.9313 60C15.8957 60 15.0563 60.8395 15.0563 61.875V64.4046L13.2676 62.6159C12.5354 61.8837 11.3482 61.8837 10.6159 62.6159C9.88371 63.3482 9.88371 64.5353 10.6159 65.2676L12.4048 67.0564H9.875C8.83947 67.0564 8 67.8959 8 68.9314C8 69.9669 8.83947 70.8064 9.875 70.8064H12.4046L10.6158 72.5952C9.88355 73.3275 9.88355 74.5146 10.6158 75.2469C11.348 75.9791 12.5352 75.9791 13.2674 75.2469L15.0563 73.458V75.9879C15.0563 77.0234 15.8957 77.8629 16.9313 77.8629C17.9668 77.8629 18.8063 77.0234 18.8063 75.9879V73.4579L20.5952 75.2469C21.3275 75.9791 22.5147 75.9791 23.2469 75.2469C23.9791 74.5146 23.9791 73.3275 23.2469 72.5952L21.4581 70.8064H23.9879C25.0234 70.8064 25.8629 69.9669 25.8629 68.9314C25.8629 67.8959 25.0234 67.0564 23.9879 67.0564H21.4579L23.2467 65.2676C23.979 64.5353 23.979 63.3482 23.2467 62.6159C22.5145 61.8837 21.3273 61.8837 20.5951 62.6159L18.8063 64.4047V61.875Z" fill="url(#paint5_linear_207_1439)"/>
<g filter="url(#filter0_f_207_1439)">
<ellipse cx="64.1492" cy="25.4221" rx="11.8636" ry="3.57792" fill="#004E67" fill-opacity="0.7"/>
</g>
<g filter="url(#filter1_bi_207_1439)">
<path fill-rule="evenodd" clip-rule="evenodd" d="M72.9999 11.2987C72.9999 11.5956 72.9884 11.8898 72.9659 12.181C74.2031 11.1593 75.7896 10.5455 77.5195 10.5455C81.4715 10.5455 84.6753 13.7492 84.6753 17.7013C84.6753 21.5271 81.673 24.6516 77.896 24.8474V24.8571H77.5344C77.5294 24.8571 77.5245 24.8572 77.5195 24.8572C77.5145 24.8572 77.5095 24.8571 77.5045 24.8571H51.1707C51.1657 24.8571 51.1607 24.8572 51.1557 24.8572C51.1508 24.8572 51.1458 24.8571 51.1408 24.8571H50.4025V24.818C46.8045 24.4416 43.9999 21.399 43.9999 17.7013C43.9999 13.996 46.8161 10.9484 50.4248 10.5823C50.7944 4.676 55.7017 0 61.7012 0C67.9413 0 72.9999 5.0586 72.9999 11.2987Z" fill="url(#paint6_linear_207_1439)"/>
</g>
<path d="M57.9355 55.4888C54.8499 55.6668 51.7603 55.2152 48.8562 54.1618C45.9521 53.1084 43.2948 51.4754 41.047 49.363C38.7992 47.2505 37.0084 44.7031 35.7845 41.877C34.5606 39.0509 33.9292 36.0056 33.9292 32.9278C33.9292 29.8501 34.5606 26.8048 35.7845 23.9786C37.0084 21.1525 38.7992 18.6051 41.047 16.4926C43.2948 14.3802 45.9521 12.7472 48.8562 11.6938C51.7603 10.6404 54.8499 10.1889 57.9355 10.3668C59.8842 10.3523 61.8254 10.6066 63.704 11.1226C58.0769 7.08929 51.3062 4.94518 44.3732 5.00107C37.4402 5.05695 30.7052 7.3099 25.1444 11.4334C19.5836 15.5568 15.486 21.3366 13.4455 27.9348C11.4049 34.533 11.5275 41.6069 13.7954 48.1311C16.0633 54.6553 20.3588 60.2908 26.0591 64.2208C31.7595 68.1508 38.5685 70.171 45.4993 69.9887C52.4301 69.8063 59.1225 67.4309 64.6065 63.2067C70.0905 58.9825 74.0811 53.129 75.9999 46.4947C73.9028 49.2938 71.1767 51.5652 68.0398 53.127C64.903 54.6888 61.4426 55.4977 57.9355 55.4888Z" fill="url(#paint7_linear_207_1439)"/>
<g filter="url(#filter2_f_207_1439)">
<ellipse cx="16.2083" cy="4.88823" rx="16.2083" ry="4.88823" transform="matrix(-1 0 0 1 44.2514 65.8439)" fill="#004E67" fill-opacity="0.7"/>
</g>
<g filter="url(#filter3_bi_207_1439)">
<path fill-rule="evenodd" clip-rule="evenodd" d="M15.951 51.4365C15.951 51.8421 15.9666 52.244 15.9973 52.6417C14.3071 51.2459 12.1397 50.4074 9.77642 50.4074C4.37704 50.4074 -3.05176e-05 54.7845 -3.05176e-05 60.1839C-3.05176e-05 65.4106 4.10165 69.6794 9.26183 69.947V69.9603H9.76408C9.76819 69.9603 9.77231 69.9603 9.77642 69.9603C9.78054 69.9603 9.78466 69.9603 9.78877 69.9603H45.7826C45.7867 69.9603 45.7909 69.9603 45.795 69.9603C45.7991 69.9603 45.8032 69.9603 45.8073 69.9603H46.824V69.9068C51.7397 69.3926 55.5714 65.2357 55.5714 60.1839C55.5714 55.1216 51.7238 50.9579 46.7935 50.4578C46.2886 42.3884 39.5841 36 31.3875 36C22.8621 36 15.951 42.9112 15.951 51.4365Z" fill="url(#paint8_linear_207_1439)"/>
</g>
<defs>
<filter id="filter0_f_207_1439" x="43.9999" y="13.5585" width="40.2987" height="23.7273" filterUnits="userSpaceOnUse" color-interpolation-filters="sRGB">
<feFlood flood-opacity="0" result="BackgroundImageFix"/>
<feBlend mode="normal" in="SourceGraphic" in2="BackgroundImageFix" result="shape"/>
<feGaussianBlur stdDeviation="4.14286" result="effect1_foregroundBlur_207_1439"/>
</filter>
<filter id="filter1_bi_207_1439" x="41.3635" y="-2.63636" width="45.9482" height="30.1299" filterUnits="userSpaceOnUse" color-interpolation-filters="sRGB">
<feFlood flood-opacity="0" result="BackgroundImageFix"/>
<feGaussianBlur in="BackgroundImageFix" stdDeviation="1.31818"/>
<feComposite in2="SourceAlpha" operator="in" result="effect1_backgroundBlur_207_1439"/>
<feBlend mode="normal" in="SourceGraphic" in2="effect1_backgroundBlur_207_1439" result="shape"/>
<feColorMatrix in="SourceAlpha" type="matrix" values="0 0 0 0 0 0 0 0 0 0 0 0 0 0 0 0 0 0 127 0" result="hardAlpha"/>
<feOffset dy="0.753247"/>
<feGaussianBlur stdDeviation="1.50649"/>
<feComposite in2="hardAlpha" operator="arithmetic" k2="-1" k3="1"/>
<feColorMatrix type="matrix" values="0 0 0 0 0 0 0 0 0 0.82 0 0 0 0 1 0 0 0 0.25 0"/>
<feBlend mode="normal" in2="shape" result="effect2_innerShadow_207_1439"/>
</filter>
<filter id="filter2_f_207_1439" x="0.514595" y="54.5238" width="55.0569" height="32.4166" filterUnits="userSpaceOnUse" color-interpolation-filters="sRGB">
<feFlood flood-opacity="0" result="BackgroundImageFix"/>
<feBlend mode="normal" in="SourceGraphic" in2="BackgroundImageFix" result="shape"/>
<feGaussianBlur stdDeviation="5.66005" result="effect1_foregroundBlur_207_1439"/>
</filter>
<filter id="filter3_bi_207_1439" x="-3.60188" y="32.3981" width="62.7752" height="41.164" filterUnits="userSpaceOnUse" color-interpolation-filters="sRGB">
<feFlood flood-opacity="0" result="BackgroundImageFix"/>
<feGaussianBlur in="BackgroundImageFix" stdDeviation="1.80093"/>
<feComposite in2="SourceAlpha" operator="in" result="effect1_backgroundBlur_207_1439"/>
<feBlend mode="normal" in="SourceGraphic" in2="effect1_backgroundBlur_207_1439" result="shape"/>
<feColorMatrix in="SourceAlpha" type="matrix" values="0 0 0 0 0 0 0 0 0 0 0 0 0 0 0 0 0 0 127 0" result="hardAlpha"/>
<feOffset dy="1.0291"/>
<feGaussianBlur stdDeviation="2.0582"/>
<feComposite in2="hardAlpha" operator="arithmetic" k2="-1" k3="1"/>
<feColorMatrix type="matrix" values="0 0 0 0 0 0 0 0 0 0.82 0 0 0 0 1 0 0 0 0.25 0"/>
<feBlend mode="normal" in2="shape" result="effect2_innerShadow_207_1439"/>
</filter>
<linearGradient id="paint0_linear_207_1439" x1="5.54998" y1="95.2478" x2="22.5153" y2="80.9284" gradientUnits="userSpaceOnUse">
<stop stop-color="#0056D6"/>
<stop offset="1" stop-color="#ADD8FF"/>
</linearGradient>
<linearGradient id="paint1_linear_207_1439" x1="55.55" y1="95.2478" x2="72.5153" y2="80.9284" gradientUnits="userSpaceOnUse">
<stop stop-color="#0056D6"/>
<stop offset="1" stop-color="#ADD8FF"/>
</linearGradient>
<linearGradient id="paint2_linear_207_1439" x1="35.55" y1="74.2478" x2="52.5153" y2="59.9284" gradientUnits="userSpaceOnUse">
<stop stop-color="#0056D6"/>
<stop offset="1" stop-color="#ADD8FF"/>
</linearGradient>
<linearGradient id="paint3_linear_207_1439" x1="30.55" y1="95.2478" x2="47.5153" y2="80.9284" gradientUnits="userSpaceOnUse">
<stop stop-color="#0056D6"/>
<stop offset="1" stop-color="#ADD8FF"/>
</linearGradient>
<linearGradient id="paint4_linear_207_1439" x1="60.55" y1="74.2478" x2="77.5153" y2="59.9284" gradientUnits="userSpaceOnUse">
<stop stop-color="#0056D6"/>
<stop offset="1" stop-color="#ADD8FF"/>
</linearGradient>
<linearGradient id="paint5_linear_207_1439" x1="10.55" y1="74.2478" x2="27.5153" y2="59.9284" gradientUnits="userSpaceOnUse">
<stop stop-color="#0056D6"/>
<stop offset="1" stop-color="#ADD8FF"/>
</linearGradient>
<linearGradient id="paint6_linear_207_1439" x1="65.0908" y1="33.7078" x2="80.344" y2="-4.14769e-07" gradientUnits="userSpaceOnUse">
<stop stop-color="#2BA6FF"/>
<stop offset="0.299998" stop-color="#48B2FF" stop-opacity="0.75"/>
<stop offset="1" stop-color="#3BADFF" stop-opacity="0"/>
</linearGradient>
<linearGradient id="paint7_linear_207_1439" x1="43.9999" y1="5" x2="43.9999" y2="70" gradientUnits="userSpaceOnUse">
<stop stop-color="#FDC500"/>
<stop offset="1" stop-color="#FD8900"/>
</linearGradient>
<linearGradient id="paint8_linear_207_1439" x1="26.7566" y1="82.0522" x2="15.9999" y2="22.5" gradientUnits="userSpaceOnUse">
<stop offset="0.13121" stop-color="#2BA6FF"/>
<stop offset="1" stop-color="#3BADFF" stop-opacity="0"/>
</linearGradient>
</defs>
</svg>
