<svg width="85" height="107" viewBox="0 0 85 107" fill="none" xmlns="http://www.w3.org/2000/svg">
<path fill-rule="evenodd" clip-rule="evenodd" d="M24.8166 59.8158C24.8166 58.2607 23.556 57 22.0008 57C20.4457 57 19.185 58.2607 19.185 59.8158V63.2029L16.79 60.8079C15.6903 59.7082 13.9074 59.7082 12.8078 60.8079C11.7082 61.9075 11.7082 63.6904 12.8078 64.79L15.203 67.1852H11.8158C10.2607 67.1852 9 68.4459 9 70.001C9 71.5561 10.2607 72.8168 11.8158 72.8168H15.2028L12.8077 75.2119C11.7081 76.3116 11.7081 78.0944 12.8077 79.1941C13.9074 80.2937 15.6902 80.2937 16.7899 79.1941L19.185 76.7989V80.1862C19.185 81.7413 20.4457 83.002 22.0008 83.002C23.556 83.002 24.8166 81.7413 24.8166 80.1862V76.7989L27.2118 79.1941C28.3115 80.2937 30.0944 80.2937 31.194 79.1941C32.2936 78.0944 32.2936 76.3116 31.194 75.2119L28.7989 72.8168H32.1862C33.7413 72.8168 35.002 71.5561 35.002 70.001C35.002 68.4459 33.7413 67.1852 32.1862 67.1852H28.7988L31.1939 64.79C32.2936 63.6904 32.2936 61.9075 31.1939 60.8079C30.0943 59.7082 28.3114 59.7082 27.2118 60.8079L24.8166 63.203V59.8158Z" fill="url(#paint0_linear_207_1354)"/>
<path fill-rule="evenodd" clip-rule="evenodd" d="M59.2649 54.2391C59.2649 52.4502 57.8147 51 56.0258 51C54.2369 51 52.7868 52.4502 52.7868 54.2391V58.1789L50.0009 55.3931C48.736 54.1281 46.6851 54.1281 45.4202 55.3931C44.1553 56.658 44.1553 58.7089 45.4202 59.9738L48.2063 62.7599H44.2662C42.4773 62.7599 41.0271 64.2101 41.0271 65.999C41.0271 67.7879 42.4773 69.238 44.2662 69.238H48.206L45.4199 72.0241C44.155 73.2891 44.155 75.3399 45.4199 76.6049C46.6849 77.8698 48.7357 77.8698 50.0006 76.6049L52.7868 73.8187V77.7589C52.7868 79.5478 54.2369 80.998 56.0258 80.998C57.8147 80.998 59.2649 79.5478 59.2649 77.7589V73.8185L62.0513 76.6049C63.3162 77.8698 65.3671 77.8698 66.632 76.6049C67.8969 75.3399 67.8969 73.2891 66.632 72.0241L63.8459 69.238H67.786C69.5749 69.238 71.0251 67.7879 71.0251 65.999C71.0251 64.2101 69.5749 62.7599 67.786 62.7599H63.8456L66.6317 59.9738C67.8966 58.7089 67.8966 56.658 66.6317 55.3931C65.3668 54.1281 63.3159 54.1281 62.051 55.3931L59.2649 58.1791V54.2391Z" fill="url(#paint1_linear_207_1354)"/>
<path fill-rule="evenodd" clip-rule="evenodd" d="M46.3741 87.3753C46.3741 86.0634 45.3106 85 43.9988 85C42.687 85 41.6235 86.0634 41.6235 87.3753V90.2644L39.5806 88.2215C38.653 87.2939 37.1491 87.2939 36.2215 88.2215C35.2939 89.1491 35.2939 90.653 36.2215 91.5806L38.2646 93.6237H35.3753C34.0634 93.6237 33 94.6872 33 95.999C33 97.3108 34.0634 98.3742 35.3753 98.3742H38.2644L36.2213 100.417C35.2937 101.345 35.2937 102.849 36.2213 103.776C37.1489 104.704 38.6529 104.704 39.5804 103.776L41.6235 101.733V104.623C41.6235 105.935 42.687 106.998 43.9988 106.998C45.3106 106.998 46.3741 105.935 46.3741 104.623V101.733L48.4173 103.776C49.3449 104.704 50.8489 104.704 51.7765 103.776C52.7041 102.849 52.7041 101.345 51.7765 100.417L49.7334 98.3742H52.6227C53.9346 98.3742 54.998 97.3108 54.998 95.999C54.998 94.6872 53.9346 93.6237 52.6227 93.6237H49.7332L51.7763 91.5806C52.7039 90.653 52.7039 89.1491 51.7763 88.2215C50.8487 87.2939 49.3447 87.2939 48.4171 88.2215L46.3741 90.2646V87.3753Z" fill="url(#paint2_linear_207_1354)"/>
<g filter="url(#filter0_f_207_1354)">
<ellipse cx="64.1492" cy="25.4221" rx="11.8636" ry="3.57792" fill="#004E67" fill-opacity="0.7"/>
</g>
<g filter="url(#filter1_bi_207_1354)">
<path fill-rule="evenodd" clip-rule="evenodd" d="M72.9999 11.2987C72.9999 11.5956 72.9884 11.8898 72.9659 12.181C74.2031 11.1593 75.7896 10.5455 77.5195 10.5455C81.4715 10.5455 84.6753 13.7492 84.6753 17.7013C84.6753 21.5271 81.673 24.6516 77.896 24.8474V24.8571H77.5344C77.5294 24.8571 77.5245 24.8572 77.5195 24.8572C77.5145 24.8572 77.5095 24.8571 77.5045 24.8571H51.1707C51.1657 24.8571 51.1607 24.8572 51.1557 24.8572C51.1507 24.8572 51.1458 24.8571 51.1408 24.8571H50.4025V24.818C46.8045 24.4416 43.9999 21.399 43.9999 17.7013C43.9999 13.996 46.8161 10.9484 50.4248 10.5823C50.7943 4.676 55.7017 0 61.7012 0C67.9413 0 72.9999 5.0586 72.9999 11.2987Z" fill="url(#paint3_linear_207_1354)"/>
</g>
<path d="M57.9355 55.4888C54.8499 55.6668 51.7603 55.2152 48.8562 54.1618C45.9521 53.1084 43.2947 51.4754 41.047 49.363C38.7992 47.2505 37.0084 44.7031 35.7845 41.877C34.5605 39.0509 33.9292 36.0056 33.9292 32.9278C33.9292 29.8501 34.5605 26.8048 35.7845 23.9786C37.0084 21.1525 38.7992 18.6051 41.047 16.4926C43.2947 14.3802 45.9521 12.7472 48.8562 11.6938C51.7603 10.6404 54.8499 10.1889 57.9355 10.3668C59.8841 10.3523 61.8254 10.6066 63.704 11.1226C58.0769 7.08929 51.3062 4.94518 44.3732 5.00107C37.4402 5.05695 30.7052 7.3099 25.1444 11.4334C19.5836 15.5568 15.486 21.3366 13.4454 27.9348C11.4049 34.533 11.5275 41.6069 13.7954 48.1311C16.0633 54.6553 20.3588 60.2908 26.0591 64.2208C31.7594 68.1508 38.5685 70.171 45.4993 69.9887C52.4301 69.8063 59.1225 67.4309 64.6065 63.2067C70.0905 58.9825 74.0811 53.129 75.9999 46.4947C73.9027 49.2938 71.1767 51.5652 68.0398 53.127C64.903 54.6888 61.4426 55.4977 57.9355 55.4888Z" fill="url(#paint4_linear_207_1354)"/>
<g filter="url(#filter2_f_207_1354)">
<ellipse cx="16.2083" cy="4.88823" rx="16.2083" ry="4.88823" transform="matrix(-1 0 0 1 44.2514 65.8439)" fill="#004E67" fill-opacity="0.7"/>
</g>
<g filter="url(#filter3_bi_207_1354)">
<path fill-rule="evenodd" clip-rule="evenodd" d="M15.951 51.4365C15.951 51.8421 15.9666 52.244 15.9973 52.6417C14.3071 51.2459 12.1397 50.4074 9.77641 50.4074C4.37702 50.4074 -4.57764e-05 54.7845 -4.57764e-05 60.1839C-4.57764e-05 65.4106 4.10163 69.6794 9.26181 69.947V69.9603H9.76406C9.76818 69.9603 9.77229 69.9603 9.77641 69.9603C9.78053 69.9603 9.78464 69.9603 9.78876 69.9603H45.7826C45.7867 69.9603 45.7908 69.9603 45.795 69.9603C45.7991 69.9603 45.8032 69.9603 45.8073 69.9603H46.824V69.9068C51.7397 69.3926 55.5714 65.2357 55.5714 60.1839C55.5714 55.1216 51.7238 50.9579 46.7935 50.4578C46.2886 42.3884 39.5841 36 31.3875 36C22.8621 36 15.951 42.9112 15.951 51.4365Z" fill="url(#paint5_linear_207_1354)"/>
</g>
<path fill-rule="evenodd" clip-rule="evenodd" d="M35.0021 70H9.00012C9.00065 68.4453 10.2611 67.1852 11.8159 67.1852H15.2031L12.8079 64.79C11.7083 63.6904 11.7083 61.9075 12.8079 60.8079C13.9076 59.7082 15.6904 59.7082 16.7901 60.8079L19.1851 63.2029V59.8158C19.1851 58.2607 20.4458 57 22.0009 57C23.5561 57 24.8168 58.2607 24.8168 59.8158V63.203L27.2119 60.8079C28.3115 59.7082 30.0944 59.7082 31.194 60.8079C32.2937 61.9075 32.2937 63.6904 31.194 64.79L28.7989 67.1852H32.1863C33.7411 67.1852 35.0016 68.4453 35.0021 70Z" fill="#A9DDFA"/>
<defs>
<filter id="filter0_f_207_1354" x="43.9999" y="13.5585" width="40.2987" height="23.7273" filterUnits="userSpaceOnUse" color-interpolation-filters="sRGB">
<feFlood flood-opacity="0" result="BackgroundImageFix"/>
<feBlend mode="normal" in="SourceGraphic" in2="BackgroundImageFix" result="shape"/>
<feGaussianBlur stdDeviation="4.14286" result="effect1_foregroundBlur_207_1354"/>
</filter>
<filter id="filter1_bi_207_1354" x="41.3635" y="-2.63636" width="45.9482" height="30.1299" filterUnits="userSpaceOnUse" color-interpolation-filters="sRGB">
<feFlood flood-opacity="0" result="BackgroundImageFix"/>
<feGaussianBlur in="BackgroundImageFix" stdDeviation="1.31818"/>
<feComposite in2="SourceAlpha" operator="in" result="effect1_backgroundBlur_207_1354"/>
<feBlend mode="normal" in="SourceGraphic" in2="effect1_backgroundBlur_207_1354" result="shape"/>
<feColorMatrix in="SourceAlpha" type="matrix" values="0 0 0 0 0 0 0 0 0 0 0 0 0 0 0 0 0 0 127 0" result="hardAlpha"/>
<feOffset dy="0.753247"/>
<feGaussianBlur stdDeviation="1.50649"/>
<feComposite in2="hardAlpha" operator="arithmetic" k2="-1" k3="1"/>
<feColorMatrix type="matrix" values="0 0 0 0 0 0 0 0 0 0.82 0 0 0 0 1 0 0 0 0.25 0"/>
<feBlend mode="normal" in2="shape" result="effect2_innerShadow_207_1354"/>
</filter>
<filter id="filter2_f_207_1354" x="0.51461" y="54.5238" width="55.0569" height="32.4166" filterUnits="userSpaceOnUse" color-interpolation-filters="sRGB">
<feFlood flood-opacity="0" result="BackgroundImageFix"/>
<feBlend mode="normal" in="SourceGraphic" in2="BackgroundImageFix" result="shape"/>
<feGaussianBlur stdDeviation="5.66005" result="effect1_foregroundBlur_207_1354"/>
</filter>
<filter id="filter3_bi_207_1354" x="-3.60191" y="32.3981" width="62.7752" height="41.164" filterUnits="userSpaceOnUse" color-interpolation-filters="sRGB">
<feFlood flood-opacity="0" result="BackgroundImageFix"/>
<feGaussianBlur in="BackgroundImageFix" stdDeviation="1.80093"/>
<feComposite in2="SourceAlpha" operator="in" result="effect1_backgroundBlur_207_1354"/>
<feBlend mode="normal" in="SourceGraphic" in2="effect1_backgroundBlur_207_1354" result="shape"/>
<feColorMatrix in="SourceAlpha" type="matrix" values="0 0 0 0 0 0 0 0 0 0 0 0 0 0 0 0 0 0 127 0" result="hardAlpha"/>
<feOffset dy="1.0291"/>
<feGaussianBlur stdDeviation="2.0582"/>
<feComposite in2="hardAlpha" operator="arithmetic" k2="-1" k3="1"/>
<feColorMatrix type="matrix" values="0 0 0 0 0 0 0 0 0 0.82 0 0 0 0 1 0 0 0 0.25 0"/>
<feBlend mode="normal" in2="shape" result="effect2_innerShadow_207_1354"/>
</filter>
<linearGradient id="paint0_linear_207_1354" x1="12.7119" y1="77.7397" x2="37.4073" y2="56.8958" gradientUnits="userSpaceOnUse">
<stop stop-color="#0056D6"/>
<stop offset="1" stop-color="#ADD8FF"/>
</linearGradient>
<linearGradient id="paint1_linear_207_1354" x1="45.3094" y1="74.927" x2="73.8" y2="50.8798" gradientUnits="userSpaceOnUse">
<stop stop-color="#0056D6"/>
<stop offset="1" stop-color="#ADD8FF"/>
</linearGradient>
<linearGradient id="paint2_linear_207_1354" x1="36.1403" y1="102.546" x2="57.0329" y2="84.9119" gradientUnits="userSpaceOnUse">
<stop stop-color="#0056D6"/>
<stop offset="1" stop-color="#ADD8FF"/>
</linearGradient>
<linearGradient id="paint3_linear_207_1354" x1="65.0908" y1="33.7078" x2="80.344" y2="-4.14769e-07" gradientUnits="userSpaceOnUse">
<stop stop-color="#2BA6FF"/>
<stop offset="0.299998" stop-color="#48B2FF" stop-opacity="0.75"/>
<stop offset="1" stop-color="#3BADFF" stop-opacity="0"/>
</linearGradient>
<linearGradient id="paint4_linear_207_1354" x1="43.9999" y1="5" x2="43.9999" y2="70" gradientUnits="userSpaceOnUse">
<stop stop-color="#FDC500"/>
<stop offset="1" stop-color="#FD8900"/>
</linearGradient>
<linearGradient id="paint5_linear_207_1354" x1="26.7566" y1="82.0522" x2="15.9999" y2="22.5" gradientUnits="userSpaceOnUse">
<stop offset="0.13121" stop-color="#2BA6FF"/>
<stop offset="1" stop-color="#3BADFF" stop-opacity="0"/>
</linearGradient>
</defs>
</svg>
