<svg width="121" height="121" viewBox="0 0 121 121" fill="none" xmlns="http://www.w3.org/2000/svg">
<g filter="url(#filter0_f_207_1795)">
<ellipse cx="53.5" cy="79.5" rx="31.5" ry="9.5" fill="#004E67" fill-opacity="0.7"/>
</g>
<path d="M106.323 41.1678C103.816 41.3129 101.305 40.9447 98.9458 40.0858C96.5862 39.2269 94.4271 37.8954 92.6008 36.1729C90.7744 34.4504 89.3195 32.3733 88.325 30.0689C87.3305 27.7645 86.8175 25.2815 86.8175 22.7719C86.8175 20.2624 87.3305 17.7793 88.325 15.4749C89.3195 13.1705 90.7744 11.0934 92.6008 9.37091C94.4271 7.64845 96.5862 6.31694 98.9458 5.45802C101.305 4.59911 103.816 4.23091 106.323 4.37598C107.906 4.36414 109.483 4.57154 111.01 4.99226C106.438 1.70358 100.936 -0.044696 95.3033 0.000868545C89.6703 0.0464331 84.1981 1.88346 79.6799 5.24567C75.1618 8.60788 71.8325 13.3206 70.1745 18.7007C68.5166 24.0808 68.6162 29.8487 70.4589 35.1684C72.3015 40.4882 75.7916 45.0833 80.4231 48.2877C85.0547 51.4922 90.587 53.1394 96.2183 52.9908C101.85 52.8421 107.287 50.9052 111.743 47.4609C116.199 44.0165 119.441 39.2436 121 33.8341C119.296 36.1165 117.081 37.9686 114.532 39.242C111.984 40.5155 109.172 41.175 106.323 41.1678Z" fill="url(#paint0_linear_207_1795)"/>
<path d="M34.8069 96.2814L47.9076 72.2315C47.9853 72.0888 48.1348 72 48.2973 72H65.2814C65.6114 72 65.826 72.3474 65.6782 72.6426L58.8724 86.2324C58.7246 86.5276 58.9391 86.875 59.2692 86.875H66L28.8784 119.356C28.5053 119.683 27.959 119.245 28.1967 118.81L39.7873 97.5941C39.9489 97.2983 39.7349 96.9375 39.3979 96.9375H35.1966C34.8598 96.9375 34.6458 96.5771 34.8069 96.2814Z" fill="url(#paint1_linear_207_1795)"/>
<path d="M29.6897 72.582L21.4778 81.7644C20.576 82.7611 19.9184 83.9513 19.5558 85.243C19.1932 86.5346 19.1354 87.8933 19.3867 89.214C19.8265 91.0819 20.9272 92.8884 23.5333 93.65C26.1393 94.4115 28.0395 93.4819 29.416 92.1447C30.3389 91.1671 31.0217 89.9911 31.4117 88.7074C31.8017 87.4238 31.8884 86.0668 31.6651 84.7413L29.6897 72.582Z" fill="url(#paint2_linear_207_1795)"/>
<path d="M68.6365 93.5666L60.4711 102.79C59.5743 103.792 58.9227 104.985 58.5667 106.279C58.2106 107.572 58.1596 108.931 58.4175 110.25C58.8668 112.116 59.9766 113.917 62.5865 114.665C65.1964 115.414 67.0919 114.475 68.4616 113.13C69.3795 112.148 70.0564 110.969 70.4399 109.683C70.8234 108.397 70.9032 107.04 70.6733 105.716L68.6365 93.5666Z" fill="url(#paint3_linear_207_1795)"/>
<path fill-rule="evenodd" clip-rule="evenodd" d="M17.8063 98.875C17.8063 97.8395 16.9668 97 15.9313 97C14.8957 97 14.0563 97.8395 14.0563 98.875V101.405L12.2676 99.6159C11.5354 98.8837 10.3482 98.8837 9.61595 99.6159C8.88371 100.348 8.88371 101.535 9.61595 102.268L11.4048 104.056H8.875C7.83947 104.056 7 104.896 7 105.931C7 106.967 7.83947 107.806 8.875 107.806H11.4046L9.61579 109.595C8.88355 110.327 8.88355 111.515 9.61579 112.247C10.348 112.979 11.5352 112.979 12.2674 112.247L14.0563 110.458V112.988C14.0563 114.023 14.8957 114.863 15.9313 114.863C16.9668 114.863 17.8063 114.023 17.8063 112.988V110.458L19.5952 112.247C20.3275 112.979 21.5147 112.979 22.2469 112.247C22.9791 111.515 22.9791 110.327 22.2469 109.595L20.4581 107.806H22.9879C24.0234 107.806 24.8629 106.967 24.8629 105.931C24.8629 104.896 24.0234 104.056 22.9879 104.056H20.4579L22.2467 102.268C22.979 101.535 22.979 100.348 22.2467 99.6159C21.5145 98.8837 20.3273 98.8837 19.5951 99.6159L17.8063 101.405V98.875Z" fill="url(#paint4_linear_207_1795)"/>
<path fill-rule="evenodd" clip-rule="evenodd" d="M80.8063 76.875C80.8063 75.8395 79.9668 75 78.9313 75C77.8957 75 77.0563 75.8395 77.0563 76.875V79.4046L75.2676 77.6159C74.5354 76.8837 73.3482 76.8837 72.6159 77.6159C71.8837 78.3482 71.8837 79.5353 72.6159 80.2676L74.4048 82.0564H71.875C70.8395 82.0564 70 82.8959 70 83.9314C70 84.9669 70.8395 85.8064 71.875 85.8064H74.4046L72.6158 87.5952C71.8836 88.3275 71.8836 89.5146 72.6158 90.2469C73.348 90.9791 74.5352 90.9791 75.2674 90.2469L77.0563 88.458V90.9879C77.0563 92.0234 77.8957 92.8629 78.9313 92.8629C79.9668 92.8629 80.8063 92.0234 80.8063 90.9879V88.4579L82.5952 90.2469C83.3275 90.9791 84.5147 90.9791 85.2469 90.2469C85.9791 89.5146 85.9791 88.3275 85.2469 87.5952L83.4581 85.8064H85.9879C87.0234 85.8064 87.8629 84.9669 87.8629 83.9314C87.8629 82.8959 87.0234 82.0564 85.9879 82.0564H83.4579L85.2467 80.2676C85.979 79.5353 85.979 78.3482 85.2467 77.6159C84.5145 76.8837 83.3273 76.8837 82.5951 77.6159L80.8063 79.4047V76.875Z" fill="url(#paint5_linear_207_1795)"/>
<g filter="url(#filter1_bi_207_1795)">
<path fill-rule="evenodd" clip-rule="evenodd" d="M77 42C77 42.7882 76.9696 43.5693 76.9099 44.3422C80.1949 41.6296 84.4071 40 89 40C99.4934 40 108 48.5066 108 59C108 69.158 100.029 77.4541 90 77.9741V78H89H19H17V77.896C7.44667 76.8966 0 68.8179 0 59C0 49.1618 7.47752 41.07 17.0593 40.0979C18.0405 24.4156 31.0704 12 47 12C63.5685 12 77 25.4315 77 42Z" fill="url(#paint6_linear_207_1795)"/>
</g>
<defs>
<filter id="filter0_f_207_1795" x="0" y="48" width="107" height="63" filterUnits="userSpaceOnUse" color-interpolation-filters="sRGB">
<feFlood flood-opacity="0" result="BackgroundImageFix"/>
<feBlend mode="normal" in="SourceGraphic" in2="BackgroundImageFix" result="shape"/>
<feGaussianBlur stdDeviation="11" result="effect1_foregroundBlur_207_1795"/>
</filter>
<filter id="filter1_bi_207_1795" x="-7" y="5" width="122" height="80" filterUnits="userSpaceOnUse" color-interpolation-filters="sRGB">
<feFlood flood-opacity="0" result="BackgroundImageFix"/>
<feGaussianBlur in="BackgroundImageFix" stdDeviation="3.5"/>
<feComposite in2="SourceAlpha" operator="in" result="effect1_backgroundBlur_207_1795"/>
<feBlend mode="normal" in="SourceGraphic" in2="effect1_backgroundBlur_207_1795" result="shape"/>
<feColorMatrix in="SourceAlpha" type="matrix" values="0 0 0 0 0 0 0 0 0 0 0 0 0 0 0 0 0 0 127 0" result="hardAlpha"/>
<feOffset dy="2"/>
<feGaussianBlur stdDeviation="4"/>
<feComposite in2="hardAlpha" operator="arithmetic" k2="-1" k3="1"/>
<feColorMatrix type="matrix" values="0 0 0 0 0 0 0 0 0 0.82 0 0 0 0 1 0 0 0 0.25 0"/>
<feBlend mode="normal" in2="shape" result="effect2_innerShadow_207_1795"/>
</filter>
<linearGradient id="paint0_linear_207_1795" x1="95" y1="0" x2="95" y2="53" gradientUnits="userSpaceOnUse">
<stop stop-color="#FDC500"/>
<stop offset="1" stop-color="#FD8900"/>
</linearGradient>
<linearGradient id="paint1_linear_207_1795" x1="46.5" y1="72" x2="46.5" y2="121" gradientUnits="userSpaceOnUse">
<stop stop-color="#F8FD00"/>
<stop offset="1" stop-color="#FD9800"/>
</linearGradient>
<linearGradient id="paint2_linear_207_1795" x1="47.2842" y1="65.0228" x2="36.5432" y2="93.2967" gradientUnits="userSpaceOnUse">
<stop stop-color="#D7F0FF"/>
<stop offset="1" stop-color="#0072DC"/>
</linearGradient>
<linearGradient id="paint3_linear_207_1795" x1="79.1087" y1="85.5664" x2="76.7293" y2="115.718" gradientUnits="userSpaceOnUse">
<stop stop-color="#D7F0FF"/>
<stop offset="1" stop-color="#0072DC"/>
</linearGradient>
<linearGradient id="paint4_linear_207_1795" x1="9.54998" y1="111.248" x2="26.5153" y2="96.9284" gradientUnits="userSpaceOnUse">
<stop stop-color="#0056D6"/>
<stop offset="1" stop-color="#ADD8FF"/>
</linearGradient>
<linearGradient id="paint5_linear_207_1795" x1="72.55" y1="89.2478" x2="89.5153" y2="74.9284" gradientUnits="userSpaceOnUse">
<stop stop-color="#0056D6"/>
<stop offset="1" stop-color="#ADD8FF"/>
</linearGradient>
<linearGradient id="paint6_linear_207_1795" x1="56" y1="101.5" x2="96.5" y2="12" gradientUnits="userSpaceOnUse">
<stop stop-color="#0082DF"/>
<stop offset="0.299998" stop-color="#48B2FF" stop-opacity="0.75"/>
<stop offset="1" stop-color="#3BADFF" stop-opacity="0"/>
</linearGradient>
</defs>
</svg>
