<svg width="121" height="120" viewBox="0 0 121 120" fill="none" xmlns="http://www.w3.org/2000/svg">
<g filter="url(#filter0_f_209_2049)">
<ellipse cx="53.5" cy="79.5" rx="31.5" ry="9.5" fill="#004E67" fill-opacity="0.7"/>
</g>
<path d="M106.323 41.1678C103.816 41.3129 101.305 40.9447 98.9458 40.0858C96.5862 39.2269 94.4271 37.8954 92.6008 36.1729C90.7744 34.4504 89.3195 32.3733 88.325 30.0689C87.3305 27.7645 86.8175 25.2815 86.8175 22.7719C86.8175 20.2624 87.3305 17.7793 88.325 15.4749C89.3195 13.1705 90.7744 11.0934 92.6008 9.37091C94.4271 7.64845 96.5862 6.31694 98.9458 5.45802C101.305 4.59911 103.816 4.23091 106.323 4.37598C107.906 4.36414 109.483 4.57154 111.01 4.99226C106.438 1.70358 100.936 -0.044696 95.3033 0.000868545C89.6703 0.0464331 84.1981 1.88346 79.6799 5.24567C75.1618 8.60788 71.8325 13.3206 70.1745 18.7007C68.5166 24.0808 68.6162 29.8487 70.4589 35.1684C72.3015 40.4882 75.7916 45.0833 80.4231 48.2877C85.0547 51.4922 90.587 53.1394 96.2183 52.9908C101.85 52.8421 107.287 50.9052 111.743 47.4609C116.199 44.0165 119.441 39.2436 121 33.8341C119.296 36.1165 117.081 37.9686 114.532 39.242C111.984 40.5155 109.172 41.175 106.323 41.1678Z" fill="url(#paint0_linear_209_2049)"/>
<path fill-rule="evenodd" clip-rule="evenodd" d="M28.8166 67.7496C28.8166 66.1945 27.556 64.9338 26.0008 64.9338C24.4457 64.9338 23.185 66.1945 23.185 67.7496V71.0378L20.8085 68.7052C19.6986 67.6159 17.8992 67.6159 16.7893 68.7052C15.6794 69.7945 15.6794 71.5607 16.7893 72.65L19.1129 74.9306H15.8158C14.2607 74.9306 13 76.1913 13 77.7464C13 79.3015 14.2607 80.5622 15.8158 80.5622H19.1128L16.7892 82.8428C15.6794 83.9322 15.6794 85.6983 16.7892 86.7877C17.8991 87.877 19.6985 87.877 20.8084 86.7877L23.185 84.455V87.7432C23.185 89.2984 24.4457 90.559 26.0008 90.559C27.556 90.559 28.8166 89.2984 28.8166 87.7432V84.4549L31.1933 86.7877C32.3032 87.877 34.1026 87.877 35.2125 86.7877C36.3223 85.6983 36.3223 83.9322 35.2125 82.8428L32.8889 80.5622H36.1862C37.7413 80.5622 39.002 79.3015 39.002 77.7464C39.002 76.1913 37.7413 74.9306 36.1862 74.9306H32.8889L35.2124 72.65C36.3223 71.5607 36.3223 69.7945 35.2124 68.7052C34.1026 67.6159 32.3031 67.6159 31.1933 68.7052L28.8166 71.0379V67.7496Z" fill="url(#paint1_linear_209_2049)"/>
<path fill-rule="evenodd" clip-rule="evenodd" d="M83.2379 64.2391C83.2379 62.4502 81.7877 61 79.9988 61C78.2099 61 76.7597 62.4502 76.7597 64.2391V68.0642L73.9952 65.3508C72.7185 64.0977 70.6486 64.0977 69.3719 65.3508C68.0952 66.6039 68.0952 68.6355 69.3719 69.8886L72.0757 72.5424H68.2391C66.4502 72.5424 65 73.9926 65 75.7815C65 77.5703 66.4502 79.0205 68.2391 79.0205H72.0754L69.3716 81.6743C68.0949 82.9274 68.0949 84.959 69.3716 86.2121C70.6483 87.4652 72.7182 87.4652 73.9949 86.2121L76.7597 83.4984V87.324C76.7597 89.1129 78.2099 90.563 79.9988 90.563C81.7877 90.563 83.2379 89.1129 83.2379 87.324V83.4981L86.003 86.2121C87.2796 87.4652 89.3496 87.4652 90.6262 86.2121C91.9029 84.959 91.9029 82.9274 90.6262 81.6743L87.9225 79.0205H91.7589C93.5478 79.0205 94.998 77.5703 94.998 75.7815C94.998 73.9926 93.5478 72.5424 91.7589 72.5424H87.9221L90.626 69.8886C91.9026 68.6355 91.9026 66.6039 90.626 65.3508C89.3493 64.0977 87.2794 64.0977 86.0027 65.3508L83.2379 68.0645V64.2391Z" fill="url(#paint2_linear_209_2049)"/>
<path fill-rule="evenodd" clip-rule="evenodd" d="M70.374 92.8364C70.374 91.5246 69.3106 90.4611 67.9988 90.4611C66.687 90.4611 65.6235 91.5246 65.6235 92.8364V95.6414L63.5963 93.6517C62.6601 92.7328 61.1422 92.7328 60.206 93.6517C59.2697 94.5705 59.2697 96.0604 60.206 96.9793L62.1887 98.9254H59.3753C58.0634 98.9254 57 99.9888 57 101.301C57 102.612 58.0634 103.676 59.3753 103.676H62.1884L60.2057 105.622C59.2695 106.541 59.2695 108.031 60.2057 108.95C61.1419 109.868 62.6598 109.868 63.596 108.95L65.6235 106.96V109.765C65.6235 111.077 66.687 112.14 67.9988 112.14C69.3106 112.14 70.374 111.077 70.374 109.765V106.959L72.4018 108.95C73.338 109.868 74.8559 109.868 75.7921 108.95C76.7283 108.031 76.7283 106.541 75.7921 105.622L73.8094 103.676H76.6227C77.9346 103.676 78.998 102.612 78.998 101.301C78.998 99.9888 77.9346 98.9254 76.6227 98.9254H73.8091L75.7919 96.9793C76.7281 96.0604 76.7281 94.5705 75.7919 93.6517C74.8557 92.7328 73.3378 92.7328 72.4015 93.6517L70.374 95.6417V92.8364Z" fill="url(#paint3_linear_209_2049)"/>
<path d="M33.8162 95.7193L46.9069 72.1784C46.9852 72.0376 47.1336 71.9503 47.2947 71.9503H64.2746C64.6063 71.9503 64.8208 72.3008 64.6698 72.5961L57.8807 85.8758C57.7298 86.1711 57.9443 86.5217 58.2759 86.5217H65L27.887 118.333C27.5108 118.655 26.9692 118.212 27.2106 117.78L38.778 97.0388C38.943 96.743 38.7291 96.3788 38.3904 96.3788H34.2041C33.8656 96.3788 33.6517 96.0151 33.8162 95.7193Z" fill="url(#paint4_linear_209_2049)"/>
<g filter="url(#filter1_bi_209_2049)">
<path fill-rule="evenodd" clip-rule="evenodd" d="M77 42C77 42.7882 76.9696 43.5693 76.9099 44.3422C80.1949 41.6296 84.4071 40 89 40C99.4934 40 108 48.5066 108 59C108 69.158 100.029 77.4541 90 77.9741V78H89H19H17V77.896C7.44667 76.8966 0 68.8179 0 59C0 49.1618 7.47752 41.07 17.0593 40.0979C18.0405 24.4156 31.0704 12 47 12C63.5685 12 77 25.4315 77 42Z" fill="url(#paint5_linear_209_2049)"/>
</g>
<path fill-rule="evenodd" clip-rule="evenodd" d="M39.002 77.7455H13C13.0005 76.1908 14.261 74.9306 15.8158 74.9306H19.1129L16.7893 72.65C15.6794 71.5607 15.6794 69.7945 16.7893 68.7052C17.8992 67.6159 19.6986 67.6159 20.8085 68.7052L23.185 71.0378V67.7496C23.185 66.1945 24.4457 64.9338 26.0008 64.9338C27.556 64.9338 28.8166 66.1945 28.8166 67.7496V71.0379L31.1933 68.7052C32.3031 67.6159 34.1026 67.6159 35.2124 68.7052C36.3223 69.7945 36.3223 71.5607 35.2124 72.65L32.8889 74.9306H36.1862C37.741 74.9306 39.0015 76.1908 39.002 77.7455Z" fill="#A9DDFA"/>
<defs>
<filter id="filter0_f_209_2049" x="0" y="48" width="107" height="63" filterUnits="userSpaceOnUse" color-interpolation-filters="sRGB">
<feFlood flood-opacity="0" result="BackgroundImageFix"/>
<feBlend mode="normal" in="SourceGraphic" in2="BackgroundImageFix" result="shape"/>
<feGaussianBlur stdDeviation="11" result="effect1_foregroundBlur_209_2049"/>
</filter>
<filter id="filter1_bi_209_2049" x="-7" y="5" width="122" height="80" filterUnits="userSpaceOnUse" color-interpolation-filters="sRGB">
<feFlood flood-opacity="0" result="BackgroundImageFix"/>
<feGaussianBlur in="BackgroundImageFix" stdDeviation="3.5"/>
<feComposite in2="SourceAlpha" operator="in" result="effect1_backgroundBlur_209_2049"/>
<feBlend mode="normal" in="SourceGraphic" in2="effect1_backgroundBlur_209_2049" result="shape"/>
<feColorMatrix in="SourceAlpha" type="matrix" values="0 0 0 0 0 0 0 0 0 0 0 0 0 0 0 0 0 0 127 0" result="hardAlpha"/>
<feOffset dy="2"/>
<feGaussianBlur stdDeviation="4"/>
<feComposite in2="hardAlpha" operator="arithmetic" k2="-1" k3="1"/>
<feColorMatrix type="matrix" values="0 0 0 0 0 0 0 0 0 0.82 0 0 0 0 1 0 0 0 0.25 0"/>
<feBlend mode="normal" in2="shape" result="effect2_innerShadow_209_2049"/>
</filter>
<linearGradient id="paint0_linear_209_2049" x1="95" y1="0" x2="95" y2="53" gradientUnits="userSpaceOnUse">
<stop stop-color="#FDC500"/>
<stop offset="1" stop-color="#FD8900"/>
</linearGradient>
<linearGradient id="paint1_linear_209_2049" x1="16.7119" y1="85.373" x2="41.1067" y2="64.4801" gradientUnits="userSpaceOnUse">
<stop stop-color="#0056D6"/>
<stop offset="1" stop-color="#ADD8FF"/>
</linearGradient>
<linearGradient id="paint2_linear_209_2049" x1="69.2823" y1="84.58" x2="97.4259" y2="60.4763" gradientUnits="userSpaceOnUse">
<stop stop-color="#0056D6"/>
<stop offset="1" stop-color="#ADD8FF"/>
</linearGradient>
<linearGradient id="paint3_linear_209_2049" x1="60.1403" y1="107.753" x2="80.7784" y2="90.0771" gradientUnits="userSpaceOnUse">
<stop stop-color="#0056D6"/>
<stop offset="1" stop-color="#ADD8FF"/>
</linearGradient>
<linearGradient id="paint4_linear_209_2049" x1="45.5" y1="71.9503" x2="45.5" y2="119.95" gradientUnits="userSpaceOnUse">
<stop stop-color="#F8FD00"/>
<stop offset="1" stop-color="#FD9800"/>
</linearGradient>
<linearGradient id="paint5_linear_209_2049" x1="56" y1="101.5" x2="96.5" y2="12" gradientUnits="userSpaceOnUse">
<stop stop-color="#0082DF"/>
<stop offset="0.299998" stop-color="#48B2FF" stop-opacity="0.75"/>
<stop offset="1" stop-color="#3BADFF" stop-opacity="0"/>
</linearGradient>
</defs>
</svg>
