<svg width="121" height="111" viewBox="0 0 121 111" fill="none" xmlns="http://www.w3.org/2000/svg">
<path d="M106.323 41.1678C103.816 41.3129 101.305 40.9447 98.9458 40.0858C96.5862 39.2269 94.4271 37.8954 92.6008 36.1729C90.7744 34.4504 89.3195 32.3733 88.325 30.0689C87.3305 27.7645 86.8175 25.2815 86.8175 22.7719C86.8175 20.2624 87.3305 17.7793 88.325 15.4749C89.3195 13.1705 90.7744 11.0934 92.6008 9.37091C94.4271 7.64845 96.5862 6.31694 98.9458 5.45802C101.305 4.59911 103.816 4.23091 106.323 4.37598C107.906 4.36414 109.483 4.57154 111.01 4.99226C106.438 1.70358 100.936 -0.044696 95.3033 0.000868545C89.6703 0.0464331 84.1981 1.88346 79.6799 5.24567C75.1618 8.60788 71.8325 13.3206 70.1745 18.7007C68.5166 24.0808 68.6162 29.8487 70.4589 35.1684C72.3015 40.4882 75.7916 45.0833 80.4231 48.2877C85.0547 51.4922 90.587 53.1394 96.2183 52.9908C101.85 52.8421 107.287 50.9052 111.743 47.4609C116.199 44.0165 119.441 39.2436 121 33.8341C119.296 36.1165 117.081 37.9686 114.532 39.242C111.984 40.5155 109.172 41.175 106.323 41.1678Z" fill="url(#paint0_linear_207_1673)"/>
<g filter="url(#filter0_f_207_1673)">
<ellipse cx="53.5" cy="79.5" rx="31.5" ry="9.5" fill="#004E67" fill-opacity="0.7"/>
</g>
<g filter="url(#filter1_bi_207_1673)">
<path fill-rule="evenodd" clip-rule="evenodd" d="M77 42C77 42.7882 76.9696 43.5693 76.9099 44.3422C80.1949 41.6296 84.4071 40 89 40C99.4934 40 108 48.5066 108 59C108 69.158 100.029 77.4541 90 77.9741V78H89H19H17V77.896C7.44667 76.8966 0 68.8179 0 59C0 49.1618 7.47752 41.07 17.0593 40.0979C18.0405 24.4156 31.0704 12 47 12C63.5685 12 77 25.4315 77 42Z" fill="url(#paint1_linear_207_1673)"/>
</g>
<path fill-rule="evenodd" clip-rule="evenodd" d="M35.5 55C36.8807 55 38 56.1193 38 57.5V71.0998C38 72.4805 36.8807 73.5998 35.5 73.5998C34.1193 73.5998 33 72.4805 33 71.0998L33 57.5C33 56.1193 34.1193 55 35.5 55ZM61.5 59.5333C62.8807 59.5333 64 60.6526 64 62.0333V87.4196C64 88.8003 62.8807 89.9196 61.5 89.9196C60.1193 89.9196 59 88.8003 59 87.4196V62.0333C59 60.6526 60.1193 59.5333 61.5 59.5333ZM48.5 65.8798C49.8807 65.8798 51 66.9991 51 68.3798V76.5397C51 77.9204 49.8807 79.0397 48.5 79.0397C47.1193 79.0397 46 77.9204 46 76.5397V68.3798C46 66.9991 47.1193 65.8798 48.5 65.8798ZM48.5 84.0129C49.8807 84.0129 51 85.1322 51 86.5129V102.833C51 104.213 49.8807 105.333 48.5 105.333C47.1193 105.333 46 104.213 46 102.833V86.5129C46 85.1322 47.1193 84.0129 48.5 84.0129ZM64 96.4861C64 95.1054 62.8807 93.9861 61.5 93.9861C60.1193 93.9861 59 95.1054 59 96.4861V102.833C59 104.213 60.1193 105.333 61.5 105.333C62.8807 105.333 64 104.213 64 102.833V96.4861ZM77 72.9131C77 71.5324 75.8807 70.4131 74.5 70.4131C73.1193 70.4131 72 71.5324 72 72.9131V79.2597C72 80.6404 73.1193 81.7597 74.5 81.7597C75.8807 81.7597 77 80.6404 77 79.2597V72.9131ZM74.5 86.7329C75.8807 86.7329 77 87.8522 77 89.2329V102.833C77 104.213 75.8807 105.333 74.5 105.333C73.1193 105.333 72 104.213 72 102.833V89.2329C72 87.8522 73.1193 86.7329 74.5 86.7329ZM38 80.1663C38 78.7856 36.8807 77.6663 35.5 77.6663C34.1193 77.6663 33 78.7856 33 80.1663V86.5129C33 87.8936 34.1193 89.0129 35.5 89.0129C36.8807 89.0129 38 87.8936 38 86.5129V80.1663ZM38 96.4861C38 95.1054 36.8807 93.9861 35.5 93.9861C34.1193 93.9861 33 95.1054 33 96.4861V102.833C33 104.213 34.1193 105.333 35.5 105.333C36.8807 105.333 38 104.213 38 102.833V96.4861ZM21.5 64.0665C22.8807 64.0665 24 65.1858 24 66.5665L24 73.8198C24 75.2005 22.8807 76.3198 21.5 76.3198C20.1193 76.3198 19 75.2005 19 73.8198V66.5665C19 65.1858 20.1193 64.0665 21.5 64.0665ZM24 84.6996C24 83.3189 22.8807 82.1996 21.5 82.1996C20.1193 82.1996 19 83.3189 19 84.6996V102.833C19 104.213 20.1193 105.333 21.5 105.333C22.8807 105.333 24 104.213 24 102.833L24 84.6996Z" fill="url(#paint2_linear_207_1673)"/>
<path fill-rule="evenodd" clip-rule="evenodd" d="M36.5562 77.8997H34.4438C34.7647 77.75 35.1226 77.6663 35.5 77.6663C35.8774 77.6663 36.2353 77.75 36.5562 77.8997ZM50.598 77.8997H46.402C46.1477 77.5083 46 77.0413 46 76.5397V68.3798C46 66.9991 47.1193 65.8798 48.5 65.8798C49.8807 65.8798 51 66.9991 51 68.3798V76.5397C51 77.0413 50.8523 77.5083 50.598 77.8997ZM64 77.8997H59V62.0333C59 60.6526 60.1193 59.5333 61.5 59.5333C62.8807 59.5333 64 60.6526 64 62.0333V77.8997ZM77 77.8997H72V72.9131C72 71.5324 73.1193 70.4131 74.5 70.4131C75.8807 70.4131 77 71.5324 77 72.9131V77.8997ZM38 57.5C38 56.1193 36.8807 55 35.5 55C34.1193 55 33 56.1193 33 57.5L33 71.0998C33 72.4805 34.1193 73.5998 35.5 73.5998C36.8807 73.5998 38 72.4805 38 71.0998V57.5ZM24 66.5665C24 65.1858 22.8807 64.0665 21.5 64.0665C20.1193 64.0665 19 65.1858 19 66.5665V73.8198C19 75.2005 20.1193 76.3198 21.5 76.3198C22.8807 76.3198 24 75.2005 24 73.8198L24 66.5665Z" fill="#A9DDFA"/>
<defs>
<filter id="filter0_f_207_1673" x="0" y="48" width="107" height="63" filterUnits="userSpaceOnUse" color-interpolation-filters="sRGB">
<feFlood flood-opacity="0" result="BackgroundImageFix"/>
<feBlend mode="normal" in="SourceGraphic" in2="BackgroundImageFix" result="shape"/>
<feGaussianBlur stdDeviation="11" result="effect1_foregroundBlur_207_1673"/>
</filter>
<filter id="filter1_bi_207_1673" x="-7" y="5" width="122" height="80" filterUnits="userSpaceOnUse" color-interpolation-filters="sRGB">
<feFlood flood-opacity="0" result="BackgroundImageFix"/>
<feGaussianBlur in="BackgroundImageFix" stdDeviation="3.5"/>
<feComposite in2="SourceAlpha" operator="in" result="effect1_backgroundBlur_207_1673"/>
<feBlend mode="normal" in="SourceGraphic" in2="effect1_backgroundBlur_207_1673" result="shape"/>
<feColorMatrix in="SourceAlpha" type="matrix" values="0 0 0 0 0 0 0 0 0 0 0 0 0 0 0 0 0 0 127 0" result="hardAlpha"/>
<feOffset dy="2"/>
<feGaussianBlur stdDeviation="4"/>
<feComposite in2="hardAlpha" operator="arithmetic" k2="-1" k3="1"/>
<feColorMatrix type="matrix" values="0 0 0 0 0 0 0 0 0 0.82 0 0 0 0 1 0 0 0 0.25 0"/>
<feBlend mode="normal" in2="shape" result="effect2_innerShadow_207_1673"/>
</filter>
<linearGradient id="paint0_linear_207_1673" x1="95" y1="0" x2="95" y2="53" gradientUnits="userSpaceOnUse">
<stop stop-color="#FDC500"/>
<stop offset="1" stop-color="#FD8900"/>
</linearGradient>
<linearGradient id="paint1_linear_207_1673" x1="56" y1="101.5" x2="96.5" y2="12" gradientUnits="userSpaceOnUse">
<stop stop-color="#0082DF"/>
<stop offset="0.299998" stop-color="#48B2FF" stop-opacity="0.75"/>
<stop offset="1" stop-color="#3BADFF" stop-opacity="0"/>
</linearGradient>
<linearGradient id="paint2_linear_207_1673" x1="48" y1="55" x2="48" y2="105.333" gradientUnits="userSpaceOnUse">
<stop offset="0.168182" stop-color="#D7F0FF"/>
<stop offset="1" stop-color="#0072DC"/>
</linearGradient>
</defs>
</svg>
