<svg width="125" height="119" viewBox="0 0 125 119" fill="none" xmlns="http://www.w3.org/2000/svg">
<g filter="url(#filter0_f_207_1881)">
<ellipse cx="57.5" cy="79.5" rx="31.5" ry="9.5" fill="#004E67" fill-opacity="0.7"/>
</g>
<path d="M110.323 41.1678C107.816 41.3129 105.305 40.9447 102.946 40.0858C100.586 39.2269 98.4271 37.8954 96.6008 36.1729C94.7744 34.4504 93.3195 32.3733 92.325 30.0689C91.3305 27.7645 90.8175 25.2815 90.8175 22.7719C90.8175 20.2624 91.3305 17.7793 92.325 15.4749C93.3195 13.1705 94.7744 11.0934 96.6008 9.37091C98.4271 7.64845 100.586 6.31694 102.946 5.45802C105.305 4.59911 107.816 4.23091 110.323 4.37598C111.906 4.36414 113.483 4.57154 115.01 4.99226C110.438 1.70358 104.936 -0.044696 99.3033 0.000868545C93.6703 0.0464331 88.1981 1.88346 83.6799 5.24567C79.1618 8.60788 75.8325 13.3206 74.1745 18.7007C72.5166 24.0808 72.6162 29.8487 74.4589 35.1684C76.3015 40.4882 79.7916 45.0833 84.4231 48.2877C89.0547 51.4922 94.587 53.1394 100.218 52.9908C105.85 52.8421 111.287 50.9052 115.743 47.4609C120.199 44.0165 123.441 39.2436 125 33.8341C123.296 36.1165 121.081 37.9686 118.532 39.242C115.984 40.5155 113.172 41.175 110.323 41.1678Z" fill="url(#paint0_linear_207_1881)"/>
<path d="M31.3501 73.8078L21.4085 81.082C20.3191 81.8694 19.4284 82.8968 18.8052 84.0849C18.1819 85.273 17.8428 86.5899 17.814 87.934C17.8559 89.8526 18.5569 91.8484 20.9477 93.1352C23.3384 94.4219 25.3904 93.9078 27.0148 92.886C28.1208 92.1217 29.0332 91.1133 29.6816 89.9388C30.3299 88.7642 30.6969 87.4549 30.7542 86.112L31.3501 73.8078Z" fill="url(#paint1_linear_207_1881)"/>
<path d="M92.841 74.9271L82.8994 82.2013C81.81 82.9888 80.9193 84.0162 80.2961 85.2043C79.6729 86.3923 79.3337 87.7093 79.3049 89.0533C79.3468 90.9719 80.0478 92.9678 82.4386 94.2546C84.8293 95.5413 86.8813 95.0272 88.5057 94.0054C89.6117 93.2411 90.5241 92.2327 91.1725 91.0582C91.8208 89.8836 92.1878 88.5743 92.2451 87.2314L92.841 74.9271Z" fill="url(#paint2_linear_207_1881)"/>
<path d="M34.7578 95.8996L24.8532 103.224C23.7678 104.017 22.8823 105.049 22.2651 106.24C21.6479 107.431 21.3154 108.75 21.2934 110.094C21.345 112.012 22.0561 114.005 24.4534 115.279C26.8506 116.554 28.9 116.03 30.5192 115C31.6213 114.23 32.5286 113.217 33.171 112.039C33.8134 110.861 34.1737 109.55 34.2242 108.207L34.7578 95.8996Z" fill="url(#paint3_linear_207_1881)"/>
<path fill-rule="evenodd" clip-rule="evenodd" d="M10.8063 98.875C10.8063 97.8395 9.9668 97 8.93127 97C7.89573 97 7.05627 97.8395 7.05627 98.875V101.405L5.2676 99.6159C4.53536 98.8837 3.34818 98.8837 2.61595 99.6159C1.88371 100.348 1.88371 101.535 2.61595 102.268L4.40478 104.056H1.875C0.839466 104.056 0 104.896 0 105.931C0 106.967 0.839466 107.806 1.875 107.806H4.4046L2.61579 109.595C1.88355 110.327 1.88355 111.515 2.61579 112.247C3.34802 112.979 4.5352 112.979 5.26744 112.247L7.05627 110.458V112.988C7.05627 114.023 7.89573 114.863 8.93127 114.863C9.9668 114.863 10.8063 114.023 10.8063 112.988V110.458L12.5952 112.247C13.3275 112.979 14.5147 112.979 15.2469 112.247C15.9791 111.515 15.9791 110.327 15.2469 109.595L13.4581 107.806H15.9879C17.0234 107.806 17.8629 106.967 17.8629 105.931C17.8629 104.896 17.0234 104.056 15.9879 104.056H13.4579L15.2467 102.268C15.979 101.535 15.979 100.348 15.2467 99.6159C14.5145 98.8837 13.3273 98.8837 12.5951 99.6159L10.8063 101.405V98.875Z" fill="url(#paint4_linear_207_1881)"/>
<path fill-rule="evenodd" clip-rule="evenodd" d="M75.8063 98.875C75.8063 97.8395 74.9668 97 73.9313 97C72.8957 97 72.0563 97.8395 72.0563 98.875V101.405L70.2676 99.6159C69.5354 98.8837 68.3482 98.8837 67.6159 99.6159C66.8837 100.348 66.8837 101.535 67.6159 102.268L69.4048 104.056H66.875C65.8395 104.056 65 104.896 65 105.931C65 106.967 65.8395 107.806 66.875 107.806H69.4046L67.6158 109.595C66.8836 110.327 66.8836 111.515 67.6158 112.247C68.348 112.979 69.5352 112.979 70.2674 112.247L72.0563 110.458V112.988C72.0563 114.023 72.8957 114.863 73.9313 114.863C74.9668 114.863 75.8063 114.023 75.8063 112.988V110.458L77.5952 112.247C78.3275 112.979 79.5147 112.979 80.2469 112.247C80.9791 111.515 80.9791 110.327 80.2469 109.595L78.4581 107.806H80.9879C82.0234 107.806 82.8629 106.967 82.8629 105.931C82.8629 104.896 82.0234 104.056 80.9879 104.056H78.4579L80.2467 102.268C80.979 101.535 80.979 100.348 80.2467 99.6159C79.5145 98.8837 78.3273 98.8837 77.5951 99.6159L75.8063 101.405V98.875Z" fill="url(#paint5_linear_207_1881)"/>
<path fill-rule="evenodd" clip-rule="evenodd" d="M96.8063 98.875C96.8063 97.8395 95.9668 97 94.9313 97C93.8957 97 93.0563 97.8395 93.0563 98.875V101.405L91.2676 99.6159C90.5354 98.8837 89.3482 98.8837 88.6159 99.6159C87.8837 100.348 87.8837 101.535 88.6159 102.268L90.4048 104.056H87.875C86.8395 104.056 86 104.896 86 105.931C86 106.967 86.8395 107.806 87.875 107.806H90.4046L88.6158 109.595C87.8836 110.327 87.8836 111.515 88.6158 112.247C89.348 112.979 90.5352 112.979 91.2674 112.247L93.0563 110.458V112.988C93.0563 114.023 93.8957 114.863 94.9313 114.863C95.9668 114.863 96.8063 114.023 96.8063 112.988V110.458L98.5952 112.247C99.3275 112.979 100.515 112.979 101.247 112.247C101.979 111.515 101.979 110.327 101.247 109.595L99.4581 107.806H101.988C103.023 107.806 103.863 106.967 103.863 105.931C103.863 104.896 103.023 104.056 101.988 104.056H99.4579L101.247 102.268C101.979 101.535 101.979 100.348 101.247 99.6159C100.515 98.8837 99.3273 98.8837 98.5951 99.6159L96.8063 101.405V98.875Z" fill="url(#paint6_linear_207_1881)"/>
<path d="M43.8069 93.2814L56.9076 69.2315C56.9853 69.0888 57.1348 69 57.2973 69H74.2814C74.6114 69 74.826 69.3474 74.6782 69.6426L67.8724 83.2324C67.7246 83.5276 67.9391 83.875 68.2692 83.875H75L37.8784 116.356C37.5053 116.683 36.959 116.245 37.1967 115.81L48.7873 94.5941C48.9489 94.2983 48.7349 93.9375 48.3979 93.9375H44.1966C43.8598 93.9375 43.6458 93.5771 43.8069 93.2814Z" fill="url(#paint7_linear_207_1881)"/>
<g filter="url(#filter1_bi_207_1881)">
<path fill-rule="evenodd" clip-rule="evenodd" d="M81 42C81 42.7882 80.9696 43.5693 80.9099 44.3422C84.1949 41.6296 88.4071 40 93 40C103.493 40 112 48.5066 112 59C112 69.158 104.029 77.4541 94 77.9741V78H93H23H21V77.896C11.4467 76.8966 4 68.8179 4 59C4 49.1618 11.4775 41.07 21.0593 40.0979C22.0405 24.4156 35.0704 12 51 12C67.5685 12 81 25.4315 81 42Z" fill="url(#paint8_linear_207_1881)"/>
</g>
<defs>
<filter id="filter0_f_207_1881" x="4" y="48" width="107" height="63" filterUnits="userSpaceOnUse" color-interpolation-filters="sRGB">
<feFlood flood-opacity="0" result="BackgroundImageFix"/>
<feBlend mode="normal" in="SourceGraphic" in2="BackgroundImageFix" result="shape"/>
<feGaussianBlur stdDeviation="11" result="effect1_foregroundBlur_207_1881"/>
</filter>
<filter id="filter1_bi_207_1881" x="-3" y="5" width="122" height="80" filterUnits="userSpaceOnUse" color-interpolation-filters="sRGB">
<feFlood flood-opacity="0" result="BackgroundImageFix"/>
<feGaussianBlur in="BackgroundImageFix" stdDeviation="3.5"/>
<feComposite in2="SourceAlpha" operator="in" result="effect1_backgroundBlur_207_1881"/>
<feBlend mode="normal" in="SourceGraphic" in2="effect1_backgroundBlur_207_1881" result="shape"/>
<feColorMatrix in="SourceAlpha" type="matrix" values="0 0 0 0 0 0 0 0 0 0 0 0 0 0 0 0 0 0 127 0" result="hardAlpha"/>
<feOffset dy="2"/>
<feGaussianBlur stdDeviation="4"/>
<feComposite in2="hardAlpha" operator="arithmetic" k2="-1" k3="1"/>
<feColorMatrix type="matrix" values="0 0 0 0 0 0 0 0 0 0.82 0 0 0 0 1 0 0 0 0.25 0"/>
<feBlend mode="normal" in2="shape" result="effect2_innerShadow_207_1881"/>
</filter>
<linearGradient id="paint0_linear_207_1881" x1="99" y1="0" x2="99" y2="53" gradientUnits="userSpaceOnUse">
<stop stop-color="#FDC500"/>
<stop offset="1" stop-color="#FD8900"/>
</linearGradient>
<linearGradient id="paint1_linear_207_1881" x1="59.5431" y1="69.2255" x2="41.3007" y2="98.0795" gradientUnits="userSpaceOnUse">
<stop stop-color="#D7F0FF"/>
<stop offset="1" stop-color="#0072DC"/>
</linearGradient>
<linearGradient id="paint2_linear_207_1881" x1="114.305" y1="71.1934" x2="96.0622" y2="100.047" gradientUnits="userSpaceOnUse">
<stop stop-color="#D7F0FF"/>
<stop offset="1" stop-color="#0072DC"/>
</linearGradient>
<linearGradient id="paint3_linear_207_1881" x1="39.6623" y1="85.9617" x2="37.2829" y2="116.113" gradientUnits="userSpaceOnUse">
<stop stop-color="#D7F0FF"/>
<stop offset="1" stop-color="#0072DC"/>
</linearGradient>
<linearGradient id="paint4_linear_207_1881" x1="2.54998" y1="111.248" x2="19.5153" y2="96.9284" gradientUnits="userSpaceOnUse">
<stop stop-color="#0056D6"/>
<stop offset="1" stop-color="#ADD8FF"/>
</linearGradient>
<linearGradient id="paint5_linear_207_1881" x1="67.55" y1="111.248" x2="84.5153" y2="96.9284" gradientUnits="userSpaceOnUse">
<stop stop-color="#0056D6"/>
<stop offset="1" stop-color="#ADD8FF"/>
</linearGradient>
<linearGradient id="paint6_linear_207_1881" x1="88.55" y1="111.248" x2="105.515" y2="96.9284" gradientUnits="userSpaceOnUse">
<stop stop-color="#0056D6"/>
<stop offset="1" stop-color="#ADD8FF"/>
</linearGradient>
<linearGradient id="paint7_linear_207_1881" x1="55.5" y1="69" x2="55.5" y2="118" gradientUnits="userSpaceOnUse">
<stop stop-color="#F8FD00"/>
<stop offset="1" stop-color="#FD9800"/>
</linearGradient>
<linearGradient id="paint8_linear_207_1881" x1="60" y1="101.5" x2="100.5" y2="12" gradientUnits="userSpaceOnUse">
<stop stop-color="#0082DF"/>
<stop offset="0.299998" stop-color="#48B2FF" stop-opacity="0.75"/>
<stop offset="1" stop-color="#3BADFF" stop-opacity="0"/>
</linearGradient>
</defs>
</svg>
