<svg width="121" height="121" viewBox="0 0 121 121" fill="none" xmlns="http://www.w3.org/2000/svg">
<g filter="url(#filter0_f_207_1872)">
<ellipse cx="53.5" cy="79.5" rx="31.5" ry="9.5" fill="#004E67" fill-opacity="0.7"/>
</g>
<path d="M106.323 41.1678C103.816 41.3129 101.305 40.9447 98.9458 40.0858C96.5862 39.2269 94.4271 37.8954 92.6008 36.1729C90.7744 34.4504 89.3195 32.3733 88.325 30.0689C87.3305 27.7645 86.8175 25.2815 86.8175 22.7719C86.8175 20.2624 87.3305 17.7793 88.325 15.4749C89.3195 13.1705 90.7744 11.0934 92.6008 9.37091C94.4271 7.64845 96.5862 6.31694 98.9458 5.45802C101.305 4.59911 103.816 4.23091 106.323 4.37598C107.906 4.36414 109.483 4.57154 111.01 4.99226C106.438 1.70358 100.936 -0.044696 95.3033 0.000868545C89.6703 0.0464331 84.1981 1.88346 79.6799 5.24567C75.1618 8.60788 71.8325 13.3206 70.1745 18.7007C68.5166 24.0808 68.6162 29.8487 70.4589 35.1684C72.3015 40.4882 75.7916 45.0833 80.4231 48.2877C85.0547 51.4922 90.587 53.1394 96.2183 52.9908C101.85 52.8421 107.287 50.9052 111.743 47.4609C116.199 44.0165 119.441 39.2436 121 33.8341C119.296 36.1165 117.081 37.9686 114.532 39.242C111.984 40.5155 109.172 41.175 106.323 41.1678Z" fill="url(#paint0_linear_207_1872)"/>
<path d="M32.3501 74.8078L22.4085 82.082C21.3191 82.8694 20.4284 83.8968 19.8052 85.0849C19.1819 86.273 18.8428 87.5899 18.814 88.934C18.8559 90.8526 19.5569 92.8484 21.9477 94.1352C24.3384 95.4219 26.3904 94.9078 28.0148 93.886C29.1208 93.1217 30.0332 92.1133 30.6816 90.9388C31.3299 89.7642 31.6969 88.4549 31.7542 87.112L32.3501 74.8078Z" fill="url(#paint1_linear_207_1872)"/>
<path d="M85.3501 74.8078L75.4085 82.082C74.3191 82.8694 73.4284 83.8968 72.8052 85.0849C72.1819 86.273 71.8428 87.5899 71.814 88.934C71.8559 90.8526 72.5569 92.8484 74.9477 94.1352C77.3384 95.4219 79.3904 94.9078 81.0148 93.886C82.1208 93.1217 83.0332 92.1133 83.6816 90.9388C84.3299 89.7642 84.6969 88.4549 84.7542 87.112L85.3501 74.8078Z" fill="url(#paint2_linear_207_1872)"/>
<path d="M50.4872 98.0511L40.5826 105.376C39.4972 106.168 38.6117 107.2 37.9945 108.392C37.3773 109.583 37.0449 110.901 37.0229 112.246C37.0744 114.164 37.7856 116.156 40.1828 117.431C42.58 118.706 44.6294 118.181 46.2486 117.151C47.3507 116.381 48.258 115.368 48.9004 114.19C49.5428 113.013 49.9032 111.701 49.9536 110.358L50.4872 98.0511Z" fill="url(#paint3_linear_207_1872)"/>
<path fill-rule="evenodd" clip-rule="evenodd" d="M21.5357 101.026C21.5357 99.991 20.6962 99.1515 19.6607 99.1515C18.6252 99.1515 17.7857 99.991 17.7857 101.026V103.556L15.997 101.767C15.2648 101.035 14.0776 101.035 13.3454 101.767C12.6131 102.5 12.6131 103.687 13.3454 104.419L15.1342 106.208H12.6044C11.5689 106.208 10.7294 107.047 10.7294 108.083C10.7294 109.118 11.5689 109.958 12.6044 109.958H15.134L13.3452 111.747C12.613 112.479 12.613 113.666 13.3452 114.398C14.0775 115.131 15.2646 115.131 15.9969 114.398L17.7857 112.61V115.139C17.7857 116.175 18.6252 117.014 19.6607 117.014C20.6962 117.014 21.5357 116.175 21.5357 115.139V112.609L23.3247 114.398C24.0569 115.131 25.2441 115.131 25.9763 114.398C26.7086 113.666 26.7086 112.479 25.9763 111.747L24.1875 109.958H26.7173C27.7528 109.958 28.5923 109.118 28.5923 108.083C28.5923 107.047 27.7528 106.208 26.7173 106.208H24.1873L25.9762 104.419C26.7084 103.687 26.7084 102.5 25.9762 101.767C25.2439 101.035 24.0568 101.035 23.3245 101.767L21.5357 103.556V101.026Z" fill="url(#paint4_linear_207_1872)"/>
<path fill-rule="evenodd" clip-rule="evenodd" d="M72.5357 101.026C72.5357 99.991 71.6962 99.1515 70.6607 99.1515C69.6252 99.1515 68.7857 99.991 68.7857 101.026V103.556L66.997 101.767C66.2648 101.035 65.0776 101.035 64.3454 101.767C63.6131 102.5 63.6131 103.687 64.3454 104.419L66.1342 106.208H63.6044C62.5689 106.208 61.7294 107.047 61.7294 108.083C61.7294 109.118 62.5689 109.958 63.6044 109.958H66.134L64.3452 111.747C63.613 112.479 63.613 113.666 64.3452 114.398C65.0775 115.131 66.2646 115.131 66.9969 114.398L68.7857 112.61V115.139C68.7857 116.175 69.6252 117.014 70.6607 117.014C71.6962 117.014 72.5357 116.175 72.5357 115.139V112.609L74.3247 114.398C75.0569 115.131 76.2441 115.131 76.9763 114.398C77.7086 113.666 77.7086 112.479 76.9763 111.747L75.1875 109.958H77.7173C78.7528 109.958 79.5923 109.118 79.5923 108.083C79.5923 107.047 78.7528 106.208 77.7173 106.208H75.1873L76.9762 104.419C77.7084 103.687 77.7084 102.5 76.9762 101.767C76.2439 101.035 75.0568 101.035 74.3245 101.767L72.5357 103.556V101.026Z" fill="url(#paint5_linear_207_1872)"/>
<path fill-rule="evenodd" clip-rule="evenodd" d="M52.5357 79.0265C52.5357 77.991 51.6962 77.1515 50.6607 77.1515C49.6252 77.1515 48.7857 77.991 48.7857 79.0265V81.5561L46.997 79.7674C46.2648 79.0352 45.0776 79.0352 44.3454 79.7674C43.6131 80.4996 43.6131 81.6868 44.3454 82.4191L46.1342 84.2079H43.6044C42.5689 84.2079 41.7294 85.0474 41.7294 86.0829C41.7294 87.1184 42.5689 87.9579 43.6044 87.9579H46.134L44.3452 89.7467C43.613 90.4789 43.613 91.6661 44.3452 92.3984C45.0775 93.1306 46.2646 93.1306 46.9969 92.3984L48.7857 90.6095V93.1394C48.7857 94.1749 49.6252 95.0144 50.6607 95.0144C51.6962 95.0144 52.5357 94.1749 52.5357 93.1394V90.6094L54.3247 92.3984C55.0569 93.1306 56.2441 93.1306 56.9763 92.3984C57.7086 91.6661 57.7086 90.4789 56.9763 89.7467L55.1875 87.9579H57.7173C58.7528 87.9579 59.5923 87.1184 59.5923 86.0829C59.5923 85.0474 58.7528 84.2079 57.7173 84.2079H55.1873L56.9762 82.4191C57.7084 81.6868 57.7084 80.4996 56.9762 79.7674C56.2439 79.0352 55.0568 79.0352 54.3245 79.7674L52.5357 81.5562V79.0265Z" fill="url(#paint6_linear_207_1872)"/>
<g filter="url(#filter1_bi_207_1872)">
<path fill-rule="evenodd" clip-rule="evenodd" d="M77 42C77 42.7882 76.9696 43.5693 76.9099 44.3422C80.1949 41.6296 84.4071 40 89 40C99.4934 40 108 48.5066 108 59C108 69.158 100.029 77.4541 90 77.9741V78H89H19H17V77.896C7.44667 76.8966 0 68.8179 0 59C0 49.1618 7.47752 41.07 17.0593 40.0979C18.0405 24.4156 31.0704 12 47 12C63.5685 12 77 25.4315 77 42Z" fill="url(#paint7_linear_207_1872)"/>
</g>
<defs>
<filter id="filter0_f_207_1872" x="0" y="48" width="107" height="63" filterUnits="userSpaceOnUse" color-interpolation-filters="sRGB">
<feFlood flood-opacity="0" result="BackgroundImageFix"/>
<feBlend mode="normal" in="SourceGraphic" in2="BackgroundImageFix" result="shape"/>
<feGaussianBlur stdDeviation="11" result="effect1_foregroundBlur_207_1872"/>
</filter>
<filter id="filter1_bi_207_1872" x="-7" y="5" width="122" height="80" filterUnits="userSpaceOnUse" color-interpolation-filters="sRGB">
<feFlood flood-opacity="0" result="BackgroundImageFix"/>
<feGaussianBlur in="BackgroundImageFix" stdDeviation="3.5"/>
<feComposite in2="SourceAlpha" operator="in" result="effect1_backgroundBlur_207_1872"/>
<feBlend mode="normal" in="SourceGraphic" in2="effect1_backgroundBlur_207_1872" result="shape"/>
<feColorMatrix in="SourceAlpha" type="matrix" values="0 0 0 0 0 0 0 0 0 0 0 0 0 0 0 0 0 0 127 0" result="hardAlpha"/>
<feOffset dy="2"/>
<feGaussianBlur stdDeviation="4"/>
<feComposite in2="hardAlpha" operator="arithmetic" k2="-1" k3="1"/>
<feColorMatrix type="matrix" values="0 0 0 0 0 0 0 0 0 0.82 0 0 0 0 1 0 0 0 0.25 0"/>
<feBlend mode="normal" in2="shape" result="effect2_innerShadow_207_1872"/>
</filter>
<linearGradient id="paint0_linear_207_1872" x1="95" y1="0" x2="95" y2="53" gradientUnits="userSpaceOnUse">
<stop stop-color="#FDC500"/>
<stop offset="1" stop-color="#FD8900"/>
</linearGradient>
<linearGradient id="paint1_linear_207_1872" x1="56.034" y1="70.3449" x2="37.7917" y2="99.1989" gradientUnits="userSpaceOnUse">
<stop stop-color="#D7F0FF"/>
<stop offset="1" stop-color="#0072DC"/>
</linearGradient>
<linearGradient id="paint2_linear_207_1872" x1="109.034" y1="70.3449" x2="90.7917" y2="99.1989" gradientUnits="userSpaceOnUse">
<stop stop-color="#D7F0FF"/>
<stop offset="1" stop-color="#0072DC"/>
</linearGradient>
<linearGradient id="paint3_linear_207_1872" x1="55.3917" y1="88.1131" x2="53.0124" y2="118.265" gradientUnits="userSpaceOnUse">
<stop stop-color="#D7F0FF"/>
<stop offset="1" stop-color="#0072DC"/>
</linearGradient>
<linearGradient id="paint4_linear_207_1872" x1="13.2794" y1="113.399" x2="30.2447" y2="99.0799" gradientUnits="userSpaceOnUse">
<stop stop-color="#0056D6"/>
<stop offset="1" stop-color="#ADD8FF"/>
</linearGradient>
<linearGradient id="paint5_linear_207_1872" x1="64.2794" y1="113.399" x2="81.2447" y2="99.0799" gradientUnits="userSpaceOnUse">
<stop stop-color="#0056D6"/>
<stop offset="1" stop-color="#ADD8FF"/>
</linearGradient>
<linearGradient id="paint6_linear_207_1872" x1="44.2794" y1="91.3993" x2="61.2447" y2="77.0799" gradientUnits="userSpaceOnUse">
<stop stop-color="#0056D6"/>
<stop offset="1" stop-color="#ADD8FF"/>
</linearGradient>
<linearGradient id="paint7_linear_207_1872" x1="56" y1="101.5" x2="96.5" y2="12" gradientUnits="userSpaceOnUse">
<stop stop-color="#0082DF"/>
<stop offset="0.299998" stop-color="#48B2FF" stop-opacity="0.75"/>
<stop offset="1" stop-color="#3BADFF" stop-opacity="0"/>
</linearGradient>
</defs>
</svg>
