<svg width="121" height="111" viewBox="0 0 121 111" fill="none" xmlns="http://www.w3.org/2000/svg">
<g filter="url(#filter0_f_207_1768)">
<ellipse cx="53.5" cy="79.5" rx="31.5" ry="9.5" fill="#004E67" fill-opacity="0.7"/>
</g>
<path d="M106.323 41.1678C103.816 41.3129 101.305 40.9447 98.9458 40.0858C96.5862 39.2269 94.4271 37.8954 92.6008 36.1729C90.7744 34.4504 89.3195 32.3733 88.325 30.0689C87.3305 27.7645 86.8175 25.2815 86.8175 22.7719C86.8175 20.2624 87.3305 17.7793 88.325 15.4749C89.3195 13.1705 90.7744 11.0934 92.6008 9.37091C94.4271 7.64845 96.5862 6.31694 98.9458 5.45802C101.305 4.59911 103.816 4.23091 106.323 4.37598C107.906 4.36414 109.483 4.57154 111.01 4.99226C106.438 1.70358 100.936 -0.044696 95.3033 0.000868545C89.6703 0.0464331 84.1981 1.88346 79.6799 5.24567C75.1618 8.60788 71.8325 13.3206 70.1745 18.7007C68.5166 24.0808 68.6162 29.8487 70.4589 35.1684C72.3015 40.4882 75.7916 45.0833 80.4231 48.2877C85.0547 51.4922 90.587 53.1394 96.2183 52.9908C101.85 52.8421 107.287 50.9052 111.743 47.4609C116.199 44.0165 119.441 39.2436 121 33.8341C119.296 36.1165 117.081 37.9686 114.532 39.242C111.984 40.5155 109.172 41.175 106.323 41.1678Z" fill="url(#paint0_linear_207_1768)"/>
<path d="M78.0424 80.1564L67.8208 91.5859C66.6983 92.8266 65.8798 94.3081 65.4284 95.9159C64.9771 97.5237 64.9051 99.2148 65.2179 100.859C65.7654 103.184 67.1354 105.432 70.3793 106.38C73.6232 107.328 75.9884 106.171 77.7018 104.507C78.8506 103.29 79.7004 101.826 80.1859 100.228C80.6713 98.6304 80.7792 96.9413 80.5014 95.2914L78.0424 80.1564Z" fill="url(#paint1_linear_207_1768)"/>
<path fill-rule="evenodd" clip-rule="evenodd" d="M35.3741 84.3753C35.3741 83.0634 34.3106 82 32.9988 82C31.687 82 30.6235 83.0634 30.6235 84.3753V87.2644L28.5806 85.2215C27.653 84.2939 26.1491 84.2939 25.2215 85.2215C24.2939 86.1491 24.2939 87.653 25.2215 88.5806L27.2646 90.6237H24.3753C23.0634 90.6237 22 91.6872 22 92.999C22 94.3108 23.0634 95.3742 24.3753 95.3742H27.2644L25.2213 97.4173C24.2937 98.3449 24.2937 99.8488 25.2213 100.776C26.1489 101.704 27.6529 101.704 28.5804 100.776L30.6235 98.7333V101.623C30.6235 102.935 31.687 103.998 32.9988 103.998C34.3106 103.998 35.3741 102.935 35.3741 101.623V98.7331L37.4173 100.776C38.3449 101.704 39.8489 101.704 40.7765 100.776C41.7041 99.8488 41.7041 98.3449 40.7765 97.4173L38.7334 95.3742H41.6227C42.9346 95.3742 43.998 94.3108 43.998 92.999C43.998 91.6872 42.9346 90.6237 41.6227 90.6237H38.7332L40.7763 88.5806C41.7039 87.653 41.7039 86.1491 40.7763 85.2215C39.8487 84.2939 38.3447 84.2939 37.4171 85.2215L35.3741 87.2646V84.3753Z" fill="url(#paint2_linear_207_1768)"/>
<g filter="url(#filter1_bi_207_1768)">
<path fill-rule="evenodd" clip-rule="evenodd" d="M77 42C77 42.7882 76.9696 43.5693 76.9099 44.3422C80.1949 41.6296 84.4071 40 89 40C99.4934 40 108 48.5066 108 59C108 69.158 100.029 77.4541 90 77.9741V78H89H19H17V77.896C7.44667 76.8966 0 68.8179 0 59C0 49.1618 7.47752 41.07 17.0593 40.0979C18.0405 24.4156 31.0704 12 47 12C63.5685 12 77 25.4315 77 42Z" fill="url(#paint3_linear_207_1768)"/>
</g>
<defs>
<filter id="filter0_f_207_1768" x="0" y="48" width="107" height="63" filterUnits="userSpaceOnUse" color-interpolation-filters="sRGB">
<feFlood flood-opacity="0" result="BackgroundImageFix"/>
<feBlend mode="normal" in="SourceGraphic" in2="BackgroundImageFix" result="shape"/>
<feGaussianBlur stdDeviation="11" result="effect1_foregroundBlur_207_1768"/>
</filter>
<filter id="filter1_bi_207_1768" x="-7" y="5" width="122" height="80" filterUnits="userSpaceOnUse" color-interpolation-filters="sRGB">
<feFlood flood-opacity="0" result="BackgroundImageFix"/>
<feGaussianBlur in="BackgroundImageFix" stdDeviation="3.5"/>
<feComposite in2="SourceAlpha" operator="in" result="effect1_backgroundBlur_207_1768"/>
<feBlend mode="normal" in="SourceGraphic" in2="effect1_backgroundBlur_207_1768" result="shape"/>
<feColorMatrix in="SourceAlpha" type="matrix" values="0 0 0 0 0 0 0 0 0 0 0 0 0 0 0 0 0 0 127 0" result="hardAlpha"/>
<feOffset dy="2"/>
<feGaussianBlur stdDeviation="4"/>
<feComposite in2="hardAlpha" operator="arithmetic" k2="-1" k3="1"/>
<feColorMatrix type="matrix" values="0 0 0 0 0 0 0 0 0 0.82 0 0 0 0 1 0 0 0 0.25 0"/>
<feBlend mode="normal" in2="shape" result="effect2_innerShadow_207_1768"/>
</filter>
<linearGradient id="paint0_linear_207_1768" x1="95" y1="0" x2="95" y2="53" gradientUnits="userSpaceOnUse">
<stop stop-color="#FDC500"/>
<stop offset="1" stop-color="#FD8900"/>
</linearGradient>
<linearGradient id="paint1_linear_207_1768" x1="82.1734" y1="70.5881" x2="68.8036" y2="105.782" gradientUnits="userSpaceOnUse">
<stop stop-color="#D7F0FF"/>
<stop offset="1" stop-color="#0072DC"/>
</linearGradient>
<linearGradient id="paint2_linear_207_1768" x1="25.1403" y1="99.546" x2="46.0329" y2="81.9119" gradientUnits="userSpaceOnUse">
<stop stop-color="#0056D6"/>
<stop offset="1" stop-color="#ADD8FF"/>
</linearGradient>
<linearGradient id="paint3_linear_207_1768" x1="56" y1="101.5" x2="96.5" y2="12" gradientUnits="userSpaceOnUse">
<stop stop-color="#0082DF"/>
<stop offset="0.299998" stop-color="#48B2FF" stop-opacity="0.75"/>
<stop offset="1" stop-color="#3BADFF" stop-opacity="0"/>
</linearGradient>
</defs>
</svg>
