<svg width="121" height="111" viewBox="0 0 121 111" fill="none" xmlns="http://www.w3.org/2000/svg">
<path d="M106.323 41.1678C103.816 41.3129 101.305 40.9447 98.9458 40.0858C96.5862 39.2269 94.4271 37.8954 92.6008 36.1729C90.7744 34.4504 89.3195 32.3733 88.325 30.0689C87.3305 27.7645 86.8175 25.2815 86.8175 22.7719C86.8175 20.2624 87.3305 17.7793 88.325 15.4749C89.3195 13.1705 90.7744 11.0934 92.6008 9.37091C94.4271 7.64845 96.5862 6.31694 98.9458 5.45802C101.305 4.59911 103.816 4.23091 106.323 4.37598C107.906 4.36414 109.483 4.57154 111.01 4.99226C106.438 1.70358 100.936 -0.044696 95.3033 0.000868545C89.6703 0.0464331 84.1981 1.88346 79.6799 5.24567C75.1618 8.60788 71.8325 13.3206 70.1745 18.7007C68.5166 24.0808 68.6162 29.8487 70.4589 35.1684C72.3015 40.4882 75.7916 45.0833 80.4231 48.2877C85.0547 51.4922 90.587 53.1394 96.2183 52.9908C101.85 52.8421 107.287 50.9052 111.743 47.4609C116.199 44.0165 119.441 39.2436 121 33.8341C119.296 36.1165 117.081 37.9686 114.532 39.242C111.984 40.5155 109.172 41.175 106.323 41.1678Z" fill="url(#paint0_linear_207_1574)"/>
<g filter="url(#filter0_f_207_1574)">
<ellipse cx="53.5" cy="79.5" rx="31.5" ry="9.5" fill="#004E67" fill-opacity="0.7"/>
</g>
<g filter="url(#filter1_bi_207_1574)">
<path fill-rule="evenodd" clip-rule="evenodd" d="M77 42C77 42.7882 76.9696 43.5693 76.9099 44.3422C80.1949 41.6296 84.4071 40 89 40C99.4934 40 108 48.5066 108 59C108 69.158 100.029 77.4541 90 77.9741V78H89H19H17V77.896C7.44667 76.8966 0 68.8179 0 59C0 49.1618 7.47752 41.07 17.0593 40.0979C18.0405 24.4156 31.0704 12 47 12C63.5685 12 77 25.4315 77 42Z" fill="url(#paint1_linear_207_1574)"/>
</g>
<path d="M57.2864 46.9535L49.2388 56.2577C48.333 57.2393 47.6885 58.4225 47.3587 59.7095C47.0288 60.9965 47.023 62.3502 47.3418 63.6587C47.6047 64.6968 48.1527 65.6546 48.9269 66.4296C49.7011 67.2046 50.6724 67.7675 51.7369 68.0582C52.8013 68.3488 53.9187 68.3562 54.9695 68.0795C56.0203 67.8028 56.9647 67.2524 57.7018 66.4874C58.6163 65.516 59.2767 64.3441 59.6299 63.0655C59.9832 61.7869 60.0196 60.4371 59.7363 59.1239L57.2864 46.9535Z" fill="url(#paint2_linear_207_1574)"/>
<path d="M31.3339 42.5958L25.198 48.3143C24.5121 48.9134 23.9892 49.6689 23.6725 50.5184C23.3558 51.368 23.2544 52.2871 23.3768 53.1997C23.4807 53.9244 23.7839 54.616 24.2541 55.2002C24.7242 55.7845 25.3434 56.2395 26.0455 56.5164C26.7476 56.7934 27.5061 56.8819 28.2398 56.7724C28.9734 56.663 29.6546 56.3598 30.2103 55.8952C30.9014 55.3037 31.4342 54.5571 31.7662 53.715C32.0982 52.8729 32.2201 51.9587 32.1221 51.0456L31.3339 42.5958Z" fill="url(#paint3_linear_207_1574)"/>
<path d="M36.4114 66.5817L26.9186 77.8033C25.8687 79.0181 25.1192 80.4621 24.7289 82.0222C24.3386 83.5823 24.318 85.2161 24.6688 86.7958C24.9583 88.042 25.5841 89.1905 26.4786 90.1168C27.373 91.0431 28.5019 91.7119 29.7429 92.0507C30.9838 92.3896 32.2896 92.3855 33.5188 92.039C34.7479 91.6925 35.8534 91.0168 36.7156 90.0851C37.7945 88.8957 38.5784 87.4703 39.0058 85.9203C39.4333 84.3704 39.4928 82.738 39.1796 81.151L36.4114 66.5817Z" fill="url(#paint4_linear_207_1574)"/>
<path fill-rule="evenodd" clip-rule="evenodd" d="M38.5593 77.8867H26.8472C26.8708 77.8588 26.8946 77.831 26.9185 77.8034L36.4112 66.5818L38.5593 77.8867ZM25.1979 48.3144L31.3338 42.5959L32.1221 51.0457C32.22 51.9588 32.0981 52.873 31.7661 53.7151C31.4341 54.5571 30.9013 55.3038 30.2102 55.8953C29.6545 56.3599 28.9733 56.6631 28.2397 56.7725C27.5061 56.882 26.7476 56.7935 26.0455 56.5165C25.3434 56.2396 24.7241 55.7846 24.254 55.2003C23.7839 54.6161 23.4806 53.9245 23.3767 53.1998C23.2544 52.2872 23.3557 51.3681 23.6724 50.5185C23.9891 49.669 24.512 48.9134 25.1979 48.3144ZM49.2388 56.2578L57.2864 46.9537L59.7364 59.124C60.0197 60.4372 59.9832 61.7871 59.6299 63.0657C59.2767 64.3443 58.6164 65.5161 57.7018 66.4876C56.9648 67.2526 56.0203 67.8029 54.9695 68.0796C53.9188 68.3563 52.8013 68.349 51.7369 68.0583C50.6724 67.7677 49.7011 67.2047 48.9269 66.4298C48.1527 65.6548 47.6047 64.6969 47.3418 63.6589C47.023 62.3504 47.0288 60.9966 47.3587 59.7097C47.6886 58.4227 48.333 57.2394 49.2388 56.2578Z" fill="#A9DDFA"/>
<defs>
<filter id="filter0_f_207_1574" x="0" y="48" width="107" height="63" filterUnits="userSpaceOnUse" color-interpolation-filters="sRGB">
<feFlood flood-opacity="0" result="BackgroundImageFix"/>
<feBlend mode="normal" in="SourceGraphic" in2="BackgroundImageFix" result="shape"/>
<feGaussianBlur stdDeviation="11" result="effect1_foregroundBlur_207_1574"/>
</filter>
<filter id="filter1_bi_207_1574" x="-7" y="5" width="122" height="80" filterUnits="userSpaceOnUse" color-interpolation-filters="sRGB">
<feFlood flood-opacity="0" result="BackgroundImageFix"/>
<feGaussianBlur in="BackgroundImageFix" stdDeviation="3.5"/>
<feComposite in2="SourceAlpha" operator="in" result="effect1_backgroundBlur_207_1574"/>
<feBlend mode="normal" in="SourceGraphic" in2="effect1_backgroundBlur_207_1574" result="shape"/>
<feColorMatrix in="SourceAlpha" type="matrix" values="0 0 0 0 0 0 0 0 0 0 0 0 0 0 0 0 0 0 127 0" result="hardAlpha"/>
<feOffset dy="2"/>
<feGaussianBlur stdDeviation="4"/>
<feComposite in2="hardAlpha" operator="arithmetic" k2="-1" k3="1"/>
<feColorMatrix type="matrix" values="0 0 0 0 0 0 0 0 0 0.82 0 0 0 0 1 0 0 0 0.25 0"/>
<feBlend mode="normal" in2="shape" result="effect2_innerShadow_207_1574"/>
</filter>
<linearGradient id="paint0_linear_207_1574" x1="95" y1="0" x2="95" y2="53" gradientUnits="userSpaceOnUse">
<stop stop-color="#FDC500"/>
<stop offset="1" stop-color="#FD8900"/>
</linearGradient>
<linearGradient id="paint1_linear_207_1574" x1="56" y1="101.5" x2="96.5" y2="12" gradientUnits="userSpaceOnUse">
<stop stop-color="#0082DF"/>
<stop offset="0.299998" stop-color="#48B2FF" stop-opacity="0.75"/>
<stop offset="1" stop-color="#3BADFF" stop-opacity="0"/>
</linearGradient>
<linearGradient id="paint2_linear_207_1574" x1="57.2898" y1="46.9544" x2="50.4521" y2="71.9974" gradientUnits="userSpaceOnUse">
<stop stop-color="#E4F5FF"/>
<stop offset="0.146777" stop-color="#D7F0FF"/>
<stop offset="1" stop-color="#0072DC"/>
</linearGradient>
<linearGradient id="paint3_linear_207_1574" x1="31.3361" y1="42.5967" x2="24.836" y2="59.0751" gradientUnits="userSpaceOnUse">
<stop stop-color="#E4F5FF"/>
<stop offset="0.146777" stop-color="#D7F0FF"/>
<stop offset="1" stop-color="#0072DC"/>
</linearGradient>
<linearGradient id="paint4_linear_207_1574" x1="36.4381" y1="66.589" x2="28.5475" y2="95.4884" gradientUnits="userSpaceOnUse">
<stop stop-color="#E4F5FF"/>
<stop offset="0.0777368" stop-color="#D7F0FF"/>
<stop offset="1" stop-color="#0072DC"/>
</linearGradient>
</defs>
</svg>
