<svg width="121" height="111" viewBox="0 0 121 111" fill="none" xmlns="http://www.w3.org/2000/svg">
<g filter="url(#filter0_f_207_1890)">
<ellipse cx="53.5" cy="79.5" rx="31.5" ry="9.5" fill="#004E67" fill-opacity="0.7"/>
</g>
<path d="M106.323 41.1678C103.816 41.3129 101.305 40.9447 98.9458 40.0858C96.5862 39.2269 94.4271 37.8954 92.6008 36.1729C90.7744 34.4504 89.3195 32.3733 88.325 30.0689C87.3305 27.7645 86.8175 25.2815 86.8175 22.7719C86.8175 20.2624 87.3305 17.7793 88.325 15.4749C89.3195 13.1705 90.7744 11.0934 92.6008 9.37091C94.4271 7.64845 96.5862 6.31694 98.9458 5.45802C101.305 4.59911 103.816 4.23091 106.323 4.37598C107.906 4.36414 109.483 4.57154 111.01 4.99226C106.438 1.70358 100.936 -0.044696 95.3033 0.000868545C89.6703 0.0464331 84.1981 1.88346 79.6799 5.24567C75.1618 8.60788 71.8325 13.3206 70.1745 18.7007C68.5166 24.0808 68.6162 29.8487 70.4589 35.1684C72.3015 40.4882 75.7916 45.0833 80.4231 48.2877C85.0547 51.4922 90.587 53.1394 96.2183 52.9908C101.85 52.8421 107.287 50.9052 111.743 47.4609C116.199 44.0165 119.441 39.2436 121 33.8341C119.296 36.1165 117.081 37.9686 114.532 39.242C111.984 40.5155 109.172 41.175 106.323 41.1678Z" fill="url(#paint0_linear_207_1890)"/>
<g filter="url(#filter1_bi_207_1890)">
<path fill-rule="evenodd" clip-rule="evenodd" d="M77 42C77 42.7882 76.9696 43.5693 76.9099 44.3422C80.1949 41.6296 84.4071 40 89 40C99.4934 40 108 48.5066 108 59C108 69.158 100.029 77.4541 90 77.9741V78H89H19H17V77.896C7.44667 76.8966 0 68.8179 0 59C0 49.1618 7.47752 41.07 17.0593 40.0979C18.0405 24.4156 31.0704 12 47 12C63.5685 12 77 25.4315 77 42Z" fill="url(#paint1_linear_207_1890)"/>
</g>
<path fill-rule="evenodd" clip-rule="evenodd" d="M35.3741 87.3753C35.3741 86.0634 34.3106 85 32.9988 85C31.687 85 30.6235 86.0634 30.6235 87.3753V90.2644L28.5806 88.2215C27.653 87.2939 26.1491 87.2939 25.2215 88.2215C24.2939 89.1491 24.2939 90.653 25.2215 91.5806L27.2646 93.6237H24.3753C23.0634 93.6237 22 94.6872 22 95.999C22 97.3108 23.0634 98.3742 24.3753 98.3742H27.2644L25.2213 100.417C24.2937 101.345 24.2937 102.849 25.2213 103.776C26.1489 104.704 27.6529 104.704 28.5804 103.776L30.6235 101.733V104.623C30.6235 105.935 31.687 106.998 32.9988 106.998C34.3106 106.998 35.3741 105.935 35.3741 104.623V101.733L37.4173 103.776C38.3449 104.704 39.8489 104.704 40.7765 103.776C41.7041 102.849 41.7041 101.345 40.7765 100.417L38.7334 98.3742H41.6227C42.9346 98.3742 43.998 97.3108 43.998 95.999C43.998 94.6872 42.9346 93.6237 41.6227 93.6237H38.7332L40.7763 91.5806C41.7039 90.653 41.7039 89.1491 40.7763 88.2215C39.8487 87.2939 38.3447 87.2939 37.4171 88.2215L35.3741 90.2646V87.3753Z" fill="url(#paint2_linear_207_1890)"/>
<path fill-rule="evenodd" clip-rule="evenodd" d="M73.3741 87.3753C73.3741 86.0634 72.3106 85 70.9988 85C69.687 85 68.6235 86.0634 68.6235 87.3753V90.2644L66.5806 88.2215C65.653 87.2939 64.1491 87.2939 63.2215 88.2215C62.2939 89.1491 62.2939 90.653 63.2215 91.5806L65.2646 93.6237H62.3753C61.0634 93.6237 60 94.6872 60 95.999C60 97.3108 61.0634 98.3742 62.3753 98.3742H65.2644L63.2213 100.417C62.2937 101.345 62.2937 102.849 63.2213 103.776C64.1489 104.704 65.6529 104.704 66.5804 103.776L68.6235 101.733V104.623C68.6235 105.935 69.687 106.998 70.9988 106.998C72.3106 106.998 73.3741 105.935 73.3741 104.623V101.733L75.4173 103.776C76.3449 104.704 77.8489 104.704 78.7765 103.776C79.7041 102.849 79.7041 101.345 78.7765 100.417L76.7334 98.3742H79.6227C80.9346 98.3742 81.998 97.3108 81.998 95.999C81.998 94.6872 80.9346 93.6237 79.6227 93.6237H76.7332L78.7763 91.5806C79.7039 90.653 79.7039 89.1491 78.7763 88.2215C77.8487 87.2939 76.3447 87.2939 75.4171 88.2215L73.3741 90.2646V87.3753Z" fill="url(#paint3_linear_207_1890)"/>
<defs>
<filter id="filter0_f_207_1890" x="0" y="48" width="107" height="63" filterUnits="userSpaceOnUse" color-interpolation-filters="sRGB">
<feFlood flood-opacity="0" result="BackgroundImageFix"/>
<feBlend mode="normal" in="SourceGraphic" in2="BackgroundImageFix" result="shape"/>
<feGaussianBlur stdDeviation="11" result="effect1_foregroundBlur_207_1890"/>
</filter>
<filter id="filter1_bi_207_1890" x="-7" y="5" width="122" height="80" filterUnits="userSpaceOnUse" color-interpolation-filters="sRGB">
<feFlood flood-opacity="0" result="BackgroundImageFix"/>
<feGaussianBlur in="BackgroundImageFix" stdDeviation="3.5"/>
<feComposite in2="SourceAlpha" operator="in" result="effect1_backgroundBlur_207_1890"/>
<feBlend mode="normal" in="SourceGraphic" in2="effect1_backgroundBlur_207_1890" result="shape"/>
<feColorMatrix in="SourceAlpha" type="matrix" values="0 0 0 0 0 0 0 0 0 0 0 0 0 0 0 0 0 0 127 0" result="hardAlpha"/>
<feOffset dy="2"/>
<feGaussianBlur stdDeviation="4"/>
<feComposite in2="hardAlpha" operator="arithmetic" k2="-1" k3="1"/>
<feColorMatrix type="matrix" values="0 0 0 0 0 0 0 0 0 0.82 0 0 0 0 1 0 0 0 0.25 0"/>
<feBlend mode="normal" in2="shape" result="effect2_innerShadow_207_1890"/>
</filter>
<linearGradient id="paint0_linear_207_1890" x1="95" y1="0" x2="95" y2="53" gradientUnits="userSpaceOnUse">
<stop stop-color="#FDC500"/>
<stop offset="1" stop-color="#FD8900"/>
</linearGradient>
<linearGradient id="paint1_linear_207_1890" x1="56" y1="101.5" x2="96.5" y2="12" gradientUnits="userSpaceOnUse">
<stop stop-color="#0082DF"/>
<stop offset="0.299998" stop-color="#48B2FF" stop-opacity="0.75"/>
<stop offset="1" stop-color="#3BADFF" stop-opacity="0"/>
</linearGradient>
<linearGradient id="paint2_linear_207_1890" x1="25.1403" y1="102.546" x2="46.0329" y2="84.9119" gradientUnits="userSpaceOnUse">
<stop stop-color="#0056D6"/>
<stop offset="1" stop-color="#ADD8FF"/>
</linearGradient>
<linearGradient id="paint3_linear_207_1890" x1="63.1403" y1="102.546" x2="84.0329" y2="84.9119" gradientUnits="userSpaceOnUse">
<stop stop-color="#0056D6"/>
<stop offset="1" stop-color="#ADD8FF"/>
</linearGradient>
</defs>
</svg>
