<svg width="121" height="117" viewBox="0 0 121 117" fill="none" xmlns="http://www.w3.org/2000/svg">
<g filter="url(#filter0_f_207_1786)">
<ellipse cx="53.5" cy="79.5" rx="31.5" ry="9.5" fill="#004E67" fill-opacity="0.7"/>
</g>
<path d="M106.323 41.1678C103.816 41.3129 101.305 40.9447 98.9458 40.0858C96.5862 39.2269 94.4271 37.8954 92.6008 36.1729C90.7744 34.4504 89.3195 32.3733 88.325 30.0689C87.3305 27.7645 86.8175 25.2815 86.8175 22.7719C86.8175 20.2624 87.3305 17.7793 88.325 15.4749C89.3195 13.1705 90.7744 11.0934 92.6008 9.37091C94.4271 7.64845 96.5862 6.31694 98.9458 5.45802C101.305 4.59911 103.816 4.23091 106.323 4.37598C107.906 4.36414 109.483 4.57154 111.01 4.99226C106.438 1.70358 100.936 -0.044696 95.3033 0.000868545C89.6703 0.0464331 84.1981 1.88346 79.6799 5.24567C75.1618 8.60788 71.8325 13.3206 70.1745 18.7007C68.5166 24.0808 68.6162 29.8487 70.4589 35.1684C72.3015 40.4882 75.7916 45.0833 80.4231 48.2877C85.0547 51.4922 90.587 53.1394 96.2183 52.9908C101.85 52.8421 107.287 50.9052 111.743 47.4609C116.199 44.0165 119.441 39.2436 121 33.8341C119.296 36.1165 117.081 37.9686 114.532 39.242C111.984 40.5155 109.172 41.175 106.323 41.1678Z" fill="url(#paint0_linear_207_1786)"/>
<path d="M39.9067 73.0882L29.7525 80.0625C28.6401 80.817 27.7192 81.8174 27.0608 82.9864C26.4023 84.1553 26.0241 85.4615 25.9552 86.8041C25.9398 88.7231 26.5809 90.739 28.9322 92.0966C31.2835 93.4541 33.3499 93.0014 35.0041 92.0285C36.1324 91.2976 37.0745 90.3169 37.7576 89.1622C38.4407 88.0075 38.8466 86.7098 38.9439 85.3691L39.9067 73.0882Z" fill="url(#paint1_linear_207_1786)"/>
<path d="M65.3234 94.3606L55.1691 101.335C54.0567 102.089 53.1358 103.09 52.4774 104.259C51.819 105.428 51.4407 106.734 51.3718 108.077C51.3564 109.996 51.9976 112.011 54.3488 113.369C56.7001 114.726 58.7666 114.274 60.4207 113.301C61.549 112.57 62.4911 111.589 63.1742 110.435C63.8574 109.28 64.2632 107.982 64.3606 106.642L65.3234 94.3606Z" fill="url(#paint2_linear_207_1786)"/>
<path fill-rule="evenodd" clip-rule="evenodd" d="M24.8063 97.1474C24.8063 96.1119 23.9668 95.2724 22.9313 95.2724C21.8957 95.2724 21.0563 96.1119 21.0563 97.1474V99.677L19.2676 97.8883C18.5354 97.1561 17.3482 97.1561 16.6159 97.8883C15.8837 98.6206 15.8837 99.8077 16.6159 100.54L18.4048 102.329H15.875C14.8395 102.329 14 103.168 14 104.204C14 105.239 14.8395 106.079 15.875 106.079H18.4046L16.6158 107.868C15.8836 108.6 15.8836 109.787 16.6158 110.519C17.348 111.252 18.5352 111.252 19.2674 110.519L21.0563 108.73V111.26C21.0563 112.296 21.8957 113.135 22.9313 113.135C23.9668 113.135 24.8063 112.296 24.8063 111.26V108.73L26.5952 110.519C27.3275 111.252 28.5147 111.252 29.2469 110.519C29.9791 109.787 29.9791 108.6 29.2469 107.868L27.4581 106.079H29.9879C31.0234 106.079 31.8629 105.239 31.8629 104.204C31.8629 103.168 31.0234 102.329 29.9879 102.329H27.4579L29.2467 100.54C29.979 99.8077 29.979 98.6206 29.2467 97.8883C28.5145 97.1561 27.3273 97.1561 26.5951 97.8883L24.8063 99.6771V97.1474Z" fill="url(#paint3_linear_207_1786)"/>
<path fill-rule="evenodd" clip-rule="evenodd" d="M72.8063 76.1474C72.8063 75.1119 71.9668 74.2724 70.9313 74.2724C69.8957 74.2724 69.0563 75.1119 69.0563 76.1474V78.677L67.2676 76.8883C66.5354 76.1561 65.3482 76.1561 64.6159 76.8883C63.8837 77.6206 63.8837 78.8077 64.6159 79.54L66.4048 81.3288H63.875C62.8395 81.3288 62 82.1683 62 83.2038C62 84.2393 62.8395 85.0788 63.875 85.0788H66.4046L64.6158 86.8676C63.8836 87.5999 63.8836 88.787 64.6158 89.5193C65.348 90.2515 66.5352 90.2515 67.2674 89.5193L69.0563 87.7304V90.2603C69.0563 91.2958 69.8957 92.1353 70.9313 92.1353C71.9668 92.1353 72.8063 91.2958 72.8063 90.2603V87.7303L74.5952 89.5193C75.3275 90.2515 76.5147 90.2515 77.2469 89.5193C77.9791 88.787 77.9791 87.5999 77.2469 86.8676L75.4581 85.0788H77.9879C79.0234 85.0788 79.8629 84.2393 79.8629 83.2038C79.8629 82.1683 79.0234 81.3288 77.9879 81.3288H75.4579L77.2467 79.54C77.979 78.8077 77.979 77.6206 77.2467 76.8883C76.5145 76.1561 75.3273 76.1561 74.5951 76.8883L72.8063 78.6771V76.1474Z" fill="url(#paint4_linear_207_1786)"/>
<g filter="url(#filter1_bi_207_1786)">
<path fill-rule="evenodd" clip-rule="evenodd" d="M77 42C77 42.7882 76.9696 43.5693 76.9099 44.3422C80.1949 41.6296 84.4071 40 89 40C99.4934 40 108 48.5066 108 59C108 69.158 100.029 77.4541 90 77.9741V78H89H19H17V77.896C7.44667 76.8966 0 68.8179 0 59C0 49.1618 7.47752 41.07 17.0593 40.0979C18.0405 24.4156 31.0704 12 47 12C63.5685 12 77 25.4315 77 42Z" fill="url(#paint5_linear_207_1786)"/>
</g>
<defs>
<filter id="filter0_f_207_1786" x="0" y="48" width="107" height="63" filterUnits="userSpaceOnUse" color-interpolation-filters="sRGB">
<feFlood flood-opacity="0" result="BackgroundImageFix"/>
<feBlend mode="normal" in="SourceGraphic" in2="BackgroundImageFix" result="shape"/>
<feGaussianBlur stdDeviation="11" result="effect1_foregroundBlur_207_1786"/>
</filter>
<filter id="filter1_bi_207_1786" x="-7" y="5" width="122" height="80" filterUnits="userSpaceOnUse" color-interpolation-filters="sRGB">
<feFlood flood-opacity="0" result="BackgroundImageFix"/>
<feGaussianBlur in="BackgroundImageFix" stdDeviation="3.5"/>
<feComposite in2="SourceAlpha" operator="in" result="effect1_backgroundBlur_207_1786"/>
<feBlend mode="normal" in="SourceGraphic" in2="effect1_backgroundBlur_207_1786" result="shape"/>
<feColorMatrix in="SourceAlpha" type="matrix" values="0 0 0 0 0 0 0 0 0 0 0 0 0 0 0 0 0 0 127 0" result="hardAlpha"/>
<feOffset dy="2"/>
<feGaussianBlur stdDeviation="4"/>
<feComposite in2="hardAlpha" operator="arithmetic" k2="-1" k3="1"/>
<feColorMatrix type="matrix" values="0 0 0 0 0 0 0 0 0 0.82 0 0 0 0 1 0 0 0 0.25 0"/>
<feBlend mode="normal" in2="shape" result="effect2_innerShadow_207_1786"/>
</filter>
<linearGradient id="paint0_linear_207_1786" x1="95" y1="0" x2="95" y2="53" gradientUnits="userSpaceOnUse">
<stop stop-color="#FDC500"/>
<stop offset="1" stop-color="#FD8900"/>
</linearGradient>
<linearGradient id="paint1_linear_207_1786" x1="49.1874" y1="59.427" x2="46.8081" y2="89.5787" gradientUnits="userSpaceOnUse">
<stop stop-color="#D7F0FF"/>
<stop offset="1" stop-color="#0072DC"/>
</linearGradient>
<linearGradient id="paint2_linear_207_1786" x1="73.9048" y1="80.8667" x2="71.5254" y2="111.018" gradientUnits="userSpaceOnUse">
<stop stop-color="#D7F0FF"/>
<stop offset="1" stop-color="#0072DC"/>
</linearGradient>
<linearGradient id="paint3_linear_207_1786" x1="16.55" y1="109.52" x2="33.5153" y2="95.2008" gradientUnits="userSpaceOnUse">
<stop stop-color="#0056D6"/>
<stop offset="1" stop-color="#ADD8FF"/>
</linearGradient>
<linearGradient id="paint4_linear_207_1786" x1="64.55" y1="88.5202" x2="81.5153" y2="74.2008" gradientUnits="userSpaceOnUse">
<stop stop-color="#0056D6"/>
<stop offset="1" stop-color="#ADD8FF"/>
</linearGradient>
<linearGradient id="paint5_linear_207_1786" x1="56" y1="101.5" x2="96.5" y2="12" gradientUnits="userSpaceOnUse">
<stop stop-color="#0082DF"/>
<stop offset="0.299998" stop-color="#48B2FF" stop-opacity="0.75"/>
<stop offset="1" stop-color="#3BADFF" stop-opacity="0"/>
</linearGradient>
</defs>
</svg>
