<svg width="121" height="117" viewBox="0 0 121 117" fill="none" xmlns="http://www.w3.org/2000/svg">
<g filter="url(#filter0_f_207_1648)">
<ellipse cx="53.5" cy="79.5" rx="31.5" ry="9.5" fill="#004E67" fill-opacity="0.7"/>
</g>
<path d="M47.8069 92.2814L60.9076 68.2315C60.9853 68.0888 61.1348 68 61.2973 68H78.2814C78.6114 68 78.826 68.3474 78.6782 68.6426L71.8724 82.2324C71.7246 82.5276 71.9391 82.875 72.2692 82.875H79L41.8784 115.356C41.5053 115.683 40.959 115.245 41.1967 114.81L52.7873 93.5941C52.9489 93.2983 52.7349 92.9375 52.3979 92.9375H48.1966C47.8598 92.9375 47.6458 92.5771 47.8069 92.2814Z" fill="url(#paint0_linear_207_1648)"/>
<path d="M106.323 41.1678C103.816 41.3129 101.305 40.9447 98.9458 40.0858C96.5862 39.2269 94.4271 37.8954 92.6008 36.1729C90.7744 34.4504 89.3195 32.3733 88.325 30.0689C87.3305 27.7645 86.8175 25.2815 86.8175 22.7719C86.8175 20.2624 87.3305 17.7793 88.325 15.4749C89.3195 13.1705 90.7744 11.0934 92.6008 9.37091C94.4271 7.64845 96.5862 6.31694 98.9458 5.45802C101.305 4.59911 103.816 4.23091 106.323 4.37598C107.906 4.36414 109.483 4.57154 111.01 4.99226C106.438 1.70358 100.936 -0.044696 95.3033 0.000868545C89.6703 0.0464331 84.1981 1.88346 79.6799 5.24567C75.1618 8.60788 71.8325 13.3206 70.1745 18.7007C68.5166 24.0808 68.6162 29.8487 70.4589 35.1684C72.3015 40.4882 75.7916 45.0833 80.4231 48.2877C85.0547 51.4922 90.587 53.1394 96.2183 52.9908C101.85 52.8421 107.287 50.9052 111.743 47.4609C116.199 44.0165 119.441 39.2436 121 33.8341C119.296 36.1165 117.081 37.9686 114.532 39.242C111.984 40.5155 109.172 41.175 106.323 41.1678Z" fill="url(#paint1_linear_207_1648)"/>
<g filter="url(#filter1_bi_207_1648)">
<path fill-rule="evenodd" clip-rule="evenodd" d="M77 42C77 42.7882 76.9696 43.5693 76.9099 44.3422C80.1949 41.6296 84.4071 40 89 40C99.4934 40 108 48.5066 108 59C108 69.158 100.029 77.4541 90 77.9741V78H89H19H17V77.896C7.44667 76.8966 0 68.8179 0 59C0 49.1618 7.47752 41.07 17.0593 40.0979C18.0405 24.4156 31.0704 12 47 12C63.5685 12 77 25.4315 77 42Z" fill="url(#paint2_linear_207_1648)"/>
</g>
<path d="M10.7772 88.9555C10.2898 88.9718 9.80836 88.8395 9.39366 88.5754C9.09492 88.4046 8.8328 88.1737 8.62301 87.8966C8.41323 87.6194 8.2601 87.3017 8.17284 86.9624C8.08558 86.6232 8.06595 86.2695 8.11518 85.9226C8.1644 85.5756 8.28146 85.2426 8.4593 84.9434L27.5319 51.4138C27.6979 51.1075 27.9225 50.8389 28.1923 50.624C28.462 50.4092 28.7714 50.2526 29.1018 50.1636C29.4323 50.0745 29.7769 50.055 30.1151 50.106C30.4533 50.1571 30.778 50.2777 31.0698 50.4607C31.6592 50.8194 32.0877 51.4016 32.2625 52.0813C32.4374 52.761 32.3446 53.4836 32.0042 54.0927L12.9315 87.6224C12.7168 88.0179 12.4052 88.349 12.0273 88.5828C11.6495 88.8166 11.2186 88.945 10.7772 88.9555Z" fill="url(#paint3_linear_207_1648)"/>
<path d="M38.4836 87.1828C37.9961 87.1991 37.5147 87.0669 37.1 86.8028C36.8012 86.632 36.5391 86.4011 36.3293 86.1239C36.1195 85.8467 35.9665 85.529 35.8792 85.1898C35.7919 84.8506 35.7723 84.4969 35.8215 84.1499C35.8708 83.803 35.9878 83.4699 36.1657 83.1708L49.6372 59.3866C49.9858 58.7823 50.5525 58.3435 51.2146 58.1652C51.8767 57.9868 52.5809 58.0832 53.1751 58.4335C53.7645 58.7922 54.193 59.3743 54.3679 60.054C54.5427 60.7338 54.4499 61.4563 54.1095 62.0655L40.6379 85.8497C40.4181 86.2408 40.1052 86.5681 39.7285 86.8012C39.3518 87.0344 38.9234 87.1656 38.4836 87.1828Z" fill="url(#paint4_linear_207_1648)"/>
<path d="M19.4836 97.1828C18.9961 97.1991 18.5147 97.0669 18.1 96.8028C17.8012 96.632 17.5391 96.4011 17.3293 96.1239C17.1195 95.8467 16.9665 95.529 16.8792 95.1898C16.7919 94.8506 16.7723 94.4969 16.8215 94.1499C16.8708 93.803 16.9878 93.4699 17.1657 93.1708L30.6372 69.3866C30.9858 68.7823 31.5525 68.3435 32.2146 68.1652C32.8767 67.9868 33.5809 68.0832 34.1751 68.4335C34.7645 68.7922 35.193 69.3743 35.3679 70.054C35.5427 70.7338 35.4499 71.4563 35.1095 72.0655L21.6379 95.8497C21.4181 96.2408 21.1052 96.5681 20.7285 96.8012C20.3518 97.0344 19.9234 97.1656 19.4836 97.1828Z" fill="url(#paint5_linear_207_1648)"/>
<path fill-rule="evenodd" clip-rule="evenodd" d="M18.405 78H17.0171L16.9999 78L16.9827 78H14.9999V77.896C14.2141 77.8138 13.4426 77.6837 12.6883 77.5087L27.5319 51.4138C27.6979 51.1075 27.9225 50.8388 28.1922 50.624C28.462 50.4092 28.7714 50.2526 29.1018 50.1635C29.4322 50.0745 29.7769 50.055 30.1151 50.106C30.4532 50.1571 30.778 50.2777 31.0698 50.4607C31.6592 50.8194 32.0876 51.4016 32.2625 52.0813C32.4374 52.761 32.3446 53.4836 32.0042 54.0927L18.405 78ZM31.7481 78H25.7584L30.6372 69.3865C30.9858 68.7823 31.5524 68.3435 32.2145 68.1652C32.8766 67.9868 33.5809 68.0832 34.1751 68.4335C34.7645 68.7922 35.193 69.3743 35.3678 70.054C35.5427 70.7337 35.4499 71.4563 35.1094 72.0655L31.7481 78ZM45.084 78H39.0944L49.6372 59.3865C49.9858 58.7823 50.5524 58.3435 51.2145 58.1651C51.8766 57.9868 52.5809 58.0832 53.1751 58.4335C53.7645 58.7922 54.193 59.3743 54.3678 60.054C54.5427 60.7337 54.4499 61.4563 54.1094 62.0655L45.084 78Z" fill="#A9DDFA"/>
<defs>
<filter id="filter0_f_207_1648" x="0" y="48" width="107" height="63" filterUnits="userSpaceOnUse" color-interpolation-filters="sRGB">
<feFlood flood-opacity="0" result="BackgroundImageFix"/>
<feBlend mode="normal" in="SourceGraphic" in2="BackgroundImageFix" result="shape"/>
<feGaussianBlur stdDeviation="11" result="effect1_foregroundBlur_207_1648"/>
</filter>
<filter id="filter1_bi_207_1648" x="-7" y="5" width="122" height="80" filterUnits="userSpaceOnUse" color-interpolation-filters="sRGB">
<feFlood flood-opacity="0" result="BackgroundImageFix"/>
<feGaussianBlur in="BackgroundImageFix" stdDeviation="3.5"/>
<feComposite in2="SourceAlpha" operator="in" result="effect1_backgroundBlur_207_1648"/>
<feBlend mode="normal" in="SourceGraphic" in2="effect1_backgroundBlur_207_1648" result="shape"/>
<feColorMatrix in="SourceAlpha" type="matrix" values="0 0 0 0 0 0 0 0 0 0 0 0 0 0 0 0 0 0 127 0" result="hardAlpha"/>
<feOffset dy="2"/>
<feGaussianBlur stdDeviation="4"/>
<feComposite in2="hardAlpha" operator="arithmetic" k2="-1" k3="1"/>
<feColorMatrix type="matrix" values="0 0 0 0 0 0 0 0 0 0.82 0 0 0 0 1 0 0 0 0.25 0"/>
<feBlend mode="normal" in2="shape" result="effect2_innerShadow_207_1648"/>
</filter>
<linearGradient id="paint0_linear_207_1648" x1="59.5" y1="68" x2="59.5" y2="117" gradientUnits="userSpaceOnUse">
<stop stop-color="#F8FD00"/>
<stop offset="1" stop-color="#FD9800"/>
</linearGradient>
<linearGradient id="paint1_linear_207_1648" x1="95" y1="0" x2="95" y2="53" gradientUnits="userSpaceOnUse">
<stop stop-color="#FDC500"/>
<stop offset="1" stop-color="#FD8900"/>
</linearGradient>
<linearGradient id="paint2_linear_207_1648" x1="56" y1="101.5" x2="96.5" y2="12" gradientUnits="userSpaceOnUse">
<stop stop-color="#0082DF"/>
<stop offset="0.299998" stop-color="#48B2FF" stop-opacity="0.75"/>
<stop offset="1" stop-color="#3BADFF" stop-opacity="0"/>
</linearGradient>
<linearGradient id="paint3_linear_207_1648" x1="27.5493" y1="37.1793" x2="-0.393567" y2="79.1028" gradientUnits="userSpaceOnUse">
<stop stop-color="#D7F0FF"/>
<stop offset="1" stop-color="#0072DC"/>
</linearGradient>
<linearGradient id="paint4_linear_207_1648" x1="50.7626" y1="48.3958" x2="30.0087" y2="80.2754" gradientUnits="userSpaceOnUse">
<stop stop-color="#D7F0FF"/>
<stop offset="1" stop-color="#0072DC"/>
</linearGradient>
<linearGradient id="paint5_linear_207_1648" x1="31.7626" y1="58.3958" x2="11.0087" y2="90.2754" gradientUnits="userSpaceOnUse">
<stop stop-color="#D7F0FF"/>
<stop offset="1" stop-color="#0072DC"/>
</linearGradient>
</defs>
</svg>
