<svg width="121" height="117" viewBox="0 0 121 117" fill="none" xmlns="http://www.w3.org/2000/svg">
<g filter="url(#filter0_f_207_1598)">
<ellipse cx="53.5" cy="79.5" rx="31.5" ry="9.5" fill="#004E67" fill-opacity="0.7"/>
</g>
<path d="M50.8069 92.2814L63.9076 68.2315C63.9853 68.0888 64.1348 68 64.2973 68H81.2814C81.6114 68 81.826 68.3474 81.6782 68.6426L74.8724 82.2324C74.7246 82.5276 74.9391 82.875 75.2692 82.875H82L44.8784 115.356C44.5053 115.683 43.959 115.245 44.1967 114.81L55.7873 93.5941C55.9489 93.2983 55.7349 92.9375 55.3979 92.9375H51.1966C50.8598 92.9375 50.6458 92.5771 50.8069 92.2814Z" fill="url(#paint0_linear_207_1598)"/>
<path d="M106.323 41.1678C103.816 41.3129 101.305 40.9447 98.9458 40.0858C96.5862 39.2269 94.4271 37.8954 92.6008 36.1729C90.7744 34.4504 89.3195 32.3733 88.325 30.0689C87.3305 27.7645 86.8175 25.2815 86.8175 22.7719C86.8175 20.2624 87.3305 17.7793 88.325 15.4749C89.3195 13.1705 90.7744 11.0934 92.6008 9.37091C94.4271 7.64845 96.5862 6.31694 98.9458 5.45802C101.305 4.59911 103.816 4.23091 106.323 4.37598C107.906 4.36414 109.483 4.57154 111.01 4.99226C106.438 1.70358 100.936 -0.044696 95.3033 0.000868545C89.6703 0.0464331 84.1981 1.88346 79.6799 5.24567C75.1618 8.60788 71.8325 13.3206 70.1745 18.7007C68.5166 24.0808 68.6162 29.8487 70.4589 35.1684C72.3015 40.4882 75.7916 45.0833 80.4231 48.2877C85.0547 51.4922 90.587 53.1394 96.2183 52.9908C101.85 52.8421 107.287 50.9052 111.743 47.4609C116.199 44.0165 119.441 39.2436 121 33.8341C119.296 36.1165 117.081 37.9686 114.532 39.242C111.984 40.5155 109.172 41.175 106.323 41.1678Z" fill="url(#paint1_linear_207_1598)"/>
<g filter="url(#filter1_bi_207_1598)">
<path fill-rule="evenodd" clip-rule="evenodd" d="M77 42C77 42.7882 76.9696 43.5693 76.9099 44.3422C80.1949 41.6296 84.4071 40 89 40C99.4934 40 108 48.5066 108 59C108 69.158 100.029 77.4541 90 77.9741V78H89H19H17V77.896C7.44667 76.8966 0 68.8179 0 59C0 49.1618 7.47752 41.07 17.0593 40.0979C18.0405 24.4156 31.0704 12 47 12C63.5685 12 77 25.4315 77 42Z" fill="url(#paint2_linear_207_1598)"/>
</g>
<path d="M31.9697 66.5513L22.3789 77.6679C21.3 78.8412 20.5284 80.2519 20.1282 81.7833C19.7279 83.3147 19.7104 84.9229 20.0772 86.4746C20.38 87.7056 21.0204 88.839 21.93 89.7533C22.8395 90.6677 23.9838 91.3287 25.2404 91.6654C26.497 92.0021 27.8185 92.0018 29.0634 91.6647C30.3083 91.3276 31.4296 90.6663 32.3073 89.7517C33.3965 88.5904 34.1867 87.1931 34.6145 85.6715C35.0424 84.1498 35.0961 82.5461 34.7714 80.9885L31.9697 66.5513Z" fill="url(#paint3_linear_207_1598)"/>
<path d="M53.8942 51.1219L46.395 59.7558C45.5656 60.6904 44.9745 61.8023 44.6682 63.0044C44.3619 64.2065 44.3486 65.4661 44.6294 66.6847C44.8611 67.6461 45.359 68.5327 46.0692 69.2486C46.7795 69.9644 47.675 70.4822 48.6587 70.7458C49.6424 71.0094 50.6768 71.0087 51.6499 70.7439C52.6229 70.4791 53.4974 69.9602 54.1787 69.2435C55.0312 68.3285 55.6495 67.231 55.9853 66.0368C56.321 64.8426 56.3651 63.5842 56.1141 62.36L53.8942 51.1219Z" fill="url(#paint4_linear_207_1598)"/>
<path d="M39.176 36.745L33.5477 43.2249C32.9252 43.9264 32.4816 44.7609 32.2517 45.663C32.0218 46.5652 32.0119 47.5106 32.2226 48.4252C32.3964 49.1467 32.7701 49.8122 33.3032 50.3494C33.8363 50.8867 34.5084 51.2753 35.2467 51.4731C35.985 51.671 36.7613 51.6705 37.4916 51.4717C38.2219 51.273 38.8782 50.8835 39.3896 50.3456C40.0294 49.6589 40.4934 48.8352 40.7454 47.9389C40.9974 47.0427 41.0305 46.0982 40.8421 45.1794L39.176 36.745Z" fill="url(#paint5_linear_207_1598)"/>
<path fill-rule="evenodd" clip-rule="evenodd" d="M34.1154 77.6112H24.9992H22.9992V77.5072C22.8526 77.4919 22.7065 77.4749 22.5609 77.4562L31.9691 66.5513L34.1154 77.6112ZM39.1759 36.745L33.5476 43.2249C32.9251 43.9264 32.4815 44.7609 32.2516 45.663C32.0217 46.5652 32.0117 47.5106 32.2225 48.4252C32.3963 49.1467 32.77 49.8122 33.3031 50.3495C33.8362 50.8867 34.5083 51.2753 35.2466 51.4732C35.9849 51.671 36.7612 51.6705 37.4915 51.4717C38.2218 51.273 38.8781 50.8835 39.3894 50.3456C40.0292 49.6589 40.4933 48.8352 40.7453 47.9389C40.9973 47.0427 41.0304 46.0982 40.842 45.1794L39.1759 36.745ZM46.3944 59.7557L53.8936 51.1219L56.1135 62.3599C56.3645 63.5841 56.3204 64.8425 55.9847 66.0367C55.6489 67.2309 55.0306 68.3284 54.1781 69.2434C53.4968 69.9601 52.6223 70.479 51.6493 70.7438C50.6762 71.0087 49.6418 71.0093 48.6581 70.7457C47.6744 70.4822 46.7789 69.9644 46.0686 69.2485C45.3584 68.5327 44.8605 67.646 44.6288 66.6847C44.348 65.4661 44.3613 64.2064 44.6676 63.0043C44.9739 61.8022 45.565 60.6904 46.3944 59.7557Z" fill="#A9DDFA"/>
<defs>
<filter id="filter0_f_207_1598" x="0" y="48" width="107" height="63" filterUnits="userSpaceOnUse" color-interpolation-filters="sRGB">
<feFlood flood-opacity="0" result="BackgroundImageFix"/>
<feBlend mode="normal" in="SourceGraphic" in2="BackgroundImageFix" result="shape"/>
<feGaussianBlur stdDeviation="11" result="effect1_foregroundBlur_207_1598"/>
</filter>
<filter id="filter1_bi_207_1598" x="-7" y="5" width="122" height="80" filterUnits="userSpaceOnUse" color-interpolation-filters="sRGB">
<feFlood flood-opacity="0" result="BackgroundImageFix"/>
<feGaussianBlur in="BackgroundImageFix" stdDeviation="3.5"/>
<feComposite in2="SourceAlpha" operator="in" result="effect1_backgroundBlur_207_1598"/>
<feBlend mode="normal" in="SourceGraphic" in2="effect1_backgroundBlur_207_1598" result="shape"/>
<feColorMatrix in="SourceAlpha" type="matrix" values="0 0 0 0 0 0 0 0 0 0 0 0 0 0 0 0 0 0 127 0" result="hardAlpha"/>
<feOffset dy="2"/>
<feGaussianBlur stdDeviation="4"/>
<feComposite in2="hardAlpha" operator="arithmetic" k2="-1" k3="1"/>
<feColorMatrix type="matrix" values="0 0 0 0 0 0 0 0 0 0.82 0 0 0 0 1 0 0 0 0.25 0"/>
<feBlend mode="normal" in2="shape" result="effect2_innerShadow_207_1598"/>
</filter>
<linearGradient id="paint0_linear_207_1598" x1="62.5" y1="68" x2="62.5" y2="117" gradientUnits="userSpaceOnUse">
<stop stop-color="#F8FD00"/>
<stop offset="1" stop-color="#FD9800"/>
</linearGradient>
<linearGradient id="paint1_linear_207_1598" x1="95" y1="0" x2="95" y2="53" gradientUnits="userSpaceOnUse">
<stop stop-color="#FDC500"/>
<stop offset="1" stop-color="#FD8900"/>
</linearGradient>
<linearGradient id="paint2_linear_207_1598" x1="56" y1="101.5" x2="96.5" y2="12" gradientUnits="userSpaceOnUse">
<stop stop-color="#0082DF"/>
<stop offset="0.299998" stop-color="#48B2FF" stop-opacity="0.75"/>
<stop offset="1" stop-color="#3BADFF" stop-opacity="0"/>
</linearGradient>
<linearGradient id="paint3_linear_207_1598" x1="31.9737" y1="66.5523" x2="20.8977" y2="90.5017" gradientUnits="userSpaceOnUse">
<stop stop-color="#D7F0FF"/>
<stop offset="1" stop-color="#0072DC"/>
</linearGradient>
<linearGradient id="paint4_linear_207_1598" x1="54.2926" y1="51.2287" x2="45.3571" y2="75.5222" gradientUnits="userSpaceOnUse">
<stop stop-color="#D7F0FF"/>
<stop offset="1" stop-color="#0072DC"/>
</linearGradient>
<linearGradient id="paint5_linear_207_1598" x1="39.4751" y1="36.8251" x2="32.7687" y2="55.0579" gradientUnits="userSpaceOnUse">
<stop stop-color="#D7F0FF"/>
<stop offset="1" stop-color="#0072DC"/>
</linearGradient>
</defs>
</svg>
