<svg width="121" height="117" viewBox="0 0 121 117" fill="none" xmlns="http://www.w3.org/2000/svg">
<g filter="url(#filter0_f_209_1966)">
<ellipse cx="53.5" cy="79.5" rx="31.5" ry="9.5" fill="#004E67" fill-opacity="0.7"/>
</g>
<path d="M106.323 41.1678C103.816 41.3129 101.305 40.9447 98.9458 40.0858C96.5862 39.2269 94.4271 37.8954 92.6008 36.1729C90.7744 34.4504 89.3195 32.3733 88.325 30.0689C87.3305 27.7645 86.8175 25.2815 86.8175 22.7719C86.8175 20.2624 87.3305 17.7793 88.325 15.4749C89.3195 13.1705 90.7744 11.0934 92.6008 9.37091C94.4271 7.64845 96.5862 6.31694 98.9458 5.45802C101.305 4.59911 103.816 4.23091 106.323 4.37598C107.906 4.36414 109.483 4.57154 111.01 4.99226C106.438 1.70358 100.936 -0.044696 95.3033 0.000868545C89.6703 0.0464331 84.1981 1.88346 79.6799 5.24567C75.1618 8.60788 71.8325 13.3206 70.1745 18.7007C68.5166 24.0808 68.6162 29.8487 70.4589 35.1684C72.3015 40.4882 75.7916 45.0833 80.4231 48.2877C85.0547 51.4922 90.587 53.1394 96.2183 52.9908C101.85 52.8421 107.287 50.9052 111.743 47.4609C116.199 44.0165 119.441 39.2436 121 33.8341C119.296 36.1165 117.081 37.9686 114.532 39.242C111.984 40.5155 109.172 41.175 106.323 41.1678Z" fill="url(#paint0_linear_209_1966)"/>
<path d="M39.8069 92.2814L52.9076 68.2315C52.9853 68.0888 53.1348 68 53.2973 68H70.2814C70.6114 68 70.826 68.3474 70.6782 68.6426L63.8724 82.2324C63.7246 82.5276 63.9391 82.875 64.2692 82.875H71L33.8784 115.356C33.5053 115.683 32.959 115.245 33.1967 114.81L44.7873 93.5941C44.9489 93.2983 44.7349 92.9375 44.3979 92.9375H40.1966C39.8598 92.9375 39.6458 92.5771 39.8069 92.2814Z" fill="url(#paint1_linear_209_1966)"/>
<path fill-rule="evenodd" clip-rule="evenodd" d="M21.3741 92.3753C21.3741 91.0634 20.3106 90 18.9988 90C17.687 90 16.6235 91.0634 16.6235 92.3753V95.2644L14.5806 93.2215C13.653 92.2939 12.1491 92.2939 11.2215 93.2215C10.2939 94.1491 10.2939 95.653 11.2215 96.5806L13.2646 98.6237H10.3753C9.06344 98.6237 8 99.6872 8 100.999C8 102.311 9.06344 103.374 10.3753 103.374H13.2644L11.2213 105.417C10.2937 106.345 10.2937 107.849 11.2213 108.776C12.1489 109.704 13.6529 109.704 14.5804 108.776L16.6235 106.733V109.623C16.6235 110.935 17.687 111.998 18.9988 111.998C20.3106 111.998 21.3741 110.935 21.3741 109.623V106.733L23.4173 108.776C24.3449 109.704 25.8489 109.704 26.7765 108.776C27.7041 107.849 27.7041 106.345 26.7765 105.417L24.7334 103.374H27.6227C28.9346 103.374 29.998 102.311 29.998 100.999C29.998 99.6872 28.9346 98.6237 27.6227 98.6237H24.7332L26.7763 96.5806C27.7039 95.653 27.7039 94.1491 26.7763 93.2215C25.8487 92.2939 24.3447 92.2939 23.4171 93.2215L21.3741 95.2646V92.3753Z" fill="url(#paint2_linear_209_1966)"/>
<path fill-rule="evenodd" clip-rule="evenodd" d="M76.3741 92.3753C76.3741 91.0634 75.3106 90 73.9988 90C72.687 90 71.6235 91.0634 71.6235 92.3753V95.2644L69.5806 93.2215C68.653 92.2939 67.1491 92.2939 66.2215 93.2215C65.2939 94.1491 65.2939 95.653 66.2215 96.5806L68.2646 98.6237H65.3753C64.0634 98.6237 63 99.6872 63 100.999C63 102.311 64.0634 103.374 65.3753 103.374H68.2644L66.2213 105.417C65.2937 106.345 65.2937 107.849 66.2213 108.776C67.1489 109.704 68.6529 109.704 69.5804 108.776L71.6235 106.733V109.623C71.6235 110.935 72.687 111.998 73.9988 111.998C75.3106 111.998 76.3741 110.935 76.3741 109.623V106.733L78.4173 108.776C79.3449 109.704 80.8489 109.704 81.7765 108.776C82.7041 107.849 82.7041 106.345 81.7765 105.417L79.7334 103.374H82.6227C83.9346 103.374 84.998 102.311 84.998 100.999C84.998 99.6872 83.9346 98.6237 82.6227 98.6237H79.7332L81.7763 96.5806C82.7039 95.653 82.7039 94.1491 81.7763 93.2215C80.8487 92.2939 79.3447 92.2939 78.4171 93.2215L76.3741 95.2646V92.3753Z" fill="url(#paint3_linear_209_1966)"/>
<g filter="url(#filter1_bi_209_1966)">
<path fill-rule="evenodd" clip-rule="evenodd" d="M77 42C77 42.7882 76.9696 43.5693 76.9099 44.3422C80.1949 41.6296 84.4071 40 89 40C99.4934 40 108 48.5066 108 59C108 69.158 100.029 77.4541 90 77.9741V78H89H19H17V77.896C7.44667 76.8966 0 68.8179 0 59C0 49.1618 7.47752 41.07 17.0593 40.0979C18.0405 24.4156 31.0704 12 47 12C63.5685 12 77 25.4315 77 42Z" fill="url(#paint4_linear_209_1966)"/>
</g>
<defs>
<filter id="filter0_f_209_1966" x="0" y="48" width="107" height="63" filterUnits="userSpaceOnUse" color-interpolation-filters="sRGB">
<feFlood flood-opacity="0" result="BackgroundImageFix"/>
<feBlend mode="normal" in="SourceGraphic" in2="BackgroundImageFix" result="shape"/>
<feGaussianBlur stdDeviation="11" result="effect1_foregroundBlur_209_1966"/>
</filter>
<filter id="filter1_bi_209_1966" x="-7" y="5" width="122" height="80" filterUnits="userSpaceOnUse" color-interpolation-filters="sRGB">
<feFlood flood-opacity="0" result="BackgroundImageFix"/>
<feGaussianBlur in="BackgroundImageFix" stdDeviation="3.5"/>
<feComposite in2="SourceAlpha" operator="in" result="effect1_backgroundBlur_209_1966"/>
<feBlend mode="normal" in="SourceGraphic" in2="effect1_backgroundBlur_209_1966" result="shape"/>
<feColorMatrix in="SourceAlpha" type="matrix" values="0 0 0 0 0 0 0 0 0 0 0 0 0 0 0 0 0 0 127 0" result="hardAlpha"/>
<feOffset dy="2"/>
<feGaussianBlur stdDeviation="4"/>
<feComposite in2="hardAlpha" operator="arithmetic" k2="-1" k3="1"/>
<feColorMatrix type="matrix" values="0 0 0 0 0 0 0 0 0 0.82 0 0 0 0 1 0 0 0 0.25 0"/>
<feBlend mode="normal" in2="shape" result="effect2_innerShadow_209_1966"/>
</filter>
<linearGradient id="paint0_linear_209_1966" x1="95" y1="0" x2="95" y2="53" gradientUnits="userSpaceOnUse">
<stop stop-color="#FDC500"/>
<stop offset="1" stop-color="#FD8900"/>
</linearGradient>
<linearGradient id="paint1_linear_209_1966" x1="51.5" y1="68" x2="51.5" y2="117" gradientUnits="userSpaceOnUse">
<stop stop-color="#F8FD00"/>
<stop offset="1" stop-color="#FD9800"/>
</linearGradient>
<linearGradient id="paint2_linear_209_1966" x1="11.1403" y1="107.546" x2="32.0329" y2="89.9119" gradientUnits="userSpaceOnUse">
<stop stop-color="#0056D6"/>
<stop offset="1" stop-color="#ADD8FF"/>
</linearGradient>
<linearGradient id="paint3_linear_209_1966" x1="66.1403" y1="107.546" x2="87.0329" y2="89.9119" gradientUnits="userSpaceOnUse">
<stop stop-color="#0056D6"/>
<stop offset="1" stop-color="#ADD8FF"/>
</linearGradient>
<linearGradient id="paint4_linear_209_1966" x1="56" y1="101.5" x2="96.5" y2="12" gradientUnits="userSpaceOnUse">
<stop stop-color="#0082DF"/>
<stop offset="0.299998" stop-color="#48B2FF" stop-opacity="0.75"/>
<stop offset="1" stop-color="#3BADFF" stop-opacity="0"/>
</linearGradient>
</defs>
</svg>
