<svg width="123" height="119" viewBox="0 0 123 119" fill="none" xmlns="http://www.w3.org/2000/svg">
<g filter="url(#filter0_f_209_2124)">
<ellipse cx="55.5" cy="79.5" rx="31.5" ry="9.5" fill="#004E67" fill-opacity="0.7"/>
</g>
<path d="M108.323 41.1678C105.816 41.3129 103.305 40.9447 100.946 40.0858C98.5862 39.2269 96.4271 37.8954 94.6008 36.1729C92.7744 34.4504 91.3195 32.3733 90.325 30.0689C89.3305 27.7645 88.8175 25.2815 88.8175 22.7719C88.8175 20.2624 89.3305 17.7793 90.325 15.4749C91.3195 13.1705 92.7744 11.0934 94.6008 9.37091C96.4271 7.64845 98.5862 6.31694 100.946 5.45802C103.305 4.59911 105.816 4.23091 108.323 4.37598C109.906 4.36414 111.483 4.57154 113.01 4.99226C108.438 1.70358 102.936 -0.044696 97.3033 0.000868545C91.6703 0.0464331 86.1981 1.88346 81.6799 5.24567C77.1618 8.60788 73.8325 13.3206 72.1745 18.7007C70.5166 24.0808 70.6162 29.8487 72.4589 35.1684C74.3015 40.4882 77.7916 45.0833 82.4231 48.2877C87.0547 51.4922 92.587 53.1394 98.2183 52.9908C103.85 52.8421 109.287 50.9052 113.743 47.4609C118.199 44.0165 121.441 39.2436 123 33.8341C121.296 36.1165 119.081 37.9686 116.532 39.242C113.984 40.5155 111.172 41.175 108.323 41.1678Z" fill="url(#paint0_linear_209_2124)"/>
<path fill-rule="evenodd" clip-rule="evenodd" d="M32.8063 99.875C32.8063 98.8395 31.9668 98 30.9313 98C29.8957 98 29.0563 98.8395 29.0563 99.875V102.405L27.2676 100.616C26.5354 99.8837 25.3482 99.8837 24.6159 100.616C23.8837 101.348 23.8837 102.535 24.6159 103.268L26.4048 105.056H23.875C22.8395 105.056 22 105.896 22 106.931C22 107.967 22.8395 108.806 23.875 108.806H26.4046L24.6158 110.595C23.8836 111.327 23.8836 112.515 24.6158 113.247C25.348 113.979 26.5352 113.979 27.2674 113.247L29.0563 111.458V113.988C29.0563 115.023 29.8957 115.863 30.9313 115.863C31.9668 115.863 32.8063 115.023 32.8063 113.988V111.458L34.5952 113.247C35.3275 113.979 36.5147 113.979 37.2469 113.247C37.9791 112.515 37.9791 111.327 37.2469 110.595L35.4581 108.806H37.9879C39.0234 108.806 39.8629 107.967 39.8629 106.931C39.8629 105.896 39.0234 105.056 37.9879 105.056H35.4579L37.2467 103.268C37.979 102.535 37.979 101.348 37.2467 100.616C36.5145 99.8837 35.3273 99.8837 34.5951 100.616L32.8063 102.405V99.875Z" fill="url(#paint1_linear_209_2124)"/>
<path fill-rule="evenodd" clip-rule="evenodd" d="M100.806 99.875C100.806 98.8395 99.9668 98 98.9313 98C97.8957 98 97.0563 98.8395 97.0563 99.875V102.405L95.2676 100.616C94.5354 99.8837 93.3482 99.8837 92.6159 100.616C91.8837 101.348 91.8837 102.535 92.6159 103.268L94.4048 105.056H91.875C90.8395 105.056 90 105.896 90 106.931C90 107.967 90.8395 108.806 91.875 108.806H94.4046L92.6158 110.595C91.8836 111.327 91.8836 112.515 92.6158 113.247C93.348 113.979 94.5352 113.979 95.2674 113.247L97.0563 111.458V113.988C97.0563 115.023 97.8957 115.863 98.9313 115.863C99.9668 115.863 100.806 115.023 100.806 113.988V111.458L102.595 113.247C103.327 113.979 104.515 113.979 105.247 113.247C105.979 112.515 105.979 111.327 105.247 110.595L103.458 108.806H105.988C107.023 108.806 107.863 107.967 107.863 106.931C107.863 105.896 107.023 105.056 105.988 105.056H103.458L105.247 103.268C105.979 102.535 105.979 101.348 105.247 100.616C104.515 99.8837 103.327 99.8837 102.595 100.616L100.806 102.405V99.875Z" fill="url(#paint2_linear_209_2124)"/>
<path fill-rule="evenodd" clip-rule="evenodd" d="M10.8063 99.875C10.8063 98.8395 9.9668 98 8.93127 98C7.89573 98 7.05627 98.8395 7.05627 99.875V102.405L5.2676 100.616C4.53536 99.8837 3.34818 99.8837 2.61595 100.616C1.88371 101.348 1.88371 102.535 2.61595 103.268L4.40478 105.056H1.875C0.839466 105.056 0 105.896 0 106.931C0 107.967 0.839466 108.806 1.875 108.806H4.4046L2.61579 110.595C1.88355 111.327 1.88355 112.515 2.61579 113.247C3.34802 113.979 4.5352 113.979 5.26744 113.247L7.05627 111.458V113.988C7.05627 115.023 7.89573 115.863 8.93127 115.863C9.9668 115.863 10.8063 115.023 10.8063 113.988V111.458L12.5952 113.247C13.3275 113.979 14.5147 113.979 15.2469 113.247C15.9791 112.515 15.9791 111.327 15.2469 110.595L13.4581 108.806H15.9879C17.0234 108.806 17.8629 107.967 17.8629 106.931C17.8629 105.896 17.0234 105.056 15.9879 105.056H13.4579L15.2467 103.268C15.979 102.535 15.979 101.348 15.2467 100.616C14.5145 99.8837 13.3273 99.8837 12.5951 100.616L10.8063 102.405V99.875Z" fill="url(#paint3_linear_209_2124)"/>
<path fill-rule="evenodd" clip-rule="evenodd" d="M78.8063 99.875C78.8063 98.8395 77.9668 98 76.9313 98C75.8957 98 75.0563 98.8395 75.0563 99.875V102.405L73.2676 100.616C72.5354 99.8837 71.3482 99.8837 70.6159 100.616C69.8837 101.348 69.8837 102.535 70.6159 103.268L72.4048 105.056H69.875C68.8395 105.056 68 105.896 68 106.931C68 107.967 68.8395 108.806 69.875 108.806H72.4046L70.6158 110.595C69.8836 111.327 69.8836 112.515 70.6158 113.247C71.348 113.979 72.5352 113.979 73.2674 113.247L75.0563 111.458V113.988C75.0563 115.023 75.8957 115.863 76.9313 115.863C77.9668 115.863 78.8063 115.023 78.8063 113.988V111.458L80.5952 113.247C81.3275 113.979 82.5147 113.979 83.2469 113.247C83.9791 112.515 83.9791 111.327 83.2469 110.595L81.4581 108.806H83.9879C85.0234 108.806 85.8629 107.967 85.8629 106.931C85.8629 105.896 85.0234 105.056 83.9879 105.056H81.4579L83.2467 103.268C83.979 102.535 83.979 101.348 83.2467 100.616C82.5145 99.8837 81.3273 99.8837 80.5951 100.616L78.8063 102.405V99.875Z" fill="url(#paint4_linear_209_2124)"/>
<path fill-rule="evenodd" clip-rule="evenodd" d="M92.8063 78.875C92.8063 77.8395 91.9668 77 90.9313 77C89.8957 77 89.0563 77.8395 89.0563 78.875V81.4046L87.2676 79.6159C86.5354 78.8837 85.3482 78.8837 84.6159 79.6159C83.8837 80.3482 83.8837 81.5353 84.6159 82.2676L86.4048 84.0564H83.875C82.8395 84.0564 82 84.8959 82 85.9314C82 86.9669 82.8395 87.8064 83.875 87.8064H86.4046L84.6158 89.5952C83.8836 90.3275 83.8836 91.5146 84.6158 92.2469C85.348 92.9791 86.5352 92.9791 87.2674 92.2469L89.0563 90.458V92.9879C89.0563 94.0234 89.8957 94.8629 90.9313 94.8629C91.9668 94.8629 92.8063 94.0234 92.8063 92.9879V90.4579L94.5952 92.2469C95.3275 92.9791 96.5147 92.9791 97.2469 92.2469C97.9791 91.5146 97.9791 90.3275 97.2469 89.5952L95.4581 87.8064H97.9879C99.0234 87.8064 99.8629 86.9669 99.8629 85.9314C99.8629 84.8959 99.0234 84.0564 97.9879 84.0564H95.4579L97.2467 82.2676C97.979 81.5353 97.979 80.3482 97.2467 79.6159C96.5145 78.8837 95.3273 78.8837 94.5951 79.6159L92.8063 81.4047V78.875Z" fill="url(#paint5_linear_209_2124)"/>
<path fill-rule="evenodd" clip-rule="evenodd" d="M34.8063 78.875C34.8063 77.8395 33.9668 77 32.9313 77C31.8957 77 31.0563 77.8395 31.0563 78.875V81.4046L29.2676 79.6159C28.5354 78.8837 27.3482 78.8837 26.6159 79.6159C25.8837 80.3482 25.8837 81.5353 26.6159 82.2676L28.4048 84.0564H25.875C24.8395 84.0564 24 84.8959 24 85.9314C24 86.9669 24.8395 87.8064 25.875 87.8064H28.4046L26.6158 89.5952C25.8836 90.3275 25.8836 91.5146 26.6158 92.2469C27.348 92.9791 28.5352 92.9791 29.2674 92.2469L31.0563 90.458V92.9879C31.0563 94.0234 31.8957 94.8629 32.9313 94.8629C33.9668 94.8629 34.8063 94.0234 34.8063 92.9879V90.4579L36.5952 92.2469C37.3275 92.9791 38.5147 92.9791 39.2469 92.2469C39.9791 91.5146 39.9791 90.3275 39.2469 89.5952L37.4581 87.8064H39.9879C41.0234 87.8064 41.8629 86.9669 41.8629 85.9314C41.8629 84.8959 41.0234 84.0564 39.9879 84.0564H37.4579L39.2467 82.2676C39.979 81.5353 39.979 80.3482 39.2467 79.6159C38.5145 78.8837 37.3273 78.8837 36.5951 79.6159L34.8063 81.4047V78.875Z" fill="url(#paint6_linear_209_2124)"/>
<path d="M47.8069 94.2814L60.9076 70.2315C60.9853 70.0888 61.1348 70 61.2973 70H78.2814C78.6114 70 78.826 70.3474 78.6782 70.6426L71.8724 84.2324C71.7246 84.5276 71.9391 84.875 72.2692 84.875H79L41.8784 117.356C41.5053 117.683 40.959 117.245 41.1967 116.81L52.7873 95.5941C52.9489 95.2983 52.7349 94.9375 52.3979 94.9375H48.1966C47.8598 94.9375 47.6458 94.5771 47.8069 94.2814Z" fill="url(#paint7_linear_209_2124)"/>
<g filter="url(#filter1_bi_209_2124)">
<path fill-rule="evenodd" clip-rule="evenodd" d="M79 42C79 42.7882 78.9696 43.5693 78.9099 44.3422C82.1949 41.6296 86.4071 40 91 40C101.493 40 110 48.5066 110 59C110 69.158 102.029 77.4541 92 77.9741V78H91H21H19V77.896C9.44667 76.8966 2 68.8179 2 59C2 49.1618 9.47752 41.07 19.0593 40.0979C20.0405 24.4156 33.0704 12 49 12C65.5685 12 79 25.4315 79 42Z" fill="url(#paint8_linear_209_2124)"/>
</g>
<defs>
<filter id="filter0_f_209_2124" x="2" y="48" width="107" height="63" filterUnits="userSpaceOnUse" color-interpolation-filters="sRGB">
<feFlood flood-opacity="0" result="BackgroundImageFix"/>
<feBlend mode="normal" in="SourceGraphic" in2="BackgroundImageFix" result="shape"/>
<feGaussianBlur stdDeviation="11" result="effect1_foregroundBlur_209_2124"/>
</filter>
<filter id="filter1_bi_209_2124" x="-5" y="5" width="122" height="80" filterUnits="userSpaceOnUse" color-interpolation-filters="sRGB">
<feFlood flood-opacity="0" result="BackgroundImageFix"/>
<feGaussianBlur in="BackgroundImageFix" stdDeviation="3.5"/>
<feComposite in2="SourceAlpha" operator="in" result="effect1_backgroundBlur_209_2124"/>
<feBlend mode="normal" in="SourceGraphic" in2="effect1_backgroundBlur_209_2124" result="shape"/>
<feColorMatrix in="SourceAlpha" type="matrix" values="0 0 0 0 0 0 0 0 0 0 0 0 0 0 0 0 0 0 127 0" result="hardAlpha"/>
<feOffset dy="2"/>
<feGaussianBlur stdDeviation="4"/>
<feComposite in2="hardAlpha" operator="arithmetic" k2="-1" k3="1"/>
<feColorMatrix type="matrix" values="0 0 0 0 0 0 0 0 0 0.82 0 0 0 0 1 0 0 0 0.25 0"/>
<feBlend mode="normal" in2="shape" result="effect2_innerShadow_209_2124"/>
</filter>
<linearGradient id="paint0_linear_209_2124" x1="97" y1="0" x2="97" y2="53" gradientUnits="userSpaceOnUse">
<stop stop-color="#FDC500"/>
<stop offset="1" stop-color="#FD8900"/>
</linearGradient>
<linearGradient id="paint1_linear_209_2124" x1="24.55" y1="112.248" x2="41.5153" y2="97.9284" gradientUnits="userSpaceOnUse">
<stop stop-color="#0056D6"/>
<stop offset="1" stop-color="#ADD8FF"/>
</linearGradient>
<linearGradient id="paint2_linear_209_2124" x1="92.55" y1="112.248" x2="109.515" y2="97.9284" gradientUnits="userSpaceOnUse">
<stop stop-color="#0056D6"/>
<stop offset="1" stop-color="#ADD8FF"/>
</linearGradient>
<linearGradient id="paint3_linear_209_2124" x1="2.54998" y1="112.248" x2="19.5153" y2="97.9284" gradientUnits="userSpaceOnUse">
<stop stop-color="#0056D6"/>
<stop offset="1" stop-color="#ADD8FF"/>
</linearGradient>
<linearGradient id="paint4_linear_209_2124" x1="70.55" y1="112.248" x2="87.5153" y2="97.9284" gradientUnits="userSpaceOnUse">
<stop stop-color="#0056D6"/>
<stop offset="1" stop-color="#ADD8FF"/>
</linearGradient>
<linearGradient id="paint5_linear_209_2124" x1="84.55" y1="91.2478" x2="101.515" y2="76.9284" gradientUnits="userSpaceOnUse">
<stop stop-color="#0056D6"/>
<stop offset="1" stop-color="#ADD8FF"/>
</linearGradient>
<linearGradient id="paint6_linear_209_2124" x1="26.55" y1="91.2478" x2="43.5153" y2="76.9284" gradientUnits="userSpaceOnUse">
<stop stop-color="#0056D6"/>
<stop offset="1" stop-color="#ADD8FF"/>
</linearGradient>
<linearGradient id="paint7_linear_209_2124" x1="59.5" y1="70" x2="59.5" y2="119" gradientUnits="userSpaceOnUse">
<stop stop-color="#F8FD00"/>
<stop offset="1" stop-color="#FD9800"/>
</linearGradient>
<linearGradient id="paint8_linear_209_2124" x1="58" y1="101.5" x2="98.5" y2="12" gradientUnits="userSpaceOnUse">
<stop stop-color="#0082DF"/>
<stop offset="0.299998" stop-color="#48B2FF" stop-opacity="0.75"/>
<stop offset="1" stop-color="#3BADFF" stop-opacity="0"/>
</linearGradient>
</defs>
</svg>
