<svg width="121" height="119" viewBox="0 0 121 119" fill="none" xmlns="http://www.w3.org/2000/svg">
<g filter="url(#filter0_f_207_1723)">
<ellipse cx="53.5" cy="79.5" rx="31.5" ry="9.5" fill="#004E67" fill-opacity="0.7"/>
</g>
<path d="M32.6783 94.2819L45.7791 70.232C45.8568 70.0893 46.0063 70.0005 46.1688 70.0005H63.1528C63.4829 70.0005 63.6975 70.3479 63.5497 70.643L56.7438 84.2329C56.596 84.528 56.8106 84.8755 57.1407 84.8755H63.8715L26.7499 117.357C26.3768 117.683 25.8304 117.245 26.0682 116.81L37.6588 95.5946C37.8204 95.2988 37.6063 94.938 37.2693 94.938H33.0681C32.7313 94.938 32.5172 94.5776 32.6783 94.2819Z" fill="url(#paint0_linear_207_1723)"/>
<path d="M106.323 41.1678C103.816 41.3129 101.305 40.9447 98.9458 40.0858C96.5862 39.2269 94.4271 37.8954 92.6008 36.1729C90.7744 34.4504 89.3195 32.3733 88.325 30.0689C87.3305 27.7645 86.8175 25.2815 86.8175 22.7719C86.8175 20.2624 87.3305 17.7793 88.325 15.4749C89.3195 13.1705 90.7744 11.0934 92.6008 9.37091C94.4271 7.64845 96.5862 6.31694 98.9458 5.45802C101.305 4.59911 103.816 4.23091 106.323 4.37598C107.906 4.36414 109.483 4.57154 111.01 4.99226C106.438 1.70358 100.936 -0.044696 95.3033 0.000868545C89.6703 0.0464331 84.1981 1.88346 79.6799 5.24567C75.1618 8.60788 71.8325 13.3206 70.1745 18.7007C68.5166 24.0808 68.6162 29.8487 70.4589 35.1684C72.3015 40.4882 75.7916 45.0833 80.4231 48.2877C85.0547 51.4922 90.587 53.1394 96.2183 52.9908C101.85 52.8421 107.287 50.9052 111.743 47.4609C116.199 44.0165 119.441 39.2436 121 33.8341C119.296 36.1165 117.081 37.9686 114.532 39.242C111.984 40.5155 109.172 41.175 106.323 41.1678Z" fill="url(#paint1_linear_207_1723)"/>
<g filter="url(#filter1_bi_207_1723)">
<path fill-rule="evenodd" clip-rule="evenodd" d="M77 42C77 42.7882 76.9696 43.5693 76.9099 44.3422C80.1949 41.6296 84.4071 40 89 40C99.4934 40 108 48.5066 108 59C108 69.158 100.029 77.4541 90 77.9741V78H89H19H17V77.896C7.44667 76.8966 0 68.8179 0 59C0 49.1618 7.47752 41.07 17.0593 40.0979C18.0405 24.4156 31.0704 12 47 12C63.5685 12 77 25.4315 77 42Z" fill="url(#paint2_linear_207_1723)"/>
</g>
<path fill-rule="evenodd" clip-rule="evenodd" d="M25.4137 62.6219C26.6335 63.2688 27.0979 64.782 26.451 66.0018L22.7026 73.0693C22.0557 74.2891 20.5424 74.7535 19.3226 74.1066C18.1029 73.4596 17.6385 71.9464 18.2854 70.7266L22.0338 63.6591C22.6807 62.4393 24.194 61.9749 25.4137 62.6219ZM35.9402 66.9005C37.1608 67.5459 37.6271 69.0586 36.9817 70.2792L29.9703 83.5397C29.3249 84.7603 27.8123 85.2265 26.5917 84.5811C25.3711 83.9357 24.9048 82.423 25.5502 81.2024L32.5616 67.9419C33.207 66.7214 34.7197 66.2551 35.9402 66.9005ZM78.2383 67.2339C79.468 67.8618 79.9559 69.3677 79.328 70.5974L66.5945 95.5345C65.9666 96.7641 64.4607 97.252 63.231 96.6241C62.0013 95.9962 61.5135 94.4903 62.1414 93.2606L74.8749 68.3235C75.5028 67.0939 77.0087 66.606 78.2383 67.2339ZM60.9572 101.077C62.1868 101.705 62.6747 103.211 62.0468 104.441L58.8634 110.675C58.2355 111.904 56.7296 112.392 55.5 111.764C54.2703 111.137 53.7825 109.631 54.4104 108.401L57.5937 102.167C58.2216 100.937 59.7275 100.449 60.9572 101.077ZM76.6089 100.835C75.9821 102.066 74.4767 102.555 73.2464 101.928C72.0162 101.301 71.5271 99.7957 72.1539 98.5655L75.3319 92.3284C75.9587 91.0982 77.4641 90.6091 78.6944 91.2359C79.9246 91.8627 80.4137 93.3682 79.7869 94.5984L76.6089 100.835ZM81.4183 85.8898C82.6485 86.5167 84.1539 86.0275 84.7808 84.7973L91.5907 71.4322C92.2175 70.202 91.7284 68.6966 90.4981 68.0698C89.2679 67.4429 87.7625 67.9321 87.1357 69.1623L80.3257 82.5274C79.6989 83.7576 80.188 85.263 81.4183 85.8898ZM25.2952 92.3796C25.9406 91.159 25.4744 89.6463 24.2538 89.0009C23.0332 88.3555 21.5205 88.8217 20.8751 90.0423L17.603 96.2304C16.9576 97.451 17.4238 98.9637 18.6444 99.6091C19.865 100.255 21.3777 99.7883 22.0231 98.5677L25.2952 92.3796ZM16.8811 108.292C17.5265 107.071 17.0602 105.559 15.8397 104.913C14.6191 104.268 13.1064 104.734 12.461 105.955L9.1888 112.143C8.54338 113.363 9.00964 114.876 10.2302 115.521C11.4508 116.167 12.9635 115.701 13.6089 114.48L16.8811 108.292ZM17.08 83.6706C17.727 82.4508 17.2626 80.9376 16.0428 80.2906C14.823 79.6437 13.3098 80.1081 12.6628 81.3279L3.2919 98.9966C2.64497 100.216 3.10936 101.73 4.32913 102.377C5.54891 103.024 7.06217 102.559 7.7091 101.339L17.08 83.6706Z" fill="url(#paint3_linear_207_1723)"/>
<path fill-rule="evenodd" clip-rule="evenodd" d="M32.959 78.0005H27.3282L32.8437 67.3508C33.4787 66.1247 34.9873 65.6456 36.2134 66.2805C37.4394 66.9155 37.9186 68.4241 37.2836 69.6502L32.959 78.0005ZM75.6033 78.0005H69.9922L75.1537 67.8659C75.7803 66.6356 77.2857 66.1461 78.516 66.7728C79.7463 67.3994 80.2358 68.9047 79.6092 70.135L75.6033 78.0005ZM88.4221 77.6693C87.5898 77.8266 86.7383 77.9297 85.8714 77.9746V78.0005H84.8714H82.6412C82.675 77.9113 82.7143 77.8231 82.7591 77.7363L87.3505 68.8527C87.9844 67.6261 89.4927 67.1457 90.7193 67.7796C91.9459 68.4135 92.4263 69.9217 91.7924 71.1482L88.4221 77.6693ZM18.2546 70.6534C17.6122 71.8755 18.0823 73.387 19.3044 74.0294C20.5266 74.6717 22.0382 74.2017 22.6806 72.9795L26.5258 65.6636C27.1682 64.4414 26.6982 62.9299 25.476 62.2875C24.2538 61.6452 22.7422 62.1152 22.0999 63.3374L18.2546 70.6534Z" fill="#A9DDFA"/>
<defs>
<filter id="filter0_f_207_1723" x="0" y="48" width="107" height="63" filterUnits="userSpaceOnUse" color-interpolation-filters="sRGB">
<feFlood flood-opacity="0" result="BackgroundImageFix"/>
<feBlend mode="normal" in="SourceGraphic" in2="BackgroundImageFix" result="shape"/>
<feGaussianBlur stdDeviation="11" result="effect1_foregroundBlur_207_1723"/>
</filter>
<filter id="filter1_bi_207_1723" x="-7" y="5" width="122" height="80" filterUnits="userSpaceOnUse" color-interpolation-filters="sRGB">
<feFlood flood-opacity="0" result="BackgroundImageFix"/>
<feGaussianBlur in="BackgroundImageFix" stdDeviation="3.5"/>
<feComposite in2="SourceAlpha" operator="in" result="effect1_backgroundBlur_207_1723"/>
<feBlend mode="normal" in="SourceGraphic" in2="effect1_backgroundBlur_207_1723" result="shape"/>
<feColorMatrix in="SourceAlpha" type="matrix" values="0 0 0 0 0 0 0 0 0 0 0 0 0 0 0 0 0 0 127 0" result="hardAlpha"/>
<feOffset dy="2"/>
<feGaussianBlur stdDeviation="4"/>
<feComposite in2="hardAlpha" operator="arithmetic" k2="-1" k3="1"/>
<feColorMatrix type="matrix" values="0 0 0 0 0 0 0 0 0 0.82 0 0 0 0 1 0 0 0 0.25 0"/>
<feBlend mode="normal" in2="shape" result="effect2_innerShadow_207_1723"/>
</filter>
<linearGradient id="paint0_linear_207_1723" x1="44.3715" y1="70.0005" x2="44.3715" y2="119" gradientUnits="userSpaceOnUse">
<stop stop-color="#F8FD00"/>
<stop offset="1" stop-color="#FD9800"/>
</linearGradient>
<linearGradient id="paint1_linear_207_1723" x1="95" y1="0" x2="95" y2="53" gradientUnits="userSpaceOnUse">
<stop stop-color="#FDC500"/>
<stop offset="1" stop-color="#FD8900"/>
</linearGradient>
<linearGradient id="paint2_linear_207_1723" x1="56" y1="101.5" x2="96.5" y2="12" gradientUnits="userSpaceOnUse">
<stop stop-color="#0082DF"/>
<stop offset="0.299998" stop-color="#48B2FF" stop-opacity="0.75"/>
<stop offset="1" stop-color="#3BADFF" stop-opacity="0"/>
</linearGradient>
<linearGradient id="paint3_linear_207_1723" x1="49.3714" y1="53.0005" x2="49.3714" y2="108" gradientUnits="userSpaceOnUse">
<stop offset="0.168182" stop-color="#D7F0FF"/>
<stop offset="1" stop-color="#0072DC"/>
</linearGradient>
</defs>
</svg>
