<svg width="121" height="112" viewBox="0 0 121 112" fill="none" xmlns="http://www.w3.org/2000/svg">
<g filter="url(#filter0_f_209_2058)">
<ellipse cx="53.5" cy="79.5" rx="31.5" ry="9.5" fill="#004E67" fill-opacity="0.7"/>
</g>
<path d="M106.323 41.1678C103.816 41.3129 101.305 40.9447 98.9458 40.0858C96.5862 39.2269 94.4271 37.8954 92.6008 36.1729C90.7744 34.4504 89.3195 32.3733 88.325 30.0689C87.3305 27.7645 86.8175 25.2815 86.8175 22.7719C86.8175 20.2624 87.3305 17.7793 88.325 15.4749C89.3195 13.1705 90.7744 11.0934 92.6008 9.37091C94.4271 7.64845 96.5862 6.31694 98.9458 5.45802C101.305 4.59911 103.816 4.23091 106.323 4.37598C107.906 4.36414 109.483 4.57154 111.01 4.99226C106.438 1.70358 100.936 -0.044696 95.3033 0.000868545C89.6703 0.0464331 84.1981 1.88346 79.6799 5.24567C75.1618 8.60788 71.8325 13.3206 70.1745 18.7007C68.5166 24.0808 68.6162 29.8487 70.4589 35.1684C72.3015 40.4882 75.7916 45.0833 80.4231 48.2877C85.0547 51.4922 90.587 53.1394 96.2183 52.9908C101.85 52.8421 107.287 50.9052 111.743 47.4609C116.199 44.0165 119.441 39.2436 121 33.8341C119.296 36.1165 117.081 37.9686 114.532 39.242C111.984 40.5155 109.172 41.175 106.323 41.1678Z" fill="url(#paint0_linear_209_2058)"/>
<path fill-rule="evenodd" clip-rule="evenodd" d="M22.8063 95.875C22.8063 94.8395 21.9668 94 20.9313 94C19.8957 94 19.0563 94.8395 19.0563 95.875V98.4046L17.2676 96.6159C16.5354 95.8837 15.3482 95.8837 14.6159 96.6159C13.8837 97.3482 13.8837 98.5353 14.6159 99.2676L16.4048 101.056H13.875C12.8395 101.056 12 101.896 12 102.931C12 103.967 12.8395 104.806 13.875 104.806H16.4046L14.6158 106.595C13.8836 107.327 13.8836 108.515 14.6158 109.247C15.348 109.979 16.5352 109.979 17.2674 109.247L19.0563 107.458V109.988C19.0563 111.023 19.8957 111.863 20.9313 111.863C21.9668 111.863 22.8063 111.023 22.8063 109.988V107.458L24.5952 109.247C25.3275 109.979 26.5147 109.979 27.2469 109.247C27.9791 108.515 27.9791 107.327 27.2469 106.595L25.4581 104.806H27.9879C29.0234 104.806 29.8629 103.967 29.8629 102.931C29.8629 101.896 29.0234 101.056 27.9879 101.056H25.4579L27.2467 99.2676C27.979 98.5353 27.979 97.3482 27.2467 96.6159C26.5145 95.8837 25.3273 95.8837 24.5951 96.6159L22.8063 98.4047V95.875Z" fill="url(#paint1_linear_209_2058)"/>
<path fill-rule="evenodd" clip-rule="evenodd" d="M72.8063 95.875C72.8063 94.8395 71.9668 94 70.9313 94C69.8957 94 69.0563 94.8395 69.0563 95.875V98.4046L67.2676 96.6159C66.5354 95.8837 65.3482 95.8837 64.6159 96.6159C63.8837 97.3482 63.8837 98.5353 64.6159 99.2676L66.4048 101.056H63.875C62.8395 101.056 62 101.896 62 102.931C62 103.967 62.8395 104.806 63.875 104.806H66.4046L64.6158 106.595C63.8836 107.327 63.8836 108.515 64.6158 109.247C65.348 109.979 66.5352 109.979 67.2674 109.247L69.0563 107.458V109.988C69.0563 111.023 69.8957 111.863 70.9313 111.863C71.9668 111.863 72.8063 111.023 72.8063 109.988V107.458L74.5952 109.247C75.3275 109.979 76.5147 109.979 77.2469 109.247C77.9791 108.515 77.9791 107.327 77.2469 106.595L75.4581 104.806H77.9879C79.0234 104.806 79.8629 103.967 79.8629 102.931C79.8629 101.896 79.0234 101.056 77.9879 101.056H75.4579L77.2467 99.2676C77.979 98.5353 77.979 97.3482 77.2467 96.6159C76.5145 95.8837 75.3273 95.8837 74.5951 96.6159L72.8063 98.4047V95.875Z" fill="url(#paint2_linear_209_2058)"/>
<path fill-rule="evenodd" clip-rule="evenodd" d="M52.8063 74.875C52.8063 73.8395 51.9668 73 50.9313 73C49.8957 73 49.0563 73.8395 49.0563 74.875V77.4046L47.2676 75.6159C46.5354 74.8837 45.3482 74.8837 44.6159 75.6159C43.8837 76.3482 43.8837 77.5353 44.6159 78.2676L46.4048 80.0564H43.875C42.8395 80.0564 42 80.8959 42 81.9314C42 82.9669 42.8395 83.8064 43.875 83.8064H46.4046L44.6158 85.5952C43.8836 86.3275 43.8836 87.5146 44.6158 88.2469C45.348 88.9791 46.5352 88.9791 47.2674 88.2469L49.0563 86.458V88.9879C49.0563 90.0234 49.8957 90.8629 50.9313 90.8629C51.9668 90.8629 52.8063 90.0234 52.8063 88.9879V86.4579L54.5952 88.2469C55.3275 88.9791 56.5147 88.9791 57.2469 88.2469C57.9791 87.5146 57.9791 86.3275 57.2469 85.5952L55.4581 83.8064H57.9879C59.0234 83.8064 59.8629 82.9669 59.8629 81.9314C59.8629 80.8959 59.0234 80.0564 57.9879 80.0564H55.4579L57.2467 78.2676C57.979 77.5353 57.979 76.3482 57.2467 75.6159C56.5145 74.8837 55.3273 74.8837 54.5951 75.6159L52.8063 77.4047V74.875Z" fill="url(#paint3_linear_209_2058)"/>
<path fill-rule="evenodd" clip-rule="evenodd" d="M47.8063 95.875C47.8063 94.8395 46.9668 94 45.9313 94C44.8957 94 44.0563 94.8395 44.0563 95.875V98.4046L42.2676 96.6159C41.5354 95.8837 40.3482 95.8837 39.6159 96.6159C38.8837 97.3482 38.8837 98.5353 39.6159 99.2676L41.4048 101.056H38.875C37.8395 101.056 37 101.896 37 102.931C37 103.967 37.8395 104.806 38.875 104.806H41.4046L39.6158 106.595C38.8836 107.327 38.8836 108.515 39.6158 109.247C40.348 109.979 41.5352 109.979 42.2674 109.247L44.0563 107.458V109.988C44.0563 111.023 44.8957 111.863 45.9313 111.863C46.9668 111.863 47.8063 111.023 47.8063 109.988V107.458L49.5952 109.247C50.3275 109.979 51.5147 109.979 52.2469 109.247C52.9791 108.515 52.9791 107.327 52.2469 106.595L50.4581 104.806H52.9879C54.0234 104.806 54.8629 103.967 54.8629 102.931C54.8629 101.896 54.0234 101.056 52.9879 101.056H50.4579L52.2467 99.2676C52.979 98.5353 52.979 97.3482 52.2467 96.6159C51.5145 95.8837 50.3273 95.8837 49.5951 96.6159L47.8063 98.4047V95.875Z" fill="url(#paint4_linear_209_2058)"/>
<path fill-rule="evenodd" clip-rule="evenodd" d="M77.8063 74.875C77.8063 73.8395 76.9668 73 75.9313 73C74.8957 73 74.0563 73.8395 74.0563 74.875V77.4046L72.2676 75.6159C71.5354 74.8837 70.3482 74.8837 69.6159 75.6159C68.8837 76.3482 68.8837 77.5353 69.6159 78.2676L71.4048 80.0564H68.875C67.8395 80.0564 67 80.8959 67 81.9314C67 82.9669 67.8395 83.8064 68.875 83.8064H71.4046L69.6158 85.5952C68.8836 86.3275 68.8836 87.5146 69.6158 88.2469C70.348 88.9791 71.5352 88.9791 72.2674 88.2469L74.0563 86.458V88.9879C74.0563 90.0234 74.8957 90.8629 75.9313 90.8629C76.9668 90.8629 77.8063 90.0234 77.8063 88.9879V86.4579L79.5952 88.2469C80.3275 88.9791 81.5147 88.9791 82.2469 88.2469C82.9791 87.5146 82.9791 86.3275 82.2469 85.5952L80.4581 83.8064H82.9879C84.0234 83.8064 84.8629 82.9669 84.8629 81.9314C84.8629 80.8959 84.0234 80.0564 82.9879 80.0564H80.4579L82.2467 78.2676C82.979 77.5353 82.979 76.3482 82.2467 75.6159C81.5145 74.8837 80.3273 74.8837 79.5951 75.6159L77.8063 77.4047V74.875Z" fill="url(#paint5_linear_209_2058)"/>
<path fill-rule="evenodd" clip-rule="evenodd" d="M27.8063 74.875C27.8063 73.8395 26.9668 73 25.9313 73C24.8957 73 24.0563 73.8395 24.0563 74.875V77.4046L22.2676 75.6159C21.5354 74.8837 20.3482 74.8837 19.6159 75.6159C18.8837 76.3482 18.8837 77.5353 19.6159 78.2676L21.4048 80.0564H18.875C17.8395 80.0564 17 80.8959 17 81.9314C17 82.9669 17.8395 83.8064 18.875 83.8064H21.4046L19.6158 85.5952C18.8836 86.3275 18.8836 87.5146 19.6158 88.2469C20.348 88.9791 21.5352 88.9791 22.2674 88.2469L24.0563 86.458V88.9879C24.0563 90.0234 24.8957 90.8629 25.9313 90.8629C26.9668 90.8629 27.8063 90.0234 27.8063 88.9879V86.4579L29.5952 88.2469C30.3275 88.9791 31.5147 88.9791 32.2469 88.2469C32.9791 87.5146 32.9791 86.3275 32.2469 85.5952L30.4581 83.8064H32.9879C34.0234 83.8064 34.8629 82.9669 34.8629 81.9314C34.8629 80.8959 34.0234 80.0564 32.9879 80.0564H30.4579L32.2467 78.2676C32.979 77.5353 32.979 76.3482 32.2467 75.6159C31.5145 74.8837 30.3273 74.8837 29.5951 75.6159L27.8063 77.4047V74.875Z" fill="url(#paint6_linear_209_2058)"/>
<g filter="url(#filter1_bi_209_2058)">
<path fill-rule="evenodd" clip-rule="evenodd" d="M77 42C77 42.7882 76.9696 43.5693 76.9099 44.3422C80.1949 41.6296 84.4071 40 89 40C99.4934 40 108 48.5066 108 59C108 69.158 100.029 77.4541 90 77.9741V78H89H19H17V77.896C7.44667 76.8966 0 68.8179 0 59C0 49.1618 7.47752 41.07 17.0593 40.0979C18.0405 24.4156 31.0704 12 47 12C63.5685 12 77 25.4315 77 42Z" fill="url(#paint7_linear_209_2058)"/>
</g>
<defs>
<filter id="filter0_f_209_2058" x="0" y="48" width="107" height="63" filterUnits="userSpaceOnUse" color-interpolation-filters="sRGB">
<feFlood flood-opacity="0" result="BackgroundImageFix"/>
<feBlend mode="normal" in="SourceGraphic" in2="BackgroundImageFix" result="shape"/>
<feGaussianBlur stdDeviation="11" result="effect1_foregroundBlur_209_2058"/>
</filter>
<filter id="filter1_bi_209_2058" x="-7" y="5" width="122" height="80" filterUnits="userSpaceOnUse" color-interpolation-filters="sRGB">
<feFlood flood-opacity="0" result="BackgroundImageFix"/>
<feGaussianBlur in="BackgroundImageFix" stdDeviation="3.5"/>
<feComposite in2="SourceAlpha" operator="in" result="effect1_backgroundBlur_209_2058"/>
<feBlend mode="normal" in="SourceGraphic" in2="effect1_backgroundBlur_209_2058" result="shape"/>
<feColorMatrix in="SourceAlpha" type="matrix" values="0 0 0 0 0 0 0 0 0 0 0 0 0 0 0 0 0 0 127 0" result="hardAlpha"/>
<feOffset dy="2"/>
<feGaussianBlur stdDeviation="4"/>
<feComposite in2="hardAlpha" operator="arithmetic" k2="-1" k3="1"/>
<feColorMatrix type="matrix" values="0 0 0 0 0 0 0 0 0 0.82 0 0 0 0 1 0 0 0 0.25 0"/>
<feBlend mode="normal" in2="shape" result="effect2_innerShadow_209_2058"/>
</filter>
<linearGradient id="paint0_linear_209_2058" x1="95" y1="0" x2="95" y2="53" gradientUnits="userSpaceOnUse">
<stop stop-color="#FDC500"/>
<stop offset="1" stop-color="#FD8900"/>
</linearGradient>
<linearGradient id="paint1_linear_209_2058" x1="14.55" y1="108.248" x2="31.5153" y2="93.9284" gradientUnits="userSpaceOnUse">
<stop stop-color="#0056D6"/>
<stop offset="1" stop-color="#ADD8FF"/>
</linearGradient>
<linearGradient id="paint2_linear_209_2058" x1="64.55" y1="108.248" x2="81.5153" y2="93.9284" gradientUnits="userSpaceOnUse">
<stop stop-color="#0056D6"/>
<stop offset="1" stop-color="#ADD8FF"/>
</linearGradient>
<linearGradient id="paint3_linear_209_2058" x1="44.55" y1="87.2478" x2="61.5153" y2="72.9284" gradientUnits="userSpaceOnUse">
<stop stop-color="#0056D6"/>
<stop offset="1" stop-color="#ADD8FF"/>
</linearGradient>
<linearGradient id="paint4_linear_209_2058" x1="39.55" y1="108.248" x2="56.5153" y2="93.9284" gradientUnits="userSpaceOnUse">
<stop stop-color="#0056D6"/>
<stop offset="1" stop-color="#ADD8FF"/>
</linearGradient>
<linearGradient id="paint5_linear_209_2058" x1="69.55" y1="87.2478" x2="86.5153" y2="72.9284" gradientUnits="userSpaceOnUse">
<stop stop-color="#0056D6"/>
<stop offset="1" stop-color="#ADD8FF"/>
</linearGradient>
<linearGradient id="paint6_linear_209_2058" x1="19.55" y1="87.2478" x2="36.5153" y2="72.9284" gradientUnits="userSpaceOnUse">
<stop stop-color="#0056D6"/>
<stop offset="1" stop-color="#ADD8FF"/>
</linearGradient>
<linearGradient id="paint7_linear_209_2058" x1="56" y1="101.5" x2="96.5" y2="12" gradientUnits="userSpaceOnUse">
<stop stop-color="#0082DF"/>
<stop offset="0.299998" stop-color="#48B2FF" stop-opacity="0.75"/>
<stop offset="1" stop-color="#3BADFF" stop-opacity="0"/>
</linearGradient>
</defs>
</svg>
