<svg width="121" height="115" viewBox="0 0 121 115" fill="none" xmlns="http://www.w3.org/2000/svg">
<path d="M106.323 41.1678C103.816 41.3129 101.305 40.9447 98.9458 40.0858C96.5862 39.2269 94.4271 37.8954 92.6008 36.1729C90.7744 34.4504 89.3195 32.3733 88.325 30.0689C87.3305 27.7645 86.8175 25.2815 86.8175 22.7719C86.8175 20.2624 87.3305 17.7793 88.325 15.4749C89.3195 13.1705 90.7744 11.0934 92.6008 9.37091C94.4271 7.64845 96.5862 6.31694 98.9458 5.45802C101.305 4.59911 103.816 4.23091 106.323 4.37598C107.906 4.36414 109.483 4.57154 111.01 4.99226C106.438 1.70358 100.936 -0.044696 95.3033 0.000868545C89.6703 0.0464331 84.1981 1.88346 79.6799 5.24567C75.1618 8.60788 71.8325 13.3206 70.1745 18.7007C68.5166 24.0808 68.6162 29.8487 70.4589 35.1684C72.3015 40.4882 75.7916 45.0833 80.4231 48.2877C85.0547 51.4922 90.587 53.1394 96.2183 52.9908C101.85 52.8421 107.287 50.9052 111.743 47.4609C116.199 44.0165 119.441 39.2436 121 33.8341C119.296 36.1165 117.081 37.9686 114.532 39.242C111.984 40.5155 109.172 41.175 106.323 41.1678Z" fill="url(#paint0_linear_209_1975)"/>
<path fill-rule="evenodd" clip-rule="evenodd" d="M37.8166 67.8158C37.8166 66.2607 36.556 65 35.0008 65C33.4457 65 32.185 66.2607 32.185 67.8158V71.2029L29.79 68.8079C28.6903 67.7082 26.9074 67.7082 25.8078 68.8079C24.7082 69.9075 24.7082 71.6904 25.8078 72.79L28.203 75.1852H24.8158C23.2607 75.1852 22 76.4459 22 78.001C22 79.5561 23.2607 80.8168 24.8158 80.8168H28.2028L25.8077 83.2119C24.7081 84.3116 24.7081 86.0944 25.8077 87.1941C26.9074 88.2937 28.6902 88.2937 29.7899 87.1941L32.185 84.7989V88.1862C32.185 89.7413 33.4457 91.002 35.0008 91.002C36.556 91.002 37.8166 89.7413 37.8166 88.1862V84.7989L40.2118 87.1941C41.3115 88.2937 43.0944 88.2937 44.194 87.1941C45.2936 86.0944 45.2936 84.3116 44.194 83.2119L41.7989 80.8168H45.1862C46.7413 80.8168 48.002 79.5561 48.002 78.001C48.002 76.4459 46.7413 75.1852 45.1862 75.1852H41.7988L44.1939 72.79C45.2936 71.6904 45.2936 69.9075 44.1939 68.8079C43.0943 67.7082 41.3114 67.7082 40.2118 68.8079L37.8166 71.203V67.8158Z" fill="url(#paint1_linear_209_1975)"/>
<path fill-rule="evenodd" clip-rule="evenodd" d="M72.2649 62.2391C72.2649 60.4502 70.8147 59 69.0258 59C67.2369 59 65.7868 60.4502 65.7868 62.2391V66.1789L63.0009 63.3931C61.736 62.1281 59.6851 62.1281 58.4202 63.3931C57.1553 64.658 57.1553 66.7089 58.4202 67.9738L61.2063 70.7599H57.2662C55.4773 70.7599 54.0271 72.2101 54.0271 73.999C54.0271 75.7879 55.4773 77.238 57.2662 77.238H61.206L58.4199 80.0241C57.155 81.2891 57.155 83.3399 58.4199 84.6049C59.6849 85.8698 61.7357 85.8698 63.0006 84.6049L65.7868 81.8187V85.7589C65.7868 87.5478 67.2369 88.998 69.0258 88.998C70.8147 88.998 72.2649 87.5478 72.2649 85.7589V81.8185L75.0513 84.6049C76.3162 85.8698 78.3671 85.8698 79.632 84.6049C80.8969 83.3399 80.8969 81.2891 79.632 80.0241L76.8459 77.238H80.786C82.5749 77.238 84.0251 75.7879 84.0251 73.999C84.0251 72.2101 82.5749 70.7599 80.786 70.7599H76.8456L79.6317 67.9738C80.8966 66.7089 80.8966 64.658 79.6317 63.3931C78.3668 62.1281 76.3159 62.1281 75.051 63.3931L72.2649 66.1791V62.2391Z" fill="url(#paint2_linear_209_1975)"/>
<path fill-rule="evenodd" clip-rule="evenodd" d="M59.3741 95.3753C59.3741 94.0634 58.3106 93 56.9988 93C55.687 93 54.6235 94.0634 54.6235 95.3753V98.2644L52.5806 96.2215C51.653 95.2939 50.1491 95.2939 49.2215 96.2215C48.2939 97.1491 48.2939 98.653 49.2215 99.5806L51.2646 101.624H48.3753C47.0634 101.624 46 102.687 46 103.999C46 105.311 47.0634 106.374 48.3753 106.374H51.2644L49.2213 108.417C48.2937 109.345 48.2937 110.849 49.2213 111.776C50.1489 112.704 51.6529 112.704 52.5804 111.776L54.6235 109.733V112.623C54.6235 113.935 55.687 114.998 56.9988 114.998C58.3106 114.998 59.3741 113.935 59.3741 112.623V109.733L61.4173 111.776C62.3449 112.704 63.8489 112.704 64.7765 111.776C65.7041 110.849 65.7041 109.345 64.7765 108.417L62.7334 106.374H65.6227C66.9346 106.374 67.998 105.311 67.998 103.999C67.998 102.687 66.9346 101.624 65.6227 101.624H62.7332L64.7763 99.5806C65.7039 98.653 65.7039 97.1491 64.7763 96.2215C63.8487 95.2939 62.3447 95.2939 61.4171 96.2215L59.3741 98.2646V95.3753Z" fill="url(#paint3_linear_209_1975)"/>
<g filter="url(#filter0_f_209_1975)">
<ellipse cx="53.5" cy="79.5" rx="31.5" ry="9.5" fill="#004E67" fill-opacity="0.7"/>
</g>
<g filter="url(#filter1_bi_209_1975)">
<path fill-rule="evenodd" clip-rule="evenodd" d="M77 42C77 42.7882 76.9696 43.5693 76.9099 44.3422C80.1949 41.6296 84.4071 40 89 40C99.4934 40 108 48.5066 108 59C108 69.158 100.029 77.4541 90 77.9741V78H89H19H17V77.896C7.44667 76.8966 0 68.8179 0 59C0 49.1618 7.47752 41.07 17.0593 40.0979C18.0405 24.4156 31.0704 12 47 12C63.5685 12 77 25.4315 77 42Z" fill="url(#paint4_linear_209_1975)"/>
</g>
<path fill-rule="evenodd" clip-rule="evenodd" d="M48.0021 78H22.0001C22.0007 76.4453 23.2611 75.1852 24.8159 75.1852H28.2031L25.8079 72.79C24.7083 71.6904 24.7083 69.9075 25.8079 68.8079C26.9076 67.7082 28.6904 67.7082 29.7901 68.8079L32.1851 71.2029V67.8158C32.1851 66.2607 33.4458 65 35.0009 65C36.5561 65 37.8168 66.2607 37.8168 67.8158V71.203L40.2119 68.8079C41.3115 67.7082 43.0944 67.7082 44.194 68.8079C45.2937 69.9075 45.2937 71.6904 44.194 72.79L41.7989 75.1852H45.1863C46.7411 75.1852 48.0016 76.4453 48.0021 78Z" fill="#A9DDFA"/>
<defs>
<filter id="filter0_f_209_1975" x="0" y="48" width="107" height="63" filterUnits="userSpaceOnUse" color-interpolation-filters="sRGB">
<feFlood flood-opacity="0" result="BackgroundImageFix"/>
<feBlend mode="normal" in="SourceGraphic" in2="BackgroundImageFix" result="shape"/>
<feGaussianBlur stdDeviation="11" result="effect1_foregroundBlur_209_1975"/>
</filter>
<filter id="filter1_bi_209_1975" x="-7" y="5" width="122" height="80" filterUnits="userSpaceOnUse" color-interpolation-filters="sRGB">
<feFlood flood-opacity="0" result="BackgroundImageFix"/>
<feGaussianBlur in="BackgroundImageFix" stdDeviation="3.5"/>
<feComposite in2="SourceAlpha" operator="in" result="effect1_backgroundBlur_209_1975"/>
<feBlend mode="normal" in="SourceGraphic" in2="effect1_backgroundBlur_209_1975" result="shape"/>
<feColorMatrix in="SourceAlpha" type="matrix" values="0 0 0 0 0 0 0 0 0 0 0 0 0 0 0 0 0 0 127 0" result="hardAlpha"/>
<feOffset dy="2"/>
<feGaussianBlur stdDeviation="4"/>
<feComposite in2="hardAlpha" operator="arithmetic" k2="-1" k3="1"/>
<feColorMatrix type="matrix" values="0 0 0 0 0 0 0 0 0 0.82 0 0 0 0 1 0 0 0 0.25 0"/>
<feBlend mode="normal" in2="shape" result="effect2_innerShadow_209_1975"/>
</filter>
<linearGradient id="paint0_linear_209_1975" x1="95" y1="0" x2="95" y2="53" gradientUnits="userSpaceOnUse">
<stop stop-color="#FDC500"/>
<stop offset="1" stop-color="#FD8900"/>
</linearGradient>
<linearGradient id="paint1_linear_209_1975" x1="25.7119" y1="85.7397" x2="50.4073" y2="64.8958" gradientUnits="userSpaceOnUse">
<stop stop-color="#0056D6"/>
<stop offset="1" stop-color="#ADD8FF"/>
</linearGradient>
<linearGradient id="paint2_linear_209_1975" x1="58.3094" y1="82.927" x2="86.8" y2="58.8798" gradientUnits="userSpaceOnUse">
<stop stop-color="#0056D6"/>
<stop offset="1" stop-color="#ADD8FF"/>
</linearGradient>
<linearGradient id="paint3_linear_209_1975" x1="49.1403" y1="110.546" x2="70.0329" y2="92.9119" gradientUnits="userSpaceOnUse">
<stop stop-color="#0056D6"/>
<stop offset="1" stop-color="#ADD8FF"/>
</linearGradient>
<linearGradient id="paint4_linear_209_1975" x1="56" y1="101.5" x2="96.5" y2="12" gradientUnits="userSpaceOnUse">
<stop stop-color="#0082DF"/>
<stop offset="0.299998" stop-color="#48B2FF" stop-opacity="0.75"/>
<stop offset="1" stop-color="#3BADFF" stop-opacity="0"/>
</linearGradient>
</defs>
</svg>
