<svg width="121" height="111" viewBox="0 0 121 111" fill="none" xmlns="http://www.w3.org/2000/svg">
<path d="M106.323 41.1678C103.816 41.3129 101.305 40.9447 98.9458 40.0858C96.5862 39.2269 94.4271 37.8954 92.6008 36.1729C90.7744 34.4504 89.3195 32.3733 88.325 30.0689C87.3305 27.7645 86.8175 25.2815 86.8175 22.7719C86.8175 20.2624 87.3305 17.7793 88.325 15.4749C89.3195 13.1705 90.7744 11.0934 92.6008 9.37091C94.4271 7.64845 96.5862 6.31694 98.9458 5.45802C101.305 4.59911 103.816 4.23091 106.323 4.37598C107.906 4.36414 109.483 4.57154 111.01 4.99226C106.438 1.70358 100.936 -0.044696 95.3033 0.000868545C89.6703 0.0464331 84.1981 1.88346 79.6799 5.24567C75.1618 8.60788 71.8325 13.3206 70.1745 18.7007C68.5166 24.0808 68.6162 29.8487 70.4589 35.1684C72.3015 40.4882 75.7916 45.0833 80.4231 48.2877C85.0547 51.4922 90.587 53.1394 96.2183 52.9908C101.85 52.8421 107.287 50.9052 111.743 47.4609C116.199 44.0165 119.441 39.2436 121 33.8341C119.296 36.1165 117.081 37.9686 114.532 39.242C111.984 40.5155 109.172 41.175 106.323 41.1678Z" fill="url(#paint0_linear_207_1622)"/>
<g filter="url(#filter0_f_207_1622)">
<ellipse cx="53.5" cy="79.5" rx="31.5" ry="9.5" fill="#004E67" fill-opacity="0.7"/>
</g>
<g filter="url(#filter1_bi_207_1622)">
<path fill-rule="evenodd" clip-rule="evenodd" d="M77 42C77 42.7882 76.9696 43.5693 76.9099 44.3422C80.1949 41.6296 84.4071 40 89 40C99.4934 40 108 48.5066 108 59C108 69.158 100.029 77.4541 90 77.9741V78H89H19H17V77.896C7.44667 76.8966 0 68.8179 0 59C0 49.1618 7.47752 41.07 17.0593 40.0979C18.0405 24.4156 31.0704 12 47 12C63.5685 12 77 25.4315 77 42Z" fill="url(#paint1_linear_207_1622)"/>
</g>
<path fill-rule="evenodd" clip-rule="evenodd" d="M26.3256 90.5778C26.732 90.8544 27.2092 91.0013 27.6969 90.9999C28.1384 91.003 28.573 90.8878 28.9578 90.6657C29.3426 90.4435 29.6643 90.1222 29.891 89.7334L57.9342 43.0117C58.293 42.4132 58.4079 41.6938 58.254 41.009C58.1 40.3243 57.6895 39.7293 57.1114 39.3528C56.5157 39.0087 55.8144 38.9118 55.1513 39.0819C54.4882 39.2521 53.9138 39.6763 53.546 40.2675L25.5028 86.9188C25.3159 87.2124 25.1887 87.5417 25.1289 87.887C25.0691 88.2323 25.0778 88.5865 25.1547 88.9282C25.2315 89.2699 25.3748 89.5921 25.5761 89.8756C25.7773 90.1591 26.0322 90.3979 26.3256 90.5778ZM7.60718 90.9999C7.11947 91.0013 6.64229 90.8544 6.23587 90.5778C5.9425 90.3979 5.68756 90.1591 5.48636 89.8756C5.28515 89.5921 5.14182 89.2699 5.06498 88.9282C4.98814 88.5864 4.97934 88.2323 5.03916 87.887C5.09898 87.5417 5.22617 87.2124 5.41308 86.9188L25.5027 53.9885C25.678 53.6874 25.9107 53.4258 26.1869 53.2193C26.4631 53.0128 26.7771 52.8657 27.1101 52.7869C27.4431 52.708 27.7882 52.699 28.1247 52.7604C28.4611 52.8218 28.782 52.9523 29.0681 53.1441C29.6463 53.5207 30.0567 54.1157 30.2107 54.8004C30.3646 55.4851 30.2498 56.2045 29.8909 56.803L9.80123 89.7334C9.57452 90.1222 9.25289 90.4435 8.86808 90.6657C8.48328 90.8878 8.04867 91.003 7.60718 90.9999ZM49.2263 91C48.7386 91.0014 48.2614 90.8544 47.855 90.5778C47.5616 90.3979 47.3067 90.1591 47.1055 89.8756C46.9043 89.5922 46.761 89.2699 46.6841 88.9282C46.6073 88.5865 46.5985 88.2323 46.6583 87.887C46.7181 87.5418 46.8453 87.2125 47.0322 86.9189L61.2252 63.558C61.5921 62.9647 62.172 62.5435 62.8392 62.3854C63.5064 62.2274 64.2074 62.3453 64.7906 62.7136C65.3688 63.0902 65.7792 63.6852 65.9332 64.3699C66.0872 65.0547 65.9723 65.7741 65.6134 66.3726L51.4204 89.7334C51.1887 90.1176 50.866 90.4352 50.4823 90.6567C50.0986 90.8781 49.6665 90.9963 49.2263 91Z" fill="url(#paint2_linear_207_1622)"/>
<path fill-rule="evenodd" clip-rule="evenodd" d="M16.9594 78H16.0001V77.896C14.4507 77.7339 12.9569 77.3857 11.5411 76.874L25.5028 53.9885C25.678 53.6874 25.9107 53.4258 26.1869 53.2193C26.4632 53.0128 26.7772 52.8657 27.1102 52.7869C27.4432 52.708 27.7883 52.699 28.1247 52.7604C28.4612 52.8218 28.7821 52.9523 29.0682 53.1441C29.6463 53.5207 30.0567 54.1157 30.2107 54.8004C30.3647 55.4851 30.2498 56.2045 29.8909 56.803L16.9594 78ZM30.8642 78L53.5461 40.2675C53.9138 39.6763 54.4883 39.2521 55.1513 39.0819C55.8144 38.9118 56.5158 39.0087 57.1114 39.3528C57.6896 39.7293 58.1 40.3243 58.254 41.009C58.408 41.6938 58.2931 42.4132 57.9342 43.0117L36.9336 78H30.8642ZM58.5491 78H52.451L61.2253 63.558C61.5922 62.9647 62.172 62.5435 62.8392 62.3854C63.5065 62.2274 64.2075 62.3453 64.7907 62.7136C65.3688 63.0902 65.7793 63.6852 65.9333 64.3699C66.0872 65.0547 65.9723 65.7741 65.6135 66.3726L58.5491 78Z" fill="#A9DDFA"/>
<defs>
<filter id="filter0_f_207_1622" x="0" y="48" width="107" height="63" filterUnits="userSpaceOnUse" color-interpolation-filters="sRGB">
<feFlood flood-opacity="0" result="BackgroundImageFix"/>
<feBlend mode="normal" in="SourceGraphic" in2="BackgroundImageFix" result="shape"/>
<feGaussianBlur stdDeviation="11" result="effect1_foregroundBlur_207_1622"/>
</filter>
<filter id="filter1_bi_207_1622" x="-7" y="5" width="122" height="80" filterUnits="userSpaceOnUse" color-interpolation-filters="sRGB">
<feFlood flood-opacity="0" result="BackgroundImageFix"/>
<feGaussianBlur in="BackgroundImageFix" stdDeviation="3.5"/>
<feComposite in2="SourceAlpha" operator="in" result="effect1_backgroundBlur_207_1622"/>
<feBlend mode="normal" in="SourceGraphic" in2="effect1_backgroundBlur_207_1622" result="shape"/>
<feColorMatrix in="SourceAlpha" type="matrix" values="0 0 0 0 0 0 0 0 0 0 0 0 0 0 0 0 0 0 127 0" result="hardAlpha"/>
<feOffset dy="2"/>
<feGaussianBlur stdDeviation="4"/>
<feComposite in2="hardAlpha" operator="arithmetic" k2="-1" k3="1"/>
<feColorMatrix type="matrix" values="0 0 0 0 0 0 0 0 0 0.82 0 0 0 0 1 0 0 0 0.25 0"/>
<feBlend mode="normal" in2="shape" result="effect2_innerShadow_207_1622"/>
</filter>
<linearGradient id="paint0_linear_207_1622" x1="95" y1="0" x2="95" y2="53" gradientUnits="userSpaceOnUse">
<stop stop-color="#FDC500"/>
<stop offset="1" stop-color="#FD8900"/>
</linearGradient>
<linearGradient id="paint1_linear_207_1622" x1="56" y1="101.5" x2="96.5" y2="12" gradientUnits="userSpaceOnUse">
<stop stop-color="#0082DF"/>
<stop offset="0.299998" stop-color="#48B2FF" stop-opacity="0.75"/>
<stop offset="1" stop-color="#3BADFF" stop-opacity="0"/>
</linearGradient>
<linearGradient id="paint2_linear_207_1622" x1="35.5" y1="39" x2="35.5" y2="91" gradientUnits="userSpaceOnUse">
<stop stop-color="#D7F0FF"/>
<stop offset="1" stop-color="#0072DC"/>
</linearGradient>
</defs>
</svg>
