<svg width="129" height="108" viewBox="0 0 129 108" fill="none" xmlns="http://www.w3.org/2000/svg">
<g filter="url(#filter0_f_209_2273)">
<ellipse cx="53.5" cy="67.5" rx="31.5" ry="9.5" fill="#004E67" fill-opacity="0.7"/>
</g>
<path d="M6.77724 97.9555C6.28981 97.9718 5.80836 97.8395 5.39366 97.5754C5.09492 97.4046 4.8328 97.1737 4.62301 96.8966C4.41323 96.6194 4.2601 96.3017 4.17284 95.9624C4.08558 95.6232 4.06595 95.2695 4.11518 94.9226C4.1644 94.5756 4.28146 94.2426 4.4593 93.9434L23.5319 60.4138C23.6979 60.1075 23.9225 59.8389 24.1923 59.624C24.462 59.4092 24.7714 59.2526 25.1018 59.1636C25.4323 59.0745 25.7769 59.055 26.1151 59.106C26.4533 59.1571 26.778 59.2777 27.0698 59.4607C27.6592 59.8194 28.0877 60.4016 28.2625 61.0813C28.4374 61.761 28.3446 62.4836 28.0042 63.0927L8.93152 96.6224C8.71682 97.0179 8.40516 97.349 8.02734 97.5828C7.64951 97.8166 7.21862 97.945 6.77724 97.9555Z" fill="url(#paint0_linear_209_2273)"/>
<path d="M34.4836 96.1828C33.9961 96.1991 33.5147 96.0669 33.1 95.8028C32.8012 95.632 32.5391 95.4011 32.3293 95.1239C32.1195 94.8467 31.9665 94.529 31.8792 94.1898C31.7919 93.8506 31.7723 93.4969 31.8215 93.1499C31.8708 92.803 31.9878 92.4699 32.1657 92.1708L45.6372 68.3866C45.9858 67.7823 46.5525 67.3435 47.2146 67.1652C47.8767 66.9868 48.5809 67.0832 49.1751 67.4335C49.7645 67.7922 50.193 68.3743 50.3679 69.054C50.5427 69.7338 50.4499 70.4563 50.1095 71.0655L36.6379 94.8497C36.4181 95.2408 36.1052 95.5681 35.7285 95.8012C35.3518 96.0344 34.9234 96.1656 34.4836 96.1828Z" fill="url(#paint1_linear_209_2273)"/>
<path d="M15.4836 106.183C14.9961 106.199 14.5147 106.067 14.1 105.803C13.8012 105.632 13.5391 105.401 13.3293 105.124C13.1195 104.847 12.9665 104.529 12.8792 104.19C12.7919 103.851 12.7723 103.497 12.8215 103.15C12.8708 102.803 12.9878 102.47 13.1657 102.171L26.6372 78.3866C26.9858 77.7823 27.5525 77.3435 28.2146 77.1652C28.8767 76.9868 29.5809 77.0832 30.1751 77.4335C30.7645 77.7922 31.193 78.3743 31.3679 79.054C31.5427 79.7338 31.4499 80.4563 31.1095 81.0655L17.6379 104.85C17.4181 105.241 17.1052 105.568 16.7285 105.801C16.3518 106.034 15.9234 106.166 15.4836 106.183Z" fill="url(#paint2_linear_209_2273)"/>
<path d="M53.8069 83.2814L66.9076 59.2315C66.9853 59.0888 67.1348 59 67.2973 59H84.2814C84.6114 59 84.826 59.3474 84.6782 59.6426L77.8724 73.2324C77.7246 73.5276 77.9391 73.875 78.2692 73.875H85L47.8784 106.356C47.5053 106.683 46.959 106.245 47.1967 105.81L58.7873 84.5941C58.9489 84.2983 58.7349 83.9375 58.3979 83.9375H54.1966C53.8598 83.9375 53.6458 83.5771 53.8069 83.2814Z" fill="url(#paint3_linear_209_2273)"/>
<g filter="url(#filter1_bi_209_2273)">
<path fill-rule="evenodd" clip-rule="evenodd" d="M77 30C77 30.7882 76.9696 31.5693 76.9099 32.3422C80.1949 29.6296 84.4071 28 89 28C99.4934 28 108 36.5066 108 47C108 57.158 100.029 65.4541 90 65.9741V66H89H19H17V65.896C7.44667 64.8966 0 56.8179 0 47C0 37.1618 7.47752 29.07 17.0593 28.0979C18.0405 12.4156 31.0704 0 47 0C63.5685 0 77 13.4315 77 30Z" fill="url(#paint4_linear_209_2273)"/>
</g>
<path fill-rule="evenodd" clip-rule="evenodd" d="M125.432 47.9113H113.072C112.494 47.8165 111.968 47.5191 111.588 47.0723C111.208 46.6254 111 46.0582 111 45.4719C111 44.8856 111.208 44.3184 111.588 43.8715C111.968 43.4247 112.494 43.1273 113.072 43.0325H125.432C125.786 42.9746 126.148 42.9942 126.493 43.0901C126.838 43.1861 127.159 43.3559 127.432 43.588C127.705 43.82 127.924 44.1087 128.075 44.434C128.225 44.7593 128.303 45.1135 128.303 45.4719C128.303 45.8303 128.225 46.1845 128.075 46.5098C127.924 46.8351 127.705 47.1238 127.432 47.3558C127.159 47.5879 126.838 47.7578 126.493 47.8537C126.148 47.9496 125.786 47.9693 125.432 47.9113ZM98.1033 47.9113H40.0134C39.6597 47.9693 39.2976 47.9496 38.9523 47.8537C38.6069 47.7578 38.2865 47.5879 38.0134 47.3559C37.7402 47.1238 37.5208 46.8351 37.3703 46.5098C37.2198 46.1845 37.1418 45.8303 37.1418 45.4719C37.1418 45.1135 37.2198 44.7593 37.3703 44.434C37.5208 44.1087 37.7402 43.82 38.0134 43.588C38.2865 43.3559 38.6069 43.1861 38.9523 43.0901C39.2976 42.9942 39.6597 42.9746 40.0134 43.0325H98.1033C98.457 42.9746 98.8191 42.9942 99.1645 43.0901C99.5099 43.1861 99.8302 43.3559 100.103 43.588C100.377 43.82 100.596 44.1087 100.746 44.434C100.897 44.7593 100.975 45.1135 100.975 45.4719C100.975 45.8303 100.897 46.1845 100.746 46.5098C100.596 46.8351 100.377 47.1238 100.103 47.3559C99.8302 47.5879 99.5099 47.7578 99.1645 47.8537C98.8191 47.9496 98.457 47.9693 98.1033 47.9113ZM29.8655 74.6139H120.806C121.461 74.6138 122.09 74.3534 122.554 73.8898C123.017 73.4262 123.278 72.7975 123.278 72.1419C123.278 71.4863 123.017 70.8576 122.554 70.394C122.09 69.9304 121.461 69.67 120.806 69.67H29.8655C29.2099 69.67 28.5811 69.9304 28.1175 70.394C27.654 70.8576 27.3936 71.4863 27.3936 72.1419C27.3936 72.7975 27.654 73.4262 28.1175 73.8898C28.5811 74.3534 29.2099 74.6138 29.8655 74.6139ZM81.6456 59.23H13.4078C13.0893 59.239 12.7723 59.1829 12.4762 59.0651C12.1802 58.9473 11.9112 58.7704 11.6859 58.5451C11.4606 58.3198 11.2836 58.0508 11.1659 57.7547C11.0481 57.4587 10.992 57.1416 11.0009 56.8231C10.9922 56.5016 11.0481 56.1816 11.1651 55.8821C11.2822 55.5825 11.4581 55.3095 11.6825 55.079C11.9068 54.8486 12.1751 54.6655 12.4715 54.5405C12.7678 54.4155 13.0862 54.3511 13.4078 54.3513H81.6456C82.2898 54.3682 82.902 54.6361 83.3515 55.0978C83.8011 55.5596 84.0526 56.1786 84.0524 56.8231C84.0524 57.4615 83.7988 58.0737 83.3475 58.5251C82.8961 58.9764 82.2839 59.23 81.6456 59.23ZM95.5661 59.23H115.537C115.855 59.239 116.172 59.1829 116.468 59.0651C116.764 58.9473 117.033 58.7704 117.258 58.5451C117.484 58.3198 117.661 58.0508 117.779 57.7547C117.896 57.4587 117.952 57.1416 117.943 56.8231C117.952 56.5016 117.896 56.1816 117.779 55.8821C117.662 55.5825 117.486 55.3095 117.262 55.079C117.038 54.8486 116.769 54.6655 116.473 54.5405C116.177 54.4155 115.858 54.3511 115.537 54.3513H95.5661C94.9106 54.3513 94.2818 54.6116 93.8182 55.0752C93.3547 55.5388 93.0942 56.1675 93.0942 56.8231C93.0941 57.1447 93.1585 57.4632 93.2835 57.7595C93.4085 58.0558 93.5916 58.3241 93.822 58.5485C94.0525 58.7728 94.3255 58.9488 94.6251 59.0658C94.9247 59.1829 95.2446 59.2387 95.5661 59.23Z" fill="url(#paint5_linear_209_2273)"/>
<path fill-rule="evenodd" clip-rule="evenodd" d="M106.526 54.3513C105.778 56.1317 104.767 57.7742 103.541 59.23H95.566C95.2445 59.2387 94.9245 59.1829 94.625 59.0658C94.3254 58.9488 94.0524 58.7728 93.8219 58.5485C93.5915 58.3241 93.4083 58.0558 93.2833 57.7595C93.1583 57.4632 93.094 57.1447 93.0941 56.8231C93.0941 56.1675 93.3545 55.5388 93.8181 55.0752C94.2817 54.6116 94.9104 54.3513 95.566 54.3513H106.526ZM40.0133 47.9113H98.1032C98.4569 47.9693 98.819 47.9496 99.1644 47.8537C99.5097 47.7578 99.8301 47.5879 100.103 47.3558C100.376 47.1238 100.596 46.8351 100.746 46.5098C100.897 46.1845 100.975 45.8303 100.975 45.4719C100.975 45.1135 100.897 44.7593 100.746 44.434C100.596 44.1087 100.376 43.82 100.103 43.588C99.8301 43.3559 99.5097 43.1861 99.1644 43.0901C98.819 42.9942 98.4569 42.9746 98.1032 43.0325H40.0133C39.6596 42.9746 39.2975 42.9942 38.9522 43.0901C38.6068 43.1861 38.2864 43.3559 38.0133 43.588C37.7401 43.82 37.5207 44.1087 37.3702 44.434C37.2197 44.7593 37.1417 45.1135 37.1417 45.4719C37.1417 45.8303 37.2197 46.1845 37.3702 46.5098C37.5207 46.8351 37.7401 47.1238 38.0133 47.3558C38.2864 47.5879 38.6068 47.7578 38.9522 47.8537C39.2975 47.9496 39.6596 47.9693 40.0133 47.9113ZM13.4077 59.23H81.6454C82.2838 59.23 82.896 58.9764 83.3473 58.5251C83.7987 58.0737 84.0523 57.4615 84.0523 56.8231C84.0525 56.1786 83.801 55.5596 83.3514 55.0978C82.9018 54.6361 82.2897 54.3682 81.6454 54.3513H13.4077C13.0861 54.3511 12.7677 54.4155 12.4713 54.5405C12.175 54.6655 11.9067 54.8486 11.6824 55.079C11.458 55.3095 11.2821 55.5825 11.165 55.8821C11.048 56.1816 10.9921 56.5016 11.0008 56.8231C10.9918 57.1416 11.048 57.4587 11.1657 57.7547C11.2835 58.0508 11.4605 58.3198 11.6858 58.5451C11.9111 58.7704 12.18 58.9473 12.4761 59.0651C12.7722 59.1829 13.0892 59.239 13.4077 59.23Z" fill="#A9DDFA"/>
<defs>
<filter id="filter0_f_209_2273" x="0" y="36" width="107" height="63" filterUnits="userSpaceOnUse" color-interpolation-filters="sRGB">
<feFlood flood-opacity="0" result="BackgroundImageFix"/>
<feBlend mode="normal" in="SourceGraphic" in2="BackgroundImageFix" result="shape"/>
<feGaussianBlur stdDeviation="11" result="effect1_foregroundBlur_209_2273"/>
</filter>
<filter id="filter1_bi_209_2273" x="-7" y="-7" width="122" height="80" filterUnits="userSpaceOnUse" color-interpolation-filters="sRGB">
<feFlood flood-opacity="0" result="BackgroundImageFix"/>
<feGaussianBlur in="BackgroundImageFix" stdDeviation="3.5"/>
<feComposite in2="SourceAlpha" operator="in" result="effect1_backgroundBlur_209_2273"/>
<feBlend mode="normal" in="SourceGraphic" in2="effect1_backgroundBlur_209_2273" result="shape"/>
<feColorMatrix in="SourceAlpha" type="matrix" values="0 0 0 0 0 0 0 0 0 0 0 0 0 0 0 0 0 0 127 0" result="hardAlpha"/>
<feOffset dy="2"/>
<feGaussianBlur stdDeviation="4"/>
<feComposite in2="hardAlpha" operator="arithmetic" k2="-1" k3="1"/>
<feColorMatrix type="matrix" values="0 0 0 0 0 0 0 0 0 0.82 0 0 0 0 1 0 0 0 0.25 0"/>
<feBlend mode="normal" in2="shape" result="effect2_innerShadow_209_2273"/>
</filter>
<linearGradient id="paint0_linear_209_2273" x1="23.5493" y1="46.1793" x2="-4.39357" y2="88.1028" gradientUnits="userSpaceOnUse">
<stop stop-color="#D7F0FF"/>
<stop offset="1" stop-color="#0072DC"/>
</linearGradient>
<linearGradient id="paint1_linear_209_2273" x1="46.7626" y1="57.3958" x2="26.0087" y2="89.2754" gradientUnits="userSpaceOnUse">
<stop stop-color="#D7F0FF"/>
<stop offset="1" stop-color="#0072DC"/>
</linearGradient>
<linearGradient id="paint2_linear_209_2273" x1="27.7626" y1="67.3958" x2="7.00869" y2="99.2754" gradientUnits="userSpaceOnUse">
<stop stop-color="#D7F0FF"/>
<stop offset="1" stop-color="#0072DC"/>
</linearGradient>
<linearGradient id="paint3_linear_209_2273" x1="65.5" y1="59" x2="65.5" y2="108" gradientUnits="userSpaceOnUse">
<stop stop-color="#F8FD00"/>
<stop offset="1" stop-color="#FD9800"/>
</linearGradient>
<linearGradient id="paint4_linear_209_2273" x1="56" y1="89.5" x2="96.5" y2="1.95655e-07" gradientUnits="userSpaceOnUse">
<stop stop-color="#0082DF"/>
<stop offset="0.299998" stop-color="#48B2FF" stop-opacity="0.75"/>
<stop offset="1" stop-color="#3BADFF" stop-opacity="0"/>
</linearGradient>
<linearGradient id="paint5_linear_209_2273" x1="69.6517" y1="-38.5" x2="69.6517" y2="77.5" gradientUnits="userSpaceOnUse">
<stop stop-color="#D7F0FF"/>
<stop offset="1" stop-color="#0072DC"/>
</linearGradient>
</defs>
</svg>
