<svg width="129" height="116" viewBox="0 0 129 116" fill="none" xmlns="http://www.w3.org/2000/svg">
<g filter="url(#filter0_f_209_2384)">
<ellipse cx="53.5" cy="67.5" rx="31.5" ry="9.5" fill="#004E67" fill-opacity="0.7"/>
</g>
<path d="M33.6783 91.2819L46.7791 67.232C46.8568 67.0893 47.0063 67.0005 47.1688 67.0005H64.1528C64.4829 67.0005 64.6975 67.3479 64.5497 67.643L57.7438 81.2329C57.596 81.528 57.8106 81.8755 58.1407 81.8755H64.8715L27.7499 114.357C27.3768 114.683 26.8304 114.245 27.0682 113.81L38.6588 92.5946C38.8204 92.2988 38.6063 91.938 38.2693 91.938H34.0681C33.7313 91.938 33.5172 91.5776 33.6783 91.2819Z" fill="url(#paint0_linear_209_2384)"/>
<path fill-rule="evenodd" clip-rule="evenodd" d="M26.4137 59.6219C27.6335 60.2688 28.0979 61.782 27.451 63.0018L23.7026 70.0693C23.0557 71.2891 21.5424 71.7535 20.3226 71.1066C19.1029 70.4596 18.6385 68.9464 19.2854 67.7266L23.0338 60.6591C23.6807 59.4393 25.194 58.9749 26.4137 59.6219ZM36.9402 63.9005C38.1608 64.5459 38.6271 66.0586 37.9817 67.2792L30.9703 80.5397C30.3249 81.7603 28.8123 82.2265 27.5917 81.5811C26.3711 80.9357 25.9048 79.423 26.5502 78.2024L33.5616 64.9419C34.207 63.7214 35.7197 63.2551 36.9402 63.9005ZM79.2383 64.2339C80.468 64.8618 80.9559 66.3677 80.328 67.5974L67.5945 92.5345C66.9666 93.7641 65.4607 94.252 64.231 93.6241C63.0013 92.9962 62.5135 91.4903 63.1414 90.2606L75.8749 65.3235C76.5028 64.0939 78.0087 63.606 79.2383 64.2339ZM61.9572 98.0771C63.1868 98.705 63.6747 100.211 63.0468 101.441L59.8634 107.675C59.2355 108.904 57.7296 109.392 56.5 108.764C55.2703 108.137 54.7825 106.631 55.4104 105.401L58.5937 99.1667C59.2216 97.937 60.7275 97.4492 61.9572 98.0771ZM77.6089 97.8354C76.9821 99.0657 75.4767 99.5548 74.2464 98.928C73.0162 98.3011 72.5271 96.7957 73.1539 95.5655L76.3319 89.3284C76.9587 88.0982 78.4641 87.6091 79.6944 88.2359C80.9246 88.8627 81.4137 90.3682 80.7869 91.5984L77.6089 97.8354ZM82.4183 82.8898C83.6485 83.5167 85.1539 83.0275 85.7808 81.7973L92.5907 68.4322C93.2175 67.202 92.7284 65.6966 91.4981 65.0698C90.2679 64.4429 88.7625 64.9321 88.1357 66.1623L81.3257 79.5274C80.6989 80.7576 81.188 82.263 82.4183 82.8898ZM26.2952 89.3796C26.9406 88.159 26.4744 86.6463 25.2538 86.0009C24.0332 85.3555 22.5205 85.8217 21.8751 87.0423L18.603 93.2304C17.9576 94.451 18.4238 95.9637 19.6444 96.6091C20.865 97.2545 22.3777 96.7883 23.0231 95.5677L26.2952 89.3796ZM17.8811 105.292C18.5265 104.071 18.0602 102.559 16.8397 101.913C15.6191 101.268 14.1064 101.734 13.461 102.955L10.1888 109.143C9.54338 110.363 10.0096 111.876 11.2302 112.521C12.4508 113.167 13.9635 112.701 14.6089 111.48L17.8811 105.292ZM18.08 80.6706C18.727 79.4508 18.2626 77.9376 17.0428 77.2906C15.823 76.6437 14.3098 77.1081 13.6628 78.3279L4.2919 95.9966C3.64497 97.2164 4.10936 98.7297 5.32913 99.3766C6.54891 100.024 8.06217 99.5591 8.7091 98.3394L18.08 80.6706Z" fill="url(#paint1_linear_209_2384)"/>
<path fill-rule="evenodd" clip-rule="evenodd" d="M33.959 75.0005H28.3283L33.8437 64.3508C34.4787 63.1247 35.9874 62.6456 37.2134 63.2805C38.4394 63.9155 38.9186 65.4241 38.2836 66.6502L33.959 75.0005ZM76.6033 75.0005H70.9922L76.1537 64.8659C76.7803 63.6356 78.2857 63.1461 79.516 63.7728C80.7464 64.3994 81.2358 65.9047 80.6092 67.135L76.6033 75.0005ZM89.4221 74.6693C88.5898 74.8266 87.7383 74.9297 86.8714 74.9746V75.0005H85.8714H83.6412C83.675 74.9113 83.7143 74.8231 83.7591 74.7363L88.3505 65.8527C88.9844 64.6261 90.4927 64.1457 91.7193 64.7796C92.9459 65.4135 93.4263 66.9217 92.7924 68.1482L89.4221 74.6693ZM19.2546 67.6534C18.6122 68.8755 19.0823 70.387 20.3045 71.0294C21.5267 71.6717 23.0382 71.2017 23.6806 69.9795L27.5258 62.6636C28.1682 61.4414 27.6982 59.9299 26.476 59.2875C25.2538 58.6452 23.7423 59.1152 23.0999 60.3374L19.2546 67.6534Z" fill="#A9DDFA"/>
<g filter="url(#filter1_bi_209_2384)">
<path fill-rule="evenodd" clip-rule="evenodd" d="M77 30C77 30.7882 76.9696 31.5693 76.9099 32.3422C80.1949 29.6296 84.4071 28 89 28C99.4934 28 108 36.5066 108 47C108 57.158 100.029 65.4541 90 65.9741V66H89H19H17V65.896C7.44667 64.8966 0 56.8179 0 47C0 37.1618 7.47752 29.07 17.0593 28.0979C18.0405 12.4156 31.0704 0 47 0C63.5685 0 77 13.4315 77 30Z" fill="url(#paint2_linear_209_2384)"/>
</g>
<path fill-rule="evenodd" clip-rule="evenodd" d="M125.432 47.9113H113.072C112.494 47.8165 111.968 47.5191 111.588 47.0723C111.208 46.6254 111 46.0582 111 45.4719C111 44.8856 111.208 44.3184 111.588 43.8715C111.968 43.4247 112.494 43.1273 113.072 43.0325H125.432C125.786 42.9746 126.148 42.9942 126.493 43.0901C126.838 43.1861 127.159 43.3559 127.432 43.588C127.705 43.82 127.924 44.1087 128.075 44.434C128.225 44.7593 128.303 45.1135 128.303 45.4719C128.303 45.8303 128.225 46.1845 128.075 46.5098C127.924 46.8351 127.705 47.1238 127.432 47.3558C127.159 47.5879 126.838 47.7578 126.493 47.8537C126.148 47.9496 125.786 47.9693 125.432 47.9113ZM98.1033 47.9113H40.0134C39.6597 47.9693 39.2976 47.9496 38.9523 47.8537C38.6069 47.7578 38.2865 47.5879 38.0134 47.3559C37.7402 47.1238 37.5208 46.8351 37.3703 46.5098C37.2198 46.1845 37.1418 45.8303 37.1418 45.4719C37.1418 45.1135 37.2198 44.7593 37.3703 44.434C37.5208 44.1087 37.7402 43.82 38.0134 43.588C38.2865 43.3559 38.6069 43.1861 38.9523 43.0901C39.2976 42.9942 39.6597 42.9746 40.0134 43.0325H98.1033C98.457 42.9746 98.8191 42.9942 99.1645 43.0901C99.5099 43.1861 99.8302 43.3559 100.103 43.588C100.377 43.82 100.596 44.1087 100.746 44.434C100.897 44.7593 100.975 45.1135 100.975 45.4719C100.975 45.8303 100.897 46.1845 100.746 46.5098C100.596 46.8351 100.377 47.1238 100.103 47.3559C99.8302 47.5879 99.5099 47.7578 99.1645 47.8537C98.8191 47.9496 98.457 47.9693 98.1033 47.9113ZM29.8655 74.6139H120.806C121.461 74.6138 122.09 74.3534 122.554 73.8898C123.017 73.4262 123.278 72.7975 123.278 72.1419C123.278 71.4863 123.017 70.8576 122.554 70.394C122.09 69.9304 121.461 69.67 120.806 69.67H29.8655C29.2099 69.67 28.5811 69.9304 28.1175 70.394C27.654 70.8576 27.3936 71.4863 27.3936 72.1419C27.3936 72.7975 27.654 73.4262 28.1175 73.8898C28.5811 74.3534 29.2099 74.6138 29.8655 74.6139ZM81.6456 59.23H13.4078C13.0893 59.239 12.7723 59.1829 12.4762 59.0651C12.1802 58.9473 11.9112 58.7704 11.6859 58.5451C11.4606 58.3198 11.2836 58.0508 11.1659 57.7547C11.0481 57.4587 10.992 57.1416 11.0009 56.8231C10.9922 56.5016 11.0481 56.1816 11.1651 55.8821C11.2822 55.5825 11.4581 55.3095 11.6825 55.079C11.9068 54.8486 12.1751 54.6655 12.4715 54.5405C12.7678 54.4155 13.0862 54.3511 13.4078 54.3513H81.6456C82.2898 54.3682 82.902 54.6361 83.3515 55.0978C83.8011 55.5596 84.0526 56.1786 84.0524 56.8231C84.0524 57.4615 83.7988 58.0737 83.3475 58.5251C82.8961 58.9764 82.2839 59.23 81.6456 59.23ZM95.5661 59.23H115.537C115.855 59.239 116.172 59.1829 116.468 59.0651C116.764 58.9473 117.033 58.7704 117.258 58.5451C117.484 58.3198 117.661 58.0508 117.779 57.7547C117.896 57.4587 117.952 57.1416 117.943 56.8231C117.952 56.5016 117.896 56.1816 117.779 55.8821C117.662 55.5825 117.486 55.3095 117.262 55.079C117.038 54.8486 116.769 54.6655 116.473 54.5405C116.177 54.4155 115.858 54.3511 115.537 54.3513H95.5661C94.9106 54.3513 94.2818 54.6116 93.8182 55.0752C93.3547 55.5388 93.0942 56.1675 93.0942 56.8231C93.0941 57.1447 93.1585 57.4632 93.2835 57.7595C93.4085 58.0558 93.5916 58.3241 93.822 58.5485C94.0525 58.7728 94.3255 58.9488 94.6251 59.0658C94.9247 59.1829 95.2446 59.2387 95.5661 59.23Z" fill="url(#paint3_linear_209_2384)"/>
<path fill-rule="evenodd" clip-rule="evenodd" d="M106.526 54.3513C105.778 56.1317 104.767 57.7742 103.541 59.23H95.566C95.2445 59.2387 94.9245 59.1829 94.625 59.0658C94.3254 58.9488 94.0524 58.7728 93.8219 58.5485C93.5915 58.3241 93.4083 58.0558 93.2833 57.7595C93.1583 57.4632 93.094 57.1447 93.0941 56.8231C93.0941 56.1675 93.3545 55.5388 93.8181 55.0752C94.2817 54.6116 94.9104 54.3513 95.566 54.3513H106.526ZM40.0133 47.9113H98.1032C98.4569 47.9693 98.819 47.9496 99.1644 47.8537C99.5097 47.7578 99.8301 47.5879 100.103 47.3558C100.376 47.1238 100.596 46.8351 100.746 46.5098C100.897 46.1845 100.975 45.8303 100.975 45.4719C100.975 45.1135 100.897 44.7593 100.746 44.434C100.596 44.1087 100.376 43.82 100.103 43.588C99.8301 43.3559 99.5097 43.1861 99.1644 43.0901C98.819 42.9942 98.4569 42.9746 98.1032 43.0325H40.0133C39.6596 42.9746 39.2975 42.9942 38.9522 43.0901C38.6068 43.1861 38.2864 43.3559 38.0133 43.588C37.7401 43.82 37.5207 44.1087 37.3702 44.434C37.2197 44.7593 37.1417 45.1135 37.1417 45.4719C37.1417 45.8303 37.2197 46.1845 37.3702 46.5098C37.5207 46.8351 37.7401 47.1238 38.0133 47.3558C38.2864 47.5879 38.6068 47.7578 38.9522 47.8537C39.2975 47.9496 39.6596 47.9693 40.0133 47.9113ZM13.4077 59.23H81.6454C82.2838 59.23 82.896 58.9764 83.3473 58.5251C83.7987 58.0737 84.0523 57.4615 84.0523 56.8231C84.0525 56.1786 83.801 55.5596 83.3514 55.0978C82.9018 54.6361 82.2897 54.3682 81.6454 54.3513H13.4077C13.0861 54.3511 12.7677 54.4155 12.4713 54.5405C12.175 54.6655 11.9067 54.8486 11.6824 55.079C11.458 55.3095 11.2821 55.5825 11.165 55.8821C11.048 56.1816 10.9921 56.5016 11.0008 56.8231C10.9918 57.1416 11.048 57.4587 11.1657 57.7547C11.2835 58.0508 11.4605 58.3198 11.6858 58.5451C11.9111 58.7704 12.18 58.9473 12.4761 59.0651C12.7722 59.1829 13.0892 59.239 13.4077 59.23Z" fill="#A9DDFA"/>
<defs>
<filter id="filter0_f_209_2384" x="0" y="36" width="107" height="63" filterUnits="userSpaceOnUse" color-interpolation-filters="sRGB">
<feFlood flood-opacity="0" result="BackgroundImageFix"/>
<feBlend mode="normal" in="SourceGraphic" in2="BackgroundImageFix" result="shape"/>
<feGaussianBlur stdDeviation="11" result="effect1_foregroundBlur_209_2384"/>
</filter>
<filter id="filter1_bi_209_2384" x="-7" y="-7" width="122" height="80" filterUnits="userSpaceOnUse" color-interpolation-filters="sRGB">
<feFlood flood-opacity="0" result="BackgroundImageFix"/>
<feGaussianBlur in="BackgroundImageFix" stdDeviation="3.5"/>
<feComposite in2="SourceAlpha" operator="in" result="effect1_backgroundBlur_209_2384"/>
<feBlend mode="normal" in="SourceGraphic" in2="effect1_backgroundBlur_209_2384" result="shape"/>
<feColorMatrix in="SourceAlpha" type="matrix" values="0 0 0 0 0 0 0 0 0 0 0 0 0 0 0 0 0 0 127 0" result="hardAlpha"/>
<feOffset dy="2"/>
<feGaussianBlur stdDeviation="4"/>
<feComposite in2="hardAlpha" operator="arithmetic" k2="-1" k3="1"/>
<feColorMatrix type="matrix" values="0 0 0 0 0 0 0 0 0 0.82 0 0 0 0 1 0 0 0 0.25 0"/>
<feBlend mode="normal" in2="shape" result="effect2_innerShadow_209_2384"/>
</filter>
<linearGradient id="paint0_linear_209_2384" x1="45.3715" y1="67.0005" x2="45.3715" y2="116" gradientUnits="userSpaceOnUse">
<stop stop-color="#F8FD00"/>
<stop offset="1" stop-color="#FD9800"/>
</linearGradient>
<linearGradient id="paint1_linear_209_2384" x1="50.3714" y1="50.0005" x2="50.3714" y2="105" gradientUnits="userSpaceOnUse">
<stop offset="0.168182" stop-color="#D7F0FF"/>
<stop offset="1" stop-color="#0072DC"/>
</linearGradient>
<linearGradient id="paint2_linear_209_2384" x1="56" y1="89.5" x2="96.5" y2="1.95655e-07" gradientUnits="userSpaceOnUse">
<stop stop-color="#0082DF"/>
<stop offset="0.299998" stop-color="#48B2FF" stop-opacity="0.75"/>
<stop offset="1" stop-color="#3BADFF" stop-opacity="0"/>
</linearGradient>
<linearGradient id="paint3_linear_209_2384" x1="69.6517" y1="-38.5" x2="69.6517" y2="77.5" gradientUnits="userSpaceOnUse">
<stop stop-color="#D7F0FF"/>
<stop offset="1" stop-color="#0072DC"/>
</linearGradient>
</defs>
</svg>
