<svg width="129" height="107" viewBox="0 0 129 107" fill="none" xmlns="http://www.w3.org/2000/svg">
<g filter="url(#filter0_f_209_2714)">
<ellipse cx="53.5" cy="67.5" rx="31.5" ry="9.5" fill="#004E67" fill-opacity="0.7"/>
</g>
<path fill-rule="evenodd" clip-rule="evenodd" d="M23.8063 90.875C23.8063 89.8395 22.9668 89 21.9313 89C20.8957 89 20.0563 89.8395 20.0563 90.875V93.4046L18.2676 91.6159C17.5354 90.8837 16.3482 90.8837 15.6159 91.6159C14.8837 92.3482 14.8837 93.5353 15.6159 94.2676L17.4048 96.0564H14.875C13.8395 96.0564 13 96.8959 13 97.9314C13 98.9669 13.8395 99.8064 14.875 99.8064H17.4046L15.6158 101.595C14.8836 102.327 14.8836 103.515 15.6158 104.247C16.348 104.979 17.5352 104.979 18.2674 104.247L20.0563 102.458V104.988C20.0563 106.023 20.8957 106.863 21.9313 106.863C22.9668 106.863 23.8063 106.023 23.8063 104.988V102.458L25.5952 104.247C26.3275 104.979 27.5147 104.979 28.2469 104.247C28.9791 103.515 28.9791 102.327 28.2469 101.595L26.4581 99.8064H28.9879C30.0234 99.8064 30.8629 98.9669 30.8629 97.9314C30.8629 96.8959 30.0234 96.0564 28.9879 96.0564H26.4579L28.2467 94.2676C28.979 93.5353 28.979 92.3482 28.2467 91.6159C27.5145 90.8837 26.3273 90.8837 25.5951 91.6159L23.8063 93.4047V90.875Z" fill="url(#paint0_linear_209_2714)"/>
<path fill-rule="evenodd" clip-rule="evenodd" d="M73.8063 90.875C73.8063 89.8395 72.9668 89 71.9313 89C70.8957 89 70.0563 89.8395 70.0563 90.875V93.4046L68.2676 91.6159C67.5354 90.8837 66.3482 90.8837 65.6159 91.6159C64.8837 92.3482 64.8837 93.5353 65.6159 94.2676L67.4048 96.0564H64.875C63.8395 96.0564 63 96.8959 63 97.9314C63 98.9669 63.8395 99.8064 64.875 99.8064H67.4046L65.6158 101.595C64.8836 102.327 64.8836 103.515 65.6158 104.247C66.348 104.979 67.5352 104.979 68.2674 104.247L70.0563 102.458V104.988C70.0563 106.023 70.8957 106.863 71.9313 106.863C72.9668 106.863 73.8063 106.023 73.8063 104.988V102.458L75.5952 104.247C76.3275 104.979 77.5147 104.979 78.2469 104.247C78.9791 103.515 78.9791 102.327 78.2469 101.595L76.4581 99.8064H78.9879C80.0234 99.8064 80.8629 98.9669 80.8629 97.9314C80.8629 96.8959 80.0234 96.0564 78.9879 96.0564H76.4579L78.2467 94.2676C78.979 93.5353 78.979 92.3482 78.2467 91.6159C77.5145 90.8837 76.3273 90.8837 75.5951 91.6159L73.8063 93.4047V90.875Z" fill="url(#paint1_linear_209_2714)"/>
<path fill-rule="evenodd" clip-rule="evenodd" d="M53.8063 69.875C53.8063 68.8395 52.9668 68 51.9313 68C50.8957 68 50.0563 68.8395 50.0563 69.875V72.4046L48.2676 70.6159C47.5354 69.8837 46.3482 69.8837 45.6159 70.6159C44.8837 71.3482 44.8837 72.5353 45.6159 73.2676L47.4048 75.0564H44.875C43.8395 75.0564 43 75.8959 43 76.9314C43 77.9669 43.8395 78.8064 44.875 78.8064H47.4046L45.6158 80.5952C44.8836 81.3275 44.8836 82.5146 45.6158 83.2469C46.348 83.9791 47.5352 83.9791 48.2674 83.2469L50.0563 81.458V83.9879C50.0563 85.0234 50.8957 85.8629 51.9313 85.8629C52.9668 85.8629 53.8063 85.0234 53.8063 83.9879V81.4579L55.5952 83.2469C56.3275 83.9791 57.5147 83.9791 58.2469 83.2469C58.9791 82.5146 58.9791 81.3275 58.2469 80.5952L56.4581 78.8064H58.9879C60.0234 78.8064 60.8629 77.9669 60.8629 76.9314C60.8629 75.8959 60.0234 75.0564 58.9879 75.0564H56.4579L58.2467 73.2676C58.979 72.5353 58.979 71.3482 58.2467 70.6159C57.5145 69.8837 56.3273 69.8837 55.5951 70.6159L53.8063 72.4047V69.875Z" fill="url(#paint2_linear_209_2714)"/>
<path fill-rule="evenodd" clip-rule="evenodd" d="M48.8063 90.875C48.8063 89.8395 47.9668 89 46.9313 89C45.8957 89 45.0563 89.8395 45.0563 90.875V93.4046L43.2676 91.6159C42.5354 90.8837 41.3482 90.8837 40.6159 91.6159C39.8837 92.3482 39.8837 93.5353 40.6159 94.2676L42.4048 96.0564H39.875C38.8395 96.0564 38 96.8959 38 97.9314C38 98.9669 38.8395 99.8064 39.875 99.8064H42.4046L40.6158 101.595C39.8836 102.327 39.8836 103.515 40.6158 104.247C41.348 104.979 42.5352 104.979 43.2674 104.247L45.0563 102.458V104.988C45.0563 106.023 45.8957 106.863 46.9313 106.863C47.9668 106.863 48.8063 106.023 48.8063 104.988V102.458L50.5952 104.247C51.3275 104.979 52.5147 104.979 53.2469 104.247C53.9791 103.515 53.9791 102.327 53.2469 101.595L51.4581 99.8064H53.9879C55.0234 99.8064 55.8629 98.9669 55.8629 97.9314C55.8629 96.8959 55.0234 96.0564 53.9879 96.0564H51.4579L53.2467 94.2676C53.979 93.5353 53.979 92.3482 53.2467 91.6159C52.5145 90.8837 51.3273 90.8837 50.5951 91.6159L48.8063 93.4047V90.875Z" fill="url(#paint3_linear_209_2714)"/>
<path fill-rule="evenodd" clip-rule="evenodd" d="M78.8063 69.875C78.8063 68.8395 77.9668 68 76.9313 68C75.8957 68 75.0563 68.8395 75.0563 69.875V72.4046L73.2676 70.6159C72.5354 69.8837 71.3482 69.8837 70.6159 70.6159C69.8837 71.3482 69.8837 72.5353 70.6159 73.2676L72.4048 75.0564H69.875C68.8395 75.0564 68 75.8959 68 76.9314C68 77.9669 68.8395 78.8064 69.875 78.8064H72.4046L70.6158 80.5952C69.8836 81.3275 69.8836 82.5146 70.6158 83.2469C71.348 83.9791 72.5352 83.9791 73.2674 83.2469L75.0563 81.458V83.9879C75.0563 85.0234 75.8957 85.8629 76.9313 85.8629C77.9668 85.8629 78.8063 85.0234 78.8063 83.9879V81.4579L80.5952 83.2469C81.3275 83.9791 82.5147 83.9791 83.2469 83.2469C83.9791 82.5146 83.9791 81.3275 83.2469 80.5952L81.4581 78.8064H83.9879C85.0234 78.8064 85.8629 77.9669 85.8629 76.9314C85.8629 75.8959 85.0234 75.0564 83.9879 75.0564H81.4579L83.2467 73.2676C83.979 72.5353 83.979 71.3482 83.2467 70.6159C82.5145 69.8837 81.3273 69.8837 80.5951 70.6159L78.8063 72.4047V69.875Z" fill="url(#paint4_linear_209_2714)"/>
<path fill-rule="evenodd" clip-rule="evenodd" d="M28.8063 69.875C28.8063 68.8395 27.9668 68 26.9313 68C25.8957 68 25.0563 68.8395 25.0563 69.875V72.4046L23.2676 70.6159C22.5354 69.8837 21.3482 69.8837 20.6159 70.6159C19.8837 71.3482 19.8837 72.5353 20.6159 73.2676L22.4048 75.0564H19.875C18.8395 75.0564 18 75.8959 18 76.9314C18 77.9669 18.8395 78.8064 19.875 78.8064H22.4046L20.6158 80.5952C19.8836 81.3275 19.8836 82.5146 20.6158 83.2469C21.348 83.9791 22.5352 83.9791 23.2674 83.2469L25.0563 81.458V83.9879C25.0563 85.0234 25.8957 85.8629 26.9313 85.8629C27.9668 85.8629 28.8063 85.0234 28.8063 83.9879V81.4579L30.5952 83.2469C31.3275 83.9791 32.5147 83.9791 33.2469 83.2469C33.9791 82.5146 33.9791 81.3275 33.2469 80.5952L31.4581 78.8064H33.9879C35.0234 78.8064 35.8629 77.9669 35.8629 76.9314C35.8629 75.8959 35.0234 75.0564 33.9879 75.0564H31.4579L33.2467 73.2676C33.979 72.5353 33.979 71.3482 33.2467 70.6159C32.5145 69.8837 31.3273 69.8837 30.5951 70.6159L28.8063 72.4047V69.875Z" fill="url(#paint5_linear_209_2714)"/>
<g filter="url(#filter1_bi_209_2714)">
<path fill-rule="evenodd" clip-rule="evenodd" d="M77 30C77 30.7882 76.9696 31.5693 76.9099 32.3422C80.1949 29.6296 84.4071 28 89 28C99.4934 28 108 36.5066 108 47C108 57.158 100.029 65.4541 90 65.9741V66H89H19H17V65.896C7.44667 64.8966 0 56.8179 0 47C0 37.1618 7.47752 29.07 17.0593 28.0979C18.0405 12.4156 31.0704 0 47 0C63.5685 0 77 13.4315 77 30Z" fill="url(#paint6_linear_209_2714)"/>
</g>
<path fill-rule="evenodd" clip-rule="evenodd" d="M125.432 47.9113H113.072C112.494 47.8165 111.968 47.5191 111.588 47.0723C111.208 46.6254 111 46.0582 111 45.4719C111 44.8856 111.208 44.3184 111.588 43.8715C111.968 43.4247 112.494 43.1273 113.072 43.0325H125.432C125.786 42.9746 126.148 42.9942 126.493 43.0901C126.838 43.1861 127.159 43.3559 127.432 43.588C127.705 43.82 127.924 44.1087 128.075 44.434C128.225 44.7593 128.303 45.1135 128.303 45.4719C128.303 45.8303 128.225 46.1845 128.075 46.5098C127.924 46.8351 127.705 47.1238 127.432 47.3558C127.159 47.5879 126.838 47.7578 126.493 47.8537C126.148 47.9496 125.786 47.9693 125.432 47.9113ZM98.1033 47.9113H40.0134C39.6597 47.9693 39.2976 47.9496 38.9523 47.8537C38.6069 47.7578 38.2865 47.5879 38.0134 47.3559C37.7402 47.1238 37.5208 46.8351 37.3703 46.5098C37.2198 46.1845 37.1418 45.8303 37.1418 45.4719C37.1418 45.1135 37.2198 44.7593 37.3703 44.434C37.5208 44.1087 37.7402 43.82 38.0134 43.588C38.2865 43.3559 38.6069 43.1861 38.9523 43.0901C39.2976 42.9942 39.6597 42.9746 40.0134 43.0325H98.1033C98.457 42.9746 98.8191 42.9942 99.1645 43.0901C99.5099 43.1861 99.8302 43.3559 100.103 43.588C100.377 43.82 100.596 44.1087 100.746 44.434C100.897 44.7593 100.975 45.1135 100.975 45.4719C100.975 45.8303 100.897 46.1845 100.746 46.5098C100.596 46.8351 100.377 47.1238 100.103 47.3559C99.8302 47.5879 99.5099 47.7578 99.1645 47.8537C98.8191 47.9496 98.457 47.9693 98.1033 47.9113ZM29.8655 74.6139H120.806C121.461 74.6138 122.09 74.3534 122.554 73.8898C123.017 73.4262 123.278 72.7975 123.278 72.1419C123.278 71.4863 123.017 70.8576 122.554 70.394C122.09 69.9304 121.461 69.67 120.806 69.67H29.8655C29.2099 69.67 28.5811 69.9304 28.1175 70.394C27.654 70.8576 27.3936 71.4863 27.3936 72.1419C27.3936 72.7975 27.654 73.4262 28.1175 73.8898C28.5811 74.3534 29.2099 74.6138 29.8655 74.6139ZM81.6456 59.23H13.4078C13.0893 59.239 12.7723 59.1829 12.4762 59.0651C12.1802 58.9473 11.9112 58.7704 11.6859 58.5451C11.4606 58.3198 11.2836 58.0508 11.1659 57.7547C11.0481 57.4587 10.992 57.1416 11.0009 56.8231C10.9922 56.5016 11.0481 56.1816 11.1651 55.8821C11.2822 55.5825 11.4581 55.3095 11.6825 55.079C11.9068 54.8486 12.1751 54.6655 12.4715 54.5405C12.7678 54.4155 13.0862 54.3511 13.4078 54.3513H81.6456C82.2898 54.3682 82.902 54.6361 83.3515 55.0978C83.8011 55.5596 84.0526 56.1786 84.0524 56.8231C84.0524 57.4615 83.7988 58.0737 83.3475 58.5251C82.8961 58.9764 82.2839 59.23 81.6456 59.23ZM95.5661 59.23H115.537C115.855 59.239 116.172 59.1829 116.468 59.0651C116.764 58.9473 117.033 58.7704 117.258 58.5451C117.484 58.3198 117.661 58.0508 117.779 57.7547C117.896 57.4587 117.952 57.1416 117.943 56.8231C117.952 56.5016 117.896 56.1816 117.779 55.8821C117.662 55.5825 117.486 55.3095 117.262 55.079C117.038 54.8486 116.769 54.6655 116.473 54.5405C116.177 54.4155 115.858 54.3511 115.537 54.3513H95.5661C94.9106 54.3513 94.2818 54.6116 93.8182 55.0752C93.3547 55.5388 93.0942 56.1675 93.0942 56.8231C93.0941 57.1447 93.1585 57.4632 93.2835 57.7595C93.4085 58.0558 93.5916 58.3241 93.822 58.5485C94.0525 58.7728 94.3255 58.9488 94.6251 59.0658C94.9247 59.1829 95.2446 59.2387 95.5661 59.23Z" fill="url(#paint7_linear_209_2714)"/>
<path fill-rule="evenodd" clip-rule="evenodd" d="M106.526 54.3513C105.778 56.1317 104.767 57.7742 103.541 59.23H95.566C95.2445 59.2387 94.9245 59.1829 94.625 59.0658C94.3254 58.9488 94.0524 58.7728 93.8219 58.5485C93.5915 58.3241 93.4083 58.0558 93.2833 57.7595C93.1583 57.4632 93.094 57.1447 93.0941 56.8231C93.0941 56.1675 93.3545 55.5388 93.8181 55.0752C94.2817 54.6116 94.9104 54.3513 95.566 54.3513H106.526ZM40.0133 47.9113H98.1032C98.4569 47.9693 98.819 47.9496 99.1644 47.8537C99.5097 47.7578 99.8301 47.5879 100.103 47.3558C100.376 47.1238 100.596 46.8351 100.746 46.5098C100.897 46.1845 100.975 45.8303 100.975 45.4719C100.975 45.1135 100.897 44.7593 100.746 44.434C100.596 44.1087 100.376 43.82 100.103 43.588C99.8301 43.3559 99.5097 43.1861 99.1644 43.0901C98.819 42.9942 98.4569 42.9746 98.1032 43.0325H40.0133C39.6596 42.9746 39.2975 42.9942 38.9522 43.0901C38.6068 43.1861 38.2864 43.3559 38.0133 43.588C37.7401 43.82 37.5207 44.1087 37.3702 44.434C37.2197 44.7593 37.1417 45.1135 37.1417 45.4719C37.1417 45.8303 37.2197 46.1845 37.3702 46.5098C37.5207 46.8351 37.7401 47.1238 38.0133 47.3558C38.2864 47.5879 38.6068 47.7578 38.9522 47.8537C39.2975 47.9496 39.6596 47.9693 40.0133 47.9113ZM13.4077 59.23H81.6454C82.2838 59.23 82.896 58.9764 83.3473 58.5251C83.7987 58.0737 84.0523 57.4615 84.0523 56.8231C84.0525 56.1786 83.801 55.5596 83.3514 55.0978C82.9018 54.6361 82.2897 54.3682 81.6454 54.3513H13.4077C13.0861 54.3511 12.7677 54.4155 12.4713 54.5405C12.175 54.6655 11.9067 54.8486 11.6824 55.079C11.458 55.3095 11.2821 55.5825 11.165 55.8821C11.048 56.1816 10.9921 56.5016 11.0008 56.8231C10.9918 57.1416 11.048 57.4587 11.1657 57.7547C11.2835 58.0508 11.4605 58.3198 11.6858 58.5451C11.9111 58.7704 12.18 58.9473 12.4761 59.0651C12.7722 59.1829 13.0892 59.239 13.4077 59.23Z" fill="#A9DDFA"/>
<defs>
<filter id="filter0_f_209_2714" x="0" y="36" width="107" height="63" filterUnits="userSpaceOnUse" color-interpolation-filters="sRGB">
<feFlood flood-opacity="0" result="BackgroundImageFix"/>
<feBlend mode="normal" in="SourceGraphic" in2="BackgroundImageFix" result="shape"/>
<feGaussianBlur stdDeviation="11" result="effect1_foregroundBlur_209_2714"/>
</filter>
<filter id="filter1_bi_209_2714" x="-7" y="-7" width="122" height="80" filterUnits="userSpaceOnUse" color-interpolation-filters="sRGB">
<feFlood flood-opacity="0" result="BackgroundImageFix"/>
<feGaussianBlur in="BackgroundImageFix" stdDeviation="3.5"/>
<feComposite in2="SourceAlpha" operator="in" result="effect1_backgroundBlur_209_2714"/>
<feBlend mode="normal" in="SourceGraphic" in2="effect1_backgroundBlur_209_2714" result="shape"/>
<feColorMatrix in="SourceAlpha" type="matrix" values="0 0 0 0 0 0 0 0 0 0 0 0 0 0 0 0 0 0 127 0" result="hardAlpha"/>
<feOffset dy="2"/>
<feGaussianBlur stdDeviation="4"/>
<feComposite in2="hardAlpha" operator="arithmetic" k2="-1" k3="1"/>
<feColorMatrix type="matrix" values="0 0 0 0 0 0 0 0 0 0.82 0 0 0 0 1 0 0 0 0.25 0"/>
<feBlend mode="normal" in2="shape" result="effect2_innerShadow_209_2714"/>
</filter>
<linearGradient id="paint0_linear_209_2714" x1="15.55" y1="103.248" x2="32.5153" y2="88.9284" gradientUnits="userSpaceOnUse">
<stop stop-color="#0056D6"/>
<stop offset="1" stop-color="#ADD8FF"/>
</linearGradient>
<linearGradient id="paint1_linear_209_2714" x1="65.55" y1="103.248" x2="82.5153" y2="88.9284" gradientUnits="userSpaceOnUse">
<stop stop-color="#0056D6"/>
<stop offset="1" stop-color="#ADD8FF"/>
</linearGradient>
<linearGradient id="paint2_linear_209_2714" x1="45.55" y1="82.2478" x2="62.5153" y2="67.9284" gradientUnits="userSpaceOnUse">
<stop stop-color="#0056D6"/>
<stop offset="1" stop-color="#ADD8FF"/>
</linearGradient>
<linearGradient id="paint3_linear_209_2714" x1="40.55" y1="103.248" x2="57.5153" y2="88.9284" gradientUnits="userSpaceOnUse">
<stop stop-color="#0056D6"/>
<stop offset="1" stop-color="#ADD8FF"/>
</linearGradient>
<linearGradient id="paint4_linear_209_2714" x1="70.55" y1="82.2478" x2="87.5153" y2="67.9284" gradientUnits="userSpaceOnUse">
<stop stop-color="#0056D6"/>
<stop offset="1" stop-color="#ADD8FF"/>
</linearGradient>
<linearGradient id="paint5_linear_209_2714" x1="20.55" y1="82.2478" x2="37.5153" y2="67.9284" gradientUnits="userSpaceOnUse">
<stop stop-color="#0056D6"/>
<stop offset="1" stop-color="#ADD8FF"/>
</linearGradient>
<linearGradient id="paint6_linear_209_2714" x1="56" y1="89.5" x2="96.5" y2="1.95655e-07" gradientUnits="userSpaceOnUse">
<stop stop-color="#0082DF"/>
<stop offset="0.299998" stop-color="#48B2FF" stop-opacity="0.75"/>
<stop offset="1" stop-color="#3BADFF" stop-opacity="0"/>
</linearGradient>
<linearGradient id="paint7_linear_209_2714" x1="69.6517" y1="-38.5" x2="69.6517" y2="77.5" gradientUnits="userSpaceOnUse">
<stop stop-color="#D7F0FF"/>
<stop offset="1" stop-color="#0072DC"/>
</linearGradient>
</defs>
</svg>
