<svg width="132" height="107" viewBox="0 0 132 107" fill="none" xmlns="http://www.w3.org/2000/svg">
<g filter="url(#filter0_f_209_2787)">
<ellipse cx="56.5" cy="67.5" rx="31.5" ry="9.5" fill="#004E67" fill-opacity="0.7"/>
</g>
<path fill-rule="evenodd" clip-rule="evenodd" d="M32.8063 87.875C32.8063 86.8395 31.9668 86 30.9313 86C29.8957 86 29.0563 86.8395 29.0563 87.875V90.4046L27.2676 88.6159C26.5354 87.8837 25.3482 87.8837 24.6159 88.6159C23.8837 89.3482 23.8837 90.5353 24.6159 91.2676L26.4048 93.0564H23.875C22.8395 93.0564 22 93.8959 22 94.9314C22 95.9669 22.8395 96.8064 23.875 96.8064H26.4046L24.6158 98.5952C23.8836 99.3275 23.8836 100.515 24.6158 101.247C25.348 101.979 26.5352 101.979 27.2674 101.247L29.0563 99.458V101.988C29.0563 103.023 29.8957 103.863 30.9313 103.863C31.9668 103.863 32.8063 103.023 32.8063 101.988V99.4579L34.5952 101.247C35.3275 101.979 36.5147 101.979 37.2469 101.247C37.9791 100.515 37.9791 99.3275 37.2469 98.5952L35.4581 96.8064H37.9879C39.0234 96.8064 39.8629 95.9669 39.8629 94.9314C39.8629 93.8959 39.0234 93.0564 37.9879 93.0564H35.4579L37.2467 91.2676C37.979 90.5353 37.979 89.3482 37.2467 88.6159C36.5145 87.8837 35.3273 87.8837 34.5951 88.6159L32.8063 90.4047V87.875Z" fill="url(#paint0_linear_209_2787)"/>
<path fill-rule="evenodd" clip-rule="evenodd" d="M100.806 87.875C100.806 86.8395 99.9668 86 98.9313 86C97.8957 86 97.0563 86.8395 97.0563 87.875V90.4046L95.2676 88.6159C94.5354 87.8837 93.3482 87.8837 92.6159 88.6159C91.8837 89.3482 91.8837 90.5353 92.6159 91.2676L94.4048 93.0564H91.875C90.8395 93.0564 90 93.8959 90 94.9314C90 95.9669 90.8395 96.8064 91.875 96.8064H94.4046L92.6158 98.5952C91.8836 99.3275 91.8836 100.515 92.6158 101.247C93.348 101.979 94.5352 101.979 95.2674 101.247L97.0563 99.458V101.988C97.0563 103.023 97.8957 103.863 98.9313 103.863C99.9668 103.863 100.806 103.023 100.806 101.988V99.4579L102.595 101.247C103.327 101.979 104.515 101.979 105.247 101.247C105.979 100.515 105.979 99.3275 105.247 98.5952L103.458 96.8064H105.988C107.023 96.8064 107.863 95.9669 107.863 94.9314C107.863 93.8959 107.023 93.0564 105.988 93.0564H103.458L105.247 91.2676C105.979 90.5353 105.979 89.3482 105.247 88.6159C104.515 87.8837 103.327 87.8837 102.595 88.6159L100.806 90.4047V87.875Z" fill="url(#paint1_linear_209_2787)"/>
<path fill-rule="evenodd" clip-rule="evenodd" d="M10.8063 87.875C10.8063 86.8395 9.9668 86 8.93127 86C7.89573 86 7.05627 86.8395 7.05627 87.875V90.4046L5.2676 88.6159C4.53536 87.8837 3.34818 87.8837 2.61595 88.6159C1.88371 89.3482 1.88371 90.5353 2.61595 91.2676L4.40478 93.0564H1.875C0.839466 93.0564 0 93.8959 0 94.9314C0 95.9669 0.839466 96.8064 1.875 96.8064H4.4046L2.61579 98.5952C1.88355 99.3275 1.88355 100.515 2.61579 101.247C3.34802 101.979 4.5352 101.979 5.26744 101.247L7.05627 99.458V101.988C7.05627 103.023 7.89573 103.863 8.93127 103.863C9.9668 103.863 10.8063 103.023 10.8063 101.988V99.4579L12.5952 101.247C13.3275 101.979 14.5147 101.979 15.2469 101.247C15.9791 100.515 15.9791 99.3275 15.2469 98.5952L13.4581 96.8064H15.9879C17.0234 96.8064 17.8629 95.9669 17.8629 94.9314C17.8629 93.8959 17.0234 93.0564 15.9879 93.0564H13.4579L15.2467 91.2676C15.979 90.5353 15.979 89.3482 15.2467 88.6159C14.5145 87.8837 13.3273 87.8837 12.5951 88.6159L10.8063 90.4047V87.875Z" fill="url(#paint2_linear_209_2787)"/>
<path fill-rule="evenodd" clip-rule="evenodd" d="M78.8063 87.875C78.8063 86.8395 77.9668 86 76.9313 86C75.8957 86 75.0563 86.8395 75.0563 87.875V90.4046L73.2676 88.6159C72.5354 87.8837 71.3482 87.8837 70.6159 88.6159C69.8837 89.3482 69.8837 90.5353 70.6159 91.2676L72.4048 93.0564H69.875C68.8395 93.0564 68 93.8959 68 94.9314C68 95.9669 68.8395 96.8064 69.875 96.8064H72.4046L70.6158 98.5952C69.8836 99.3275 69.8836 100.515 70.6158 101.247C71.348 101.979 72.5352 101.979 73.2674 101.247L75.0563 99.458V101.988C75.0563 103.023 75.8957 103.863 76.9313 103.863C77.9668 103.863 78.8063 103.023 78.8063 101.988V99.4579L80.5952 101.247C81.3275 101.979 82.5147 101.979 83.2469 101.247C83.9791 100.515 83.9791 99.3275 83.2469 98.5952L81.4581 96.8064H83.9879C85.0234 96.8064 85.8629 95.9669 85.8629 94.9314C85.8629 93.8959 85.0234 93.0564 83.9879 93.0564H81.4579L83.2467 91.2676C83.979 90.5353 83.979 89.3482 83.2467 88.6159C82.5145 87.8837 81.3273 87.8837 80.5951 88.6159L78.8063 90.4047V87.875Z" fill="url(#paint3_linear_209_2787)"/>
<path fill-rule="evenodd" clip-rule="evenodd" d="M92.8063 66.875C92.8063 65.8395 91.9668 65 90.9313 65C89.8957 65 89.0563 65.8395 89.0563 66.875V69.4046L87.2676 67.6159C86.5354 66.8837 85.3482 66.8837 84.6159 67.6159C83.8837 68.3482 83.8837 69.5353 84.6159 70.2676L86.4048 72.0564H83.875C82.8395 72.0564 82 72.8959 82 73.9314C82 74.9669 82.8395 75.8064 83.875 75.8064H86.4046L84.6158 77.5952C83.8836 78.3275 83.8836 79.5146 84.6158 80.2469C85.348 80.9791 86.5352 80.9791 87.2674 80.2469L89.0563 78.458V80.9879C89.0563 82.0234 89.8957 82.8629 90.9313 82.8629C91.9668 82.8629 92.8063 82.0234 92.8063 80.9879V78.4579L94.5952 80.2469C95.3275 80.9791 96.5147 80.9791 97.2469 80.2469C97.9791 79.5146 97.9791 78.3275 97.2469 77.5952L95.4581 75.8064H97.9879C99.0234 75.8064 99.8629 74.9669 99.8629 73.9314C99.8629 72.8959 99.0234 72.0564 97.9879 72.0564H95.4579L97.2467 70.2676C97.979 69.5353 97.979 68.3482 97.2467 67.6159C96.5145 66.8837 95.3273 66.8837 94.5951 67.6159L92.8063 69.4047V66.875Z" fill="url(#paint4_linear_209_2787)"/>
<path fill-rule="evenodd" clip-rule="evenodd" d="M34.8063 66.875C34.8063 65.8395 33.9668 65 32.9313 65C31.8957 65 31.0563 65.8395 31.0563 66.875V69.4046L29.2676 67.6159C28.5354 66.8837 27.3482 66.8837 26.6159 67.6159C25.8837 68.3482 25.8837 69.5353 26.6159 70.2676L28.4048 72.0564H25.875C24.8395 72.0564 24 72.8959 24 73.9314C24 74.9669 24.8395 75.8064 25.875 75.8064H28.4046L26.6158 77.5952C25.8836 78.3275 25.8836 79.5146 26.6158 80.2469C27.348 80.9791 28.5352 80.9791 29.2674 80.2469L31.0563 78.458V80.9879C31.0563 82.0234 31.8957 82.8629 32.9313 82.8629C33.9668 82.8629 34.8063 82.0234 34.8063 80.9879V78.4579L36.5952 80.2469C37.3275 80.9791 38.5147 80.9791 39.2469 80.2469C39.9791 79.5146 39.9791 78.3275 39.2469 77.5952L37.4581 75.8064H39.9879C41.0234 75.8064 41.8629 74.9669 41.8629 73.9314C41.8629 72.8959 41.0234 72.0564 39.9879 72.0564H37.4579L39.2467 70.2676C39.979 69.5353 39.979 68.3482 39.2467 67.6159C38.5145 66.8837 37.3273 66.8837 36.5951 67.6159L34.8063 69.4047V66.875Z" fill="url(#paint5_linear_209_2787)"/>
<path d="M47.8069 82.2814L60.9076 58.2315C60.9853 58.0888 61.1348 58 61.2973 58H78.2814C78.6114 58 78.826 58.3474 78.6782 58.6426L71.8724 72.2324C71.7246 72.5276 71.9391 72.875 72.2692 72.875H79L41.8784 105.356C41.5053 105.683 40.959 105.245 41.1967 104.81L52.7873 83.5941C52.9489 83.2983 52.7349 82.9375 52.3979 82.9375H48.1966C47.8598 82.9375 47.6458 82.5771 47.8069 82.2814Z" fill="url(#paint6_linear_209_2787)"/>
<g filter="url(#filter1_bi_209_2787)">
<path fill-rule="evenodd" clip-rule="evenodd" d="M80 30C80 30.7882 79.9696 31.5693 79.9099 32.3422C83.1949 29.6296 87.4071 28 92 28C102.493 28 111 36.5066 111 47C111 57.158 103.029 65.4541 93 65.9741V66H92H22H20V65.896C10.4467 64.8966 3 56.8179 3 47C3 37.1618 10.4775 29.07 20.0593 28.0979C21.0405 12.4156 34.0704 0 50 0C66.5685 0 80 13.4315 80 30Z" fill="url(#paint7_linear_209_2787)"/>
</g>
<path fill-rule="evenodd" clip-rule="evenodd" d="M128.432 47.9113H116.072C115.494 47.8165 114.968 47.5191 114.588 47.0723C114.208 46.6254 114 46.0582 114 45.4719C114 44.8856 114.208 44.3184 114.588 43.8715C114.968 43.4247 115.494 43.1273 116.072 43.0325H128.432C128.786 42.9746 129.148 42.9942 129.493 43.0901C129.838 43.1861 130.159 43.3559 130.432 43.588C130.705 43.82 130.924 44.1087 131.075 44.434C131.225 44.7593 131.303 45.1135 131.303 45.4719C131.303 45.8303 131.225 46.1845 131.075 46.5098C130.924 46.8351 130.705 47.1238 130.432 47.3558C130.159 47.5879 129.838 47.7578 129.493 47.8537C129.148 47.9496 128.786 47.9693 128.432 47.9113ZM101.103 47.9113H43.0134C42.6597 47.9693 42.2976 47.9496 41.9523 47.8537C41.6069 47.7578 41.2865 47.5879 41.0134 47.3559C40.7402 47.1238 40.5208 46.8351 40.3703 46.5098C40.2198 46.1845 40.1418 45.8303 40.1418 45.4719C40.1418 45.1135 40.2198 44.7593 40.3703 44.434C40.5208 44.1087 40.7402 43.82 41.0134 43.588C41.2865 43.3559 41.6069 43.1861 41.9523 43.0901C42.2976 42.9942 42.6597 42.9746 43.0134 43.0325H101.103C101.457 42.9746 101.819 42.9942 102.165 43.0901C102.51 43.1861 102.83 43.3559 103.103 43.588C103.377 43.82 103.596 44.1087 103.746 44.434C103.897 44.7593 103.975 45.1135 103.975 45.4719C103.975 45.8303 103.897 46.1845 103.746 46.5098C103.596 46.8351 103.377 47.1238 103.103 47.3559C102.83 47.5879 102.51 47.7578 102.165 47.8537C101.819 47.9496 101.457 47.9693 101.103 47.9113ZM32.8655 74.6139H123.806C124.461 74.6138 125.09 74.3534 125.554 73.8898C126.017 73.4262 126.278 72.7975 126.278 72.1419C126.278 71.4863 126.017 70.8576 125.554 70.394C125.09 69.9304 124.461 69.67 123.806 69.67H32.8655C32.2099 69.67 31.5811 69.9304 31.1175 70.394C30.654 70.8576 30.3936 71.4863 30.3936 72.1419C30.3936 72.7975 30.654 73.4262 31.1175 73.8898C31.5811 74.3534 32.2099 74.6138 32.8655 74.6139ZM84.6456 59.23H16.4078C16.0893 59.239 15.7723 59.1829 15.4762 59.0651C15.1802 58.9473 14.9112 58.7704 14.6859 58.5451C14.4606 58.3198 14.2836 58.0508 14.1659 57.7547C14.0481 57.4587 13.992 57.1416 14.0009 56.8231C13.9922 56.5016 14.0481 56.1816 14.1651 55.8821C14.2822 55.5825 14.4581 55.3095 14.6825 55.079C14.9068 54.8486 15.1751 54.6655 15.4715 54.5405C15.7678 54.4155 16.0862 54.3511 16.4078 54.3513H84.6456C85.2898 54.3682 85.902 54.6361 86.3515 55.0978C86.8011 55.5596 87.0526 56.1786 87.0524 56.8231C87.0524 57.4615 86.7988 58.0737 86.3475 58.5251C85.8961 58.9764 85.2839 59.23 84.6456 59.23ZM98.5661 59.23H118.537C118.855 59.239 119.172 59.1829 119.468 59.0651C119.764 58.9473 120.033 58.7704 120.258 58.5451C120.484 58.3198 120.661 58.0508 120.779 57.7547C120.896 57.4587 120.952 57.1416 120.943 56.8231C120.952 56.5016 120.896 56.1816 120.779 55.8821C120.662 55.5825 120.486 55.3095 120.262 55.079C120.038 54.8486 119.769 54.6655 119.473 54.5405C119.177 54.4155 118.858 54.3511 118.537 54.3513H98.5661C97.9106 54.3513 97.2818 54.6116 96.8182 55.0752C96.3547 55.5388 96.0942 56.1675 96.0942 56.8231C96.0941 57.1447 96.1585 57.4632 96.2835 57.7595C96.4085 58.0558 96.5916 58.3241 96.822 58.5485C97.0525 58.7728 97.3255 58.9488 97.6251 59.0658C97.9247 59.1829 98.2446 59.2387 98.5661 59.23Z" fill="url(#paint8_linear_209_2787)"/>
<path fill-rule="evenodd" clip-rule="evenodd" d="M109.526 54.3513C108.778 56.1317 107.767 57.7742 106.541 59.23H98.566C98.2445 59.2387 97.9245 59.1829 97.625 59.0658C97.3254 58.9488 97.0524 58.7728 96.8219 58.5485C96.5915 58.3241 96.4083 58.0558 96.2833 57.7595C96.1583 57.4632 96.094 57.1447 96.0941 56.8231C96.0941 56.1675 96.3545 55.5388 96.8181 55.0752C97.2817 54.6116 97.9104 54.3513 98.566 54.3513H109.526ZM43.0133 47.9113H101.103C101.457 47.9693 101.819 47.9496 102.164 47.8537C102.51 47.7578 102.83 47.5879 103.103 47.3558C103.376 47.1238 103.596 46.8351 103.746 46.5098C103.897 46.1845 103.975 45.8303 103.975 45.4719C103.975 45.1135 103.897 44.7593 103.746 44.434C103.596 44.1087 103.376 43.82 103.103 43.588C102.83 43.3559 102.51 43.1861 102.164 43.0901C101.819 42.9942 101.457 42.9746 101.103 43.0325H43.0133C42.6596 42.9746 42.2975 42.9942 41.9522 43.0901C41.6068 43.1861 41.2864 43.3559 41.0133 43.588C40.7401 43.82 40.5207 44.1087 40.3702 44.434C40.2197 44.7593 40.1417 45.1135 40.1417 45.4719C40.1417 45.8303 40.2197 46.1845 40.3702 46.5098C40.5207 46.8351 40.7401 47.1238 41.0133 47.3558C41.2864 47.5879 41.6068 47.7578 41.9522 47.8537C42.2975 47.9496 42.6596 47.9693 43.0133 47.9113ZM16.4077 59.23H84.6454C85.2838 59.23 85.896 58.9764 86.3473 58.5251C86.7987 58.0737 87.0523 57.4615 87.0523 56.8231C87.0525 56.1786 86.801 55.5596 86.3514 55.0978C85.9018 54.6361 85.2897 54.3682 84.6454 54.3513H16.4077C16.0861 54.3511 15.7677 54.4155 15.4713 54.5405C15.175 54.6655 14.9067 54.8486 14.6824 55.079C14.458 55.3095 14.2821 55.5825 14.165 55.8821C14.048 56.1816 13.9921 56.5016 14.0008 56.8231C13.9918 57.1416 14.048 57.4587 14.1657 57.7547C14.2835 58.0508 14.4605 58.3198 14.6858 58.5451C14.9111 58.7704 15.18 58.9473 15.4761 59.0651C15.7722 59.1829 16.0892 59.239 16.4077 59.23Z" fill="#A9DDFA"/>
<defs>
<filter id="filter0_f_209_2787" x="3" y="36" width="107" height="63" filterUnits="userSpaceOnUse" color-interpolation-filters="sRGB">
<feFlood flood-opacity="0" result="BackgroundImageFix"/>
<feBlend mode="normal" in="SourceGraphic" in2="BackgroundImageFix" result="shape"/>
<feGaussianBlur stdDeviation="11" result="effect1_foregroundBlur_209_2787"/>
</filter>
<filter id="filter1_bi_209_2787" x="-4" y="-7" width="122" height="80" filterUnits="userSpaceOnUse" color-interpolation-filters="sRGB">
<feFlood flood-opacity="0" result="BackgroundImageFix"/>
<feGaussianBlur in="BackgroundImageFix" stdDeviation="3.5"/>
<feComposite in2="SourceAlpha" operator="in" result="effect1_backgroundBlur_209_2787"/>
<feBlend mode="normal" in="SourceGraphic" in2="effect1_backgroundBlur_209_2787" result="shape"/>
<feColorMatrix in="SourceAlpha" type="matrix" values="0 0 0 0 0 0 0 0 0 0 0 0 0 0 0 0 0 0 127 0" result="hardAlpha"/>
<feOffset dy="2"/>
<feGaussianBlur stdDeviation="4"/>
<feComposite in2="hardAlpha" operator="arithmetic" k2="-1" k3="1"/>
<feColorMatrix type="matrix" values="0 0 0 0 0 0 0 0 0 0.82 0 0 0 0 1 0 0 0 0.25 0"/>
<feBlend mode="normal" in2="shape" result="effect2_innerShadow_209_2787"/>
</filter>
<linearGradient id="paint0_linear_209_2787" x1="24.55" y1="100.248" x2="41.5153" y2="85.9284" gradientUnits="userSpaceOnUse">
<stop stop-color="#0056D6"/>
<stop offset="1" stop-color="#ADD8FF"/>
</linearGradient>
<linearGradient id="paint1_linear_209_2787" x1="92.55" y1="100.248" x2="109.515" y2="85.9284" gradientUnits="userSpaceOnUse">
<stop stop-color="#0056D6"/>
<stop offset="1" stop-color="#ADD8FF"/>
</linearGradient>
<linearGradient id="paint2_linear_209_2787" x1="2.54998" y1="100.248" x2="19.5153" y2="85.9284" gradientUnits="userSpaceOnUse">
<stop stop-color="#0056D6"/>
<stop offset="1" stop-color="#ADD8FF"/>
</linearGradient>
<linearGradient id="paint3_linear_209_2787" x1="70.55" y1="100.248" x2="87.5153" y2="85.9284" gradientUnits="userSpaceOnUse">
<stop stop-color="#0056D6"/>
<stop offset="1" stop-color="#ADD8FF"/>
</linearGradient>
<linearGradient id="paint4_linear_209_2787" x1="84.55" y1="79.2478" x2="101.515" y2="64.9284" gradientUnits="userSpaceOnUse">
<stop stop-color="#0056D6"/>
<stop offset="1" stop-color="#ADD8FF"/>
</linearGradient>
<linearGradient id="paint5_linear_209_2787" x1="26.55" y1="79.2478" x2="43.5153" y2="64.9284" gradientUnits="userSpaceOnUse">
<stop stop-color="#0056D6"/>
<stop offset="1" stop-color="#ADD8FF"/>
</linearGradient>
<linearGradient id="paint6_linear_209_2787" x1="59.5" y1="58" x2="59.5" y2="107" gradientUnits="userSpaceOnUse">
<stop stop-color="#F8FD00"/>
<stop offset="1" stop-color="#FD9800"/>
</linearGradient>
<linearGradient id="paint7_linear_209_2787" x1="59" y1="89.5" x2="99.5" y2="1.95655e-07" gradientUnits="userSpaceOnUse">
<stop stop-color="#0082DF"/>
<stop offset="0.299998" stop-color="#48B2FF" stop-opacity="0.75"/>
<stop offset="1" stop-color="#3BADFF" stop-opacity="0"/>
</linearGradient>
<linearGradient id="paint8_linear_209_2787" x1="72.6517" y1="-38.5" x2="72.6517" y2="77.5" gradientUnits="userSpaceOnUse">
<stop stop-color="#D7F0FF"/>
<stop offset="1" stop-color="#0072DC"/>
</linearGradient>
</defs>
</svg>
